<?xml version="1.0" standalone="no"?>
<!DOCTYPE svg PUBLIC "-//W3C//DTD SVG 1.1//EN" "http://www.w3.org/Graphics/SVG/1.1/DTD/svg11.dtd" >
<svg xmlns="http://www.w3.org/2000/svg">
<metadata>
Generated by SVGconv.
Copyright   : Copyright  1996 Emigre Inc.; Designed by Zuzana Licko. Cyrillic design by ParaType, Inc.; Designer Gayaneh Bagdasaryan
Designer    : Zuzana Licko, Gayaneh Bagdasaryan
Foundry     : ParaType Ltd
Foundry URL : http://www.paratype.com
</metadata>
<defs>
<font id="FilosofiaCyrWeb-Italic" horiz-adv-x="457" >
<font-face units-per-em="1000" ascent="919" descent="281" />
<missing-glyph horiz-adv-x="175" />
<glyph unicode="&#32;" horiz-adv-x="175" />
<glyph unicode="&#33;" horiz-adv-x="278" d="M93 86q19 0 31 -14q12 -14 8 -34q-3 -19 -19.5 -32.5q-16.5 -13.5 -36.5 -13.5q-20 0 -31 13.5q-11 13.5 -8 32.5q4 20 20 34q16 14 36 14zt0 0zM143 615q4 17 18 30q14 13 32 13q17 0 28 -13q11 -13 7 -30q-2 -14 -7 -27.5q-5 -13.5 -11.5 -33q-6.5 -19.5 -15.5 -48q-9 -28.5 -20 -72q-11 -43.5 -24 -104.5q-13 -61 -28 -145q-2 -6 -6.5 -9.5q-4.5 -3.5 -9 -3.5q-4.5 0 -8 3.5q-3.5 3.5 -1.5 9.5q15 84 23.5 145q8.5 61 13 104.5q4.5 43.5 5.5 72q1 28.5 1 48q0 19.5 0.5 33t2.5 27.5z" />
<glyph unicode="&#34;" horiz-adv-x="367" d="M117 615q3 17 17.5 30q14.5 13 31.5 13q17 0 28 -13q11 -13 8 -30q-2 -9 -9 -22.5q-7 -13.5 -17 -34.5q-10 -21 -20 -50.5q-10 -29.5 -17 -69.5q-1 -6 -5 -8.5q-4 -2.5 -8.5 -2.5q-4.5 0 -7.5 2.5q-3 2.5 -2 8.5q7 40 7.5 69.5q0.5 29.5 -1.5 50.5q-2 21 -4.5 34.5q-2.5 13.5 -0.5 22.5zt0 0zM264 615q3 17 17.5 30q14.5 13 31.5 13q18 0 28.5 -13q10.5 -13 7.5 -30q-2 -9 -9 -22.5q-7 -13.5 -16.5 -34.5q-9.5 -21 -19.5 -50.5q-10 -29.5 -17 -69.5q-2 -6 -6 -8.5q-4 -2.5 -8.5 -2.5q-4.5 0 -7.5 2.5q-3 2.5 -2 8.5q7 40 7.5 69.5q0.5 29.5 -1.5 50.5q-2 21 -4.5 34.5t-0.5 22.5z" />
<glyph unicode="&#35;" horiz-adv-x="404" d="M273 517h5q0 5 0.5 8q0.5 3 1.5 6q1 3 1 6q6 32 8.5 50.5q2.5 18.5 3.5 29.5q1 11 1.5 16q0.5 5 1.5 10q2 8 8 12.5q6 4.5 17 2.5q11 -2 16 -8.5q5 -6.5 3 -14.5q-1 -5 -2.5 -9.5q-1.5 -4.5 -4 -15q-2.5 -10.5 -6.5 -29q-4 -18.5 -10 -51.5l-3 -13q18 0 29.5 1q11.5 1 18.5 1.5q7 0.5 11 1q4 0.5 8 0.5q8 0 13.5 -6q5.5 -6 5.5 -17q0 -11 -5.5 -16.5q-5.5 -5.5 -13.5 -5.5q-5 0 -9 0.5q-4 0.5 -11.5 1q-7.5 0.5 -19.5 1q-12 0.5 -33 0.5l-24 -136q18 0 29.5 1q11.5 1 18.5 1.5q7 0.5 11.5 1q4.5 0.5 8.5 0.5q8 0 13.5 -6q5.5 -6 5.5 -17q0 -11 -5.5 -16.5q-5.5 -5.5 -13.5 -5.5q-5 0 -9 0.5q-4 0.5 -11.5 1q-7.5 0.5 -20 1.5q-12.5 1 -33.5 1q-11 -54 -13 -80.5q-2 -26.5 -4 -37.5q-2 -6 -8 -11q-6 -5 -17 -4q-11 2 -16 9.5q-5 7.5 -3 14.5q2 10 8 34q6 24 16 75l-82 0q-5 -29 -8 -49q-3 -20 -4.5 -33.5q-1.5 -13.5 -2 -22q-0.5 -8.5 -1.5 -13.5q-2 -6 -8 -11q-6 -5 -17 -4q-11 2 -16 9.5q-5 7.5 -4 14.5q2 10 9.5 37q7.5 27 15.5 72q-35 -2 -46 -3q-11 -1 -19 -1q-7 0 -13 5.5q-6 5.5 -6 16.5q0 11 6 17q6 6 13 6q8 0 20 -1.5q12 -1.5 50 -2.5q1 10 4 21q2 10 4.5 22q2.5 12 4.5 25q5 30 12 69q-18 -1 -29 -1.5q-11 -0.5 -18 -1q-7 -0.5 -10.5 -1q-3.5 -0.5 -7.5 -0.5q-8 0 -14 5.5q-6 5.5 -6 16.5q0 11 6 17q6 6 14 6q4 0 8 -0.5q4 -0.5 11.5 -1q7.5 -0.5 19.5 -1.5q12 -1 32 -1l2 10l2 10q6 32 8.5 50.5q2.5 18.5 3.5 29.5q1 11 1.5 16q0.5 5 1.5 10q1 8 7.5 12.5q6.5 4.5 17.5 2.5q11 -2 15.5 -8.5q4.5 -6.5 3.5 -14.5q-1 -5 -2.5 -9.5q-1.5 -4.5 -4.5 -15q-3 -10.5 -7 -29q-4 -18.5 -10 -51.5l-2 -13zM247 343l24 137h-82l-23 -137z" />
<glyph unicode="&#36;" horiz-adv-x="426" d="M228 345q21 -12 41.5 -26.5q20.5 -14.5 36.5 -33.5q16 -19 25.5 -42.5q9.5 -23.5 9.5 -53.5q0 -38 -14 -67q-14 -29 -37.5 -49.5q-23.5 -20.5 -53.5 -31q-30 -10.5 -63 -11.5q-5 -25 -7 -42q-2 -17 -3.5 -29q-1.5 -12 -2 -19.5q-0.5 -7.5 -1.5 -12.5q-1 -7 -8 -13q-7 -6 -18 -6q-11 0 -15.5 6q-4.5 6 -3.5 13q1 5 2.5 12q1.5 7 4.5 19q3 12 6.5 30q3.5 18 8.5 45q-30 5 -53.5 18q-23.5 13 -39 30.5q-15.5 17.5 -24 37.5q-8.5 20 -8.5 38q0 30 16 45.5q16 15.5 37 15.5q16 0 26 -10q10 -10 10 -24q0 -18 -15 -31q-15 -13 -32 -14q12 -31 35.5 -48.5q23.5 -17.5 54.5 -22.5l37 215q-43 23 -72.5 58q-29.5 35 -29.5 89q0 39 15 67q15 28 38.5 46q23.5 18 50.5 27.5q27 9.5 51 10.5q7 44 8.5 64q1.5 20 3.5 28q2 8 8.5 13.5q6.5 5.5 17.5 5.5q11 0 16 -5.5q5 -5.5 3 -13.5q-2 -8 -6.5 -29q-4.5 -21 -13.5 -66q45 -8 69 -34.5q24 -26.5 24 -58.5q0 -26 -15.5 -40.5q-15.5 -14.5 -34.5 -14.5q-17 0 -26 11q-9 11 -7 22q1 14 11.5 25.5q10.5 11.5 27.5 15.5q-5 14 -19 25.5q-14 11.5 -37 16.5q0 -4 -0.5 -7q-0.5 -3 -1.5 -7zM179 66q20 1 39 8.5q19 7.5 33.5 20.5q14.5 13 23.5 31q9 18 9 41q0 29 -19.5 52.5q-19.5 23.5 -51.5 43.5zM228 548q-45 -3 -70 -30q-25 -27 -25 -65q0 -29 16 -50.5q16 -21.5 45 -39.5l30 169q2 10 4 16z" />
<glyph unicode="&#37;" horiz-adv-x="816" d="M615 627q-6 -10 -26.5 -39.5q-20.5 -29.5 -55.5 -88.5l-240 -401q-25 -41 -38.5 -66.5q-13.5 -25.5 -18.5 -34.5q-4 -7 -12.5 -10.5q-8.5 -3.5 -16.5 1.5q-10 4 -11.5 12q-1.5 8 2.5 15q5 9 22 33q17 24 41 64l241 401q35 58 52 90.5q17 32.5 22 40.5q5 7 12.5 10.5q7.5 3.5 17.5 -1.5q9 -4 11 -11.5q2 -7.5 -2 -14.5zt0 0zM296 465q8 46 9.5 77.5q1.5 31.5 -3 50.5q-4.5 19 -15 27q-10.5 8 -25.5 8q-16 0 -29.5 -8q-13.5 -8 -24.5 -27q-11 -19 -21 -50.5q-10 -31.5 -18 -77.5q-8 -46 -9 -77q-1 -31 3.5 -50q4.5 -19 15 -27q10.5 -8 25.5 -8q15 0 28.5 8q13.5 8 25 27q11.5 19 21 50q9.5 31 17.5 77zt0 0zM358 465q-8 -43 -24 -78q-16 -35 -37.5 -60q-21.5 -25 -46.5 -39q-25 -14 -51 -14q-26 0 -46 14q-20 14 -33 39q-13 25 -17 60q-4 35 4 78q8 43 24 78q16 35 38 60.5q22 25.5 47 39.5q25 14 51 14q25 0 45.5 -14q20.5 -14 33.5 -39.5q13 -25.5 16.5 -60.5q3.5 -35 -4.5 -78zt0 0zM643 176q8 46 9.5 77q1.5 31 -3 50q-4.5 19 -15 27q-10.5 8 -25.5 8q-15 0 -28.5 -8q-13.5 -8 -25 -27q-11.5 -19 -21 -50q-9.5 -31 -17.5 -77q-8 -46 -9.5 -77q-1.5 -31 3 -50q4.5 -19 15 -27q10.5 -8 26.5 -8q15 0 28.5 8q13.5 8 24.5 27q11 19 20.5 50q9.5 31 17.5 77zt0 0zM706 176q-8 -43 -24 -78q-16 -35 -37.5 -60q-21.5 -25 -47 -39q-25.5 -14 -50.5 -14q-26 0 -46.5 14q-20.5 14 -33.5 39q-13 25 -17 60q-4 35 4 78q7 43 23.5 78q16.5 35 38.5 60.5q22 25.5 47 39.5q25 14 51 14q26 0 46.5 -14q20.5 -14 33 -39.5q12.5 -25.5 16 -60.5t-3.5 -78z" />
<glyph unicode="&#38;" horiz-adv-x="617" d="M233 393q33 10 55 25q22 15 36.5 33.5q14.5 18.5 22.5 41q8 22.5 12 47.5q7 37 -5.5 64q-12.5 27 -49.5 27q-43 0 -66.5 -25.5q-23.5 -25.5 -30.5 -67.5q-8 -42 1 -77.5q9 -35.5 24 -67.5zM311 77q-13 20 -26.5 46q-13.5 26 -30.5 59l-74 151q-35 -28 -56.5 -65.5q-21.5 -37.5 -29.5 -80.5q-5 -29 -2.5 -58.5q2.5 -29.5 15 -53q12.5 -23.5 36 -38.5q23.5 -15 60.5 -15q33 0 59 14.5q26 14.5 49 40.5zt0 0zM328 51q-28 -30 -62.5 -49q-34.5 -19 -77.5 -19q-48 0 -81 17.5q-33 17.5 -53 45q-20 27.5 -26 62.5q-6 35 0 70q6 34 19 62.5q13 28.5 31.5 51.5q18.5 23 41 41q22.5 18 45.5 31q-20 41 -25.5 74.5q-5.5 33.5 0.5 68.5q5 26 18.5 53q13.5 27 35 48.5q21.5 21.5 50.5 35.5q29 14 65 14q28 0 50.5 -9q22.5 -9 36.5 -25.5q14 -16.5 19.5 -40q5.5 -23.5 0.5 -51.5q-9 -52 -53 -95.5q-44 -43.5 -110 -65.5q-2 -1 -4 -2q-2 -1 -5 -1l103 -208q4 -10 10 -20q16 25 33.5 60q17.5 35 39 66.5q21.5 31.5 49.5 54q28 22.5 64 22.5q28 0 38.5 -15.5q10.5 -15.5 8.5 -31.5q-3 -16 -15.5 -27q-12.5 -11 -28.5 -11q-14 0 -25.5 11.5q-11.5 11.5 -6.5 28.5q-21 -1 -39.5 -22q-18.5 -21 -35.5 -50.5q-17 -29.5 -33 -62q-16 -32.5 -33 -55.5q14 -26 24 -42q10 -16 17.5 -24.5q7.5 -8.5 14 -11q6.5 -2.5 14.5 -2.5q26 0 49.5 34q23.5 34 33.5 91q2 8 6.5 13.5q4.5 5.5 12.5 5.5q8 0 11.5 -5.5q3.5 -5.5 1.5 -13.5q-4 -24 -14 -52q-10 -28 -26.5 -51.5q-16.5 -23.5 -38.5 -39q-22 -15.5 -50 -15.5q-29 0 -52 10.5t-49 45.5z" />
<glyph unicode="&#39;" horiz-adv-x="218" d="M117 615q3 17 17.5 30q14.5 13 31.5 13q17 0 28 -13q11 -13 8 -30q-2 -9 -9 -22.5q-7 -13.5 -17 -34.5q-10 -21 -20 -50.5q-10 -29.5 -17 -69.5q-1 -6 -5 -8.5q-4 -2.5 -8.5 -2.5q-4.5 0 -7.5 2.5q-3 2.5 -2 8.5q7 40 7.5 69.5q0.5 29.5 -1.5 50.5q-2 21 -4.5 34.5t-0.5 22.5z" />
<glyph unicode="&#40;" horiz-adv-x="342" d="M248 -90q4 -6 3 -11.5q-1 -5.5 -4 -9q-3 -3.5 -8 -4q-5 -0.5 -9 3.5q-41 39 -75.5 83.5q-34.5 44.5 -57.5 95q-23 50.5 -31.5 107q-8.5 56.5 2.5 120.5q11 64 40 120.5q29 56.5 69.5 107q40.5 50.5 90.5 95q50 44.5 104 83.5q13 9 17.5 -0.5q4.5 -9.5 -6.5 -20.5q-25 -23 -61.5 -59.5q-36.5 -36.5 -73 -85q-36.5 -48.5 -67 -109q-30.5 -60.5 -43.5 -131.5q-13 -71 -3.5 -132q9.5 -61 29 -109.5q19.5 -48.5 43.5 -85t41 -58.5z" />
<glyph unicode="&#41;" horiz-adv-x="342" d="M260 295q-11 -64 -39.5 -120.5q-28.5 -56.5 -69 -107q-40.5 -50.5 -90.5 -95q-50 -44.5 -104 -83.5q-12 -8 -17.5 1q-5.5 9 6.5 20q24 22 60.5 58.5q36.5 36.5 73.5 85q37 48.5 68 109.5q31 61 43 132q13 71 4 131.5q-9 60.5 -28.5 109q-19.5 48.5 -43.5 85q-24 36.5 -41 59.5q-4 5 -3 10.5q1 5.5 4 9.5q3 4 7.5 4.5q4.5 0.5 9.5 -3.5q40 -39 74.5 -83.5q34.5 -44.5 57 -95q22.5 -50.5 31 -107t-2.5 -120.5z" />
<glyph unicode="&#42;" horiz-adv-x="407" d="M385 392q-10 -16 -28 -21q-18 -5 -34 6q-8 4 -13.5 13q-5.5 9 -13 21q-7.5 12 -20.5 26q-13 14 -36 30q1 -28 7.5 -46.5q6.5 -18.5 13 -31.5q6.5 -13 12 -22q5.5 -9 5.5 -18q0 -18 -14 -32q-14 -14 -33 -14q-19 0 -31.5 14q-12.5 14 -12.5 32q0 9 5 18q5 9 11.5 21.5q6.5 12.5 12 31q5.5 18.5 6.5 46.5q-23 -15 -36 -29.5q-13 -14.5 -20.5 -26q-7.5 -11.5 -13 -20.5q-5.5 -9 -12.5 -14q-16 -11 -34.5 -5q-18.5 6 -27.5 21q-10 17 -5 34q5 17 22 27q7 4 17.5 4.5q10.5 0.5 24.5 2q14 1.5 33 5.5q19 4 44 16q-25 12 -44 16.5q-19 4.5 -33 5q-14 0.5 -24.5 0.5q-10.5 0 -17.5 5q-17 10 -22 27.5q-5 17.5 5 33.5q10 16 28 22q18 6 34 -5q7 -5 12.5 -14q5.5 -9 13 -21q7.5 -12 20.5 -26q13 -14 36 -29q-1 27 -6.5 45.5q-5.5 18.5 -12 31q-6.5 12.5 -11.5 21.5q-5 9 -5 18q0 19 12.5 32.5q12.5 13.5 31.5 13.5q19 0 33 -13.5q14 -13.5 14 -32.5q0 -9 -5.5 -18q-5.5 -9 -12 -22q-6.5 -13 -13 -31q-6.5 -18 -7.5 -46q23 15 36 29q13 14 21 26q8 12 13 20.5q5 8.5 13 13.5q16 11 34 6.5q18 -4.5 28 -21.5q9 -15 4.5 -33.5q-4.5 -18.5 -21.5 -28.5q-7 -5 -17 -5q-10 0 -24.5 -0.5q-14.5 -0.5 -33.5 -4.5q-19 -4 -44 -16q25 -12 44 -16q19 -4 33 -5q14 -1 24 -1.5q10 -0.5 18 -4.5q17 -9 21 -27t-4 -35z" />
<glyph unicode="&#43;" horiz-adv-x="458" d="M273 268q33 0 52 0.5q19 0.5 30 1.5q11 1 16 1.5q5 0.5 10 0.5q8 0 13 -6q5 -6 3 -17q-2 -11 -9 -16.5q-7 -5.5 -15 -5.5q-5 0 -9.5 0.5q-4.5 0.5 -15 1.5q-10.5 1 -29.5 1.5q-19 0.5 -52 0.5h-35l-7 -35q-6 -33 -8.5 -52q-2.5 -19 -3.5 -29.5q-1 -10.5 -1 -16q0 -5.5 -1 -10.5q-2 -7 -8.5 -13q-6.5 -6 -17.5 -6q-11 0 -16 6q-5 6 -3 13q1 5 2.5 10.5q1.5 5.5 4 16q2.5 10.5 6 29.5q3.5 19 9.5 52l7 35h-35q-33 0 -52 -0.5q-19 -0.5 -30 -1.5q-11 -1 -16 -1.5q-5 -0.5 -10 -0.5q-7 0 -12 5.5q-5 5.5 -3 16.5q2 11 8.5 17q6.5 6 13.5 6q5 0 10.5 -0.5q5.5 -0.5 16 -1.5q10.5 -1 29.5 -1.5q19 -0.5 52 -0.5h35l6 35q6 32 8.5 51q2.5 19 3.5 30q1 11 1.5 16q0.5 5 1.5 10q1 8 7.5 13.5q6.5 5.5 17.5 5.5q11 0 16 -5.5q5 -5.5 4 -13.5q-1 -5 -2.5 -10q-1.5 -5 -4.5 -15.5q-3 -10.5 -7 -29.5q-4 -19 -10 -52l-6 -35z" />
<glyph unicode="&#44;" horiz-adv-x="258" d="M31 -110q-5 -4 -10 -3.5q-5 0.5 -7 3.5q-2 3 -0.5 8.5q1.5 5.5 9.5 12.5q41 35 59 64.5q18 29.5 18 47.5q-6 -13 -18.5 -20.5q-12.5 -7.5 -25.5 -7.5q-15 0 -26.5 12q-11.5 12 -7.5 32q4 20 20.5 34.5q16.5 14.5 39.5 14.5q31 0 42.5 -20.5q11.5 -20.5 7.5 -42.5q-6 -34 -32.5 -68.5t-68.5 -66.5z" />
<glyph unicode="&#45;" horiz-adv-x="408" d="M296 272q8 0 13 -6q5 -6 3 -17q-2 -11 -9 -16.5q-7 -5.5 -15 -5.5q-5 0 -9.5 0.5q-4.5 0.5 -14 1.5q-9.5 1 -26.5 1.5q-17 0.5 -48 0.5h-7q-31 0 -48.5 -0.5q-17.5 -0.5 -27.5 -1.5q-10 -1 -14.5 -1.5q-4.5 -0.5 -9.5 -0.5q-8 0 -12.5 5.5q-4.5 5.5 -2.5 16.5q2 11 8.5 17q6.5 6 13.5 6q5 0 10 -0.5q5 -0.5 14.5 -1.5q9.5 -1 27 -1.5q17.5 -0.5 47.5 -0.5h8q30 0 47.5 0.5q17.5 0.5 27.5 1.5q10 1 14.5 1.5t9.5 0.5z" />
<glyph unicode="&#46;" horiz-adv-x="258" d="M86 86q20 0 31.5 -13.5q11.5 -13.5 7.5 -34.5q-4 -20 -20 -33q-16 -13 -36 -13q-20 0 -31.5 13q-11.5 13 -7.5 33q4 21 20 34.5t36 13.5z" />
<glyph unicode="&#47;" horiz-adv-x="348" d="M342 644q5 7 12.5 10.5q7.5 3.5 17.5 -1.5q8 -4 10.5 -11.5q2.5 -7.5 -1.5 -14.5q-6 -10 -26.5 -39.5q-20.5 -29.5 -55.5 -88.5l-241 -401q-24 -41 -37.5 -66.5q-13.5 -25.5 -18.5 -34.5q-4 -7 -12.5 -10.5q-8.5 -3.5 -17.5 1.5q-9 4 -11 12q-2 8 2 15q6 9 23 33q17 24 41 64l241 401q34 58 51.5 90.5t22.5 40.5z" />
<glyph unicode="&#48;" horiz-adv-x="479" d="M350 196q6 33 0.5 62.5q-5.5 29.5 -19.5 51.5q-14 22 -36.5 35q-22.5 13 -51.5 13q-29 0 -55.5 -13q-26.5 -13 -48 -35.5q-21.5 -22.5 -37 -51.5q-15.5 -29 -21.5 -62q-6 -33 -0.5 -62.5q5.5 -29.5 20 -51.5q14.5 -22 36.5 -35q22 -13 51 -13q29 0 55.5 13q26.5 13 48.5 35q22 22 37 51.5q15 29.5 21 62.5zt0 0zM251 408q39 0 71 -16.5q32 -16.5 52.5 -45.5q20.5 -29 28.5 -67.5q8 -38.5 1 -82.5q-8 -46 -29 -85q-21 -39 -51.5 -67.5q-30.5 -28.5 -67.5 -44.5q-37 -16 -76 -16q-39 0 -71 16.5q-32 16.5 -53 45.5q-21 29 -29 68q-8 39 0 83q8 46 29 85q21 39 51.5 67q30.5 28 67.5 44t76 16z" />
<glyph unicode="&#49;" horiz-adv-x="348" d="M169 31q18 0 29 0q11 0 18 0.5q7 0.5 10.5 0.5q3.5 0 7.5 0q5 0 9 -5q4 -5 2 -13q-1 -8 -6.5 -12.5q-5.5 -4.5 -10.5 -4.5q-4 0 -8 1q-4 1 -13.5 1.5q-9.5 0.5 -27 1.5q-17.5 1 -48.5 1h-4q-31 0 -48.5 -1q-17.5 -1 -27.5 -1.5q-10 -0.5 -14 -1.5q-4 -1 -8 -1q-6 0 -10.5 4.5q-4.5 4.5 -2.5 12.5q5 18 18 18q4 0 7.5 0q3.5 0 10.5 -0.5q7 -0.5 18 -0.5q11 0 29 0l58 330q-38 0 -57.5 -1.5q-19.5 -1.5 -27.5 -1.5q-5 0 -9 5q-4 5 -2 13q5 17 17 17q8 0 27.5 -0.5q19.5 -0.5 57.5 -0.5q27 0 38.5 2q11.5 2 18.5 2q5 0 9 -5q4 -5 2 -13l-62 -347z" />
<glyph unicode="&#50;" horiz-adv-x="408" d="M116 116q40 27 67 49q27 22 44.5 40.5q17.5 18.5 26.5 36q9 17.5 12 35.5q8 44 -12 71.5q-20 27.5 -75 27.5q-15 0 -30 -4q-15 -4 -29 -10q-14 -6 -25 -14q-11 -8 -17 -17q14 -1 22 -12.5q8 -11.5 5 -25.5q-3 -16 -16 -27.5q-13 -11.5 -29 -11.5q-17 0 -27 14q-10 14 -6 35q4 21 21 40.5q17 19.5 41.5 33.5q24.5 14 54.5 22.5q30 8.5 60 8.5q75 0 109 -35.5q34 -35.5 25 -86.5q-4 -23 -14 -42q-10 -19 -28 -37.5q-18 -18.5 -45 -37.5q-27 -19 -66 -42l-108 -64l171 2q6 0 14 0.5q8 0.5 16 1.5q8 1 15.5 1.5q7.5 0.5 10.5 0.5q12 0 12 -13q0 -6 -5 -18q-5 -12 -8 -20q-5 -13 -10 -29.5q-5 -16.5 -9 -31.5q-4 -15 -7 -27q-3 -12 -4 -17q-1 -5 -6 -10q-5 -5 -13 -5q-8 0 -11 5q-3 5 -2 10q2 14 6.5 29.5q4.5 15.5 9.5 28.5q5 15 11 29l-275 0q-14 0 -14 10.5q0 10.5 11 18.5z" />
<glyph unicode="&#51;" horiz-adv-x="410" d="M136 118q44 0 73.5 34.5q29.5 34.5 40.5 93.5q13 73 -5 101.5q-18 28.5 -64 28.5q-34 0 -57.5 -14.5q-23.5 -14.5 -33.5 -33.5q14 -1 22.5 -13q8.5 -12 5.5 -26q-3 -16 -16 -27q-13 -11 -29 -11q-17 0 -26.5 14.5q-9.5 14.5 -5.5 35.5q4 24 18 43.5q14 19.5 35 33.5q21 14 48 22q27 8 57 8q33 0 58.5 -11.5q25.5 -11.5 42 -33q16.5 -21.5 22.5 -51.5q6 -30 -1 -66q-5 -24 -16.5 -46.5q-11.5 -22.5 -28 -41.5q-16.5 -19 -37.5 -33.5q-21 -14.5 -43 -21.5q50 -19 76.5 -65q26.5 -46 14.5 -113q-17 -92 -73 -142q-56 -50 -137 -50q-36 0 -63 12q-27 12 -44.5 30.5q-17.5 18.5 -25 41q-7.5 22.5 -3.5 44.5q4 20 18 31.5q14 11.5 30 11.5q16 0 25 -11q9 -11 7 -27q-2 -14 -14.5 -26q-12.5 -12 -27.5 -12q4 -11 11.5 -22q7.5 -11 20 -20q12.5 -9 30.5 -14.5q18 -5.5 42 -5.5q50 0 83.5 37q33.5 37 48.5 122q7 42 3 72q-4 30 -16.5 49.5q-12.5 19.5 -31.5 28.5q-19 9 -40 9q-19 0 -30 -0.5q-11 -0.5 -17.5 -1.5q-6.5 -1 -10.5 -1.5q-4 -0.5 -8 -0.5q-8 0 -12.5 5.5q-4.5 5.5 -2.5 15.5q2 10 8.5 15.5q6.5 5.5 13.5 5.5q4 0 8 -0.5q4 -0.5 10.5 -1.5q6.5 -1 17.5 -1.5t29 -0.5z" />
<glyph unicode="&#52;" horiz-adv-x="462" d="M227 319l-207 -282h157zM189 -247q-2 -5 -6 -5q-7 0 -11 2q-4 2 -14 2q-9 0 -14.5 -2q-5.5 -2 -10.5 -2q-6 0 -6 5l43 247h-190q-27 0 -11 22l309 423q6 8 11 13.5q5 5.5 12 5.5q6 0 9 -5q3 -5 0 -22l-70 -400h90q6 17 12 35q5 15 10.5 33q5.5 18 8.5 35q1 6 6 10.5q5 4.5 13 4.5q8 0 11 -4.5q3 -4.5 2 -10.5q-1 -5 -5 -16.5q-4 -11.5 -9.5 -27.5q-5.5 -16 -11 -36q-5.5 -20 -9.5 -41l0 -6q-2 -8 -7.5 -12.5q-5.5 -4.5 -11.5 -4.5q-9 0 -25 2q-16 2 -30 2l-51 0z" />
<glyph unicode="&#53;" horiz-adv-x="401" d="M87 147q13 2 24.5 3q11.5 1 26.5 1q55 0 88.5 -18.5q33.5 -18.5 50.5 -48q17 -29.5 19.5 -67q2.5 -37.5 -3.5 -75.5q-8 -44 -25.5 -82q-17.5 -38 -44.5 -66.5q-27 -28.5 -62.5 -44.5q-35.5 -16 -78.5 -16q-36 0 -62.5 12q-26.5 12 -43 31q-16.5 19 -23.5 42q-7 23 -3 44q4 21 17.5 31.5q13.5 10.5 29.5 10.5q16 0 25.5 -11q9.5 -11 6.5 -27q-2 -14 -14.5 -26q-12.5 -12 -26.5 -13q4 -12 11 -23q7 -11 18.5 -19.5q11.5 -8.5 28.5 -13.5q17 -5 41 -5q48 0 82.5 41q34.5 41 51.5 135q17 92 -6.5 134q-23.5 42 -82.5 42q-24 0 -40.5 -4.5q-16.5 -4.5 -27 -10.5q-10.5 -6 -17.5 -10.5q-7 -4.5 -11 -4.5q-7 0 -12 5.5q-5 5.5 -3 15.5q3 16 31 27l40 227q4 29 30 29h166q22 0 36.5 3.5q14.5 3.5 23 12q8.5 8.5 13.5 21.5q5 13 8 33q1 5 6 10q5 5 13 5q8 0 11.5 -5q3.5 -5 2.5 -10q-2 -11 -14 -33.5q-12 -22.5 -22 -54.5q-5 -15 -10 -24.5q-5 -9.5 -14 -14.5q-9 -5 -23.5 -6q-14.5 -1 -37.5 -1l-162 1l-32 -182z" />
<glyph unicode="&#54;" horiz-adv-x="464" d="M401 662q8 1 12.5 -3.5q4.5 -4.5 4.5 -10.5q0 -6 -5 -11.5q-5 -5.5 -17 -7.5q-35 -6 -72 -30.5q-37 -24.5 -72 -66.5q-35 -42 -67 -100.5q-32 -58.5 -57 -133.5q23 26 55.5 43q32.5 17 77.5 17q33 0 59.5 -12q26.5 -12 44 -35.5q17.5 -23.5 23.5 -58.5q6 -35 -2 -81q-7 -39 -25.5 -73q-18.5 -34 -46 -59.5q-27.5 -25.5 -62 -40.5q-34.5 -15 -73.5 -15q-31 0 -62 11.5q-31 11.5 -52.5 40.5q-21.5 29 -30.5 80q-9 51 5 129q7 42 25.5 88.5q18.5 46.5 45 91q26.5 44.5 59.5 85.5q33 41 71 73q38 32 78.5 53.5q40.5 21.5 82.5 26.5zt0 0zM314 172q13 70 -3.5 112q-16.5 42 -62.5 42q-32 0 -57 -11q-25 -11 -43.5 -29.5q-18.5 -18.5 -30 -42q-11.5 -23.5 -15.5 -47.5q-7 -38 -7 -71q0 -33 9 -57q9 -24 28.5 -38q19.5 -14 51.5 -14q31 0 53.5 12.5q22.5 12.5 37.5 33.5q15 21 24 49.5t15 60.5z" />
<glyph unicode="&#55;" horiz-adv-x="378" d="M75 329q-7 -17 -13 -35q-5 -15 -10 -33q-5 -18 -8 -35q-1 -6 -6 -10.5q-5 -4.5 -13 -4.5q-8 0 -11.5 4.5q-3.5 4.5 -1.5 10.5q0 4 4.5 16q4.5 12 9.5 28q5 16 11 36q6 20 9 41l7 34q1 8 6.5 12.5q5.5 4.5 10.5 4.5q7 0 25 -2q18 -2 30 -2l206 -1l2 2q7 11 15 14q8 3 13 0q5 -3 6.5 -10q1.5 -7 -3.5 -16l-234 -420q-24 -44 -38.5 -72.5q-14.5 -28.5 -19.5 -60.5q-3 -14 0.5 -34q3.5 -20 17.5 -25q0 23 15.5 36.5q15.5 13.5 32.5 13.5q17 0 26.5 -12q9.5 -12 6.5 -29q-4 -21 -24 -34q-20 -13 -40 -13q-17 0 -31 7.5q-14 7.5 -24 20.5q-10 13 -14 30.5q-4 17.5 0 38.5q3 18 7.5 33q4.5 15 12 31.5q7.5 16.5 17.5 36q10 19.5 25 45.5l197 353z" />
<glyph unicode="&#56;" horiz-adv-x="438" d="M234 373q24 14 45 29q21 15 38 31.5q17 16.5 28.5 35.5q11.5 19 15.5 42q5 30 1 52q-4 22 -15.5 36q-11.5 14 -28 20.5q-16.5 6.5 -35.5 6.5q-23 0 -43 -8q-20 -8 -35 -21.5q-15 -13.5 -25 -31.5q-10 -18 -13 -37q-5 -28 -1.5 -50.5q3.5 -22.5 13 -40.5q9.5 -18 24 -33.5q14.5 -15.5 31.5 -30.5zt0 0zM203 316q-25 -16 -48.5 -33q-23.5 -17 -42.5 -36q-19 -19 -32.5 -41.5q-13.5 -22.5 -17.5 -49.5q-6 -36 -0.5 -62.5q5.5 -26.5 20 -43.5q14.5 -17 34.5 -25.5q20 -8.5 43 -8.5q45 0 79 31q34 31 44 84q6 35 1.5 62.5q-4.5 27.5 -16 49q-11.5 21.5 -28.5 39.5q-17 18 -36 34zt0 0zM260 352q22 -18 42 -36.5q20 -18.5 34.5 -41.5q14.5 -23 20.5 -51.5q6 -28.5 0 -66.5q-8 -42 -27.5 -74.5q-19.5 -32.5 -47.5 -54.5q-28 -22 -61.5 -33q-33.5 -11 -67.5 -11q-33 0 -60 12q-27 12 -45.5 34.5q-18.5 22.5 -26.5 54.5q-8 32 -1 72q6 33 21 59.5q15 26.5 36 48q21 21.5 47 39.5q26 18 53 35q-18 16 -35 33q-17 17 -28 37.5q-11 20.5 -16 45.5q-5 25 1 57q5 30 22.5 57q17.5 27 42.5 47q25 20 55.5 31.5q30.5 11.5 61.5 11.5q31 0 56 -10.5q25 -10.5 41.5 -30q16.5 -19.5 23.5 -46.5q7 -27 1 -60q-5 -27 -18.5 -49q-13.5 -22 -32.5 -41.5q-19 -19.5 -43 -36t-49 -32.5z" />
<glyph unicode="&#57;" horiz-adv-x="464" d="M378 148q-11 -64 -45.5 -134.5q-34.5 -70.5 -84 -131q-49.5 -60.5 -109.5 -102.5q-60 -42 -122 -50q-8 -1 -12.5 3q-4.5 4 -4.5 10q0 6 5 11.5q5 5.5 17 7.5q35 6 72 30.5q37 24.5 72 66.5q35 42 66.5 101q31.5 59 57.5 133q-24 -25 -56 -42.5q-32 -17.5 -77 -17.5q-33 0 -59.5 12q-26.5 12 -44 36q-17.5 24 -23.5 59q-6 35 2 81q7 39 25.5 73q18.5 34 45.5 59.5q27 25.5 61.5 40q34.5 14.5 73.5 14.5q31 0 62.5 -11q31.5 -11 53 -40.5q21.5 -29.5 30 -80q8.5 -50.5 -5.5 -128.5zt0 0zM316 196q7 38 7 71q0 33 -9.5 57q-9.5 24 -29 38q-19.5 14 -51.5 14q-31 0 -53 -12.5q-22 -12.5 -37.5 -33.5q-15.5 -21 -24.5 -49.5q-9 -28.5 -15 -60.5q-12 -70 4 -112q16 -42 63 -42q31 0 56 11q25 11 44 29.5q19 18.5 30.5 42t15.5 47.5z" />
<glyph unicode="&#58;" horiz-adv-x="258" d="M139 380q20 0 31 -13.5q11 -13.5 7 -34.5q-3 -20 -19 -33.5q-16 -13.5 -36 -13.5q-20 0 -31.5 13.5q-11.5 13.5 -8.5 33.5q4 21 20.5 34.5q16.5 13.5 36.5 13.5zt0 0zM86 86q20 0 31.5 -13.5q11.5 -13.5 7.5 -34.5q-4 -20 -20 -33q-16 -13 -36 -13q-20 0 -31.5 13q-11.5 13 -7.5 33q4 21 20 34.5t36 13.5z" />
<glyph unicode="&#59;" horiz-adv-x="258" d="M31 -110q-5 -4 -10 -3.5q-5 0.5 -7 3.5q-2 3 -0.5 8.5q1.5 5.5 9.5 12.5q41 35 59 64.5q18 29.5 18 47.5q-6 -13 -18.5 -20.5q-12.5 -7.5 -25.5 -7.5q-15 0 -26.5 12q-11.5 12 -7.5 32q4 20 20.5 34.5q16.5 14.5 39.5 14.5q31 0 42.5 -20.5q11.5 -20.5 7.5 -42.5q-6 -34 -32.5 -68.5q-26.5 -34.5 -68.5 -66.5zt0 0zM131 380q20 0 31 -13.5q11 -13.5 7 -34.5q-3 -20 -19 -33.5q-16 -13.5 -36 -13.5q-20 0 -31.5 13.5q-11.5 13.5 -8.5 33.5q4 21 20.5 34.5t36.5 13.5z" />
<glyph unicode="&#60;" horiz-adv-x="443" d="M334 68q12 -12 4.5 -20.5q-7.5 -8.5 -21.5 2.5l-255 203q-18 14 5 29l326 203q16 10 21 2q5 -8 -9 -19l-271 -200l200 -200z" />
<glyph unicode="&#61;" horiz-adv-x="458" d="M345 334q8 0 12.5 -5.5q4.5 -5.5 2.5 -16.5q-2 -11 -8.5 -17q-6.5 -6 -14.5 -6q-5 0 -10 0.5q-5 0.5 -15.5 1.5q-10.5 1 -29.5 1.5q-19 0.5 -52 0.5h-16q-33 0 -52 -0.5q-19 -0.5 -30 -1.5q-11 -1 -16 -1.5q-5 -0.5 -10 -0.5q-7 0 -12 6q-5 6 -3 17q2 11 9 16.5q7 5.5 14 5.5q5 0 10.5 -0.5q5.5 -0.5 16 -1.5q10.5 -1 29 -1.5q18.5 -0.5 51.5 -0.5h16q32 0 51 0.5q19 0.5 30 1.5q11 1 16.5 1.5q5.5 0.5 10.5 0.5zt0 0zM323 209q8 0 12.5 -5.5q4.5 -5.5 2.5 -16.5q-2 -11 -8.5 -17q-6.5 -6 -14.5 -6q-5 0 -10 0.5q-5 0.5 -15.5 1.5q-10.5 1 -29.5 1.5q-19 0.5 -52 0.5h-15q-33 0 -52 -0.5q-19 -0.5 -30 -1.5q-11 -1 -16.5 -1.5q-5.5 -0.5 -10.5 -0.5q-7 0 -12.5 6q-5.5 6 -3.5 17q2 11 9.5 16.5q7.5 5.5 14.5 5.5q5 0 10 -0.5q5 -0.5 15.5 -1.5q10.5 -1 29.5 -1.5q19 -0.5 51 -0.5h16q33 0 52 0.5q19 0.5 30 1.5q11 1 16.5 1.5t10.5 0.5z" />
<glyph unicode="&#62;" horiz-adv-x="443" d="M28 50q-9 -6 -15 -6q-6 0 -8 3.5q-2 3.5 0.5 9q2.5 5.5 10.5 11.5l272 200l-201 200q-5 5 -5 10.5q0 5.5 3 8.5q3 3 8.5 3q5.5 0 11.5 -5l255 -203q19 -14 -5 -29z" />
<glyph unicode="&#63;" horiz-adv-x="415" d="M149 86q20 0 31.5 -14q11.5 -14 7.5 -34q-3 -19 -19.5 -32.5q-16.5 -13.5 -35.5 -13.5q-20 0 -31.5 13.5q-11.5 13.5 -8.5 32.5q4 20 20 34q16 14 36 14zt0 0zM398 513q-7 -39 -24 -67.5q-17 -28.5 -39.5 -51q-22.5 -22.5 -47 -41.5q-24.5 -19 -46 -37.5q-21.5 -18.5 -37.5 -39.5q-16 -21 -21 -48q-1 -8 -2 -20.5q-1 -12.5 -3 -22.5q-2 -7 -6.5 -10q-4.5 -3 -9 -3q-4.5 0 -8 3.5q-3.5 3.5 -1.5 9.5q1 6 2.5 18q1.5 12 3.5 25q2 13 4 24.5q2 11.5 3 16.5q6 36 19.5 60q13.5 24 30.5 42q17 18 35.5 33q18.5 15 35 32q16.5 17 29.5 39.5q13 22.5 19 56.5q3 14 0.5 30.5q-2.5 16.5 -12 30.5q-9.5 14 -27 23.5q-17.5 9.5 -44.5 9.5q-46 0 -76.5 -22q-30.5 -22 -40.5 -51q14 0 27 -10q13 -10 10 -30q-3 -16 -16 -27q-13 -11 -30 -11q-23 0 -31 19.5q-8 19.5 -4 42.5q4 23 19.5 45q15.5 22 38.5 39q23 17 51 27q28 10 57 10q40 0 68.5 -12q28.5 -12 46.5 -32.5q18 -20.5 24.5 -46.5t1.5 -54z" />
<glyph unicode="&#64;" horiz-adv-x="724" d="M445 323q-8 10 -23 18.5q-15 8.5 -41 8.5q-23 0 -42 -12.5q-19 -12.5 -34.5 -34q-15.5 -21.5 -26.5 -50q-11 -28.5 -17 -59.5q-5 -31 -4.5 -57.5q0.5 -26.5 7.5 -46.5q7 -20 21 -31.5q14 -11.5 36 -11.5q29 0 56.5 26.5q27.5 26.5 35.5 68.5zM497 46q19 0 42.5 17.5q23.5 17.5 43.5 46.5q20 29 34 68q14 39 14 82q0 56 -20 99.5q-20 43.5 -53 73q-33 29.5 -76 45q-43 15.5 -90 15.5q-66 0 -122.5 -26q-56.5 -26 -98 -70q-41.5 -44 -65.5 -101.5q-24 -57.5 -24 -120.5q0 -65 20.5 -117.5q20.5 -52.5 56.5 -89q36 -36.5 86.5 -56.5q50.5 -20 110.5 -20q60 0 116.5 18q56.5 18 100.5 48q11 7 15.5 -2.5q4.5 -9.5 -3.5 -16.5q-56 -42 -119 -62q-63 -20 -120 -20q-69 0 -129.5 24q-60.5 24 -105 66.5q-44.5 42.5 -70.5 100q-26 57.5 -26 124.5q0 74 28.5 140q28.5 66 77.5 115q49 49 115 77.5q66 28.5 140 28.5q61 0 113.5 -19.5q52.5 -19.5 91.5 -55q39 -35.5 61 -85.5q22 -50 22 -111q0 -51 -17.5 -97q-17.5 -46 -45.5 -81q-28 -35 -61.5 -55.5q-33.5 -20.5 -66.5 -20.5q-30 0 -47 17q-17 17 -22 37q-9 -12 -21 -22.5q-12 -10.5 -26 -18q-14 -7.5 -28 -12q-14 -4.5 -26 -4.5q-33 0 -56.5 15q-23.5 15 -37 40.5q-13.5 25.5 -17 60q-3.5 34.5 3.5 73.5q7 39 25.5 73.5q18.5 34.5 44.5 60q26 25.5 57 40.5q31 15 63 15q21 0 35 -4q14 -4 31 -13l58 0l-46 -258q-6 -34 2 -48t31 -14z" />
<glyph unicode="&#65;" horiz-adv-x="517" d="M18 31q17 0 27.5 0q10.5 0 17 0.5q6.5 0.5 10 0.5q3.5 0 7.5 0q6 0 10 -5q4 -5 2 -13q-2 -8 -7 -12.5q-5 -4.5 -11 -4.5q-3 0 -7 0.5q-4 0.5 -12 1.5q-8 1 -23 2q-15 1 -40 1q-26 0 -41 -1q-15 -1 -23.5 -2q-8.5 -1 -12.5 -1.5q-4 -0.5 -7 -0.5q-5 0 -9.5 4.5q-4.5 4.5 -2.5 12.5q2 8 7.5 13q5.5 5 10.5 5q7 0 17.5 -0.5q10.5 -0.5 45.5 -0.5l384 616q3 5 9 9q6 4 14 4q15 0 15 -19v-610q18 0 29 0q11 0 17.5 0.5q6.5 0.5 10 0.5q3.5 0 7.5 0q6 0 10 -5q4 -5 2 -13q-2 -8 -7 -12.5q-5 -4.5 -10 -4.5q-4 0 -8 1q-4 1 -13.5 1.5q-9.5 0.5 -27 1.5q-17.5 1 -48.5 1h-4q-31 0 -49 -1q-18 -1 -27.5 -1.5q-9.5 -0.5 -14 -1.5q-4.5 -1 -8.5 -1q-5 0 -9.5 4.5q-4.5 4.5 -2.5 12.5q2 8 7.5 13q5.5 5 10.5 5q4 0 7.5 0q3.5 0 10 -0.5q6.5 -0.5 17.5 -0.5q11 0 29 0l0 171h-204zM328 529l-181 -291l181 0z" />
<glyph unicode="&#66;" horiz-adv-x="504" d="M221 37q33 0 57 7q24 7 41 23q17 16 28 42.5q11 26.5 18 64.5q11 66 -14 104.5q-25 38.5 -88 38.5h-76l-49 -280zM232 353q30 0 54.5 6q24.5 6 43.5 21.5q19 15.5 32.5 41.5q13.5 26 20.5 66q11 64 -10.5 90.5q-21.5 26.5 -89.5 26.5h-45l-45 -252zM94 2q-30 0 -48 -1q-18 -1 -27.5 -1.5q-9.5 -0.5 -14 -1.5q-4.5 -1 -8.5 -1q-6 0 -10 4.5q-4 4.5 -3 12.5q5 18 19 18q4 0 7.5 0q3.5 0 10 -0.5q6.5 -0.5 17.5 -0.5q11 0 29 0l102 580q-18 0 -29 0q-11 0 -18 -0.5q-7 -0.5 -10.5 -0.5q-3.5 0 -7.5 0q-5 0 -9 5q-4 5 -2 13q1 8 6.5 12.5q5.5 4.5 10.5 4.5q4 0 8 -1q4 -1 13.5 -1.5q9.5 -0.5 27 -1.5q17.5 -1 48.5 -1q22 0 45.5 1q23.5 1 46.5 1q48 0 82 -12q34 -12 54 -32.5q20 -20.5 27 -48.5q7 -28 1 -61q-5 -27 -18 -50q-13 -23 -31 -41.5q-18 -18.5 -38.5 -31.5q-20.5 -13 -41.5 -19q28 -6 51 -21.5q23 -15.5 38 -38q15 -22.5 21 -51q6 -28.5 0 -61.5q-14 -80 -71 -128q-57 -48 -154 -48q-19 0 -33.5 0.5q-14.5 0.5 -28.5 1.5q-14 1 -29 1.5t-33 0.5z" />
<glyph unicode="&#67;" horiz-adv-x="504" d="M220 -17q-48 0 -87.5 24.5q-39.5 24.5 -64 69q-24.5 44.5 -33 106.5q-8.5 62 5.5 138q13 76 43.5 138q30.5 62 71 106q40.5 44 88 68.5q47.5 24.5 95.5 24.5q26 0 45.5 -5q19.5 -5 34.5 -13.5q15 -8.5 26.5 -20q11.5 -11.5 21.5 -24.5q8 2 16 11q8 9 12 27q2 5 4 10q2 5 12 5q10 0 11 -5q1 -5 0 -10l-36 -203q-2 -7 -5 -11.5q-3 -4.5 -11 -4.5q-9 0 -10.5 5.5q-1.5 5.5 -0.5 10.5q7 41 1.5 75.5q-5.5 34.5 -22 60q-16.5 25.5 -41.5 39.5q-25 14 -57 14q-38 0 -71 -15q-33 -15 -60.5 -49.5q-27.5 -34.5 -49 -91.5q-21.5 -57 -36.5 -142q-15 -85 -13.5 -142q1.5 -57 16.5 -91.5q15 -34.5 43 -49.5q28 -15 66 -15q32 0 62.5 14q30.5 14 55.5 39.5q25 25.5 43 60q18 34.5 25 75.5q1 5 4 10.5q3 5.5 12 5.5q8 0 10 -5.5q2 -5.5 1 -10.5l-36 -204q-1 -4 -3.5 -9.5q-2.5 -5.5 -12.5 -5.5q-10 0 -11 5.5q-1 5.5 0 10.5q2 13 0 25.5q-2 12.5 -9 17.5q-16 -15 -32 -27.5q-16 -12.5 -34 -21.5q-18 -9 -40 -14.5t-50 -5.5z" />
<glyph unicode="&#68;" horiz-adv-x="586" d="M253 37q38 0 70 14.5q32 14.5 57.5 47.5q25.5 33 45.5 87.5q20 54.5 34 134.5q14 80 13.5 134.5q-0.5 54.5 -15 87.5q-14.5 33 -41 47.5q-26.5 14.5 -64.5 14.5q-23 0 -43 -0.5q-20 -0.5 -37 -0.5q-19 -1 -36 -1l-99 -564q15 -1 33 -1q16 -1 36.5 -1q20.5 0 45.5 0zt0 0zM94 2q-30 0 -48 -1q-18 -1 -27.5 -1.5q-9.5 -0.5 -14 -1.5q-4.5 -1 -8.5 -1q-6 0 -10 4.5q-4 4.5 -3 12.5q5 18 19 18q4 0 7.5 0q3.5 0 10 -0.5q6.5 -0.5 17.5 -0.5q11 0 29 0l102 580q-18 0 -29 0q-11 0 -18 -0.5q-7 -0.5 -10.5 -0.5q-3.5 0 -7.5 0q-5 0 -9 5q-4 5 -2 13q1 8 6.5 12.5q5.5 4.5 10.5 4.5q4 0 8 -1q4 -1 13.5 -1.5q9.5 -0.5 27 -1.5q17.5 -1 48.5 -1q22 0 63.5 1.5q41.5 1.5 89.5 1.5q48 0 87.5 -23q39.5 -23 65 -65.5q25.5 -42.5 34.5 -102q9 -59.5 -4 -131.5q-13 -72 -42.5 -131.5q-29.5 -59.5 -70 -102q-40.5 -42.5 -88 -66q-47.5 -23.5 -95.5 -23.5q-48 0 -83 2t-69 2z" />
<glyph unicode="&#69;" horiz-adv-x="489" d="M424 642q11 0 28 2q17 2 23 2q13 0 10 -18l-6 -30q-2 -15 -5 -34.5q-3 -19.5 -5 -37.5q-2 -18 -4 -31.5q-2 -13.5 -2 -17.5q-2 -6 -5.5 -10.5q-3.5 -4.5 -11.5 -4.5q-7 0 -10.5 4.5q-3.5 4.5 -2.5 10.5q11 60 -1 94q-12 34 -50 34h-144l-45 -252h88q22 0 38 19.5q16 19.5 23 57.5q1 6 4.5 10.5q3.5 4.5 9.5 4.5q6 0 8.5 -4.5q2.5 -4.5 0.5 -10.5q-1 -3 -2.5 -9q-1.5 -6 -3.5 -16.5q-2 -10.5 -5.5 -27.5q-3.5 -17 -7.5 -42q-5 -25 -7.5 -42q-2.5 -17 -4 -27.5q-1.5 -10.5 -2 -16.5q-0.5 -6 -0.5 -9q-2 -5 -5 -10q-3 -5 -9 -5q-7 0 -9 5q-2 5 -1 10q8 38 -2 57.5q-10 19.5 -32 19.5h-87l-49 -280h166q38 0 62 34q24 34 35 94q1 6 5 10.5q4 4.5 12 4.5q8 0 10.5 -4.5q2.5 -4.5 1.5 -10.5q-1 -4 -4 -17.5q-3 -13.5 -7 -31.5q-4 -18 -8 -37.5q-4 -19.5 -7 -34.5l-5 -31q-1 -8 -6 -12.5q-5 -4.5 -10 -4.5q-7 0 -23 2q-16 2 -27 2l-239 2q-30 0 -48 -1q-18 -1 -27.5 -1.5q-9.5 -0.5 -14 -1.5q-4.5 -1 -8.5 -1q-6 0 -10 4.5q-4 4.5 -3 12.5q5 18 19 18q4 0 7.5 0q3.5 0 10 -0.5q6.5 -0.5 17.5 -0.5q11 0 29 0l102 580q-18 0 -29 0q-11 0 -18 -0.5q-7 -0.5 -10.5 -0.5q-3.5 0 -7.5 0q-5 0 -9 5q-4 5 -2 13q1 8 6.5 12.5q5.5 4.5 10.5 4.5q4 0 8 -1q4 -1 13.5 -1.5q9.5 -0.5 27 -1.5q17.5 -1 48.5 -1l218 2z" />
<glyph unicode="&#70;" horiz-adv-x="460" d="M296 353q21 0 37.5 19.5q16.5 19.5 23.5 57.5q1 6 4.5 10.5q3.5 4.5 9.5 4.5q6 0 8.5 -4.5q2.5 -4.5 0.5 -10.5q-1 -3 -2.5 -9q-1.5 -6 -4 -16.5q-2.5 -10.5 -6 -27.5q-3.5 -17 -7.5 -42q-5 -25 -7 -42q-2 -17 -3.5 -27.5q-1.5 -10.5 -2 -16.5q-0.5 -6 -0.5 -9q-2 -5 -5 -10q-3 -5 -9 -5q-7 0 -9 5q-2 5 -1 10q8 38 -2 57.5q-10 19.5 -32 19.5h-102l-50 -286q18 0 29 0q11 0 17.5 0.5q6.5 0.5 10 0.5q3.5 0 7.5 0q5 0 9.5 -5q4.5 -5 2.5 -13q-2 -8 -7 -12.5q-5 -4.5 -11 -4.5q-4 0 -8 1q-4 1 -13.5 1.5q-9.5 0.5 -27 1.5q-17.5 1 -48.5 1h-4q-30 0 -48 -1q-18 -1 -27.5 -1.5q-9.5 -0.5 -14 -1.5q-4.5 -1 -8.5 -1q-6 0 -10 4.5q-4 4.5 -3 12.5q5 18 19 18q4 0 7.5 0q3.5 0 10 -0.5q6.5 -0.5 17.5 -0.5q11 0 29 0l102 580q-18 0 -29 0q-11 0 -18 -0.5q-7 -0.5 -10.5 -0.5q-3.5 0 -7.5 0q-5 0 -9 5q-4 5 -2 13q1 8 6.5 12.5q5.5 4.5 10.5 4.5q4 0 8 -1q4 -1 13.5 -1.5q9.5 -0.5 27 -1.5q17.5 -1 48.5 -1q19 0 49 0.5q30 0.5 63 0.5q33 0 65 0.5q32 0.5 56 0.5q11 0 28 2q17 2 23 2q13 0 10 -18l-6 -30q-2 -15 -5 -34.5q-3 -19.5 -5 -37.5q-2 -18 -4 -31.5q-2 -13.5 -2 -17.5q-2 -6 -5.5 -10.5q-3.5 -4.5 -11.5 -4.5q-7 0 -10.5 4.5q-3.5 4.5 -2.5 10.5q11 60 -1 94q-12 34 -50 34h-159l-45 -252z" />
<glyph unicode="&#71;" horiz-adv-x="556" d="M468 208q-10 -55 -32.5 -97q-22.5 -42 -54.5 -70.5q-32 -28.5 -72 -43q-40 -14.5 -84 -14.5q-48 0 -88 24.5q-40 24.5 -66 69q-26 44.5 -35 106.5q-9 62 5 138q13 76 43 138q30 62 69.5 106q39.5 44 87 68.5q47.5 24.5 95.5 24.5q54 0 86 -23q32 -23 52 -51q8 3 16 14.5q8 11.5 13 34.5q1 6 3.5 10.5q2.5 4.5 11.5 4.5q11 0 11.5 -5.5q0.5 -5.5 -0.5 -9.5l-36 -203q-1 -6 -4 -11q-3 -5 -11 -5q-9 0 -11 5.5q-2 5.5 0 10.5q7 41 -0.5 75.5q-7.5 34.5 -25.5 60q-18 25.5 -45 39.5q-27 14 -59 14q-38 0 -70.5 -15q-32.5 -15 -59.5 -49.5q-27 -34.5 -48 -91.5q-21 -57 -36 -142q-15 -85 -13 -142q2 -57 18 -91.5q16 -34.5 45 -49.5q29 -15 67 -15q43 0 72 21q29 21 46 51q17 30 24 63.5q7 33.5 7 59.5q-36 0 -51.5 -0.5q-15.5 -0.5 -23.5 -0.5q-5 0 -9 4.5q-4 4.5 -2 12.5q1 8 6.5 13q5.5 5 10.5 5q4 0 8 -1q4 -1 13.5 -1.5q9.5 -0.5 27 -1.5q17.5 -1 48.5 -1h24q31 0 48.5 1q17.5 1 27.5 1.5q10 0.5 14 1.5q4 1 8 1q6 0 10 -5q4 -5 3 -13q-5 -17 -19 -17q-4 0 -7.5 0q-3.5 0 -10 0.5q-6.5 0.5 -17.5 0.5q-11 0 -29 0z" />
<glyph unicode="&#72;" horiz-adv-x="616" d="M430 353l45 258q-18 0 -29 0q-11 0 -17.5 -0.5q-6.5 -0.5 -10 -0.5q-3.5 0 -7.5 0q-6 0 -10 5q-4 5 -2 13q2 8 7 12.5q5 4.5 11 4.5q4 0 8 -1q4 -1 13.5 -1.5q9.5 -0.5 27 -1.5q17.5 -1 47.5 -1h5q30 0 48 1q18 1 27.5 1.5q9.5 0.5 14 1.5q4.5 1 8.5 1q5 0 9.5 -4.5q4.5 -4.5 2.5 -12.5q-2 -8 -7 -13q-5 -5 -11 -5q-4 0 -7.5 0q-3.5 0 -10 0.5q-6.5 0.5 -17.5 0.5q-11 0 -29 0l-102 -580q18 0 29 0q11 0 17.5 0.5q6.5 0.5 10 0.5q3.5 0 7.5 0q6 0 10 -5q4 -5 2 -13q-2 -8 -7 -12.5q-5 -4.5 -10 -4.5q-4 0 -8 1q-4 1 -13.5 1.5q-9.5 0.5 -27 1.5q-17.5 1 -48.5 1h-4q-31 0 -49 -1q-18 -1 -27.5 -1.5q-9.5 -0.5 -14 -1.5q-4.5 -1 -8.5 -1q-5 0 -9.5 4.5q-4.5 4.5 -2.5 12.5q2 8 7.5 13q5.5 5 10.5 5q4 0 7.5 0q3.5 0 10 -0.5q6.5 -0.5 17.5 -0.5q11 0 29 0l50 286h-236l-50 -286q18 0 29 0q11 0 17.5 0.5q6.5 0.5 10 0.5q3.5 0 7.5 0q5 0 9.5 -5q4.5 -5 2.5 -13q-2 -8 -7 -12.5q-5 -4.5 -11 -4.5q-4 0 -8 1q-4 1 -13.5 1.5q-9.5 0.5 -27 1.5q-17.5 1 -48.5 1h-4q-30 0 -48 -1q-18 -1 -27.5 -1.5q-9.5 -0.5 -14 -1.5q-4.5 -1 -8.5 -1q-6 0 -10 4.5q-4 4.5 -3 12.5q5 18 19 18q4 0 7.5 0q3.5 0 10 -0.5q6.5 -0.5 17.5 -0.5q11 0 29 0l102 580q-18 0 -29 0q-11 0 -18 -0.5q-7 -0.5 -10.5 -0.5q-3.5 0 -7.5 0q-5 0 -9 5q-4 5 -2 13q1 8 6.5 12.5q5.5 4.5 10.5 4.5q4 0 8 -1q4 -1 13.5 -1.5q9.5 -0.5 27 -1.5q17.5 -1 48.5 -1h4q31 0 48.5 1q17.5 1 27.5 1.5q10 0.5 14 1.5q4 1 8 1q6 0 10.5 -4.5q4.5 -4.5 2.5 -12.5q-5 -18 -18 -18q-4 0 -7.5 0q-3.5 0 -10.5 0.5q-7 0.5 -18 0.5q-11 0 -29 0l-45 -258z" />
<glyph unicode="&#73;" horiz-adv-x="308" d="M137 31q18 0 29 0q11 0 17.5 0.5q6.5 0.5 10 0.5q3.5 0 7.5 0q5 0 9.5 -5q4.5 -5 2.5 -13q-2 -8 -7 -12.5q-5 -4.5 -11 -4.5q-4 0 -8 1q-4 1 -13.5 1.5q-9.5 0.5 -27 1.5q-17.5 1 -48.5 1h-4q-30 0 -48 -1q-18 -1 -27.5 -1.5q-9.5 -0.5 -14 -1.5q-4.5 -1 -8.5 -1q-6 0 -10 4.5q-4 4.5 -3 12.5q5 18 19 18q4 0 7.5 0q3.5 0 10 -0.5q6.5 -0.5 17.5 -0.5q11 0 29 0l102 580q-18 0 -29 0q-11 0 -18 -0.5q-7 -0.5 -10.5 -0.5q-3.5 0 -7.5 0q-5 0 -9 5q-4 5 -2 13q1 8 6.5 12.5q5.5 4.5 10.5 4.5q4 0 8 -1q4 -1 13.5 -1.5q9.5 -0.5 27 -1.5q17.5 -1 48.5 -1h4q31 0 48.5 1q17.5 1 27.5 1.5q10 0.5 14 1.5q4 1 8 1q6 0 10.5 -4.5q4.5 -4.5 2.5 -12.5q-5 -18 -18 -18q-4 0 -7.5 0q-3.5 0 -10.5 0.5q-7 0.5 -18 0.5q-11 0 -29 0l-101 -580z" />
<glyph unicode="&#74;" horiz-adv-x="297" d="M168 611q-18 0 -29 0q-11 0 -18 -0.5q-7 -0.5 -10.5 -0.5q-3.5 0 -7.5 0q-5 0 -9 5q-4 5 -2 13q1 8 6.5 12.5q5.5 4.5 10.5 4.5q4 0 8 -1q4 -1 13.5 -1.5q9.5 -0.5 27 -1.5q17.5 -1 48.5 -1h4q31 0 48.5 1q17.5 1 27.5 1.5q10 0.5 14 1.5q4 1 8 1q6 0 10.5 -4.5q4.5 -4.5 2.5 -12.5q-5 -18 -18 -18q-4 0 -7.5 0q-3.5 0 -10.5 0.5q-7 0.5 -18 0.5q-11 0 -29 0l-108 -615q-12 -69 -47 -110q-35 -41 -91 -41q-18 0 -32 7q-14 7 -22 18.5q-8 11.5 -11.5 25q-3.5 13.5 -0.5 27.5q3 20 16 32q13 12 30 12q16 0 25 -11.5q9 -11.5 6 -28.5q-2 -12 -11.5 -22.5q-9.5 -10.5 -23.5 -15.5q3 -20 23 -20q26 0 39 18.5q13 18.5 18 45.5l120 678z" />
<glyph unicode="&#75;" horiz-adv-x="537" d="M197 346l268 265q-18 0 -29.5 0q-11.5 0 -18.5 -0.5q-7 -0.5 -11 -0.5q-4 0 -8 0q-6 0 -10 5q-4 5 -2 13q2 8 7 12.5q5 4.5 11 4.5q3 0 7 -0.5q4 -0.5 12 -1.5q8 -1 22.5 -2q14.5 -1 40.5 -1q25 0 40 1q15 1 23.5 2q8.5 1 12.5 1.5q4 0.5 8 0.5q5 0 9.5 -4.5q4.5 -4.5 2.5 -12.5q-2 -8 -7.5 -13q-5.5 -5 -10.5 -5q-8 0 -17.5 0.5q-9.5 0.5 -36.5 0.5l-251 -248l177 -332q30 0 41 0.5q11 0.5 19 0.5q6 0 10 -5q4 -5 2 -13q-2 -8 -7 -12.5q-5 -4.5 -11 -4.5q-4 0 -8 1q-4 1 -13.5 1.5q-9.5 0.5 -27 1.5q-17.5 1 -47.5 1h-4q-31 0 -49 -1q-18 -1 -27.5 -1.5q-9.5 -0.5 -14 -1.5q-4.5 -1 -8.5 -1q-5 0 -9.5 4.5q-4.5 4.5 -2.5 12.5q2 8 7.5 13q5.5 5 10.5 5q8 0 21 -0.5q13 -0.5 41 -0.5l-164 307zM137 31q18 0 29 0q11 0 17.5 0.5q6.5 0.5 10 0.5q3.5 0 7.5 0q5 0 9.5 -5q4.5 -5 2.5 -13q-2 -8 -7 -12.5q-5 -4.5 -11 -4.5q-4 0 -8 1q-4 1 -13.5 1.5q-9.5 0.5 -27 1.5q-17.5 1 -48.5 1h-4q-30 0 -48 -1q-18 -1 -27.5 -1.5q-9.5 -0.5 -14 -1.5q-4.5 -1 -8.5 -1q-6 0 -10 4.5q-4 4.5 -3 12.5q5 18 19 18q4 0 7.5 0q3.5 0 10 -0.5q6.5 -0.5 17.5 -0.5q11 0 29 0l102 580q-18 0 -29 0q-11 0 -18 -0.5q-7 -0.5 -10.5 -0.5q-3.5 0 -7.5 0q-5 0 -9 5q-4 5 -2 13q1 8 6.5 12.5q5.5 4.5 10.5 4.5q4 0 8 -1q4 -1 13.5 -1.5q9.5 -0.5 27 -1.5q17.5 -1 48.5 -1h4q31 0 48.5 1q17.5 1 27.5 1.5q10 0.5 14 1.5q4 1 8 1q6 0 10.5 -4.5q4.5 -4.5 2.5 -12.5q-5 -18 -18 -18q-4 0 -7.5 0q-3.5 0 -10.5 0.5q-7 0.5 -18 0.5q-11 0 -29 0z" />
<glyph unicode="&#76;" horiz-adv-x="455" d="M94 2q-30 0 -48 -1q-18 -1 -27.5 -1.5q-9.5 -0.5 -14 -1.5q-4.5 -1 -8.5 -1q-6 0 -10 4.5q-4 4.5 -3 12.5q5 18 19 18q4 0 7.5 0q3.5 0 10 -0.5q6.5 -0.5 17.5 -0.5q11 0 29 0l102 580q-18 0 -29 0q-11 0 -18 -0.5q-7 -0.5 -10.5 -0.5q-3.5 0 -7.5 0q-5 0 -9 5q-4 5 -2 13q1 8 6.5 12.5q5.5 4.5 10.5 4.5q4 0 8 -1q4 -1 13.5 -1.5q9.5 -0.5 27 -1.5q17.5 -1 48.5 -1h4q31 0 48.5 1q17.5 1 27.5 1.5q10 0.5 14 1.5q4 1 8 1q6 0 10.5 -4.5q4.5 -4.5 2.5 -12.5q-5 -18 -18 -18q-4 0 -7.5 0q-3.5 0 -10.5 0.5q-7 0.5 -18 0.5q-11 0 -29 0l-100 -574h159q38 0 61.5 34q23.5 34 34.5 94q1 6 6 10.5q5 4.5 12 4.5q8 0 10 -4.5q2 -4.5 2 -10.5q-1 -4 -4 -17.5q-3 -13.5 -7 -31.5q-4 -18 -8 -37.5q-4 -19.5 -7 -34.5l-5 -31q-2 -8 -7 -12.5q-5 -4.5 -10 -4.5q-6 0 -22 2q-16 2 -27 2q-14 0 -45.5 0.5q-31.5 0.5 -67 0.5q-35.5 0 -69 0.5t-50.5 0.5z" />
<glyph unicode="&#77;" horiz-adv-x="714" d="M223 640q7 0 10 -2.5q3 -2.5 4 -6.5q1 -4 0.5 -9q-0.5 -5 0.5 -11l75 -508l257 508q4 8 8 18q4 10 15 11l27 0q27 0 43.5 1q16.5 1 26.5 1.5q10 0.5 14.5 1.5q4.5 1 7.5 1q5 0 8.5 -4.5q3.5 -4.5 2.5 -12.5q-5 -18 -17 -18q-7 0 -18 0.5q-11 0.5 -43 0.5l-102 -580q32 0 43 0.5q11 0.5 18 0.5q13 0 10 -18q-1 -8 -6 -12.5q-5 -4.5 -10 -4.5q-4 0 -8.5 1q-4.5 1 -13.5 1.5q-9 0.5 -25 1.5q-16 1 -43 1h-11q-28 0 -44.5 -1q-16.5 -1 -26 -1.5q-9.5 -0.5 -14 -1.5q-4.5 -1 -7.5 -1q-13 0 -10 17q2 8 7 13q5 5 10 5q7 0 17.5 -0.5q10.5 -0.5 43.5 -0.5l85 487l-267 -526q-3 -5 -6.5 -7.5q-3.5 -2.5 -11.5 -2.5q-7 0 -9 2.5q-2 2.5 -4 7.5l-77 519l-84 -480q32 0 43 0.5q11 0.5 18 0.5q13 0 10 -18q-2 -8 -7 -12.5q-5 -4.5 -10 -4.5q-3 0 -6.5 0.5q-3.5 0.5 -11.5 1.5q-8 1 -21.5 2q-13.5 1 -36.5 1q-23 0 -37 -1q-14 -1 -22 -2q-8 -1 -12.5 -1.5q-4.5 -0.5 -7.5 -0.5q-5 0 -8 4.5q-3 4.5 -2 12.5q2 8 7 13q5 5 10 5q7 0 18 -0.5q11 -0.5 43 -0.5l102 580q-32 0 -43 -0.5q-11 -0.5 -18 -0.5q-5 0 -8.5 5q-3.5 5 -1.5 13q1 8 6 12.5q5 4.5 10 4.5q3 0 7 -0.5q4 -0.5 11.5 -1.5q7.5 -1 21 -2q13.5 -1 36.5 -1l34 0z" />
<glyph unicode="&#78;" horiz-adv-x="580" d="M491 611q-18 0 -29 0q-11 0 -17.5 -0.5q-6.5 -0.5 -10 -0.5q-3.5 0 -7.5 0q-6 0 -10 5q-4 5 -2 13q2 8 7 12.5q5 4.5 11 4.5q3 0 7 -0.5q4 -0.5 12 -1.5q8 -1 22.5 -2q14.5 -1 40.5 -1q25 0 40 1q15 1 23.5 2q8.5 1 12.5 1.5q4 0.5 7 0.5q6 0 10.5 -4.5q4.5 -4.5 2.5 -12.5q-5 -18 -18 -18q-4 0 -7.5 0q-3.5 0 -10.5 0.5q-7 0.5 -18 0.5q-11 0 -29 0l-105 -596q-2 -16 -7 -22q-5 -6 -10 -6q-8 0 -11 6q-3 6 -7 14l-200 542l-92 -518q18 0 29 0q11 0 17.5 0.5q6.5 0.5 10 0.5q3.5 0 7.5 0q6 0 10 -5q4 -5 2 -13q-2 -8 -7 -12.5q-5 -4.5 -11 -4.5q-3 0 -7 0.5q-4 0.5 -12 1.5q-8 1 -23 2q-15 1 -40 1q-26 0 -41 -1q-15 -1 -23.5 -2q-8.5 -1 -12.5 -1.5q-4 -0.5 -7 -0.5q-5 0 -9.5 4.5q-4.5 4.5 -2.5 12.5q2 8 7.5 13q5.5 5 10.5 5q4 0 7.5 0q3.5 0 10 -0.5q6.5 -0.5 17.5 -0.5q11 0 29 0l102 580q-18 0 -29 0q-11 0 -17.5 -0.5q-6.5 -0.5 -10 -0.5q-3.5 0 -7.5 0q-6 0 -10 5q-4 5 -2 13q2 8 7 12.5q5 4.5 11 4.5q3 0 7 -0.5q4 -0.5 12 -1.5q8 -1 22.5 -2q14.5 -1 40.5 -1q8 0 17 1q9 1 17 1q8 0 14 -9.5q6 -9.5 13 -27.5l167 -448l79 454z" />
<glyph unicode="&#79;" horiz-adv-x="571" d="M445 321q15 85 15 142q0 57 -14 91.5q-14 34.5 -41.5 49.5q-27.5 15 -67.5 15q-41 0 -73.5 -15q-32.5 -15 -59 -49.5q-26.5 -34.5 -46.5 -91.5q-20 -57 -35 -142q-15 -85 -15 -142q0 -57 14 -91.5q14 -34.5 41.5 -49.5q27.5 -15 68.5 -15q40 0 72.5 15q32.5 15 58.5 49.5q26 34.5 46.5 91.5q20.5 57 35.5 142zt0 0zM528 321q-14 -76 -44 -138q-30 -62 -71.5 -106.5q-41.5 -44.5 -90 -69q-48.5 -24.5 -98.5 -24.5q-50 0 -90 24.5q-40 24.5 -65 69q-25 44.5 -33.5 106.5q-8.5 62 5.5 138q13 76 43.5 138q30.5 62 71 106q40.5 44 89 68.5q48.5 24.5 98.5 24.5q50 0 90 -24.5q40 -24.5 65.5 -68.5q25.5 -44 34 -106t-4.5 -138z" />
<glyph unicode="&#80;" horiz-adv-x="456" d="M184 303h61q33 0 57.5 7.5q24.5 7.5 42 25.5q17.5 18 28.5 47q11 29 19 72q15 84 -6 117q-21 33 -88 33h-60zM205 640q16 0 28 0.5q12 0.5 22.5 1q10.5 0.5 22 0.5q11.5 0 27.5 0q97 0 138.5 -51q41.5 -51 26.5 -136q-7 -42 -26 -76.5q-19 -34.5 -48.5 -59.5q-29.5 -25 -69 -38.5q-39.5 -13.5 -88.5 -13.5h-60l-41 -236q16 0 26 0q10 0 16.5 0.5q6.5 0.5 10.5 0.5q4 0 8 0q5 0 8 -5q3 -5 2 -13q-2 -8 -7 -12.5q-5 -4.5 -10 -4.5q-4 0 -9 1q-5 1 -15.5 1.5q-10.5 0.5 -27.5 1.5q-17 1 -45 1q-30 0 -48 -1q-18 -1 -27.5 -1.5q-9.5 -0.5 -14 -1.5q-4.5 -1 -8.5 -1q-6 0 -10 4.5q-4 4.5 -3 12.5q5 18 19 18q4 0 7.5 0q3.5 0 10 -0.5q6.5 -0.5 17.5 -0.5q11 0 29 0l102 580q-18 0 -29 0q-11 0 -18 -0.5q-7 -0.5 -10.5 -0.5q-3.5 0 -7.5 0q-5 0 -9 5q-4 5 -2 13q1 8 6.5 12.5q5.5 4.5 10.5 4.5q3 0 9 -0.5q6 -0.5 16.5 -1.5q10.5 -1 27.5 -2t43 -1z" />
<glyph unicode="&#81;" horiz-adv-x="571" d="M445 321q15 85 15 142q0 57 -14 91.5q-14 34.5 -41.5 49.5q-27.5 15 -67.5 15q-41 0 -73.5 -15q-32.5 -15 -59 -49.5q-26.5 -34.5 -46.5 -91.5q-20 -57 -35 -142q-15 -85 -15 -142q0 -57 14 -91.5q14 -34.5 41.5 -49.5q27.5 -15 68.5 -15q40 0 72.5 15q32.5 15 58.5 49.5q26 34.5 46.5 91.5q20.5 57 35.5 142zt0 0zM248 -71q-7 -39 -1.5 -62.5q5.5 -23.5 17.5 -36q12 -12.5 29.5 -17q17.5 -4.5 34.5 -4.5q35 0 65.5 17.5q30.5 17.5 49.5 37.5q17 20 28 20q5 0 9 -4.5q4 -4.5 3 -10.5q-1 -6 -6.5 -13.5q-5.5 -7.5 -11.5 -13.5q-32 -29 -70.5 -47q-38.5 -18 -76.5 -18q-79 0 -115.5 42q-36.5 42 -19.5 132l5 36q-42 8 -74.5 35.5q-32.5 27.5 -53 71q-20.5 43.5 -26 101q-5.5 57.5 6.5 126.5q13 76 43.5 138q30.5 62 71 106q40.5 44 89 68.5q48.5 24.5 98.5 24.5q50 0 90 -24.5q40 -24.5 65.5 -68.5q25.5 -44 34 -106q8.5 -62 -4.5 -138q-12 -69 -39 -127q-27 -58 -63 -101.5q-36 -43.5 -79.5 -71q-43.5 -27.5 -88.5 -34.5z" />
<glyph unicode="&#82;" horiz-adv-x="512" d="M383 488q6 31 4.5 53.5q-1.5 22.5 -11.5 36.5q-10 14 -31 20.5q-21 6.5 -54 6.5h-53l-45 -252h54q59 0 92 36.5q33 36.5 44 98.5zt0 0zM94 2q-30 0 -48 -1q-18 -1 -27.5 -1.5q-9.5 -0.5 -14 -1.5q-4.5 -1 -8.5 -1q-6 0 -10 4.5q-4 4.5 -3 12.5q5 18 19 18q4 0 7.5 0q3.5 0 10 -0.5q6.5 -0.5 17.5 -0.5q11 0 29 0l102 580q-18 0 -29 0q-11 0 -18 -0.5q-7 -0.5 -10.5 -0.5q-3.5 0 -7.5 0q-5 0 -9 5q-4 5 -2 13q1 8 6.5 12.5q5.5 4.5 10.5 4.5q7 0 26.5 -2.5q19.5 -2.5 70.5 -2.5q23 0 44.5 0.5q21.5 0.5 47.5 0.5q48 0 82 -11.5q34 -11.5 54.5 -32q20.5 -20.5 27 -48.5q6.5 -28 0.5 -61q-5 -29 -20 -53.5q-15 -24.5 -34.5 -43q-19.5 -18.5 -41.5 -30.5q-22 -12 -42 -16q29 -7 49 -25.5q20 -18.5 31 -43q11 -24.5 14 -51.5q3 -27 -1 -52q-7 -42 -13.5 -69q-6.5 -27 -10.5 -47q-4 -18 2.5 -27.5q6.5 -9.5 17.5 -9.5q25 0 31 33q2 8 6.5 13.5q4.5 5.5 12.5 5.5q6 0 10.5 -5.5q4.5 -5.5 2.5 -12.5q-5 -29 -27 -46.5q-22 -17.5 -47 -17.5q-53 0 -65 43.5q-12 43.5 5 139.5q6 33 6 59.5q0 26.5 -9 45q-9 18.5 -28.5 29q-19.5 10.5 -52.5 10.5h-71l-50 -286q16 0 26 0q10 0 16.5 0.5q6.5 0.5 10.5 0.5q4 0 8 0q5 0 8 -5q3 -5 2 -13q-2 -8 -7 -12.5q-5 -4.5 -10 -4.5q-5 0 -11.5 1q-6.5 1 -17 1.5q-10.5 0.5 -27 1.5t-41.5 1z" />
<glyph unicode="&#83;" horiz-adv-x="442" d="M383 175q0 -46 -17.5 -81.5q-17.5 -35.5 -47 -60q-29.5 -24.5 -67 -37.5q-37.5 -13 -77.5 -13q-44 0 -78.5 14.5q-34.5 14.5 -58.5 37q-24 22.5 -37 49.5q-13 27 -13 53q0 31 18 51q18 20 44 20q17 0 28.5 -11q11.5 -11 11.5 -28q0 -20 -16.5 -35q-16.5 -15 -39.5 -15q17 -50 55 -73q38 -23 88 -23q27 0 52.5 8.5q25.5 8.5 45.5 24.5q20 16 32 39.5q12 23.5 12 52.5q0 26 -9.5 48q-9.5 22 -25.5 40.5q-16 18.5 -37.5 33.5q-21.5 15 -44.5 28q-23 13 -44.5 30q-21.5 17 -38 38.5q-16.5 21.5 -26.5 49q-10 27.5 -10 61.5q0 46 18.5 80q18.5 34 47 56.5q28.5 22.5 62 33.5q33.5 11 63.5 11q34 0 60.5 -9q26.5 -9 45.5 -25q19 -16 29 -36.5q10 -20.5 10 -44.5q0 -31 -18.5 -48q-18.5 -17 -40.5 -17q-20 0 -29 13q-9 13 -9 23q0 17 14 32.5q14 15.5 38 18.5q-8 25 -33.5 42q-25.5 17 -67.5 17q-32 0 -56 -10q-24 -10 -41 -27q-17 -17 -25.5 -38.5q-8.5 -21.5 -8.5 -44.5q0 -49 27.5 -79.5q27.5 -30.5 69.5 -51.5q26 -14 52 -32q26 -18 46.5 -42q20.5 -24 33.5 -54.5t13 -69.5z" />
<glyph unicode="&#84;" horiz-adv-x="469" d="M163 605q-38 0 -62 -34q-24 -34 -35 -94q-2 -6 -6 -10.5q-4 -4.5 -12 -4.5q-7 0 -10 4.5q-3 4.5 -1 10.5q0 4 3.5 17.5q3.5 13.5 7.5 31.5q4 18 8 37.5q4 19.5 7 34.5l5 30q2 8 7 13q5 5 10 5q6 0 21.5 -2q15.5 -2 26.5 -2l139 -2h35l139 2q11 0 27.5 2q16.5 2 23.5 2q5 0 8 -5q3 -5 2 -13l-6 -30q-3 -15 -5.5 -34.5q-2.5 -19.5 -5 -37.5q-2.5 -18 -4 -31.5q-1.5 -13.5 -2.5 -17.5q-1 -6 -4.5 -10.5q-3.5 -4.5 -11.5 -4.5q-8 0 -11.5 4.5q-3.5 4.5 -1.5 10.5q11 60 -1 94q-12 34 -51 34h-85l-100 -574q32 0 42.5 0.5q10.5 0.5 17.5 0.5q13 0 10 -18q-1 -8 -6 -12.5q-5 -4.5 -10 -4.5q-3 0 -7.5 1q-4.5 1 -13.5 1.5q-9 0.5 -25.5 1.5q-16.5 1 -43.5 1h-11q-27 0 -43.5 -1q-16.5 -1 -26.5 -1.5q-10 -0.5 -14.5 -1.5q-4.5 -1 -7.5 -1q-5 0 -8 4.5q-3 4.5 -2 12.5q2 8 7 13q5 5 10 5q7 0 18 -0.5q11 -0.5 43 -0.5l101 574z" />
<glyph unicode="&#85;" horiz-adv-x="563" d="M440 169q-8 -47 -29 -82q-21 -35 -50.5 -58q-29.5 -23 -65 -34.5q-35.5 -11.5 -72.5 -11.5q-38 0 -69 12q-31 12 -52 35q-21 23 -29.5 58q-8.5 35 -0.5 81l77 442q-18 0 -29 0q-11 0 -17.5 -0.5q-6.5 -0.5 -10 -0.5q-3.5 0 -7.5 0q-5 0 -9.5 5q-4.5 5 -2.5 13q2 8 7 12.5q5 4.5 11 4.5q4 0 8 -1q4 -1 13.5 -1.5q9.5 -0.5 27 -1.5q17.5 -1 48.5 -1h4q30 0 48 1q18 1 27.5 1.5q9.5 0.5 14 1.5q4.5 1 8.5 1q6 0 10 -4.5q4 -4.5 3 -12.5q-5 -18 -19 -18q-4 0 -7.5 0q-3.5 0 -10 0.5q-6.5 0.5 -17.5 0.5q-11 0 -29 0l-81 -461q-6 -33 0.5 -56.5q6.5 -23.5 21.5 -39.5q15 -16 37.5 -23.5q22.5 -7.5 48.5 -7.5q61 0 103 41q42 41 53 105l77 442q-18 0 -29 0q-11 0 -17.5 -0.5q-6.5 -0.5 -10 -0.5q-3.5 0 -7.5 0q-6 0 -10 5q-4 5 -2 13q2 8 7 12.5q5 4.5 11 4.5q3 0 7 -0.5q4 -0.5 12 -1.5q8 -1 22.5 -2q14.5 -1 40.5 -1q25 0 40 1q15 1 23.5 2q8.5 1 12.5 1.5q4 0.5 8 0.5q5 0 9.5 -4.5q4.5 -4.5 2.5 -12.5q-2 -8 -7.5 -13q-5.5 -5 -10.5 -5q-4 0 -7.5 0q-3.5 0 -10 0.5q-6.5 0.5 -17.5 0.5q-11 0 -29 0l-78 -442z" />
<glyph unicode="&#86;" horiz-adv-x="503" d="M146 -5q-7 -13 -23 -13q-15 0 -15 19v610q-18 0 -29 0q-11 0 -18 -0.5q-7 -0.5 -10.5 -0.5q-3.5 0 -7.5 0q-5 0 -9 5q-4 5 -2 13q1 8 6.5 12.5q5.5 4.5 10.5 4.5q4 0 8 -1q4 -1 13.5 -1.5q9.5 -0.5 27 -1.5q17.5 -1 48.5 -1h4q31 0 48.5 1q17.5 1 27.5 1.5q10 0.5 14 1.5q4 1 8 1q6 0 10.5 -4.5q4.5 -4.5 2.5 -12.5q-5 -18 -18 -18q-4 0 -7.5 0q-3.5 0 -10.5 0.5q-7 0.5 -18 0.5q-11 0 -29 0l0 -498l311 498q-17 0 -27.5 0q-10.5 0 -17 -0.5q-6.5 -0.5 -10 -0.5q-3.5 0 -7.5 0q-6 0 -10 5q-4 5 -2 13q2 8 7 12.5q5 4.5 11 4.5q3 0 7 -0.5q4 -0.5 12 -1.5q8 -1 22.5 -2q14.5 -1 40.5 -1q25 0 40 1q15 1 23.5 2q8.5 1 12.5 1.5q4 0.5 7 0.5q6 0 10.5 -4.5q4.5 -4.5 2.5 -12.5q-5 -18 -18 -18q-4 0 -7.5 0q-3.5 0 -10 0.5q-6.5 0.5 -17 0.5q-10.5 0 -28.5 0z" />
<glyph unicode="&#87;" horiz-adv-x="712" d="M146 -5q-7 -13 -23 -13q-15 0 -15 19v610q-18 0 -29 0q-11 0 -18 -0.5q-7 -0.5 -10.5 -0.5q-3.5 0 -7.5 0q-5 0 -9 5q-4 5 -2 13q1 8 6.5 12.5q5.5 4.5 10.5 4.5q4 0 8 -1q4 -1 13.5 -1.5q9.5 -0.5 27 -1.5q17.5 -1 48.5 -1h341q25 0 40 1q15 1 23.5 2q8.5 1 12.5 1.5q4 0.5 7 0.5q6 0 10 -4.5q4 -4.5 3 -12.5q-5 -18 -19 -18q-5 0 -9.5 0.5q-4.5 0.5 -19.5 0.5l-160 -263v-255l323 518q-30 0 -39 -0.5q-9 -0.5 -16 -0.5q-5 0 -9 5q-4 5 -2 13q1 8 6.5 12.5q5.5 4.5 10.5 4.5q3 0 6.5 -1q3.5 -1 11 -1.5q7.5 -0.5 20.5 -1.5q13 -1 36 -1q22 0 35.5 1q13.5 1 21 1.5q7.5 0.5 11.5 1.5q4 1 7 1q6 0 10.5 -4.5q4.5 -4.5 2.5 -12.5q-5 -18 -18 -18q-4 0 -7 0q-3 0 -8.5 0.5q-5.5 0.5 -15 0.5q-9.5 0 -24.5 0l-384 -616q-7 -13 -23 -13q-15 0 -15 19v271zM170 100l146 238v273h-146zM494 611h-119l0 -198z" />
<glyph unicode="&#88;" horiz-adv-x="473" d="M368 31q17 0 27 0q10 0 16 0.5q6 0.5 9.5 0.5q3.5 0 7.5 0q6 0 10 -5q4 -5 2 -13q-2 -8 -7 -12.5q-5 -4.5 -10 -4.5q-4 0 -8 1q-4 1 -13.5 1.5q-9.5 0.5 -27 1.5q-17.5 1 -48.5 1h-4q-31 0 -49 -1q-18 -1 -27.5 -1.5q-9.5 -0.5 -14 -1.5q-4.5 -1 -8.5 -1q-5 0 -9.5 4.5q-4.5 4.5 -2.5 12.5q2 8 7.5 13q5.5 5 10.5 5q4 0 7.5 0q3.5 0 10 -0.5q6.5 -0.5 16 -0.5q9.5 0 25.5 0l-73 241l-176 -241q18 0 30 0q12 0 19.5 0.5q7.5 0.5 11.5 0.5q4 0 8 0q6 0 10 -5q4 -5 2 -13q-2 -8 -7 -12.5q-5 -4.5 -10 -4.5q-4 0 -8 0.5q-4 0.5 -12 1.5q-8 1 -23 2q-15 1 -40 1q-26 0 -40.5 -1q-14.5 -1 -23 -2q-8.5 -1 -12.5 -1.5q-4 -0.5 -7 -0.5q-6 0 -10.5 4.5q-4.5 4.5 -2.5 12.5q5 18 18 18q8 0 18.5 -0.5q10.5 -0.5 37.5 -0.5l204 279l-93 301q-17 0 -27.5 0q-10.5 0 -16.5 -0.5q-6 -0.5 -9 -0.5q-3 0 -7 0q-5 0 -9 5q-4 5 -2 13q1 8 6.5 12.5q5.5 4.5 10.5 4.5q4 0 8 -1q4 -1 13.5 -1.5q9.5 -0.5 27 -1.5q17.5 -1 48.5 -1h4q31 0 48.5 1q17.5 1 27.5 1.5q10 0.5 14 1.5q4 1 8 1q6 0 10 -4.5q4 -4.5 3 -12.5q-5 -18 -19 -18q-4 0 -7.5 0q-3.5 0 -9.5 0.5q-6 0.5 -16 0.5q-10 0 -26 0l72 -233l169 233q-36 0 -49 -0.5q-13 -0.5 -20 -0.5q-6 0 -10 5q-4 5 -2 13q2 8 7 12.5q5 4.5 11 4.5q3 0 7 -0.5q4 -0.5 12 -1.5q8 -1 22.5 -2q14.5 -1 40.5 -1q25 0 40 1q15 1 23.5 2q8.5 1 12.5 1.5q4 0.5 8 0.5q5 0 9.5 -4.5q4.5 -4.5 2.5 -12.5q-2 -8 -7.5 -13q-5.5 -5 -10.5 -5q-8 0 -18 0.5q-10 0.5 -38 0.5l-198 -271z" />
<glyph unicode="&#89;" horiz-adv-x="439" d="M417 611q-18 0 -30 0q-12 0 -19.5 -0.5q-7.5 -0.5 -12 -0.5q-4.5 0 -8.5 0q-6 0 -10 5q-4 5 -2 13q2 8 7 12.5q5 4.5 11 4.5q3 0 7 -0.5q4 -0.5 12 -1.5q8 -1 22.5 -2q14.5 -1 40.5 -1q25 0 40 1q15 1 23.5 2q8.5 1 12.5 1.5q4 0.5 7 0.5q6 0 10.5 -4.5q4.5 -4.5 2.5 -12.5q-5 -18 -18 -18q-8 0 -19 0.5q-11 0.5 -39 0.5l-199 -305l-48 -275q18 0 29 0q11 0 18 0.5q7 0.5 10.5 0.5q3.5 0 7.5 0q5 0 9 -5q4 -5 2 -13q-1 -8 -6.5 -12.5q-5.5 -4.5 -10.5 -4.5q-4 0 -8 1q-4 1 -13.5 1.5q-9.5 0.5 -27 1.5q-17.5 1 -48.5 1h-4q-31 0 -48.5 -1q-17.5 -1 -27.5 -1.5q-10 -0.5 -14 -1.5q-4 -1 -8 -1q-6 0 -10.5 4.5q-4.5 4.5 -2.5 12.5q5 18 18 18q4 0 7.5 0q3.5 0 10.5 -0.5q7 -0.5 18 -0.5q11 0 29 0l43 251l-98 329q-17 0 -27.5 0q-10.5 0 -17 -0.5q-6.5 -0.5 -10 -0.5q-3.5 0 -7.5 0q-6 0 -10 5q-4 5 -2 13q2 8 7 12.5q5 4.5 11 4.5q4 0 8 -1q4 -1 13.5 -1.5q9.5 -0.5 27 -1.5q17.5 -1 47.5 -1h5q30 0 48 1q18 1 27.5 1.5q9.5 0.5 14 1.5q4.5 1 8.5 1q5 0 9.5 -4.5q4.5 -4.5 2.5 -12.5q-2 -8 -7 -13q-5 -5 -11 -5q-4 0 -7.5 0q-3.5 0 -10 0.5q-6.5 0.5 -17 0.5q-10.5 0 -27.5 0l81 -275z" />
<glyph unicode="&#90;" horiz-adv-x="401" d="M57 33h166q19 0 36 10q17 10 30.5 27q13.5 17 23.5 40.5q10 23.5 15 50.5q0 5 4.5 10q4.5 5 12.5 5q7 0 10 -5q3 -5 2 -10q-1 -4 -4 -16q-3 -12 -7 -29q-4 -17 -8.5 -37q-4.5 -20 -7.5 -39l-5 -27q-2 -8 -7 -12.5q-5 -4.5 -10 -4.5q-5 0 -21 2q-16 2 -27 2h-197q-37 0 -63 -4.5q-26 -4.5 -33 4.5q-4 4 -0.5 14.5q3.5 10.5 11.5 22.5l359 572h-159q-38 0 -66 -37q-28 -37 -38 -91q-1 -6 -5 -10.5q-4 -4.5 -12 -4.5q-8 0 -11 4.5q-3 4.5 -1 10.5q1 4 4 16q3 12 6.5 29.5q3.5 17.5 8 37q4.5 19.5 7.5 38.5l5 26q2 8 7 13q5 5 10 5q6 0 22 -2q16 -2 27 -2h204q37 0 54.5 1q17.5 1 23.5 -4q7 -5 3 -14q-4 -9 -11 -20z" />
<glyph unicode="&#91;" horiz-adv-x="350" d="M233 -56q6 0 10.5 -4.5q4.5 -4.5 2.5 -12.5q-5 -15 -18 -15q-4 0 -8.5 1q-4.5 1 -16 1.5q-11.5 0.5 -32 1.5q-20.5 1 -55.5 1h-59q-8 0 -12 4.5q-4 4.5 -2 10.5q0 3 1.5 10q1.5 7 4 15q2.5 8 4.5 16q2 8 3 14l108 616q1 6 2 14q1 8 1.5 16q0.5 8 1 15q0.5 7 1.5 10q2 6 7 10.5q5 4.5 13 4.5h59q35 0 55.5 1q20.5 1 32.5 1.5q12 0.5 17 1.5q5 1 9 1q6 0 10 -3.5q4 -3.5 2 -11.5q-2 -8 -7 -12.5q-5 -4.5 -10 -4.5h-129l-124 -702z" />
<glyph unicode="&#92;" horiz-adv-x="348" d="M323 15q2 -7 -0.5 -15q-2.5 -8 -13.5 -12q-10 -5 -17.5 -1.5q-7.5 3.5 -10.5 10.5q-4 9 -12.5 34.5q-8.5 25.5 -25.5 66.5l-170 401q-25 59 -40 88.5q-15 29.5 -20 39.5q-2 7 1 14.5q3 7.5 13 11.5q10 5 17.5 1.5q7.5 -3.5 10.5 -10.5q4 -8 15.5 -40.5q11.5 -32.5 36.5 -90.5l170 -401q17 -40 29.5 -64t16.5 -33z" />
<glyph unicode="&#93;" horiz-adv-x="350" d="M295 658q0 -3 -2 -10q-2 -7 -4 -15q-2 -8 -4 -16q-2 -8 -3 -14l-109 -616q-1 -6 -2 -14q-1 -8 -1.5 -16q-0.5 -8 -1 -15q-0.5 -7 -0.5 -10q-2 -6 -7 -10.5q-5 -4.5 -13 -4.5h-60q-35 0 -55.5 -1q-20.5 -1 -32.5 -1.5q-12 -0.5 -17 -1.5q-5 -1 -9 -1q-5 0 -9 3.5q-4 3.5 -3 11.5q2 8 7 12.5q5 4.5 11 4.5h128l125 702h-129q-5 0 -9.5 4.5q-4.5 4.5 -2.5 12.5q2 8 7.5 11.5q5.5 3.5 10.5 3.5q4 0 8.5 -1q4.5 -1 16 -1.5q11.5 -0.5 32 -1.5q20.5 -1 55.5 -1h59q8 0 12 -4.5t2 -10.5z" />
<glyph unicode="&#94;" horiz-adv-x="485" d="M444 376q7 -17 -2 -23q-9 -6 -19 8l-140 199l-210 -199q-12 -13 -19 -6q-7 7 5 21l227 274q8 10 15.5 10.5q7.5 0.5 12.5 -10.5l130 -274z" />
<glyph unicode="&#95;" horiz-adv-x="358" d="M-1 -44v44h360l0 -44z" />
<glyph unicode="&#96;" horiz-adv-x="363" d="M158 530q-8 8 -7 20.5q1 12.5 11 21.5q9 10 22.5 11q13.5 1 21.5 -7q4 -4 9 -13.5q5 -9.5 13.5 -24q8.5 -14.5 21.5 -32.5q13 -18 34 -39q3 -3 2.5 -7q-0.5 -4 -3.5 -6.5q-3 -2.5 -7 -3.5q-4 -1 -7 2q-21 21 -39.5 34q-18.5 13 -32.5 21.5q-14 8.5 -24.5 13t-14.5 9.5z" />
<glyph unicode="&#97;" horiz-adv-x="483" d="M270 196q16 87 -3 133q-19 46 -64 46q-14 0 -30.5 -9.5q-16.5 -9.5 -32.5 -30.5q-16 -21 -29.5 -55.5q-13.5 -34.5 -22.5 -83.5q-17 -99 -4 -139q13 -40 53 -40q44 0 81 46q37 46 52 133zt0 0zM311 72q-3 -15 -1.5 -24q1.5 -9 5 -13.5q3.5 -4.5 8.5 -6q5 -1.5 8 -1.5q24 0 42 32.5q18 32.5 29 89.5q2 19 19 19q15 0 12 -19q-4 -24 -13 -51.5q-9 -27.5 -23 -51q-14 -23.5 -35 -39q-21 -15.5 -49 -15.5q-26 0 -46 16q-20 16 -20 50q-23 -35 -55 -55q-32 -20 -64 -20q-32 0 -56.5 15.5q-24.5 15.5 -39 43.5q-14.5 28 -18.5 67q-4 39 4 87q8 48 28.5 87q20.5 39 47.5 66.5q27 27.5 57 43q30 15.5 57 15.5q30 0 53 -18q23 -18 34 -52l10 53q0 4 7 4q6 0 10 -1.5q4 -1.5 14 -1.5q9 0 15 1.5q6 1.5 11 1.5q6 0 6 -4z" />
<glyph unicode="&#98;" horiz-adv-x="417" d="M110 610q-18 0 -29 -0.5q-11 -0.5 -17.5 -0.5q-6.5 0 -10 -0.5q-3.5 -0.5 -7.5 -0.5q-6 0 -10 4.5q-4 4.5 -3 12.5q5 18 19 18q4 0 7.5 -0.5q3.5 -0.5 10 -0.5q6.5 0 17.5 -0.5q11 -0.5 29 -0.5q12 0 26 2q14 2 21 2q6 0 10.5 -4.5q4.5 -4.5 2.5 -12.5l-52 -292q24 35 54.5 53.5q30.5 18.5 62.5 18.5q32 0 56.5 -15.5q24.5 -15.5 39 -43q14.5 -27.5 18.5 -66.5q4 -39 -4 -87q-8 -48 -26 -87q-18 -39 -43.5 -67q-25.5 -28 -57 -43.5q-31.5 -15.5 -66.5 -15.5q-49 0 -75.5 24q-26.5 24 -38 58.5q-11.5 34.5 -11 73.5q0.5 39 5.5 69zM281 196q17 99 4 139q-13 40 -52 40q-45 0 -81.5 -46q-36.5 -46 -52.5 -133q-9 -53 -7 -88q2 -35 11.5 -56q9.5 -21 25 -30q15.5 -9 33.5 -9q46 0 74 42t45 141z" />
<glyph unicode="&#99;" horiz-adv-x="359" d="M220 376q-49 0 -81 -40.5q-32 -40.5 -50 -139.5q-8 -50 -7 -84q1 -34 10.5 -55q9.5 -21 26 -30q16.5 -9 39.5 -9q61 0 105 83q3 6 7.5 11.5q4.5 5.5 11.5 5.5q8 0 10.5 -4.5q2.5 -4.5 2.5 -9.5q0 -4 -2.5 -10.5q-2.5 -6.5 -5.5 -11.5q-19 -30 -37 -49q-18 -19 -36 -30.5q-18 -11.5 -36.5 -15.5q-18.5 -4 -37.5 -4q-36 0 -62.5 15.5q-26.5 15.5 -42 43.5q-15.5 28 -20.5 67q-5 39 3 87q9 48 27.5 87q18.5 39 44 66.5q25.5 27.5 57.5 43q32 15.5 68 15.5q23 0 44.5 -8q21.5 -8 36.5 -22.5q15 -14.5 22.5 -34.5q7.5 -20 3.5 -44q-4 -21 -17.5 -34q-13.5 -13 -30.5 -13q-17 0 -27 12q-10 12 -6 29q2 15 15.5 27.5q13.5 12.5 28.5 12.5q-4 23 -23 33t-42 10z" />
<glyph unicode="&#100;" horiz-adv-x="483" d="M343 610q-18 0 -29 -0.5q-11 -0.5 -17.5 -0.5q-6.5 0 -10 -0.5q-3.5 -0.5 -7.5 -0.5q-5 0 -9.5 4.5q-4.5 4.5 -2.5 12.5q2 8 7.5 13q5.5 5 10.5 5q4 0 7.5 -0.5q3.5 -0.5 10 -0.5q6.5 0 17.5 -0.5q11 -0.5 29 -0.5q12 0 26.5 2q14.5 2 21.5 2q5 0 9.5 -4.5q4.5 -4.5 2.5 -12.5l-98 -556q-3 -16 -1.5 -25q1.5 -9 5 -13.5q3.5 -4.5 8.5 -5.5q5 -1 8 -1q24 0 42 32.5q18 32.5 29 89.5q2 19 19 19q15 0 12 -19q-4 -24 -13 -51.5q-9 -27.5 -23 -51q-14 -23.5 -35 -39q-21 -15.5 -49 -15.5q-26 0 -46.5 16q-20.5 16 -19.5 50q-23 -35 -55 -55q-32 -20 -64 -20q-32 0 -56.5 15.5q-24.5 15.5 -39 43.5q-14.5 28 -18.5 67q-4 39 4 87q8 48 26 87q18 39 42.5 66.5q24.5 27.5 54.5 43q30 15.5 62 15.5q31 0 56 -18q25 -18 36 -52zM270 196q16 87 -5 133q-21 46 -66 46q-39 0 -66 -40q-27 -40 -45 -139q-17 -99 -4 -139q13 -40 53 -40q44 0 81 46t52 133z" />
<glyph unicode="&#101;" horiz-adv-x="367" d="M90 202q26 2 53.5 9.5q27.5 7.5 51 21.5q23.5 14 40.5 34.5q17 20.5 22 48.5q5 26 -5.5 43q-10.5 17 -32.5 17q-51 0 -82.5 -47q-31.5 -47 -46.5 -127zt0 0zM85 171q-9 -73 9 -113q18 -40 64 -40q35 0 65.5 19.5q30.5 19.5 51.5 63.5q3 6 8 11.5q5 5.5 12 5.5q13 0 13 -15q0 -3 -1.5 -8.5q-1.5 -5.5 -3.5 -8.5q-19 -32 -38.5 -52q-19.5 -20 -40 -31q-20.5 -11 -41.5 -15.5q-21 -4.5 -42 -4.5q-33 0 -59.5 15.5q-26.5 15.5 -43.5 43.5q-17 28 -22.5 67.5q-5.5 39.5 2.5 86.5q9 49 30.5 88.5q21.5 39.5 50.5 67q29 27.5 61.5 42q32.5 14.5 63.5 14.5q47 0 73.5 -26q26.5 -26 19.5 -64q-7 -40 -32.5 -66.5q-25.5 -26.5 -59 -43.5q-33.5 -17 -71.5 -25.5t-69 -11.5z" />
<glyph unicode="&#102;" horiz-adv-x="263" d="M106 459q9 54 22 95.5q13 41.5 32.5 70q19.5 28.5 47.5 43.5q28 15 67 15q24 0 40.5 -6.5q16.5 -6.5 27 -17q10.5 -10.5 14 -23q3.5 -12.5 1.5 -25.5q-3 -20 -15.5 -32q-12.5 -12 -29.5 -12q-17 0 -25.5 11.5q-8.5 11.5 -6.5 27.5q2 13 11.5 23q9.5 10 23.5 15q-3 6 -15 10.5q-12 4.5 -29 4.5q-27 0 -50.5 -17.5q-23.5 -17.5 -31.5 -61.5l-33 -188q32 1 52 1q20 0 25 0q6 0 10 -4.5q4 -4.5 3 -12.5q-5 -17 -19 -17q-7 0 -26 1q-19 1 -51 1l-69 -394q-14 -77 -32.5 -123.5q-18.5 -46.5 -39.5 -71q-21 -24.5 -42.5 -32q-21.5 -7.5 -40.5 -7.5q-18 0 -31 6.5q-13 6.5 -21.5 17q-8.5 10.5 -11.5 23.5q-3 13 -1 25q3 17 14 28q11 11 27 11q15 0 23.5 -10.5q8.5 -10.5 5.5 -25.5q-2 -11 -10.5 -20.5q-8.5 -9.5 -21.5 -13.5q3 -7 11.5 -12.5q8.5 -5.5 17.5 -5.5q12 0 22.5 4q10.5 4 19.5 15.5q9 11.5 16.5 32q7.5 20.5 13.5 54.5l87 499q-29 0 -45.5 -1q-16.5 -1 -23.5 -1q-5 0 -9 4.5q-4 4.5 -2 12.5q1 8 6.5 12.5q5.5 4.5 10.5 4.5q6 0 22.5 0q16.5 0 46.5 -1z" />
<glyph unicode="&#103;" horiz-adv-x="379" d="M391 383q-2 -15 -12.5 -25.5q-10.5 -10.5 -24.5 -10.5q-14 0 -21.5 9q-7.5 9 -5.5 22q1 8 4 13q3 5 7 9q-10 4 -25 -9q-15 -13 -20 -46q-2 -20 -1 -42q1 -22 -4 -48q-5 -32 -19 -59.5q-14 -27.5 -34.5 -48.5q-20.5 -21 -46 -33q-25.5 -12 -52.5 -12q-13 0 -24.5 2q-11.5 2 -18.5 2q-26 0 -46 -12.5q-20 -12.5 -20 -32.5q0 -15 12 -22q12 -7 52 -7h80q66 0 93 -37q27 -37 19 -96q-6 -39 -25 -70q-19 -31 -46 -52.5q-27 -21.5 -60 -32.5q-33 -11 -66 -11q-35 0 -62.5 8.5q-27.5 8.5 -46 23.5q-18.5 15 -28 35q-9.5 20 -9.5 42q0 30 24.5 61.5q24.5 31.5 70.5 55.5q-32 7 -42.5 27.5q-10.5 20.5 -10.5 40.5q0 22 7.5 39q7.5 17 19.5 29.5q12 12.5 27.5 20.5q15.5 8 31.5 11q-24 19 -36 52.5q-12 33.5 -6 75.5q4 32 18.5 60q14.5 28 35.5 48.5q21 20.5 46.5 32.5q25.5 12 52.5 12q29 0 55.5 -15q26.5 -15 38.5 -41q1 16 8.5 30.5q7.5 14.5 17.5 25q10 10.5 22.5 16.5q12.5 6 24.5 6q24 0 35.5 -15q11.5 -15 9.5 -32zt0 0zM224 255q9 63 -1.5 94.5q-10.5 31.5 -47.5 31.5q-37 0 -56 -31.5q-19 -31.5 -28 -94.5q-9 -62 1.5 -94q10.5 -32 47.5 -32q37 0 56.5 32q19.5 32 27.5 94zt0 0zM241 -126q5 41 -13.5 61q-18.5 20 -71.5 20h-88q-44 -23 -61.5 -50.5q-17.5 -27.5 -17.5 -52.5q0 -38 25.5 -64q25.5 -26 75.5 -26q33 0 59.5 10.5q26.5 10.5 46 27q19.5 16.5 31 36.5t14.5 38z" />
<glyph unicode="&#104;" horiz-adv-x="488" d="M118 295q10 20 26 40q16 20 35.5 36.5q19.5 16.5 41.5 26.5q22 10 44 10q29 0 48 -11q19 -11 28.5 -31q9.5 -20 11 -47q1.5 -27 -4.5 -59l-33 -188q-3 -16 -1.5 -25q1.5 -9 5.5 -13.5q4 -4.5 8.5 -5.5q4.5 -1 7.5 -1q24 0 42.5 32.5q18.5 32.5 28.5 89.5q3 19 19 19q15 0 13 -19q-5 -24 -13.5 -51.5q-8.5 -27.5 -23 -51q-14.5 -23.5 -35.5 -39q-21 -15.5 -49 -15.5q-15 0 -28 5q-13 5 -22.5 15q-9.5 10 -13.5 25q-4 15 0 36l38 217q8 41 -1 58.5q-9 17.5 -38 17.5q-23 0 -47.5 -16q-24.5 -16 -46 -42q-21.5 -26 -38.5 -60q-17 -34 -23 -71l-31 -175q-1 -5 -7 -5q-6 0 -10 1.5q-4 1.5 -14 1.5q-9 0 -15 -1.5q-6 -1.5 -11 -1.5q-6 0 -6 5l108 608q-18 0 -29 -0.5q-11 -0.5 -17.5 -0.5q-6.5 0 -10 -0.5q-3.5 -0.5 -7.5 -0.5q-6 0 -10 4.5q-4 4.5 -3 12.5q5 18 19 18q4 0 7.5 -0.5q3.5 -0.5 10 -0.5q6.5 0 17.5 -0.5q11 -0.5 29 -0.5q12 0 26 2q14 2 21 2q6 0 10 -4.5q4 -4.5 3 -12.5l-59 -333z" />
<glyph unicode="&#105;" horiz-adv-x="267" d="M94 72q-3 -16 -1.5 -25q1.5 -9 5.5 -13.5q4 -4.5 8.5 -5.5q4.5 -1 7.5 -1q24 0 42.5 32.5q18.5 32.5 28.5 89.5q3 19 19 19q15 0 13 -19q-5 -24 -13.5 -51.5q-8.5 -27.5 -23 -51q-14.5 -23.5 -35.5 -39q-21 -15.5 -49 -15.5q-14 0 -27 5q-13 5 -22.5 15q-9.5 10 -13.5 25q-4 15 0 36l50 288q-18 0 -29 -0.5q-11 -0.5 -18 -1q-7 -0.5 -10.5 -1q-3.5 -0.5 -7.5 -0.5q-5 0 -9 5q-4 5 -2 13q1 8 6.5 12.5q5.5 4.5 10.5 4.5q4 0 7.5 0q3.5 0 10 -0.5q6.5 -0.5 17.5 -0.5q11 0 29 0q12 0 27 2q15 2 22 2q5 0 9 -5q4 -5 2 -13zM109 555q3 17 16 27.5q13 10.5 30 10.5q17 0 26 -10.5q9 -10.5 6 -27.5q-3 -17 -16 -27.5q-13 -10.5 -30 -10.5q-17 0 -25.5 10.5t-6.5 27.5z" />
<glyph unicode="&#106;" horiz-adv-x="202" d="M108 555q3 17 16 27.5q13 10.5 29 10.5q17 0 26 -10.5q9 -10.5 7 -27.5q-3 -17 -16 -27.5q-13 -10.5 -30 -10.5q-17 0 -26 10.5q-9 10.5 -6 27.5zt0 0zM59 -129q-11 -63 -40.5 -100.5q-29.5 -37.5 -74.5 -37.5q-20 0 -34.5 6.5q-14.5 6.5 -22.5 17q-8 10.5 -11 23.5q-3 13 -1 25q3 17 14.5 28q11.5 11 27.5 11q15 0 23 -10.5q8 -10.5 6 -25.5q-3 -11 -11.5 -20.5q-8.5 -9.5 -21.5 -13.5q3 -18 29 -18q16 0 28 17q12 17 17 41l96 547q-18 0 -29 -0.5q-11 -0.5 -18 -1q-7 -0.5 -10.5 -1q-3.5 -0.5 -7.5 -0.5q-5 0 -9 5q-4 5 -2 13q1 8 6.5 12.5q5.5 4.5 10.5 4.5q4 0 7.5 0q3.5 0 10 -0.5q6.5 -0.5 17.5 -0.5q11 0 29 0q12 0 27 2q15 2 22 2q5 0 9 -5q4 -5 2 -13z" />
<glyph unicode="&#107;" horiz-adv-x="425" d="M66 2q0 -5 -7 -5q-6 0 -10 1.5q-4 1.5 -14 1.5q-9 0 -15 -1.5q-6 -1.5 -11 -1.5q-6 0 -6 5l108 608q-18 0 -29 -0.5q-11 -0.5 -17.5 -0.5q-6.5 0 -10 -0.5q-3.5 -0.5 -7.5 -0.5q-6 0 -10 4.5q-4 4.5 -3 12.5q5 18 19 18q4 0 7.5 -0.5q3.5 -0.5 10 -0.5q6.5 0 17.5 -0.5q11 -0.5 29 -0.5q12 0 26 2q14 2 21 2q6 0 10 -4.5q4 -4.5 3 -12.5l-66 -374h6q25 0 44 22.5q19 22.5 38 49.5q19 27 42 49.5q23 22.5 57 22.5q31 0 49.5 -16q18.5 -16 18.5 -45q0 -28 -16 -45q-16 -17 -32 -17q-15 0 -24.5 11q-9.5 11 -6.5 27q2 14 13.5 24.5q11.5 10.5 23.5 11.5q0 22 -28 22q-21 0 -37 -16q-16 -16 -30.5 -36.5q-14.5 -20.5 -29 -40.5q-14.5 -20 -33.5 -29q19 -2 36.5 -12q17.5 -10 29.5 -28q12 -18 17 -45.5q5 -27.5 -2 -64.5l-5 -27q-3 -16 -1.5 -25q1.5 -9 5 -13.5q3.5 -4.5 8.5 -5.5q5 -1 8 -1q23 0 41.5 32.5q18.5 32.5 29.5 89.5q2 19 19 19q15 0 12 -19q-4 -24 -13 -51.5q-9 -27.5 -23.5 -51q-14.5 -23.5 -35.5 -39q-21 -15.5 -49 -15.5q-14 0 -27 5q-13 5 -22 15q-9 10 -13 25q-4 15 -1 36l10 59q9 52 -10.5 72q-19.5 20 -60.5 20l-14 0z" />
<glyph unicode="&#108;" horiz-adv-x="251" d="M78 72q-3 -16 -1.5 -25q1.5 -9 5.5 -13.5q4 -4.5 8.5 -5.5q4.5 -1 7.5 -1q24 0 42.5 32.5q18.5 32.5 28.5 89.5q3 19 19 19q16 0 13 -19q-5 -24 -13.5 -51.5q-8.5 -27.5 -23 -51q-14.5 -23.5 -35.5 -39q-21 -15.5 -49 -15.5q-14 0 -27 5q-13 5 -22.5 15q-9.5 10 -13.5 25q-4 15 0 36l94 537q-18 0 -29 -0.5q-11 -0.5 -17.5 -0.5q-6.5 0 -10 -0.5q-3.5 -0.5 -7.5 -0.5q-6 0 -10 4.5q-4 4.5 -2 12.5q2 8 7 13q5 5 11 5q4 0 7.5 -0.5q3.5 -0.5 10 -0.5q6.5 0 17.5 -0.5q11 -0.5 29 -0.5q12 0 26.5 2q14.5 2 21.5 2q14 0 12 -17l-99 -556z" />
<glyph unicode="&#109;" horiz-adv-x="714" d="M133 295q10 20 25.5 40q15.5 20 34.5 36.5q19 16.5 39.5 26.5q20.5 10 41.5 10q49 0 68 -32q19 -32 14 -84q10 21 26 41.5q16 20.5 35 37q19 16.5 39.5 27q20.5 10.5 41.5 10.5q28 0 45.5 -11q17.5 -11 26.5 -31q9 -20 10 -47q1 -27 -5 -59l-33 -188q-3 -16 -1.5 -25q1.5 -9 5 -13.5q3.5 -4.5 8.5 -5.5q5 -1 8 -1q23 0 41.5 32.5q18.5 32.5 29.5 89.5q2 19 19 19q15 0 12 -19q-4 -24 -13 -51.5q-9 -27.5 -23.5 -51q-14.5 -23.5 -35.5 -39q-21 -15.5 -49 -15.5q-14 0 -27 5q-13 5 -22.5 15q-9.5 10 -13.5 25q-4 15 0 36l38 220q8 42 -0.5 59q-8.5 17 -34.5 17q-21 0 -44 -16q-23 -16 -43.5 -42.5q-20.5 -26.5 -36.5 -61q-16 -34.5 -23 -72.5l-31 -175q0 -5 -7 -5q-6 0 -10 1.5q-4 1.5 -14 1.5q-9 0 -15 -1.5q-6 -1.5 -11 -1.5q-5 0 -5 5l51 291q8 42 -0.5 59q-8.5 17 -34.5 17q-21 0 -43.5 -16q-22.5 -16 -43 -42.5q-20.5 -26.5 -36.5 -61q-16 -34.5 -23 -72.5l-31 -175q0 -5 -7 -5q-6 0 -10.5 1.5q-4.5 1.5 -13.5 1.5q-10 0 -15.5 -1.5q-5.5 -1.5 -10.5 -1.5q-6 0 -6 5l64 359q-18 0 -29 -0.5q-11 -0.5 -18 -1q-7 -0.5 -10.5 -1q-3.5 -0.5 -7.5 -0.5q-5 0 -9 5q-4 5 -2 13q1 8 6.5 12.5q5.5 4.5 10.5 4.5q4 0 7.5 0q3.5 0 10 -0.5q6.5 -0.5 17.5 -0.5q11 0 29 0q12 0 27 2q15 2 22 2q5 0 9 -5q4 -5 2 -13l-15 -83z" />
<glyph unicode="&#110;" horiz-adv-x="503" d="M133 295q10 20 26.5 40q16.5 20 36 36.5q19.5 16.5 41.5 26.5q22 10 44 10q29 0 48 -11q19 -11 28.5 -31q9.5 -20 11 -47q1.5 -27 -4.5 -59l-33 -188q-3 -16 -1.5 -25q1.5 -9 5 -13.5q3.5 -4.5 8.5 -5.5q5 -1 8 -1q24 0 42 32.5q18 32.5 29 89.5q2 19 19 19q15 0 12 -19q-4 -24 -13 -51.5q-9 -27.5 -23 -51q-14 -23.5 -35 -39q-21 -15.5 -49 -15.5q-15 0 -28 5q-13 5 -22.5 15q-9.5 10 -13.5 25q-4 15 0 36l38 217q8 41 -1 58.5q-9 17.5 -38 17.5q-23 0 -47.5 -15.5q-24.5 -15.5 -46 -41.5q-21.5 -26 -38 -60q-16.5 -34 -23.5 -72l-31 -175q0 -5 -7 -5q-6 0 -10.5 1.5q-4.5 1.5 -13.5 1.5q-10 0 -15.5 -1.5q-5.5 -1.5 -10.5 -1.5q-6 0 -6 5l64 359q-18 0 -29 -0.5q-11 -0.5 -18 -1q-7 -0.5 -10.5 -1q-3.5 -0.5 -7.5 -0.5q-5 0 -9 5q-4 5 -2 13q1 8 6.5 12.5q5.5 4.5 10.5 4.5q4 0 7.5 0q3.5 0 10 -0.5q6.5 -0.5 17.5 -0.5q11 0 29 0q12 0 27 2q15 2 22 2q5 0 9 -5q4 -5 2 -13l-15 -83z" />
<glyph unicode="&#111;" horiz-adv-x="417" d="M280 196q17 99 1.5 139.5q-15.5 40.5 -64.5 40.5q-50 0 -80.5 -40.5q-30.5 -40.5 -48.5 -139.5q-17 -100 -1.5 -140q15.5 -40 66.5 -40q25 0 44.5 9.5q19.5 9.5 35 30.5q15.5 21 27 55.5q11.5 34.5 20.5 84.5zt0 0zM351 196q-8 -48 -28 -87q-20 -39 -48 -67q-28 -28 -61 -43.5q-33 -15.5 -67 -15.5q-34 0 -61.5 15.5q-27.5 15.5 -45.5 43.5q-18 28 -24 67q-6 39 2 87q8 48 28 87q20 39 48 66.5q28 27.5 61 43q33 15.5 67 15.5q34 0 61.5 -15.5q27.5 -15.5 45.5 -43q18 -27.5 24 -66.5t-2 -87z" />
<glyph unicode="&#112;" horiz-adv-x="433" d="M368 196q-8 -48 -26 -87q-18 -39 -42.5 -67q-24.5 -28 -54.5 -43.5q-30 -15.5 -62 -15.5q-32 0 -56 19q-24 19 -35 54l-51 -287q18 0 29 0q11 0 17.5 0.5q6.5 0.5 10 0.5q3.5 0 7.5 0q14 0 12 -18q-2 -8 -7.5 -12.5q-5.5 -4.5 -11.5 -4.5q-4 0 -8 1q-4 1 -13 1.5q-9 0.5 -26 1.5q-17 1 -46 1h-2q-29 0 -46.5 -1q-17.5 -1 -27 -1.5q-9.5 -0.5 -14 -1.5q-4.5 -1 -8.5 -1q-5 0 -9 4.5q-4 4.5 -2 12.5q1 8 7 13q6 5 11 5q4 0 7.5 0q3.5 0 10 -0.5q6.5 -0.5 17.5 -0.5q11 0 29 0l105 592q-18 0 -29 -0.5q-11 -0.5 -18 -1q-7 -0.5 -10.5 -1q-3.5 -0.5 -7.5 -0.5q-5 0 -9 5q-4 5 -2 13q1 8 6.5 12.5q5.5 4.5 10.5 4.5q4 0 7.5 0q3.5 0 10 -0.5q6.5 -0.5 17.5 -0.5q11 0 29 0q12 0 27 2q15 2 22 2q5 0 9 -5q4 -5 2 -13l-7 -42q24 35 54.5 53.5q30.5 18.5 62.5 18.5q32 0 56.5 -15.5q24.5 -15.5 39 -43q14.5 -27.5 18.5 -66.5q4 -39 -4 -87zt0 0zM298 196q17 99 4.5 139q-12.5 40 -52.5 40q-44 0 -81 -46q-37 -46 -53 -133q-15 -87 6 -133q21 -46 66 -46q39 0 66 40t44 139z" />
<glyph unicode="&#113;" horiz-adv-x="418" d="M305 391q0 4 7 4q6 0 10 -1.5q4 -1.5 14 -1.5q9 0 15 1.5q6 1.5 11 1.5q6 0 6 -4l-110 -619q18 0 29 0q11 0 18 0.5q7 0.5 10.5 0.5q3.5 0 7.5 0q5 0 9 -4.5q4 -4.5 2 -12.5q-1 -8 -7 -13q-6 -5 -11 -5q-4 0 -8 1q-4 1 -13.5 1.5q-9.5 0.5 -26 1.5q-16.5 1 -45.5 1h-3q-29 0 -46 -1q-17 -1 -26.5 -1.5q-9.5 -0.5 -14 -1.5q-4.5 -1 -8.5 -1q-5 0 -9 5q-4 5 -3 13q2 8 7.5 12.5q5.5 4.5 11.5 4.5q4 0 7.5 0q3.5 0 10 -0.5q6.5 -0.5 17.5 -0.5q11 0 29 0l49 282q-23 -34 -54.5 -52.5q-31.5 -18.5 -62.5 -18.5q-32 0 -56.5 15.5q-24.5 15.5 -39 43.5q-14.5 28 -18.5 67q-4 39 4 87q8 48 26 87q18 39 42.5 66.5q24.5 27.5 54.5 43q30 15.5 62 15.5q31 0 56 -18q25 -18 36 -52zM270 196q16 87 -5 133q-21 46 -66 46q-39 0 -66 -40q-27 -40 -45 -139q-17 -99 -4 -139q13 -40 53 -40q44 0 81 46t52 133z" />
<glyph unicode="&#114;" horiz-adv-x="300" d="M82 2q-1 -5 -7 -5q-6 0 -10.5 1.5q-4.5 1.5 -13.5 1.5q-10 0 -15.5 -1.5q-5.5 -1.5 -10.5 -1.5q-6 0 -6 5l64 359q-18 0 -29 -0.5q-11 -0.5 -18 -1q-7 -0.5 -10.5 -1q-3.5 -0.5 -7.5 -0.5q-5 0 -9 5q-4 5 -2 13q1 8 6.5 12.5q5.5 4.5 10.5 4.5q4 0 7.5 0q3.5 0 10 -0.5q6.5 -0.5 17.5 -0.5q11 0 29 0q12 0 27 2q15 2 22 2q5 0 9 -5q4 -5 2 -13l-8 -46q26 44 55 60q29 16 58 16q30 0 44.5 -18q14.5 -18 10.5 -38q-3 -20 -16 -33q-13 -13 -30 -13q-17 0 -27 11.5q-10 11.5 -7 28.5q4 17 18 27q-3 0 -6.5 1q-3.5 1 -10.5 1q-16 0 -33 -13q-17 -13 -32 -35q-15 -22 -27 -51.5q-12 -29.5 -18 -62.5z" />
<glyph unicode="&#115;" horiz-adv-x="341" d="M37 66q11 -25 36 -38.5q25 -13.5 55 -13.5q33 0 59 20q26 20 26 57q0 20 -18.5 39.5q-18.5 19.5 -60.5 39.5q-42 21 -64 49.5q-22 28.5 -22 70.5q0 33 13.5 55.5q13.5 22.5 33 37q19.5 14.5 42 20.5q22.5 6 40.5 6q50 0 76.5 -24q26.5 -24 26.5 -52q0 -21 -12 -33q-12 -12 -27 -12q-14 0 -23 9.5q-9 9.5 -6 21.5q2 20 26 31q-4 11 -21 20q-17 9 -44 9q-33 0 -54.5 -19q-21.5 -19 -21.5 -51q0 -22 16 -39q16 -17 52 -34q40 -19 69 -49q29 -30 29 -78q0 -30 -11.5 -54q-11.5 -24 -30.5 -40q-19 -16 -43.5 -24.5q-24.5 -8.5 -51.5 -8.5q-31 0 -55 9.5q-24 9.5 -40.5 24.5q-16.5 15 -25 33q-8.5 18 -8.5 34q0 29 14.5 40.5q14.5 11.5 31.5 11.5q14 0 22 -9.5q8 -9.5 8 -20.5q0 -16 -12 -26.5t-24 -12.5z" />
<glyph unicode="&#116;" horiz-adv-x="275" d="M90 72q-3 -16 -1.5 -25q1.5 -9 5.5 -13.5q4 -4.5 8.5 -5.5q4.5 -1 7.5 -1q24 0 42.5 32.5q18.5 32.5 28.5 89.5q3 19 19 19q15 0 13 -19q-5 -24 -13.5 -51.5q-8.5 -27.5 -23 -51q-14.5 -23.5 -35.5 -39q-21 -15.5 -49 -15.5q-15 0 -28 5q-13 5 -22.5 15q-9.5 10 -13.5 25q-4 15 0 36l50 288q-27 0 -42 -1q-15 -1 -22 -1q-5 0 -9 4.5q-4 4.5 -2 12.5q1 8 6.5 12.5q5.5 4.5 10.5 4.5q6 0 20.5 0q14.5 0 43.5 -1l19 105q0 5 6 5q7 0 11 -2q4 -2 13 -2q10 0 15.5 2q5.5 2 10.5 2q8 0 6 -5l-18 -105h8q32 1 52 1q20 0 26 0q5 0 9.5 -4.5q4.5 -4.5 2.5 -12.5q-2 -8 -7.5 -12.5q-5.5 -4.5 -10.5 -4.5q-7 0 -26.5 1q-19.5 1 -51.5 1l-8 0z" />
<glyph unicode="&#117;" horiz-adv-x="490" d="M312 390q2 5 6 5q7 0 11 -1.5q4 -1.5 14 -1.5q9 0 14.5 1.5q5.5 1.5 10.5 1.5q6 0 6 -5l-56 -318q-3 -16 -1.5 -25q1.5 -9 5 -13.5q3.5 -4.5 8 -5.5q4.5 -1 8.5 -1q23 0 41.5 32.5q18.5 32.5 28.5 89.5q3 19 20 19q15 0 12 -19q-5 -24 -13.5 -51.5q-8.5 -27.5 -23 -51q-14.5 -23.5 -35.5 -39q-21 -15.5 -49 -15.5q-14 0 -27 5q-13 5 -22.5 15q-9.5 10 -13.5 25q-4 15 0 36l4 25q-10 -20 -25.5 -40q-15.5 -20 -34 -36q-18.5 -16 -39.5 -26.5q-21 -10.5 -42 -10.5q-28 0 -45.5 11q-17.5 11 -26 31q-8.5 20 -9.5 47q-1 27 5 59l40 228q-18 0 -29 -0.5q-11 -0.5 -18 -1q-7 -0.5 -10.5 -1q-3.5 -0.5 -7.5 -0.5q-5 0 -9 5q-4 5 -2 13q1 8 6.5 12.5q5.5 4.5 10.5 4.5q4 0 7.5 0q3.5 0 10 -0.5q6.5 -0.5 17.5 -0.5q11 0 29 0q12 0 27 2q15 2 22 2q5 0 9 -5q4 -5 2 -13l-49 -279q-7 -41 1 -58.5q8 -17.5 35 -17.5q21 0 43.5 16q22.5 16 43 43q20.5 27 36.5 61.5q16 34.5 23 72.5z" />
<glyph unicode="&#118;" horiz-adv-x="364" d="M80 -8q-5 -6 -11.5 -7.5q-6.5 -1.5 -11.5 1q-5 2.5 -6 9q-1 6.5 5 16.5q11 34 6 70.5q-5 36.5 -15 71q-10 34.5 -20 63.5q-10 29 -10 47q0 30 10 52.5q10 22.5 24 39.5q14 17 29.5 28.5q15.5 11.5 26.5 19.5q7 5 14.5 6.5q7.5 1.5 12.5 -6.5q4 -8 -2 -14.5q-6 -6.5 -13 -11.5q-12 -9 -23 -29.5q-11 -20.5 -11 -55.5q0 -24 8.5 -51.5q8.5 -27.5 17.5 -55q9 -27.5 14.5 -54.5q5.5 -27 -0.5 -50q89 69 129.5 129.5q40.5 60.5 40.5 112.5q0 4 -0.5 11q-0.5 7 -1.5 10q-5 -5 -13 -8.5q-8 -3.5 -17 -3.5q-32 0 -32 31q0 17 13 31q13 14 33 14q15 0 24.5 -8.5q9.5 -8.5 15 -21q5.5 -12.5 7.5 -27.5q2 -15 2 -28q0 -50 -25.5 -94q-25.5 -44 -63 -83.5q-37.5 -39.5 -80.5 -77.5t-77 -76z" />
<glyph unicode="&#119;" horiz-adv-x="632" d="M589 331q0 -28 -6.5 -64.5q-6.5 -36.5 -18.5 -74q-12 -37.5 -29.5 -73.5q-17.5 -36 -40 -64.5q-22.5 -28.5 -50 -45.5q-27.5 -17 -58.5 -17q-51 0 -71.5 37q-20.5 37 -16.5 94q-9 -24 -22.5 -47.5q-13.5 -23.5 -31.5 -42q-18 -18.5 -39 -30q-21 -11.5 -44 -11.5q-45 0 -61.5 42q-16.5 42 -5.5 106l34 188q3 16 1.5 25q-1.5 9 -5.5 13.5q-4 4.5 -8.5 5.5q-4.5 1 -7.5 1q-24 0 -42.5 -32.5q-18.5 -32.5 -28.5 -89.5q-3 -19 -19 -19q-16 0 -13 19q4 24 13 51.5q9 27.5 23.5 51q14.5 23.5 35.5 39q21 15.5 49 15.5q14 0 27 -5q13 -5 22.5 -15q9.5 -10 13.5 -25q4 -15 0 -36l-38 -220q-8 -41 -0.5 -59.5q7.5 -18.5 27.5 -18.5q21 0 43.5 23q22.5 23 44.5 65q22 42 40.5 101q18.5 59 31.5 131l9 49q1 5 6 5q7 0 11.5 -1.5q4.5 -1.5 13.5 -1.5q10 0 15 1.5q5 1.5 10 1.5q7 0 6 -5l-42 -244q-7 -40 -8 -64.5q-1 -24.5 3.5 -38q4.5 -13.5 13.5 -18q9 -4.5 22 -4.5q22 0 43 15q21 15 38.5 40q17.5 25 32 57q14.5 32 25 65.5q10.5 33.5 16 66q5.5 32.5 5.5 58.5q0 9 -2 13q-5 -5 -13 -8.5q-8 -3.5 -16 -3.5q-33 0 -33 31q0 17 13 31q13 14 33 14q15 0 24.5 -8q9.5 -8 15 -20q5.5 -12 7.5 -25.5t2 -23.5z" />
<glyph unicode="&#120;" horiz-adv-x="417" d="M398 359q-2 -16 -15 -26.5q-13 -10.5 -29 -10.5q-14 0 -24.5 11.5q-10.5 11.5 -6.5 28.5q-11 -2 -26.5 -14.5q-15.5 -12.5 -31.5 -33.5q-16 -21 -29.5 -50q-13.5 -29 -19.5 -63q-7 -39 -10 -71.5q-3 -32.5 0 -56q3 -23.5 12.5 -36.5q9.5 -13 28.5 -13q26 0 49.5 34q23.5 34 33.5 91q3 19 19 19q15 0 13 -19q-5 -24 -15 -51.5q-10 -27.5 -26 -51q-16 -23.5 -38 -39q-22 -15.5 -50 -15.5q-12 0 -26 3.5q-14 3.5 -27 14.5q-13 11 -21.5 32q-8.5 21 -8.5 56q-33 -56 -71 -81q-38 -25 -69 -25q-23 0 -32.5 12.5q-9.5 12.5 -6.5 28.5q2 15 15 26q13 11 29 11q13 0 24 -11.5q11 -11.5 7 -28.5q10 2 26 14q16 12 32 33q16 21 29.5 50q13.5 29 19.5 64q7 39 10 71.5q3 32.5 0.5 56q-2.5 23.5 -12 36.5q-9.5 13 -28.5 13q-26 0 -49.5 -34q-23.5 -34 -34.5 -91q-1 -8 -6 -14q-5 -6 -13 -6q-8 0 -11 6q-3 6 -1 14q4 24 14 51.5q10 27.5 26.5 51q16.5 23.5 38.5 39q22 15.5 50 15.5q12 0 26 -3.5q14 -3.5 26.5 -14.5q12.5 -11 21 -32q8.5 -21 8.5 -56q33 56 71 81q38 25 69 25q23 0 32.5 -12.5t6.5 -28.5z" />
<glyph unicode="&#121;" horiz-adv-x="417" d="M433 353q-4 -15 -16.5 -26q-12.5 -11 -28.5 -11q-14 0 -23.5 10.5q-9.5 10.5 -7.5 22.5q-11 -5 -19 -14.5q-8 -9.5 -19 -29.5l-206 -407q-18 -36 -39 -66q-21 -30 -42.5 -52q-21.5 -22 -44.5 -34.5q-23 -12.5 -45 -12.5q-23 0 -33 14.5q-10 14.5 -7 30.5q3 16 16 27q13 11 29 11q14 0 24.5 -11.5q10.5 -11.5 5.5 -28.5q10 2 25 15q15 13 30.5 32q15.5 19 30 42.5q14.5 23.5 25.5 46.5l36 70v338q0 29 -9.5 37q-9.5 8 -18.5 8q-24 0 -42.5 -32.5q-18.5 -32.5 -28.5 -89.5q-2 -8 -6.5 -14q-4.5 -6 -12.5 -6q-8 0 -11 6q-3 6 -2 14q4 24 13 51.5q9 27.5 23.5 51q14.5 23.5 35.5 39q21 15.5 49 15.5q29 0 51.5 -18q22.5 -18 22.5 -64v-211l104 204q17 33 42 60q25 27 59 27q23 0 32.5 -14.5t7.5 -30.5z" />
<glyph unicode="&#122;" horiz-adv-x="342" d="M68 78q17 5 29 5q25 0 44 -7.5q19 -7.5 35 -17q16 -9.5 28.5 -17q12.5 -7.5 24.5 -7.5q11 0 18 9q7 9 7 20q0 12 -11 19q-6 4 -8 10q-2 6 3 11q5 8 11 8.5q6 0.5 11 -3.5q23 -15 23 -40q0 -15 -8 -29.5q-8 -14.5 -20.5 -26q-12.5 -11.5 -29 -18q-16.5 -6.5 -32.5 -6.5q-26 0 -46.5 8.5q-20.5 8.5 -37.5 19q-17 10.5 -31 19.5q-14 9 -26 9q-6 0 -10.5 -2q-4.5 -2 -9.5 -8l-22 -26q-8 -10 -13.5 -13.5q-5.5 -3.5 -11.5 -3.5q-5 0 -10 4.5q-5 4.5 -5 9.5q2 10 8 17l240 287q-8 -2 -15 -3q-7 -1 -14 -1q-25 0 -43 7.5q-18 7.5 -32.5 16.5q-14.5 9 -25.5 16.5q-11 7.5 -22 7.5q-11 0 -18.5 -8.5q-7.5 -8.5 -7.5 -19.5q0 -12 12 -19q5 -4 7.5 -10q2.5 -6 -2.5 -12q-5 -7 -11.5 -7.5q-6.5 -0.5 -11.5 3.5q-12 7 -17 18q-5 11 -5 23q0 18 8.5 32q8.5 14 22 24.5q13.5 10.5 29 16q15.5 5.5 30.5 5.5q24 0 43 -8.5q19 -8.5 35 -19q16 -10.5 29.5 -19q13.5 -8.5 25.5 -8.5q10 0 20 10l25 29q8 10 13.5 13q5.5 3 10.5 3q5 0 9.5 -3.5q4.5 -3.5 4.5 -8.5q0 -10 -6 -17l-244 -292z" />
<glyph unicode="&#123;" horiz-adv-x="350" d="M43 308q18 0 35.5 6.5q17.5 6.5 33.5 25q16 18.5 29 51.5q13 33 22 87q9 52 29.5 86.5q20.5 34.5 48.5 58.5q28 24 61.5 41.5q33.5 17.5 69.5 36.5q13 7 15 -2q2 -9 -9 -16q-33 -21 -58 -39.5q-25 -18.5 -43 -40.5q-18 -22 -30.5 -51q-12.5 -29 -19.5 -72q-10 -54 -21 -87.5q-11 -33.5 -25.5 -52.5q-14.5 -19 -34.5 -28.5q-20 -9.5 -48 -15.5q25 -6 42 -15.5q17 -9.5 25 -28.5q8 -19 7 -52.5q-1 -33.5 -10 -87.5q-8 -43 -6 -72.5q2 -29.5 13 -52q11 -22.5 29.5 -40.5q18.5 -18 44.5 -38q8 -7 1.5 -15.5q-6.5 -8.5 -15.5 -2.5q-30 19 -58 36.5q-28 17.5 -47 41.5q-19 24 -26.5 58q-7.5 34 1.5 87q9 54 8 87q-1 33 -10 51q-9 18 -24.5 24.5q-15.5 6.5 -33.5 6.5q-8 0 -11.5 4q-3.5 4 -2.5 8.5q1 4.5 5.5 8.5t12.5 4z" />
<glyph unicode="&#124;" horiz-adv-x="270" d="M159 675v-758h-44l0 758z" />
<glyph unicode="&#125;" horiz-adv-x="350" d="M294 283q-18 0 -35.5 -6.5q-17.5 -6.5 -33 -24.5q-15.5 -18 -29 -51q-13.5 -33 -22.5 -87q-9 -53 -29 -87q-20 -34 -47 -58q-27 -24 -61 -41.5q-34 -17.5 -71 -36.5q-11 -6 -14.5 2.5q-3.5 8.5 7.5 15.5q32 20 57 38q25 18 44 40.5q19 22.5 31.5 52q12.5 29.5 20.5 72.5q9 54 20 87.5q11 33.5 25.5 52.5q14.5 19 34.5 28.5q20 9.5 48 15.5q-26 6 -42.5 15.5q-16.5 9.5 -24.5 28.5q-8 19 -7 52.5q1 33.5 11 87.5q7 43 5 72q-2 29 -12.5 51q-10.5 22 -29.5 40.5q-19 18.5 -45 39.5q-8 7 -3 16q5 9 16 2q30 -19 57.5 -36.5q27.5 -17.5 47 -41.5q19.5 -24 27 -58.5q7.5 -34.5 -1.5 -86.5q-9 -54 -7.5 -87q1.5 -33 10.5 -51.5q9 -18.5 24 -25q15 -6.5 33 -6.5q8 0 11.5 -4q3.5 -4 3 -8.5q-0.5 -4.5 -5 -8.5t-13.5 -4z" />
<glyph unicode="&#126;" horiz-adv-x="380" d="M256 258q20 0 36.5 17q16.5 17 24.5 39q4 11 12.5 11q8.5 0 6.5 -11q-10 -57 -38 -87.5q-28 -30.5 -65 -30.5q-16 0 -34.5 10.5q-18.5 10.5 -36.5 22.5q-18 12 -35.5 22.5q-17.5 10.5 -30.5 10.5q-17 0 -33.5 -16.5q-16.5 -16.5 -25.5 -38.5q-4 -10 -12.5 -11q-8.5 -1 -6.5 11q9 52 37 84q28 32 60 32q18 0 36 -10q18 -10 36 -22.5q18 -12.5 35.5 -22.5t33.5 -10z" />
<glyph unicode="&#160;" horiz-adv-x="175" />
<glyph unicode="&#161;" horiz-adv-x="278" d="M187 353q-4 -20 -20 -34q-16 -14 -36 -14q-19 0 -31 14q-12 14 -8 34q3 20 19.5 33q16.5 13 36.5 13q20 0 31 -13q11 -13 8 -33zt0 0zM127 206q-15 -84 -23.5 -145q-8.5 -61 -13 -104.5q-4.5 -43.5 -5.5 -72q-1 -28.5 -1 -48q0 -19.5 -0.5 -33.5q-0.5 -14 -2.5 -27q-4 -17 -18 -30q-14 -13 -32 -13q-17 0 -28 13q-11 13 -8 30q2 13 7 27q5 14 12 33.5q7 19.5 16 48q9 28.5 20 72q11 43.5 24 104.5q13 61 28 145q1 7 6 10q5 3 9.5 3q4.5 0 7.5 -3t2 -10z" />
<glyph unicode="&#162;" horiz-adv-x="445" d="M284 514q26 -2 47.5 -12q21.5 -10 35.5 -25.5q14 -15.5 20.5 -35q6.5 -19.5 3.5 -39.5q-3 -20 -16.5 -33q-13.5 -13 -30.5 -13q-16 0 -25 11q-9 11 -6 27q3 14 15 26q12 12 26 13q-7 17 -26.5 33.5q-19.5 16.5 -49.5 16.5l-62 -359q40 0 69 21q29 21 51 63q3 5 7 10q4 5 11 5q8 0 11.5 -4.5q3.5 -4.5 2.5 -10.5q-2 -10 -8 -18q-32 -54 -70.5 -76q-38.5 -22 -79.5 -24l-10 -55q-5 -26 -7.5 -44.5q-2.5 -18.5 -3.5 -30.5q-1 -12 -1.5 -20q-0.5 -8 -1.5 -13q-1 -7 -8 -13q-7 -6 -18 -6q-11 0 -15.5 6q-4.5 6 -3.5 13q1 5 2.5 12q1.5 7 4.5 19q3 12 6.5 30.5q3.5 18.5 8.5 46.5l10 57q-35 4 -60.5 21q-25.5 17 -41.5 44.5q-16 27.5 -20.5 64.5q-4.5 37 3.5 81q8 43 25.5 80q17.5 37 43 64.5q25.5 27.5 57.5 44.5q32 17 68 21l3 19q6 37 9.5 62q3.5 25 6 40.5q2.5 15.5 3.5 24.5q1 9 2 14q2 8 8.5 13.5q6.5 5.5 17.5 5.5q11 0 16 -5.5q5 -5.5 3 -13.5q-1 -5 -2.5 -13.5q-1.5 -8.5 -4.5 -24q-3 -15.5 -8 -40.5q-5 -25 -14 -63zM242 478q-42 -11 -72 -52.5q-30 -41.5 -44 -122.5q-14 -81 2.5 -121.5q16.5 -40.5 51.5 -52.5z" />
<glyph unicode="&#163;" horiz-adv-x="480" d="M305 37q42 1 64 34.5q22 33.5 33 93.5q1 6 5.5 10.5q4.5 4.5 11.5 4.5q8 0 11 -4.5q3 -4.5 1 -10.5q-1 -4 -4 -17.5q-3 -13.5 -7 -31.5q-4 -18 -8 -37.5q-4 -19.5 -7 -34.5l-5 -31q-2 -8 -7 -12.5q-5 -4.5 -10 -4.5q-6 0 -22 2q-16 2 -27 2q-23 0 -60.5 0q-37.5 0 -73.5 1q-42 0 -88 1q-31 0 -49.5 -1q-18.5 -1 -29 -1.5q-10.5 -0.5 -15 -1.5q-4.5 -1 -8.5 -1q-5 0 -10 4.5q-5 4.5 -5 12.5q0 8 5 13q5 5 10 5q18 0 31.5 3q13.5 3 23 13.5q9.5 10.5 17 32q7.5 21.5 13.5 57.5l35 199q-29 0 -45.5 -1q-16.5 -1 -23.5 -1q-6 0 -10 4.5q-4 4.5 -2 12.5q2 8 7 12q5 4 11 4q5 0 22 0.5q17 0.5 47 -0.5l12 67q10 54 22.5 95.5q12.5 41.5 32 70q19.5 28.5 47.5 43q28 14.5 67 14.5q24 0 40.5 -6.5q16.5 -6.5 27 -16.5q10.5 -10 14 -22.5q3.5 -12.5 1.5 -25.5q-3 -17 -15.5 -30.5q-12.5 -13.5 -29.5 -13.5q-17 0 -26 11.5q-9 11.5 -6 27.5q2 12 11.5 22.5q9.5 10.5 23.5 15.5q-4 6 -16 10.5q-12 4.5 -29 4.5q-26 0 -45.5 -17.5q-19.5 -17.5 -27.5 -61.5l-33 -188q16 0 35.5 0q19.5 0 37 0q17.5 0 30.5 0q13 0 16 0q5 0 9.5 -4q4.5 -4 2.5 -12q-2 -8 -7 -12.5q-5 -4.5 -11 -4.5q-3 0 -16.5 0.5q-13.5 0.5 -31 0.5q-17.5 0 -36.5 0.5q-19 0.5 -35 0.5l-17 -95q-17 -91 -41.5 -140.5q-24.5 -49.5 -52.5 -70.5l215 6z" />
<glyph unicode="&#164;" horiz-adv-x="500" d="M425 436l22 -27q-20 -17 -35 -29q-7 -6 -13 -11q-6 -5 -11 -9q-6 -4 -11 -9q13 -21 18 -46q5 -25 0 -54q-5 -29 -19 -54.5q-14 -25.5 -34 -45.5l48 -59l-30 -26l-49 59q-48 -34 -105 -34q-57 0 -94 34l-69 -59l-21 26l69 59q-27 41 -18 100q11 57 52 100l-48 58l31 27l48 -59q23 16 50 25.5q27 9.5 56 9.5q29 0 52.5 -9q23.5 -9 41.5 -26zM353 251q4 25 -1 46.5q-5 21.5 -18.5 37.5q-13.5 16 -33.5 25.5q-20 9.5 -45 9.5q-25 0 -48 -9.5q-23 -9.5 -42 -25.5q-19 -16 -32.5 -37.5q-13.5 -21.5 -17.5 -46.5q-5 -25 0.5 -46.5q5.5 -21.5 19 -37.5q13.5 -16 33.5 -25.5q20 -9.5 45 -9.5q25 0 48.5 9.5q23.5 9.5 42.5 25.5q19 16 32 37.5t17 46.5z" />
<glyph unicode="&#165;" horiz-adv-x="439" d="M238 198q25 0 39.5 1q14.5 1 23 2q8.5 1 13 1.5q4.5 0.5 9.5 0.5q8 0 12.5 -6q4.5 -6 2.5 -17q-2 -11 -8.5 -16.5q-6.5 -5.5 -14.5 -5.5q-5 0 -9 0.5q-4 0.5 -12 1q-8 0.5 -23 1.5q-15 1 -40 1l-23 -131q18 0 29 0q11 0 18 0.5q7 0.5 10.5 0.5q3.5 0 7.5 0q5 0 9 -5q4 -5 2 -13q-1 -8 -6.5 -12.5q-5.5 -4.5 -10.5 -4.5q-4 0 -8 1q-4 1 -13.5 1.5q-9.5 0.5 -27 1.5q-17.5 1 -48.5 1h-4q-31 0 -48.5 -1q-17.5 -1 -27.5 -1.5q-10 -0.5 -14 -1.5q-4 -1 -8 -1q-6 0 -10.5 4.5q-4.5 4.5 -2.5 12.5q5 18 18 18q4 0 7.5 0q3.5 0 10.5 -0.5q7 -0.5 18 -0.5q11 0 29 0l22 131q-25 0 -39.5 -1q-14.5 -1 -23 -1.5q-8.5 -0.5 -13 -1q-4.5 -0.5 -8.5 -0.5q-7 0 -12 5.5q-5 5.5 -3 16.5q2 11 8.5 17q6.5 6 13.5 6q5 0 9.5 -0.5q4.5 -0.5 13 -1.5q8.5 -1 23 -2q14.5 -1 38.5 -1l12 72q-25 0 -39.5 -1q-14.5 -1 -22.5 -1.5q-8 -0.5 -12.5 -1q-4.5 -0.5 -9.5 -0.5q-7 0 -12 5.5q-5 5.5 -3 16.5q2 11 8.5 17q6.5 6 14.5 6q4 0 8 -0.5q4 -0.5 11 -1q7 -0.5 19 -1.5q12 -1 32 -1l-90 304q-17 0 -27.5 0q-10.5 0 -17 -0.5q-6.5 -0.5 -10 -0.5q-3.5 0 -7.5 0q-6 0 -10 5q-4 5 -2 13q2 8 7 12.5q5 4.5 11 4.5q4 0 8 -1q4 -1 13.5 -1.5q9.5 -0.5 27 -1.5q17.5 -1 47.5 -1h5q30 0 48 1q18 1 27.5 1.5q9.5 0.5 14 1.5q4.5 1 8.5 1q5 0 9.5 -4.5q4.5 -4.5 2.5 -12.5q-2 -8 -7 -13q-5 -5 -11 -5q-4 0 -7.5 0q-3.5 0 -10 0.5q-6.5 0.5 -17 0.5q-10.5 0 -27.5 0l81 -275l178 275q-18 0 -30 0q-12 0 -19.5 -0.5q-7.5 -0.5 -12 -0.5q-4.5 0 -8.5 0q-6 0 -10 5q-4 5 -2 13q2 8 7 12.5q5 4.5 11 4.5q3 0 7 -0.5q4 -0.5 12 -1.5q8 -1 22.5 -2q14.5 -1 40.5 -1q25 0 40 1q15 1 23.5 2q8.5 1 12.5 1.5q4 0.5 7 0.5q6 0 10.5 -4.5q4.5 -4.5 2.5 -12.5q-5 -18 -18 -18q-8 0 -19 0.5q-11 0.5 -39 0.5l-198 -304q25 0 39.5 1q14.5 1 23 1.5q8.5 0.5 13 1q4.5 0.5 9.5 0.5q8 0 13 -6q5 -6 3 -17q-2 -11 -9 -16.5q-7 -5.5 -15 -5.5q-5 0 -9 0.5q-4 0.5 -12 1q-8 0.5 -23 1.5q-15 1 -40 1z" />
<glyph unicode="&#166;" horiz-adv-x="270" d="M159 358h-44v317h44zM159 -83h-44v316l44 0z" />
<glyph unicode="&#167;" horiz-adv-x="426" d="M176 365q-36 -12 -61.5 -38q-25.5 -26 -25.5 -66q0 -18 9.5 -34q9.5 -16 26 -30.5q16.5 -14.5 37 -27.5q20.5 -13 43.5 -24q8 -4 12 -7q36 12 61.5 38q25.5 26 25.5 66q0 18 -9.5 34q-9.5 16 -26 30.5q-16.5 14.5 -37.5 27.5q-21 13 -43 24q-8 4 -12 7zt0 0zM247 118q24 -19 43.5 -48.5q19.5 -29.5 19.5 -74.5q0 -39 -16 -67.5q-16 -28.5 -40 -47q-24 -18.5 -52 -27q-28 -8.5 -52 -8.5q-60 0 -92.5 28.5q-32.5 28.5 -32.5 66.5q0 26 15.5 40.5q15.5 14.5 34.5 14.5q17 0 25.5 -11q8.5 -11 7.5 -22q-1 -13 -11.5 -25q-10.5 -12 -27.5 -16q6 -17 27 -30.5q21 -13.5 56 -13.5q48 0 75.5 28q27.5 28 27.5 67q0 35 -24 58q-24 23 -61 45q-57 35 -90 74q-33 39 -33 87q0 99 99 149q-24 19 -43.5 48.5q-19.5 29.5 -19.5 74.5q0 39 16 67.5q16 28.5 40 47q24 18.5 52 27q28 8.5 52 8.5q60 0 92.5 -28.5q32.5 -28.5 32.5 -66.5q0 -26 -15.5 -40.5q-15.5 -14.5 -34.5 -14.5q-17 0 -25.5 11q-8.5 11 -7.5 22q1 13 11.5 25q10.5 12 27.5 16q-6 17 -27 30.5q-21 13.5 -56 13.5q-48 0 -75.5 -28q-27.5 -28 -27.5 -67q0 -35 24 -57.5q24 -22.5 61 -45.5q57 -35 90 -74q33 -39 33 -87q0 -99 -99 -149z" />
<glyph unicode="&#168;" horiz-adv-x="367" d="M166 520q15 0 23.5 -10.5q8.5 -10.5 5.5 -25.5q-2 -14 -14.5 -24.5q-12.5 -10.5 -27.5 -10.5q-14 0 -22.5 10.5q-8.5 10.5 -6.5 24.5q3 15 15.5 25.5q12.5 10.5 26.5 10.5zt0 0zM316 520q14 0 22.5 -10.5q8.5 -10.5 5.5 -25.5q-2 -14 -14 -24.5q-12 -10.5 -27 -10.5q-15 0 -23.5 10.5q-8.5 10.5 -6.5 24.5q4 15 16 25.5t27 10.5z" />
<glyph unicode="&#169;" horiz-adv-x="764" d="M440 657q69 0 125.5 -26.5q56.5 -26.5 94 -72q37.5 -45.5 53 -106.5q15.5 -61 3.5 -130q-12 -70 -49.5 -131q-37.5 -61 -90.5 -106.5q-53 -45.5 -119 -72q-66 -26.5 -135 -26.5q-70 0 -126.5 26.5q-56.5 26.5 -94 72q-37.5 45.5 -53 106.5q-15.5 61 -3.5 131q12 69 49.5 130q37.5 61 91 106.5q53.5 45.5 119 72q65.5 26.5 135.5 26.5zt0 0zM434 623q-63 0 -122 -23.5q-59 -23.5 -107.5 -64.5q-48.5 -41 -82 -95.5q-33.5 -54.5 -44.5 -117.5q-11 -63 3 -118q14 -55 48 -96.5q34 -41.5 85 -65q51 -23.5 114 -23.5q62 0 121 23.5q59 23.5 107.5 65q48.5 41.5 82 96.5q33.5 55 44.5 118q11 62 -3 117q-14 55 -47.5 96q-33.5 41 -84.5 64.5q-51 23.5 -114 23.5zt0 0zM497 131q-2 -8 -5.5 -13q-3.5 -5 -14.5 -5q-11 0 -12.5 6.5q-1.5 6.5 -0.5 12.5q1 8 -7 15q-22 -17 -47 -27.5q-25 -10.5 -67 -10.5q-39 0 -71 15.5q-32 15.5 -53 43q-21 27.5 -29.5 67q-8.5 39.5 -0.5 87.5q8 47 30.5 86q22.5 39 53.5 67q31 28 68.5 43.5q37.5 15.5 76.5 15.5q42 0 63.5 -11q21.5 -11 36.5 -25q5 0 8.5 3q3.5 3 4.5 11q1 7 4.5 13q3.5 6 14.5 6q11 0 13 -5q2 -5 0 -13l-21 -125q-1 -6 -4.5 -12.5q-3.5 -6.5 -14.5 -6.5q-11 0 -13 6.5q-2 6.5 -1 12.5q4 24 -0.5 44.5q-4.5 20.5 -16.5 36q-12 15.5 -31 24.5q-19 9 -43 9q-56 0 -94 -41q-38 -41 -55 -139q-17 -99 6 -139.5q23 -40.5 80 -40.5q24 0 45.5 9q21.5 9 39.5 24.5q18 15.5 30 36q12 20.5 16 43.5q1 5 5 12q4 7 15 7q11 0 12 -6.5q1 -6.5 0 -12.5z" />
<glyph unicode="&#170;" horiz-adv-x="435" d="M282 482q14 69 -1.5 106q-15.5 37 -55.5 37q-13 0 -27.5 -7.5q-14.5 -7.5 -28 -24.5q-13.5 -17 -25.5 -44.5q-12 -27.5 -20 -66.5q-15 -79 -4.5 -111.5q10.5 -32.5 45.5 -32.5q40 0 71.5 37.5q31.5 37.5 45.5 106.5zt0 0zM322 383q-5 -25 3 -30.5q8 -5.5 14 -5.5q22 0 38.5 26q16.5 26 25.5 71q4 16 17 16q14 0 12 -16q-4 -19 -12 -41q-8 -22 -21.5 -41q-13.5 -19 -32 -31.5q-18.5 -12.5 -43.5 -12.5q-23 0 -43 13q-20 13 -20 41q-20 -29 -47 -44.5q-27 -15.5 -55 -15.5q-60 0 -87.5 46.5q-27.5 46.5 -12.5 123.5q7 38 25.5 69q18.5 31 42.5 53.5q24 22.5 51 35q27 12.5 51 12.5q28 0 46.5 -15q18.5 -15 29.5 -42l9 43q0 3 6 3q6 0 10.5 -1.5q4.5 -1.5 13.5 -1.5q8 0 14 1.5q6 1.5 11 1.5q5 0 5 -3z" />
<glyph unicode="&#171;" horiz-adv-x="540" d="M265 89q9 -12 1 -18q-8 -6 -20 5l-183 159q-15 14 5 28l240 160q7 5 12 4q5 -1 6.5 -5.5q1.5 -4.5 0 -10.5q-1.5 -6 -7.5 -11l-182 -156zM440 117q8 -13 0 -18.5q-8 -5.5 -19 4.5l-146 132q-8 8 -6 15q2 7 11 13l193 132q16 10 20 0q4 -10 -8 -22l-135 -129z" />
<glyph unicode="&#172;" horiz-adv-x="570" d="M442 248q-6 -33 -8.5 -52q-2.5 -19 -3.5 -30q-1 -11 -1.5 -16q-0.5 -5 -0.5 -10q-2 -7 -8.5 -13q-6.5 -6 -17.5 -6q-11 0 -16 6q-5 6 -3 13q0 5 1.5 10q1.5 5 4 16q2.5 11 6.5 30q4 19 10 52l2 6h-211q-33 0 -52 -0.5q-19 -0.5 -30 -1.5q-11 -1 -16 -1.5q-5 -0.5 -10 -0.5q-8 0 -12.5 6q-4.5 6 -2.5 17q2 11 8.5 16.5q6.5 5.5 13.5 5.5q5 0 10 -0.5q5 -0.5 16 -1.5q11 -1 30 -1.5q19 -0.5 52 -0.5h210q26 0 30 -6.5q4 -6.5 0 -30.5z" />
<glyph unicode="&#173;" horiz-adv-x="408" d="M296 272q8 0 13 -6q5 -6 3 -17q-2 -11 -9 -16.5q-7 -5.5 -15 -5.5q-5 0 -9.5 0.5q-4.5 0.5 -14 1.5q-9.5 1 -26.5 1.5q-17 0.5 -48 0.5h-7q-31 0 -48.5 -0.5q-17.5 -0.5 -27.5 -1.5q-10 -1 -14.5 -1.5q-4.5 -0.5 -9.5 -0.5q-8 0 -12.5 5.5q-4.5 5.5 -2.5 16.5q2 11 8.5 17q6.5 6 13.5 6q5 0 10 -0.5q5 -0.5 14.5 -1.5q9.5 -1 27 -1.5q17.5 -0.5 47.5 -0.5h8q30 0 47.5 0.5q17.5 0.5 27.5 1.5q10 1 14.5 1.5t9.5 0.5z" />
<glyph unicode="&#174;" horiz-adv-x="532" d="M325 658q48 0 87 -18q39 -18 64.5 -49.5q25.5 -31.5 36 -73q10.5 -41.5 2.5 -89.5q-8 -48 -33.5 -90q-25.5 -42 -62.5 -73.5q-37 -31.5 -82 -49.5q-45 -18 -93 -18q-48 0 -86.5 18q-38.5 18 -64.5 49.5q-26 31.5 -37 73.5q-11 42 -3 90q8 48 34 89.5q26 41.5 63 73q37 31.5 82 49.5q45 18 93 18zt0 0zM320 628q-42 0 -81.5 -16q-39.5 -16 -71.5 -43q-32 -27 -54.5 -63.5q-22.5 -36.5 -29.5 -77.5q-7 -42 2.5 -78.5q9.5 -36.5 32 -63.5q22.5 -27 56 -43q33.5 -16 75.5 -16q42 0 81 16q39 16 71.5 43q32.5 27 54.5 63.5q22 36.5 29 78.5q7 41 -2 77.5q-9 36.5 -31.5 63.5q-22.5 27 -56 43q-33.5 16 -75.5 16zt0 0zM365 370q-3 -19 -5.5 -24.5q-2.5 -5.5 -4.5 -15.5q-2 -13 7 -13q5 0 6 2.5q1 2.5 2 7.5q1 5 5 8.5q4 3.5 9 3.5q6 0 8.5 -3.5q2.5 -3.5 1.5 -7.5q-3 -15 -15 -22.5q-12 -7.5 -23 -7.5q-23 0 -35 14q-12 14 -4 58q5 29 -0.5 41q-5.5 12 -37.5 12h-21l-17 -95h36q4 0 7.5 -3.5q3.5 -3.5 2.5 -9.5q-1 -6 -6 -9.5q-5 -3.5 -9 -3.5q-2 0 -4.5 0.5q-2.5 0.5 -8 1q-5.5 0.5 -16 1q-10.5 0.5 -28.5 0.5h-3q-18 0 -29 -0.5q-11 -0.5 -17 -1q-6 -0.5 -8.5 -1q-2.5 -0.5 -4.5 -0.5q-5 0 -8 3.5q-3 3.5 -1 9.5q3 13 14 13h36l35 202h-36q-12 0 -9 13q3 13 14 13q2 0 4.5 -0.5q2.5 -0.5 8 -1q5.5 -0.5 15.5 -1q10 -0.5 27 -0.5q9 0 23.5 0.5q14.5 0.5 25.5 0.5q50 0 70 -18q20 -18 15 -43q-3 -17 -21.5 -33.5q-18.5 -16.5 -38.5 -22.5q23 -9 32.5 -27.5q9.5 -18.5 5.5 -39.5zt0 0zM277 532l-15 -86h11q28 0 43.5 10q15.5 10 20.5 36q3 18 -6.5 29q-9.5 11 -39.5 11z" />
<glyph unicode="&#175;" horiz-adv-x="233" d="M129 625l4 22h165l-5 -22z" />
<glyph unicode="&#176;" horiz-adv-x="400" d="M257 658q31 0 56 -12q25 -12 42 -32q17 -20 24 -47.5q7 -27.5 2 -58.5q-6 -31 -22.5 -58q-16.5 -27 -40.5 -47.5q-24 -20.5 -53.5 -32.5q-29.5 -12 -60.5 -12q-31 0 -56 12q-25 12 -42 32.5q-17 20.5 -24 47.5q-7 27 -1 58q5 31 21.5 58.5q16.5 27.5 40.5 47.5q24 20 53.5 32q29.5 12 60.5 12zt0 0zM250 614q-22 0 -42.5 -8.5q-20.5 -8.5 -37.5 -22.5q-17 -14 -28.5 -33.5q-11.5 -19.5 -15.5 -41.5q-8 -44 17 -74.5q25 -30.5 70 -30.5q22 0 42.5 8q20.5 8 37.5 22.5q17 14.5 29 33.5q12 19 16 41q4 22 -1.5 41.5q-5.5 19.5 -17.5 33.5q-12 14 -29.5 22.5t-39.5 8.5z" />
<glyph unicode="&#177;" horiz-adv-x="458" d="M234 37q33 0 52 0.5q19 0.5 30 1.5q11 1 16.5 1.5q5.5 0.5 10.5 0.5q8 0 12.5 -6q4.5 -6 2.5 -17q-2 -11 -9 -16.5q-7 -5.5 -15 -5.5q-5 0 -9.5 0.5q-4.5 0.5 -15 1.5q-10.5 1 -29.5 1.5q-19 0.5 -52 0.5h-107q-33 0 -52 -0.5q-19 -0.5 -30 -1.5q-11 -1 -16 -1.5q-5 -0.5 -10 -0.5q-8 0 -13 5.5q-5 5.5 -3 16.5q2 11 9.5 17q7.5 6 14.5 6q5 0 10 -0.5q5 -0.5 15.5 -1.5q10.5 -1 29.5 -1.5q19 -0.5 52 -0.5zM275 268q33 0 52 0.5q19 0.5 29.5 1.5q10.5 1 16 1.5q5.5 0.5 10.5 0.5q8 0 12.5 -6q4.5 -6 2.5 -17q-2 -11 -8.5 -16.5q-6.5 -5.5 -14.5 -5.5q-5 0 -10 0.5q-5 0.5 -15.5 1.5q-10.5 1 -29.5 1.5q-19 0.5 -52 0.5h-35l-6 -35q-6 -33 -8.5 -52q-2.5 -19 -3.5 -29.5q-1 -10.5 -1 -16q0 -5.5 -1 -10.5q-2 -7 -8.5 -13q-6.5 -6 -17.5 -6q-11 0 -16 6q-5 6 -3 13q1 5 2.5 10.5q1.5 5.5 4 16q2.5 10.5 6 29.5q3.5 19 9.5 52l7 35h-35q-33 0 -52 -0.5q-19 -0.5 -30 -1.5q-11 -1 -16.5 -1.5q-5.5 -0.5 -10.5 -0.5q-7 0 -12 5.5q-5 5.5 -3 16.5q2 11 9 17q7 6 14 6q5 0 10 -0.5q5 -0.5 16 -1.5q11 -1 30 -1.5q19 -0.5 51 -0.5h35l6 35q6 32 8.5 51q2.5 19 4 30q1.5 11 1.5 16q0 5 1 10q2 8 8.5 13.5q6.5 5.5 17.5 5.5q11 0 16 -5.5q5 -5.5 3 -13.5q-1 -5 -2.5 -10q-1.5 -5 -4 -15.5q-2.5 -10.5 -6.5 -29.5q-4 -19 -10 -52l-6 -35z" />
<glyph unicode="&#178;" horiz-adv-x="309" d="M33 289q-13 0 -14.5 9q-1.5 9 9.5 17l149 138q27 26 44 51.5q17 25.5 21 47.5q6 38 -6.5 56.5q-12.5 18.5 -52.5 18.5q-23 0 -40.5 -8q-17.5 -8 -26.5 -19q14 -1 22.5 -11q8.5 -10 5.5 -24q-2 -14 -14.5 -24q-12.5 -10 -26.5 -10q-15 0 -25 11q-10 11 -7 31q3 13 11.5 28q8.5 15 24 27.5q15.5 12.5 37.5 20.5q22 8 52 8q64 0 90.5 -27q26.5 -27 19.5 -69q-5 -23 -28.5 -52q-23.5 -29 -69.5 -68l-108 -93h144q5 8 9 19q4 9 8 20.5q4 11.5 6 23.5q2 13 17 13q14 0 12 -13q-2 -9 -13 -35.5q-11 -26.5 -16 -58.5l-4 -17q0 -7 -5 -11q-5 -4 -10 -4q-7 0 -23 1.5q-16 1.5 -27 1.5l-165 1z" />
<glyph unicode="&#179;" horiz-adv-x="309" d="M148 581q-2 -14 -13 -23.5q-11 -9.5 -24 -9.5q-14 0 -22.5 10.5q-8.5 10.5 -4.5 30.5q5 29 36.5 48.5q31.5 19.5 71.5 19.5q54 0 81.5 -26.5q27.5 -26.5 19.5 -68.5q-4 -24 -24.5 -46q-20.5 -22 -46.5 -33q28 -14 45 -38.5q17 -24.5 11 -59.5q-9 -53 -52.5 -82q-43.5 -29 -102.5 -29q-22 0 -40.5 6.5q-18.5 6.5 -32 17q-13.5 10.5 -20.5 24q-7 13.5 -4 27.5q3 18 14 28.5q11 10.5 27 10.5q13 0 21 -9.5q8 -9.5 5 -23.5q-2 -10 -8.5 -17.5q-6.5 -7.5 -15.5 -11.5q6 -8 20 -17q14 -9 39 -9q38 0 58.5 21q20.5 21 28.5 64q8 44 -11 63.5q-19 19.5 -47 19.5q-30 0 -39 -1.5q-9 -1.5 -14 -1.5q-7 0 -11.5 4.5q-4.5 4.5 -3.5 12.5q2 8 8.5 12.5q6.5 4.5 13.5 4.5q3 0 5 -0.5q2 -0.5 7 -1.5q5 -1 14 -1.5q9 -0.5 25 -0.5q27 0 45.5 19q18.5 19 23.5 48q6 36 -6.5 52q-12.5 16 -45.5 16q-13 0 -28 -6q-15 -6 -20 -12q22 -8 17 -31z" />
<glyph unicode="&#180;" horiz-adv-x="204" d="M298 572q8 -9 4 -21.5q-4 -12.5 -15 -20.5q-6 -5 -17.5 -9.5q-11.5 -4.5 -29 -13q-17.5 -8.5 -40.5 -21.5q-23 -13 -51 -34q-8 -6 -13 1.5q-5 7.5 3 13.5q29 21 48.5 39q19.5 18 33 32.5q13.5 14.5 21.5 24q8 9.5 14 13.5q11 8 23.5 7t18.5 -11z" />
<glyph unicode="&#181;" horiz-adv-x="490" d="M80 -8q-3 -17 -6 -35q-3 -16 -6 -36q-3 -20 -7 -41q-9 -49 -20 -111q18 0 29 0q11 0 17.5 0.5q6.5 0.5 10 0.5q3.5 0 7.5 0q14 0 12 -18q-2 -8 -7.5 -12.5q-5.5 -4.5 -11.5 -4.5q-4 0 -8 1q-4 1 -13 1.5q-9 0.5 -26 1.5q-17 1 -46 1h-2q-29 0 -46.5 -1q-17.5 -1 -27 -1.5q-9.5 -0.5 -14 -1.5q-4.5 -1 -8.5 -1q-5 0 -9 4.5q-4 4.5 -2 12.5q1 8 7 13q6 5 11 5q4 0 7.5 0q3.5 0 10 -0.5q6.5 -0.5 17.5 -0.5q11 0 29 0l105 592q-18 0 -29 -0.5q-11 -0.5 -18 -1q-7 -0.5 -10.5 -1q-3.5 -0.5 -7.5 -0.5q-5 0 -9 5q-4 5 -2 13q1 8 6.5 12.5q5.5 4.5 10.5 4.5q4 0 7.5 0q3.5 0 10 -0.5q6.5 -0.5 17.5 -0.5q11 0 29 0q12 0 27 2q15 2 22 2q5 0 9 -5q4 -5 2 -13l-49 -279q-7 -41 1 -58.5q8 -17.5 35 -17.5q21 0 43.5 16q22.5 16 43 43q20.5 27 36.5 61.5q16 34.5 23 72.5l31 174q2 5 6 5q7 0 11 -1.5q4 -1.5 14 -1.5q9 0 14.5 1.5q5.5 1.5 10.5 1.5q6 0 6 -5l-56 -318q-3 -16 -1.5 -25q1.5 -9 5 -13.5q3.5 -4.5 8 -5.5q4.5 -1 8.5 -1q23 0 41.5 32.5q18.5 32.5 28.5 89.5q3 19 20 19q15 0 12 -19q-5 -24 -13.5 -51.5q-8.5 -27.5 -23 -51q-14.5 -23.5 -35.5 -39q-21 -15.5 -49 -15.5q-14 0 -27 5q-13 5 -22.5 15q-9.5 10 -13.5 25q-4 15 0 36l4 25q-10 -20 -25.5 -40q-15.5 -20 -34 -36q-18.5 -16 -39.5 -26.5q-21 -10.5 -42 -10.5q-24 0 -39 7z" />
<glyph unicode="&#182;" horiz-adv-x="513" d="M95 -228q37 14 68 45.5q31 31.5 57.5 85q26.5 53.5 48.5 131.5q22 78 41 184l69 393h-66l-78 -440q-28 -160 -59 -259q-31 -99 -81 -140zt0 0zM222 303q-32 4 -57 18.5q-25 14.5 -41.5 37q-16.5 22.5 -23 51.5q-6.5 29 -0.5 62q6 35 25 66q19 31 46.5 54q27.5 23 60.5 36.5q33 13.5 68 13.5h145q8 0 17.5 0.5q9.5 0.5 23.5 0.5q5 0 9.5 -4.5q4.5 -4.5 2.5 -12.5q-2 -8 -7 -13q-5 -5 -11 -5q-4 0 -7.5 0.5q-3.5 0.5 -10 1q-6.5 0.5 -17.5 1q-11 0.5 -29 0.5l-67 -378q-22 -126 -52 -220q-30 -94 -70 -156q-40 -62 -91.5 -93q-51.5 -31 -117.5 -31q-38 0 -58 21q-20 21 -15 49q5 24 20.5 38q15.5 14 35.5 14q8 0 16 -3q8 -3 14 -9q6 -6 8.5 -15q2.5 -9 0.5 -20q-2 -13 -10.5 -24.5q-8.5 -11.5 -23.5 -17.5q6 -5 19 -5q22 0 43.5 16q21.5 16 42.5 60q21 44 42.5 120.5q21.5 76.5 42.5 198.5z" />
<glyph unicode="&#183;" horiz-adv-x="332" d="M193 250q0 -20 -14 -34q-14 -14 -34 -14q-20 0 -33.5 14q-13.5 14 -13.5 34q0 20 13.5 34q13.5 14 33.5 14q20 0 34 -14t14 -34z" />
<glyph unicode="&#184;" horiz-adv-x="197" d="M163 -52q-4 -21 -19 -36.5q-15 -15.5 -36 -26.5q-21 -11 -45.5 -18q-24.5 -7 -47.5 -11q-10 -2 -11.5 5.5q-1.5 7.5 14.5 11.5q15 4 30 11q15 7 27.5 16.5q12.5 9.5 21.5 21.5q9 12 11 26q2 11 -4 18.5q-6 7.5 -16 11.5q-10 4 -23.5 4.5q-13.5 0.5 -26.5 -1.5q-5 -2 -8 4q-3 6 8 16l83 71h33l-61 -54q15 0 29 -4q14 -4 24.5 -12.5q10.5 -8.5 15 -22t1.5 -31.5z" />
<glyph unicode="&#185;" horiz-adv-x="301" d="M112 289l57 325q-32 0 -47.5 -1q-15.5 -1 -22.5 -1q-5 0 -8 4q-3 4 -2 12q3 15 16 15q7 0 22 -0.5q15 -0.5 47 -0.5q11 0 27.5 1.5q16.5 1.5 22.5 1.5q5 0 9 -4q4 -4 2 -11q0 -3 -3 -19q-3 -16 -7.5 -40.5q-4.5 -24.5 -9.5 -55q-5 -30.5 -11 -61.5q-13 -73 -29 -165z" />
<glyph unicode="&#186;" horiz-adv-x="375" d="M290 482q17 80 4.5 112q-12.5 32 -57.5 32q-45 0 -71 -32.5q-26 -32.5 -42 -111.5q-16 -80 -3 -112q13 -32 58 -32q22 0 39.5 7.5q17.5 7.5 30.5 24.5q13 17 23 44.5q10 27.5 18 67.5zt0 0zM358 482q-8 -38 -26 -69.5q-18 -31.5 -43 -54q-25 -22.5 -55 -34.5q-30 -12 -61 -12q-30 0 -55 12q-25 12 -40.5 34.5q-15.5 22.5 -21.5 54q-6 31.5 2 69.5q7 38 25 69q18 31 43 53.5q25 22.5 54.5 35q29.5 12.5 60.5 12.5q31 0 56 -12.5q25 -12.5 41 -35q16 -22.5 21.5 -53.5t-1.5 -69z" />
<glyph unicode="&#187;" horiz-adv-x="540" d="M371 254l-128 156q-8 11 -0.5 17.5q7.5 6.5 19.5 -4.5l182 -160q17 -14 -5 -28l-239 -159q-15 -10 -20 0.5q-5 10.5 9 22.5zM158 254l-89 129q-8 13 -1 18q7 5 19 -6l145 -132q16 -14 -5 -28l-192 -132q-8 -5 -13 -4.5q-5 0.5 -6.5 5q-1.5 4.5 0.5 11q2 6.5 8 12.5z" />
<glyph unicode="&#188;" horiz-adv-x="774" d="M608 277l-128 -144h103zM559 0l19 105h-134q-11 0 -12.5 6q-1.5 6 6.5 14l207 233q7 8 11 10.5q4 2.5 12 2.5q5 0 9 -4.5q4 -4.5 2 -17.5l-38 -216q17 0 27 0.5q10 0.5 16 1.5q6 1 9 1.5q3 0.5 5 0.5q8 0 12.5 -4.5q4.5 -4.5 2.5 -12.5q-2 -9 -7.5 -13q-5.5 -4 -12.5 -4q-3 0 -5.5 0.5q-2.5 0.5 -8.5 0.5q-6 0 -16 0.5q-10 0.5 -27 0.5l-18 -105zM128 289l58 325q-32 0 -47.5 -1q-15.5 -1 -22.5 -1q-13 0 -10 16q3 15 16 15q7 0 22 -0.5q15 -0.5 47 -0.5q11 0 27.5 1.5q16.5 1.5 22.5 1.5q13 0 11 -15q-1 -3 -3.5 -19q-2.5 -16 -7 -40.5q-4.5 -24.5 -9.5 -55q-5 -30.5 -11 -61.5q-13 -73 -29 -165zM582 627q-7 -10 -27 -39.5q-20 -29.5 -55 -88.5l-241 -401q-24 -41 -37.5 -66.5q-13.5 -25.5 -18.5 -34.5q-4 -7 -12.5 -10.5q-8.5 -3.5 -17.5 1.5q-9 4 -11 12q-2 8 2 15q6 9 23 33q17 24 41 64l240 401q35 58 52.5 90.5q17.5 32.5 22.5 40.5q4 7 12 10.5q8 3.5 18 -1.5q8 -4 10.5 -11.5t-1.5 -14.5z" />
<glyph unicode="&#189;" horiz-adv-x="783" d="M128 289l58 325q-32 0 -47.5 -1q-15.5 -1 -22.5 -1q-13 0 -10 16q3 15 16 15q7 0 22 -0.5q15 -0.5 47 -0.5q11 0 27.5 1.5q16.5 1.5 22.5 1.5q13 0 11 -15q-1 -3 -3.5 -19q-2.5 -16 -7 -40.5q-4.5 -24.5 -9.5 -55q-5 -30.5 -11 -61.5q-13 -73 -29 -165zM443 0q-13 0 -14.5 9q-1.5 9 8.5 17l150 138q27 26 44 51.5q17 25.5 21 47.5q6 38 -7 56.5q-13 18.5 -52 18.5q-23 0 -40.5 -8q-17.5 -8 -26.5 -19q14 -1 22 -11q8 -10 5 -24q-2 -14 -14 -24q-12 -10 -26 -10q-15 0 -25.5 11q-10.5 11 -6.5 31q2 13 11 27.5q9 14.5 24.5 27q15.5 12.5 37.5 21q22 8.5 52 8.5q64 0 90.5 -27q26.5 -27 18.5 -69q-4 -23 -27.5 -52.5q-23.5 -29.5 -69.5 -67.5l-109 -94h144q6 9 10 20q4 9 8 20.5q4 11.5 6 23.5q1 5 5 9q4 4 12 4q7 0 10 -4q3 -4 2 -9q-2 -9 -13 -35.5q-11 -26.5 -16 -58.5l-4 -17q-1 -7 -5.5 -11q-4.5 -4 -9.5 -4q-7 0 -23 1.5q-16 1.5 -27 1.5zM582 627q-7 -10 -27 -39.5q-20 -29.5 -55 -88.5l-241 -401q-24 -41 -37.5 -66.5q-13.5 -25.5 -18.5 -34.5q-4 -7 -12.5 -10.5q-8.5 -3.5 -17.5 1.5q-9 4 -11 12q-2 8 2 15q6 9 23 33q17 24 41 64l240 401q35 58 52.5 90.5q17.5 32.5 22.5 40.5q4 7 12 10.5q8 3.5 18 -1.5q8 -4 10.5 -11.5t-1.5 -14.5z" />
<glyph unicode="&#190;" horiz-adv-x="783" d="M161 581q-2 -14 -13.5 -23.5q-11.5 -9.5 -24.5 -9.5q-14 0 -22 10.5q-8 10.5 -4 30.5q2 14 12 26.5q10 12.5 24.5 21.5q14.5 9 32.5 14.5q18 5.5 38 5.5q55 0 82.5 -26.5q27.5 -26.5 19.5 -68.5q-5 -24 -25.5 -46q-20.5 -22 -46.5 -33q29 -14 45.5 -38.5q16.5 -24.5 10.5 -59.5q-9 -53 -52.5 -82q-43.5 -29 -101.5 -29q-22 0 -41 6.5q-19 6.5 -32.5 17q-13.5 10.5 -20 24q-6.5 13.5 -4.5 27.5q4 18 14.5 28.5q10.5 10.5 26.5 10.5q14 0 21.5 -9.5q7.5 -9.5 5.5 -23.5q-2 -10 -9 -17.5q-7 -7.5 -15 -11.5q5 -8 19.5 -17q14.5 -9 38.5 -9q73 0 88 85q4 22 0.5 37.5q-3.5 15.5 -12 25.5q-8.5 10 -21 15q-12.5 5 -26.5 5q-30 0 -39 -1.5q-9 -1.5 -13 -1.5q-7 0 -12 4.5q-5 4.5 -3 12.5q1 8 7.5 12.5q6.5 4.5 13.5 4.5q3 0 5.5 -0.5q2.5 -0.5 7.5 -1.5q5 -1 14 -1.5q9 -0.5 24 -0.5q28 0 46 19q18 19 23 48q7 36 -6 52q-13 16 -45 16q-14 0 -28.5 -6q-14.5 -6 -20.5 -12q21 -8 18 -31zt0 0zM615 627q-6 -10 -26.5 -39.5q-20.5 -29.5 -55.5 -88.5l-240 -401q-25 -41 -38.5 -66.5q-13.5 -25.5 -18.5 -34.5q-4 -7 -12.5 -10.5q-8.5 -3.5 -16.5 1.5q-10 4 -11.5 12q-1.5 8 2.5 15q5 9 22 33q17 24 41 64l241 401q35 58 52 90.5q17 32.5 22 40.5q5 7 12.5 10.5q7.5 3.5 17.5 -1.5q9 -4 11 -11.5q2 -7.5 -2 -14.5zt0 0zM617 277l-129 -144h103zM568 0l18 105h-133q-11 0 -12.5 6q-1.5 6 5.5 14l207 233q8 8 12 10.5q4 2.5 11 2.5q5 0 9.5 -4.5q4.5 -4.5 2.5 -17.5l-39 -216q17 0 27 0.5q10 0.5 16 1.5q6 1 9 1.5q3 0.5 6 0.5q7 0 11.5 -4.5q4.5 -4.5 2.5 -12.5q-2 -9 -7.5 -13q-5.5 -4 -12.5 -4q-3 0 -5.5 0.5q-2.5 0.5 -8.5 0.5q-6 0 -16 0.5q-10 0.5 -27 0.5l-18 -105z" />
<glyph unicode="&#191;" horiz-adv-x="415" d="M290 353q-4 -20 -20 -34q-16 -14 -36 -14q-20 0 -31.5 14q-11.5 14 -7.5 34q3 20 19.5 33q16.5 13 36.5 13q19 0 30.5 -13q11.5 -13 8.5 -33zt0 0zM292 -146q-4 -23 -19.5 -45q-15.5 -22 -38.5 -39q-23 -17 -51 -27q-28 -10 -57 -10q-39 0 -68 12q-29 12 -47 32.5q-18 20.5 -24.5 46.5q-6.5 26 -1.5 54q7 39 24 68q17 29 39.5 51.5q22.5 22.5 47 41q24.5 18.5 46 37q21.5 18.5 37.5 39.5q16 21 21 48q1 8 2.5 20.5q1.5 12.5 3.5 22.5q1 7 5.5 10q4.5 3 9 3q4.5 0 8 -3q3.5 -3 2.5 -10q-1 -6 -3 -18q-2 -12 -4 -25q-2 -13 -4 -24.5q-2 -11.5 -3 -16.5q-6 -36 -19.5 -60q-13.5 -24 -30.5 -42q-17 -18 -35.5 -32.5q-18.5 -14.5 -35 -32q-16.5 -17.5 -29.5 -40q-13 -22.5 -19 -56.5q-3 -14 -0.5 -30.5q2.5 -16.5 12 -30.5q9.5 -14 27 -23.5q17.5 -9.5 44.5 -9.5q46 0 77 22q31 22 40 51q-14 0 -27 10q-13 10 -10 30q4 16 17 27q13 11 29 11q23 0 31 -19.5t4 -42.5z" />
<glyph unicode="&#192;" horiz-adv-x="517" d="M18 31q17 0 27.5 0q10.5 0 17 0.5q6.5 0.5 10 0.5q3.5 0 7.5 0q6 0 10 -5q4 -5 2 -13q-2 -8 -7 -12.5q-5 -4.5 -11 -4.5q-3 0 -7 0.5q-4 0.5 -12 1.5q-8 1 -23 2q-15 1 -40 1q-26 0 -41 -1q-15 -1 -23.5 -2q-8.5 -1 -12.5 -1.5q-4 -0.5 -7 -0.5q-5 0 -9.5 4.5q-4.5 4.5 -2.5 12.5q2 8 7.5 13q5.5 5 10.5 5q7 0 17.5 -0.5q10.5 -0.5 45.5 -0.5l384 616q3 5 9 9q6 4 14 4q15 0 15 -19v-610q18 0 29 0q11 0 17.5 0.5q6.5 0.5 10 0.5q3.5 0 7.5 0q6 0 10 -5q4 -5 2 -13q-2 -8 -7 -12.5q-5 -4.5 -10 -4.5q-4 0 -8 1q-4 1 -13.5 1.5q-9.5 0.5 -27 1.5q-17.5 1 -48.5 1h-4q-31 0 -49 -1q-18 -1 -27.5 -1.5q-9.5 -0.5 -14 -1.5q-4.5 -1 -8.5 -1q-5 0 -9.5 4.5q-4.5 4.5 -2.5 12.5q2 8 7.5 13q5.5 5 10.5 5q4 0 7.5 0q3.5 0 10 -0.5q6.5 -0.5 17.5 -0.5q11 0 29 0l0 171h-204zM328 529l-181 -291h181zM288 781q-8 8 -7 20.5q1 12.5 10 21.5q10 10 23.5 11q13.5 1 21.5 -7q4 -4 8.5 -13.5q4.5 -9.5 13 -24q8.5 -14.5 22 -32.5q13.5 -18 34.5 -39q3 -3 2 -7q-1 -4 -4 -6.5q-3 -2.5 -6.5 -3.5q-3.5 -1 -6.5 2q-21 21 -39.5 34q-18.5 13 -32.5 21.5q-14 8.5 -24.5 13t-14.5 9.5z" />
<glyph unicode="&#193;" horiz-adv-x="517" d="M18 31q17 0 27.5 0q10.5 0 17 0.5q6.5 0.5 10 0.5q3.5 0 7.5 0q6 0 10 -5q4 -5 2 -13q-2 -8 -7 -12.5q-5 -4.5 -11 -4.5q-3 0 -7 0.5q-4 0.5 -12 1.5q-8 1 -23 2q-15 1 -40 1q-26 0 -41 -1q-15 -1 -23.5 -2q-8.5 -1 -12.5 -1.5q-4 -0.5 -7 -0.5q-5 0 -9.5 4.5q-4.5 4.5 -2.5 12.5q2 8 7.5 13q5.5 5 10.5 5q7 0 17.5 -0.5q10.5 -0.5 45.5 -0.5l384 616q3 5 9 9q6 4 14 4q15 0 15 -19v-610q18 0 29 0q11 0 17.5 0.5q6.5 0.5 10 0.5q3.5 0 7.5 0q6 0 10 -5q4 -5 2 -13q-2 -8 -7 -12.5q-5 -4.5 -10 -4.5q-4 0 -8 1q-4 1 -13.5 1.5q-9.5 0.5 -27 1.5q-17.5 1 -48.5 1h-4q-31 0 -49 -1q-18 -1 -27.5 -1.5q-9.5 -0.5 -14 -1.5q-4.5 -1 -8.5 -1q-5 0 -9.5 4.5q-4.5 4.5 -2.5 12.5q2 8 7.5 13q5.5 5 10.5 5q4 0 7.5 0q3.5 0 10 -0.5q6.5 -0.5 17.5 -0.5q11 0 29 0l0 171h-204zM328 529l-181 -291h181zM513 822q7 -10 3 -22.5q-4 -12.5 -15 -20.5q-6 -4 -17.5 -8.5q-11.5 -4.5 -29 -13q-17.5 -8.5 -40 -21.5q-22.5 -13 -50.5 -34q-9 -7 -14 0.5q-5 7.5 4 14.5q57 42 81 71q24 29 35 37q11 9 23.5 7.5t19.5 -10.5z" />
<glyph unicode="&#194;" horiz-adv-x="517" d="M18 31q17 0 27.5 0q10.5 0 17 0.5q6.5 0.5 10 0.5q3.5 0 7.5 0q6 0 10 -5q4 -5 2 -13q-2 -8 -7 -12.5q-5 -4.5 -11 -4.5q-3 0 -7 0.5q-4 0.5 -12 1.5q-8 1 -23 2q-15 1 -40 1q-26 0 -41 -1q-15 -1 -23.5 -2q-8.5 -1 -12.5 -1.5q-4 -0.5 -7 -0.5q-5 0 -9.5 4.5q-4.5 4.5 -2.5 12.5q2 8 7.5 13q5.5 5 10.5 5q7 0 17.5 -0.5q10.5 -0.5 45.5 -0.5l384 616q3 5 9 9q6 4 14 4q15 0 15 -19v-610q18 0 29 0q11 0 17.5 0.5q6.5 0.5 10 0.5q3.5 0 7.5 0q6 0 10 -5q4 -5 2 -13q-2 -8 -7 -12.5q-5 -4.5 -10 -4.5q-4 0 -8 1q-4 1 -13.5 1.5q-9.5 0.5 -27 1.5q-17.5 1 -48.5 1h-4q-31 0 -49 -1q-18 -1 -27.5 -1.5q-9.5 -0.5 -14 -1.5q-4.5 -1 -8.5 -1q-5 0 -9.5 4.5q-4.5 4.5 -2.5 12.5q2 8 7.5 13q5.5 5 10.5 5q4 0 7.5 0q3.5 0 10 -0.5q6.5 -0.5 17.5 -0.5q11 0 29 0l0 171h-204zM328 529l-181 -291h181zM498 713q4 -4 -2.5 -9q-6.5 -5 -10.5 -2l-85 61l-108 -61q-7 -4 -10.5 1q-3.5 5 2.5 10l110 100q10 9 16 9q6 0 14 -9l74 -100z" />
<glyph unicode="&#195;" horiz-adv-x="517" d="M18 31q17 0 27.5 0q10.5 0 17 0.5q6.5 0.5 10 0.5q3.5 0 7.5 0q6 0 10 -5q4 -5 2 -13q-2 -8 -7 -12.5q-5 -4.5 -11 -4.5q-3 0 -7 0.5q-4 0.5 -12 1.5q-8 1 -23 2q-15 1 -40 1q-26 0 -41 -1q-15 -1 -23.5 -2q-8.5 -1 -12.5 -1.5q-4 -0.5 -7 -0.5q-5 0 -9.5 4.5q-4.5 4.5 -2.5 12.5q2 8 7.5 13q5.5 5 10.5 5q7 0 17.5 -0.5q10.5 -0.5 45.5 -0.5l384 616q3 5 9 9q6 4 14 4q15 0 15 -19v-610q18 0 29 0q11 0 17.5 0.5q6.5 0.5 10 0.5q3.5 0 7.5 0q6 0 10 -5q4 -5 2 -13q-2 -8 -7 -12.5q-5 -4.5 -10 -4.5q-4 0 -8 1q-4 1 -13.5 1.5q-9.5 0.5 -27 1.5q-17.5 1 -48.5 1h-4q-31 0 -49 -1q-18 -1 -27.5 -1.5q-9.5 -0.5 -14 -1.5q-4.5 -1 -8.5 -1q-5 0 -9.5 4.5q-4.5 4.5 -2.5 12.5q2 8 7.5 13q5.5 5 10.5 5q4 0 7.5 0q3.5 0 10 -0.5q6.5 -0.5 17.5 -0.5q11 0 29 0l0 171h-204zM328 529l-181 -291h181zM444 746q15 0 28 12.5q13 12.5 18 29.5q2 8 9 7.5q7 -0.5 5 -7.5q-8 -42 -28.5 -65.5q-20.5 -23.5 -48.5 -23.5q-12 0 -24.5 7.5q-12.5 7.5 -24.5 17q-12 9.5 -23.5 17q-11.5 7.5 -21.5 7.5q-12 0 -25.5 -12q-13.5 -12 -19.5 -28q-3 -5 -9.5 -6.5q-6.5 -1.5 -5.5 6.5q8 38 29 62.5q21 24.5 45 24.5q13 0 25.5 -7.5q12.5 -7.5 24.5 -17q12 -9.5 23.5 -17t23.5 -7.5z" />
</font>
</defs>
</svg>
