<?xml version="1.0" standalone="no"?>
<!DOCTYPE svg PUBLIC "-//W3C//DTD SVG 1.1//EN" "http://www.w3.org/Graphics/SVG/1.1/DTD/svg11.dtd" >
<svg xmlns="http://www.w3.org/2000/svg">
<metadata></metadata>
<defs>
<font id="circe_thinthin" horiz-adv-x="1318" >
<font-face units-per-em="2048" ascent="1583" descent="-465" />
<missing-glyph horiz-adv-x="512" />
<glyph unicode="&#xfb01;" horiz-adv-x="972" d="M0 901v21h213v149q0 188 86.5 283.5t243.5 95.5q132 0 225 -72l-12 -18q-95 70 -213 70q-310 0 -310 -377v-131h531v-922h-21v901h-510v-901h-20v901h-213z" />
<glyph unicode="&#xfb02;" horiz-adv-x="1101" d="M0 901v21h213v149q0 379 309 379q133 0 226 -72h4v-1120q0 -127 37.5 -185.5t128.5 -58.5q86 0 151 49l12 -18q-70 -51 -163 -51q-99 0 -143 57t-44 176v1135q-92 68 -209 68q-147 0 -218 -90.5t-71 -286.5v-131h297v-21h-297v-901h-20v901h-213z" />
<glyph horiz-adv-x="2048" />
<glyph horiz-adv-x="2048" />
<glyph unicode="&#xd;" horiz-adv-x="2048" />
<glyph unicode=" "  horiz-adv-x="512" />
<glyph unicode="&#x09;" horiz-adv-x="512" />
<glyph unicode="&#xa0;" horiz-adv-x="512" />
<glyph unicode="!" horiz-adv-x="634" d="M291 27q0 9 8 16.5t18 7.5q9 0 17 -7.5t8 -16.5q0 -10 -8 -18.5t-17 -8.5q-10 0 -18 8t-8 19zM307 328v1106h21v-1106h-21z" />
<glyph unicode="&#x22;" horiz-adv-x="778" d="M246 1055v379h20v-379h-20zM512 1055v379h20v-379h-20z" />
<glyph unicode="#" horiz-adv-x="1359" d="M82 461v20h231l176 471h-407v21h416l178 477l18 -6l-174 -471h510l178 477l19 -6l-174 -471h225v-21h-234l-174 -471h408v-20h-416l-176 -477l-20 8l174 469h-510l-176 -477l-21 8l174 469h-225zM338 481h508l176 471h-510z" />
<glyph unicode="$" horiz-adv-x="1196" d="M168 180l16 15q62 -86 176 -138.5t224 -52.5q111 0 206 36.5t157.5 115t62.5 186.5q0 98 -44.5 169t-115 112t-156 73t-171.5 64t-156.5 73t-115 112t-44.5 169q0 147 104.5 241t290.5 95v168h21v-168q107 -3 204 -41.5t152 -99.5l-14 -15q-64 67 -159 101.5t-204 34.5 q-171 0 -273 -86.5t-102 -227.5q0 -76 27.5 -134t74 -96t106.5 -67.5t126.5 -52.5t133.5 -46.5t127 -55.5t106.5 -73t74 -104.5t27.5 -144.5q0 -154 -115 -250.5t-292 -105.5v-191h-21v189h-14q-123 0 -244.5 54.5t-175.5 141.5z" />
<glyph unicode="%" horiz-adv-x="1656" d="M123 1122q0 134 91.5 223t225.5 89t226 -89t92 -223t-91.5 -222.5t-226.5 -88.5q-134 0 -225.5 88.5t-91.5 222.5zM143 1122q0 -126 90 -208.5t207 -82.5q121 0 209 82t88 209t-88.5 209t-208.5 82t-208.5 -82t-88.5 -209zM285 -2l1087 1452l17 -10l-1088 -1456zM899 311 q0 134 92 223t226 89t225.5 -89t91.5 -223t-91.5 -222.5t-225.5 -88.5q-135 0 -226.5 88.5t-91.5 222.5zM920 311q0 -126 90 -208.5t207 -82.5q121 0 208.5 82t87.5 209t-88 209t-208 82t-208.5 -82t-88.5 -209z" />
<glyph unicode="&#x26;" horiz-adv-x="1378" d="M205 465q0 157 92.5 282.5t237.5 165.5v7q-82 25 -129.5 95t-47.5 165q0 116 82.5 193t210.5 77q112 0 184 -57.5t99 -145.5l-16 -6q-14 35 -30 62t-46.5 59t-81.5 50t-117 18q-112 0 -188 -71.5t-76 -182.5q0 -60 23.5 -110t60 -80.5t78 -47t80.5 -16.5h593v-21h-190 v-799q-60 -50 -151.5 -84t-186.5 -34q-99 0 -187 35t-153 97.5t-103 153t-38 195.5zM225 465q0 -198 133 -329.5t347 -131.5q71 0 158.5 33t140.5 78v786h-398q-99 0 -187.5 -62.5t-141 -163.5t-52.5 -210z" />
<glyph unicode="'" horiz-adv-x="512" d="M246 1055v379h20v-379h-20z" />
<glyph unicode="(" horiz-adv-x="512" d="M82 461q0 242 96.5 461t319.5 421l14 -12q-221 -202 -315.5 -416t-94.5 -454q0 -241 98.5 -464.5t311.5 -406.5l-16 -12q-414 357 -414 883z" />
<glyph unicode=")" horiz-adv-x="512" d="M0 -410q213 183 311.5 406.5t98.5 464.5q0 240 -94.5 454t-315.5 416l14 12q223 -202 319.5 -421t96.5 -461q0 -526 -414 -883z" />
<glyph unicode="*" horiz-adv-x="884" d="M209 1081q0 11 8.5 19t18.5 8t17 -8t7 -19t-7 -17.5t-17 -6.5q-11 0 -19 7t-8 17zM209 1305q0 10 8 18t19 8q10 0 17 -7.5t7 -18.5t-7 -19t-17 -8t-18.5 8t-8.5 19zM420 946q0 11 8 19t18 8t17.5 -8t7.5 -19q0 -10 -7 -17t-18 -7t-18.5 7t-7.5 17zM422 1423q0 11 8 19 t19 8q10 0 18 -8t8 -19q0 -10 -7.5 -17t-18.5 -7t-19 7t-8 17zM625 1081q0 11 7 19t17 8q11 0 19 -8t8 -19q0 -10 -8 -17t-19 -7t-17.5 6.5t-6.5 17.5zM625 1305q0 11 7 18.5t17 7.5q11 0 19 -8t8 -18q0 -11 -8 -19t-19 -8q-10 0 -17 8t-7 19z" />
<glyph unicode="+" horiz-adv-x="1196" d="M154 727v21h432v432h20v-432h436v-21h-436v-436h-20v436h-432z" />
<glyph unicode="," horiz-adv-x="339" d="M92 -287q54 14 100 68t46 127q0 88 -48 115q-3 -23 -24 -23q-10 0 -17.5 8t-7.5 17q0 11 10 18.5t23 7.5q31 0 57.5 -37.5t26.5 -101.5q0 -82 -48 -140.5t-112 -74.5z" />
<glyph unicode="-" horiz-adv-x="847" d="M205 543v20h438v-20h-438z" />
<glyph unicode="." horiz-adv-x="296" d="M123 27q0 9 8.5 16.5t18.5 7.5q9 0 16.5 -7.5t7.5 -16.5q0 -10 -7.5 -18.5t-16.5 -8.5q-10 0 -18.5 8t-8.5 19z" />
<glyph unicode="/" horiz-adv-x="591" d="M-61 -418l696 1868l18 -6l-694 -1870z" />
<glyph unicode="0" horiz-adv-x="1269" d="M123 512q0 139 61 258.5t180 194.5t271 75t271 -75t180 -194.5t61 -258.5t-61 -258.5t-180 -194.5t-271 -75t-271 75t-180 194.5t-61 258.5zM143 512q0 -100 34.5 -191.5t96.5 -162t156 -112.5t205 -42q147 0 261 72t172 186.5t58 249.5t-58 249.5t-172 186.5t-261 72 q-111 0 -205 -42t-156 -112.5t-96.5 -162t-34.5 -191.5z" />
<glyph unicode="1" horiz-adv-x="634" d="M307 0v1434q9 6 12 16h9v-1450h-21z" />
<glyph unicode="2" horiz-adv-x="1136" d="M143 1055q0 172 115 283.5t295 111.5q181 0 296.5 -111.5t115.5 -283.5q0 -103 -42 -215t-112 -215.5t-169.5 -212t-206 -203t-230.5 -189.5h788v-20h-823v20q86 65 156 122t161 141t161 163t137.5 177t109.5 194q-51 -72 -140 -112.5t-198 -40.5t-201.5 43t-152.5 134 t-60 214zM164 1055q0 -161 111.5 -266t277.5 -105q227 0 352 166q39 98 39 205q0 165 -110 270t-281 105q-172 0 -280.5 -104.5t-108.5 -270.5z" />
<glyph unicode="3" horiz-adv-x="1015" d="M82 225l18 8q59 -114 164 -171.5t219 -57.5q164 0 276.5 116t112.5 290q0 170 -119.5 275.5t-314.5 105.5h-20l420 622h-699v21h738v-4l-424 -621q200 -3 320 -110.5t120 -288.5q0 -188 -122 -307t-288 -119q-126 0 -232 58.5t-169 182.5z" />
<glyph unicode="4" horiz-adv-x="1064" d="M61 0v4l676 1020h25l-666 -1004h637v492h21v-492h229v-20h-229v-410h-21v410h-672z" />
<glyph unicode="5" horiz-adv-x="1015" d="M82 225l18 8q59 -114 164 -171.5t219 -57.5q164 0 276.5 121.5t112.5 304.5q0 174 -122 287.5t-316 113.5q-81 0 -184 -36v639h592v-21h-572v-592q86 31 164 31q206 0 332.5 -116.5t126.5 -305.5q0 -100 -34 -185t-91 -141.5t-131 -88t-154 -31.5q-126 0 -232 58.5 t-169 182.5z" />
<glyph unicode="6" horiz-adv-x="1114" d="M123 508q0 153 40 293.5t107 248t154.5 192.5t184 137t194.5 71l10 -16q-91 -19 -179.5 -63.5t-171.5 -119.5t-149 -172t-111.5 -228t-58.5 -280q43 128 155 214.5t269 86.5q196 0 310 -123t114 -321q0 -182 -120.5 -313t-280.5 -131q-93 0 -170.5 28t-132 77t-92 115.5 t-55 143t-17.5 160.5zM143 510q0 -98 27.5 -187t80.5 -161t139.5 -115t195.5 -43q155 0 270 124.5t115 297.5q0 119 -44.5 214t-138 153.5t-223.5 58.5q-89 0 -165.5 -32t-127.5 -83.5t-84 -109.5t-45 -117z" />
<glyph unicode="7" horiz-adv-x="942" d="M82 1413v21h778l-571 -1434h-25l565 1413h-747z" />
<glyph unicode="8" horiz-adv-x="1198" d="M164 371q0 128 87 231.5t234 130.5v6q-113 27 -189.5 129.5t-76.5 210.5q0 165 110 268t269 103q160 0 270.5 -103t110.5 -268q0 -109 -72 -205t-194 -133v-6q142 -13 231.5 -115.5t89.5 -248.5q0 -88 -37 -162.5t-98.5 -123t-139 -75t-159.5 -26.5t-159.5 26.5 t-139.5 75t-99.5 123t-37.5 162.5zM184 371q0 -79 35 -148.5t92.5 -117t132 -74.5t154.5 -27q108 0 202 43t154 128.5t60 195.5q0 81 -30.5 149t-83 113t-121 69.5t-144.5 24.5h-66q-158 0 -271.5 -104t-113.5 -252zM240 1085q0 -95 50 -174.5t122.5 -121t146.5 -41.5h80 q74 0 146.5 41.5t122.5 121t50 174.5q0 106 -54.5 186.5t-135.5 119.5t-172 39q-90 0 -170 -39t-133 -119.5t-53 -186.5z" />
<glyph unicode="9" horiz-adv-x="1114" d="M123 606q0 90 36.5 171.5t95.5 138.5t135.5 90.5t154.5 33.5q93 0 168.5 -28t126.5 -76.5t85.5 -116t50 -143t15.5 -160.5q0 -193 -51.5 -360t-142 -287t-215.5 -196.5t-271 -98.5l-10 16q138 23 256 92.5t207 178t143.5 260.5t63.5 332q-42 -124 -153 -202.5t-271 -78.5 q-129 0 -227 60.5t-147.5 158.5t-49.5 215zM143 608q0 -80 26.5 -154t75.5 -132.5t128 -93.5t176 -35q89 0 165.5 28.5t127.5 76t84 103t45 113.5q0 78 -14.5 150t-47.5 137.5t-81 113.5t-119.5 76.5t-159.5 28.5q-102 0 -195.5 -53.5t-152 -149.5t-58.5 -209z" />
<glyph unicode=":" horiz-adv-x="665" d="M307 27q0 9 8.5 16.5t18.5 7.5q9 0 16.5 -7.5t7.5 -16.5q0 -10 -7.5 -18.5t-16.5 -8.5q-10 0 -18.5 8t-8.5 19zM307 913q0 9 8.5 17t18.5 8q9 0 16.5 -8t7.5 -17q0 -10 -7.5 -18t-16.5 -8q-11 0 -19 8t-8 18z" />
<glyph unicode=";" horiz-adv-x="667" d="M256 -287q54 14 99.5 67.5t45.5 127.5q0 89 -47 115q-3 -23 -24 -23q-10 0 -17.5 8t-7.5 17q0 11 10 18.5t23 7.5q31 0 57.5 -37.5t26.5 -101.5q0 -82 -48 -140.5t-112 -74.5zM307 913q0 9 8.5 17t18.5 8q9 0 16.5 -8t7.5 -17q0 -10 -7.5 -18t-16.5 -8q-11 0 -19 8t-8 18 z" />
<glyph unicode="&#x3c;" horiz-adv-x="1196" d="M154 737v8l796 521v-25l-766 -500l766 -503v-25z" />
<glyph unicode="=" horiz-adv-x="1196" d="M154 563v21h888v-21h-888zM154 891v20h888v-20h-888z" />
<glyph unicode="&#x3e;" horiz-adv-x="1196" d="M246 213v25l766 503l-766 500v25l796 -521v-8z" />
<glyph unicode="?" horiz-adv-x="923" d="M82 1247q56 91 159 147t220 56q177 0 279 -98.5t102 -243.5q0 -77 -24.5 -139t-63.5 -103.5t-86.5 -77t-94.5 -68.5t-86 -68.5t-63.5 -87t-24.5 -115.5q0 -31 11 -91l-19 -6q-12 56 -12 99q0 64 24.5 116.5t63.5 90t86 71.5t94 69.5t86 76t63.5 99.5t24.5 132 q0 140 -102 232t-262 92q-105 0 -199.5 -50.5t-159.5 -140.5zM365 27q0 9 8 16.5t18 7.5q9 0 17 -7.5t8 -16.5q0 -10 -8 -18.5t-17 -8.5q-10 0 -18 8t-8 19z" />
<glyph unicode="@" horiz-adv-x="2101" d="M164 461q0 145 43 279.5t124 244t191 191.5t251.5 127t297.5 45q185 0 346 -60t275 -165.5t179.5 -255t65.5 -322.5q0 -103 -28.5 -198.5t-83.5 -174t-145 -125.5t-203 -47h-66v154q-57 -71 -154.5 -120.5t-197.5 -49.5q-208 0 -334.5 130t-126.5 347q0 201 143.5 339 t354.5 138q189 0 336 -94v-824h45q83 0 155 29t123.5 79.5t88.5 117t55 141.5t18 154q0 227 -111 407t-304 279.5t-431 99.5q-190 0 -356.5 -68.5t-282 -185.5t-182 -276t-66.5 -336q0 -142 42 -273t121.5 -238.5t187 -187.5t246 -124t290.5 -44q112 0 221 25l11 -18 q-125 -27 -232 -27q-156 0 -297.5 45t-251.5 127t-191 191.5t-124 244t-43 279.5zM618 461q0 -210 120.5 -333.5t320.5 -123.5q106 0 207.5 57t144.5 121v649q-140 87 -317 87q-128 0 -237 -60t-174 -165.5t-65 -231.5z" />
<glyph unicode="A" horiz-adv-x="1052" d="M197 0v1087h18l823 -1087h-26l-330 432h-465v-432h-20zM217 453h451l-451 594v-594z" />
<glyph unicode="B" horiz-adv-x="753" d="M197 0v1075h49q92 0 161 -21.5t107.5 -59.5t57 -83t18.5 -98q0 -72 -41.5 -130t-99 -88.5t-119.5 -37.5v-2q138 -12 215.5 -80t77.5 -184q0 -133 -105.5 -212t-277.5 -79h-43zM217 20h21q170 0 267 76.5t97 196.5q0 114 -92.5 182t-269.5 68h-23v-523zM217 563h35 q131 0 224 70t93 182q0 108 -82 174t-239 66h-31v-492z" />
<glyph unicode="C" horiz-adv-x="825" d="M98 539q0 151 77 277t210.5 198.5t294.5 72.5v-20q-238 0 -399.5 -153t-161.5 -375q0 -118 45 -218.5t122.5 -168.5t183.5 -106t226 -38v-20q-168 0 -303.5 67t-215 193.5t-79.5 290.5z" />
<glyph unicode="D" horiz-adv-x="950" d="M197 0v1075h36q149 0 269 -42t195 -114t115 -165t40 -199q0 -116 -42 -217t-119.5 -176.5t-197 -118.5t-266.5 -43h-30zM217 20h12q143 0 259 42t190 115.5t113.5 170t39.5 207.5q0 102 -39 192t-112 159t-187 109t-255 40h-21v-1035z" />
<glyph unicode="E" horiz-adv-x="796" d="M197 0v1075h485v-20h-465v-496h399v-20h-399v-519h465v-20h-485z" />
<glyph unicode="F" horiz-adv-x="747" d="M197 0v1075h485v-20h-465v-527h416v-20h-416v-508h-20z" />
<glyph unicode="G" horiz-adv-x="837" d="M98 539q0 151 77 277t210.5 198.5t294.5 72.5v-20q-238 0 -399.5 -153t-161.5 -375q0 -117 44 -216.5t120.5 -167.5t180.5 -107t222 -40v502h-262v20h283v-542h-11q-168 0 -303.5 67t-215 193.5t-79.5 290.5z" />
<glyph unicode="H" horiz-adv-x="1370" d="M197 0v1075h20v-516h936v516h21v-1075h-21v539h-936v-539h-20z" />
<glyph unicode="I" horiz-adv-x="772" d="M49 0v20h326v1035h-326v20h674v-20h-328v-1035h328v-20h-674z" />
<glyph unicode="J" horiz-adv-x="432" d="M-63 -223q278 0 278 295v1003h21v-1001q0 -318 -299 -318v21z" />
<glyph unicode="K" horiz-adv-x="1007" d="M197 0v1075h20v-1075h-20zM307 561l592 514h27l-588 -514l369 -377q105 -106 171 -144q44 -25 78 -26q16 0 29 6v-20q-15 -6 -31 -6q-2 0 -4 -1q-15 0 -29 4q-16 4 -35 13t-35 19t-35.5 25t-33.5 27.5t-32.5 30t-30 29l-27.5 27.5z" />
<glyph unicode="L" horiz-adv-x="714" d="M197 0v1075h20v-1055h465v-20h-485z" />
<glyph unicode="M" horiz-adv-x="1607" d="M197 0v1075h16l657 -1034v1034h15l708 -1075h-24l-678 1026v-1026h-17l-657 1028v-1028h-20z" />
<glyph unicode="N" horiz-adv-x="1312" d="M197 0v1087l899 -1046v1034h20v-1087l-899 1042v-1030h-20z" />
<glyph unicode="O" d="M98 539q0 115 43.5 216.5t118 174.5t178.5 115t221 42q156 0 285 -71.5t203 -197.5t74 -279q0 -234 -162 -392.5t-400 -158.5t-399.5 158.5t-161.5 392.5zM119 539q0 -149 71 -271t194.5 -191t274.5 -69t275 69t195 191t71 271q0 225 -156 376.5t-385 151.5 t-384.5 -151.5t-155.5 -376.5zM625 539l34 32l35 -32l-35 -33z" />
<glyph unicode="P" horiz-adv-x="704" d="M197 0v1075h22q101 0 178.5 -29t121.5 -77t65.5 -103t21.5 -114q0 -61 -23.5 -118.5t-69.5 -106t-122.5 -80.5t-173.5 -37v-410h-20zM217 430q175 10 272 101.5t97 222.5q0 127 -96 214t-273 87v-625z" />
<glyph unicode="Q" d="M98 539q0 115 43.5 216.5t118 174.5t178.5 115t221 42q156 0 285 -71.5t203 -197.5t74 -279q0 -234 -162 -392.5t-400 -158.5h-16q146 -213 405.5 -336t546.5 -123q129 0 247 26.5t205.5 68t162 97.5t122.5 110t81 110l16 -15q-30 -54 -78 -108.5t-124.5 -111 t-166.5 -100t-211.5 -71t-253.5 -27.5q-301 0 -569 130.5t-408 351.5q-224 14 -372 169t-148 380zM119 539q0 -149 71 -271t194.5 -191t274.5 -69t275 69t195 191t71 271q0 225 -156 376.5t-385 151.5t-384.5 -151.5t-155.5 -376.5z" />
<glyph unicode="R" horiz-adv-x="1005" d="M197 0v1075q35 0 125.5 2t103.5 2q91 0 160.5 -17t112.5 -44.5t70 -66.5t37.5 -80t10.5 -89q0 -106 -81.5 -189.5t-219.5 -107.5l262 -342q48 -60 100 -101q36 -28 64 -28q13 0 25 6v-20q-14 -5 -29 -5q-32 0 -66 25q-50 36 -110 113l-270 348h-275v-481h-20zM217 502 h240q83 0 160.5 35t128.5 101t51 146q0 128 -88.5 201.5t-284.5 73.5q-101 0 -207 -4v-553z" />
<glyph unicode="S" horiz-adv-x="598" d="M131 819q0 105 72 176t186 92l-4 -20q-104 -23 -168.5 -87t-64.5 -159q0 -53 17.5 -96t45 -74t61.5 -59.5t67.5 -58.5t61 -64.5t45 -85t17.5 -111.5q0 -60 -28 -111.5t-74 -86.5t-99 -57t-108 -29v20q46 7 93 26t92.5 50t74 80t28.5 108q0 57 -17.5 104.5t-45 81 t-61 63.5t-67.5 59.5t-61.5 62t-45 77.5t-17.5 99z" />
<glyph unicode="T" horiz-adv-x="704" d="M16 1055v20h672v-20h-326v-1055h-20v1055h-326z" />
<glyph unicode="U" horiz-adv-x="1232" d="M180 463v612h21v-612q0 -215 120.5 -334t309.5 -119q84 0 155.5 26.5t127 79.5t87 140.5t31.5 202.5v616h21v-622q0 -119 -34 -210t-93 -145t-133.5 -81t-161.5 -27q-129 0 -229.5 52t-161 160.5t-60.5 260.5z" />
<glyph unicode="V" horiz-adv-x="1052" d="M197 -12v1087h20v-1050l797 1050h24l-825 -1087h-16z" />
<glyph unicode="W" horiz-adv-x="1607" d="M197 0v1075h20v-1028l657 1028h17v-1030l678 1030h24l-708 -1075h-15v1034l-657 -1034h-16z" />
<glyph unicode="X" horiz-adv-x="1071" d="M63 0l459 547l-440 528h27l426 -510l432 510h24l-442 -528l459 -547h-27l-446 530l-445 -530h-27z" />
<glyph unicode="Y" horiz-adv-x="919" d="M82 918v157h20v-157q0 -176 100 -285t259 -109q158 0 257 109t99 287v155h21v-155q0 -183 -103 -298t-264 -118v-504h-20v504q-163 3 -266 117.5t-103 296.5z" />
<glyph unicode="Z" horiz-adv-x="1101" d="M66 0l913 1055h-877v20h918l-914 -1055h930v-20h-970z" />
<glyph unicode="[" horiz-adv-x="532" d="M123 -410v1741h409v-20h-389v-1700h389v-21h-409z" />
<glyph unicode="\" horiz-adv-x="591" d="M-61 1444l18 6l696 -1868l-20 -8z" />
<glyph unicode="]" horiz-adv-x="532" d="M0 -389h389v1700h-389v20h410v-1741h-410v21z" />
<glyph unicode="^" horiz-adv-x="946" d="M123 922l348 528h8l344 -528h-24l-324 497l-328 -497h-24z" />
<glyph unicode="_" horiz-adv-x="512" d="M0 -389h512v-21h-512v21z" />
<glyph unicode="`" horiz-adv-x="485" d="M123 1516l14 12l225 -291l-16 -10z" />
<glyph unicode="a" horiz-adv-x="1232" d="M180 2v612q0 153 60.5 261.5t160.5 160t230 51.5q87 0 161 -26.5t133.5 -80t93.5 -144.5t34 -211v-623h-21v451h-831v-451h-21zM201 473h831v148q0 114 -31.5 201t-87 139.5t-127 79t-155.5 26.5q-189 0 -309.5 -118t-120.5 -335v-141z" />
<glyph unicode="b" horiz-adv-x="753" d="M197 0v1075h49q92 0 161 -21.5t107.5 -59.5t57 -83t18.5 -98q0 -72 -41.5 -130t-99 -88.5t-119.5 -37.5v-2q138 -12 215.5 -80t77.5 -184q0 -133 -105.5 -212t-277.5 -79h-43zM217 20h21q170 0 267 76.5t97 196.5q0 114 -92.5 182t-269.5 68h-23v-523zM217 563h35 q131 0 224 70t93 182q0 108 -82 174t-239 66h-31v-492z" />
<glyph unicode="c" horiz-adv-x="825" d="M98 539q0 151 77 277t210.5 198.5t294.5 72.5v-20q-238 0 -399.5 -153t-161.5 -375q0 -118 45 -218.5t122.5 -168.5t183.5 -106t226 -38v-20q-168 0 -303.5 67t-215 193.5t-79.5 290.5z" />
<glyph unicode="d" horiz-adv-x="1255" d="M16 834q26 46 71 88.5t109.5 80.5t155 61t193.5 23q169 0 308.5 -68t221.5 -190t82 -272q0 -112 -42 -211t-121.5 -177t-206.5 -123.5t-285 -45.5h-291v20h168v1031q-120 -28 -210 -90.5t-136 -137.5zM399 20h105q154 0 277 44.5t199.5 120t116.5 170t40 200.5 q0 143 -79 260.5t-216.5 184.5t-304.5 67q-73 0 -138 -12v-1035z" />
<glyph unicode="e" horiz-adv-x="952" d="M131 287q0 106 79.5 183.5t215.5 92.5v4q-116 18 -183 89.5t-67 160.5q0 130 85.5 202.5t248.5 72.5q98 0 187.5 -48t125.5 -124l-14 -9q-37 67 -118 113.5t-187 46.5q-145 0 -226 -64.5t-81 -185.5q0 -74 46 -132t113.5 -86t141.5 -28h98v-20h-109q-138 0 -236.5 -74.5 t-98.5 -189.5q0 -128 95 -207.5t265 -79.5q134 0 221 57.5t121 151.5l16 -4q-27 -95 -121.5 -160t-238.5 -65q-173 0 -276 82.5t-103 220.5z" />
<glyph unicode="f" horiz-adv-x="645" d="M0 901v21h213v149q0 379 309 379q133 0 226 -72l-13 -18q-95 70 -213 70q-147 0 -218 -90.5t-71 -286.5v-131h359v-21h-359v-901h-20v901h-213z" />
<glyph unicode="g" horiz-adv-x="837" d="M98 539q0 151 77 277t210.5 198.5t294.5 72.5v-20q-238 0 -399.5 -153t-161.5 -375q0 -117 44 -216.5t120.5 -167.5t180.5 -107t222 -40v502h-262v20h283v-542h-11q-168 0 -303.5 67t-215 193.5t-79.5 290.5z" />
<glyph unicode="h" horiz-adv-x="1370" d="M197 0v1075h20v-516h936v516h21v-1075h-21v539h-936v-539h-20z" />
<glyph unicode="i" horiz-adv-x="772" d="M49 0v20h326v1035h-326v20h674v-20h-328v-1035h328v-20h-674z" />
<glyph unicode="j" horiz-adv-x="931" d="M98 279q0 89 49 157.5t123 102.5t158 34v-20q-74 0 -143 -30t-117.5 -94.5t-48.5 -149.5q0 -118 87.5 -194.5t225.5 -76.5q57 0 107.5 18.5t95 57t70.5 110t26 166.5v695h-557v20h578v-717q0 -87 -22 -154.5t-56 -107t-78.5 -65t-84 -34.5t-79.5 -9q-81 0 -146 25 t-105 66.5t-61.5 92.5t-21.5 107z" />
<glyph unicode="k" horiz-adv-x="931" d="M184 0v1434h21v-1434h-21zM301 481l483 441h29l-485 -441l305 -295q11 -10 28 -27.5t31.5 -32.5t34 -33t36 -31.5t36 -26t36 -18t34.5 -5.5t34 8l-2 -20q-12 -7 -27 -7q-5 1 -11 1q-22 4 -39 8t-39.5 19t-39 27.5t-37 32.5t-34 33.5t-30.5 31.5t-26 26z" />
<glyph unicode="l" horiz-adv-x="948" d="M96 4q57 49 111 70q94 97 94 268q0 53 -11.5 98.5t-28.5 81t-33.5 71.5t-28 87t-11.5 111q0 74 36 140t111.5 111t174.5 45q92 0 172.5 -28.5t124.5 -77.5l-12 -14q-103 100 -289 100q-131 0 -214 -83.5t-83 -192.5q0 -58 11.5 -107.5t28.5 -86t33.5 -72t28 -82.5 t11.5 -101q0 -160 -84 -258q34 10 75 10q65 0 188.5 -40t184.5 -40q100 0 184 76l13 -14q-91 -82 -201 -82q-62 0 -186 40t-187 40q-102 0 -198 -84z" />
<glyph unicode="m" horiz-adv-x="1366" d="M197 0v1087l493 -487l479 487v-1087h-20v1036l-459 -465l-473 465v-1036h-20z" />
<glyph unicode="n" horiz-adv-x="1288" d="M197 0v1075h20v-176l854 -706v882h21v-1075h-21v162l-854 710v-872h-20z" />
<glyph unicode="o" d="M98 539q0 115 43.5 216.5t118 174.5t178.5 115t221 42q156 0 285 -71.5t203 -197.5t74 -279q0 -234 -162 -392.5t-400 -158.5t-399.5 158.5t-161.5 392.5zM119 539q0 -149 71 -271t194.5 -191t274.5 -69t275 69t195 191t71 271q0 225 -156 376.5t-385 151.5 t-384.5 -151.5t-155.5 -376.5zM625 539l34 32l35 -32l-35 -33z" />
<glyph unicode="p" horiz-adv-x="931" d="M195 0v717q0 87 23 154.5t58.5 107t82 65t88 34.5t83.5 9q86 0 153 -29.5t105.5 -77.5t58 -102.5t19.5 -111.5q0 -79 -28 -142.5t-75 -103t-106 -60t-125 -20.5q-135 0 -219 58l11 16q84 -53 213 -53q56 0 108.5 17.5t98.5 52.5t74 96t28 139q0 123 -86 212t-230 89 q-46 0 -89 -11t-84.5 -37t-72.5 -65t-50 -100.5t-19 -138.5v-715h-20z" />
<glyph unicode="q" horiz-adv-x="1193" d="M66 4q113 102 256 102h6q109 19 203 45t189.5 71.5t162.5 103.5t109 142.5t42 186.5q0 185 -127 298.5t-325 113.5q-118 0 -219.5 -45t-166.5 -136t-65 -210q0 -154 97 -258t251 -129l-14 -19q-166 31 -260 142.5t-94 249.5q0 193 134.5 309t346.5 116q59 0 120 -14 t123 -47.5t110.5 -82t79 -123t30.5 -165.5q0 -101 -42 -187t-107.5 -144.5t-156.5 -105t-177.5 -73.5t-182.5 -45q66 -8 229 -57t250 -49q142 0 246 96l14 -14q-117 -103 -260 -103q-93 0 -277.5 56.5t-271.5 56.5q-140 0 -241 -96z" />
<glyph unicode="r" horiz-adv-x="1005" d="M197 0v1075q35 0 125.5 2t103.5 2q91 0 160.5 -17t112.5 -44.5t70 -66.5t37.5 -80t10.5 -89q0 -106 -81.5 -189.5t-219.5 -107.5l262 -342q48 -60 100 -101q36 -28 64 -28q13 0 25 6v-20q-14 -5 -29 -5q-32 0 -66 25q-50 36 -110 113l-270 348h-275v-481h-20zM217 502 h240q83 0 160.5 35t128.5 101t51 146q0 128 -88.5 201.5t-284.5 73.5q-101 0 -207 -4v-553z" />
<glyph unicode="s" horiz-adv-x="598" d="M131 819q0 105 72 176t186 92l-4 -20q-104 -23 -168.5 -87t-64.5 -159q0 -53 17.5 -96t45 -74t61.5 -59.5t67.5 -58.5t61 -64.5t45 -85t17.5 -111.5q0 -60 -28 -111.5t-74 -86.5t-99 -57t-108 -29v20q46 7 93 26t92.5 50t74 80t28.5 108q0 57 -17.5 104.5t-45 81 t-61 63.5t-67.5 59.5t-61.5 62t-45 77.5t-17.5 99z" />
<glyph unicode="t" horiz-adv-x="747" d="M0 901v21h213v256h20v-256h379v-21h-379v-532q0 -181 63.5 -269t205.5 -88q86 0 151 49l13 -18q-70 -51 -164 -51q-151 0 -220 89t-69 269v551h-213z" />
<glyph unicode="u" horiz-adv-x="1232" d="M180 463v612h21v-612q0 -215 120.5 -334t309.5 -119q84 0 155.5 26.5t127 79.5t87 140.5t31.5 202.5v616h21v-622q0 -119 -34 -210t-93 -145t-133.5 -81t-161.5 -27q-129 0 -229.5 52t-161 160.5t-60.5 260.5z" />
<glyph unicode="v" horiz-adv-x="1077" d="M33 1075h22l490 -1040l477 1040h22l-499 -1087z" />
<glyph unicode="w" horiz-adv-x="1599" d="M33 1075h22l490 -1052l248 546l-236 506h23l223 -483l219 483h22l-231 -506l256 -546l477 1052h21l-496 -1087h-8l-260 559l-254 -559h-8z" />
<glyph unicode="x" horiz-adv-x="1071" d="M63 0l459 547l-440 528h27l426 -510l432 510h24l-442 -528l459 -547h-27l-446 530l-445 -530h-27z" />
<glyph unicode="y" horiz-adv-x="1009" d="M0 1055v20q91 0 178 -62.5t151.5 -163t110.5 -220t66 -238.5q13 106 61.5 226t116.5 222t155.5 169t170.5 67v-20q-66 0 -136 -45.5t-128.5 -120t-108 -165.5t-81 -186.5t-40.5 -177.5v-360h-20v360q-16 93 -47 188t-77.5 186.5t-102 162.5t-126 114.5t-143.5 43.5z" />
<glyph unicode="z" horiz-adv-x="1101" d="M66 0l913 1055h-877v20h918l-914 -1055h930v-20h-970z" />
<glyph unicode="{" horiz-adv-x="573" d="M41 451v20q31 0 60.5 10t58.5 33.5t47 70t18 111.5v396q0 116 46.5 177.5t156.5 61.5h104v-20h-104q-97 0 -139.5 -53.5t-42.5 -165.5v-396q0 -99 -42 -161.5t-112 -71.5q70 -8 112 -65t42 -169v-405q0 -213 194 -213h92v-21h-94q-213 0 -213 234v426q0 58 -16.5 99.5 t-45 63t-58.5 30.5t-64 8z" />
<glyph unicode="|" horiz-adv-x="634" d="M307 0v1434h21v-1434h-21z" />
<glyph unicode="}" horiz-adv-x="573" d="M41 -389h92q195 0 195 213v405q0 112 41.5 169t111.5 65q-70 9 -111.5 71.5t-41.5 161.5v396q0 112 -43 165.5t-140 53.5h-104v20h104q110 0 156.5 -61.5t46.5 -177.5v-396q0 -65 18 -111.5t47 -70t58.5 -33.5t60.5 -10v-20q-34 1 -64 -8t-58.5 -30.5t-45 -63 t-16.5 -99.5v-426q0 -234 -213 -234h-94v21z" />
<glyph unicode="~" horiz-adv-x="1196" d="M139 721q116 108 236 108q56 0 121.5 -24t116 -53.5t114.5 -53.5t117 -24q98 0 198 94l15 -14q-106 -101 -215 -101q-55 0 -120 24.5t-116 53.5t-116 53.5t-119 24.5q-110 0 -215 -102z" />
<glyph unicode="&#xa1;" horiz-adv-x="634" d="M295 911q0 10 7.5 18.5t16.5 8.5q11 0 19 -8t8 -19q0 -9 -8.5 -16.5t-18.5 -7.5q-9 0 -16.5 7.5t-7.5 16.5zM309 -496v1106h21v-1106h-21z" />
<glyph unicode="&#xa2;" horiz-adv-x="1196" d="M195 461q0 132 59 241.5t161.5 172.5t225.5 63h6v227h21v-227q208 -7 321 -109l-12 -18q-121 107 -332 107q-178 0 -304 -132.5t-126 -324.5q0 -208 128.5 -332.5t330.5 -124.5q96 0 181.5 37.5t139.5 99.5l13 -12q-57 -70 -147.5 -107.5t-186.5 -37.5h-6v-230h-21v230 q-201 9 -326.5 138.5t-125.5 338.5z" />
<glyph unicode="&#xa3;" horiz-adv-x="1196" d="M109 0q74 68 139 94q117 130 117 361q0 74 -21 149h-162v21h156q-11 35 -45 111.5t-52 148.5t-18 168q0 73 27 143.5t76.5 127.5t127.5 91.5t171 34.5q112 0 212.5 -38t157.5 -103l-14 -15q-64 67 -159 101.5t-204 34.5q-110 0 -197.5 -55.5t-132 -140.5t-44.5 -179 t18.5 -166t52 -148t45.5 -116h383v-21h-376q18 -77 18 -151q0 -216 -104 -349q49 15 98 15q82 0 235.5 -53.5t229.5 -53.5q123 0 231 103l15 -15q-113 -108 -250 -108q-79 0 -233.5 53t-233.5 53q-131 0 -248 -112z" />
<glyph unicode="&#xa5;" horiz-adv-x="1196" d="M72 1434h26l498 -768l502 768h26l-506 -770h422v-21h-434v-307h434v-21h-434v-315h-20v315h-434v21h434v307h-434v21h421z" />
<glyph unicode="&#xa7;" horiz-adv-x="958" d="M164 782q0 140 65 250q-24 56 -24 121q0 124 81.5 202.5t207.5 78.5q54 0 97 -10.5t72.5 -31.5t43.5 -35t32 -36l-14 -16q-20 22 -26.5 29t-31 26.5t-45 28t-56.5 16.5t-77 8q-112 0 -188 -74.5t-76 -183.5q0 -64 31.5 -128.5t81.5 -119.5t111 -111.5t122 -115 t111 -118.5t81.5 -133.5t31.5 -149.5q0 -175 -66 -273q25 -59 25 -108q0 -136 -86 -222t-209 -86q-97 0 -171.5 48t-109.5 112l19 12q36 -57 103.5 -104t156.5 -47q109 0 192.5 80.5t83.5 204.5q0 61 -31.5 122t-81.5 115t-111 109.5t-121.5 115.5t-110.5 122.5t-81.5 141 t-31.5 160.5zM184 782q0 -69 23 -134.5t62 -120t87 -105.5t102 -100.5t102 -95t91.5 -97.5t67.5 -100q55 88 55 250q0 87 -43 169.5t-110.5 151.5t-138.5 132.5t-140 137t-102 140.5q-56 -98 -56 -228z" />
<glyph unicode="&#xa8;" horiz-adv-x="653" d="M123 1374q0 9 8.5 17t18.5 8q9 0 16.5 -8t7.5 -17q0 -10 -7.5 -18t-16.5 -8q-11 0 -19 8t-8 18zM479 1374q0 9 8.5 17t18.5 8q9 0 16.5 -8t7.5 -17q0 -10 -7.5 -18t-16.5 -8q-11 0 -19 8t-8 18z" />
<glyph unicode="&#xa9;" horiz-adv-x="2084" d="M164 453q0 240 113 441t315 319t450 118q186 0 350 -69.5t279.5 -187.5t182.5 -279.5t67 -341.5t-67 -342t-182.5 -280t-279.5 -187.5t-350 -69.5t-350 69.5t-279.5 188t-182 280t-66.5 341.5zM184 453q0 -175 65 -333.5t178 -274t273 -183.5t342 -68t342 68t273 183.5 t178.5 274t65.5 333.5t-65.5 333t-178.5 273.5t-273 183.5t-342 68q-242 0 -439.5 -115.5t-308 -312t-110.5 -430.5zM582 461q0 132 59 241.5t161.5 172.5t225.5 63q228 0 348 -109l-12 -18q-121 107 -332 107q-178 0 -304 -132.5t-126 -324.5q0 -208 128.5 -332.5 t330.5 -124.5q96 0 181.5 37.5t139.5 99.5l13 -12q-57 -70 -147.5 -107.5t-186.5 -37.5q-210 0 -344.5 131t-134.5 346z" />
<glyph unicode="&#xaa;" horiz-adv-x="788" d="M123 920q0 89 67.5 139.5t180.5 50.5q146 0 233 -61v61q0 106 -56.5 161.5t-162.5 55.5q-50 0 -89.5 -15.5t-90.5 -51.5l-17 12q38 35 93 55.5t106 20.5q118 0 178 -61t60 -173v-377h-21v117q-88 -121 -254 -121q-101 0 -164 54.5t-63 132.5zM143 920q0 -72 61.5 -120 t143.5 -48q90 0 154 37t102 88v149q-41 27 -109 45.5t-126 18.5q-92 0 -159 -45t-67 -125z" />
<glyph unicode="&#xab;" horiz-adv-x="960" d="M123 508v8l352 406l14 -13l-344 -397l340 -397l-12 -17zM430 508v8l352 406l15 -13l-344 -397l340 -397l-13 -17z" />
<glyph unicode="&#xac;" horiz-adv-x="1196" d="M154 727v21h888v-289h-20v268h-868z" />
<glyph unicode="&#xad;" horiz-adv-x="847" d="M205 543v20h438v-20h-438z" />
<glyph unicode="&#xae;" horiz-adv-x="1081" d="M123 1016q0 173 122.5 295.5t295.5 122.5t295 -122.5t122 -295.5t-122 -295.5t-295 -122.5t-295.5 122.5t-122.5 295.5zM143 1016q0 -164 117 -281t281 -117t280.5 117t116.5 281t-116.5 280.5t-280.5 116.5t-281 -116.5t-117 -280.5zM391 737v574h125q195 0 195 -156 q0 -56 -41 -101.5t-111 -58.5l215 -258h-31l-213 258h-118v-258h-21zM412 1016h120q58 0 108 38.5t50 100.5q0 64 -45 99.5t-129 35.5h-104v-274z" />
<glyph unicode="&#xaf;" horiz-adv-x="724" d="M123 1393v20h479v-20h-479z" />
<glyph unicode="&#xb0;" horiz-adv-x="778" d="M123 1167q0 110 78 188.5t188 78.5t188 -78.5t78 -188.5t-78 -188t-188 -78t-188 78t-78 188zM143 1167q0 -101 72.5 -173t173.5 -72t173.5 72t72.5 173t-72.5 173.5t-173.5 72.5t-173.5 -72.5t-72.5 -173.5z" />
<glyph unicode="&#xb1;" horiz-adv-x="1196" d="M154 379v20h888v-20h-888zM154 870v21h432v432h20v-432h436v-21h-436v-333h-20v333h-432z" />
<glyph unicode="&#xb4;" horiz-adv-x="485" d="M123 1237l225 291l14 -12l-223 -289z" />
<glyph unicode="&#xb6;" horiz-adv-x="821" d="M123 985q0 211 106.5 330t300.5 119h209v-21h-192v-1522q0 -75 -11 -129t-37.5 -98.5t-76.5 -67t-123 -22.5q-94 0 -164 51l12 19q27 -21 68.5 -35.5t83.5 -14.5q70 0 117 22.5t70 66t31.5 91.5t8.5 115v650q-179 2 -291 121t-112 325z" />
<glyph unicode="&#xb7;" horiz-adv-x="512" d="M229 600q0 9 8.5 17t18.5 8q9 0 17 -8t8 -17q0 -10 -8 -18.5t-17 -8.5q-10 0 -18.5 8.5t-8.5 18.5z" />
<glyph unicode="&#xb8;" horiz-adv-x="610" d="M123 -369l8 19q79 -39 152 -39q81 0 132.5 33.5t51.5 89.5q0 123 -184 123h-13v143h21v-123q196 -3 196 -143q0 -64 -55.5 -104t-148.5 -40q-76 0 -160 41z" />
<glyph unicode="&#xba;" horiz-adv-x="880" d="M123 1036q0 134 91.5 223t225.5 89t226 -89t92 -223t-91.5 -222.5t-226.5 -88.5q-134 0 -225.5 88.5t-91.5 222.5zM143 1036q0 -126 90 -208.5t207 -82.5q121 0 209 82t88 209t-88.5 209t-208.5 82t-208.5 -82t-88.5 -209z" />
<glyph unicode="&#xbb;" horiz-adv-x="960" d="M164 909l14 13l352 -406v-8l-350 -410l-12 17l340 397zM471 909l14 13l353 -406v-8l-351 -410l-12 17l340 397z" />
<glyph unicode="&#xbf;" horiz-adv-x="923" d="M82 -170q0 77 24.5 139t63.5 103.5t86 77t94 68.5t86 68.5t63.5 87t24.5 115.5q0 36 -10 91l18 6q13 -60 13 -99q0 -64 -24.5 -116.5t-63.5 -90t-86.5 -71.5t-94.5 -69.5t-86 -76t-63.5 -99.5t-24.5 -132q0 -140 102.5 -232t262.5 -92q105 0 199 50.5t159 140.5l17 -8 q-56 -91 -159 -147t-220 -56q-177 0 -279 98.5t-102 243.5zM508 911q0 10 7.5 18.5t16.5 8.5q10 0 18.5 -8t8.5 -19q0 -9 -8.5 -16.5t-18.5 -7.5q-9 0 -16.5 7.5t-7.5 16.5z" />
<glyph unicode="&#xc0;" horiz-adv-x="1052" d="M20 1516l15 12l225 -291l-16 -10zM197 0v1087h18l823 -1087h-26l-330 432h-465v-432h-20zM217 453h451l-451 594v-594z" />
<glyph unicode="&#xc1;" horiz-adv-x="1052" d="M197 0v1087h18l823 -1087h-26l-330 432h-465v-432h-20zM217 453h451l-451 594v-594zM246 1237l225 291l14 -12l-223 -289z" />
<glyph unicode="&#xc2;" horiz-adv-x="1052" d="M-63 1266l278 225h8l273 -225l-15 -15l-262 217l-266 -217zM197 0v1087h18l823 -1087h-26l-330 432h-465v-432h-20zM217 453h451l-451 594v-594z" />
<glyph unicode="&#xc3;" horiz-adv-x="1052" d="M-41 1317q104 84 178 84q32 0 63 -16t52 -34.5t49.5 -34.5t56.5 -16q64 0 158 89l14 -15q-102 -94 -176 -94q-30 0 -60 15.5t-51 34.5t-51 34.5t-61 15.5q-65 0 -160 -77zM197 0v1087h18l823 -1087h-26l-330 432h-465v-432h-20zM217 453h451l-451 594v-594z" />
<glyph unicode="&#xc4;" horiz-adv-x="1052" d="M2 1374q0 9 8.5 17t18.5 8q9 0 16.5 -8t7.5 -17q0 -10 -7.5 -18t-16.5 -8q-11 0 -19 8t-8 18zM197 0v1087h18l823 -1087h-26l-330 432h-465v-432h-20zM217 453h451l-451 594v-594zM358 1374q0 9 8.5 17t18.5 8q9 0 17 -8t8 -17q0 -10 -8 -18t-17 -8q-11 0 -19 8t-8 18z " />
<glyph unicode="&#xc5;" horiz-adv-x="1052" d="M20 1341q0 78 55.5 134.5t133.5 56.5t134 -56.5t56 -134.5t-56 -133t-134 -55t-133.5 55t-55.5 133zM41 1341q0 -70 48.5 -118.5t119.5 -48.5t120.5 48.5t49.5 118.5q0 71 -49.5 120.5t-120.5 49.5q-70 0 -119 -49.5t-49 -120.5zM197 0v1087h18l823 -1087h-26l-330 432 h-465v-432h-20zM217 453h451l-451 594v-594z" />
<glyph unicode="&#xc6;" horiz-adv-x="1597" d="M14 0l346 453l478 622h612v-20h-594v-496h545v-20h-545v-519h610v-20h-630v432h-467l-330 -432h-25zM385 453h451v587z" />
<glyph unicode="&#xc7;" horiz-adv-x="825" d="M98 539q0 151 77 277t210.5 198.5t294.5 72.5v-20q-238 0 -399.5 -153t-161.5 -375q0 -118 45 -218.5t122.5 -168.5t183.5 -106t226 -38v-20q-88 0 -180 20v-131q197 -3 197 -143q0 -64 -56 -104t-149 -40q-76 0 -160 41l8 19q79 -39 152 -39q81 0 132.5 33.5t51.5 89.5 q0 123 -184 123h-12v157q-181 54 -289.5 192t-108.5 333z" />
<glyph unicode="&#xc8;" horiz-adv-x="796" d="M197 0v1075h485v-20h-465v-496h399v-20h-399v-519h465v-20h-485zM287 1516l14 12l225 -291l-16 -10z" />
<glyph unicode="&#xc9;" horiz-adv-x="796" d="M197 0v1075h485v-20h-465v-496h399v-20h-399v-519h465v-20h-485zM410 1237l225 291l14 -12l-223 -289z" />
<glyph unicode="&#xca;" horiz-adv-x="796" d="M162 1266l278 225h9l272 -225l-14 -15l-263 217l-266 -217zM197 0v1075h485v-20h-465v-496h399v-20h-399v-519h465v-20h-485z" />
<glyph unicode="&#xcb;" horiz-adv-x="796" d="M197 0v1075h485v-20h-465v-496h399v-20h-399v-519h465v-20h-485zM233 1374q0 9 8.5 17t18.5 8q9 0 17 -8t8 -17q0 -10 -8 -18t-17 -8q-11 0 -19 8t-8 18zM590 1374q0 9 8 17t18 8q9 0 17 -8t8 -17q0 -10 -8 -18t-17 -8q-10 0 -18 8t-8 18z" />
<glyph unicode="&#xcc;" horiz-adv-x="772" d="M49 0v20h326v1035h-326v20h674v-20h-328v-1035h328v-20h-674zM225 1516l15 12l225 -291l-16 -10z" />
<glyph unicode="&#xcd;" horiz-adv-x="772" d="M49 0v20h326v1035h-326v20h674v-20h-328v-1035h328v-20h-674zM348 1237l225 291l15 -12l-223 -289z" />
<glyph unicode="&#xce;" horiz-adv-x="772" d="M49 0v20h326v1035h-326v20h674v-20h-328v-1035h328v-20h-674zM106 1266l279 225h8l273 -225l-15 -15l-262 217l-266 -217z" />
<glyph unicode="&#xcf;" horiz-adv-x="772" d="M49 0v20h326v1035h-326v20h674v-20h-328v-1035h328v-20h-674zM182 1374q0 9 8.5 17t18.5 8q9 0 16.5 -8t7.5 -17q0 -10 -7.5 -18t-16.5 -8q-11 0 -19 8t-8 18zM539 1374q0 9 8 17t18 8q9 0 17 -8t8 -17q0 -10 -8 -18t-17 -8q-11 0 -18.5 8t-7.5 18z" />
<glyph unicode="&#xd0;" horiz-adv-x="1251" d="M16 543v20h228v512h16q44 0 118 2t132 2q134 0 242.5 -28t182.5 -76t123.5 -115t72 -143t22.5 -162q0 -117 -42 -218t-121.5 -177.5t-206.5 -120t-287 -43.5q-47 0 -124.5 2t-119.5 2h-8v543h-228zM264 20l234 -4q155 0 278 42.5t200 117t117 171t40 208.5 q0 83 -21.5 156t-69.5 137.5t-120 111t-178 73t-238 26.5q-58 0 -130.5 -2t-111.5 -2v-492h348v-20h-348v-523z" />
<glyph unicode="&#xd1;" horiz-adv-x="1312" d="M197 0v1087l899 -1046v1034h20v-1087l-899 1042v-1030h-20zM348 1317q104 84 178 84q32 0 63.5 -16t52.5 -34.5t49.5 -34.5t56.5 -16q63 0 157 89l15 -15q-102 -94 -177 -94q-30 0 -60 15.5t-51 34.5t-51 34.5t-61 15.5q-65 0 -160 -77z" />
<glyph unicode="&#xd2;" d="M98 539q0 115 43.5 216.5t118 174.5t178.5 115t221 42q156 0 285 -71.5t203 -197.5t74 -279q0 -234 -162 -392.5t-400 -158.5t-399.5 158.5t-161.5 392.5zM119 539q0 -149 71 -271t194.5 -191t274.5 -69t275 69t195 191t71 271q0 225 -156 376.5t-385 151.5 t-384.5 -151.5t-155.5 -376.5zM471 1516l14 12l226 -291l-17 -10zM625 539l34 32l35 -32l-35 -33z" />
<glyph unicode="&#xd3;" d="M98 539q0 115 43.5 216.5t118 174.5t178.5 115t221 42q156 0 285 -71.5t203 -197.5t74 -279q0 -234 -162 -392.5t-400 -158.5t-399.5 158.5t-161.5 392.5zM119 539q0 -149 71 -271t194.5 -191t274.5 -69t275 69t195 191t71 271q0 225 -156 376.5t-385 151.5 t-384.5 -151.5t-155.5 -376.5zM594 1237l225 291l15 -12l-224 -289zM625 539l34 32l35 -32l-35 -33z" />
<glyph unicode="&#xd4;" d="M98 539q0 115 43.5 216.5t118 174.5t178.5 115t221 42q156 0 285 -71.5t203 -197.5t74 -279q0 -234 -162 -392.5t-400 -158.5t-399.5 158.5t-161.5 392.5zM119 539q0 -149 71 -271t194.5 -191t274.5 -69t275 69t195 191t71 271q0 225 -156 376.5t-385 151.5 t-384.5 -151.5t-155.5 -376.5zM381 1266l278 225h9l272 -225l-14 -15l-262 217l-267 -217zM625 539l34 32l35 -32l-35 -33z" />
<glyph unicode="&#xd5;" d="M98 539q0 115 43.5 216.5t118 174.5t178.5 115t221 42q156 0 285 -71.5t203 -197.5t74 -279q0 -234 -162 -392.5t-400 -158.5t-399.5 158.5t-161.5 392.5zM119 539q0 -149 71 -271t194.5 -191t274.5 -69t275 69t195 191t71 271q0 225 -156 376.5t-385 151.5 t-384.5 -151.5t-155.5 -376.5zM375 1317q104 84 178 84q32 0 63 -16t52 -34.5t49.5 -34.5t56.5 -16q64 0 158 89l14 -15q-102 -94 -176 -94q-30 0 -60 15.5t-51 34.5t-51 34.5t-61 15.5q-65 0 -160 -77zM625 539l34 32l35 -32l-35 -33z" />
<glyph unicode="&#xd6;" d="M98 539q0 115 43.5 216.5t118 174.5t178.5 115t221 42q156 0 285 -71.5t203 -197.5t74 -279q0 -234 -162 -392.5t-400 -158.5t-399.5 158.5t-161.5 392.5zM119 539q0 -149 71 -271t194.5 -191t274.5 -69t275 69t195 191t71 271q0 225 -156 376.5t-385 151.5 t-384.5 -151.5t-155.5 -376.5zM457 1374q0 9 8 17t18 8q9 0 17 -8t8 -17q0 -10 -8 -18t-17 -8q-11 0 -18.5 8t-7.5 18zM625 539l34 32l35 -32l-35 -33zM813 1374q0 9 8.5 17t18.5 8q9 0 16.5 -8t7.5 -17q0 -10 -7.5 -18t-16.5 -8q-11 0 -19 8t-8 18z" />
<glyph unicode="&#xd8;" d="M98 539q0 115 43.5 216.5t118 174.5t178.5 115t221 42q121 0 227.5 -44.5t184.5 -124.5l137 133l13 -13l-138 -135q138 -154 138 -364q0 -234 -162 -392.5t-400 -158.5q-217 0 -374 135l-129 -125l-15 14l127 125q-80 75 -125 179t-45 223zM119 539q0 -115 43 -215 t121 -172l774 751q-75 77 -178.5 120.5t-219.5 43.5q-229 0 -384.5 -151.5t-155.5 -376.5zM299 137q148 -129 360 -129q151 0 275 69t195 191t71 271q0 203 -131 350z" />
<glyph unicode="&#xd9;" horiz-adv-x="1232" d="M180 463v612h21v-612q0 -215 120.5 -334t309.5 -119q84 0 155.5 26.5t127 79.5t87 140.5t31.5 202.5v616h21v-622q0 -119 -34 -210t-93 -145t-133.5 -81t-161.5 -27q-129 0 -229.5 52t-161 160.5t-60.5 260.5zM430 1516l14 12l226 -291l-17 -10z" />
<glyph unicode="&#xda;" horiz-adv-x="1232" d="M180 463v612h21v-612q0 -215 120.5 -334t309.5 -119q84 0 155.5 26.5t127 79.5t87 140.5t31.5 202.5v616h21v-622q0 -119 -34 -210t-93 -145t-133.5 -81t-161.5 -27q-129 0 -229.5 52t-161 160.5t-60.5 260.5zM553 1237l225 291l15 -12l-224 -289z" />
<glyph unicode="&#xdb;" horiz-adv-x="1232" d="M180 463v612h21v-612q0 -215 120.5 -334t309.5 -119q84 0 155.5 26.5t127 79.5t87 140.5t31.5 202.5v616h21v-622q0 -119 -34 -210t-93 -145t-133.5 -81t-161.5 -27q-129 0 -229.5 52t-161 160.5t-60.5 260.5zM338 1266l278 225h9l272 -225l-14 -15l-262 217l-267 -217z " />
<glyph unicode="&#xdc;" horiz-adv-x="1232" d="M180 463v612h21v-612q0 -215 120.5 -334t309.5 -119q84 0 155.5 26.5t127 79.5t87 140.5t31.5 202.5v616h21v-622q0 -119 -34 -210t-93 -145t-133.5 -81t-161.5 -27q-129 0 -229.5 52t-161 160.5t-60.5 260.5zM414 1374q0 9 8 17t18 8q9 0 17 -8t8 -17q0 -10 -8 -18 t-17 -8q-10 0 -18 8t-8 18zM770 1374q0 9 8.5 17t18.5 8q9 0 16.5 -8t7.5 -17q0 -10 -7.5 -18t-16.5 -8q-11 0 -19 8t-8 18z" />
<glyph unicode="&#xdd;" horiz-adv-x="919" d="M82 918v157h20v-157q0 -176 100 -285t259 -109q158 0 257 109t99 287v155h21v-155q0 -183 -103 -298t-264 -118v-504h-20v504q-163 3 -266 117.5t-103 296.5zM430 1237l225 291l15 -12l-224 -289z" />
<glyph unicode="&#xde;" horiz-adv-x="931" d="M197 0v1075h20v-168q37 0 122.5 1t106.5 1q89 0 158 -18t111.5 -48t70 -71t38 -83.5t10.5 -90.5q0 -62 -22 -116.5t-67.5 -100t-126 -72t-186.5 -26.5q-114 0 -215 8v-291h-20zM217 311q99 -8 213 -8q190 0 286.5 83t96.5 214q0 129 -88 209t-276 80q-179 0 -232 -2v-576 z" />
<glyph unicode="&#xdf;" horiz-adv-x="1097" d="M205 -8v1079q0 379 309 379q105 0 176.5 -59.5t71.5 -153.5q0 -46 -18 -86.5t-45 -68t-59 -56.5t-59 -53t-45 -57.5t-18 -69.5q0 -51 25 -93t65.5 -72t89 -58.5t97.5 -59t89.5 -66.5t65.5 -88.5t25 -117.5q0 -136 -86 -221.5t-209 -85.5q-97 0 -171.5 47.5t-109.5 111.5 l19 13q36 -58 103.5 -105t156.5 -47q109 0 192.5 80.5t83.5 204.5q0 61 -25 111.5t-65.5 85.5t-89 66t-97 60.5t-89 61t-65.5 75t-25 95.5q0 48 25 89.5t60.5 72.5t71.5 63t61 75t25 93q0 85 -68 139t-159 54q-147 0 -218 -90.5t-71 -286.5v-1061h-20z" />
<glyph unicode="&#xe0;" horiz-adv-x="1232" d="M180 2v612q0 153 60.5 261.5t160.5 160t230 51.5q87 0 161 -26.5t133.5 -80t93.5 -144.5t34 -211v-623h-21v451h-831v-451h-21zM201 473h831v148q0 114 -31.5 201t-87 139.5t-127 79t-155.5 26.5q-189 0 -309.5 -118t-120.5 -335v-141zM430 1516l14 12l226 -291l-17 -10z " />
<glyph unicode="&#xe1;" horiz-adv-x="1232" d="M180 2v612q0 153 60.5 261.5t160.5 160t230 51.5q87 0 161 -26.5t133.5 -80t93.5 -144.5t34 -211v-623h-21v451h-831v-451h-21zM201 473h831v148q0 114 -31.5 201t-87 139.5t-127 79t-155.5 26.5q-189 0 -309.5 -118t-120.5 -335v-141zM573 1237l226 291l14 -12 l-223 -289z" />
<glyph unicode="&#xe2;" horiz-adv-x="1232" d="M180 2v612q0 153 60.5 261.5t160.5 160t230 51.5q87 0 161 -26.5t133.5 -80t93.5 -144.5t34 -211v-623h-21v451h-831v-451h-21zM201 473h831v148q0 114 -31.5 201t-87 139.5t-127 79t-155.5 26.5q-189 0 -309.5 -118t-120.5 -335v-141zM338 1266l278 225h9l272 -225 l-14 -15l-262 217l-267 -217z" />
<glyph unicode="&#xe3;" horiz-adv-x="1232" d="M180 2v612q0 153 60.5 261.5t160.5 160t230 51.5q87 0 161 -26.5t133.5 -80t93.5 -144.5t34 -211v-623h-21v451h-831v-451h-21zM201 473h831v148q0 114 -31.5 201t-87 139.5t-127 79t-155.5 26.5q-189 0 -309.5 -118t-120.5 -335v-141zM332 1317q104 84 178 84 q32 0 63 -16t52 -34.5t49.5 -34.5t56.5 -16q64 0 158 89l14 -15q-102 -94 -176 -94q-30 0 -60 15.5t-51 34.5t-51 34.5t-61 15.5q-65 0 -160 -77z" />
<glyph unicode="&#xe4;" horiz-adv-x="1232" d="M180 2v612q0 153 60.5 261.5t160.5 160t230 51.5q87 0 161 -26.5t133.5 -80t93.5 -144.5t34 -211v-623h-21v451h-831v-451h-21zM201 473h831v148q0 114 -31.5 201t-87 139.5t-127 79t-155.5 26.5q-189 0 -309.5 -118t-120.5 -335v-141zM414 1374q0 9 8 17t18 8q9 0 17 -8 t8 -17q0 -10 -8 -18t-17 -8q-10 0 -18 8t-8 18zM770 1374q0 9 8.5 17t18.5 8q9 0 16.5 -8t7.5 -17q0 -10 -7.5 -18t-16.5 -8q-11 0 -19 8t-8 18z" />
<glyph unicode="&#xe5;" horiz-adv-x="1232" d="M180 2v612q0 153 60.5 261.5t160.5 160t230 51.5q87 0 161 -26.5t133.5 -80t93.5 -144.5t34 -211v-623h-21v451h-831v-451h-21zM201 473h831v148q0 114 -31.5 201t-87 139.5t-127 79t-155.5 26.5q-189 0 -309.5 -118t-120.5 -335v-141zM428 1341q0 78 55 134.5t133 56.5 t134.5 -56.5t56.5 -134.5t-56.5 -133t-134.5 -55t-133 55t-55 133zM449 1341q0 -71 48.5 -119t118.5 -48q71 0 120.5 48.5t49.5 118.5q0 71 -50 120.5t-120 49.5t-118.5 -49.5t-48.5 -120.5z" />
<glyph unicode="&#xe6;" horiz-adv-x="1597" d="M14 0l346 453l478 622h612v-20h-594v-496h545v-20h-545v-519h610v-20h-630v432h-467l-330 -432h-25zM385 453h451v587z" />
<glyph unicode="&#xe7;" horiz-adv-x="825" d="M98 539q0 151 77 277t210.5 198.5t294.5 72.5v-20q-238 0 -399.5 -153t-161.5 -375q0 -118 45 -218.5t122.5 -168.5t183.5 -106t226 -38v-20q-88 0 -180 20v-131q197 -3 197 -143q0 -64 -56 -104t-149 -40q-76 0 -160 41l8 19q79 -39 152 -39q81 0 132.5 33.5t51.5 89.5 q0 123 -184 123h-12v157q-181 54 -289.5 192t-108.5 333z" />
<glyph unicode="&#xe8;" horiz-adv-x="952" d="M131 287q0 106 79.5 183.5t215.5 92.5v4q-116 18 -183 89.5t-67 160.5q0 130 85.5 202.5t248.5 72.5q98 0 187.5 -48t125.5 -124l-14 -9q-37 67 -118 113.5t-187 46.5q-145 0 -226 -64.5t-81 -185.5q0 -74 46 -132t113.5 -86t141.5 -28h98v-20h-109q-138 0 -236.5 -74.5 t-98.5 -189.5q0 -128 95 -207.5t265 -79.5q134 0 221 57.5t121 151.5l16 -4q-27 -95 -121.5 -160t-238.5 -65q-173 0 -276 82.5t-103 220.5zM307 1516l15 12l225 -291l-17 -10z" />
<glyph unicode="&#xe9;" horiz-adv-x="952" d="M131 287q0 106 79.5 183.5t215.5 92.5v4q-116 18 -183 89.5t-67 160.5q0 130 85.5 202.5t248.5 72.5q98 0 187.5 -48t125.5 -124l-14 -9q-37 67 -118 113.5t-187 46.5q-145 0 -226 -64.5t-81 -185.5q0 -74 46 -132t113.5 -86t141.5 -28h98v-20h-109q-138 0 -236.5 -74.5 t-98.5 -189.5q0 -128 95 -207.5t265 -79.5q134 0 221 57.5t121 151.5l16 -4q-27 -95 -121.5 -160t-238.5 -65q-173 0 -276 82.5t-103 220.5zM451 1237l225 291l14 -12l-223 -289z" />
<glyph unicode="&#xea;" horiz-adv-x="952" d="M131 287q0 106 79.5 183.5t215.5 92.5v4q-116 18 -183 89.5t-67 160.5q0 130 85.5 202.5t248.5 72.5q98 0 187.5 -48t125.5 -124l-14 -9q-37 67 -118 113.5t-187 46.5q-145 0 -226 -64.5t-81 -185.5q0 -74 46 -132t113.5 -86t141.5 -28h98v-20h-109q-138 0 -236.5 -74.5 t-98.5 -189.5q0 -128 95 -207.5t265 -79.5q134 0 221 57.5t121 151.5l16 -4q-27 -95 -121.5 -160t-238.5 -65q-173 0 -276 82.5t-103 220.5zM182 1266l279 225h8l272 -225l-14 -15l-262 217l-266 -217z" />
<glyph unicode="&#xeb;" horiz-adv-x="952" d="M131 287q0 106 79.5 183.5t215.5 92.5v4q-116 18 -183 89.5t-67 160.5q0 130 85.5 202.5t248.5 72.5q98 0 187.5 -48t125.5 -124l-14 -9q-37 67 -118 113.5t-187 46.5q-145 0 -226 -64.5t-81 -185.5q0 -74 46 -132t113.5 -86t141.5 -28h98v-20h-109q-138 0 -236.5 -74.5 t-98.5 -189.5q0 -128 95 -207.5t265 -79.5q134 0 221 57.5t121 151.5l16 -4q-27 -95 -121.5 -160t-238.5 -65q-173 0 -276 82.5t-103 220.5zM268 1374q0 9 8.5 17t18.5 8q9 0 16.5 -8t7.5 -17q0 -10 -7.5 -18t-16.5 -8q-11 0 -19 8t-8 18zM625 1374q0 9 8 17t18 8q9 0 17 -8 t8 -17q0 -10 -8 -18t-17 -8q-11 0 -18.5 8t-7.5 18z" />
<glyph unicode="&#xec;" horiz-adv-x="772" d="M49 0v20h326v1035h-326v20h674v-20h-328v-1035h328v-20h-674zM225 1516l15 12l225 -291l-16 -10z" />
<glyph unicode="&#xed;" horiz-adv-x="772" d="M49 0v20h326v1035h-326v20h674v-20h-328v-1035h328v-20h-674zM348 1237l225 291l15 -12l-223 -289z" />
<glyph unicode="&#xee;" horiz-adv-x="772" d="M49 0v20h326v1035h-326v20h674v-20h-328v-1035h328v-20h-674zM106 1266l279 225h8l273 -225l-15 -15l-262 217l-266 -217z" />
<glyph unicode="&#xef;" horiz-adv-x="772" d="M49 0v20h326v1035h-326v20h674v-20h-328v-1035h328v-20h-674zM182 1374q0 9 8.5 17t18.5 8q9 0 16.5 -8t7.5 -17q0 -10 -7.5 -18t-16.5 -8q-11 0 -19 8t-8 18zM539 1374q0 9 8 17t18 8q9 0 17 -8t8 -17q0 -10 -8 -18t-17 -8q-11 0 -18.5 8t-7.5 18z" />
<glyph unicode="&#xf0;" horiz-adv-x="1251" d="M16 543v20h228v512h16q44 0 118 2t132 2q134 0 242.5 -28t182.5 -76t123.5 -115t72 -143t22.5 -162q0 -117 -42 -218t-121.5 -177.5t-206.5 -120t-287 -43.5q-47 0 -124.5 2t-119.5 2h-8v543h-228zM264 20l234 -4q155 0 278 42.5t200 117t117 171t40 208.5 q0 83 -21.5 156t-69.5 137.5t-120 111t-178 73t-238 26.5q-58 0 -130.5 -2t-111.5 -2v-492h348v-20h-348v-523z" />
<glyph unicode="&#xf1;" horiz-adv-x="1288" d="M197 0v1075h20v-176l854 -706v882h21v-1075h-21v162l-854 710v-872h-20zM358 1317q104 84 179 84q32 0 63 -16t52 -34.5t49.5 -34.5t56.5 -16q63 0 157 89l15 -15q-102 -94 -176 -94q-30 0 -60 15.5t-51 34.5t-51.5 34.5t-61.5 15.5q-64 0 -159 -77z" />
<glyph unicode="&#xf2;" d="M98 539q0 115 43.5 216.5t118 174.5t178.5 115t221 42q156 0 285 -71.5t203 -197.5t74 -279q0 -234 -162 -392.5t-400 -158.5t-399.5 158.5t-161.5 392.5zM119 539q0 -149 71 -271t194.5 -191t274.5 -69t275 69t195 191t71 271q0 225 -156 376.5t-385 151.5 t-384.5 -151.5t-155.5 -376.5zM471 1516l14 12l226 -291l-17 -10zM625 539l34 32l35 -32l-35 -33z" />
<glyph unicode="&#xf3;" d="M98 539q0 115 43.5 216.5t118 174.5t178.5 115t221 42q156 0 285 -71.5t203 -197.5t74 -279q0 -234 -162 -392.5t-400 -158.5t-399.5 158.5t-161.5 392.5zM119 539q0 -149 71 -271t194.5 -191t274.5 -69t275 69t195 191t71 271q0 225 -156 376.5t-385 151.5 t-384.5 -151.5t-155.5 -376.5zM594 1237l225 291l15 -12l-224 -289zM625 539l34 32l35 -32l-35 -33z" />
<glyph unicode="&#xf4;" d="M98 539q0 115 43.5 216.5t118 174.5t178.5 115t221 42q156 0 285 -71.5t203 -197.5t74 -279q0 -234 -162 -392.5t-400 -158.5t-399.5 158.5t-161.5 392.5zM119 539q0 -149 71 -271t194.5 -191t274.5 -69t275 69t195 191t71 271q0 225 -156 376.5t-385 151.5 t-384.5 -151.5t-155.5 -376.5zM381 1266l278 225h9l272 -225l-14 -15l-262 217l-267 -217zM625 539l34 32l35 -32l-35 -33z" />
<glyph unicode="&#xf5;" d="M98 539q0 115 43.5 216.5t118 174.5t178.5 115t221 42q156 0 285 -71.5t203 -197.5t74 -279q0 -234 -162 -392.5t-400 -158.5t-399.5 158.5t-161.5 392.5zM119 539q0 -149 71 -271t194.5 -191t274.5 -69t275 69t195 191t71 271q0 225 -156 376.5t-385 151.5 t-384.5 -151.5t-155.5 -376.5zM375 1317q104 84 178 84q32 0 63 -16t52 -34.5t49.5 -34.5t56.5 -16q64 0 158 89l14 -15q-102 -94 -176 -94q-30 0 -60 15.5t-51 34.5t-51 34.5t-61 15.5q-65 0 -160 -77zM625 539l34 32l35 -32l-35 -33z" />
<glyph unicode="&#xf6;" d="M98 539q0 115 43.5 216.5t118 174.5t178.5 115t221 42q156 0 285 -71.5t203 -197.5t74 -279q0 -234 -162 -392.5t-400 -158.5t-399.5 158.5t-161.5 392.5zM119 539q0 -149 71 -271t194.5 -191t274.5 -69t275 69t195 191t71 271q0 225 -156 376.5t-385 151.5 t-384.5 -151.5t-155.5 -376.5zM457 1374q0 9 8 17t18 8q9 0 17 -8t8 -17q0 -10 -8 -18t-17 -8q-11 0 -18.5 8t-7.5 18zM625 539l34 32l35 -32l-35 -33zM813 1374q0 9 8.5 17t18.5 8q9 0 16.5 -8t7.5 -17q0 -10 -7.5 -18t-16.5 -8q-11 0 -19 8t-8 18z" />
<glyph unicode="&#xf7;" horiz-adv-x="1196" d="M154 727v21h888v-21h-888zM573 291q0 9 8.5 16.5t18.5 7.5q9 0 17 -7.5t8 -16.5q0 -10 -8 -18.5t-17 -8.5q-10 0 -18.5 8t-8.5 19zM573 1186q0 9 8.5 16.5t18.5 7.5q9 0 17 -7.5t8 -16.5q0 -10 -8 -18.5t-17 -8.5q-10 0 -18.5 8.5t-8.5 18.5z" />
<glyph unicode="&#xf8;" d="M98 539q0 115 43.5 216.5t118 174.5t178.5 115t221 42q121 0 227.5 -44.5t184.5 -124.5l137 133l13 -13l-138 -135q138 -154 138 -364q0 -234 -162 -392.5t-400 -158.5q-217 0 -374 135l-129 -125l-15 14l127 125q-80 75 -125 179t-45 223zM119 539q0 -115 43 -215 t121 -172l774 751q-75 77 -178.5 120.5t-219.5 43.5q-229 0 -384.5 -151.5t-155.5 -376.5zM299 137q148 -129 360 -129q151 0 275 69t195 191t71 271q0 203 -131 350z" />
<glyph unicode="&#xf9;" horiz-adv-x="1232" d="M180 463v612h21v-612q0 -215 120.5 -334t309.5 -119q84 0 155.5 26.5t127 79.5t87 140.5t31.5 202.5v616h21v-622q0 -119 -34 -210t-93 -145t-133.5 -81t-161.5 -27q-129 0 -229.5 52t-161 160.5t-60.5 260.5zM430 1516l14 12l226 -291l-17 -10z" />
<glyph unicode="&#xfa;" horiz-adv-x="1232" d="M180 463v612h21v-612q0 -215 120.5 -334t309.5 -119q84 0 155.5 26.5t127 79.5t87 140.5t31.5 202.5v616h21v-622q0 -119 -34 -210t-93 -145t-133.5 -81t-161.5 -27q-129 0 -229.5 52t-161 160.5t-60.5 260.5zM553 1237l225 291l15 -12l-224 -289z" />
<glyph unicode="&#xfb;" horiz-adv-x="1232" d="M180 463v612h21v-612q0 -215 120.5 -334t309.5 -119q84 0 155.5 26.5t127 79.5t87 140.5t31.5 202.5v616h21v-622q0 -119 -34 -210t-93 -145t-133.5 -81t-161.5 -27q-129 0 -229.5 52t-161 160.5t-60.5 260.5zM338 1266l278 225h9l272 -225l-14 -15l-262 217l-267 -217z " />
<glyph unicode="&#xfc;" horiz-adv-x="1232" d="M180 463v612h21v-612q0 -215 120.5 -334t309.5 -119q84 0 155.5 26.5t127 79.5t87 140.5t31.5 202.5v616h21v-622q0 -119 -34 -210t-93 -145t-133.5 -81t-161.5 -27q-129 0 -229.5 52t-161 160.5t-60.5 260.5zM414 1374q0 9 8 17t18 8q9 0 17 -8t8 -17q0 -10 -8 -18 t-17 -8q-10 0 -18 8t-8 18zM770 1374q0 9 8.5 17t18.5 8q9 0 16.5 -8t7.5 -17q0 -10 -7.5 -18t-16.5 -8q-11 0 -19 8t-8 18z" />
<glyph unicode="&#xfd;" horiz-adv-x="1009" d="M0 1055v20q91 0 178 -62.5t151.5 -163t110.5 -220t66 -238.5q13 106 61.5 226t116.5 222t155.5 169t170.5 67v-20q-66 0 -136 -45.5t-128.5 -120t-108 -165.5t-81 -186.5t-40.5 -177.5v-360h-20v360q-16 93 -47 188t-77.5 186.5t-102 162.5t-126 114.5t-143.5 43.5z M471 1237l225 291l15 -12l-224 -289z" />
<glyph unicode="&#xfe;" horiz-adv-x="931" d="M197 0v1075h20v-168q37 0 122.5 1t106.5 1q89 0 158 -18t111.5 -48t70 -71t38 -83.5t10.5 -90.5q0 -62 -22 -116.5t-67.5 -100t-126 -72t-186.5 -26.5q-114 0 -215 8v-291h-20zM217 311q99 -8 213 -8q190 0 286.5 83t96.5 214q0 129 -88 209t-276 80q-179 0 -232 -2v-576 z" />
<glyph unicode="&#xff;" horiz-adv-x="1009" d="M0 1055v20q91 0 178 -62.5t151.5 -163t110.5 -220t66 -238.5q13 106 61.5 226t116.5 222t155.5 169t170.5 67v-20q-66 0 -136 -45.5t-128.5 -120t-108 -165.5t-81 -186.5t-40.5 -177.5v-360h-20v360q-16 93 -47 188t-77.5 186.5t-102 162.5t-126 114.5t-143.5 43.5z M301 1374q0 9 8.5 17t18.5 8q9 0 16.5 -8t7.5 -17q0 -10 -7.5 -18t-16.5 -8q-11 0 -19 8t-8 18zM657 1374q0 9 8.5 17t18.5 8q9 0 17 -8t8 -17q0 -10 -8 -18t-17 -8q-11 0 -19 8t-8 18z" />
<glyph unicode="&#x131;" horiz-adv-x="772" d="M49 0v20h326v1035h-326v20h674v-20h-328v-1035h328v-20h-674z" />
<glyph unicode="&#x152;" horiz-adv-x="1736" d="M98 539q0 153 68 277.5t193.5 197.5t285.5 73q196 0 330 -86v74h614v-20h-594v-496h545v-20h-545v-519h611v-20h-631v72q-127 -84 -311 -84q-254 0 -410 150.5t-156 400.5zM119 539q0 -240 151 -385.5t394 -145.5q186 0 311 92v879q-123 88 -328 88q-156 0 -277.5 -70.5 t-186 -190.5t-64.5 -267z" />
<glyph unicode="&#x153;" horiz-adv-x="1736" d="M98 539q0 153 68 277.5t193.5 197.5t285.5 73q196 0 330 -86v74h614v-20h-594v-496h545v-20h-545v-519h611v-20h-631v72q-127 -84 -311 -84q-254 0 -410 150.5t-156 400.5zM119 539q0 -240 151 -385.5t394 -145.5q186 0 311 92v879q-123 88 -328 88q-156 0 -277.5 -70.5 t-186 -190.5t-64.5 -267z" />
<glyph unicode="&#x178;" horiz-adv-x="919" d="M82 918v157h20v-157q0 -176 100 -285t259 -109q158 0 257 109t99 287v155h21v-155q0 -183 -103 -298t-264 -118v-504h-20v504q-163 3 -266 117.5t-103 296.5zM258 1374q0 9 8.5 17t18.5 8q9 0 16.5 -8t7.5 -17q0 -10 -7.5 -18t-16.5 -8q-11 0 -19 8t-8 18zM614 1374 q0 9 8.5 17t18.5 8q9 0 17 -8t8 -17q0 -10 -8 -18t-17 -8q-11 0 -19 8t-8 18z" />
<glyph unicode="&#x192;" horiz-adv-x="1196" d="M-29 -375l13 19q66 -50 151 -50q139 0 208 83t101 260l174 964h-374v21h379l26 149q36 196 117.5 287.5t232.5 91.5q133 0 226 -72l-13 -18q-95 70 -213 70q-143 0 -217.5 -87.5t-111.5 -289.5l-25 -131h404v-21h-408l-176 -969q-16 -89 -40.5 -152.5t-63 -111t-94.5 -71 t-132 -23.5q-94 0 -164 51z" />
<glyph unicode="&#x2c6;" horiz-adv-x="804" d="M123 1266l278 225h9l272 -225l-14 -15l-262 217l-267 -217z" />
<glyph unicode="&#x2c7;" horiz-adv-x="763" d="M123 1477l14 14l246 -217l242 217l16 -14l-254 -226h-8z" />
<glyph unicode="&#x2d8;" horiz-adv-x="772" d="M123 1462l14 13q17 -22 29 -35.5t38 -36.5t50 -36.5t60.5 -24.5t74.5 -11q133 0 246 144l14 -13q-112 -151 -260 -151q-164 0 -266 151z" />
<glyph unicode="&#x2d9;" horiz-adv-x="296" d="M123 1378q0 9 8.5 17t18.5 8q9 0 16.5 -8t7.5 -17q0 -10 -7.5 -18t-16.5 -8q-11 0 -19 8t-8 18z" />
<glyph unicode="&#x2da;" horiz-adv-x="624" d="M123 1341q0 78 55 134.5t133 56.5t134.5 -56.5t56.5 -134.5t-56.5 -133t-134.5 -55t-133 55t-55 133zM143 1341q0 -70 48.5 -118.5t119.5 -48.5t120.5 48.5t49.5 118.5q0 71 -49.5 120.5t-120.5 49.5q-70 0 -119 -49.5t-49 -120.5z" />
<glyph unicode="&#x2db;" horiz-adv-x="557" d="M123 -225q0 105 94 175t211 70v-20q-69 0 -133.5 -27.5t-108 -80t-43.5 -117.5q0 -38 14 -68.5t34.5 -48t47.5 -28.5t49 -15t42 -4q59 0 98 18l6 -18q-52 -21 -106 -21q-33 0 -65.5 8.5t-65.5 28t-53.5 58t-20.5 90.5z" />
<glyph unicode="&#x2dc;" horiz-adv-x="817" d="M123 1317q104 84 178 84q32 0 63 -16t52 -34.5t49.5 -34.5t56.5 -16q64 0 158 89l14 -15q-102 -94 -176 -94q-30 0 -60 15.5t-51 34.5t-51 34.5t-61 15.5q-65 0 -160 -77z" />
<glyph unicode="&#x2dd;" horiz-adv-x="772" d="M123 1237l225 291l14 -12l-223 -289zM410 1237l225 291l14 -12l-223 -289z" />
<glyph unicode="&#x3a9;" horiz-adv-x="1646" d="M123 717q0 205 92 373t252.5 264t355.5 96t355.5 -96t253 -264t92.5 -373q0 -247 -131 -436.5t-344 -260.5h397v-20h-473v20q234 51 382 243t148 454q0 150 -52.5 282.5t-143 227t-216.5 149t-268 54.5t-268 -54.5t-216.5 -149t-143 -227t-52.5 -282.5q0 -262 147.5 -454 t381.5 -243v-20h-473v20h397q-212 71 -342.5 261t-130.5 436z" />
<glyph unicode="&#x3c0;" horiz-adv-x="1333" d="M82 0v20q65 0 112.5 32t83.5 107t54 208.5t18 326.5v207h-235v21h1104v-21h-236v-684q0 -112 24 -157.5t93 -45.5q34 0 73.5 14.5t65.5 34.5l12 -18q-70 -51 -151 -51q-72 0 -104.5 45.5t-32.5 146.5v715h-592v-188q0 -171 -14 -297.5t-38.5 -205.5t-62 -126.5t-79 -65.5 t-95.5 -18z" />
<glyph unicode="&#x401;" horiz-adv-x="796" d="M197 0v1075h485v-20h-465v-496h399v-20h-399v-519h465v-20h-485zM231 1374q0 9 8.5 17t18.5 8q9 0 17 -8t8 -17q0 -10 -8 -18t-17 -8q-11 0 -19 8t-8 18zM588 1374q0 9 8 17t18 8q9 0 17 -8t8 -17q0 -10 -8 -18t-17 -8q-10 0 -18 8t-8 18z" />
<glyph unicode="&#x402;" horiz-adv-x="1241" d="M16 1055v20h934v-20h-456v-510q49 32 80.5 49t97 36t135.5 19q336 0 336 -334q0 -173 -72 -250t-194 -77q-37 0 -75 13.5t-57 25.5l13 18q51 -37 121 -37q113 0 178 75t65 232q0 163 -80 238.5t-239 75.5q-45 0 -84 -6t-76 -21t-54 -22.5t-54.5 -30.5t-40.5 -25v-524h-21 v1055h-457z" />
<glyph unicode="&#x403;" horiz-adv-x="690" d="M197 0v1075h493v-20h-473v-1055h-20zM389 1237l225 291l15 -12l-223 -289z" />
<glyph unicode="&#x404;" horiz-adv-x="811" d="M98 539q0 151 77 277t210.5 198.5t294.5 72.5v-20q-233 0 -393 -146.5t-168 -361.5h485v-20h-485q0 -118 45 -218.5t122.5 -168.5t183.5 -106t226 -38v-20q-168 0 -303.5 67t-215 193.5t-79.5 290.5z" />
<glyph unicode="&#x405;" horiz-adv-x="598" d="M131 819q0 105 72 176t186 92l-4 -20q-104 -23 -168.5 -87t-64.5 -159q0 -53 17.5 -96t45 -74t61.5 -59.5t67.5 -58.5t61 -64.5t45 -85t17.5 -111.5q0 -60 -28 -111.5t-74 -86.5t-99 -57t-108 -29v20q46 7 93 26t92.5 50t74 80t28.5 108q0 57 -17.5 104.5t-45 81 t-61 63.5t-67.5 59.5t-61.5 62t-45 77.5t-17.5 99z" />
<glyph unicode="&#x406;" horiz-adv-x="772" d="M49 0v20h326v1035h-326v20h674v-20h-328v-1035h328v-20h-674z" />
<glyph unicode="&#x407;" horiz-adv-x="772" d="M49 0v20h326v1035h-326v20h674v-20h-328v-1035h328v-20h-674zM182 1374q0 9 8.5 17t18.5 8q9 0 16.5 -8t7.5 -17q0 -10 -7.5 -18t-16.5 -8q-11 0 -19 8t-8 18zM539 1374q0 9 8 17t18 8q9 0 17 -8t8 -17q0 -10 -8 -18t-17 -8q-11 0 -18.5 8t-7.5 18z" />
<glyph unicode="&#x408;" horiz-adv-x="432" d="M-63 -223q278 0 278 295v1003h21v-1001q0 -318 -299 -318v21z" />
<glyph unicode="&#x409;" horiz-adv-x="1714" d="M49 0v20q239 0 303 840l17 215h616v-459q123 9 203 9q215 0 321.5 -79t106.5 -224q0 -161 -115.5 -243.5t-320.5 -82.5q-42 0 -113 2t-102 2v1055h-576l-16 -203q-13 -165 -33 -297.5t-41.5 -219.5t-49.5 -151.5t-52 -99t-53 -54.5t-49.5 -25t-45.5 -5zM985 20 q26 0 90 -2t107 -2q201 0 307 78.5t106 229.5q0 133 -103 206.5t-302 73.5q-96 0 -205 -8v-576z" />
<glyph unicode="&#x40a;" horiz-adv-x="1787" d="M197 0v1075h20v-475h821v475h21v-475q109 8 203 8q216 0 322 -75.5t106 -217.5q0 -161 -115 -240t-322 -79q-38 0 -102 2t-92 2h-21v580h-821v-580h-20zM1059 20q26 0 89.5 -2t106.5 -2q202 0 308 75.5t106 223.5q0 132 -102.5 203.5t-302.5 71.5q-102 0 -205 -10v-560z " />
<glyph unicode="&#x40b;" horiz-adv-x="1241" d="M16 1055v20h934v-20h-456v-512q149 106 331 106q152 0 235 -84t83 -260v-305h-21v309q0 157 -78 238.5t-225 81.5q-56 0 -105.5 -9.5t-94.5 -30t-65.5 -32t-59.5 -35.5v-522h-21v1055h-457z" />
<glyph unicode="&#x40c;" horiz-adv-x="1007" d="M197 0v1075h20v-1075h-20zM307 561l592 514h27l-588 -514l369 -377q106 -107 171.5 -144.5t106.5 -19.5v-20q-15 -6 -31.5 -6.5t-32.5 3.5t-35 13t-35 19t-35.5 25t-33.5 27.5t-32.5 30t-30 29l-27.5 27.5zM471 1237l225 291l15 -12l-224 -289z" />
<glyph unicode="&#x40e;" horiz-adv-x="1124" d="M33 1075h24l561 -848l451 848h23l-578 -1087h-22l114 219zM338 1311h20q0 -87 61.5 -136t168.5 -49q102 0 161.5 49t59.5 136h20q0 -96 -67.5 -150.5t-173.5 -54.5q-115 0 -182.5 54t-67.5 151z" />
<glyph unicode="&#x40f;" horiz-adv-x="1253" d="M197 0v1075h20v-1055h819v1055h21v-1075h-420v-246h-21v246h-419z" />
<glyph unicode="&#x410;" horiz-adv-x="1052" d="M197 0v1087h18l823 -1087h-26l-330 432h-465v-432h-20zM217 453h451l-451 594v-594z" />
<glyph unicode="&#x411;" horiz-adv-x="704" d="M197 0v1075h348v-20h-328v-389q97 -6 173 -35.5t122.5 -74.5t70 -100t23.5 -116q0 -47 -13 -93.5t-42.5 -91.5t-73.5 -79t-110.5 -55t-147.5 -21h-22zM217 20q90 0 162 27t116 72.5t67.5 101.5t23.5 117q0 127 -96.5 212t-272.5 95v-625z" />
<glyph unicode="&#x412;" horiz-adv-x="753" d="M197 0v1075h49q92 0 161 -21.5t107.5 -59.5t57 -83t18.5 -98q0 -72 -41.5 -130t-99 -88.5t-119.5 -37.5v-2q138 -12 215.5 -80t77.5 -184q0 -133 -105.5 -212t-277.5 -79h-43zM217 20h21q170 0 267 76.5t97 196.5q0 114 -92.5 182t-269.5 68h-23v-523zM217 563h35 q131 0 224 70t93 182q0 108 -82 174t-239 66h-31v-492z" />
<glyph unicode="&#x413;" horiz-adv-x="690" d="M197 0v1075h493v-20h-473v-1055h-20z" />
<glyph unicode="&#x414;" horiz-adv-x="1204" d="M66 20h155v1067h19l813 -1067h118v-235h-20v215h-1065v-215h-20v235zM242 20h784l-784 1027v-1027z" />
<glyph unicode="&#x415;" horiz-adv-x="796" d="M197 0v1075h485v-20h-465v-496h399v-20h-399v-519h465v-20h-485z" />
<glyph unicode="&#x416;" horiz-adv-x="1466" d="M31 0v20q52 -17 99 18t132 131q4 5 7 8t7 7.5t7 8.5l327 366l-528 516h29l524 -514l-338 -381q-102 -114 -131 -139q-64 -56 -122 -44q-6 1 -13 3zM723 0v1075h20v-1075h-20zM831 559l525 516h28l-528 -514l340 -379q5 -6 16 -18q19 -22 29 -33t28 -30t29 -28.5t27.5 -23 t29 -19t27.5 -11t29.5 -5t28.5 5.5v-20q-41 -12 -85.5 10t-73 50t-90.5 98q-7 8 -11 12z" />
<glyph unicode="&#x417;" horiz-adv-x="673" d="M115 8q184 0 295.5 80.5t111.5 212.5q0 105 -83 172.5t-187 67.5h-78v18h57q92 0 169 71.5t77 176.5q0 79 -49.5 139.5t-126.5 90.5t-166 30v20q155 0 259 -79t104 -205q0 -80 -51 -148t-140 -98v-6q99 -10 167.5 -83.5t68.5 -166.5q0 -145 -120.5 -229t-307.5 -84v20z " />
<glyph unicode="&#x418;" horiz-adv-x="1312" d="M197 -12v1087h20v-1032l899 1044v-1087h-20v1032z" />
<glyph unicode="&#x419;" horiz-adv-x="1312" d="M197 -12v1087h20v-1032l899 1044v-1087h-20v1032zM408 1311h20q0 -87 61.5 -136t167.5 -49q102 0 162 49t60 136h20q0 -96 -68 -150.5t-174 -54.5q-115 0 -182 54t-67 151z" />
<glyph unicode="&#x41a;" horiz-adv-x="1007" d="M197 0v1075h20v-1075h-20zM307 561l592 514h27l-588 -514l369 -377q106 -107 171.5 -144.5t106.5 -19.5v-20q-15 -6 -31.5 -6.5t-32.5 3.5t-35 13t-35 19t-35.5 25t-33.5 27.5t-32.5 30t-30 29l-27.5 27.5z" />
<glyph unicode="&#x41b;" horiz-adv-x="1052" d="M197 0v1087h18l823 -1087h-26l-795 1047v-1047h-20z" />
<glyph unicode="&#x41c;" horiz-adv-x="1607" d="M197 0v1075h16l657 -1034v1034h15l708 -1075h-24l-678 1026v-1026h-17l-657 1028v-1028h-20z" />
<glyph unicode="&#x41d;" horiz-adv-x="1370" d="M197 0v1075h20v-516h936v516h21v-1075h-21v539h-936v-539h-20z" />
<glyph unicode="&#x41e;" d="M98 539q0 115 43.5 216.5t118 174.5t178.5 115t221 42q156 0 285 -71.5t203 -197.5t74 -279q0 -234 -162 -392.5t-400 -158.5t-399.5 158.5t-161.5 392.5zM119 539q0 -149 71 -271t194.5 -191t274.5 -69t275 69t195 191t71 271q0 225 -156 376.5t-385 151.5 t-384.5 -151.5t-155.5 -376.5zM625 539l34 32l35 -32l-35 -33z" />
<glyph unicode="&#x41f;" horiz-adv-x="1353" d="M197 0v1075h960v-1075h-20v1055h-920v-1055h-20z" />
<glyph unicode="&#x420;" horiz-adv-x="704" d="M197 0v1075h22q101 0 178.5 -29t121.5 -77t65.5 -103t21.5 -114q0 -61 -23.5 -118.5t-69.5 -106t-122.5 -80.5t-173.5 -37v-410h-20zM217 430q175 10 272 101.5t97 222.5q0 127 -96 214t-273 87v-625z" />
<glyph unicode="&#x421;" horiz-adv-x="825" d="M98 539q0 151 77 277t210.5 198.5t294.5 72.5v-20q-238 0 -399.5 -153t-161.5 -375q0 -118 45 -218.5t122.5 -168.5t183.5 -106t226 -38v-20q-168 0 -303.5 67t-215 193.5t-79.5 290.5z" />
<glyph unicode="&#x422;" horiz-adv-x="704" d="M16 1055v20h672v-20h-326v-1055h-20v1055h-326z" />
<glyph unicode="&#x423;" horiz-adv-x="1124" d="M33 1075h24l561 -848l451 848h23l-578 -1087h-22l114 219z" />
<glyph unicode="&#x424;" horiz-adv-x="1320" d="M98 539q0 230 158 386.5t393 161.5v78h21v-78q234 -5 393.5 -162t159.5 -386q0 -153 -73 -278.5t-199.5 -197.5t-280.5 -75v-92h-21v92q-155 3 -281 75t-198 197.5t-72 278.5zM119 539q0 -225 152 -376.5t378 -154.5v1059q-226 -5 -378 -155.5t-152 -372.5zM670 8 q226 3 378 154.5t152 376.5q0 222 -152 372.5t-378 155.5v-1059z" />
<glyph unicode="&#x425;" horiz-adv-x="1071" d="M63 0l459 547l-440 528h27l426 -510l432 510h24l-442 -528l459 -547h-27l-446 530l-445 -530h-27z" />
<glyph unicode="&#x426;" horiz-adv-x="1370" d="M197 0v1075h20v-1055h911v1055h21v-1055h156v-235h-21v215h-1087z" />
<glyph unicode="&#x427;" horiz-adv-x="1009" d="M98 768v307h21v-309q0 -157 85 -239.5t234 -82.5q179 0 355 103v528h20v-1075h-20v526q-62 -40 -160 -71t-199 -31q-155 0 -245.5 85.5t-90.5 258.5z" />
<glyph unicode="&#x428;" horiz-adv-x="1624" d="M197 0v1075h20v-1055h584v1055h20v-1055h586v1055h20v-1075h-1230z" />
<glyph unicode="&#x429;" horiz-adv-x="1648" d="M197 0v1075h20v-1055h584v1055h20v-1055h586v1055h20v-1055h156v-118q0 -126 -70 -196.5t-190 -70.5q-82 0 -174 25t-174 60.5l-164 71t-171 60.5t-167 25q-59 0 -112.5 -21.5t-91.5 -71t-38 -118.5v-31h-20v35q0 74 41 127.5t98.5 77t120.5 23.5q81 0 171 -25 t171.5 -60.5l163 -71t172.5 -60.5t174 -25q111 0 175.5 66t64.5 182v96h-1366z" />
<glyph unicode="&#x42a;" horiz-adv-x="671" d="M0 1055v20h217v-409q97 -5 173 -34.5t122.5 -75t70 -100.5t23.5 -116q0 -47 -13 -93t-43 -91t-73.5 -79.5t-110 -55.5t-147.5 -21h-22v1055h-197zM217 20q90 0 162 27t116 72.5t67.5 101.5t23.5 117q0 127 -96.5 212t-272.5 97v-627z" />
<glyph unicode="&#x42b;" horiz-adv-x="1013" d="M197 0v1075h20v-409q97 -5 173 -34.5t122.5 -75t70 -100.5t23.5 -116q0 -47 -13 -93t-43 -91t-73.5 -79.5t-110 -55.5t-147.5 -21h-22zM217 20q90 0 162 27t116 72.5t67.5 101.5t23.5 117q0 127 -96.5 212t-272.5 97v-627zM797 0v1075h20v-1075h-20z" />
<glyph unicode="&#x42c;" horiz-adv-x="704" d="M197 0v1075h20v-409q97 -5 173 -34.5t122.5 -75t70 -100.5t23.5 -116q0 -47 -13 -93t-43 -91t-73.5 -79.5t-110 -55.5t-147.5 -21h-22zM217 20q90 0 162 27t116 72.5t67.5 101.5t23.5 117q0 127 -96.5 212t-272.5 97v-627z" />
<glyph unicode="&#x42d;" horiz-adv-x="811" d="M115 1067v20q168 0 303.5 -66.5t215 -192.5t79.5 -289q0 -152 -77 -278.5t-210.5 -199.5t-294.5 -73v20q117 0 221.5 42.5t179 114t117.5 169t43 205.5h-485v20h485q-5 153 -84 269.5t-207.5 177.5t-285.5 61z" />
<glyph unicode="&#x42e;" horiz-adv-x="1757" d="M197 0v1075h20v-516h354q6 227 159.5 377.5t383.5 150.5q236 0 390.5 -156.5t154.5 -391.5q0 -236 -154.5 -393.5t-390.5 -157.5q-235 0 -389 157.5t-154 393.5h-354v-539h-20zM592 539q0 -150 66.5 -271t186 -190.5t269.5 -69.5q151 0 271 69.5t186.5 190.5t66.5 271 q0 227 -147.5 377.5t-376.5 150.5q-227 0 -374.5 -150.5t-147.5 -377.5z" />
<glyph unicode="&#x42f;" horiz-adv-x="989" d="M39 0v20q33 -13 70 10t61.5 53t73.5 99q4 5 6 8t5.5 8t6.5 9l176 246q-112 20 -197 104t-85 197q0 145 105 235t300 90q42 0 121 -2t111 -2v-1075h-21v451h-313l-178 -254q-25 -35 -36.5 -51t-31.5 -43t-31 -38.5t-28 -29t-29 -23.5t-27 -12.5t-29.5 -5.5t-29.5 6z M176 752q0 -103 84.5 -184t192.5 -97h319v584q-25 0 -98 2t-117 2q-97 0 -171.5 -24.5t-119.5 -67.5t-67.5 -97.5t-22.5 -117.5z" />
<glyph unicode="&#x430;" horiz-adv-x="1232" d="M180 2v612q0 153 60.5 261.5t160.5 160t230 51.5q87 0 161 -26.5t133.5 -80t93.5 -144.5t34 -211v-623h-21v451h-831v-451h-21zM201 473h831v148q0 114 -31.5 201t-87 139.5t-127 79t-155.5 26.5q-189 0 -309.5 -118t-120.5 -335v-141z" />
<glyph unicode="&#x431;" horiz-adv-x="1146" d="M113 541q0 133 12.5 239t42.5 205.5t87.5 174.5t141.5 120q93 51 185.5 79.5t202.5 49.5t153 33l2 -19q-53 -16 -146.5 -33.5t-183 -43t-180.5 -70.5q-70 -35 -122.5 -90.5t-84 -116t-51.5 -140.5t-28 -150t-11 -158h4q50 139 174 220t273 81q211 0 330.5 -129 t119.5 -340q0 -127 -59.5 -235t-164 -171t-230.5 -63q-210 0 -338.5 149t-128.5 408zM133 543q0 -256 125.5 -397.5t319.5 -141.5q184 0 310 130.5t126 318.5q0 203 -114.5 325.5t-315.5 122.5q-95 0 -177.5 -32.5t-137.5 -85t-90.5 -114.5t-45.5 -126z" />
<glyph unicode="&#x432;" horiz-adv-x="753" d="M197 0v1075h49q92 0 161 -21.5t107.5 -59.5t57 -83t18.5 -98q0 -72 -41.5 -130t-99 -88.5t-119.5 -37.5v-2q138 -12 215.5 -80t77.5 -184q0 -133 -105.5 -212t-277.5 -79h-43zM217 20h21q170 0 267 76.5t97 196.5q0 114 -92.5 182t-269.5 68h-23v-523zM217 563h35 q131 0 224 70t93 182q0 108 -82 174t-239 66h-31v-492z" />
<glyph unicode="&#x433;" horiz-adv-x="690" d="M197 0v1075h493v-20h-473v-1055h-20z" />
<glyph unicode="&#x434;" horiz-adv-x="1255" d="M16 834q26 46 71 88.5t109.5 80.5t155 61t193.5 23q169 0 308.5 -68t221.5 -190t82 -272q0 -112 -42 -211t-121.5 -177t-206.5 -123.5t-285 -45.5h-291v20h168v1031q-120 -28 -210 -90.5t-136 -137.5zM399 20h105q154 0 277 44.5t199.5 120t116.5 170t40 200.5 q0 143 -79 260.5t-216.5 184.5t-304.5 67q-73 0 -138 -12v-1035z" />
<glyph unicode="&#x435;" horiz-adv-x="952" d="M131 287q0 106 79.5 183.5t215.5 92.5v4q-116 18 -183 89.5t-67 160.5q0 130 85.5 202.5t248.5 72.5q98 0 187.5 -48t125.5 -124l-14 -9q-37 67 -118 113.5t-187 46.5q-145 0 -226 -64.5t-81 -185.5q0 -74 46 -132t113.5 -86t141.5 -28h98v-20h-109q-138 0 -236.5 -74.5 t-98.5 -189.5q0 -128 95 -207.5t265 -79.5q134 0 221 57.5t121 151.5l16 -4q-27 -95 -121.5 -160t-238.5 -65q-173 0 -276 82.5t-103 220.5z" />
<glyph unicode="&#x436;" horiz-adv-x="1261" d="M20 0v20q16 -6 30 -8.5t28 1t25.5 7.5t25.5 16.5t24 21.5t27 29t27 33t31 39.5t34 43.5l222 278l-414 441h26l412 -441l-213 -268q-18 -23 -44 -57t-39 -50.5t-32.5 -40t-31.5 -33.5t-30 -22t-33 -14.5t-34 -2t-41 6.5zM621 0v922h20v-922h-20zM743 481l412 441h27 l-414 -441l219 -276q91 -116 125 -147q70 -64 129 -38v-20q-19 -7 -37.5 -7t-34.5 4t-33.5 16.5t-32 24.5t-34 34.5t-34.5 41t-39 48.5q-12 16 -19 24z" />
<glyph unicode="&#x437;" horiz-adv-x="673" d="M115 8q184 0 295.5 80.5t111.5 212.5q0 105 -83 172.5t-187 67.5h-78v18h57q92 0 169 71.5t77 176.5q0 79 -49.5 139.5t-126.5 90.5t-166 30v20q155 0 259 -79t104 -205q0 -80 -51 -148t-140 -98v-6q99 -10 167.5 -83.5t68.5 -166.5q0 -145 -120.5 -229t-307.5 -84v20z " />
<glyph unicode="&#x438;" horiz-adv-x="1288" d="M197 0v1075h20v-874l854 708v166h21v-1075h-21v881l-854 -707v-174h-20z" />
<glyph unicode="&#x439;" horiz-adv-x="1288" d="M197 0v1075h20v-874l854 708v166h21v-1075h-21v881l-854 -707v-174h-20zM397 1311h21q0 -87 61.5 -136t167.5 -49q102 0 161.5 49t59.5 136h21q0 -96 -68 -150.5t-174 -54.5q-115 0 -182.5 54t-67.5 151z" />
<glyph unicode="&#x43a;" horiz-adv-x="966" d="M184 0v922h21v-922h-21zM301 481l524 441h29l-526 -441l305 -295q11 -10 28 -27.5t31.5 -32.5t34 -33t36 -31.5t36 -26t36 -18t34.5 -5.5t34 8l-2 -20q-16 -10 -38 -6.5t-39 8t-39.5 19.5t-39 27.5t-37 32.5t-34 33.5t-30.5 31.5t-26 26z" />
<glyph unicode="&#x43b;" horiz-adv-x="1077" d="M33 0l499 1087l512 -1087h-22l-490 1040l-477 -1040h-22z" />
<glyph unicode="&#x43c;" horiz-adv-x="1366" d="M197 0v1087l493 -487l479 487v-1087h-20v1036l-459 -465l-473 465v-1036h-20z" />
<glyph unicode="&#x43d;" horiz-adv-x="1370" d="M197 0v1075h20v-516h936v516h21v-1075h-21v539h-936v-539h-20z" />
<glyph unicode="&#x43e;" d="M98 539q0 115 43.5 216.5t118 174.5t178.5 115t221 42q156 0 285 -71.5t203 -197.5t74 -279q0 -234 -162 -392.5t-400 -158.5t-399.5 158.5t-161.5 392.5zM119 539q0 -149 71 -271t194.5 -191t274.5 -69t275 69t195 191t71 271q0 225 -156 376.5t-385 151.5 t-384.5 -151.5t-155.5 -376.5zM625 539l34 32l35 -32l-35 -33z" />
<glyph unicode="&#x43f;" horiz-adv-x="1353" d="M197 0v1075h960v-1075h-20v1055h-920v-1055h-20z" />
<glyph unicode="&#x440;" horiz-adv-x="931" d="M195 0v717q0 87 23 154.5t58.5 107t82 65t88 34.5t83.5 9q86 0 153 -29.5t105.5 -77.5t58 -102.5t19.5 -111.5q0 -79 -28 -142.5t-75 -103t-106 -60t-125 -20.5q-135 0 -219 58l11 16q84 -53 213 -53q56 0 108.5 17.5t98.5 52.5t74 96t28 139q0 123 -86 212t-230 89 q-46 0 -89 -11t-84.5 -37t-72.5 -65t-50 -100.5t-19 -138.5v-715h-20z" />
<glyph unicode="&#x441;" horiz-adv-x="825" d="M98 539q0 151 77 277t210.5 198.5t294.5 72.5v-20q-238 0 -399.5 -153t-161.5 -375q0 -118 45 -218.5t122.5 -168.5t183.5 -106t226 -38v-20q-168 0 -303.5 67t-215 193.5t-79.5 290.5z" />
<glyph unicode="&#x442;" horiz-adv-x="1067" d="M0 889v24q0 83 64 128.5t145 45.5q79 0 167 -23.5t155 -51t156 -51t169 -23.5q93 0 142 35.5t49 118.5v10h20v-12q0 -92 -54 -132t-157 -40q-54 0 -113 11t-98.5 23.5t-101.5 34.5v-987h-21v995q-63 23 -103 36t-98 24.5t-110 11.5q-74 0 -132.5 -41t-58.5 -115v-22h-20z " />
<glyph unicode="&#x443;" horiz-adv-x="1261" d="M-96 926q24 65 103.5 113t195.5 48q99 0 185 -41t145.5 -109.5t102.5 -158.5t61.5 -188t16 -199t-27.5 -190q23 51 58 133.5t61 146t63.5 143.5t70 139.5t75 120.5t84 100.5t92.5 64.5t104 26v-20q-37 0 -74.5 -16t-69.5 -38.5t-66.5 -64t-60 -76t-57.5 -92.5 t-51.5 -94.5t-48 -101t-40.5 -94t-37 -91t-31 -74.5q-43 -102 -82.5 -168t-80 -99.5t-77.5 -45.5t-86 -12q-168 0 -225 159l20 11q23 -80 81 -115t124 -35q48 0 91.5 19t83.5 61t63.5 120t23.5 183q0 169 -45 303t-118 213t-157.5 119.5t-172.5 40.5q-110 0 -182 -45.5 t-99 -108.5z" />
<glyph unicode="&#x444;" horiz-adv-x="1316" d="M66 569q0 158 102.5 259.5t265.5 101.5q60 0 119 -21.5t96 -58.5v237h21v-235q39 37 96 57.5t117 20.5q163 0 265.5 -101.5t102.5 -259.5q0 -157 -102 -257.5t-266 -100.5q-61 0 -118.5 19t-94.5 55v-297h-21v301q-91 -78 -215 -78q-163 0 -265.5 101t-102.5 257zM86 569 q0 -149 96.5 -243.5t253.5 -94.5q131 0 213 82v512q-39 40 -96.5 62t-116.5 22q-157 0 -253.5 -95t-96.5 -245zM670 311q77 -80 213 -80q156 0 252 94t96 244t-96 245t-252 95q-63 0 -119.5 -21.5t-93.5 -62.5v-514z" />
<glyph unicode="&#x445;" horiz-adv-x="1071" d="M63 0l459 547l-440 528h27l426 -510l432 510h24l-442 -528l459 -547h-27l-446 530l-445 -530h-27z" />
<glyph unicode="&#x446;" horiz-adv-x="1286" d="M96 -330q0 110 71 169t169 59q69 0 141 -25t133 -60.5t121 -71t125.5 -60.5t126.5 -25q109 0 164 64.5t55 183.5v96h-1005v1075h20v-1055h827v1055h21v-1055h158v-81v-37q0 -129 -61 -198t-179 -69q-65 0 -134.5 25t-129.5 60.5l-120 71t-128.5 60.5t-132.5 25 q-91 0 -156 -54.5t-65 -156.5v-31h-21v35z" />
<glyph unicode="&#x447;" horiz-adv-x="1009" d="M98 768v307h21v-309q0 -157 85 -239.5t234 -82.5q179 0 355 103v528h20v-1075h-20v526q-62 -40 -160 -71t-199 -31q-155 0 -245.5 85.5t-90.5 258.5z" />
<glyph unicode="&#x448;" horiz-adv-x="1624" d="M197 0v1075h20v-1055h584v1055h20v-1055h586v1055h20v-1075h-1230z" />
<glyph unicode="&#x449;" horiz-adv-x="1648" d="M197 0v1075h20v-1055h584v1055h20v-1055h586v1055h20v-1055h156v-118q0 -126 -70 -196.5t-190 -70.5q-82 0 -174 25t-174 60.5l-164 71t-171 60.5t-167 25q-59 0 -112.5 -21.5t-91.5 -71t-38 -118.5v-31h-20v35q0 74 41 127.5t98.5 77t120.5 23.5q81 0 171 -25 t171.5 -60.5l163 -71t172.5 -60.5t174 -25q111 0 175.5 66t64.5 182v96h-1366z" />
<glyph unicode="&#x44a;" horiz-adv-x="911" d="M0 1055v20h332q-40 -141 -63.5 -234t-47.5 -237t-24 -256q0 -77 19 -138.5t50 -100.5t72.5 -65t84.5 -37t89 -11q143 0 228 89t85 212q0 63 -18.5 114t-48.5 83t-69.5 53.5t-79 30t-79.5 8.5q-129 0 -227 -82l-10 16q34 32 96.5 59t142.5 27q59 0 113.5 -18t100 -53.5 t73 -96.5t27.5 -139q0 -58 -19.5 -113t-58 -103.5t-105.5 -78t-153 -29.5q-42 0 -83.5 9t-88 34.5t-81.5 65.5t-58 107.5t-23 154.5q0 263 129 709h-305z" />
<glyph unicode="&#x44b;" horiz-adv-x="1290" d="M195 371v716h20v-714q0 -95 27 -166.5t72 -110.5t95 -57.5t105 -18.5q144 0 228.5 89t84.5 213q0 78 -27 136.5t-72 90t-93.5 46.5t-99.5 15q-118 0 -211 -82l-11 17q92 86 224 86q59 0 113.5 -18t100 -54t72.5 -97t27 -140q0 -57 -19.5 -112t-58 -103t-106 -77.5 t-154.5 -29.5q-41 0 -81 9t-84 34.5t-76.5 65.5t-54 107.5t-21.5 154.5zM1073 0v1075h21v-1075h-21z" />
<glyph unicode="&#x44c;" horiz-adv-x="964" d="M195 358v717h20v-715q0 -77 19 -138.5t50 -100.5t72.5 -65t84.5 -37t89 -11q144 0 229 88.5t85 212.5q0 78 -27.5 137t-72 90.5t-93.5 46.5t-100 15q-73 0 -132.5 -25.5t-94.5 -56.5l-11 16q34 32 96 59t144 27q59 0 113.5 -18t100 -54t72.5 -97t27 -140 q0 -57 -19.5 -111.5t-58 -102.5t-106 -77.5t-154.5 -29.5q-42 0 -83 9t-87.5 34.5t-81.5 65t-58 107t-23 154.5z" />
<glyph unicode="&#x44d;" horiz-adv-x="1122" d="M82 100l12 15q165 -107 365 -107q164 0 289.5 72.5t190.5 193.5t65 269v18q-96 -76 -193 -76q-57 0 -121.5 27.5t-126.5 54.5t-112 27q-86 0 -177 -84l-12 16q101 88 191 88q53 0 116.5 -27.5l127 -55t116.5 -27.5q94 0 188 82q-14 222 -161.5 351.5t-388.5 129.5 q-203 0 -330 -94l-12 14q64 51 155.5 75.5t186.5 24.5q263 0 418 -146.5t155 -397.5q0 -155 -68.5 -280.5t-198 -200t-296.5 -74.5q-214 0 -379 112z" />
<glyph unicode="&#x44e;" horiz-adv-x="1757" d="M197 0v1075h20v-516h354q6 227 159.5 377.5t383.5 150.5q236 0 390.5 -156.5t154.5 -391.5q0 -236 -154.5 -393.5t-390.5 -157.5q-235 0 -389 157.5t-154 393.5h-354v-539h-20zM592 539q0 -150 66.5 -271t186 -190.5t269.5 -69.5q151 0 271 69.5t186.5 190.5t66.5 271 q0 227 -147.5 377.5t-376.5 150.5q-227 0 -374.5 -150.5t-147.5 -377.5z" />
<glyph unicode="&#x44f;" horiz-adv-x="964" d="M41 0v20q23 -6 40.5 -8t37 8.5t35 22t33.5 32.5t32.5 40t33.5 45l4.5 6t4 5.5t4.5 6.5l162 221q-102 10 -178 80t-76 174q0 120 82.5 194.5t267.5 74.5h256v-922h-20v399h-305l-170 -233q-22 -29 -36.5 -48t-33.5 -42t-34 -36t-33 -26t-34.5 -17.5t-35 -4t-37.5 7.5z M195 655q0 -103 80 -169t161 -66h324v481h-240q-167 0 -246 -68t-79 -178z" />
<glyph unicode="&#x451;" horiz-adv-x="952" d="M131 287q0 106 79.5 183.5t215.5 92.5v4q-116 18 -183 89.5t-67 160.5q0 130 85.5 202.5t248.5 72.5q98 0 187.5 -48t125.5 -124l-14 -9q-37 67 -118 113.5t-187 46.5q-145 0 -226 -64.5t-81 -185.5q0 -74 46 -132t113.5 -86t141.5 -28h98v-20h-109q-138 0 -236.5 -74.5 t-98.5 -189.5q0 -128 95 -207.5t265 -79.5q134 0 221 57.5t121 151.5l16 -4q-27 -95 -121.5 -160t-238.5 -65q-173 0 -276 82.5t-103 220.5zM248 1374q0 9 8 17t18 8q9 0 17 -8t8 -17q0 -10 -8 -18t-17 -8q-10 0 -18 8t-8 18zM604 1374q0 9 8.5 17t18.5 8q9 0 16.5 -8 t7.5 -17q0 -10 -7.5 -18t-16.5 -8q-11 0 -19 8t-8 18z" />
<glyph unicode="&#x452;" horiz-adv-x="1241" d="M16 1055v20h934v-20h-456v-510q49 32 80.5 49t97 36t135.5 19q336 0 336 -334q0 -173 -72 -250t-194 -77q-37 0 -75 13.5t-57 25.5l13 18q51 -37 121 -37q113 0 178 75t65 232q0 163 -80 238.5t-239 75.5q-45 0 -84 -6t-76 -21t-54 -22.5t-54.5 -30.5t-40.5 -25v-524h-21 v1055h-457z" />
<glyph unicode="&#x453;" horiz-adv-x="690" d="M197 0v1075h493v-20h-473v-1055h-20zM389 1237l225 291l15 -12l-223 -289z" />
<glyph unicode="&#x454;" horiz-adv-x="1122" d="M98 539q0 239 157 393.5t415 154.5q97 0 188.5 -24.5t153.5 -75.5l-11 -14q-127 94 -329 94q-250 0 -401.5 -148.5t-151.5 -379.5q89 75 174 75q65 0 181 -55t181 -55q93 0 189 84l14 -15q-101 -88 -205 -88q-63 0 -181.5 54.5t-178.5 54.5q-89 0 -174 -82 q9 -227 162.5 -365.5t398.5 -138.5q181 0 346 107l14 -15q-87 -59 -172 -85.5t-190 -26.5q-258 0 -419 151.5t-161 399.5z" />
<glyph unicode="&#x455;" horiz-adv-x="598" d="M131 819q0 105 72 176t186 92l-4 -20q-104 -23 -168.5 -87t-64.5 -159q0 -53 17.5 -96t45 -74t61.5 -59.5t67.5 -58.5t61 -64.5t45 -85t17.5 -111.5q0 -60 -28 -111.5t-74 -86.5t-99 -57t-108 -29v20q46 7 93 26t92.5 50t74 80t28.5 108q0 57 -17.5 104.5t-45 81 t-61 63.5t-67.5 59.5t-61.5 62t-45 77.5t-17.5 99z" />
<glyph unicode="&#x456;" horiz-adv-x="772" d="M49 0v20h326v1035h-326v20h674v-20h-328v-1035h328v-20h-674z" />
<glyph unicode="&#x457;" horiz-adv-x="772" d="M49 0v20h326v1035h-326v20h674v-20h-328v-1035h328v-20h-674zM182 1374q0 9 8.5 17t18.5 8q9 0 16.5 -8t7.5 -17q0 -10 -7.5 -18t-16.5 -8q-11 0 -19 8t-8 18zM539 1374q0 9 8 17t18 8q9 0 17 -8t8 -17q0 -10 -8 -18t-17 -8q-11 0 -18.5 8t-7.5 18z" />
<glyph unicode="&#x458;" horiz-adv-x="931" d="M98 279q0 89 49 157.5t123 102.5t158 34v-20q-74 0 -143 -30t-117.5 -94.5t-48.5 -149.5q0 -118 87.5 -194.5t225.5 -76.5q57 0 107.5 18.5t95 57t70.5 110t26 166.5v695h-557v20h578v-717q0 -87 -22 -154.5t-56 -107t-78.5 -65t-84 -34.5t-79.5 -9q-81 0 -146 25 t-105 66.5t-61.5 92.5t-21.5 107z" />
<glyph unicode="&#x459;" horiz-adv-x="1714" d="M49 0v20q239 0 303 840l17 215h616v-459q123 9 203 9q215 0 321.5 -79t106.5 -224q0 -161 -115.5 -243.5t-320.5 -82.5q-42 0 -113 2t-102 2v1055h-576l-16 -203q-13 -165 -33 -297.5t-41.5 -219.5t-49.5 -151.5t-52 -99t-53 -54.5t-49.5 -25t-45.5 -5zM985 20 q26 0 90 -2t107 -2q201 0 307 78.5t106 229.5q0 133 -103 206.5t-302 73.5q-96 0 -205 -8v-576z" />
<glyph unicode="&#x45a;" horiz-adv-x="1787" d="M197 0v1075h20v-475h821v475h21v-475q109 8 203 8q216 0 322 -75.5t106 -217.5q0 -161 -115 -240t-322 -79q-38 0 -102 2t-92 2h-21v580h-821v-580h-20zM1059 20q26 0 89.5 -2t106.5 -2q202 0 308 75.5t106 223.5q0 132 -102.5 203.5t-302.5 71.5q-102 0 -205 -10v-560z " />
<glyph unicode="&#x45b;" horiz-adv-x="1241" d="M16 1055v20h934v-20h-456v-512q149 106 331 106q152 0 235 -84t83 -260v-305h-21v309q0 157 -78 238.5t-225 81.5q-56 0 -105.5 -9.5t-94.5 -30t-65.5 -32t-59.5 -35.5v-522h-21v1055h-457z" />
<glyph unicode="&#x45c;" horiz-adv-x="966" d="M184 0v922h21v-922h-21zM301 481l524 441h29l-526 -441l305 -295q11 -10 28 -27.5t31.5 -32.5t34 -33t36 -31.5t36 -26t36 -18t34.5 -5.5t34 8l-2 -20q-16 -10 -38 -6.5t-39 8t-39.5 19.5t-39 27.5t-37 32.5t-34 33.5t-30.5 31.5t-26 26zM471 1155l225 291l15 -12 l-224 -289z" />
<glyph unicode="&#x45e;" horiz-adv-x="1261" d="M-96 926q24 65 103.5 113t195.5 48q99 0 185 -41t145.5 -109.5t102.5 -158.5t61.5 -188t16 -199t-27.5 -190q23 51 58 133.5t61 146t63.5 143.5t70 139.5t75 120.5t84 100.5t92.5 64.5t104 26v-20q-37 0 -74.5 -16t-69.5 -38.5t-66.5 -64t-60 -76t-57.5 -92.5 t-51.5 -94.5t-48 -101t-40.5 -94t-37 -91t-31 -74.5q-43 -102 -82.5 -168t-80 -99.5t-77.5 -45.5t-86 -12q-168 0 -225 159l20 11q23 -80 81 -115t124 -35q48 0 91.5 19t83.5 61t63.5 120t23.5 183q0 169 -45 303t-118 213t-157.5 119.5t-172.5 40.5q-110 0 -182 -45.5 t-99 -108.5zM522 1311h21q0 -87 61.5 -136t167.5 -49q102 0 161.5 49t59.5 136h21q0 -96 -68 -150.5t-174 -54.5q-115 0 -182.5 54t-67.5 151z" />
<glyph unicode="&#x45f;" horiz-adv-x="1253" d="M197 0v1075h20v-1055h819v1055h21v-1075h-420v-246h-21v246h-419z" />
<glyph unicode="&#x462;" horiz-adv-x="1005" d="M0 840v20h238v215h20v-215h299v-20h-299v-224q123 9 219 9q215 0 322.5 -79t107.5 -224q0 -160 -116.5 -243t-321.5 -83q-41 0 -120 2t-111 2v840h-238zM258 20q27 0 98.5 -2t114.5 -2q202 0 309 79t107 229q0 134 -103.5 207t-304.5 73q-112 0 -221 -8v-576z" />
<glyph unicode="&#x463;" horiz-adv-x="1005" d="M0 840v20h238v215h20v-215h299v-20h-299v-224q123 9 219 9q215 0 322.5 -79t107.5 -224q0 -160 -116.5 -243t-321.5 -83q-41 0 -120 2t-111 2v840h-238zM258 20q27 0 98.5 -2t114.5 -2q202 0 309 79t107 229q0 134 -103.5 207t-304.5 73q-112 0 -221 -8v-576z" />
<glyph unicode="&#x472;" d="M98 539q0 115 43.5 216.5t118 174.5t178.5 115t221 42q156 0 285 -71.5t203 -197.5t74 -279q0 -234 -162 -392.5t-400 -158.5t-399.5 158.5t-161.5 392.5zM119 512q9 -218 163 -361t377 -143q151 0 275 69t195 191t71 271v2q-127 -105 -250 -105q-68 0 -146.5 31 t-138 67.5t-137 67.5t-145.5 31q-65 0 -135.5 -33t-128.5 -88zM119 541q62 53 133 82.5t135 29.5q58 0 118.5 -20t114 -49t106 -58t112 -49t114.5 -20q60 0 125.5 29.5t120.5 80.5q-5 106 -49 199t-115 159t-168.5 104t-206.5 38q-150 0 -274 -68.5t-195 -189.5t-71 -268z " />
<glyph unicode="&#x473;" d="M98 539q0 115 43.5 216.5t118 174.5t178.5 115t221 42q156 0 285 -71.5t203 -197.5t74 -279q0 -234 -162 -392.5t-400 -158.5t-399.5 158.5t-161.5 392.5zM119 512q9 -218 163 -361t377 -143q151 0 275 69t195 191t71 271v2q-127 -105 -250 -105q-68 0 -146.5 31 t-138 67.5t-137 67.5t-145.5 31q-65 0 -135.5 -33t-128.5 -88zM119 541q62 53 133 82.5t135 29.5q58 0 118.5 -20t114 -49t106 -58t112 -49t114.5 -20q60 0 125.5 29.5t120.5 80.5q-5 106 -49 199t-115 159t-168.5 104t-206.5 38q-150 0 -274 -68.5t-195 -189.5t-71 -268z " />
<glyph unicode="&#x474;" horiz-adv-x="1077" d="M33 1075h22l490 -1052l313 800q54 139 105 201.5t112 62.5q24 0 64 -14v-18q-30 12 -58 12q-60 0 -106.5 -62t-97.5 -190l-328 -827h-8z" />
<glyph unicode="&#x475;" horiz-adv-x="1077" d="M33 1075h22l490 -1052l313 800q54 139 105 201.5t112 62.5q24 0 64 -14v-18q-30 12 -58 12q-60 0 -106.5 -62t-97.5 -190l-328 -827h-8z" />
<glyph unicode="&#x490;" horiz-adv-x="690" d="M197 0v1075h473v215h20v-235h-473v-1055h-20z" />
<glyph unicode="&#x491;" horiz-adv-x="690" d="M197 0v1075h473v215h20v-235h-473v-1055h-20z" />
<glyph unicode="&#x2000;" horiz-adv-x="809" />
<glyph unicode="&#x2001;" horiz-adv-x="1618" />
<glyph unicode="&#x2002;" horiz-adv-x="809" />
<glyph unicode="&#x2003;" horiz-adv-x="1618" />
<glyph unicode="&#x2004;" horiz-adv-x="539" />
<glyph unicode="&#x2005;" horiz-adv-x="404" />
<glyph unicode="&#x2006;" horiz-adv-x="269" />
<glyph unicode="&#x2007;" horiz-adv-x="269" />
<glyph unicode="&#x2008;" horiz-adv-x="202" />
<glyph unicode="&#x2009;" horiz-adv-x="323" />
<glyph unicode="&#x200a;" horiz-adv-x="89" />
<glyph unicode="&#x2010;" horiz-adv-x="847" d="M205 543v20h438v-20h-438z" />
<glyph unicode="&#x2011;" horiz-adv-x="847" d="M205 543v20h438v-20h-438z" />
<glyph unicode="&#x2012;" horiz-adv-x="847" d="M205 543v20h438v-20h-438z" />
<glyph unicode="&#x2013;" horiz-adv-x="1196" d="M205 543v20h786v-20h-786z" />
<glyph unicode="&#x2014;" horiz-adv-x="1605" d="M205 543v20h1196v-20h-1196z" />
<glyph unicode="&#x2018;" horiz-adv-x="483" d="M205 1241q0 81 29 132.5t90 82.5l6 -16q-51 -26 -78 -77t-27 -118q0 -69 39 -108l-16 -17q-43 49 -43 121z" />
<glyph unicode="&#x2019;" horiz-adv-x="483" d="M154 1137q104 54 104 194q0 70 -39 109l17 16q43 -49 43 -121q0 -81 -29 -132.5t-90 -82.5z" />
<glyph unicode="&#x201a;" horiz-adv-x="483" d="M154 -225q104 54 104 194q0 70 -39 109l17 16q43 -49 43 -121q0 -81 -29 -132.5t-90 -82.5z" />
<glyph unicode="&#x201c;" horiz-adv-x="708" d="M205 1241q0 81 29 132.5t90 82.5l6 -16q-51 -26 -78 -77t-27 -118q0 -69 39 -108l-16 -17q-43 49 -43 121zM430 1241q0 81 29 132.5t90 82.5l6 -16q-50 -26 -77 -77t-27 -118q0 -70 38 -108l-16 -17q-43 49 -43 121z" />
<glyph unicode="&#x201d;" horiz-adv-x="708" d="M154 1137q104 54 104 194q0 70 -39 109l17 16q43 -49 43 -121q0 -81 -29 -132.5t-90 -82.5zM379 1137q104 54 104 194q0 70 -39 109l17 16q43 -49 43 -121q0 -81 -29 -132.5t-90 -82.5z" />
<glyph unicode="&#x201e;" horiz-adv-x="708" d="M154 -225q104 54 104 194q0 70 -39 109l17 16q43 -49 43 -121q0 -81 -29 -132.5t-90 -82.5zM379 -225q104 54 104 194q0 70 -39 109l17 16q43 -49 43 -121q0 -81 -29 -132.5t-90 -82.5z" />
<glyph unicode="&#x2020;" horiz-adv-x="806" d="M82 901v21h311v512h21v-512h311v-21h-311v-1106h-21v1106h-311z" />
<glyph unicode="&#x2021;" horiz-adv-x="806" d="M82 369v20h311v512h-311v21h311v512h21v-512h311v-21h-311v-512h311v-20h-311v-574h-21v574h-311z" />
<glyph unicode="&#x2022;" horiz-adv-x="245" d="M82 532q0 17 12 29t29 12t29 -12t12 -29t-12 -28.5t-29 -11.5t-29 11.5t-12 28.5z" />
<glyph unicode="&#x2026;" horiz-adv-x="1689" d="M205 27q0 9 8 16.5t18 7.5q9 0 17 -7.5t8 -16.5q0 -10 -8 -18.5t-17 -8.5q-10 0 -18 8t-8 19zM819 27q0 9 8.5 16.5t18.5 7.5q9 0 16.5 -7.5t7.5 -16.5q0 -10 -7.5 -18.5t-16.5 -8.5q-10 0 -18.5 8t-8.5 19zM1434 27q0 9 8 16.5t18 7.5q9 0 17 -7.5t8 -16.5 q0 -10 -8 -18.5t-17 -8.5q-10 0 -18 8t-8 19z" />
<glyph unicode="&#x202f;" horiz-adv-x="323" />
<glyph unicode="&#x2030;" horiz-adv-x="2476" d="M123 1122q0 134 91.5 223t225.5 89t226 -89t92 -223t-91.5 -222.5t-226.5 -88.5q-134 0 -225.5 88.5t-91.5 222.5zM143 1122q0 -126 90 -208.5t207 -82.5q121 0 209 82t88 209t-88.5 209t-208.5 82t-208.5 -82t-88.5 -209zM285 -2l1087 1452l17 -10l-1088 -1456zM899 311 q0 134 92 223t226 89t225.5 -89t91.5 -223t-91.5 -222.5t-225.5 -88.5q-135 0 -226.5 88.5t-91.5 222.5zM920 311q0 -126 90 -208.5t207 -82.5q121 0 208.5 82t87.5 209t-88 209t-208 82t-208.5 -82t-88.5 -209zM1718 311q0 134 92 223t226 89t225.5 -89t91.5 -223 t-91.5 -222.5t-225.5 -88.5q-135 0 -226.5 88.5t-91.5 222.5zM1739 311q0 -126 90 -208.5t207 -82.5q121 0 209 82t88 209t-88.5 209t-208.5 82t-208.5 -82t-88.5 -209z" />
<glyph unicode="&#x2039;" horiz-adv-x="653" d="M123 508v8l352 406l14 -13l-344 -397l340 -397l-12 -17z" />
<glyph unicode="&#x203a;" horiz-adv-x="653" d="M164 909l14 13l352 -406v-8l-350 -410l-12 17l340 397z" />
<glyph unicode="&#x2044;" horiz-adv-x="366" d="M-369 -2l1088 1452l16 -10l-1087 -1456z" />
<glyph unicode="&#x205f;" horiz-adv-x="404" />
<glyph unicode="&#x20ac;" horiz-adv-x="1196" d="M41 563l10 21h146q-9 64 -9 133q0 81 17 174h-164l10 20h158q57 240 234 389.5t427 149.5q77 0 158.5 -17t126.5 -42l-8 -21q-131 60 -275 60q-245 0 -416 -143.5t-225 -375.5h795l-6 -20h-795q-16 -88 -16 -174q0 -78 8 -133h727l-6 -21h-717q44 -257 225.5 -408 t446.5 -151q149 0 237 51l7 -20q-31 -24 -105.5 -37.5t-138.5 -13.5q-277 0 -463 155.5t-229 423.5h-160z" />
<glyph unicode="&#x2122;" horiz-adv-x="1658" d="M20 1413v21h631v-21h-305v-625h-20v625h-306zM786 788v646h23l328 -414l317 414h21v-646h-21v615l-317 -414h-4l-326 414v-615h-21z" />
<glyph unicode="&#x2202;" horiz-adv-x="1177" d="M113 420q0 136 65 255.5t178.5 191t247.5 71.5q94 0 173.5 -27t132 -71.5t86 -93t48.5 -99.5q0 110 -18 211.5t-63 202t-114.5 176.5t-180 128.5t-250.5 64.5l4 20q305 -23 474 -237.5t169 -561.5q0 -119 -37 -236.5t-103 -214t-169 -156.5t-224 -60q-179 0 -299 123 t-120 313zM133 420q0 -174 113 -295t289 -121q111 0 206.5 55t158 143t100 193t44.5 211q-17 47 -40.5 89t-61.5 84t-84.5 72t-112 48.5t-141.5 18.5q-129 0 -238 -68.5t-171 -183t-62 -246.5z" />
<glyph unicode="&#x220f;" horiz-adv-x="1792" d="M246 -410v1844h1300v-1844h-20v1823h-1260v-1823h-20z" />
<glyph unicode="&#x2211;" horiz-adv-x="1269" d="M82 -406l682 918l-682 918v4h1106v-21h-1069l672 -901l-672 -901h1069v-21h-1106v4z" />
<glyph unicode="&#x221a;" horiz-adv-x="1153" d="M0 901v21h258l414 -887l301 1399h508v-21h-490l-311 -1429h-6l-430 917h-244z" />
<glyph unicode="&#x221e;" horiz-adv-x="1486" d="M123 698q0 108 82 187.5t205 79.5q40 0 79.5 -15t68.5 -34.5t66 -57t58.5 -63.5t58.5 -74q33 46 54.5 74t57.5 64t69 56.5t79 35t97 14.5q124 0 195 -76.5t71 -198.5q0 -44 -16 -87.5t-47 -81.5t-83.5 -61.5t-117.5 -23.5q-56 0 -106.5 19.5t-96.5 59.5t-78.5 75.5 t-77.5 93.5l-39 -54t-38.5 -49.5t-43 -47.5t-45 -38t-52 -32.5t-56 -18.5t-64.5 -8q-65 0 -128 29t-107.5 91t-44.5 142zM143 698q0 -57 25.5 -104.5t65 -76.5t83 -44.5t84.5 -15.5q45 0 86.5 15t70.5 34t63 57t53 64t53 75q-33 42 -49 62t-46.5 54.5t-52 52t-51.5 37 t-60 28t-62 8.5q-114 0 -188.5 -73t-74.5 -173zM754 705q46 -59 77 -93.5t77 -75.5t95 -60t103 -19q59 0 106 22t74.5 57t42 74.5t14.5 77.5q0 110 -65 183t-182 73q-47 0 -90.5 -14t-75 -33.5t-66 -55t-56.5 -63.5t-54 -73z" />
<glyph unicode="&#x222b;" horiz-adv-x="698" d="M-207 -375l12 19q27 -21 68.5 -35.5t83.5 -14.5q139 0 203.5 84.5t64.5 251.5v1141q0 316 215 369q48 10 95 10q132 0 225 -72l-12 -18q-95 70 -213 70q-98 0 -160 -39q-129 -79 -129 -338v-1121q0 -298 -197 -348q-34 -10 -92 -10q-94 0 -164 51z" />
<glyph unicode="&#x2248;" horiz-adv-x="1196" d="M139 557q117 109 236 109q56 0 121.5 -24.5t116 -53.5t114.5 -53.5t117 -24.5q98 0 198 94l15 -14q-106 -101 -215 -101q-55 0 -120 24.5t-116 53.5t-116 53.5t-119 24.5q-110 0 -215 -102zM139 885q116 108 236 108q56 0 121.5 -24t116 -53.5t114.5 -53.5t117 -24 q98 0 198 94l15 -14q-106 -101 -215 -101q-55 0 -120 24.5t-116 53.5t-116 53.5t-119 24.5q-109 0 -215 -103z" />
<glyph unicode="&#x2260;" horiz-adv-x="1196" d="M154 563v21h362l115 307h-477v20h485l201 539l18 -6l-199 -533h383v-20h-389l-114 -307h503v-21h-510l-215 -579l-20 8l213 571h-356z" />
<glyph unicode="&#x2264;" horiz-adv-x="1196" d="M154 573v27l796 -526v-25zM154 901v8l796 521v-25l-766 -500l766 -504v-24z" />
<glyph unicode="&#x2265;" horiz-adv-x="1196" d="M246 49v25l796 526v-27zM246 377v24l766 504l-766 500v25l796 -521v-8z" />
<glyph unicode="&#x25ca;" horiz-adv-x="937" d="M123 510l344 551h6l342 -529l-344 -548h-6zM145 512l324 -498l324 518l-324 500z" />
<glyph unicode="&#xe000;" horiz-adv-x="1075" d="M0 0v1075h1075v-1075h-1075z" />
</font>
</defs>
</svg>
