<?xml version="1.0" standalone="no"?>
<!DOCTYPE svg PUBLIC "-//W3C//DTD SVG 1.1//EN" "http://www.w3.org/Graphics/SVG/1.1/DTD/svg11.dtd" >
<svg xmlns="http://www.w3.org/2000/svg">
<metadata></metadata>
<defs>
<font id="filosofia_cyritalic" horiz-adv-x="854" >
<font-face units-per-em="2048" ascent="1456" descent="-592" />
<missing-glyph horiz-adv-x="358" />
<glyph horiz-adv-x="2048" />
<glyph horiz-adv-x="2048" />
<glyph unicode="&#xd;" horiz-adv-x="2048" />
<glyph unicode=" "  horiz-adv-x="358" />
<glyph unicode="&#x09;" horiz-adv-x="358" />
<glyph unicode="&#xa0;" horiz-adv-x="358" />
<glyph unicode="!" horiz-adv-x="569" d="M76 78q8 40 41 69t73 29q39 0 63 -29.5t17 -68.5q-6 -38 -40 -66t-74 -28q-39 0 -62.5 27.5t-17.5 66.5zM198 369l1 10q41 236 62.5 411t23.5 248.5t2.5 132.5t5.5 89q8 36 37 62t65 26q35 0 57 -26.5t15 -61.5q-5 -31 -25 -89.5t-44.5 -132t-65.5 -248.5t-82 -411 q-6 -24 -29 -26q-21 -2 -23 16z" />
<glyph unicode="&#x22;" horiz-adv-x="751" d="M238 889v8q18 117 15.5 180.5t-9.5 115t-4 67.5q6 36 35.5 62t64.5 26t57.5 -26.5t16.5 -61.5q-3 -16 -27 -62t-54.5 -125.5t-47.5 -175.5q-4 -21 -26 -23q-19 -2 -21 15zM539 889q-1 4 0 8q18 117 16 180.5t-9.5 115.5t-4.5 67q6 36 35.5 62t64.5 26q36 0 58 -26t16 -62 q-3 -16 -27 -62t-54 -125.5t-46 -175.5q-6 -21 -28 -23q-19 -2 -21 15z" />
<glyph unicode="#" horiz-adv-x="827" d="M80 664q0 21 12 34t27 13q4 0 43 -4t100 -5l51 281q-42 -2 -71.5 -4t-42 -3t-19.5 -1q-16 0 -28.5 12t-12.5 33q0 22 12.5 34.5t28.5 12.5q6 0 20 -1.5t46 -3.5t80 -3l8 41q14 76 20 124.5t7.5 66t3.5 26.5q2 16 15.5 25t35.5 6q20 -3 30.5 -17t8.5 -31q-1 -5 -7 -24.5 t-16.5 -65.5t-25.5 -125l-5 -26h158h10l6 41q14 76 20 124.5t7.5 66t3.5 26.5q3 16 16.5 25t34.5 6t31.5 -17.5t7.5 -30.5q-1 -9 -6 -25t-16 -64t-25 -126l-6 -26q59 1 95.5 4.5t41.5 3.5q16 0 27.5 -12.5t11.5 -34.5q0 -21 -11.5 -33t-27.5 -12q-2 0 -42 3t-107 3l-49 -279 q59 1 97 5t42 4q16 0 27.5 -13t11.5 -34t-11.5 -33.5t-27.5 -12.5q-4 0 -44 4t-108 5q-13 -64 -20 -116t-10.5 -87.5t-3.5 -38.5q-3 -13 -17.5 -22.5t-34.5 -8.5q-21 4 -31.5 19t-7.5 30q1 10 8 36.5t18.5 77.5t23.5 110h-168q-13 -70 -20 -122t-9.5 -84t-3.5 -36 q-3 -13 -17 -22.5t-34 -8.5q-22 4 -32.5 19t-8.5 30q1 5 10.5 39.5t20.5 82.5t20 102q-55 -2 -90 -5.5t-43 -3.5q-15 0 -27 13t-12 33zM340 702h166l49 281h-168z" />
<glyph unicode="$" horiz-adv-x="872" d="M23 322q0 59 31.5 91.5t76.5 32.5q32 0 53 -20.5t21 -48.5q0 -36 -30 -63t-66 -29q48 -123 184 -146l76 441q-209 109 -209 301q0 75 30.5 135.5t79.5 96.5t102 55.5t105 21.5q8 52 13.5 94t8 64t3.5 30q3 16 17.5 27.5t35.5 11.5t31.5 -11.5t7.5 -27.5q-2 -9 -6.5 -30.5 t-14 -66.5t-20.5 -97q88 -15 139 -68.5t51 -122.5q0 -51 -30.5 -81.5t-71.5 -30.5q-32 0 -51.5 21t-16.5 46q2 29 24 53t56 31q-20 65 -114 86q0 -8 -4 -28l-68 -383q231 -124 231 -320q0 -99 -49.5 -174t-126.5 -112.5t-168 -39.5q-11 -60 -17 -104.5t-8 -72.5t-3 -34 q-2 -15 -17 -26.5t-37 -11.5q-20 0 -30.5 11.5t-8.5 26.5q1 10 7 33t16.5 71.5t22.5 113.5q-116 19 -186 95.5t-70 158.5zM272 928q0 -106 125 -185l62 347q3 21 8 32q-89 -6 -142 -61t-53 -133zM367 135q88 5 151.5 61t63.5 146q0 109 -146 197z" />
<glyph unicode="%" horiz-adv-x="1671" d="M219 952q32 172 126 283t202 111q107 0 162.5 -111.5t23.5 -282.5q-30 -172 -123.5 -281.5t-201.5 -109.5q-107 0 -163 110t-26 281zM326.5 755.5q3.5 -73.5 25.5 -104t66 -30.5q66 0 111.5 75t76.5 256q31 189 14 261.5t-83 72.5q-67 0 -112.5 -75.5t-78.5 -258.5 q-23 -123 -19.5 -196.5zM401 0q-4 18 5 31q5 9 23.5 35.5t47.5 71t58 91.5l493 822q41 69 76 131t53.5 96t22.5 41q23 35 61 18q18 -7 22.5 -23.5t-3.5 -29.5q-4 -7 -27.5 -40.5t-61.5 -92.5t-79 -129l-492 -821q-30 -49 -55 -93t-43 -78t-19 -36q-8 -15 -24.5 -21t-34.5 2 q-19 7 -23 25zM930 360q30 171 125 282.5t202 111.5q108 0 163.5 -111t25.5 -283q-30 -171 -124.5 -281t-201.5 -110q-108 0 -164 110t-26 281zM1045.5 100.5q17.5 -71.5 84.5 -71.5q66 0 111 75t76 256q31 188 13.5 260t-83.5 72t-111.5 -75.5t-76.5 -256.5 q-31 -188 -13.5 -259.5z" />
<glyph unicode="&#x26;" horiz-adv-x="1263" d="M51 269.5q-5 48.5 6 95.5q40 243 281 380q-74 156 -51 293q23 120 116 215t230 95q117 0 179 -71t40 -187q-19 -106 -109.5 -196t-224.5 -134l-5 -2.5t-6 -2.5t-7 -1l211 -426q10 -24 20 -41q18 28 52.5 94t63 113t69 99.5t90.5 80.5t106 28q53 0 77 -29.5t19 -66.5 q-6 -33 -32 -55.5t-58 -22.5q-30 0 -52 25t-13 57q-40 -1 -81.5 -46t-71 -100.5t-69.5 -130t-67 -112.5q55 -103 83 -133.5t60 -30.5q55 0 102.5 71t67.5 185q3 16 14 27.5t25 11.5q15 0 22.5 -12t4.5 -27q-9 -54 -30 -107.5t-52.5 -103.5t-79 -81t-102.5 -31q-64 0 -110 23 t-97 91q-129 -139 -287 -139q-63 0 -117 16.5t-91.5 45t-66 67t-41.5 83t-18 93zM186.5 287.5q-0.5 -47.5 15.5 -91.5t41 -77.5t70 -53.5t103 -20q123 0 221 113q-39 59 -117 215l-151 309q-144 -114 -176 -299q-6 -48 -6.5 -95.5zM424 1102q-25 -139 51 -297h2 q124 37 181.5 112t76.5 189q14 80 -13.5 133t-98.5 53q-85 0 -135 -51t-64 -139z" />
<glyph unicode="'" horiz-adv-x="446" d="M238 889v8q18 117 15.5 180.5t-9.5 115t-4 67.5q6 36 35.5 62t64.5 26t57.5 -26.5t16.5 -61.5q-3 -16 -27 -62t-54.5 -125.5t-47.5 -175.5q-4 -21 -26 -23q-19 -2 -21 15z" />
<glyph unicode="(" horiz-adv-x="700" d="M139 604q77 438 623 832q25 18 35 -1q10 -20 -13 -42q-46 -43 -68 -64.5t-76.5 -78.5t-88.5 -99.5t-82.5 -111.5t-80 -131.5t-61.5 -143t-44 -160.5q-13 -71 -14.5 -140t8 -131t22.5 -116.5t37 -108t42.5 -92t47 -82t43.5 -65t39 -53.5q9 -15 4 -30t-17 -19t-24 6 q-409 394 -332 831z" />
<glyph unicode=")" horiz-adv-x="700" d="M-124 -226q-11 19 13 42q47 44 66.5 62.5t76 77t89.5 100t83 112t81.5 132.5t61.5 143t44 161t13.5 160.5t-10 143t-33.5 131t-43.5 112t-53.5 99.5t-50 79t-46 64q-10 14 -5 29.5t17 19.5t25 -6q405 -390 327 -832q-77 -442 -620 -831q-24 -17 -36 1z" />
<glyph unicode="*" horiz-adv-x="833" d="M150.5 872q10.5 35 44.5 56q15 9 47.5 10t85 9.5t110.5 37.5q-59 29 -111 37.5t-84.5 8.5t-47.5 9q-34 20 -44.5 56.5t9.5 68.5q21 33 57.5 44.5t69.5 -9.5q13 -8 26.5 -28.5t26 -42.5t42.5 -53.5t73 -59.5q-3 65 -21 113.5t-34.5 77t-16.5 46.5q0 39 26 67t64 28 t67 -28.5t29 -66.5q0 -18 -17.5 -46.5t-37 -77.5t-22.5 -115q43 29 73.5 60t43.5 52.5t26.5 41.5t26.5 28q32 22 69 12.5t57 -43.5q19 -31 9 -69t-43 -58q-15 -9 -47 -9t-85 -7.5t-112 -36.5q59 -29 111 -37t84.5 -8.5t48.5 -9.5q33 -18 42.5 -56t-8.5 -71 q-21 -33 -57 -42.5t-69 11.5q-16 9 -32.5 37t-50 69t-87.5 78q3 -52 15.5 -95t26 -65t24.5 -44t11 -37q0 -37 -29 -65.5t-67 -28.5t-64 28.5t-26 65.5q0 18 16.5 46.5t34.5 77.5t21 115q-43 -29 -73 -60.5t-42.5 -53t-26 -42t-26.5 -28.5q-33 -21 -70.5 -10t-56.5 43 q-20 34 -9.5 69z" />
<glyph unicode="+" horiz-adv-x="937" d="M76 510q3 21 16.5 34t28.5 13q8 0 27 -2t67.5 -4t126.5 -2h72l12 72q14 77 20 126t7.5 66.5t3.5 26.5q2 16 16 27.5t35 11.5q22 0 32.5 -11.5t8.5 -27.5q-1 -4 -7 -24.5t-16.5 -67.5t-25.5 -127l-13 -72h72q78 0 127 2t68 4t26 2q16 0 26 -13t7 -34q-4 -21 -18.5 -33 t-30.5 -12q-7 0 -25 2t-65.5 4t-126.5 2h-72l-14 -72q-14 -80 -20 -127t-7 -68t-2 -26q-3 -15 -18 -27t-35 -12q-21 0 -31.5 12t-7.5 27q1 10 6 27.5t15.5 66.5t23.5 127l14 72h-71q-78 0 -127 -2t-68.5 -4t-26.5 -2q-15 0 -24.5 12.5t-5.5 32.5z" />
<glyph unicode="," horiz-adv-x="528" d="M30 -227q-13 18 17 45q78 66 118 127.5t40 101.5q-12 -26 -37.5 -41.5t-52.5 -15.5q-33 0 -55 25.5t-15 64.5q8 42 42.5 71t80.5 29q60 0 85 -39.5t17 -89.5q-23 -133 -207 -276q-20 -15 -33 -2z" />
<glyph unicode="-" horiz-adv-x="835" d="M139 510q3 21 16.5 34t28.5 13q7 0 25 -2t62 -4t116 -2h16q73 0 117 2t61.5 4t24.5 2q16 0 26 -13t7 -34q-4 -21 -18.5 -33t-30.5 -12q-7 0 -23.5 2t-60 4t-117.5 2h-14q-74 0 -118.5 -2t-62 -4t-24.5 -2q-16 0 -25.5 12t-5.5 33z" />
<glyph unicode="." horiz-adv-x="528" d="M61 78q7 42 40 70t75 28t64.5 -28t15.5 -70q-8 -40 -41 -67t-74 -27q-40 0 -63.5 27.5t-16.5 66.5z" />
<glyph unicode="/" horiz-adv-x="712" d="M-80 0q-5 18 4 31q4 6 24.5 35t49 72t57.5 91l494 822q40 69 75 131t53 95.5t23 41.5q23 35 62 18q17 -7 21.5 -23.5t-3.5 -29.5q-4 -7 -27.5 -40.5t-61.5 -92.5t-79 -129l-493 -821q-29 -49 -54 -93.5t-41.5 -76.5t-19.5 -37q-8 -15 -25 -21t-36 2q-18 7 -23 25z" />
<glyph unicode="0" horiz-adv-x="980" d="M55 401q32 187 164 311t295 124q161 0 252.5 -127.5t60.5 -307.5q-32 -188 -164 -312t-294 -124q-106 0 -185.5 58t-114.5 158.5t-14 219.5zM166 401q-23 -136 40 -233.5t179 -97.5q117 0 212.5 97t119.5 234t-39 234.5t-180 97.5q-115 0 -211 -98t-121 -234z" />
<glyph unicode="1" horiz-adv-x="712" d="M33 29q4 17 15 27t22 10l36 -2q37 -1 97 -1l119 676q-46 0 -85 -1.5t-61.5 -3t-28.5 -1.5q-12 0 -19 10.5t-3 26.5q4 17 14 26t21 9q6 0 29 -0.5t61.5 -1t83.5 -0.5q44 0 79.5 4t37.5 4q11 0 18 -10.5t4 -26.5l-127 -711q60 0 96 1l37 2q12 0 19.5 -10.5t3.5 -26.5 q-1 -16 -12 -25.5t-23 -9.5q-4 0 -20 2.5t-60.5 5t-118.5 2.5h-8q-74 0 -119 -2.5t-61.5 -5t-20.5 -2.5q-13 0 -21 9.5t-5 25.5z" />
<glyph unicode="2" horiz-adv-x="835" d="M-42.5 22q-1.5 22 22.5 37l258 179q163 113 229 183.5t78 145.5q16 94 -27 148.5t-151 54.5q-59 0 -120.5 -28t-86.5 -64q28 -1 44.5 -25t10.5 -53q-6 -33 -33 -56.5t-59 -23.5q-34 0 -54.5 29.5t-13.5 71.5q11 57 66.5 107t135.5 79t161 29q148 0 220.5 -71t53.5 -179 q-17 -92 -84.5 -161.5t-228.5 -164.5l-221 -131l350 4q17 0 62.5 4t52.5 4q24 0 24 -26q0 -7 -4.5 -20.5t-12 -32.5t-9.5 -25q-19 -50 -39 -121t-23 -94q-2 -12 -12.5 -21.5t-26.5 -9.5q-30 0 -26 31q6 36 20 80.5t24 71.5l11 26h-563q-27 0 -28.5 22z" />
<glyph unicode="3" horiz-adv-x="839" d="M-121 -285q7 40 35.5 64t62.5 24q32 0 51.5 -22.5t14.5 -54.5q-5 -30 -30.5 -54t-55.5 -24q48 -127 213 -127q104 0 172 78t98 247q29 161 -24 243.5t-150 82.5q-61 0 -97 -4t-38 -4q-16 0 -25.5 12t-5.5 31t17.5 31t27.5 12q3 0 39 -4t95 -4q88 0 149.5 70.5t83.5 191.5 q26 145 -9 205.5t-132 60.5q-65 0 -115 -28.5t-72 -69.5q29 -1 46.5 -26t11.5 -54q-6 -32 -33 -55t-59 -23q-34 0 -53.5 30t-12.5 72q17 96 108.5 158t215.5 62q135 0 205.5 -92t43.5 -240q-19 -97 -91.5 -180.5t-164.5 -112.5q105 -40 158 -136.5t29 -228.5 q-33 -186 -148.5 -289.5t-281.5 -103.5q-94 0 -163 41t-97.5 100.5t-18.5 120.5z" />
<glyph unicode="4" horiz-adv-x="946" d="M-63 45l632 866q27 39 47 39q29 0 19 -55l-143 -819h184q47 121 63 211q2 13 12 21.5t27 8.5q31 0 27 -30q0 -2 -30 -91t-42 -157v-12q-3 -15 -15 -25t-24 -10q-11 0 -51 4t-61 4h-105l-90 -506q-3 -10 -12 -10q-8 0 -22 4t-29 4q-14 0 -31 -4t-21 -4q-12 0 -12 10 l88 506h-389q-53 0 -22 45zM41 76h321l103 577z" />
<glyph unicode="5" horiz-adv-x="821" d="M-102 -283q7 41 34.5 63.5t61.5 22.5q32 0 51.5 -22.5t13.5 -54.5q-5 -30 -30 -54.5t-54 -25.5q13 -36 33 -61t63.5 -44.5t106.5 -19.5q211 0 275 360q65 361 -183 361q-45 0 -82 -9.5t-56 -21.5t-35 -21.5t-23 -9.5q-15 0 -25 12t-6 31q6 34 63 56l82 464q8 60 62 60 h340q89 0 120.5 29.5t45.5 113.5q2 11 13.5 21t25.5 10q16 0 23 -9.5t5 -21.5q-2 -11 -30 -71t-43 -109q-20 -63 -50 -79t-125 -15l-331 2l-66 -373q70 8 105 8q63 0 114 -13t86.5 -35.5t61.5 -54.5t40 -68.5t20 -80t4.5 -87t-9.5 -89.5q-34 -189 -147 -308.5t-285 -119.5 q-137 0 -211.5 84t-58.5 180z" />
<glyph unicode="6" horiz-adv-x="950" d="M63.5 312q0.5 81 16.5 188q18 104 67 218.5t122.5 221.5t160.5 196t189.5 148.5t201.5 71.5q27 2 34 -20q7 -26 -21 -41q-10 -5 -23 -7q-150 -24 -299 -202.5t-250 -475.5q111 123 273 123q140 0 214 -100.5t42 -282.5q-28 -162 -147.5 -273.5t-276.5 -111.5 q-45 0 -85.5 10t-81 33.5t-68.5 63.5t-48.5 99.5t-20 140.5zM196 212.5q5 -81.5 50.5 -130.5t130.5 -49q62 0 109 24t77.5 70t48.5 100t31 125q27 145 -8 230.5t-127 85.5q-121 0 -200.5 -79t-98.5 -188q-18 -107 -13 -188.5z" />
<glyph unicode="7" horiz-adv-x="774" d="M25 463q1 9 14 47t30 94.5t25 106.5l15 69q1 16 11.5 25.5t22.5 9.5q7 0 51 -4t62 -4l422 -2l4 4q27 40 54 30q21 -8 17 -35q-2 -10 -8 -20l-479 -860q-44 -80 -59.5 -109t-34 -75.5t-25.5 -87.5q-7 -33 2.5 -73t34.5 -48q0 45 31 73.5t68 28.5q34 0 53.5 -25t13.5 -59 q-7 -41 -47 -68.5t-84 -27.5q-69 0 -112.5 58t-28.5 141q11 68 37 127t90 172l403 723h-454q-48 -121 -64 -211q-2 -13 -12.5 -22t-26.5 -9t-22.5 9t-3.5 22z" />
<glyph unicode="8" horiz-adv-x="897" d="M41 319q11 65 40.5 120.5t77 101t93 79t110.5 72.5q-22 19 -37 33.5t-34 34t-31.5 37t-26 39.5t-20.5 44.5t-12 48.5t-4.5 56t6.5 62q22 124 132.5 212.5t239.5 88.5t201 -84.5t49 -216.5q-10 -52 -36.5 -99t-69.5 -87.5t-85 -71.5t-102 -68q24 -20 39.5 -32.5 t37.5 -32.5t35.5 -36t30.5 -38t27 -42t19.5 -46t12.5 -52t3 -57.5t-6 -65.5q-20 -111 -84.5 -193t-151 -121.5t-182.5 -39.5q-138 0 -218.5 97.5t-53.5 256.5zM126 191q11 -54 41.5 -89t70.5 -52t88 -17q92 0 162 64.5t90 170.5q6 35 7 67.5t-4 61t-12.5 53t-21 47.5 t-26.5 42t-32 39t-35 35t-38 34q-61 -39 -101 -69t-83.5 -71.5t-69.5 -88t-35 -99.5q-12 -74 -1 -128zM336 1019q0 -30 4.5 -54t15 -48t22.5 -43t30 -39.5t33.5 -36t37.5 -34.5q114 69 179 133t81 150q20 117 -27 176t-132 59q-92 0 -158 -59.5t-80 -141.5q-6 -32 -6 -62z " />
<glyph unicode="9" horiz-adv-x="950" d="M2 -534q-8 23 18 39q11 6 25 8q150 24 299 202.5t250 474.5q-118 -122 -272 -122q-140 0 -214 101.5t-42 283.5q28 161 147 272t274 111q46 0 86.5 -10t81.5 -33.5t68.5 -62.5t48 -98.5t19.5 -140.5t-17 -188q-23 -131 -94.5 -275.5t-170 -267.5t-225 -210t-249.5 -103 q-26 -4 -33 19zM211 451q-25 -146 9.5 -231t127.5 -85q120 0 200 79t99 187q65 369 -170 369q-62 0 -108.5 -24t-77 -70t-49 -100t-31.5 -125z" />
<glyph unicode=":" horiz-adv-x="528" d="M61 78q7 42 40 70t75 28t64.5 -28t15.5 -70q-8 -40 -41 -67t-74 -27q-40 0 -63.5 27.5t-16.5 66.5zM168 680q7 42 41 70t76 28q41 0 63 -27.5t14 -70.5q-6 -40 -39 -68t-73 -28q-41 0 -64.5 28t-17.5 68z" />
<glyph unicode=";" horiz-adv-x="528" d="M30 -227q-13 18 17 45q78 66 118 127.5t40 101.5q-12 -26 -37.5 -41.5t-52.5 -15.5q-33 0 -55 25.5t-15 64.5q8 42 42.5 71t80.5 29q60 0 85 -39.5t17 -89.5q-23 -133 -207 -276q-20 -15 -33 -2zM152 680q7 42 40.5 70t75.5 28q41 0 63 -27.5t15 -70.5q-6 -40 -39.5 -68 t-73.5 -28q-41 0 -64 28t-17 68z" />
<glyph unicode="&#x3c;" horiz-adv-x="907" d="M127 518q-40 29 10 60l668 415q32 20 42.5 3.5t-18.5 -38.5l-555 -409l410 -410q25 -25 9.5 -42.5t-44.5 5.5z" />
<glyph unicode="=" horiz-adv-x="937" d="M139 383q4 20 19 32.5t30 12.5q7 0 26 -2t67 -4t125 -2h32q78 0 127 2t69 4t28 2q16 0 24.5 -12t5.5 -33q-4 -21 -17.5 -34t-29.5 -13q-7 0 -25 2t-66 4t-128 2h-31q-79 0 -128 -2t-68 -4t-27 -2q-15 0 -25.5 13t-7.5 34zM186 639q3 20 17.5 32.5t29.5 12.5q8 0 27 -2 t67 -4t126 -2h32q77 0 126 2t69 4t27 2q16 0 25 -12t5 -33q-3 -21 -17 -34t-30 -13q-8 0 -26 2t-66 4t-127 2h-33q-78 0 -127 -2t-68 -4t-26 -2q-15 0 -25 13.5t-6 33.5z" />
<glyph unicode="&#x3e;" horiz-adv-x="907" d="M10 96.5q-11 17.5 23 42.5l557 410l-412 409q-14 14 -10.5 28t17 16.5t30.5 -9.5l522 -415q41 -29 -10 -60l-670 -416q-36 -23 -47 -5.5z" />
<glyph unicode="?" horiz-adv-x="849" d="M186 1100q11 63 61.5 120t125.5 92.5t153 35.5q156 0 233 -87.5t56 -209.5q-11 -64 -39.5 -120t-65 -96.5t-78.5 -76.5t-84 -68.5t-77.5 -65t-61.5 -72.5t-34 -85q-6 -63 -10 -88q-5 -25 -29 -27q-20 -2 -23 16v11q16 120 27 172q10 59 32.5 107t50.5 80.5t60 61t63.5 56 t59 58.5t49 76t31.5 100q9 43 -2.5 85t-54.5 74.5t-113 32.5q-89 0 -153.5 -43.5t-86.5 -105.5q33 0 57.5 -22t18.5 -60q-6 -32 -33 -55t-61 -23q-43 0 -61.5 38.5t-10.5 88.5zM190 78q8 40 41.5 69t73.5 29t63.5 -29t16.5 -69q-6 -38 -40 -66t-73 -28q-40 0 -64 28t-18 66z " />
<glyph unicode="@" horiz-adv-x="1482" d="M31 352q0 150 59 286.5t158 236t236 158.5t286 59q166 0 300 -68.5t212 -195.5t78 -291q0 -100 -36 -197.5t-92.5 -167.5t-126.5 -113t-136 -43q-57 0 -94.5 33t-47.5 78q-35 -49 -95.5 -83t-110.5 -34q-130 0 -190 111.5t-30 275.5q29 160 143.5 273.5t246.5 113.5 q74 0 135 -34h118l-94 -529q-12 -68 4.5 -97.5t63.5 -29.5q40 0 87.5 36t88.5 94t69 141t29 167q0 111 -40.5 203t-108.5 151t-155.5 91.5t-184.5 32.5q-131 0 -249.5 -54t-202.5 -143.5t-133.5 -208.5t-49.5 -246q0 -263 156 -421t405 -158q121 0 237.5 36t207.5 99 q14 9 25 2.5t10 -19t-11 -22.5q-111 -82 -240 -125t-249 -43q-186 0 -341.5 84t-246 232.5t-90.5 328.5zM535 397q-22 -135 7 -218t115 -83q61 0 116.5 55.5t72.5 139.5l65 371q-47 55 -131 55q-88 0 -154 -92.5t-91 -227.5z" />
<glyph unicode="A" horiz-adv-x="1058" d="M-213 29q3 16 14.5 26.5t22.5 10.5l36 -2q36 -1 93 -1l786 1262q18 27 47 27q14 0 22.5 -10.5t8.5 -28.5v-1250q44 0 72 0.5t40.5 1.5t18.5 1q13 0 21 -10q5 -7 5 -17q0 -5 -1 -10q-3 -16 -13.5 -25.5t-21.5 -9.5q-4 0 -20 2.5t-60.5 5t-118.5 2.5h-8q-74 0 -119.5 -2.5 t-62.5 -5t-21 -2.5q-12 0 -19.5 9.5t-4.5 25.5t14.5 26.5t22.5 10.5l36 -2q36 -1 95 -1v351h-418l-217 -351q56 0 91 1.5t36 1.5q13 0 20 -10t4 -27t-13 -26t-23 -9q-5 0 -18.5 2t-51 4.5t-98.5 3.5q-61 -1 -99.5 -3.5t-53 -4.5t-19.5 -2q-12 0 -20 10q-6 7 -6 17q0 4 1 8z M301 487h371v596z" />
<glyph unicode="B" horiz-adv-x="1032" d="M-35 29q4 17 15.5 27t23.5 10l36 -2q36 -1 95 -1l209 1188q-60 0 -96 -1l-37 -1q-12 0 -19.5 10.5t-3.5 26.5q1 14 12.5 24.5t22.5 10.5q4 0 20 -2.5t60.5 -5t118.5 -2.5q29 0 93 2t95 2q190 -1 276 -89q66 -68 66 -165q0 -30 -6 -62q-19 -103 -96 -182.5t-168 -107.5 q118 -25 183 -123q48 -72 48 -163q0 -32 -6 -67q-30 -167 -148.5 -263.5t-312.5 -96.5q-51 0 -127 4t-126 4q-73 0 -118 -2.5t-62 -5t-21 -2.5q-13 0 -20.5 9t-6.5 26zM283 76h170q136 0 201.5 62t93.5 218q7 42 7 78q0 82 -37 136q-54 78 -179 79h-156zM395 723h80 q131 0 206 60t103 216q8 44 8 80q0 69 -30 105q-45 54 -182 55h-93z" />
<glyph unicode="C" horiz-adv-x="1032" d="M73 374q-6 48 -6 101q0 86 17 182q27 152 89.5 282t144.5 219t180 139.5t196 50.5t156.5 -33.5t105.5 -95.5q44 8 58 77q0 1 1 4.5t1.5 5l1.5 4.5t2.5 4.5t3 4t4 3.5t5 2.5t6.5 2t8 0.5q23 0 23 -22q0 -4 -1 -9l-74 -415q-2 -11 -5 -17t-9.5 -11t-17.5 -5q-28 0 -23 33 q8 48 8 92q0 107 -50 185q-71 110 -202 110q-81 0 -146.5 -31t-122.5 -100.5t-101 -189t-74 -290.5q-24 -137 -28 -241q-1 -19 0 -37q0 -80 12 -137q16 -70 50.5 -113.5t82 -62.5t112.5 -19q132 0 242 110.5t139 276.5q5 33 33 33t23 -33l-74 -418q-6 -30 -33 -30 q-28 0 -23 32q5 27 0 53t-18 35q-76 -71 -145.5 -106t-173.5 -35q-98 0 -179 50t-131.5 140.5t-67.5 218.5z" />
<glyph unicode="D" horiz-adv-x="1200" d="M-35 29q4 17 15.5 27t23.5 10l36 -2q36 -1 95 -1l209 1188q-60 0 -96 -1l-37 -1q-12 0 -19.5 10.5t-3.5 26.5q1 14 12.5 24.5t22.5 10.5q4 0 20 -2.5t60.5 -5t118.5 -2.5q21 0 130.5 3t182.5 3q203 1 315 -185q77 -127 76 -304q0 -81 -16 -171q-26 -145 -87.5 -269.5 t-143 -209.5t-179.5 -133.5t-196 -48.5q-69 0 -169.5 4t-141.5 4q-73 0 -118 -2.5t-62 -5t-21 -2.5q-13 0 -20.5 9t-6.5 26zM283 80q102 -4 235 -4q108 0 186 53t139.5 183t98.5 345q27 163 28 275v7q0 107 -30 173q-32 68 -84.5 97.5t-132.5 29.5l-238 -4z" />
<glyph unicode="E" horiz-adv-x="1001" d="M-35 29q4 17 15.5 27t23.5 10l36 -2q36 -1 95 -1l209 1188q-60 0 -96 -1l-37 -1q-12 0 -19.5 10.5t-3.5 26.5q1 14 12.5 24.5t22.5 10.5q4 0 20 -2.5t60.5 -5t118.5 -2.5l446 4q16 0 57.5 4t47.5 4q11 0 17 -10q4 -7 4 -16q0 -5 -1 -11l-12 -61q-27 -191 -33 -248 q-8 -31 -35 -31q-13 0 -20.5 9.5t-5.5 21.5q12 60 12 107q0 50 -14 86q-26 68 -103 69h-295l-92 -516h180q45 0 78.5 41t46.5 117q2 13 9.5 21.5t19.5 8.5t17 -9t2 -21q-19 -86 -39 -195q-19 -104 -29 -194q-9 -31 -29 -31q-24 0 -20 31q7 33 7 59q0 33 -12 57 q-20 40 -65 41h-178l-100 -573h340q76 0 126 68t72 194q2 13 11.5 22t23.5 9q29 0 25 -31q-1 -6 -11.5 -51.5t-23 -102.5t-19.5 -94l-10 -63q-1 -14 -12 -24.5t-21 -10.5q-7 0 -46 4t-56 4l-489 4q-73 0 -118 -2.5t-62 -5t-21 -2.5q-13 0 -20.5 9t-6.5 26z" />
<glyph unicode="F" horiz-adv-x="942" d="M-35 29q4 17 15.5 27t23.5 10l36 -2q36 -1 95 -1l209 1188q-60 0 -96 -1l-37 -1q-12 0 -19.5 10.5t-3.5 26.5q1 14 12.5 24.5t22.5 10.5q4 0 20 -2.5t60.5 -5t118.5 -2.5q50 0 230 2t247 2q16 0 57.5 4t47.5 4q11 0 17 -10q4 -7 4 -16q0 -5 -1 -11l-12 -61 q-27 -191 -33 -248q-8 -31 -35 -31q-13 0 -20.5 9.5t-5.5 21.5q12 60 12 107q0 50 -14 86q-26 68 -103 69h-326l-92 -516h211q44 0 78 41t47 117q2 13 9.5 21.5t19.5 8.5t16.5 -8.5t1.5 -21.5q-30 -136 -41 -195q-9 -47 -14.5 -85.5t-7 -56t-3 -34t-1.5 -18.5 q-9 -31 -29 -31q-24 0 -20 31q7 33 7 59q1 33 -11 57q-20 40 -66 41h-209l-102 -586q59 0 95 1l36 2q11 0 19 -10.5t5 -26.5t-13.5 -25.5t-23.5 -9.5q-4 0 -19.5 2.5t-60 5t-118.5 2.5h-8q-73 0 -118 -2.5t-62 -5t-21 -2.5q-13 0 -20.5 9t-6.5 26z" />
<glyph unicode="G" horiz-adv-x="1138" d="M74 374q-7 51 -7 106q0 84 17 177q27 152 88.5 282t142.5 219t178 139.5t195 50.5q177 0 283 -152q17 7 34 32.5t25 67.5q4 31 31 31q28 0 22 -31l-73 -415q-4 -33 -31 -33q-32 0 -23 33q7 41 7 79q0 63 -19 119q-32 90 -99.5 139.5t-154.5 49.5q-81 0 -145.5 -31 t-120.5 -100.5t-99 -189t-73 -290.5q-27 -165 -27 -279q0 -6 1 -12q1 -117 37 -188t91.5 -101t137.5 -30q68 0 122.5 28.5t88 71.5t55.5 98.5t30.5 105t8.5 95.5q-59 0 -107 -1l-47 -1q-12 0 -19 9.5t-3 25.5q1 16 12 26.5t22 10.5q4 0 20 -2.5t60.5 -5t118.5 -2.5h49 q74 0 119 2.5t61.5 5t20.5 2.5q12 0 19.5 -10t6.5 -27q-9 -35 -38 -35l-36 1q-35 1 -95 1l-3 -20q-40 -220 -175 -340.5t-322 -120.5q-99 0 -181 50t-134.5 141t-71.5 218z" />
<glyph unicode="H" horiz-adv-x="1261" d="M-35 29q4 17 15.5 27t23.5 10l36 -2q36 -1 95 -1l209 1188q-60 0 -96 -1l-37 -1q-12 0 -19.5 10.5t-3.5 26.5q1 14 12.5 24.5t22.5 10.5q4 0 20 -2.5t60.5 -5t118.5 -2.5h8q74 0 119 2.5t61.5 5t20.5 2.5q13 0 21 -10.5t5 -24.5q-4 -17 -14.5 -27t-21.5 -10l-37 1 q-37 1 -97 1l-92 -528h486l92 528q-59 0 -95 -1l-36 -1q-13 0 -20.5 10t-4.5 27q3 15 14 25t23 10q4 0 20 -2.5t60 -5t117 -2.5h10q73 0 118 2.5t62 5t21 2.5q11 -1 19 -11q6 -8 6 -17q0 -4 -1 -7q-3 -17 -13.5 -27t-23.5 -10l-36 1q-36 1 -95 1l-209 -1188q60 0 95 1l36 2 q13 0 21 -10.5t4 -26.5q-3 -16 -13.5 -25.5t-21.5 -9.5q-4 0 -20 2.5t-60.5 5t-118.5 2.5h-8q-58 0 -99.5 -1.5t-57.5 -3.5l-28 -3.5t-17 -1.5q-12 0 -20 9.5t-5 25.5t14.5 26.5t22.5 10.5l36 -2q36 -1 95 -1l102 586h-483l-102 -586q59 0 95 1l36 2q11 0 19 -10.5t5 -26.5 t-13.5 -25.5t-23.5 -9.5q-4 0 -19.5 2.5t-60 5t-118.5 2.5h-8q-73 0 -118 -2.5t-62 -5t-21 -2.5q-13 0 -20.5 9t-6.5 26z" />
<glyph unicode="I" horiz-adv-x="630" d="M-35 29q4 17 15.5 27t23.5 10l36 -2q36 -1 95 -1l209 1188q-60 0 -96 -1l-37 -1q-12 0 -19.5 10.5t-3.5 26.5q1 14 12.5 24.5t22.5 10.5q4 0 20 -2.5t60.5 -5t118.5 -2.5h8q74 0 119 2.5t61.5 5t20.5 2.5q13 -1 21 -11q6 -8 6 -17q0 -4 -1 -7q-4 -17 -14.5 -27t-21.5 -10 l-37 1q-37 1 -97 1l-206 -1188q59 0 95 1l36 2q11 0 19 -10.5t5 -26.5t-13.5 -25.5t-23.5 -9.5q-4 0 -19.5 2.5t-60 5t-118.5 2.5h-8q-73 0 -118 -2.5t-62 -5t-21 -2.5q-13 0 -20.5 9t-6.5 26z" />
<glyph unicode="J" horiz-adv-x="608" d="M-152 -158q6 40 33 65t62 25q32 0 50.5 -24t12.5 -58q-5 -25 -24 -46.5t-48 -30.5q7 -41 48 -41q95 0 116 131l246 1388q-60 0 -96 -1l-37 -1q-12 0 -19.5 10.5t-3.5 26.5q1 14 12.5 24.5t22.5 10.5q4 0 20 -2.5t60.5 -5t118.5 -2.5h8q74 0 119 2.5t61.5 5t20.5 2.5 q13 0 21 -11q6 -7 6 -17q0 -3 -1 -7q-4 -17 -14.5 -27t-21.5 -10l-37 1q-37 1 -97 1l-221 -1259q-25 -143 -98 -226t-184 -83q-71 0 -109 50q-29 39 -29 83q0 13 2 26z" />
<glyph unicode="K" horiz-adv-x="1099" d="M-35 29q4 17 15.5 27t23.5 10l36 -2q36 -1 95 -1l209 1188q-60 0 -96 -1l-37 -1q-12 0 -19.5 10.5t-3.5 26.5q1 14 12.5 24.5t22.5 10.5q4 0 20 -2.5t60.5 -5t118.5 -2.5h8q74 0 119 2.5t61.5 5t20.5 2.5q13 0 21 -10.5t5 -24.5q-4 -17 -14.5 -27t-21.5 -10l-37 1 q-37 1 -97 1l-206 -1188q59 0 95 1l36 2q11 0 19 -10.5t5 -26.5t-13.5 -25.5t-23.5 -9.5q-4 0 -19.5 2.5t-60 5t-118.5 2.5h-8q-73 0 -118 -2.5t-62 -5t-21 -2.5q-13 0 -20.5 9t-6.5 26zM399 692l4 17l549 542q-44 0 -73.5 -0.5t-43.5 -1t-20 -0.5q-13 0 -20 10t-4 27 q3 15 13.5 25t22.5 10q5 0 18.5 -2t51 -4.5t98.5 -3.5q47 1 82 2.5t49 3t24.5 3t16.5 1.5q11 -1 19 -11q6 -8 7 -17q0 -3 -1 -7q-3 -16 -14.5 -26.5t-22.5 -10.5q-3 0 -35 1t-76 1l-514 -508l363 -680q49 0 85 1.5t38 1.5q13 0 20 -10t4 -27t-13 -26t-23 -9q-4 0 -20 2.5 t-60 5t-117 2.5h-8q-74 0 -119.5 -2.5t-62.5 -5t-21 -2.5q-12 0 -20 9.5t-5 25.5t14.5 26.5t22.5 10.5q3 0 42.5 -1.5t84.5 -1.5z" />
<glyph unicode="L" horiz-adv-x="931" d="M-35 29q4 17 15.5 27t23.5 10l36 -2q36 -1 95 -1l209 1188q-60 0 -96 -1l-37 -1q-12 0 -19.5 10.5t-3.5 26.5q1 14 12.5 24.5t22.5 10.5q4 0 20 -2.5t60.5 -5t118.5 -2.5h8q74 0 119 2.5t61.5 5t20.5 2.5q13 0 21 -10.5t5 -24.5q-4 -17 -14.5 -27t-21.5 -10l-37 1 q-37 1 -97 1l-204 -1175h325q151 0 197 262q2 12 13 21.5t24 9.5q24 0 24 -31q-1 -4 -12 -51t-23 -103.5t-18 -93.5l-10 -63q-3 -15 -13.5 -25t-21.5 -10q-6 0 -45 4t-55 4q-36 0 -231 2t-244 2q-73 0 -118 -2.5t-62 -5t-21 -2.5q-13 0 -20.5 9t-6.5 26z" />
<glyph unicode="M" horiz-adv-x="1462" d="M-25 29q3 16 13.5 26.5t21.5 10.5l36 -2q36 -1 89 -1l209 1188q-53 0 -89 -1l-36 -1q-11 0 -17.5 10.5t-2.5 26.5q1 15 11 25t21 10q4 0 18 -2t49 -4.5t89 -3.5h70q19 0 25 -8.5t4.5 -22t0.5 -29.5l154 -1040l526 1040q1 3 5.5 14t7.5 16.5t8 13.5t11.5 11.5t14.5 4.5h56 q66 0 108.5 2.5t59 5t20.5 2.5q10 0 17 -10.5t6 -24.5q-4 -17 -14 -27t-21 -10l-36 1q-36 1 -89 1l-209 -1188q53 0 89 1l36 2q11 0 17 -10t3 -27q-1 -16 -11.5 -25.5t-20.5 -9.5q-5 0 -21.5 2.5t-57.5 5t-106 2.5h-22q-67 0 -109.5 -2.5t-59 -5t-20.5 -2.5q-11 0 -17 9 t-3 26q3 16 13.5 26.5t21.5 10.5q6 0 19 -1t40 -1.5t66 -0.5l174 998l-547 -1077q-12 -21 -37 -21q-20 0 -27 21l-157 1063l-172 -984q53 0 89 1l36 2q11 0 17 -10t3 -27q-3 -16 -13.5 -25.5t-21.5 -9.5q-4 0 -17 2t-48 4.5t-90 3.5q-55 -1 -91 -3.5t-51 -4.5t-20 -2 q-10 0 -16 9.5t-5 25.5z" />
<glyph unicode="N" horiz-adv-x="1187" d="M-49 29q3 16 14.5 26.5t22.5 10.5l36 -2q36 -1 95 -1l209 1188q-59 0 -95 -1l-36 -1q-13 0 -20.5 10t-4.5 27q3 15 14 25t23 10q5 0 18.5 -2t51 -4.5t98.5 -3.5q10 0 34.5 2t34.5 2q16 0 28.5 -18t27.5 -58l342 -917l162 929q-59 0 -96 -1l-36 -1q-13 0 -20 10t-4 27 q3 15 14 25t23 10q5 0 18.5 -2t51 -4.5t98.5 -3.5q61 1 99 3.5t52 4.5t19 2q13 -1 21 -11q6 -8 6 -17q0 -4 -1 -7q-4 -17 -15 -27t-22 -10l-36 1q-37 1 -97 1l-215 -1220q-8 -58 -35 -58q-12 0 -19 8.5t-15 27.5q-1 3 -2 5l-410 1110l-188 -1061q59 0 95 1l36 2q13 0 20 -10 t4 -27q-3 -16 -13.5 -25.5t-23.5 -9.5q-5 0 -18.5 2t-51 4.5t-98.5 3.5q-61 -1 -99.5 -3.5t-53 -4.5t-19.5 -2q-11 0 -19 10q-5 7 -6 16q0 4 1 9z" />
<glyph unicode="O" horiz-adv-x="1169" d="M74 374q-7 49 -7 103q0 85 17 180q27 152 89.5 282t145.5 219t182.5 139.5t200.5 50.5t184 -50t134 -140q52 -90 70 -218q7 -51 8 -106q0 -83 -17 -177q-27 -152 -90 -282.5t-146.5 -219.5t-184 -139.5t-201.5 -50.5t-183.5 50t-133 140.5t-68.5 218.5zM221 363 q0 -116 29 -185q30 -70 85 -100.5t140 -30.5q112 0 192 55t142 191t102 364q31 173 31 291v3q0 115 -30 185t-84 101t-138 31q-114 0 -194.5 -55.5t-142 -191t-101.5 -364.5q-31 -174 -31 -294z" />
<glyph unicode="P" horiz-adv-x="933" d="M-35 29q4 17 15.5 27t23.5 10l36 -2q36 -1 95 -1l209 1188q-60 0 -96 -1l-37 -1q-12 0 -19.5 10.5t-3.5 26.5q1 14 12.5 24.5t22.5 10.5q5 0 24.5 -2t64.5 -4.5t108 -3.5q176 4 205 4q195 0 282 -103q64 -76 64 -192q0 -41 -8 -88q-30 -176 -155 -280.5t-321 -104.5h-122 l-84 -484q53 0 88 1.5t37 1.5q9 0 15 -10t5 -27q-3 -16 -13.5 -25.5t-21.5 -9.5q-6 0 -24.5 2.5t-62 5t-111.5 2.5q-73 0 -118 -2.5t-62 -5t-21 -2.5q-13 0 -20.5 9t-6.5 26zM377 621h125q137 0 203.5 68.5t97.5 242.5q13 72 13 126q0 76 -25 114q-43 68 -181 67h-123z" />
<glyph unicode="Q" horiz-adv-x="1169" d="M84 657q27 152 89.5 282t145.5 219t182.5 139.5t200.5 50.5t184 -50t134.5 -140.5t69.5 -217.5q8 -51 8 -106q0 -84 -17 -177q-50 -277 -206 -464.5t-347 -219.5l-20 -118q-7 -42 -7 -77q0 -169 171 -169q67 0 129.5 32.5t105.5 79.5q35 41 58 41q11 0 18 -9t6 -21 q-3 -22 -37 -56q-68 -62 -146.5 -97.5t-154.5 -35.5q-165 0 -237 88q-49 60 -49 164q0 48 10 105l10 73q-175 35 -263 223q-56 119 -56 274q0 88 18 187zM220 363q0 -116 30 -185q30 -70 85 -100.5t140 -30.5q112 0 192 55t142 191t102 364q30 172 31 291v3q0 116 -30 185 q-30 71 -84 101.5t-138 30.5q-114 0 -194.5 -55.5t-142 -191t-101.5 -364.5q-32 -175 -32 -294z" />
<glyph unicode="R" horiz-adv-x="1048" d="M-35 29q4 17 15.5 27t23.5 10l36 -2q36 -1 95 -1l209 1188q-60 0 -96 -1l-37 -1q-12 0 -19.5 10.5t-3.5 26.5q1 14 12.5 24.5t22.5 10.5q5 0 26.5 -2.5t66.5 -5t106 -2.5q29 0 90 1t98 1q190 -1 276 -87q66 -66 66 -164q0 -30 -6 -63q-21 -112 -106.5 -194t-175.5 -98 q75 -19 124 -79t64 -132q8 -39 8 -76q0 -33 -6 -66q-11 -67 -29 -148t-20 -89q-7 -35 5 -55.5t36 -20.5q51 0 63 68q3 16 14 27t25 11q12 1 21 -11q7 -9 7 -19q0 -3 -1 -6q-10 -58 -54.5 -94.5t-97.5 -36.5q-105 0 -132 90q-12 38 -12 96q0 77 21 188q11 66 11 119 q1 19 -1 37q-6 66 -51 102.5t-131 36.5h-145l-102 -586q53 0 88 1.5t37 1.5q9 0 15 -10t5 -27q-3 -16 -13.5 -25.5t-21.5 -9.5q-8 0 -30 2.5t-65 5t-103 2.5q-73 0 -118 -2.5t-62 -5t-21 -2.5q-13 0 -20.5 9t-6.5 26zM395 723h111q116 0 185 72.5t93 203.5q9 50 9 89 q-1 64 -25 97q-40 54 -172 54h-109z" />
<glyph unicode="S" horiz-adv-x="905" d="M-27 281q0 62 37 103.5t90 41.5q34 0 58 -23t24 -57q0 -40 -34.5 -71t-79.5 -31q34 -98 110.5 -147.5t181.5 -49.5q115 0 203 70.5t88 185.5q0 175 -239 307q-244 134 -244 367q0 90 38 163.5t97.5 117t126 67t129.5 23.5q134 0 215.5 -68t81.5 -168q0 -60 -37 -96.5 t-84 -36.5q-36 0 -57 24.5t-21 49.5q0 37 29.5 67.5t77.5 36.5q-16 53 -70 87t-137 34q-123 0 -195.5 -73t-72.5 -173q0 -93 52 -157t146 -111q60 -32 107.5 -67t93.5 -84t71 -114.5t25 -140.5q0 -120 -62 -211.5t-158 -136.5t-208 -45q-86 0 -160.5 29.5t-122 76t-74 101.5 t-26.5 109z" />
<glyph unicode="T" horiz-adv-x="960" d="M76 977q1 8 11 52t23 102t19 94l10 61q3 16 13.5 26.5t21.5 10.5q6 0 44 -4t54 -4l285 -4h72l284 4q16 0 56.5 4t48.5 4q9 0 15 -10t5 -27l-12 -61q-6 -36 -14 -94t-13.5 -102t-7.5 -52q-4 -31 -33 -31q-15 0 -22 9.5t-4 21.5q11 61 11 107q0 155 -118 155h-174 l-205 -1176q53 0 88 1l35 2q11 0 17.5 -10t3.5 -27q-1 -16 -12 -25.5t-21 -9.5q-4 0 -19.5 2.5t-57 5t-107.5 2.5h-23q-66 0 -108.5 -2.5t-59 -5t-20.5 -2.5q-10 0 -16 9.5t-5 25.5q3 16 13.5 26.5t21.5 10.5l36 -2q36 -1 89 -1l207 1176h-174q-76 0 -126.5 -68t-72.5 -194 q-8 -31 -37 -31q-13 0 -19 10q-4 6 -4 13q0 4 1 8z" />
<glyph unicode="U" horiz-adv-x="1153" d="M147 346l158 905q-59 0 -95 -1l-36 -1q-11 0 -19 10.5t-5 26.5q3 15 13.5 25t22.5 10q4 0 20 -2.5t60.5 -5t118.5 -2.5h8q73 0 118 2.5t62 5t21 2.5q12 0 20 -10t7 -25q-4 -17 -15.5 -27t-23.5 -10l-36 1q-36 1 -95 1l-166 -944q-6 -33 -6 -62q0 -82 48 -131 q65 -67 179 -67q122 0 208.5 83t110.5 216l158 905q-59 0 -95 -1l-36 -1q-13 0 -20.5 10t-4.5 27q3 15 14 25t23 10q5 0 18.5 -2t51 -4.5t98.5 -3.5q47 1 82 2.5t49 3t24.5 3t16.5 1.5q12 -1 20 -11q6 -8 6 -17q0 -3 -1 -7q-3 -16 -14.5 -26.5t-22.5 -10.5l-36 1 q-36 1 -95 1l-160 -905q-32 -184 -157 -282.5t-287 -98.5t-252 100q-66 74 -66 192q0 42 8 89z" />
<glyph unicode="V" horiz-adv-x="1030" d="M66 1286q1 14 12 24.5t22 10.5q4 0 20 -2.5t60.5 -5t118.5 -2.5h8q74 0 119 2.5t61.5 5t20.5 2.5q13 0 21.5 -10.5t5.5 -24.5q-4 -17 -15 -27t-22 -10l-36 1q-37 1 -97 1v-1020l636 1020q-56 0 -91 -1t-36 -1q-13 0 -20 10t-4 27q3 15 14 25t23 10q5 0 18.5 -2t51 -4.5 t98.5 -3.5q61 1 99 3.5t52 4.5t19 2q13 -1 21 -11q6 -8 6 -17q0 -4 -1 -7q-4 -17 -15 -27t-22 -10l-36 1q-36 1 -93 1l-786 -1261q-15 -27 -47 -27q-31 0 -31 39v1249q-60 0 -97 -1l-36 -1q-12 1 -19 11q-4 7 -4 15q0 5 1 11z" />
<glyph unicode="W" horiz-adv-x="1458" d="M66 1286q1 14 12 24.5t22 10.5q4 0 20 -2.5t60.5 -5t118.5 -2.5h698q60 1 98.5 3.5t52.5 4.5t19 2q12 0 20 -10t7 -25q-4 -17 -15.5 -27t-23.5 -10q-4 0 -19.5 1t-39.5 1l-328 -538v-523l662 1061q-49 0 -80 -1t-33 -1q-12 0 -19.5 10.5t-3.5 26.5q1 14 12.5 24.5 t22.5 10.5q5 0 18 -2.5t46.5 -5t87.5 -2.5t88 2.5t47 5t18 2.5q14 -1 22 -11q6 -8 6 -17q0 -3 -1 -7q-4 -17 -15 -27t-22 -10q-2 0 -32.5 1t-80.5 1l-786 -1261q-15 -27 -47 -27q-14 0 -22.5 10.5t-8.5 28.5v555l-348 -567q-15 -27 -47 -27q-31 0 -31 39v1249q-60 0 -97 -1 l-36 -1q-12 1 -19 11q-4 7 -4 15q0 5 1 11zM348 205l299 487v559h-299v-1046zM768 846l244 405h-244v-405z" />
<glyph unicode="X" horiz-adv-x="968" d="M-156 29q4 17 15 27t22 10q3 0 37 -1.5t78 -1.5l418 572l-191 616q-56 0 -89 -1t-34 -1q-12 0 -19 10.5t-3 26.5q1 14 12.5 24.5t22.5 10.5q4 0 19.5 -2.5t60 -5t118.5 -2.5h8q74 0 119 2.5t61.5 5t20.5 2.5q12 0 20 -10t7 -25q-4 -17 -15.5 -27t-23.5 -10q-2 0 -35 1 t-86 1l148 -477l346 477q-59 0 -101 -1l-41 -1q-13 0 -20 10t-4 27q3 15 14 25t23 10q5 0 18.5 -2t51 -4.5t98.5 -3.5q47 1 82 2.5t49 3t24.5 3t16.5 1.5q11 -1 19 -11q6 -8 6 -17q0 -4 -1 -7q-3 -16 -14.5 -26.5t-22.5 -10.5q-3 0 -36 1t-78 1l-406 -555l195 -633 q56 0 89 1.5t34 1.5q13 0 20.5 -10.5t3.5 -26.5q-3 -16 -13.5 -25.5t-21.5 -9.5q-4 0 -19.5 2.5t-60 5t-118.5 2.5h-9q-58 0 -99.5 -1.5t-57.5 -3.5l-28 -3.5t-17 -1.5q-12 0 -20 9.5t-5 25.5t14.5 26.5t22.5 10.5q2 0 36 -1.5t85 -1.5l-150 494l-360 -494q60 0 100 1l41 2 q13 0 21 -10.5t4 -26.5q-3 -16 -13.5 -25.5t-21.5 -9.5q-6 0 -16 1.5t-24 3t-48.5 3t-81.5 2.5q-61 -1 -99 -3.5t-52 -4.5t-19 -2q-13 0 -21 10q-6 7 -7 17q0 4 1 8z" />
<glyph unicode="Y" horiz-adv-x="899" d="M18 1286q3 15 14 25t23 10q4 0 20 -2.5t60 -5t117 -2.5h10q73 0 118 2.5t62 5t21 2.5q11 0 19 -10.5t5 -24.5q-3 -17 -13.5 -27t-22.5 -10q-1 0 -36.5 1t-90.5 1l165 -563l365 563q-44 0 -75 -0.5t-46.5 -1t-21.5 -0.5q-13 0 -20.5 10t-4.5 27q3 15 14 25t23 10 q5 0 18.5 -2t51 -4.5t98.5 -3.5q61 1 99 3.5t52 4.5t19 2q13 0 21 -11q6 -7 6 -17q0 -3 -1 -7q-4 -17 -14.5 -27t-21.5 -10q-3 0 -38.5 1t-80.5 1l-408 -624l-98 -564q60 0 96 1l37 2q12 0 19.5 -10.5t3.5 -26.5q-1 -16 -12 -25.5t-23 -9.5q-4 0 -20 2.5t-60.5 5t-118.5 2.5 h-8q-74 0 -119 -2.5t-61.5 -5t-20.5 -2.5q-13 0 -21 9.5t-5 25.5q4 17 15 27t22 10l36 -2q37 -1 97 -1l88 515l-201 673q-56 0 -91 -1t-36 -1q-13 0 -21 10q-5 7 -5 18q0 4 1 9z" />
<glyph unicode="Z" horiz-adv-x="821" d="M-68 0q-4 4 -4 11q0 20 27 65l735 1171h-325q-75 0 -133.5 -74.5t-79.5 -187.5q-2 -13 -11.5 -22t-23.5 -9t-21 9t-4 22q1 4 11 47t22 99.5t20 101.5l11 53q3 17 13 27t21 10q6 0 45.5 -4t55.5 -4h418q25 0 52.5 0.5t42.5 1t29.5 0.5t22 -2t12.5 -6q8 -5 8 -15 q0 -6 -3 -14q-4 -11 -8 -18t-13 -23l-735 -1171h340q76 0 135 74.5t80 187.5q0 11 10.5 20.5t24.5 9.5q13 0 19.5 -9.5t4.5 -20.5q-1 -4 -11.5 -46.5t-23 -99t-20.5 -102.5l-10 -55q-3 -15 -13.5 -25t-21.5 -10q-5 0 -44 4t-55 4h-403q-37 0 -88 -5.5t-76 -5.5t-33 11z" />
<glyph unicode="[" horiz-adv-x="716" d="M88 -139q0 10 12.5 55t14.5 57l221 1262q5 18 8 62.5t4 50.5q8 30 41 30h121q84 0 137 3t72.5 5.5t23.5 2.5q13 0 20.5 -8.5t4.5 -22.5q-3 -16 -13.5 -25.5t-21.5 -9.5h-264l-254 -1438h262q13 0 21.5 -9.5t5.5 -25.5q-9 -30 -37 -30q-4 0 -22 2.5t-70 5t-137 2.5h-121 q-17 0 -24.5 9t-4.5 22z" />
<glyph unicode="\" horiz-adv-x="712" d="M27 1284q-5 15 2 30.5t26 22.5q21 8 36.5 2.5t21.5 -20.5q3 -6 15.5 -41t36.5 -96t54 -131l348 -822q27 -65 60.5 -129.5t34.5 -68.5q5 -15 -2 -32t-27 -24q-21 -8 -36 -2t-22 21l-25 70q-25 70 -52 137l-348 821q-30 71 -57.5 129t-45 92.5t-20.5 40.5z" />
<glyph unicode="]" horiz-adv-x="716" d="M-78 -150q3 16 13.5 25.5t23.5 9.5h262l256 1438h-264q-12 0 -20 9.5t-5 25.5q3 14 14 22.5t23 8.5q4 0 22.5 -2.5t70.5 -5.5t137 -3h120q17 0 24.5 -8.5t4.5 -21.5q-1 -8 -12.5 -52t-13.5 -61l-224 -1262q-3 -14 -5 -37.5t-3 -46t-2 -28.5q-3 -12 -14.5 -21.5 t-26.5 -9.5h-123q-83 0 -136 -2.5t-73 -5t-24 -2.5q-11 0 -18.5 8t-6.5 22z" />
<glyph unicode="^" horiz-adv-x="993" d="M106.5 736.5q-0.5 13.5 14.5 33.5l465 561q15 21 31.5 21t25.5 -21l266 -561q8 -22 3.5 -36.5t-19 -14t-27.5 19.5l-286 408l-430 -408q-16 -17 -29.5 -16.5t-14 14z" />
<glyph unicode="_" horiz-adv-x="733" d="M-2 0h737v-90h-737v90z" />
<glyph unicode="`" horiz-adv-x="743" d="M310 1126.5q2 26.5 22 44.5q19 20 47 23t43 -14q8 -8 24.5 -40t51 -83t84.5 -101q8 -8 3.5 -18.5t-15 -14t-19.5 2.5q-50 50 -101 84t-84.5 50.5t-41.5 24.5q-16 15 -14 41.5z" />
<glyph unicode="a" horiz-adv-x="989" d="M37 401q16 94 59 177t97.5 138.5t116 87.5t116.5 32q62 0 108.5 -37.5t69.5 -106.5l21 109q0 8 14 8q7 0 20.5 -3t28.5 -3q14 0 30.5 3t22.5 3q13 0 13 -8l-117 -654q-10 -41 -0.5 -61.5t19 -25.5t22.5 -5q48 0 85.5 66t59.5 184q1 17 12.5 28t26.5 11q16 0 22 -10 q4 -7 4 -18q0 -5 -1 -11q-10 -55 -27.5 -106.5t-46 -102.5t-73 -81.5t-99.5 -30.5q-58 0 -96.5 34.5t-38.5 100.5q-45 -71 -112 -112.5t-132 -41.5q-133 0 -196 121q-41 79 -41 188q0 59 12 127zM172 116q24 -82 109 -81q92 0 167 97t105 269q15 80 15 143q0 76 -21 128 q-38 96 -131 96q-68 0 -135 -90.5t-101 -276.5q-18 -115 -18 -191q-1 -59 10 -94z" />
<glyph unicode="b" d="M68 1280q10 37 38 37l36 -2q37 -2 96 -2q18 0 53.5 4t42.5 4q12 0 20.5 -10.5t5.5 -24.5l-106 -598q50 71 112 109.5t128 38.5q133 0 196 -120q41 -78 41 -188q0 -59 -12 -127q-34 -196 -142.5 -316t-252.5 -120q-64 0 -112.5 22.5t-76 61t-44 85t-20.5 100.5 q-2 33 -2 64q1 18 1 36q2 46 10 92l145 823q-59 0 -95 -2l-36 -2q-13 0 -20 9t-6 26zM188 221q2 -72 23.5 -115t51 -61t69.5 -18q96 0 152 86t91 288q19 117 19 193q0 57 -10 92q-24 82 -107 82q-93 0 -167.5 -97t-106.5 -270q-15 -99 -14 -167q-1 -7 -1 -13z" />
<glyph unicode="c" horiz-adv-x="735" d="M37 401q35 195 146 315t257 120q64 0 118 -28t83 -80q21 -38 21 -82q0 -17 -3 -34q-7 -43 -35 -69.5t-63 -26.5q-34 0 -54 24.5t-13 59.5q5 31 32.5 56.5t57.5 25.5q-7 43 -45 65.5t-88 22.5q-103 0 -168 -86t-101 -283q-15 -89 -14 -155q0 -78 20 -124q38 -85 136 -85 q125 0 215 170q17 35 39 35q26 0 26 -29q0 -21 -16 -45q-72 -116 -143 -159.5t-158 -43.5q-146 0 -214 120q-46 82 -46 198q0 55 10 118z" />
<glyph unicode="d" horiz-adv-x="989" d="M37 401q34 194 140 314.5t239 120.5q64 0 114.5 -38t73.5 -106l98 557q-59 0 -95 -2l-36 -2q-12 0 -19.5 9.5t-4.5 25.5t14.5 26.5t22.5 10.5l36 -2q36 -2 95 -2q18 0 54.5 4t43.5 4q11 0 19.5 -10.5t5.5 -24.5l-201 -1139q-4 -21 -4 -37q0 -55 45 -55q48 0 85.5 66 t59.5 184q1 17 12.5 28t26.5 11q16 0 22 -10q4 -7 4 -18q0 -5 -1 -11q-10 -55 -27.5 -106.5t-46 -102.5t-73 -81.5t-99.5 -30.5q-58 0 -97 35t-38 100q-45 -71 -112 -112.5t-132 -41.5q-133 0 -196 121q-41 79 -41 188q0 59 12 127zM172 116q24 -82 109 -81q92 0 167 97 t105 269q13 74 13 134q0 79 -23 135q-41 98 -135 98q-82 0 -137 -85t-91 -282q-18 -115 -18 -191q-1 -59 10 -94z" />
<glyph unicode="e" horiz-adv-x="751" d="M37 401q17 98 62 181.5t104 138t125.5 85t130.5 30.5q96 0 150 -53q43 -42 43 -101q0 -15 -3 -31q-9 -52 -36 -96t-66.5 -75t-84.5 -54.5t-97.5 -38.5t-98 -24t-92.5 -13q-6 -50 -6 -93q0 -85 25 -139q38 -81 131 -81q158 0 239 170q17 35 41 35q12 0 19.5 -8.5 t7.5 -22.5q0 -15 -10 -35q-37 -62 -78 -105t-84 -65.5t-83 -31.5t-87 -9q-137 0 -211 123q-51 85 -51 202q0 52 10 111zM184 414q78 7 146.5 31t125 76.5t70.5 125.5q3 16 3 31q0 34 -15 58q-21 34 -65 34q-100 0 -166.5 -94t-98.5 -262z" />
<glyph unicode="f" horiz-adv-x="538" d="M-283 -399q6 36 29 58t55 22q31 0 48.5 -21.5t11.5 -52.5q-5 -24 -22.5 -43.5t-43.5 -26.5q6 -14 24 -25.5t36 -11.5q37 0 61.5 15t47 64t38.5 138l178 1022q-48 0 -94 -2t-47 -2q-12 0 -19.5 9.5t-3.5 25.5q1 16 12 25.5t23 9.5q60 0 142 -2l24 137q20 117 45.5 197.5 t65.5 142t98 90.5t137 29q91 0 135 -45q37 -37 37 -82q0 -10 -2 -21q-6 -40 -32 -65t-60 -25q-33 0 -52 23.5t-14 56.5q4 26 24 47.5t48 30.5q-6 12 -31.5 21.5t-58.5 9.5q-61 0 -107.5 -39t-60.5 -123l-67 -385q88 2 157 2q13 0 20.5 -9t6.5 -26q-9 -35 -39 -35q-1 0 -54 2 t-104 2l-141 -807q-18 -102 -41.5 -181.5t-51 -130.5t-55 -85.5t-58.5 -51.5t-57 -23.5t-55 -6.5q-68 0 -106 47q-29 36 -29 78q0 11 2 23z" />
<glyph unicode="g" horiz-adv-x="776" d="M-123 -324q0 63 51.5 127t143.5 113q-40 8 -66 32.5t-34.5 50.5t-8.5 56q0 84 52 137t124 68q-50 39 -74 109q-16 47 -16 99q0 26 4 54q19 130 112 222t202 92q60 0 114 -31t78 -84q6 64 52.5 112t97.5 48q47 0 71 -29q21 -27 21 -60v-8q-5 -31 -26 -52t-50 -21 q-28 0 -44 18.5t-11 44.5q2 25 22 45q-24 9 -53 -20.5t-39 -91.5q-2 -20 -2.5 -82t-7.5 -103q-20 -130 -110 -221.5t-201 -91.5q-20 0 -51 4t-38 4q-54 0 -94.5 -26t-40.5 -66q0 -32 26.5 -45.5t104.5 -13.5h164q131 0 190 -74q44 -57 44 -143q0 -27 -4 -56 q-22 -154 -141 -247t-263 -93q-139 0 -219 64t-80 159zM-23 -303q0 -81 54.5 -132.5t152.5 -51.5q124 0 210.5 72.5t99.5 156.5q2 18 2 34q0 60 -32 92q-40 40 -145 40h-180q-84 -44 -123 -99.5t-39 -111.5zM186 522q-8 -58 -8 -102q0 -56 12 -92q24 -64 97 -64t113.5 64 t58.5 194q8 59 8 104q0 55 -13 90q-23 64 -96 64t-113 -63t-59 -195z" />
<glyph unicode="h" horiz-adv-x="999" d="M6 4l221 1245q-59 0 -95 -2l-36 -2q-13 0 -20 9t-6 26q4 17 15.5 27t23.5 10l35 -2q36 -2 96 -2q18 0 53.5 4t42.5 4q12 0 19.5 -10t6.5 -25l-120 -682q45 90 130.5 161t170.5 71q115 0 155 -82q25 -51 25 -124q0 -45 -10 -98l-68 -385q-3 -19 -4 -35q0 -57 45 -57 q49 0 86.5 66.5t58.5 183.5q3 17 13.5 28t25.5 11q27 0 27 -32v-7q-11 -56 -28.5 -106.5t-46.5 -102t-73.5 -82t-99.5 -30.5q-65 0 -105 43q-29 32 -30 84q0 18 4 39l78 444q7 38 7 66q-1 35 -11 54q-18 36 -76 36q-93 0 -192 -119.5t-125 -268.5l-64 -358q-3 -10 -14 -10 q-7 0 -20.5 3t-28.5 3q-14 0 -31 -3t-23 -3q-12 0 -12 10z" />
<glyph unicode="i" horiz-adv-x="546" d="M14 770q1 16 12 25.5t23 9.5l36 -1q36 -1 95 -1q18 0 56 4t45 4q11 0 18 -10.5t4 -26.5l-110 -627q-3 -20 -4 -35q0 -57 44 -57q49 0 87.5 66.5t58.5 183.5q3 17 13.5 28t25.5 11q26 0 26 -32v-7q-11 -56 -28.5 -106.5t-46 -102t-73 -82t-99.5 -30.5q-63 0 -103 43 q-29 32 -30 84q0 18 4 39l102 589q-60 0 -96 -3l-37 -3q-11 1 -19 11q-5 7 -5 16q0 4 1 10zM223 1137q6 33 33 55t61 22t53 -22q14 -17 15 -40q0 -7 -2 -15q-6 -34 -33 -56t-61 -22q-35 0 -53 22q-15 17 -14 42q0 7 1 14z" />
<glyph unicode="j" horiz-adv-x="413" d="M-256 -399q6 35 30 57.5t56 22.5q30 0 47 -21.5t12 -52.5q-6 -24 -24 -43.5t-43 -26.5q6 -37 59 -37q32 0 57.5 34t34.5 85l197 1120q-60 0 -96 -3l-37 -3q-12 0 -19.5 10.5t-3.5 26.5q1 16 12 25.5t23 9.5l36 -1q36 -1 95 -1q18 0 56 4t45 4q11 0 18 -10.5t4 -26.5 l-182 -1038q-22 -130 -84.5 -206.5t-151.5 -76.5q-78 0 -115 45q-28 36 -28 79q0 12 2 24zM221 1137q6 33 32.5 55t59.5 22q34 0 53 -22q16 -17 16 -44q0 -5 -1 -11q-6 -34 -33 -56t-61 -22t-53 22q-14 17 -14 40q0 8 1 16z" />
<glyph unicode="k" horiz-adv-x="870" d="M6 4l221 1245q-59 0 -95 -2l-36 -2q-13 0 -20 9t-6 26q4 17 15.5 27t23.5 10l35 -2q36 -2 96 -2q18 0 53.5 4t42.5 4q12 0 19.5 -10t6.5 -25l-135 -766h13q37 0 72.5 30.5t65 74t61.5 86.5t76 73.5t95 30.5q64 0 102 -33.5t38 -91.5q0 -54 -32 -90.5t-67 -36.5 q-31 0 -50 23t-13 55q4 28 27.5 50t48.5 24q0 45 -58 45q-40 0 -76.5 -33t-61 -74t-59.5 -84.5t-69 -58.5q40 -5 74 -24.5t61 -57.5t35 -94q3 -22 3 -47q0 -38 -7 -84l-10 -56q-4 -21 -4 -37q0 -55 45 -55q47 0 85 66.5t60 183.5q1 17 12.5 28t26.5 11q31 0 24 -39 q-10 -55 -27.5 -106.5t-46 -102t-73.5 -81.5t-100 -31q-64 0 -103 43q-29 32 -29 85q0 18 3 38l20 120q6 33 6 60q1 56 -25 85q-38 44 -126 44h-29l-80 -455q0 -10 -14 -10q-7 0 -20.5 3t-28.5 3q-14 0 -31 -3t-23 -3q-12 0 -12 10z" />
<glyph unicode="l" horiz-adv-x="514" d="M35 150l192 1099q-59 0 -95 -2l-36 -2q-13 0 -20 9t-4 26t13.5 27t23.5 10l35 -2q36 -2 96 -2q18 0 54.5 4t43.5 4q12 0 19 -10t5 -25l-202 -1139q-3 -19 -4 -35q0 -57 45 -57q49 0 86.5 66.5t58.5 183.5q3 17 13.5 28t25.5 11t23 -11q5 -8 5 -19q0 -4 -1 -9 q-11 -56 -28.5 -106.5t-46.5 -102t-73.5 -82t-99.5 -30.5q-64 0 -104 43q-29 32 -29 84q0 18 4 39z" />
<glyph unicode="m" horiz-adv-x="1462" d="M14 770q1 16 12 25.5t23 9.5l36 -1q36 -1 95 -1q18 0 56 4t45 4q11 0 18 -10.5t4 -26.5l-31 -170q45 90 127.5 161t161.5 71q97 0 137 -64q33 -52 32 -135q0 -19 -1 -39q46 94 128.5 166t162.5 72q74 0 116 -40t49 -108q2 -22 2 -47q0 -50 -9 -109l-68 -385 q-4 -21 -4 -37q0 -55 45 -55q47 0 85 66.5t60 183.5q1 17 12.5 28t26.5 11t21 -10q4 -7 5 -18q0 -5 -1 -11q-10 -55 -27.5 -106.5t-46.5 -102t-74 -81.5t-100 -31q-64 0 -104 43q-29 32 -29 84q0 18 4 39l78 450q7 40 7 70q0 32 -8 50q-16 36 -71 36q-86 0 -180 -120.5 t-121 -273.5l-63 -358q0 -10 -15 -10q-7 0 -20.5 3t-28.5 3q-14 0 -30.5 -3t-22.5 -3q-10 0 -10 10l104 596q7 40 7 70q-1 32 -9 50q-16 36 -70 36q-86 0 -179 -120.5t-120 -273.5l-63 -358q0 -10 -14 -10q-7 0 -21.5 3t-28.5 3q-15 0 -31.5 -3t-21.5 -3q-12 0 -12 10 l131 735q-60 0 -96 -3l-37 -3q-11 1 -19 11q-5 7 -5 16q0 4 1 10z" />
<glyph unicode="n" horiz-adv-x="1030" d="M14 770q1 16 12 25.5t23 9.5l36 -1q36 -1 95 -1q18 0 56 4t45 4q11 0 18 -10.5t4 -26.5l-31 -170q47 90 132.5 161t170.5 71q115 0 155 -82q25 -51 25 -124q0 -45 -10 -98l-67 -385q-4 -21 -4 -37q0 -55 45 -55q48 0 85.5 66t59.5 184q1 17 12.5 28t26.5 11t21 -10 q4 -7 5 -18q0 -5 -1 -11q-10 -55 -27.5 -106.5t-46 -102.5t-73 -81.5t-99.5 -30.5q-66 0 -106 43q-29 32 -29 84q0 18 4 39l78 444q7 38 7 66q0 35 -10 54q-18 36 -77 36q-94 0 -192.5 -117.5t-125.5 -270.5l-63 -358q0 -10 -14 -10q-7 0 -21.5 3t-28.5 3q-15 0 -31.5 -3 t-21.5 -3q-12 0 -12 10l131 735q-60 0 -96 -3l-37 -3q-11 1 -19 11q-5 7 -5 16q0 4 1 10z" />
<glyph unicode="o" d="M37 401q33 191 154 313t264 122q141 0 219 -122q54 -86 55 -205q0 -51 -10 -108q-33 -191 -154 -313.5t-264 -122.5q-141 1 -219 123q-54 86 -55 205q0 51 10 108zM178 115q32 -82 135 -82t164 84t96 284q18 108 18 182q0 65 -14 104q-30 83 -133 83q-104 0 -166 -84.5 t-98 -284.5q-18 -106 -18 -179q1 -68 16 -107z" />
<glyph unicode="p" horiz-adv-x="886" d="M-213 -508q1 16 13 26.5t24 10.5l36 -1q36 -1 95 -1l215 1212q-60 0 -96 -3l-37 -3q-12 0 -19.5 10.5t-3.5 26.5q1 16 12 25.5t23 9.5l36 -1q36 -1 95 -1q18 0 56 4t45 4q11 0 18 -10.5t4 -26.5l-14 -86q50 71 112.5 109.5t126.5 38.5q133 0 196 -120q42 -79 42 -189 q0 -58 -12 -126q-34 -194 -140 -315t-239 -121q-65 0 -114.5 40t-72.5 110l-104 -588q59 0 95 1l36 1q12 0 19 -10t6 -27q-3 -15 -15 -25t-24 -10q-4 0 -19.5 2.5t-58 5.5t-113.5 3h-4q-71 0 -114.5 -3t-60.5 -5.5t-21 -2.5q-11 0 -18 11q-6 7 -6 16q0 4 1 8zM238 401 q-12 -72 -12 -130q0 -82 24 -139q42 -97 135 -97q82 0 136.5 84.5t88.5 281.5q19 119 19 196q0 55 -9 89q-24 82 -108 82q-92 0 -167.5 -97t-106.5 -270z" />
<glyph unicode="q" horiz-adv-x="856" d="M37 401q34 194 140 314.5t239 120.5q64 0 114.5 -38t73.5 -106l21 109q0 8 14 8q7 0 20.5 -3t28.5 -3q14 0 30.5 3t22.5 3q13 0 13 -8l-226 -1268q44 0 72.5 0.5t42 1t19.5 0.5q11 0 18 -9.5t4 -25.5q-1 -16 -13 -26.5t-24 -10.5q-5 0 -20.5 2.5t-57.5 5.5t-112 3h-6 q-70 0 -113.5 -3t-60 -5.5t-21.5 -2.5q-11 0 -18.5 10.5t-6.5 26.5q3 16 14.5 25.5t24.5 9.5l36 -1q36 -1 95 -1l101 578q-47 -68 -111.5 -107t-128.5 -39q-133 0 -196 121q-41 79 -41 188q0 59 12 127zM172 116q25 -81 109 -81q92 0 167 97t105 269q13 74 13 134 q0 80 -23 135q-41 98 -135 98q-82 0 -137 -85t-91 -282q-18 -115 -18 -191q0 -58 10 -94z" />
<glyph unicode="r" horiz-adv-x="614" d="M14 770q1 16 12 25.5t23 9.5l36 -1q36 -1 95 -1q18 0 56 4t45 4q11 0 18 -10.5t4 -26.5l-16 -94q92 156 231 156q59 0 90 -36q25 -28 25 -61q0 -9 -2 -18q-6 -40 -32.5 -67t-61.5 -27t-55.5 23.5t-14.5 58.5q8 33 37 55q-3 0 -14 2t-21 2q-65 0 -132.5 -99t-92.5 -233 l-76 -432q-2 -10 -14 -10q-7 0 -21.5 3t-28.5 3q-15 0 -31.5 -3t-21.5 -3q-12 0 -12 10l131 735q-60 0 -96 -3l-37 -3q-11 1 -19 11q-5 7 -5 16q0 4 1 10z" />
<glyph unicode="s" horiz-adv-x="698" d="M-6 170q0 54 27.5 80t66.5 26q28 0 45 -19t17 -42q0 -30 -23.5 -53.5t-50.5 -26.5q23 -50 73 -78t113 -28q71 0 122.5 42.5t51.5 114.5q0 85 -162 162q-88 44 -132 103t-44 143q0 64 26.5 113.5t68.5 76.5t85 40.5t84 13.5q96 0 153.5 -47.5t57.5 -108.5 q0 -41 -23.5 -66.5t-55.5 -25.5q-29 0 -47.5 19t-12.5 44q3 41 53 64q-8 24 -44.5 41.5t-88.5 17.5q-68 0 -111.5 -39.5t-43.5 -103.5q0 -45 33 -80.5t106 -69.5q201 -94 201 -260q0 -119 -83 -189.5t-198 -70.5q-118 0 -191 66.5t-73 140.5z" />
<glyph unicode="t" horiz-adv-x="563" d="M6 770q1 16 12 25.5t23 9.5q53 0 131 -2l39 215q0 10 12 10q8 0 22 -4t27 -4q15 0 32.5 4t21.5 4q6 0 9.5 -3t2.5 -7l-37 -215h16q88 2 160 2q12 1 20 -9q6 -7 6 -18q0 -4 -1 -8q-3 -16 -14 -25.5t-23 -9.5q-1 0 -55 2t-105 2h-16l-105 -592q-3 -19 -4 -35q0 -57 45 -57 q49 0 87.5 66.5t58.5 183.5q3 17 13.5 28t25.5 11q29 0 26 -39q-11 -56 -28.5 -106.5t-46.5 -102t-73.5 -82t-99.5 -30.5q-66 0 -106 43q-29 32 -29 84q0 18 4 39l103 589q-44 0 -86.5 -2t-44.5 -2q-11 -1 -19 9q-5 6 -5 16q0 4 1 10z" />
<glyph unicode="u" horiz-adv-x="1003" d="M14 770q1 16 12 25.5t23 9.5l36 -1q36 -1 95 -1q18 0 56 4t45 4q11 0 18 -10.5t4 -26.5l-100 -571q-7 -40 -7 -69q0 -34 9 -52q16 -36 71 -35q56 0 118.5 55.5t112.5 147.5t68 192l64 357q3 10 12 10q8 0 22 -3t29 -3q14 0 31 3t21 3q12 0 12 -10l-115 -652 q-4 -21 -4 -37q0 -55 45 -55q47 0 85.5 67t58.5 183q3 17 14.5 28t26.5 11q25 0 25 -26q0 -6 -1 -13q-11 -56 -28.5 -106.5t-46.5 -102t-73.5 -82t-99.5 -30.5q-63 0 -103 43q-29 32 -30 84q0 18 4 39l8 51q-44 -88 -126.5 -160t-161.5 -72q-74 0 -116 40t-48 107 q-2 21 -2 45q0 51 10 111l82 467q-60 0 -96 -3l-37 -3q-11 1 -19 11q-5 7 -5 16q0 4 1 10z" />
<glyph unicode="v" horiz-adv-x="745" d="M35 539q0 46 14.5 88.5t32 69.5t48.5 57t45.5 40.5t43.5 30.5q20 15 33.5 15t21.5 -15q3 -6 3 -11q0 -20 -33 -42q-70 -53 -70 -174q0 -42 17.5 -104.5t36.5 -113t30 -112.5q5 -28 5 -52q0 -28 -7 -50q348 270 348 496q0 27 -4 43q-25 -25 -61 -25q-31 0 -48.5 17 t-17.5 46q0 35 27 64t67 29q29 0 50 -16.5t32 -44t15 -55.5t4 -58q0 -78 -33 -153.5t-92.5 -145t-119 -127t-137 -130t-122.5 -122.5q-12 -16 -32 -16h-1q-19 0 -25 14t9 41q15 43 15 97q0 24 -2 48q-10 82 -30.5 145.5t-41.5 129.5t-21 96z" />
<glyph unicode="w" horiz-adv-x="1294" d="M10 514q11 56 28.5 107t46.5 102t73.5 82t99.5 31q64 0 104 -43q29 -32 28 -84q0 -18 -3 -39l-78 -451q-7 -41 -8 -71q0 -89 64 -89q56 0 118.5 81t118.5 233t90 342l19 100q3 10 12 10q8 0 23 -3t28 -3q15 0 31 3t20 3q8 0 11 -2t2 -8l-86 -500q-18 -86 -17 -139 q1 -13 1 -25q6 -57 23.5 -74.5t55.5 -17.5q65 0 128 67t105.5 164t68.5 202.5t26 185.5q0 19 -4 27q-25 -25 -60 -25q-32 0 -49.5 16.5t-17.5 46.5q0 35 27 64t67 29q38 0 62 -29.5t31 -62t7 -66.5q0 -59 -13 -132.5t-37 -151t-61 -151t-81.5 -131.5t-102.5 -93t-120 -35 q-101 0 -145 72q-38 61 -37 160q0 18 1 36q-39 -109 -115 -188.5t-165 -79.5q-90 0 -126 84q-21 50 -21 119q0 46 10 100l69 385q3 19 3 35q0 57 -44 57q-49 0 -86.5 -66.5t-58.5 -183.5q-3 -17 -13.5 -28t-25.5 -11t-23 11q-5 8 -5 19q0 4 1 9z" />
<glyph unicode="x" d="M-59 68q4 31 31 53t59 22q30 0 51 -24t12 -58q52 9 124.5 105t94.5 225q15 85 21 147q3 34 3 64q-1 24 -3 48q-4 52 -24.5 78t-57.5 26q-54 0 -102 -70.5t-70 -185.5q-2 -17 -13 -29t-26 -12t-21.5 11.5t-3.5 29.5q9 53 30 106t53 103t79.5 81t102.5 31q22 0 42 -4 t44 -18t41.5 -36.5t29 -63.5t11.5 -95q64 108 141 162.5t145 54.5q44 0 65 -25q16 -19 16 -44q0 -7 -1 -15q-4 -32 -30.5 -54t-59.5 -22q-29 0 -49.5 24t-13.5 58q-52 -9 -124 -104.5t-96 -224.5q-15 -84 -20 -146q-2 -31 -2.5 -59.5t2.5 -54.5q5 -51 26 -77t58 -26 q55 0 102.5 71t67.5 185q3 17 13.5 28t25.5 11q29 0 26 -39q-10 -53 -30.5 -106t-52.5 -103t-79 -81t-102 -31q-22 0 -42 4t-44.5 18t-42 36.5t-29.5 63.5t-12 95q-64 -108 -141.5 -162.5t-145.5 -54.5q-44 0 -64 25q-16 19 -16 44q0 7 1 15z" />
<glyph unicode="y" d="M-201 -455q6 32 33 55t59 23q29 0 50 -25t12 -57q42 7 112.5 95t114.5 184l74 143v692q0 93 -57 93q-49 0 -87.5 -66.5t-58.5 -183.5q-3 -18 -13.5 -29.5t-25.5 -11.5q-30 0 -26 41q11 56 28.5 106.5t46 102t73 82t99.5 30.5q67 0 109.5 -40t42.5 -128v-432l213 418 q89 178 207 178q44 0 65 -28q18 -23 18 -51q0 -6 -1 -13q-8 -31 -34 -53.5t-58 -22.5q-27 0 -47 21.5t-17 46.5q-37 -15 -78 -90l-422 -834q-79 -154 -170 -246t-180 -92q-43 0 -65 29q-18 22 -18 49q0 7 1 14z" />
<glyph unicode="z" horiz-adv-x="700" d="M-61 10q4 21 16 35l491 588q-40 -8 -59 -8q-46 0 -88 15.5t-67 33.5t-51.5 33.5t-45.5 15.5q-21 0 -37 -17.5t-16 -39.5q0 -26 24 -39q11 -8 15 -20t-4 -25q-10 -13 -24 -15t-23 6q-45 25 -45 84q0 68 59.5 114t124.5 46q44 0 87.5 -17.5t72.5 -38.5t60 -38.5t52 -17.5 t41 20l51 59q28 33 50 33q9 0 18.5 -7.5t9.5 -16.5q0 -21 -12 -35l-500 -598q33 10 60 10q46 0 90 -15.5t72 -34.5t58 -34.5t50 -15.5q21 0 36 17.5t15 41.5q0 25 -22 39q-12 8 -16 20t5 23q8 14 22.5 16t22.5 -6q48 -31 48 -82q0 -62 -58.5 -113t-126.5 -51 q-60 0 -117.5 29t-101.5 57.5t-70 28.5q-25 0 -40 -20l-46 -54q-29 -34 -51 -34q-11 0 -20.5 9t-9.5 19z" />
<glyph unicode="{" horiz-adv-x="716" d="M51 600q0 20 22 28l15 3q33 0 59.5 8t55.5 30.5t51.5 60t43.5 101t36 148.5q17 95 50 163.5t95.5 121t102 76.5t132.5 71q32 17 48 25q26 14 31 -3q5 -18 -16 -32q-2 -1 -3 -2q-54 -35 -84 -56t-67 -51t-57.5 -57t-42 -65t-35 -83t-23.5 -104q-16 -90 -34 -150.5 t-37.5 -100t-49.5 -64.5t-61.5 -37.5t-81.5 -24.5q57 -14 87 -32t49 -58.5t16.5 -107.5t-21.5 -179q-11 -58 -13 -104.5t6.5 -84.5t20.5 -66t38 -57t50 -50t64 -53q11 -9 8.5 -21.5t-13.5 -17t-24 1.5q-119 75 -128 81q-101 71 -131 158t-7 217q15 85 16 148t-8.5 101 t-30 60.5t-44 30t-56.5 7.5q-28 0 -29 20z" />
<glyph unicode="|" horiz-adv-x="552" d="M236 -170v1552h90v-1552h-90z" />
<glyph unicode="}" horiz-adv-x="716" d="M-100 -218q-6 18 16 32q62 38 97.5 63t75.5 61.5t63 74.5t43.5 92t33.5 124q15 90 33 150.5t37.5 100t49.5 64.5t61.5 37.5t81.5 24.5q-46 12 -72.5 24.5t-48 37.5t-27 64.5t-2 100t19.5 150.5q10 59 12.5 104t-6.5 83t-20.5 65t-38.5 57.5t-49.5 51t-64.5 55.5 q-18 14 -7 32.5t33 4.5q12 -8 36 -22l55.5 -34.5t49.5 -34t46.5 -39.5t36.5 -43.5t30 -53.5t16.5 -62t6 -77t-10.5 -91q-15 -85 -16 -148.5t8.5 -101t30.5 -60t44.5 -30.5t55.5 -8q27 0 29.5 -20t-20.5 -28l-17 -3q-41 0 -73.5 -13.5t-66.5 -49t-61 -107t-45 -177.5 q-10 -56 -27 -103.5t-36 -82.5t-49.5 -68t-55 -54t-66 -46t-69 -39.5t-77.5 -39.5l-46 -23q-23 -12 -30 5z" />
<glyph unicode="~" horiz-adv-x="778" d="M37 424q18 104 75.5 171t123.5 67q41 0 94.5 -33.5t105.5 -67t88 -33.5q39 0 74 34t51 81q8 23 26 23q17 -1 13 -23q-20 -114 -77.5 -178t-133.5 -64q-37 0 -91.5 34t-106.5 68t-82 34q-33 0 -67 -33.5t-54 -79.5q-8 -22 -26 -23q-17 0 -13 23z" />
<glyph unicode="&#xa1;" horiz-adv-x="569" d="M-10 -459q6 31 26 89.5t45 132t66 248.5t82 411q5 24 28 27q20 3 24 -15q0 -6 -1 -12q-41 -236 -62.5 -411t-23.5 -248.5t-2.5 -132.5t-5.5 -89q-8 -36 -37.5 -62t-65.5 -26q-35 0 -57 26.5t-16 61.5zM188 723q6 39 40.5 66.5t74.5 27.5t63 -27t17 -67q-8 -40 -41.5 -69 t-73.5 -29q-39 0 -63 29.5t-17 68.5z" />
<glyph unicode="&#xa2;" horiz-adv-x="911" d="M111 621q32 179 140 296t257 134l6 39q14 88 24 155.5t13.5 94.5t5.5 38q3 16 17 27.5t36 11.5q21 0 31.5 -11.5t7.5 -27.5q-1 -3 -6.5 -36t-18.5 -96t-34 -156l-8 -37q105 -7 169 -76t50 -154q-6 -41 -34 -67.5t-62 -26.5q-32 0 -51 23t-13 55q6 30 30.5 54.5t53.5 25.5 q-15 40 -57 71t-99 31l-127 -735q156 0 246 172q18 31 37 31q16 0 23.5 -9t5.5 -22q-4 -20 -17 -37q-117 -195 -307 -205l-20 -112q-12 -63 -18 -110.5t-8 -76.5t-3 -35q-2 -14 -17 -26t-36 -12q-20 0 -30.5 11.5t-8.5 26.5q1 11 6.5 34t16 72.5t22.5 115.5l20 116 q-142 17 -208.5 135.5t-34.5 297.5zM258 621q-54 -300 111 -357l127 715q-184 -49 -238 -358z" />
<glyph unicode="&#xa3;" horiz-adv-x="983" d="M-10 29q0 16 9.5 26.5t20.5 10.5q56 0 84 12.5t51 59.5t40 145l71 407q-48 0 -94 -2t-47 -2q-13 0 -20.5 9.5t-4.5 25.5q6 33 37 33h142l24 137q17 93 36 160.5t47 126t64 94.5t85.5 56t113.5 20q91 0 135.5 -44.5t34.5 -101.5q-6 -36 -32.5 -63t-59.5 -27t-52 23.5 t-13 56.5q5 26 24 47.5t47 30.5q-19 30 -92 30q-122 0 -149 -161l-68 -385q30 1 73 1h76t63 -0.5t32 -0.5q12 0 19.5 -8.5t4.5 -24.5t-13.5 -25.5t-23.5 -9.5q-1 0 -96 2t-147 2l-35 -194q-61 -334 -193 -433l441 13q83 1 129 67t69 195q2 12 12 21.5t23 9.5q14 0 21 -9 t4 -22q-1 -6 -11.5 -51.5t-23 -102.5t-19.5 -94l-10 -63q-3 -15 -13.5 -25t-21.5 -10q-6 0 -45 4t-55 4l-455 4q-74 0 -121 -2.5t-65.5 -5t-22.5 -2.5q-12 0 -21 9.5t-9 25.5z" />
<glyph unicode="&#xa5;" horiz-adv-x="899" d="M18 1286q3 15 14 25t23 10q4 0 20 -2.5t60 -5t117 -2.5h10q73 0 118 2.5t62 5t21 2.5q11 0 19 -10.5t5 -24.5q-3 -17 -13.5 -27t-22.5 -10q-1 0 -36.5 1t-90.5 1l165 -563l365 563q-44 0 -75 -0.5t-46.5 -1t-21.5 -0.5q-13 0 -20.5 10t-4.5 27q3 15 14 25t23 10 q5 0 18.5 -2t51 -4.5t98.5 -3.5q61 1 99 3.5t52 4.5t19 2q13 0 21 -10.5t5 -24.5q-4 -17 -14.5 -27t-21.5 -10q-3 0 -38.5 1t-80.5 1l-406 -622q60 1 97.5 3t52.5 3.5t24 1.5q16 0 26 -12.5t7 -34.5q-4 -21 -18.5 -33t-30.5 -12q-8 0 -22 1.5t-51.5 3.5t-98.5 3l-25 -147 q60 1 97.5 3.5t53 4.5t24.5 2q16 0 25 -13t5 -34q-3 -21 -17 -33t-30 -12q-8 0 -22 1.5t-51.5 3.5t-98.5 3l-47 -269q60 0 96 1l37 2q12 0 19.5 -10.5t3.5 -26.5q-1 -16 -12 -25.5t-23 -9.5q-4 0 -20 2.5t-60.5 5t-118.5 2.5h-8q-74 0 -119 -2.5t-61.5 -5t-20.5 -2.5 q-13 0 -21 9.5t-5 25.5q4 17 15 27t22 10l36 -2q37 -1 97 -1l45 269q-60 -1 -97.5 -3t-52 -3.5t-22.5 -1.5q-15 0 -25 12.5t-6 32.5q3 21 16.5 34t28.5 13q9 0 24.5 -2t52.5 -4.5t95 -3.5l25 147q-59 -1 -96 -3t-52 -3.5t-24 -1.5q-15 0 -24.5 12t-6.5 33q4 22 17.5 34.5 t29.5 12.5q3 0 40.5 -3.5t102.5 -4.5l-184 622q-56 0 -91 -1t-36 -1q-13 0 -20.5 10t-4.5 27z" />
<glyph unicode="&#xa7;" horiz-adv-x="872" d="M51 -123q0 51 31 82t72 31q32 0 50.5 -21.5t16.5 -46.5q-2 -27 -24 -52t-56 -32q13 -38 57.5 -64t112.5 -26q94 0 152.5 56.5t58.5 138.5q0 66 -43.5 113t-130.5 98q-252 152 -252 329q0 201 203 305q-129 100 -129 252q0 62 22 114.5t56.5 87t78.5 59.5t87.5 36t83.5 11 q117 0 186.5 -57.5t69.5 -137.5q0 -51 -31 -82t-72 -31q-32 0 -50.5 21.5t-16.5 46.5q2 27 24 52t56 32q-13 38 -57.5 64t-112.5 26q-94 0 -152.5 -56.5t-58.5 -138.5q0 -66 42.5 -111t131.5 -99q252 -152 252 -330q0 -201 -203 -305q129 -100 129 -252q0 -62 -22 -114.5 t-56.5 -87t-78.5 -59t-87.5 -35.5t-83.5 -11q-117 0 -186.5 57t-69.5 137zM182 535q0 -120 238 -238q16 -8 24 -14q79 27 129 81.5t50 131.5q0 119 -238 237q-15 7 -25 15q-79 -27 -128.5 -81.5t-49.5 -131.5z" />
<glyph unicode="&#xa8;" horiz-adv-x="751" d="M254 991q6 31 31.5 52.5t54.5 21.5q31 0 48 -21.5t11 -52.5q-4 -29 -29.5 -50t-56.5 -21q-29 0 -46.5 21t-12.5 50zM559 991q8 31 33 52.5t55 21.5q29 0 46.5 -21.5t11.5 -52.5q-5 -29 -29 -50t-55 -21t-49 21t-13 50z" />
<glyph unicode="&#xa9;" horiz-adv-x="1564" d="M92 659q33 187 153 345t294.5 250t361.5 92q140 0 257.5 -54.5t193 -146.5t107.5 -219t7 -267q-33 -187 -153 -345.5t-294 -250.5t-360 -92q-187 0 -329.5 92t-206.5 250.5t-31 345.5zM160 659q-22 -127 7 -241.5t97.5 -197.5t174.5 -132t233 -49q167 0 324 82.5 t265 225.5t138 312q22 125 -6.5 239.5t-97 197t-174.5 131.5t-232 49q-168 0 -325.5 -82.5t-266 -224.5t-137.5 -310zM387 659q33 190 169.5 312.5t299.5 122.5q77 0 122.5 -19.5t82.5 -54.5q23 0 26 29q4 38 39 38q34 0 27 -36l-43 -256q-5 -39 -39 -39t-29 39 q17 98 -36 165.5t-150 67.5q-120 0 -195.5 -87t-109.5 -282q-34 -197 10.5 -282.5t165.5 -85.5q96 0 173.5 67.5t94.5 163.5q6 39 41 39q30 0 25 -39l-43 -254q-2 -12 -5.5 -19t-12 -12.5t-23.5 -5.5q-32 0 -27 39q3 18 -14 31q-51 -39 -103 -58.5t-131 -19.5 q-164 0 -256 122t-59 314z" />
<glyph unicode="&#xaa;" horiz-adv-x="890" d="M119 987q29 148 136.5 248t211.5 100q111 0 156 -116l18 88q0 6 12 6q7 0 21 -3t28 -3q11 0 28.5 3t23.5 3q10 0 10 -6l-105 -523q-15 -73 35 -73q44 0 78 52.5t53 145.5q3 14 13 23.5t22 9.5q13 0 20 -9.5t5 -23.5q-10 -44 -26 -85t-42 -82t-66 -66t-89 -25 q-52 0 -91 29t-39 82q-41 -59 -95.5 -91t-112.5 -32q-122 0 -179 96t-26 252zM244.5 759q20.5 -67 93.5 -67q83 0 147 77.5t93 217.5q28 139 -3.5 216t-113.5 77q-61 0 -118.5 -71.5t-88.5 -221.5q-30 -161 -9.5 -228z" />
<glyph unicode="&#xab;" horiz-adv-x="1105" d="M129 481q-33 29 10 58l492 327q27 18 37 0q11 -20 -11 -43l-4 -4l-372 -319l262 -318q12 -16 8.5 -28t-17 -11.5t-30.5 13.5zM563 481q-34 30 10 58l396 270q31 21 40 1t-16 -46l-276 -264l184 -260q17 -26 0.5 -37.5t-39.5 8.5z" />
<glyph unicode="&#xac;" horiz-adv-x="1167" d="M150 559q3 20 16.5 32.5t28.5 12.5q7 0 26 -2t68 -4t127 -2h430q52 0 61 -13t0 -63l-2 -12q-11 -63 -17 -107.5t-7.5 -60t-2.5 -33.5t-1 -20q-3 -15 -18.5 -27t-35.5 -12q-21 0 -31.5 12t-7.5 27q1 10 5 26.5t15.5 67t24.5 127.5l5 12h-433q-79 0 -127.5 -2t-67.5 -4 t-26 -2q-16 0 -25 12.5t-5 34.5z" />
<glyph unicode="&#xad;" horiz-adv-x="835" d="M139 510q3 21 16.5 34t28.5 13q7 0 25 -2t62 -4t116 -2h16q73 0 117 2t61.5 4t24.5 2q16 0 26 -13t7 -34q-4 -21 -18.5 -33t-30.5 -12q-7 0 -23.5 2t-60 4t-117.5 2h-14q-74 0 -118.5 -2t-62 -4t-24.5 -2q-16 0 -25.5 12t-5.5 33z" />
<glyph unicode="&#xae;" horiz-adv-x="1089" d="M109 877q34 195 198 333t359 138q129 0 226.5 -63t141 -171.5t21.5 -236.5q-34 -197 -196.5 -335.5t-358.5 -138.5q-128 0 -226 63.5t-142.5 172.5t-22.5 238zM170 877q-29 -170 70.5 -291t269.5 -121t312 121t171 291q29 169 -69.5 289t-268.5 120q-112 0 -217 -55 t-177 -149t-91 -205zM295 645q7 27 29 27h73l72 413h-74q-11 0 -16 7.5t-2 19.5q7 27 29 27q3 0 12 -1.5t34 -3t66 -1.5q12 0 48 1t52 1q96 0 140.5 -35.5t34.5 -89.5q-6 -34 -43.5 -68.5t-79.5 -46.5q45 -18 65.5 -55.5t12.5 -81.5q-4 -28 -11.5 -49.5t-9.5 -32.5 q-3 -27 14 -27q13 0 17 21q2 9 10 16.5t18 7.5q11 0 17 -7t4 -15q-6 -29 -30 -45.5t-48 -16.5q-52 0 -73 31.5t-7 116.5q11 62 -3 85t-75 23h-43l-34 -194h73q8 0 15 -8t6 -19t-11.5 -19t-19.5 -8q-3 0 -12 2t-35 3.5t-70 1.5h-6q-44 0 -71 -1.5t-37 -3.5t-13 -2 q-9 0 -15 7.5t-3 19.5zM537 913h22q59 0 90.5 21.5t40.5 73.5q6 40 -15 61t-79 21h-29z" />
<glyph unicode="&#xaf;" horiz-adv-x="477" d="M264 1280l8 45h338l-10 -45h-336z" />
<glyph unicode="&#xb0;" horiz-adv-x="819" d="M166 1040q22 128 127.5 218t232.5 90q126 0 201 -90.5t53 -217.5q-23 -127 -129 -217t-233 -90q-126 0 -200.5 90.5t-51.5 216.5zM258 1040q-17 -89 35 -152t143 -63q89 0 164 63t92 152q15 91 -38 154t-142 63q-90 0 -164.5 -63.5t-89.5 -153.5z" />
<glyph unicode="&#xb1;" horiz-adv-x="937" d="M-6 37q4 22 19 34.5t30 12.5q7 0 25.5 -2t67 -4t126.5 -2h217q78 0 127 2t68.5 4t27.5 2q16 0 25 -12.5t6 -34.5q-4 -21 -18.5 -33t-30.5 -12q-7 0 -25 2t-65.5 4t-126.5 2h-219q-79 0 -127.5 -2t-67.5 -4t-26 -2q-16 0 -26 12t-7 33zM78 510q4 21 18.5 34t28.5 13 q7 0 26 -2t67.5 -4t125.5 -2h72l12 72q14 78 20.5 125t8 68t2.5 26q3 16 17.5 27.5t35.5 11.5t31.5 -11.5t7.5 -27.5q-1 -9 -6 -26t-16 -65.5t-25 -127.5l-12 -72h71q78 0 126.5 2t67.5 4t27 2q16 0 25.5 -13t5.5 -34q-3 -21 -17 -33t-30 -12q-7 0 -25 2t-66 4t-128 2h-72 l-12 -72q-14 -80 -20 -127t-7 -68t-2 -26q-3 -15 -18 -27t-35 -12q-21 0 -31.5 12t-7.5 27q1 10 6 27.5t15.5 66.5t23.5 127l14 72h-71q-79 0 -128 -2t-68 -4t-27 -2q-15 0 -24.5 12t-6.5 33z" />
<glyph unicode="&#xb4;" horiz-adv-x="417" d="M275 937.5q0 9.5 10 18.5q69 51 121.5 101t80.5 83t37 40q22 17 48 14t38 -23q14 -19 7 -45t-29 -41q-11 -8 -49.5 -24.5t-102 -50.5t-131.5 -84q-11 -8 -20.5 -3t-9.5 14.5z" />
<glyph unicode="&#xb6;" horiz-adv-x="1050" d="M-113 -403q9 49 41 77.5t74 28.5q37 0 62.5 -26.5t17.5 -69.5q-3 -27 -21.5 -50.5t-48.5 -35.5q13 -10 39 -10q48 0 89 34t86 119.5t88.5 249.5t86.5 405l54 302q-130 15 -202.5 113.5t-47.5 232.5q26 143 146.5 245.5t262.5 102.5h297q10 0 37 1t47 1q12 0 20 -9.5 t5 -25.5q-3 -17 -13.5 -27t-23.5 -10l-36 3q-36 3 -95 3l-137 -774q-93 -526 -253 -775t-425 -249q-76 0 -118.5 42.5t-31.5 101.5zM195 -467q154 58 259.5 272t180.5 641l141 805h-135l-160 -901q-61 -352 -125 -544.5t-161 -272.5z" />
<glyph unicode="&#xb7;" horiz-adv-x="679" d="M201 512q0 40 28 69t68 29t69 -29t29 -69t-29 -69t-69 -29t-68 29t-28 69z" />
<glyph unicode="&#xb8;" horiz-adv-x="403" d="M8 -286q-4 16 24 25q3 0 5 1q66 17 121 59t63 95q7 43 -38 60t-105 7q-11 -4 -16 8q-4 15 16 33l170 145h67l-125 -110q68 2 112.5 -35.5t31.5 -107.5q-14 -78 -101.5 -124.5t-201.5 -64.5q-19 -4 -23 9z" />
<glyph unicode="&#xba;" horiz-adv-x="768" d="M119 987q30 152 138 250t237 98t199 -98t40 -250q-30 -153 -140 -250.5t-239 -97.5q-127 0 -196 97t-39 251zM248 758q26 -66 119 -66q92 0 143.5 66.5t83.5 228.5q33 163 8.5 229t-117.5 66t-145 -66.5t-86 -228.5q-32 -163 -6 -229z" />
<glyph unicode="&#xbb;" horiz-adv-x="1105" d="M33 209q-11 20 12 47l4 4l275 260l-183 264q-15 27 -1.5 36.5t38.5 -11.5l297 -270q33 -30 -10 -58l-393 -270q-28 -20 -39 -2zM370 155q-12 18 12 44q3 2 5 4l373 317l-262 320q-10 14 -6.5 26t16 12.5t29.5 -12.5l372 -327q36 -28 -10 -58l-489 -325q-28 -19 -40 -1z " />
<glyph unicode="&#xbf;" horiz-adv-x="849" d="M-31 -250q13 75 49 138.5t81 105.5t96.5 84.5t95 76.5t77 81t42.5 98q6 62 12 88q4 24 26 27q21 3 25 -15q1 -6 0 -12q-3 -13 -14.5 -85t-14.5 -87q-10 -59 -32.5 -107t-50.5 -80t-60 -60.5t-63.5 -56t-59 -58.5t-49 -76t-31.5 -101q-8 -29 -0.5 -63t24 -62.5t55 -47.5 t91.5 -19q90 0 155 43.5t85 105.5q-33 0 -57.5 22t-18.5 60q8 32 35 55t59 23q43 0 61.5 -38.5t10.5 -88.5q-11 -63 -61.5 -120t-125.5 -92.5t-153 -35.5q-155 0 -232.5 87.5t-56.5 209.5zM399 723q6 39 40.5 66.5t74.5 27.5q39 0 62.5 -27.5t17.5 -66.5q-8 -40 -41.5 -69 t-73.5 -29t-63.5 29t-16.5 69z" />
<glyph unicode="&#xc0;" horiz-adv-x="1058" d="M-213 29q3 16 14.5 26.5t22.5 10.5l36 -2q36 -1 93 -1l786 1262q18 27 47 27q14 0 22.5 -10.5t8.5 -28.5v-1250q44 0 72 0.5t40.5 1.5t18.5 1q13 0 21 -10.5t4 -26.5q-3 -16 -13.5 -25.5t-21.5 -9.5q-4 0 -20 2.5t-60.5 5t-118.5 2.5h-8q-74 0 -119.5 -2.5t-62.5 -5 t-21 -2.5q-12 0 -19.5 9.5t-4.5 25.5t14.5 26.5t22.5 10.5l36 -2q36 -1 95 -1v351h-418l-217 -351q56 0 91 1.5t36 1.5q13 0 20 -10t4 -27t-13 -26t-23 -9q-5 0 -18.5 2t-51 4.5t-98.5 3.5q-61 -1 -99.5 -3.5t-53 -4.5t-19.5 -2q-12 0 -20 9.5t-5 25.5zM301 487h371v596z M576.5 1641q1.5 27 19.5 45q20 20 48.5 22.5t43.5 -14.5q7 -7 23.5 -39.5t51 -83t85.5 -101.5q8 -8 2.5 -18.5t-15.5 -14t-18 2.5q-50 50 -101 84t-84.5 50.5t-41.5 24.5q-15 15 -13.5 42z" />
<glyph unicode="&#xc1;" horiz-adv-x="1058" d="M-213 29q3 16 14.5 26.5t22.5 10.5l36 -2q36 -1 93 -1l786 1262q18 27 47 27q14 0 22.5 -10.5t8.5 -28.5v-1250q44 0 72 0.5t40.5 1.5t18.5 1q13 0 21 -10.5t4 -26.5q-3 -16 -13.5 -25.5t-21.5 -9.5q-4 0 -20 2.5t-60.5 5t-118.5 2.5h-8q-74 0 -119.5 -2.5t-62.5 -5 t-21 -2.5q-12 0 -19.5 9.5t-4.5 25.5t14.5 26.5t22.5 10.5l36 -2q36 -1 95 -1v351h-418l-217 -351q56 0 91 1.5t36 1.5q13 0 20 -10t4 -27t-13 -26t-23 -9q-5 0 -18.5 2t-51 4.5t-98.5 3.5q-61 -1 -99.5 -3.5t-53 -4.5t-19.5 -2q-12 0 -20 9.5t-5 25.5zM301 487h371v596z M713.5 1448q0.5 10 11.5 20q68 50 120.5 100.5t80.5 82.5t37 39q22 18 48 15t40 -22q13 -21 5 -47t-30 -41q-10 -7 -49.5 -23t-101.5 -49.5t-130 -84.5q-12 -8 -22 -4t-9.5 14z" />
<glyph unicode="&#xc2;" horiz-adv-x="1058" d="M-213 29q3 16 14.5 26.5t22.5 10.5l36 -2q36 -1 93 -1l786 1262q18 27 47 27q14 0 22.5 -10.5t8.5 -28.5v-1250q44 0 72 0.5t40.5 1.5t18.5 1q13 0 21 -10.5t4 -26.5q-3 -16 -13.5 -25.5t-21.5 -9.5q-4 0 -20 2.5t-60.5 5t-118.5 2.5h-8q-74 0 -119.5 -2.5t-62.5 -5 t-21 -2.5q-12 0 -19.5 9.5t-4.5 25.5t14.5 26.5t22.5 10.5l36 -2q36 -1 95 -1v351h-418l-217 -351q56 0 91 1.5t36 1.5q13 0 20 -10t4 -27t-13 -26t-23 -9q-5 0 -18.5 2t-51 4.5t-98.5 3.5q-61 -1 -99.5 -3.5t-53 -4.5t-19.5 -2q-12 0 -20 9.5t-5 25.5zM301 487h371v596z M577 1440q-7 10 5 20l225 205q20 19 33 19t28 -19l152 -205q5 -5 0 -12t-13 -10t-14 0l-174 125l-221 -125q-14 -8 -21 2z" />
<glyph unicode="&#xc3;" horiz-adv-x="1058" d="M-213 29q3 16 14.5 26.5t22.5 10.5l36 -2q36 -1 93 -1l786 1262q18 27 47 27q14 0 22.5 -10.5t8.5 -28.5v-1250q44 0 72 0.5t40.5 1.5t18.5 1q13 0 21 -10.5t4 -26.5q-3 -16 -13.5 -25.5t-21.5 -9.5q-4 0 -20 2.5t-60.5 5t-118.5 2.5h-8q-74 0 -119.5 -2.5t-62.5 -5 t-21 -2.5q-12 0 -19.5 9.5t-4.5 25.5t14.5 26.5t22.5 10.5l36 -2q36 -1 95 -1v351h-418l-217 -351q56 0 91 1.5t36 1.5q13 0 20 -10t4 -27t-13 -26t-23 -9q-5 0 -18.5 2t-51 4.5t-98.5 3.5q-61 -1 -99.5 -3.5t-53 -4.5t-19.5 -2q-12 0 -20 9.5t-5 25.5zM301 487h371v596z M559 1450q15 77 58.5 127.5t93.5 50.5q31 0 66.5 -25t70 -50t61.5 -25q30 0 57 25.5t38 60.5q5 16 19 14q10 -3 9 -14q-15 -85 -57.5 -133.5t-100.5 -48.5q-35 0 -101 50t-91 50t-52.5 -25t-39.5 -57q-8 -14 -23 -13q-8 3 -8 13z" />
<glyph unicode="&#xc4;" horiz-adv-x="1058" d="M-213 29q3 16 14.5 26.5t22.5 10.5l36 -2q36 -1 93 -1l786 1262q18 27 47 27q14 0 22.5 -10.5t8.5 -28.5v-1250q44 0 72 0.5t40.5 1.5t18.5 1q13 0 21 -10.5t4 -26.5q-3 -16 -13.5 -25.5t-21.5 -9.5q-4 0 -20 2.5t-60.5 5t-118.5 2.5h-8q-74 0 -119.5 -2.5t-62.5 -5 t-21 -2.5q-12 0 -19.5 9.5t-4.5 25.5t14.5 26.5t22.5 10.5l36 -2q36 -1 95 -1v351h-418l-217 -351q56 0 91 1.5t36 1.5q13 0 20 -10t4 -27t-13 -26t-23 -9q-5 0 -18.5 2t-51 4.5t-98.5 3.5q-61 -1 -99.5 -3.5t-53 -4.5t-19.5 -2q-12 0 -20 9.5t-5 25.5zM301 487h371v596z M588 1507q6 31 31.5 52.5t54.5 21.5q31 0 48 -21.5t11 -52.5q-4 -29 -29.5 -50t-56.5 -21q-29 0 -46.5 21t-12.5 50zM893 1507q8 31 33 52.5t55 21.5q29 0 46 -21.5t11 -52.5q-5 -29 -29 -50t-55 -21q-30 0 -48 20.5t-13 50.5z" />
<glyph unicode="&#xc5;" horiz-adv-x="1058" d="M-213 29q3 16 14.5 26.5t22.5 10.5l36 -2q36 -1 93 -1l786 1262q18 27 47 27q14 0 22.5 -10.5t8.5 -28.5v-1250q44 0 72 0.5t40.5 1.5t18.5 1q13 0 21 -10.5t4 -26.5q-3 -16 -13.5 -25.5t-21.5 -9.5q-4 0 -20 2.5t-60.5 5t-118.5 2.5h-8q-74 0 -119.5 -2.5t-62.5 -5 t-21 -2.5q-12 0 -19.5 9.5t-4.5 25.5t14.5 26.5t22.5 10.5l36 -2q36 -1 95 -1v351h-418l-217 -351q56 0 91 1.5t36 1.5q13 0 20 -10t4 -27t-13 -26t-23 -9q-5 0 -18.5 2t-51 4.5t-98.5 3.5q-61 -1 -99.5 -3.5t-53 -4.5t-19.5 -2q-12 0 -20 9.5t-5 25.5zM301 487h371v596z M692 1585q9 63 61 107.5t117 44.5q63 0 99.5 -44.5t25.5 -107.5q-12 -63 -64.5 -108t-115.5 -45t-99 45t-24 108zM758 1585q-6 -34 14.5 -59t54.5 -25q35 0 64 25t37 59q6 35 -15.5 59.5t-56.5 24.5q-34 0 -63 -24.5t-35 -59.5z" />
<glyph unicode="&#xc6;" horiz-adv-x="1460" d="M-213 29q3 16 14.5 26.5t22.5 10.5l36 -2q36 -1 93 -1l764 1225q21 31 53 31q9 0 34 -2t42 -2h465q18 0 63.5 4t52.5 4q11 0 18.5 -10.5t4.5 -26.5l-10 -61q-20 -123 -33 -248q-8 -31 -39 -31q-14 0 -22.5 9t-6.5 22q46 262 -122 262h-400v-516h211q50 0 86 40.5 t49 117.5q7 30 33 30q13 0 19.5 -9t3.5 -21q0 -2 -7.5 -25t-17.5 -66t-20 -104q-9 -47 -14 -85.5t-6 -56.5t-2 -33.5t-1 -18.5q-9 -31 -33 -31q-13 0 -19 10t-3 21q13 77 -8.5 117t-73.5 40h-197v-573h246q169 0 215 262q2 12 13 21.5t26 9.5q16 0 23.5 -9t5.5 -22 q-1 -6 -12 -51.5t-24 -102.5t-20 -94l-10 -63q-3 -14 -14.5 -24.5t-22.5 -10.5q-7 0 -51 4t-62 4l-399 4q-74 0 -119.5 -2.5t-62.5 -5t-21 -2.5q-12 0 -19.5 9.5t-4.5 25.5t14.5 26.5t22.5 10.5l36 -2q36 -1 95 -1v351h-418l-217 -351q56 0 91 1.5t36 1.5q13 0 20 -10t4 -27 t-13 -26t-23 -9q-5 0 -18.5 2t-51 4.5t-98.5 3.5q-61 -1 -99.5 -3.5t-53 -4.5t-19.5 -2q-12 0 -20 9.5t-5 25.5zM301 487h371v596z" />
<glyph unicode="&#xc7;" horiz-adv-x="1032" d="M84 657q27 152 89.5 282t144.5 219t180 139.5t196 50.5t156.5 -33.5t105.5 -95.5q44 8 58 77q0 1 1 4.5t1.5 5l1.5 4.5t2.5 4.5t3 4t4 3.5t5 2.5t6.5 2t8 0.5q28 0 22 -31l-74 -415q-8 -33 -32 -33q-28 0 -23 33q29 166 -42 276.5t-202 110.5q-81 0 -146.5 -31 t-122.5 -100.5t-101 -189t-74 -290.5q-24 -137 -27.5 -241t12 -174t50 -113.5t82 -62.5t112.5 -19q132 0 242 110.5t139 276.5q5 33 33 33q27 0 23 -33l-74 -418q-6 -30 -33 -30q-28 0 -23 32q5 27 0 53t-18 35q-74 -69 -143 -104.5t-170 -36.5l-82 -71q68 2 112 -36 t31 -108q-9 -54 -60 -95t-111 -61.5t-132 -31.5q-19 -4 -22 9q-4 16 23 25q3 0 5 1q67 17 122 58.5t63 94.5q7 43 -38.5 60.5t-105.5 7.5q-11 -4 -16 8q-5 15 16 33l131 112q-179 28 -269 216.5t-40 469.5z" />
<glyph unicode="&#xc8;" horiz-adv-x="1001" d="M-35 29q4 17 15.5 27t23.5 10l36 -2q36 -1 95 -1l209 1188q-60 0 -96 -1l-37 -1q-12 0 -19.5 10.5t-3.5 26.5q1 14 12.5 24.5t22.5 10.5q4 0 20 -2.5t60.5 -5t118.5 -2.5l446 4q16 0 57.5 4t47.5 4q11 0 17 -10t3 -27l-12 -61q-27 -191 -33 -248q-8 -31 -35 -31 q-13 0 -20.5 9.5t-5.5 21.5q24 125 -2 193.5t-103 68.5h-295l-92 -516h180q45 0 78.5 41t46.5 117q2 13 9.5 21.5t19.5 8.5t17 -9t2 -21q-19 -86 -39 -195q-19 -104 -29 -194q-9 -31 -29 -31q-24 0 -20 31q15 76 -4.5 116.5t-65.5 40.5h-178l-100 -573h340q76 0 126 68 t72 194q2 13 11.5 22t23.5 9q29 0 25 -31q-1 -6 -11.5 -51.5t-23 -102.5t-19.5 -94l-10 -63q-1 -14 -12 -24.5t-21 -10.5q-7 0 -46 4t-56 4l-489 4q-73 0 -118 -2.5t-62 -5t-21 -2.5q-13 0 -20.5 9t-6.5 26zM498.5 1641q1.5 27 19.5 45q20 20 48.5 22.5t43.5 -14.5 q7 -7 23.5 -39.5t51 -83t85.5 -101.5q8 -8 2.5 -18.5t-15.5 -14t-18 2.5q-50 50 -101 84t-84.5 50.5t-41.5 24.5q-15 15 -13.5 42z" />
<glyph unicode="&#xc9;" horiz-adv-x="1001" d="M-35 29q4 17 15.5 27t23.5 10l36 -2q36 -1 95 -1l209 1188q-60 0 -96 -1l-37 -1q-12 0 -19.5 10.5t-3.5 26.5q1 14 12.5 24.5t22.5 10.5q4 0 20 -2.5t60.5 -5t118.5 -2.5l446 4q16 0 57.5 4t47.5 4q11 0 17 -10t3 -27l-12 -61q-27 -191 -33 -248q-8 -31 -35 -31 q-13 0 -20.5 9.5t-5.5 21.5q24 125 -2 193.5t-103 68.5h-295l-92 -516h180q45 0 78.5 41t46.5 117q2 13 9.5 21.5t19.5 8.5t17 -9t2 -21q-19 -86 -39 -195q-19 -104 -29 -194q-9 -31 -29 -31q-24 0 -20 31q15 76 -4.5 116.5t-65.5 40.5h-178l-100 -573h340q76 0 126 68 t72 194q2 13 11.5 22t23.5 9q29 0 25 -31q-1 -6 -11.5 -51.5t-23 -102.5t-19.5 -94l-10 -63q-1 -14 -12 -24.5t-21 -10.5q-7 0 -46 4t-56 4l-489 4q-73 0 -118 -2.5t-62 -5t-21 -2.5q-13 0 -20.5 9t-6.5 26zM548 1448q0 10 11 20q68 50 120.5 100.5t80.5 82.5t37 39 q22 18 48 15t40 -22q13 -21 5 -47t-30 -41q-10 -7 -49 -23t-101 -49.5t-130 -84.5q-12 -8 -22 -4t-10 14z" />
<glyph unicode="&#xca;" horiz-adv-x="1001" d="M-35 29q4 17 15.5 27t23.5 10l36 -2q36 -1 95 -1l209 1188q-60 0 -96 -1l-37 -1q-12 0 -19.5 10.5t-3.5 26.5q1 14 12.5 24.5t22.5 10.5q4 0 20 -2.5t60.5 -5t118.5 -2.5l446 4q16 0 57.5 4t47.5 4q11 0 17 -10t3 -27l-12 -61q-27 -191 -33 -248q-8 -31 -35 -31 q-13 0 -20.5 9.5t-5.5 21.5q24 125 -2 193.5t-103 68.5h-295l-92 -516h180q45 0 78.5 41t46.5 117q2 13 9.5 21.5t19.5 8.5t17 -9t2 -21q-19 -86 -39 -195q-19 -104 -29 -194q-9 -31 -29 -31q-24 0 -20 31q15 76 -4.5 116.5t-65.5 40.5h-178l-100 -573h340q76 0 126 68 t72 194q2 13 11.5 22t23.5 9q29 0 25 -31q-1 -6 -11.5 -51.5t-23 -102.5t-19.5 -94l-10 -63q-1 -14 -12 -24.5t-21 -10.5q-7 0 -46 4t-56 4l-489 4q-73 0 -118 -2.5t-62 -5t-21 -2.5q-13 0 -20.5 9t-6.5 26zM450 1440q-7 10 5 20l225 205q20 19 33 19t28 -19l152 -205 q5 -5 0 -12t-13 -10t-14 0l-174 125l-221 -125q-14 -8 -21 2z" />
<glyph unicode="&#xcb;" horiz-adv-x="1001" d="M-35 29q4 17 15.5 27t23.5 10l36 -2q36 -1 95 -1l209 1188q-60 0 -96 -1l-37 -1q-12 0 -19.5 10.5t-3.5 26.5q1 14 12.5 24.5t22.5 10.5q4 0 20 -2.5t60.5 -5t118.5 -2.5l446 4q16 0 57.5 4t47.5 4q11 0 17 -10t3 -27l-12 -61q-27 -191 -33 -248q-8 -31 -35 -31 q-13 0 -20.5 9.5t-5.5 21.5q24 125 -2 193.5t-103 68.5h-295l-92 -516h180q45 0 78.5 41t46.5 117q2 13 9.5 21.5t19.5 8.5t17 -9t2 -21q-19 -86 -39 -195q-19 -104 -29 -194q-9 -31 -29 -31q-24 0 -20 31q15 76 -4.5 116.5t-65.5 40.5h-178l-100 -573h340q76 0 126 68 t72 194q2 13 11.5 22t23.5 9q29 0 25 -31q-1 -6 -11.5 -51.5t-23 -102.5t-19.5 -94l-10 -63q-1 -14 -12 -24.5t-21 -10.5q-7 0 -46 4t-56 4l-489 4q-73 0 -118 -2.5t-62 -5t-21 -2.5q-13 0 -20.5 9t-6.5 26zM459 1507q6 31 31.5 52.5t54.5 21.5q31 0 48 -21.5t11 -52.5 q-4 -29 -29.5 -50t-56.5 -21q-29 0 -46.5 21t-12.5 50zM764 1507q8 31 33 52.5t55 21.5q29 0 46 -21.5t11 -52.5q-5 -29 -29 -50t-55 -21q-30 0 -48 20.5t-13 50.5z" />
<glyph unicode="&#xcc;" horiz-adv-x="630" d="M-35 29q4 17 15.5 27t23.5 10l36 -2q36 -1 95 -1l209 1188q-60 0 -96 -1l-37 -1q-12 0 -19.5 10.5t-3.5 26.5q1 14 12.5 24.5t22.5 10.5q4 0 20 -2.5t60.5 -5t118.5 -2.5h8q74 0 119 2.5t61.5 5t20.5 2.5q13 0 21 -10.5t5 -24.5q-4 -17 -14.5 -27t-21.5 -10l-37 1 q-37 1 -97 1l-206 -1188q59 0 95 1l36 2q11 0 19 -10.5t5 -26.5t-13.5 -25.5t-23.5 -9.5q-4 0 -19.5 2.5t-60 5t-118.5 2.5h-8q-73 0 -118 -2.5t-62 -5t-21 -2.5q-13 0 -20.5 9t-6.5 26zM279.5 1641q1.5 27 19.5 45q20 20 48.5 22.5t43.5 -14.5q7 -7 23.5 -39.5t51 -83 t85.5 -101.5q8 -8 2.5 -18.5t-15.5 -14t-18 2.5q-50 50 -101 84t-84.5 50.5t-41.5 24.5q-15 15 -13.5 42z" />
<glyph unicode="&#xcd;" horiz-adv-x="630" d="M-35 29q4 17 15.5 27t23.5 10l36 -2q36 -1 95 -1l209 1188q-60 0 -96 -1l-37 -1q-12 0 -19.5 10.5t-3.5 26.5q1 14 12.5 24.5t22.5 10.5q4 0 20 -2.5t60.5 -5t118.5 -2.5h8q74 0 119 2.5t61.5 5t20.5 2.5q13 0 21 -10.5t5 -24.5q-4 -17 -14.5 -27t-21.5 -10l-37 1 q-37 1 -97 1l-206 -1188q59 0 95 1l36 2q11 0 19 -10.5t5 -26.5t-13.5 -25.5t-23.5 -9.5q-4 0 -19.5 2.5t-60 5t-118.5 2.5h-8q-73 0 -118 -2.5t-62 -5t-21 -2.5q-13 0 -20.5 9t-6.5 26zM343 1448q0 10 11 20q68 50 120.5 100.5t80.5 82.5t37 39q22 18 48 15t40 -22 q13 -21 5 -47t-30 -41q-10 -7 -49 -23t-101 -49.5t-130 -84.5q-12 -8 -22 -4t-10 14z" />
<glyph unicode="&#xce;" horiz-adv-x="630" d="M-35 29q4 17 15.5 27t23.5 10l36 -2q36 -1 95 -1l209 1188q-60 0 -96 -1l-37 -1q-12 0 -19.5 10.5t-3.5 26.5q1 14 12.5 24.5t22.5 10.5q4 0 20 -2.5t60.5 -5t118.5 -2.5h8q74 0 119 2.5t61.5 5t20.5 2.5q13 0 21 -10.5t5 -24.5q-4 -17 -14.5 -27t-21.5 -10l-37 1 q-37 1 -97 1l-206 -1188q59 0 95 1l36 2q11 0 19 -10.5t5 -26.5t-13.5 -25.5t-23.5 -9.5q-4 0 -19.5 2.5t-60 5t-118.5 2.5h-8q-73 0 -118 -2.5t-62 -5t-21 -2.5q-13 0 -20.5 9t-6.5 26zM222.5 1440q-7.5 10 4.5 20l226 205q20 19 33 19t28 -19l152 -205q5 -5 0 -12t-13 -10 t-14 0l-174 125l-221 -125q-14 -8 -21.5 2z" />
<glyph unicode="&#xcf;" horiz-adv-x="630" d="M-35 29q4 17 15.5 27t23.5 10l36 -2q36 -1 95 -1l209 1188q-60 0 -96 -1l-37 -1q-12 0 -19.5 10.5t-3.5 26.5q1 14 12.5 24.5t22.5 10.5q4 0 20 -2.5t60.5 -5t118.5 -2.5h8q74 0 119 2.5t61.5 5t20.5 2.5q13 0 21 -10.5t5 -24.5q-4 -17 -14.5 -27t-21.5 -10l-37 1 q-37 1 -97 1l-206 -1188q59 0 95 1l36 2q11 0 19 -10.5t5 -26.5t-13.5 -25.5t-23.5 -9.5q-4 0 -19.5 2.5t-60 5t-118.5 2.5h-8q-73 0 -118 -2.5t-62 -5t-21 -2.5q-13 0 -20.5 9t-6.5 26zM223 1507q6 31 31.5 52.5t54.5 21.5q31 0 48.5 -21.5t11.5 -52.5q-4 -29 -29.5 -50 t-56.5 -21q-29 0 -47 21t-13 50zM528 1507q8 31 33 52.5t55 21.5q29 0 46.5 -21.5t11.5 -52.5q-5 -29 -29 -50t-55 -21t-49 21t-13 50z" />
<glyph unicode="&#xd0;" horiz-adv-x="1200" d="M-35 29q4 17 15.5 27t23.5 10l36 -2q36 -1 95 -1l103 588q-51 -1 -83.5 -3.5t-46 -4.5t-20.5 -2q-16 0 -25.5 11t-5.5 32q3 20 15.5 30.5t27.5 10.5q1 0 41.5 -3t108.5 -3l94 532q-60 0 -96 -1l-37 -1q-12 0 -19.5 10.5t-3.5 26.5q1 14 12.5 24.5t22.5 10.5q4 0 20 -2.5 t60.5 -5t118.5 -2.5q21 0 130.5 3t182.5 3q203 0 314.5 -185.5t60.5 -474.5q-26 -145 -87.5 -269.5t-143 -209.5t-179.5 -133.5t-196 -48.5q-69 0 -169.5 4t-141.5 4q-73 0 -118 -2.5t-62 -5t-21 -2.5q-13 0 -20.5 9t-6.5 26zM283 80q102 -4 235 -4q108 0 186 53t139.5 183 t98.5 345q27 164 28 275.5t-30.5 179.5t-84 97.5t-132.5 29.5l-238 -4l-92 -516q76 0 119.5 3t44.5 3q17 0 27 -10.5t6 -30.5q-3 -20 -17 -31.5t-30 -11.5q-8 0 -22 2t-49 4.5t-91 3.5z" />
<glyph unicode="&#xd1;" horiz-adv-x="1187" d="M-49 29q3 16 14.5 26.5t22.5 10.5l36 -2q36 -1 95 -1l209 1188q-59 0 -95 -1l-36 -1q-13 0 -20.5 10t-4.5 27q3 15 14 25t23 10q5 0 18.5 -2t51 -4.5t98.5 -3.5q10 0 34.5 2t34.5 2q16 0 28.5 -18t27.5 -58l342 -917l162 929q-59 0 -96 -1l-36 -1q-13 0 -20 10t-4 27 q3 15 14 25t23 10q5 0 18.5 -2t51 -4.5t98.5 -3.5q61 1 99 3.5t52 4.5t19 2q13 0 21 -10.5t5 -24.5q-4 -17 -15 -27t-22 -10l-36 1q-37 1 -97 1l-215 -1220q-8 -58 -35 -58q-12 0 -19 8.5t-15 27.5q-1 3 -2 5l-410 1110l-188 -1061q59 0 95 1l36 2q13 0 20 -10t4 -27 q-3 -16 -13.5 -25.5t-23.5 -9.5q-5 0 -18.5 2t-51 4.5t-98.5 3.5q-61 -1 -99.5 -3.5t-53 -4.5t-19.5 -2q-12 0 -19.5 9.5t-4.5 25.5zM498 1450q15 77 58 127.5t93 50.5q31 0 67 -25t70.5 -50t61.5 -25q30 0 56.5 25.5t37.5 60.5q5 17 20 14q12 -2 9 -14 q-15 -85 -57.5 -133.5t-100.5 -48.5q-35 0 -101 50t-91 50t-53 -25t-40 -57q-9 -15 -23 -13q-8 2 -7 13z" />
<glyph unicode="&#xd2;" horiz-adv-x="1169" d="M73.5 374.5q-17.5 127.5 10.5 282.5q27 152 89.5 282t145.5 219t182.5 139.5t200.5 50.5t184 -50t134.5 -140.5t70 -218t-9.5 -282.5q-27 -152 -90 -282.5t-146.5 -219.5t-184 -139.5t-201.5 -50.5t-183.5 50t-133.5 141t-68.5 218.5zM220.5 366.5 q-0.5 -118.5 29.5 -188.5t85 -100.5t140 -30.5q112 0 192 55t142 191t102 364q30 172 30.5 290.5t-29.5 189t-84 101t-138 30.5q-114 0 -194.5 -55.5t-142 -191t-101.5 -364.5q-31 -172 -31.5 -290.5zM566.5 1641q1.5 27 19.5 45q20 20 48.5 22.5t43.5 -14.5 q7 -7 23.5 -39.5t51 -83t85.5 -101.5q8 -8 2.5 -18.5t-15.5 -14t-18 2.5q-50 50 -101 84t-84.5 50.5t-41.5 24.5q-15 15 -13.5 42z" />
<glyph unicode="&#xd3;" horiz-adv-x="1169" d="M73.5 374.5q-17.5 127.5 10.5 282.5q27 152 89.5 282t145.5 219t182.5 139.5t200.5 50.5t184 -50t134.5 -140.5t70 -218t-9.5 -282.5q-27 -152 -90 -282.5t-146.5 -219.5t-184 -139.5t-201.5 -50.5t-183.5 50t-133.5 141t-68.5 218.5zM220.5 366.5 q-0.5 -118.5 29.5 -188.5t85 -100.5t140 -30.5q112 0 192 55t142 191t102 364q30 172 30.5 290.5t-29.5 189t-84 101t-138 30.5q-114 0 -194.5 -55.5t-142 -191t-101.5 -364.5q-31 -172 -31.5 -290.5zM615.5 1448q0.5 10 11.5 20q68 50 120 100.5t80 82.5t37 39q22 18 48 15 t40 -22q13 -21 5.5 -47t-29.5 -41q-10 -7 -49.5 -23t-101.5 -49.5t-130 -84.5q-12 -8 -22 -4t-9.5 14z" />
<glyph unicode="&#xd4;" horiz-adv-x="1169" d="M73.5 374.5q-17.5 127.5 10.5 282.5q27 152 89.5 282t145.5 219t182.5 139.5t200.5 50.5t184 -50t134.5 -140.5t70 -218t-9.5 -282.5q-27 -152 -90 -282.5t-146.5 -219.5t-184 -139.5t-201.5 -50.5t-183.5 50t-133.5 141t-68.5 218.5zM220.5 366.5 q-0.5 -118.5 29.5 -188.5t85 -100.5t140 -30.5q112 0 192 55t142 191t102 364q30 172 30.5 290.5t-29.5 189t-84 101t-138 30.5q-114 0 -194.5 -55.5t-142 -191t-101.5 -364.5q-31 -172 -31.5 -290.5zM513.5 1440q-7.5 10 4.5 20l225 205q20 19 33.5 19t28.5 -19l151 -205 q5 -5 0 -12t-12.5 -10t-13.5 0l-174 125l-221 -125q-14 -8 -21.5 2z" />
<glyph unicode="&#xd5;" horiz-adv-x="1169" d="M73.5 374.5q-17.5 127.5 10.5 282.5q27 152 89.5 282t145.5 219t182.5 139.5t200.5 50.5t184 -50t134.5 -140.5t70 -218t-9.5 -282.5q-27 -152 -90 -282.5t-146.5 -219.5t-184 -139.5t-201.5 -50.5t-183.5 50t-133.5 141t-68.5 218.5zM220.5 366.5 q-0.5 -118.5 29.5 -188.5t85 -100.5t140 -30.5q112 0 192 55t142 191t102 364q30 172 30.5 290.5t-29.5 189t-84 101t-138 30.5q-114 0 -194.5 -55.5t-142 -191t-101.5 -364.5q-31 -172 -31.5 -290.5zM522 1450q15 77 58.5 127.5t93.5 50.5q31 0 66.5 -25t70 -50t61.5 -25 q30 0 57 25.5t38 60.5q5 16 19 14q10 -3 9 -14q-15 -85 -57 -133.5t-100 -48.5q-35 0 -101.5 50t-91.5 50t-52.5 -25t-39.5 -57q-8 -14 -23 -13q-8 3 -8 13z" />
<glyph unicode="&#xd6;" horiz-adv-x="1169" d="M73.5 374.5q-17.5 127.5 10.5 282.5q27 152 89.5 282t145.5 219t182.5 139.5t200.5 50.5t184 -50t134.5 -140.5t70 -218t-9.5 -282.5q-27 -152 -90 -282.5t-146.5 -219.5t-184 -139.5t-201.5 -50.5t-183.5 50t-133.5 141t-68.5 218.5zM220.5 366.5 q-0.5 -118.5 29.5 -188.5t85 -100.5t140 -30.5q112 0 192 55t142 191t102 364q30 172 30.5 290.5t-29.5 189t-84 101t-138 30.5q-114 0 -194.5 -55.5t-142 -191t-101.5 -364.5q-31 -172 -31.5 -290.5zM532 1507q6 31 31.5 52.5t54.5 21.5q31 0 48.5 -21.5t11.5 -52.5 q-4 -29 -29.5 -50t-56.5 -21q-29 0 -47 21t-13 50zM838 1507q8 31 33 52.5t55 21.5q29 0 46 -21.5t11 -52.5q-5 -29 -29 -50t-55 -21q-30 0 -48 20.5t-13 50.5z" />
<glyph unicode="&#xd8;" horiz-adv-x="1169" d="M12 -41.5q-2 18.5 8 29.5q4 5 22 25t46 54.5t62 77.5q-57 93 -74.5 221.5t8.5 290.5q27 152 89.5 282t145.5 219t182.5 139.5t200.5 50.5q159 0 265 -115q30 40 52 70.5t36 52.5t16 24q11 14 28.5 18.5t35.5 -3.5q14 -11 16 -29t-8 -31q-6 -8 -21.5 -26t-45 -53.5 t-64.5 -81.5q123 -199 69 -517q-27 -152 -90 -282.5t-146.5 -219.5t-184 -139.5t-201.5 -50.5q-160 0 -269 121q-25 -36 -46.5 -68.5t-33 -50t-16.5 -24.5q-30 -34 -63 -11q-17 8 -19 26.5zM231 252q43 57 113 150t218 290.5t246.5 328.5t98.5 130q-57 117 -217 117 q-114 0 -194.5 -55.5t-142 -191t-101.5 -364.5q-47 -270 -21 -405zM254 170q55 -123 221 -123q112 0 192 55t142 191t102 364q49 268 21 412z" />
<glyph unicode="&#xd9;" horiz-adv-x="1153" d="M147 346l158 905q-59 0 -95 -1l-36 -1q-11 0 -19 10.5t-5 26.5q3 15 13.5 25t22.5 10q4 0 20 -2.5t60.5 -5t118.5 -2.5h8q73 0 118 2.5t62 5t21 2.5q12 0 20 -10t7 -25q-4 -17 -15.5 -27t-23.5 -10l-36 1q-36 1 -95 1l-166 -944q-23 -126 42 -193t179 -67q122 0 208.5 83 t110.5 216l158 905q-59 0 -95 -1l-36 -1q-13 0 -20.5 10t-4.5 27q3 15 14 25t23 10q5 0 18.5 -2t51 -4.5t98.5 -3.5q47 1 82 2.5t49 3t24.5 3t16.5 1.5q11 0 19.5 -10.5t5.5 -24.5q-3 -16 -14.5 -26.5t-22.5 -10.5l-36 1q-36 1 -95 1l-160 -905q-32 -184 -157 -282.5 t-287 -98.5t-252 100t-58 281zM500.5 1641q1.5 27 19.5 45q20 20 48.5 22.5t43.5 -14.5q7 -7 23.5 -39.5t51 -83t85.5 -101.5q8 -8 2.5 -18.5t-15.5 -14t-18 2.5q-50 50 -101 84t-84.5 50.5t-41.5 24.5q-15 15 -13.5 42z" />
<glyph unicode="&#xda;" horiz-adv-x="1153" d="M147 346l158 905q-59 0 -95 -1l-36 -1q-11 0 -19 10.5t-5 26.5q3 15 13.5 25t22.5 10q4 0 20 -2.5t60.5 -5t118.5 -2.5h8q73 0 118 2.5t62 5t21 2.5q12 0 20 -10t7 -25q-4 -17 -15.5 -27t-23.5 -10l-36 1q-36 1 -95 1l-166 -944q-23 -126 42 -193t179 -67q122 0 208.5 83 t110.5 216l158 905q-59 0 -95 -1l-36 -1q-13 0 -20.5 10t-4.5 27q3 15 14 25t23 10q5 0 18.5 -2t51 -4.5t98.5 -3.5q47 1 82 2.5t49 3t24.5 3t16.5 1.5q11 0 19.5 -10.5t5.5 -24.5q-3 -16 -14.5 -26.5t-22.5 -10.5l-36 1q-36 1 -95 1l-160 -905q-32 -184 -157 -282.5 t-287 -98.5t-252 100t-58 281zM658.5 1448q0.5 10 11.5 20q68 50 120 100.5t80 82.5t37 39q22 18 48 15t40 -22q13 -21 5.5 -47t-29.5 -41q-10 -7 -49.5 -23t-101.5 -49.5t-130 -84.5q-12 -8 -22 -4t-9.5 14z" />
<glyph unicode="&#xdb;" horiz-adv-x="1153" d="M147 346l158 905q-59 0 -95 -1l-36 -1q-11 0 -19 10.5t-5 26.5q3 15 13.5 25t22.5 10q4 0 20 -2.5t60.5 -5t118.5 -2.5h8q73 0 118 2.5t62 5t21 2.5q12 0 20 -10t7 -25q-4 -17 -15.5 -27t-23.5 -10l-36 1q-36 1 -95 1l-166 -944q-23 -126 42 -193t179 -67q122 0 208.5 83 t110.5 216l158 905q-59 0 -95 -1l-36 -1q-13 0 -20.5 10t-4.5 27q3 15 14 25t23 10q5 0 18.5 -2t51 -4.5t98.5 -3.5q47 1 82 2.5t49 3t24.5 3t16.5 1.5q11 0 19.5 -10.5t5.5 -24.5q-3 -16 -14.5 -26.5t-22.5 -10.5l-36 1q-36 1 -95 1l-160 -905q-32 -184 -157 -282.5 t-287 -98.5t-252 100t-58 281zM495 1440q-7 10 5 20l225 205q20 19 33 19t28 -19l152 -205q5 -5 0 -12t-13 -10t-14 0l-174 125l-221 -125q-14 -8 -21 2z" />
<glyph unicode="&#xdc;" horiz-adv-x="1153" d="M147 346l158 905q-59 0 -95 -1l-36 -1q-11 0 -19 10.5t-5 26.5q3 15 13.5 25t22.5 10q4 0 20 -2.5t60.5 -5t118.5 -2.5h8q73 0 118 2.5t62 5t21 2.5q12 0 20 -10t7 -25q-4 -17 -15.5 -27t-23.5 -10l-36 1q-36 1 -95 1l-166 -944q-23 -126 42 -193t179 -67q122 0 208.5 83 t110.5 216l158 905q-59 0 -95 -1l-36 -1q-13 0 -20.5 10t-4.5 27q3 15 14 25t23 10q5 0 18.5 -2t51 -4.5t98.5 -3.5q47 1 82 2.5t49 3t24.5 3t16.5 1.5q11 0 19.5 -10.5t5.5 -24.5q-3 -16 -14.5 -26.5t-22.5 -10.5l-36 1q-36 1 -95 1l-160 -905q-32 -184 -157 -282.5 t-287 -98.5t-252 100t-58 281zM522 1507q6 31 31.5 52.5t54.5 21.5q31 0 48.5 -21.5t11.5 -52.5q-4 -29 -29.5 -50t-56.5 -21q-29 0 -47 21t-13 50zM827 1507q8 31 33 52.5t55 21.5q29 0 46.5 -21.5t11.5 -52.5q-5 -29 -29 -50t-55 -21t-49 21t-13 50z" />
<glyph unicode="&#xdd;" horiz-adv-x="899" d="M18 1286q3 15 14 25t23 10q4 0 20 -2.5t60 -5t117 -2.5h10q73 0 118 2.5t62 5t21 2.5q11 0 19 -10.5t5 -24.5q-3 -17 -13.5 -27t-22.5 -10q-1 0 -36.5 1t-90.5 1l165 -563l365 563q-44 0 -75 -0.5t-46.5 -1t-21.5 -0.5q-13 0 -20.5 10t-4.5 27q3 15 14 25t23 10 q5 0 18.5 -2t51 -4.5t98.5 -3.5q61 1 99 3.5t52 4.5t19 2q13 0 21 -10.5t5 -24.5q-4 -17 -14.5 -27t-21.5 -10q-3 0 -38.5 1t-80.5 1l-408 -624l-98 -564q60 0 96 1l37 2q12 0 19.5 -10.5t3.5 -26.5q-1 -16 -12 -25.5t-23 -9.5q-4 0 -20 2.5t-60.5 5t-118.5 2.5h-8 q-74 0 -119 -2.5t-61.5 -5t-20.5 -2.5q-13 0 -21 9.5t-5 25.5q4 17 15 27t22 10l36 -2q37 -1 97 -1l88 515l-201 673q-56 0 -91 -1t-36 -1q-13 0 -20.5 10t-4.5 27zM505 1448q0 10 11 20q68 50 120.5 100.5t80.5 82.5t37 39q22 18 48 15t40 -22q13 -21 5 -47t-30 -41 q-10 -7 -49 -23t-101 -49.5t-130 -84.5q-12 -8 -22 -4t-10 14z" />
<glyph unicode="&#xde;" horiz-adv-x="933" d="M-35 29q4 17 15.5 27t23.5 10l36 -2q36 -1 95 -1l209 1188q-60 0 -96 -1l-37 -1q-12 0 -19.5 10.5t-3.5 26.5q1 14 12.5 24.5t22.5 10.5q4 0 20 -2.5t60.5 -5t118.5 -2.5h8q74 0 119 2.5t61.5 5t20.5 2.5q13 0 21 -10.5t5 -24.5q-4 -17 -14.5 -27t-21.5 -10l-37 1 q-37 1 -97 1l-30 -188q37 2 123 2q196 0 282.5 -103t55.5 -280q-30 -174 -155 -279.5t-319 -105.5h-125l-38 -234q53 0 88 1.5t37 1.5q9 0 15 -10t5 -27q-3 -16 -13.5 -25.5t-21.5 -9.5q-6 0 -24.5 2.5t-62 5t-111.5 2.5q-73 0 -118 -2.5t-62 -5t-21 -2.5q-13 0 -20.5 9 t-6.5 26zM334 373h123q138 0 204 67.5t97 241.5q31 171 -11.5 239t-179.5 68h-125z" />
<glyph unicode="&#xdf;" horiz-adv-x="1067" d="M-213 -399q6 35 29.5 57.5t54.5 22.5t48.5 -21.5t12.5 -52.5q-6 -24 -24 -43.5t-43 -26.5q6 -37 59 -37q32 0 57.5 34t34.5 85l236 1346q18 102 57 178t91 119.5t110 64.5t123 21q117 0 172 -73.5t35 -176.5q-9 -52 -39.5 -103t-66.5 -92t-71.5 -80t-59 -81.5 t-23.5 -82.5q0 -50 35 -91t84.5 -72t99 -65.5t84.5 -87.5t35 -120q0 -119 -82 -189.5t-197 -70.5q-118 0 -191 66.5t-73 140.5q0 54 27.5 80t64.5 26q29 0 46 -18.5t17 -42.5q0 -30 -23.5 -53.5t-49.5 -26.5q23 -50 73 -78t113 -28q71 0 121.5 42.5t50.5 114.5q0 47 -35 85 t-84.5 66.5t-99 61t-84.5 84.5t-35 119q0 56 20.5 107.5t52.5 94t64.5 85.5t62 101t40.5 122q18 93 -10 135.5t-86 42.5q-88 0 -148.5 -70.5t-91.5 -254.5l-217 -1229q-22 -129 -85 -206t-151 -77q-78 0 -114.5 45.5t-26.5 102.5z" />
<glyph unicode="&#xe0;" horiz-adv-x="989" d="M37 401q16 94 59 177t97.5 138.5t116 87.5t116.5 32q62 0 108.5 -37.5t69.5 -106.5l21 109q0 8 14 8q7 0 20.5 -3t28.5 -3q14 0 30.5 3t22.5 3q13 0 13 -8l-117 -654q-10 -41 -0.5 -61.5t19 -25.5t22.5 -5q48 0 85.5 66t59.5 184q1 17 12.5 28t26.5 11t21.5 -10.5 t3.5 -28.5q-10 -55 -27.5 -106.5t-46 -102.5t-73 -81.5t-99.5 -30.5q-58 0 -96.5 34.5t-38.5 100.5q-45 -71 -112 -112.5t-132 -41.5q-133 0 -196 121t-29 315zM172.5 116.5q24.5 -81.5 108.5 -81.5q92 0 167 97t105 269q32 174 -6 270.5t-131 96.5q-68 0 -135 -90.5 t-101 -276.5q-32 -203 -7.5 -284.5zM328 1126.5q2 26.5 22 44.5q19 20 47 23t43 -14q8 -8 24.5 -40t51 -83t84.5 -101q8 -8 3.5 -18.5t-15 -14t-19.5 2.5q-50 50 -101 84t-84.5 50.5t-41.5 24.5q-16 15 -14 41.5z" />
<glyph unicode="&#xe1;" horiz-adv-x="989" d="M37 401q16 94 59 177t97.5 138.5t116 87.5t116.5 32q62 0 108.5 -37.5t69.5 -106.5l21 109q0 8 14 8q7 0 20.5 -3t28.5 -3q14 0 30.5 3t22.5 3q13 0 13 -8l-117 -654q-10 -41 -0.5 -61.5t19 -25.5t22.5 -5q48 0 85.5 66t59.5 184q1 17 12.5 28t26.5 11t21.5 -10.5 t3.5 -28.5q-10 -55 -27.5 -106.5t-46 -102.5t-73 -81.5t-99.5 -30.5q-58 0 -96.5 34.5t-38.5 100.5q-45 -71 -112 -112.5t-132 -41.5q-133 0 -196 121t-29 315zM172.5 116.5q24.5 -81.5 108.5 -81.5q92 0 167 97t105 269q32 174 -6 270.5t-131 96.5q-68 0 -135 -90.5 t-101 -276.5q-32 -203 -7.5 -284.5zM412 937.5q0 9.5 10 18.5q54 39 99.5 80t68.5 67t43 48t29 29q22 17 48 14t38 -23q14 -19 6.5 -45t-29.5 -41q-11 -8 -49.5 -24.5t-102 -50.5t-131.5 -84q-11 -8 -20.5 -3t-9.5 14.5z" />
<glyph unicode="&#xe2;" horiz-adv-x="989" d="M37 401q16 94 59 177t97.5 138.5t116 87.5t116.5 32q62 0 108.5 -37.5t69.5 -106.5l21 109q0 8 14 8q7 0 20.5 -3t28.5 -3q14 0 30.5 3t22.5 3q13 0 13 -8l-117 -654q-10 -41 -0.5 -61.5t19 -25.5t22.5 -5q48 0 85.5 66t59.5 184q1 17 12.5 28t26.5 11t21.5 -10.5 t3.5 -28.5q-10 -55 -27.5 -106.5t-46 -102.5t-73 -81.5t-99.5 -30.5q-58 0 -96.5 34.5t-38.5 100.5q-45 -71 -112 -112.5t-132 -41.5q-133 0 -196 121t-29 315zM172.5 116.5q24.5 -81.5 108.5 -81.5q92 0 167 97t105 269q32 174 -6 270.5t-131 96.5q-68 0 -135 -90.5 t-101 -276.5q-32 -203 -7.5 -284.5zM295 929q-7 10 4 19l225 207q22 19 34.5 19t27.5 -19l151 -207q5 -5 0.5 -12t-12 -10t-14.5 0l-174 125l-220 -125q-15 -7 -22 3z" />
<glyph unicode="&#xe3;" horiz-adv-x="989" d="M37 401q16 94 59 177t97.5 138.5t116 87.5t116.5 32q62 0 108.5 -37.5t69.5 -106.5l21 109q0 8 14 8q7 0 20.5 -3t28.5 -3q14 0 30.5 3t22.5 3q13 0 13 -8l-117 -654q-10 -41 -0.5 -61.5t19 -25.5t22.5 -5q48 0 85.5 66t59.5 184q1 17 12.5 28t26.5 11t21.5 -10.5 t3.5 -28.5q-10 -55 -27.5 -106.5t-46 -102.5t-73 -81.5t-99.5 -30.5q-58 0 -96.5 34.5t-38.5 100.5q-45 -71 -112 -112.5t-132 -41.5q-133 0 -196 121t-29 315zM172.5 116.5q24.5 -81.5 108.5 -81.5q92 0 167 97t105 269q32 174 -6 270.5t-131 96.5q-68 0 -135 -90.5 t-101 -276.5q-32 -203 -7.5 -284.5zM297 940q13 78 57.5 129t94.5 51q30 0 66 -25t70.5 -50t61.5 -25q29 0 55 25t39 61q5 16 20 13q10 -4 9 -13q-15 -86 -57.5 -134t-100.5 -48q-34 0 -101 50t-93 50q-23 0 -51 -25t-41 -59q-6 -13 -21 -11q-9 1 -8 11z" />
<glyph unicode="&#xe4;" horiz-adv-x="989" d="M37 401q16 94 59 177t97.5 138.5t116 87.5t116.5 32q62 0 108.5 -37.5t69.5 -106.5l21 109q0 8 14 8q7 0 20.5 -3t28.5 -3q14 0 30.5 3t22.5 3q13 0 13 -8l-117 -654q-10 -41 -0.5 -61.5t19 -25.5t22.5 -5q48 0 85.5 66t59.5 184q1 17 12.5 28t26.5 11t21.5 -10.5 t3.5 -28.5q-10 -55 -27.5 -106.5t-46 -102.5t-73 -81.5t-99.5 -30.5q-58 0 -96.5 34.5t-38.5 100.5q-45 -71 -112 -112.5t-132 -41.5q-133 0 -196 121t-29 315zM172.5 116.5q24.5 -81.5 108.5 -81.5q92 0 167 97t105 269q32 174 -6 270.5t-131 96.5q-68 0 -135 -90.5 t-101 -276.5q-32 -203 -7.5 -284.5zM299 991q6 31 31.5 52.5t54.5 21.5q31 0 48 -21.5t11 -52.5q-4 -29 -29.5 -50t-56.5 -21q-29 0 -46.5 21t-12.5 50zM604 991q8 31 33 52.5t55 21.5q29 0 46.5 -21.5t11.5 -52.5q-5 -29 -29 -50t-55 -21t-49 21t-13 50z" />
<glyph unicode="&#xe5;" horiz-adv-x="989" d="M37 401q16 94 59 177t97.5 138.5t116 87.5t116.5 32q62 0 108.5 -37.5t69.5 -106.5l21 109q0 8 14 8q7 0 20.5 -3t28.5 -3q14 0 30.5 3t22.5 3q13 0 13 -8l-117 -654q-10 -41 -0.5 -61.5t19 -25.5t22.5 -5q48 0 85.5 66t59.5 184q1 17 12.5 28t26.5 11t21.5 -10.5 t3.5 -28.5q-10 -55 -27.5 -106.5t-46 -102.5t-73 -81.5t-99.5 -30.5q-58 0 -96.5 34.5t-38.5 100.5q-45 -71 -112 -112.5t-132 -41.5q-133 0 -196 121t-29 315zM172.5 116.5q24.5 -81.5 108.5 -81.5q92 0 167 97t105 269q32 174 -6 270.5t-131 96.5q-68 0 -135 -90.5 t-101 -276.5q-32 -203 -7.5 -284.5zM397 1077q9 62 61.5 107t116.5 45q63 0 99.5 -45t25.5 -107q-12 -64 -64.5 -108.5t-115.5 -44.5t-99 44.5t-24 108.5zM463 1077q-6 -35 14.5 -60.5t54.5 -25.5q35 0 64 25t37 61q6 34 -15.5 58t-56.5 24q-34 0 -63 -24t-35 -58z" />
<glyph unicode="&#xe6;" horiz-adv-x="1138" d="M-23 162q17 93 90 157t169 90.5t208 26.5l35 201q25 137 -94 137q-94 0 -133 -45q36 -19 29 -74q-6 -35 -33.5 -60.5t-59.5 -25.5q-33 0 -50 25t-11 61q12 71 96 126t172 55q158 0 197 -113q122 113 254 113q96 0 150 -53t40 -132q-9 -52 -35.5 -96t-66 -75t-85 -54.5 t-97.5 -38.5t-98 -24t-93 -13q-19 -151 19.5 -232t132.5 -81q156 0 237 170q18 35 41 35q13 0 21 -8.5t8 -22.5q0 -11 -12 -35q-37 -62 -78 -105t-84 -65.5t-83 -31.5t-87 -9q-89 0 -149 50.5t-89 127.5q-166 -170 -313 -170q-77 0 -121 50t-27 139zM119 188 q-7 -56 17 -90.5t65 -34.5q44 0 95.5 29t129.5 92q-10 109 8 193q-148 0 -222.5 -47.5t-92.5 -141.5zM571 414q78 7 147 31t125.5 76.5t69.5 125.5q9 55 -11.5 89t-65.5 34q-100 0 -166.5 -94t-98.5 -262z" />
<glyph unicode="&#xe7;" horiz-adv-x="735" d="M23 -429q-3 16 23 24l7 2q65 17 120 58.5t65 94.5q7 43 -38.5 60.5t-105.5 7.5q-14 -4 -17 9q-4 14 15 32l133 114q-116 25 -166.5 140t-21.5 288q35 195 146 315t257 120q64 0 118 -28t83 -80.5t18 -115.5q-7 -43 -35 -69.5t-63 -26.5q-34 0 -54 24.5t-13 59.5 q5 31 32.5 56.5t57.5 25.5q-7 43 -45 65.5t-88 22.5q-103 0 -168 -86t-101 -283q-32 -194 6 -279t136 -85q125 0 215 170q17 35 39 35q26 0 26 -29q0 -21 -16 -45q-72 -116 -143 -159.5t-156 -43.5l-84 -71q68 2 112 -36t33 -108q-9 -54 -60.5 -95t-111.5 -61.5t-131 -31.5 q-21 -4 -24 9z" />
<glyph unicode="&#xe8;" horiz-adv-x="751" d="M37 401q17 98 62 181.5t104 138t125.5 85t130.5 30.5q96 0 150 -53t40 -132q-9 -52 -36 -96t-66.5 -75t-84.5 -54.5t-97.5 -38.5t-98 -24t-92.5 -13q-19 -151 19 -232t131 -81q158 0 239 170q17 35 41 35q12 0 19.5 -8.5t7.5 -22.5q0 -15 -10 -35q-37 -62 -78 -105 t-84 -65.5t-83 -31.5t-87 -9q-138 0 -211.5 123t-40.5 313zM184 414q78 7 146.5 31t125 76.5t70.5 125.5q9 54 -12 88.5t-65 34.5q-100 0 -166.5 -94t-98.5 -262zM300 1126.5q2 26.5 22 44.5q19 20 47 23t43 -14q8 -8 24.5 -40t50.5 -83t84 -101q8 -8 3.5 -18.5t-14.5 -14 t-19 2.5q-50 50 -101.5 84t-85 50.5t-41.5 24.5q-15 15 -13 41.5z" />
<glyph unicode="&#xe9;" horiz-adv-x="751" d="M37 401q17 98 62 181.5t104 138t125.5 85t130.5 30.5q96 0 150 -53t40 -132q-9 -52 -36 -96t-66.5 -75t-84.5 -54.5t-97.5 -38.5t-98 -24t-92.5 -13q-19 -151 19 -232t131 -81q158 0 239 170q17 35 41 35q12 0 19.5 -8.5t7.5 -22.5q0 -15 -10 -35q-37 -62 -78 -105 t-84 -65.5t-83 -31.5t-87 -9q-138 0 -211.5 123t-40.5 313zM184 414q78 7 146.5 31t125 76.5t70.5 125.5q9 54 -12 88.5t-65 34.5q-100 0 -166.5 -94t-98.5 -262zM350 937.5q0 9.5 10 18.5q54 39 99.5 80t68.5 67t43 48t29 29q22 17 48 14t38 -23q14 -19 7 -45t-29 -41 q-11 -8 -49.5 -24.5t-102 -50.5t-131.5 -84q-11 -8 -21 -3t-10 14.5z" />
<glyph unicode="&#xea;" horiz-adv-x="751" d="M37 401q17 98 62 181.5t104 138t125.5 85t130.5 30.5q96 0 150 -53t40 -132q-9 -52 -36 -96t-66.5 -75t-84.5 -54.5t-97.5 -38.5t-98 -24t-92.5 -13q-19 -151 19 -232t131 -81q158 0 239 170q17 35 41 35q12 0 19.5 -8.5t7.5 -22.5q0 -15 -10 -35q-37 -62 -78 -105 t-84 -65.5t-83 -31.5t-87 -9q-138 0 -211.5 123t-40.5 313zM184 414q78 7 146.5 31t125 76.5t70.5 125.5q9 54 -12 88.5t-65 34.5q-100 0 -166.5 -94t-98.5 -262zM266.5 935q-0.5 7 5.5 13l226 207q22 19 34 19t27 -19l152 -207q5 -5 0 -12t-12.5 -10t-14.5 0l-174 125 l-219 -125q-9 -5 -16.5 -1.5t-8 10.5z" />
<glyph unicode="&#xeb;" horiz-adv-x="751" d="M37 401q17 98 62 181.5t104 138t125.5 85t130.5 30.5q96 0 150 -53t40 -132q-9 -52 -36 -96t-66.5 -75t-84.5 -54.5t-97.5 -38.5t-98 -24t-92.5 -13q-19 -151 19 -232t131 -81q158 0 239 170q17 35 41 35q12 0 19.5 -8.5t7.5 -22.5q0 -15 -10 -35q-37 -62 -78 -105 t-84 -65.5t-83 -31.5t-87 -9q-138 0 -211.5 123t-40.5 313zM184 414q78 7 146.5 31t125 76.5t70.5 125.5q9 54 -12 88.5t-65 34.5q-100 0 -166.5 -94t-98.5 -262zM260 991q6 31 31.5 52.5t54.5 21.5q31 0 48.5 -21.5t11.5 -52.5q-4 -29 -30 -50t-57 -21q-29 0 -46.5 21 t-12.5 50zM565 991q8 31 33 52.5t55 21.5q29 0 46.5 -21.5t11.5 -52.5q-5 -29 -29 -50t-55 -21t-49 21t-13 50z" />
<glyph unicode="&#xec;" horiz-adv-x="546" d="M14 770q1 16 12 25.5t23 9.5l36 -1q36 -1 95 -1q18 0 56 4t45 4q11 0 18 -10.5t4 -26.5l-110 -627q-15 -92 40 -92q49 0 87.5 66.5t58.5 183.5q3 17 13.5 28t25.5 11q29 0 26 -39q-11 -56 -28.5 -106.5t-46 -102t-73 -82t-99.5 -30.5q-64 0 -103.5 43t-25.5 123l102 589 q-60 0 -96 -3l-37 -3q-12 0 -19.5 10.5t-3.5 26.5zM74 1126.5q2 26.5 22 44.5q19 20 47 23t43 -14q8 -8 24.5 -40t51 -83t84.5 -101q8 -8 3.5 -18.5t-15 -14t-19.5 2.5q-50 50 -101 84t-84.5 50.5t-41.5 24.5q-16 15 -14 41.5z" />
<glyph unicode="&#xed;" horiz-adv-x="546" d="M14 770q1 16 12 25.5t23 9.5l36 -1q36 -1 95 -1q18 0 56 4t45 4q11 0 18 -10.5t4 -26.5l-110 -627q-15 -92 40 -92q49 0 87.5 66.5t58.5 183.5q3 17 13.5 28t25.5 11q29 0 26 -39q-11 -56 -28.5 -106.5t-46 -102t-73 -82t-99.5 -30.5q-64 0 -103.5 43t-25.5 123l102 589 q-60 0 -96 -3l-37 -3q-12 0 -19.5 10.5t-3.5 26.5zM162 937.5q0 9.5 10 18.5q54 39 99.5 80t68.5 67t43 48t29 29q22 17 48 14t38 -23q14 -19 6.5 -45t-29.5 -41q-11 -8 -49.5 -24.5t-101.5 -50.5t-131 -84q-11 -8 -21 -3t-10 14.5z" />
<glyph unicode="&#xee;" horiz-adv-x="546" d="M14 770q1 16 12 25.5t23 9.5l36 -1q36 -1 95 -1q18 0 56 4t45 4q11 0 18 -10.5t4 -26.5l-110 -627q-15 -92 40 -92q49 0 87.5 66.5t58.5 183.5q3 17 13.5 28t25.5 11q29 0 26 -39q-11 -56 -28.5 -106.5t-46 -102t-73 -82t-99.5 -30.5q-64 0 -103.5 43t-25.5 123l102 589 q-60 0 -96 -3l-37 -3q-12 0 -19.5 10.5t-3.5 26.5zM23 929q-7 10 4 19l225 207q22 19 34 19t27 -19l152 -207q5 -5 0 -12t-12.5 -10t-14.5 0l-174 125l-219 -125q-15 -7 -22 3z" />
<glyph unicode="&#xef;" horiz-adv-x="546" d="M14 770q1 16 12 25.5t23 9.5l36 -1q36 -1 95 -1q18 0 56 4t45 4q11 0 18 -10.5t4 -26.5l-110 -627q-15 -92 40 -92q49 0 87.5 66.5t58.5 183.5q3 17 13.5 28t25.5 11q29 0 26 -39q-11 -56 -28.5 -106.5t-46 -102t-73 -82t-99.5 -30.5q-64 0 -103.5 43t-25.5 123l102 589 q-60 0 -96 -3l-37 -3q-12 0 -19.5 10.5t-3.5 26.5zM53 991q6 31 31.5 52.5t54.5 21.5q31 0 48.5 -21.5t11.5 -52.5q-4 -29 -29.5 -50t-56.5 -21q-29 0 -47 21t-13 50zM358 991q8 31 33 52.5t55 21.5q29 0 46.5 -21.5t11.5 -52.5q-5 -29 -29 -50t-55 -21t-49 21t-13 50z" />
<glyph unicode="&#xf0;" d="M37 401q33 191 154 313t264 122q86 0 151 -58q-22 196 -84 316q-57 -30 -90 -48.5t-49 -28.5t-21 -13q-13 -9 -31 -4.5t-24 22.5q-9 32 25 53q7 4 21 9.5t48 21t88 43.5q-70 106 -188 145q-36 11 -31 39.5t45 22.5q152 -20 260 -160l5 2q53 27 85.5 45.5t46 27.5t21.5 13 q13 9 29 4.5t22 -22.5q10 -32 -20 -52q-7 -4 -19.5 -8.5t-44 -18t-77.5 -36.5l-11 -6q87 -141 116 -337.5t-9 -406.5q-35 -191 -155.5 -313.5t-262.5 -122.5t-219.5 122.5t-44.5 313.5zM177.5 115q31.5 -82 135.5 -82q103 0 164 84t96 284q34 203 4 286t-133 83 q-104 0 -166 -84.5t-98 -284.5q-34 -204 -2.5 -286z" />
<glyph unicode="&#xf1;" horiz-adv-x="1030" d="M14 770q1 16 12 25.5t23 9.5l36 -1q36 -1 95 -1q18 0 56 4t45 4q11 0 18 -10.5t4 -26.5l-31 -170q47 90 132.5 161t170.5 71q114 0 154.5 -82.5t15.5 -221.5l-67 -385q-17 -92 41 -92q48 0 85.5 66t59.5 184q1 17 12.5 28t26.5 11t21.5 -10.5t3.5 -28.5 q-10 -55 -27.5 -106.5t-46 -102.5t-73 -81.5t-99.5 -30.5q-66 0 -105.5 43t-25.5 123l78 444q15 84 -3.5 120t-76.5 36q-94 0 -192.5 -117.5t-125.5 -270.5l-63 -358q0 -10 -14 -10q-7 0 -21.5 3t-28.5 3q-15 0 -31.5 -3t-21.5 -3q-12 0 -12 10l131 735q-60 0 -96 -3l-37 -3 q-12 0 -19.5 10.5t-3.5 26.5zM301 940q13 78 57.5 129t94.5 51q30 0 66 -25t70.5 -50t61.5 -25q29 0 55 25t39 61q5 16 20 13q10 -4 9 -13q-15 -86 -57.5 -134t-100.5 -48q-34 0 -101 50t-93 50q-23 0 -51 -25t-41 -59q-6 -13 -21 -11q-9 1 -8 11z" />
<glyph unicode="&#xf2;" d="M37 401q33 191 154 313t264 122q142 0 219.5 -122t44.5 -313t-154 -313.5t-264 -122.5q-142 0 -219.5 122.5t-44.5 313.5zM177.5 115q31.5 -82 135.5 -82q103 0 164 84t96 284q34 203 4 286t-133 83q-104 0 -166 -84.5t-98 -284.5q-34 -204 -2.5 -286zM279 1126.5 q2 26.5 22 44.5q19 20 47 23t43 -14q8 -8 24.5 -40t51 -83t84.5 -101q8 -8 3.5 -18.5t-15 -14t-19.5 2.5q-50 50 -101 84t-84.5 50.5t-41.5 24.5q-16 15 -14 41.5z" />
<glyph unicode="&#xf3;" d="M37 401q33 191 154 313t264 122q142 0 219.5 -122t44.5 -313t-154 -313.5t-264 -122.5q-142 0 -219.5 122.5t-44.5 313.5zM177.5 115q31.5 -82 135.5 -82q103 0 164 84t96 284q34 203 4 286t-133 83q-104 0 -166 -84.5t-98 -284.5q-34 -204 -2.5 -286zM389 937.5 q0 9.5 10 18.5q54 39 99.5 80t68.5 67t43 48t29 29q22 17 48 14t38 -23q14 -19 6.5 -45t-29.5 -41q-11 -8 -49.5 -24.5t-101.5 -50.5t-131 -84q-11 -8 -21 -3t-10 14.5z" />
<glyph unicode="&#xf4;" d="M37 401q33 191 154 313t264 122q142 0 219.5 -122t44.5 -313t-154 -313.5t-264 -122.5q-142 0 -219.5 122.5t-44.5 313.5zM177.5 115q31.5 -82 135.5 -82q103 0 164 84t96 284q34 203 4 286t-133 83q-104 0 -166 -84.5t-98 -284.5q-34 -204 -2.5 -286zM275 929 q-7 10 4 19l225 207q22 19 34 19t27 -19l152 -207q5 -5 0 -12t-12.5 -10t-14.5 0l-174 125l-219 -125q-15 -7 -22 3z" />
<glyph unicode="&#xf5;" d="M37 401q33 191 154 313t264 122q142 0 219.5 -122t44.5 -313t-154 -313.5t-264 -122.5q-142 0 -219.5 122.5t-44.5 313.5zM177.5 115q31.5 -82 135.5 -82q103 0 164 84t96 284q34 203 4 286t-133 83q-104 0 -166 -84.5t-98 -284.5q-34 -204 -2.5 -286zM246 940 q13 78 57 129t94 51q30 0 66 -25t71 -50t62 -25q29 0 55 25t39 61q5 16 20 13q10 -4 9 -13q-15 -86 -57.5 -134t-100.5 -48q-34 0 -101 50t-93 50q-23 0 -51.5 -25t-41.5 -59q-6 -12 -20 -11q-9 0 -8 11z" />
<glyph unicode="&#xf6;" d="M37 401q33 191 154 313t264 122q142 0 219.5 -122t44.5 -313t-154 -313.5t-264 -122.5q-142 0 -219.5 122.5t-44.5 313.5zM177.5 115q31.5 -82 135.5 -82q103 0 164 84t96 284q34 203 4 286t-133 83q-104 0 -166 -84.5t-98 -284.5q-34 -204 -2.5 -286zM254 991 q6 31 31.5 52.5t54.5 21.5q31 0 48 -21.5t11 -52.5q-4 -29 -29.5 -50t-56.5 -21q-29 0 -46.5 21t-12.5 50zM559 991q8 31 33 52.5t55 21.5q29 0 46.5 -21.5t11.5 -52.5q-5 -29 -29 -50t-55 -21t-49 21t-13 50z" />
<glyph unicode="&#xf7;" horiz-adv-x="937" d="M74 510q3 21 16.5 34t28.5 13q8 0 27 -2t67.5 -4t126.5 -2h219q77 0 125.5 2t67.5 4t26 2q16 0 26 -13t7 -34q-4 -21 -17.5 -33t-29.5 -12q-8 0 -26 2t-66 4t-127 2h-219q-78 0 -127 -2t-68.5 -4t-26.5 -2q-15 0 -24.5 12.5t-5.5 32.5zM307 231q4 35 35 61.5t66 26.5 q36 0 57.5 -26t15.5 -62q-6 -37 -36.5 -63.5t-67.5 -26.5q-35 0 -56 26.5t-14 63.5zM406 793q6 36 36 62t66 26q35 0 57 -26.5t15 -61.5q-6 -37 -37 -64t-66 -27q-37 0 -58 27t-13 64z" />
<glyph unicode="&#xf8;" d="M8 -42.5q-2 18.5 8 28.5q4 8 12.5 18.5t25.5 30.5t34 41q-84 126 -51 325q33 191 154 313t264 122q92 0 163 -58q12 18 25.5 38.5t18.5 27.5q9 13 26 16.5t35 -4.5q15 -12 17 -29t-7 -30q-53 -62 -63 -74q85 -130 49 -322q-33 -191 -154 -313.5t-264 -122.5 q-95 0 -162 55q-16 -25 -31 -48.5t-20 -30.5q-12 -14 -28.5 -17.5t-32.5 8.5q-17 7 -19 25.5zM166 170q0 1 1 2t1 2l356 475q29 42 45 60q-35 61 -125 61q-104 0 -166 -84.5t-98 -284.5q-23 -143 -14 -231zM190 88q32 -55 123 -55q103 0 164 84t96 284q25 145 17 220 q0 -1 -1 -2.5t-2.5 -4t-2.5 -4.5l-359 -473q-22 -29 -35 -49z" />
<glyph unicode="&#xf9;" horiz-adv-x="1003" d="M14 770q1 16 12 25.5t23 9.5l36 -1q36 -1 95 -1q18 0 56 4t45 4q11 0 18 -10.5t4 -26.5l-100 -571q-14 -85 2 -120.5t71 -35.5q56 0 118.5 55.5t112.5 147.5t68 192l64 357q3 10 12 10q8 0 22 -3t29 -3q14 0 31 3t21 3q12 0 12 -10l-115 -652q-17 -92 41 -92 q47 0 85.5 67t58.5 183q3 17 14.5 28t26.5 11q31 0 24 -39q-11 -56 -28.5 -106.5t-46.5 -102t-73.5 -82t-99.5 -30.5q-64 0 -103.5 43t-25.5 123l8 51q-44 -88 -126.5 -160t-161.5 -72q-74 0 -115.5 40t-48 107t7.5 156l82 467q-60 0 -96 -3l-37 -3q-12 0 -19.5 10.5 t-3.5 26.5zM271 1126.5q2 26.5 22 44.5q19 20 47 23t43 -14q8 -8 24.5 -40t51 -83t84.5 -101q8 -8 3.5 -18.5t-15 -14t-19.5 2.5q-50 50 -101 84t-84.5 50.5t-41.5 24.5q-16 15 -14 41.5z" />
<glyph unicode="&#xfa;" horiz-adv-x="1003" d="M14 770q1 16 12 25.5t23 9.5l36 -1q36 -1 95 -1q18 0 56 4t45 4q11 0 18 -10.5t4 -26.5l-100 -571q-14 -85 2 -120.5t71 -35.5q56 0 118.5 55.5t112.5 147.5t68 192l64 357q3 10 12 10q8 0 22 -3t29 -3q14 0 31 3t21 3q12 0 12 -10l-115 -652q-17 -92 41 -92 q47 0 85.5 67t58.5 183q3 17 14.5 28t26.5 11q31 0 24 -39q-11 -56 -28.5 -106.5t-46.5 -102t-73.5 -82t-99.5 -30.5q-64 0 -103.5 43t-25.5 123l8 51q-44 -88 -126.5 -160t-161.5 -72q-74 0 -115.5 40t-48 107t7.5 156l82 467q-60 0 -96 -3l-37 -3q-12 0 -19.5 10.5 t-3.5 26.5zM412 937.5q0 9.5 10 18.5q54 39 99.5 80t68.5 67t43 48t29 29q22 17 48 14t38 -23q14 -19 6.5 -45t-29.5 -41q-11 -8 -49.5 -24.5t-102 -50.5t-131.5 -84q-11 -8 -20.5 -3t-9.5 14.5z" />
<glyph unicode="&#xfb;" horiz-adv-x="1003" d="M14 770q1 16 12 25.5t23 9.5l36 -1q36 -1 95 -1q18 0 56 4t45 4q11 0 18 -10.5t4 -26.5l-100 -571q-14 -85 2 -120.5t71 -35.5q56 0 118.5 55.5t112.5 147.5t68 192l64 357q3 10 12 10q8 0 22 -3t29 -3q14 0 31 3t21 3q12 0 12 -10l-115 -652q-17 -92 41 -92 q47 0 85.5 67t58.5 183q3 17 14.5 28t26.5 11q31 0 24 -39q-11 -56 -28.5 -106.5t-46.5 -102t-73.5 -82t-99.5 -30.5q-64 0 -103.5 43t-25.5 123l8 51q-44 -88 -126.5 -160t-161.5 -72q-74 0 -115.5 40t-48 107t7.5 156l82 467q-60 0 -96 -3l-37 -3q-12 0 -19.5 10.5 t-3.5 26.5zM256.5 935q-0.5 7 5.5 13l225 207q22 19 34.5 19t27.5 -19l151 -207q5 -5 0.5 -12t-12 -10t-14.5 0l-174 125l-219 -125q-9 -5 -16.5 -1.5t-8 10.5z" />
<glyph unicode="&#xfc;" horiz-adv-x="1003" d="M14 770q1 16 12 25.5t23 9.5l36 -1q36 -1 95 -1q18 0 56 4t45 4q11 0 18 -10.5t4 -26.5l-100 -571q-14 -85 2 -120.5t71 -35.5q56 0 118.5 55.5t112.5 147.5t68 192l64 357q3 10 12 10q8 0 22 -3t29 -3q14 0 31 3t21 3q12 0 12 -10l-115 -652q-17 -92 41 -92 q47 0 85.5 67t58.5 183q3 17 14.5 28t26.5 11q31 0 24 -39q-11 -56 -28.5 -106.5t-46.5 -102t-73.5 -82t-99.5 -30.5q-64 0 -103.5 43t-25.5 123l8 51q-44 -88 -126.5 -160t-161.5 -72q-74 0 -115.5 40t-48 107t7.5 156l82 467q-60 0 -96 -3l-37 -3q-12 0 -19.5 10.5 t-3.5 26.5zM268 991q6 31 31.5 52.5t54.5 21.5q31 0 48.5 -21.5t11.5 -52.5q-4 -29 -29.5 -50t-56.5 -21q-29 0 -47 21t-13 50zM573 991q8 31 33.5 52.5t55.5 21.5q29 0 46 -21.5t11 -52.5q-5 -29 -29 -50t-55 -21t-49 21t-13 50z" />
<glyph unicode="&#xfd;" d="M-201 -455q6 32 33 55t59 23q29 0 50 -25t12 -57q42 7 112.5 95t114.5 184l74 143v692q0 93 -57 93q-49 0 -87.5 -66.5t-58.5 -183.5q-3 -18 -13.5 -29.5t-25.5 -11.5q-30 0 -26 41q11 56 28.5 106.5t46 102t73 82t99.5 30.5q67 0 109.5 -40t42.5 -128v-432l213 418 q89 178 207 178q44 0 65.5 -28t16.5 -64q-8 -31 -34 -53.5t-58 -22.5q-27 0 -47 21.5t-17 46.5q-37 -15 -78 -90l-422 -834q-79 -154 -170 -246t-180 -92q-43 0 -65.5 28.5t-16.5 63.5zM443 954q0 10 10 19q69 51 121.5 101t80.5 82.5t37 39.5q22 17 48 14.5t38 -22.5 q14 -19 7 -45t-29 -41q-11 -8 -49.5 -24.5t-102 -51t-131.5 -84.5q-11 -8 -20.5 -3t-9.5 15z" />
<glyph unicode="&#xfe;" horiz-adv-x="886" d="M-213 -508q1 16 13 26.5t24 10.5l36 -1q36 -1 95 -1l305 1722q-60 0 -96 -2l-35 -2q-13 0 -21 9.5t-4 25.5q3 16 13.5 26.5t21.5 10.5q6 0 19 -1t41.5 -2t72.5 -1q17 0 54.5 4t44.5 4q11 0 18 -10t6 -25l-106 -598q50 71 112.5 109.5t126.5 38.5q133 0 196.5 -120.5 t29.5 -314.5t-140 -315t-239 -121q-65 0 -114.5 40t-72.5 110l-104 -588q59 0 95 1l36 1q12 0 19 -10t6 -27q-3 -15 -15 -25t-24 -10q-4 0 -19.5 2.5t-58 5.5t-113.5 3h-4q-71 0 -114.5 -3t-60.5 -5.5t-21 -2.5q-11 0 -18.5 10.5t-4.5 24.5zM238 401q-30 -172 12 -269 t135 -97q82 0 136.5 84.5t88.5 281.5q33 203 9.5 285t-107.5 82q-92 0 -167.5 -97t-106.5 -270z" />
<glyph unicode="&#xff;" d="M-201 -455q6 32 33 55t59 23q29 0 50 -25t12 -57q42 7 112.5 95t114.5 184l74 143v692q0 93 -57 93q-49 0 -87.5 -66.5t-58.5 -183.5q-3 -18 -13.5 -29.5t-25.5 -11.5q-30 0 -26 41q11 56 28.5 106.5t46 102t73 82t99.5 30.5q67 0 109.5 -40t42.5 -128v-432l213 418 q89 178 207 178q44 0 65.5 -28t16.5 -64q-8 -31 -34 -53.5t-58 -22.5q-27 0 -47 21.5t-17 46.5q-37 -15 -78 -90l-422 -834q-79 -154 -170 -246t-180 -92q-43 0 -65.5 28.5t-16.5 63.5zM324 997q6 31 31.5 52.5t54.5 21.5q31 0 48 -21.5t11 -52.5q-4 -29 -29.5 -50 t-56.5 -21q-29 0 -46.5 21t-12.5 50zM629 997q8 31 33 52.5t55 21.5q29 0 46 -21.5t11 -52.5q-5 -29 -29 -50t-55 -21q-30 0 -48 20.5t-13 50.5z" />
<glyph unicode="&#x131;" horiz-adv-x="546" d="M14 770q1 16 12 25.5t23 9.5l36 -1q36 -1 95 -1q18 0 56 4t45 4q11 0 18 -10.5t4 -26.5l-110 -627q-15 -92 40 -92q49 0 87.5 66.5t58.5 183.5q3 17 13.5 28t25.5 11q29 0 26 -39q-11 -56 -28.5 -106.5t-46 -102t-73 -82t-99.5 -30.5q-64 0 -103.5 43t-25.5 123l102 589 q-60 0 -96 -3l-37 -3q-12 0 -19.5 10.5t-3.5 26.5z" />
<glyph unicode="&#x152;" horiz-adv-x="1552" d="M77.5 387q-18.5 122 8.5 270q26 145 87 269.5t142.5 209.5t179.5 133t197 48q69 0 156.5 -3t128.5 -3q56 0 218.5 2t221.5 2q16 0 56.5 4t48.5 4q9 0 15 -10t5 -27l-12 -61q-6 -36 -14 -94t-13.5 -102t-7.5 -52q-8 -31 -35 -31q-13 0 -20 9.5t-4 21.5q46 262 -107 262 h-295l-90 -516h178q46 0 79 40.5t46 117.5q7 30 29 30q24 0 20 -30q-30 -136 -41 -195q-10 -59 -16 -104.5t-8.5 -64.5t-3.5 -25q-2 -12 -10 -21.5t-19 -9.5t-16 10t-2 21q13 76 -6 116.5t-64 40.5h-180l-101 -573h342q151 0 197 262q2 12 12 21.5t25 9.5q25 0 25 -31 q-1 -4 -12 -51t-23.5 -103.5t-18.5 -93.5l-10 -63q-3 -15 -13.5 -25t-21.5 -10q-6 0 -45 4t-55 4q-59 0 -244 2t-239 2q-20 0 -117 -4t-172 -4q-98 0 -179.5 47.5t-132.5 134.5t-69.5 209zM225 381.5q-1 -111.5 30.5 -179.5t84 -97t133.5 -29l211 4l203 1155q-78 4 -209 4 q-108 0 -186.5 -53.5t-140 -183.5t-99.5 -345q-26 -164 -27 -275.5z" />
<glyph unicode="&#x153;" horiz-adv-x="1288" d="M37 401q33 191 154 313t264 122q81 0 144 -43.5t97 -120.5q63 78 143.5 121t157.5 43q95 0 149 -53.5t40 -131.5q-11 -62 -47.5 -112.5t-85 -82.5t-111 -55.5t-117.5 -34.5t-112 -16q-20 -151 17.5 -232t131.5 -81q156 0 240 170q18 35 41 35q12 0 19 -8.5t7 -22.5 q0 -19 -12 -35q-37 -62 -78 -105t-84 -65.5t-83 -31.5t-87 -9q-75 0 -134.5 42.5t-92.5 117.5q-62 -75 -140 -117.5t-157 -42.5q-142 0 -219.5 122.5t-44.5 313.5zM177.5 115q31.5 -82 135.5 -82q103 0 164 84t96 284q34 203 4 286t-133 83q-104 0 -166 -84.5t-98 -284.5 q-34 -204 -2.5 -286zM723 414q78 7 146.5 31t124.5 76.5t69 125.5q9 55 -11.5 89t-64.5 34q-197 0 -264 -356z" />
<glyph unicode="&#x178;" horiz-adv-x="899" d="M18 1286q3 15 14 25t23 10q4 0 20 -2.5t60 -5t117 -2.5h10q73 0 118 2.5t62 5t21 2.5q11 0 19 -10.5t5 -24.5q-3 -17 -13.5 -27t-22.5 -10q-1 0 -36.5 1t-90.5 1l165 -563l365 563q-44 0 -75 -0.5t-46.5 -1t-21.5 -0.5q-13 0 -20.5 10t-4.5 27q3 15 14 25t23 10 q5 0 18.5 -2t51 -4.5t98.5 -3.5q61 1 99 3.5t52 4.5t19 2q13 0 21 -10.5t5 -24.5q-4 -17 -14.5 -27t-21.5 -10q-3 0 -38.5 1t-80.5 1l-408 -624l-98 -564q60 0 96 1l37 2q12 0 19.5 -10.5t3.5 -26.5q-1 -16 -12 -25.5t-23 -9.5q-4 0 -20 2.5t-60.5 5t-118.5 2.5h-8 q-74 0 -119 -2.5t-61.5 -5t-20.5 -2.5q-13 0 -21 9.5t-5 25.5q4 17 15 27t22 10l36 -2q37 -1 97 -1l88 515l-201 673q-56 0 -91 -1t-36 -1q-13 0 -20.5 10t-4.5 27zM406 1507q6 31 31.5 52.5t54.5 21.5q31 0 48 -21.5t11 -52.5q-4 -29 -29.5 -50t-56.5 -21q-29 0 -46.5 21 t-12.5 50zM711 1507q8 31 33 52.5t55 21.5q29 0 46 -21.5t11 -52.5q-5 -29 -29 -50t-55 -21q-30 0 -48 20.5t-13 50.5z" />
<glyph unicode="&#x192;" horiz-adv-x="538" d="M-283 -399q6 36 29 58t55 22q31 0 48.5 -21.5t11.5 -52.5q-5 -24 -22.5 -43.5t-43.5 -26.5q6 -14 24 -25.5t36 -11.5q37 0 61.5 15t47 64t38.5 138l178 1022q-48 0 -94 -2t-47 -2q-12 0 -19.5 9.5t-3.5 25.5q1 16 12 25.5t23 9.5q60 0 142 -2l24 137q20 117 45.5 197.5 t65.5 142t98 90.5t137 29q91 0 135.5 -45t34.5 -103q-6 -40 -32 -65t-60 -25q-33 0 -52 23.5t-14 56.5q4 26 24 47.5t48 30.5q-6 12 -31.5 21.5t-58.5 9.5q-61 0 -107.5 -39t-60.5 -123l-67 -385q88 2 157 2q13 0 20.5 -9t6.5 -26q-9 -35 -39 -35q-1 0 -54 2t-104 2 l-141 -807q-18 -102 -41.5 -181.5t-51 -130.5t-55 -85.5t-58.5 -51.5t-57 -23.5t-55 -6.5q-68 0 -105.5 46.5t-27.5 101.5z" />
<glyph unicode="&#x2c6;" horiz-adv-x="630" d="M268.5 935q-0.5 7 5.5 13l226 207q22 19 34 19t27 -19l152 -207q5 -5 0 -12t-12.5 -10t-14.5 0l-174 125l-219 -125q-9 -5 -16.5 -1.5t-8 10.5z" />
<glyph unicode="&#x2c7;" horiz-adv-x="626" d="M292.5 1162q4.5 7 12.5 9t17 -2l174 -122l217 122q8 5 15 1.5t8.5 -10t-3.5 -11.5l-225 -205q-20 -20 -33.5 -20t-28.5 20l-153 205q-5 6 -0.5 13z" />
<glyph unicode="&#x2d8;" horiz-adv-x="569" d="M334 1358h28q8 -39 39 -64.5t76 -25.5t86 25.5t60 64.5h28q-12 -75 -65 -121.5t-123 -46.5q-67 0 -104.5 46.5t-24.5 121.5z" />
<glyph unicode="&#x2d9;" horiz-adv-x="571" d="M377 1284q6 31 30.5 52.5t53.5 21.5q31 0 48.5 -21.5t12.5 -52.5q-5 -29 -30 -50.5t-56 -21.5q-30 0 -47 21t-12 51z" />
<glyph unicode="&#x2da;" horiz-adv-x="411" d="M252 1077q9 62 61.5 107t116.5 45q63 0 99.5 -45t25.5 -107q-12 -64 -64.5 -108.5t-115.5 -44.5t-99 44.5t-24 108.5zM317 1077q-6 -35 15 -60.5t55 -25.5q35 0 63.5 25t36.5 61q6 34 -15 58t-56 24q-34 0 -63.5 -24t-35.5 -58z" />
<glyph unicode="&#x2db;" horiz-adv-x="407" d="M90 27q12 68 82 112.5t133 22.5l14 -2l-14 -23h-12q-36 0 -70.5 -24t-38.5 -54q-5 -35 11 -59.5t53 -24.5q57 0 82 43l18 29l6 -37v-4q-15 -49 -58 -77.5t-97 -28.5q-55 0 -86.5 36.5t-22.5 90.5z" />
<glyph unicode="&#x2dc;" horiz-adv-x="552" d="M274 940q13 78 57.5 129t94.5 51q30 0 66 -25t71 -50t62 -25q29 0 55 25t39 61q5 16 20 13q10 -4 9 -13q-15 -86 -57.5 -134t-100.5 -48q-34 0 -101.5 50t-93.5 50q-23 0 -51 -25t-41 -59q-6 -13 -21 -11q-9 1 -8 11z" />
<glyph unicode="&#x2dd;" horiz-adv-x="606" d="M272 1180l203 161q28 23 46.5 33t39.5 10q26 0 37 -17t6 -38q-3 -18 -19 -32.5t-32 -20.5l-272 -109zM487 1180l203 161q28 23 46.5 33t39.5 10q26 0 37 -17t6 -38q-3 -18 -19 -32.5t-32 -20.5l-272 -109z" />
<glyph unicode="&#x3a9;" horiz-adv-x="1177" d="M25 27l10 63q21 123 33 248q2 13 12 22t26 9t23.5 -9t5.5 -22q-26 -123 -2 -192.5t109 -69.5h57l72 389q-122 54 -181 170.5t-34 253.5q32 184 190 321.5t361 137.5q135 0 232.5 -65.5t137.5 -169.5t19 -224q-25 -136 -125.5 -253t-237.5 -169l-69 -391h59q84 0 129 65.5 t68 196.5q2 12 12.5 21.5t25.5 9.5q16 0 23.5 -9t5.5 -22q-1 -6 -11.5 -51.5t-23.5 -102.5t-20 -94l-10 -63q-3 -14 -14.5 -24.5t-22.5 -10.5q-6 0 -47 4t-66 4l-131 4q-45 0 -55 10t-2 49l82 469q63 17 112.5 57t80 93.5t49 104.5t28.5 108q10 53 11 101t-10.5 99.5 t-38.5 89t-79.5 61.5t-126.5 24t-134.5 -24t-100.5 -61.5t-70.5 -89t-46 -99.5t-25.5 -101q-11 -50 -9 -107t13 -107t46.5 -91t91.5 -58l-82 -469q-7 -38 -21.5 -48.5t-58.5 -10.5q-70 -4 -131 -4q-26 0 -68 -4t-49 -4q-11 0 -18 10.5t-4 24.5z" />
<glyph unicode="&#x3c0;" horiz-adv-x="1161" d="M76 107q15 6 24 -5q12 -22 19.5 -34t21.5 -24.5t27 -12.5q45 0 70 98l141 535h-117q-127 0 -123 -127q1 -9 -8.5 -16t-20 -5.5t-12.5 10.5q-32 114 26.5 192.5t168.5 78.5h647q73 0 99.5 37t21.5 92q-1 19 19.5 23t25.5 -13q29 -112 -29 -192t-166 -80h-120l-93 -514 q-14 -101 27 -101q28 0 94 53q13 12 25 3q18 -15 -22 -55l-3 -3q-37 -37 -80 -59.5t-75 -22.5q-61 0 -87.5 45.5t-15.5 118.5l96 535h-198l-140 -535q-45 -164 -147 -164q-56 0 -94 82q-26 46 -2 60z" />
<glyph unicode="&#x401;" horiz-adv-x="1001" d="M-35 29q4 17 15.5 27t23.5 10l36 -2q36 -1 95 -1l209 1188q-60 0 -96 -1l-37 -1q-12 0 -19.5 10.5t-3.5 26.5q1 14 12.5 24.5t22.5 10.5q4 0 20 -2.5t60.5 -5t118.5 -2.5l446 4q16 0 57.5 4t47.5 4q11 0 17 -10t3 -27l-12 -61q-27 -191 -33 -248q-8 -31 -35 -31 q-13 0 -20.5 9.5t-5.5 21.5q24 125 -2 193.5t-103 68.5h-295l-92 -516h180q45 0 78.5 41t46.5 117q2 13 9.5 21.5t19.5 8.5t17 -9t2 -21q-19 -86 -39 -195q-19 -104 -29 -194q-9 -31 -29 -31q-24 0 -20 31q15 76 -4.5 116.5t-65.5 40.5h-178l-100 -573h340q76 0 126 68 t72 194q2 13 11.5 22t23.5 9q29 0 25 -31q-1 -6 -11.5 -51.5t-23 -102.5t-19.5 -94l-10 -63q-1 -14 -12 -24.5t-21 -10.5q-7 0 -46 4t-56 4l-489 4q-73 0 -118 -2.5t-62 -5t-21 -2.5q-13 0 -20.5 9t-6.5 26zM420 1516q6 34 33 57.5t59 23.5q35 0 55.5 -23.5t14.5 -57.5 q-8 -33 -36 -56.5t-61 -23.5t-52.5 24t-12.5 56zM760 1516q6 34 33 57.5t61 23.5q35 0 54.5 -23.5t13.5 -57.5q-8 -33 -35.5 -56.5t-59.5 -23.5q-34 0 -53.5 24t-13.5 56z" />
<glyph unicode="&#x402;" horiz-adv-x="1167" d="M76 29q3 17 13.5 27t23.5 10l36 -2q36 -1 95 -1l207 1176h-113q-76 0 -126.5 -68t-72.5 -194q-8 -31 -37 -31q-13 0 -19 9.5t-3 21.5q1 8 11 52t23 102t19 94l10 61q3 16 13.5 26.5t21.5 10.5q6 0 44 -4t54 -4l224 -4h71l285 4q16 0 56.5 4t48.5 4q9 0 15 -10t5 -27 l-12 -61q-6 -36 -14 -94t-13.5 -102t-7.5 -52q-4 -31 -33 -31q-15 0 -22.5 9.5t-4.5 21.5q46 262 -106 262h-174l-94 -532q76 23 124.5 32t118.5 9q68 0 126 -21.5t103.5 -63t70.5 -110.5t22 -158q-3 -90 -28 -164t-62.5 -122t-86 -81.5t-97.5 -48t-97 -14.5 q-101 0 -152.5 49.5t-39.5 110.5q6 40 32.5 65t61.5 25q32 0 50.5 -24t12.5 -58q-9 -51 -71 -70q6 -40 82 -40q106 0 174.5 88t77.5 274q6 136 -48.5 208.5t-160.5 72.5q-107 0 -226 -41l-102 -596q-6 -31 -35 -31q-10 0 -36 2t-38 2h-10q-62 0 -98.5 -2t-49.5 -4t-18 -2 q-11 0 -19 10.5t-5 24.5z" />
<glyph unicode="&#x403;" horiz-adv-x="890" d="M-35 29q4 17 15.5 27t23.5 10l36 -2q36 -1 95 -1l209 1188q-60 0 -96 -1l-37 -1q-12 0 -19.5 10.5t-3.5 26.5q1 14 12.5 24.5t22.5 10.5q4 0 20 -2.5t60.5 -5t118.5 -2.5q50 0 204.5 2t221.5 2q16 0 57 4t47 4q11 0 17.5 -10t3.5 -27l-12 -61q-27 -191 -33 -248 q-8 -31 -35 -31q-13 0 -21 9.5t-6 21.5q24 126 -1.5 194t-102.5 68h-275l-206 -1176q59 0 95 1l36 2q11 0 19 -10.5t5 -26.5t-13.5 -25.5t-23.5 -9.5q-4 0 -19.5 2.5t-60 5t-118.5 2.5h-8q-73 0 -118 -2.5t-62 -5t-21 -2.5q-13 0 -20.5 9t-6.5 26zM529.5 1448 q0.5 10 11.5 20q68 50 120 100.5t80 82.5t37 39q22 18 48 15t40 -22q13 -21 5.5 -47t-29.5 -41q-10 -7 -49.5 -23t-101.5 -49.5t-130 -84.5q-12 -8 -22 -4t-9.5 14z" />
<glyph unicode="&#x404;" horiz-adv-x="1032" d="M73 374.5q-17 127.5 11 282.5q27 152 89.5 282t144.5 219t180 139.5t196 50.5t156.5 -33.5t105.5 -95.5q44 8 58 77q0 1 1 4.5t1.5 5l1.5 4.5t2.5 4.5t3 4t4 3.5t5 2.5t6.5 2t8 0.5q27 0 22 -31l-74 -415q-2 -11 -5 -17t-9.5 -11t-17.5 -5q-28 0 -23 33q29 166 -42 276.5 t-202 110.5q-79 0 -142 -28t-119 -92.5t-100 -177t-77 -274.5q70 95 145 95q29 0 70 -17.5t75 -38t72.5 -38t63.5 -17.5q19 0 35.5 13.5t25 29.5t18.5 29.5t19 13.5q8 0 13 -7t4 -16q-7 -52 -63 -117t-120 -65q-31 0 -68.5 16.5t-67 36t-68 36t-70.5 16.5q-58 0 -102 -86 q-17 -108 -17 -199q0 -334 258 -334q132 0 242 110.5t139 276.5q5 33 33 33t23 -33l-74 -418q-6 -30 -33 -30q-28 0 -23 32q5 27 0 53t-18 35q-76 -71 -145.5 -106t-173.5 -35q-98 0 -179 50t-131.5 141t-67.5 218.5z" />
<glyph unicode="&#x405;" horiz-adv-x="905" d="M-27 281q0 62 37 103.5t90 41.5q34 0 58 -23t24 -57q0 -40 -34.5 -71t-79.5 -31q34 -98 110.5 -147.5t181.5 -49.5q115 0 203 70.5t88 185.5q0 175 -239 307q-244 134 -244 367q0 90 38 163.5t97.5 117t126 67t129.5 23.5q134 0 215.5 -68t81.5 -168q0 -60 -37 -96.5 t-84 -36.5q-36 0 -57 24.5t-21 49.5q0 37 29.5 67.5t77.5 36.5q-16 53 -70 87t-137 34q-123 0 -195.5 -73t-72.5 -173q0 -93 52 -157t146 -111q60 -32 107.5 -67t93.5 -84t71 -114.5t25 -140.5q0 -120 -62 -211.5t-158 -136.5t-208 -45q-86 0 -160.5 29.5t-122 76t-74 101.5 t-26.5 109z" />
<glyph unicode="&#x406;" horiz-adv-x="630" d="M-35 29q4 17 15.5 27t23.5 10l36 -2q36 -1 95 -1l209 1188q-60 0 -96 -1l-37 -1q-12 0 -19.5 10.5t-3.5 26.5q1 14 12.5 24.5t22.5 10.5q4 0 20 -2.5t60.5 -5t118.5 -2.5h8q74 0 119 2.5t61.5 5t20.5 2.5q13 0 21 -10.5t5 -24.5q-4 -17 -14.5 -27t-21.5 -10l-37 1 q-37 1 -97 1l-206 -1188q59 0 95 1l36 2q11 0 19 -10.5t5 -26.5t-13.5 -25.5t-23.5 -9.5q-4 0 -19.5 2.5t-60 5t-118.5 2.5h-8q-73 0 -118 -2.5t-62 -5t-21 -2.5q-13 0 -20.5 9t-6.5 26z" />
<glyph unicode="&#x407;" horiz-adv-x="630" d="M-35 29q4 17 15.5 27t23.5 10l36 -2q36 -1 95 -1l209 1188q-60 0 -96 -1l-37 -1q-12 0 -19.5 10.5t-3.5 26.5q1 14 12.5 24.5t22.5 10.5q4 0 20 -2.5t60.5 -5t118.5 -2.5h8q74 0 119 2.5t61.5 5t20.5 2.5q13 0 21 -10.5t5 -24.5q-4 -17 -14.5 -27t-21.5 -10l-37 1 q-37 1 -97 1l-206 -1188q59 0 95 1l36 2q11 0 19 -10.5t5 -26.5t-13.5 -25.5t-23.5 -9.5q-4 0 -19.5 2.5t-60 5t-118.5 2.5h-8q-73 0 -118 -2.5t-62 -5t-21 -2.5q-13 0 -20.5 9t-6.5 26zM264 1507q6 31 31.5 52.5t54.5 21.5q31 0 48.5 -21.5t11.5 -52.5q-4 -29 -29.5 -50 t-56.5 -21q-29 0 -47 21t-13 50zM569 1507q8 31 33 52.5t55 21.5q29 0 46.5 -21.5t11.5 -52.5q-5 -29 -29 -50t-55 -21t-49 21t-13 50z" />
<glyph unicode="&#x408;" horiz-adv-x="608" d="M-152 -158q6 40 33 65t62 25q32 0 50.5 -24t12.5 -58q-5 -25 -24 -46.5t-48 -30.5q7 -41 48 -41q95 0 116 131l246 1388q-60 0 -96 -1l-37 -1q-12 0 -19.5 10.5t-3.5 26.5q1 14 12.5 24.5t22.5 10.5q4 0 20 -2.5t60.5 -5t118.5 -2.5h8q74 0 119 2.5t61.5 5t20.5 2.5 q13 0 21 -10.5t5 -24.5q-4 -17 -14.5 -27t-21.5 -10l-37 1q-37 1 -97 1l-221 -1259q-25 -143 -98 -226t-184 -83q-71 0 -109 50t-27 109z" />
<glyph unicode="&#x409;" horiz-adv-x="1429" d="M-102 96q0 40 25.5 68.5t64.5 28.5q37 0 58.5 -23t21.5 -61t-27 -68q13 -10 37 -10q90 0 157.5 159.5t137.5 487.5l123 573q-60 0 -97 -1l-37 -1q-12 0 -19 10.5t-3 26.5q1 14 12.5 24.5t22.5 10.5q4 0 19.5 -2.5t60 -5t118.5 -2.5h347q73 0 118 2.5t61.5 5t20.5 2.5 q11 0 19.5 -10.5t5.5 -24.5q-3 -17 -13.5 -27t-23.5 -10l-36 1q-36 1 -95 1l-86 -485q16 0 55.5 1t69.5 1q195 0 282 -103t56 -280q-30 -176 -154.5 -280.5t-320.5 -104.5h-199q-74 0 -119 -1.5t-61.5 -3t-20.5 -1.5q-12 0 -19.5 9.5t-4.5 25.5t14.5 26.5t22.5 10.5l36 -2 q36 -1 95 -1l204 1174h-258l-125 -563q-29 -131 -45.5 -200.5t-45 -168t-54 -149.5t-62 -104.5t-81 -75t-99.5 -21.5q-71 0 -115 37.5t-44 103.5zM768 74h125q137 0 203.5 68.5t97.5 242.5q31 172 -12 239.5t-181 67.5h-124z" />
<glyph unicode="&#x40a;" horiz-adv-x="1550" d="M-35 29q4 17 15.5 27t23.5 10l36 -2q36 -1 95 -1l209 1188q-60 0 -96 -1l-37 -1q-12 0 -19.5 10.5t-3.5 26.5q1 14 12.5 24.5t22.5 10.5q4 0 20 -2.5t60.5 -5t118.5 -2.5h8q74 0 119 2.5t61.5 5t20.5 2.5q13 0 21 -10.5t5 -24.5q-4 -17 -14.5 -27t-21.5 -10l-37 1 q-37 1 -97 1l-88 -506h463l90 506q-59 0 -95 -1l-36 -1q-13 0 -20 10t-4 27q3 15 14 25t23 10q4 0 19.5 -2.5t59.5 -5t117 -2.5h10q73 0 118 2.5t62 5t21 2.5q11 0 19.5 -10.5t5.5 -24.5q-3 -17 -13.5 -27t-23.5 -10l-36 1q-36 1 -95 1l-92 -510q18 0 58 1t69 1 q194 0 283.5 -101t58.5 -269q-32 -168 -157 -270.5t-319 -102.5h-221q-64 -1 -104 -2.5t-54.5 -2.5t-19.5 -1q-12 0 -20 9.5t-5 25.5t14.5 26.5t22.5 10.5l36 -2q36 -1 95 -1l107 609h-463l-106 -609q59 0 95 1l36 2q11 0 19 -10.5t5 -26.5t-13.5 -25.5t-23.5 -9.5 q-4 0 -19.5 2.5t-60 5t-118.5 2.5h-8q-73 0 -118 -2.5t-62 -5t-21 -2.5q-13 0 -20.5 9t-6.5 26zM889 74h125q133 0 201.5 69t99.5 230q29 153 -17 224t-180 71h-125z" />
<glyph unicode="&#x40b;" horiz-adv-x="1212" d="M76 29q3 17 13.5 27t23.5 10l36 -2q36 -1 95 -1l207 1176h-113q-76 0 -126.5 -68t-72.5 -194q-8 -31 -37 -31q-13 0 -19 9.5t-3 21.5q1 8 11 52t23 102t19 94l10 61q3 16 13.5 26.5t21.5 10.5q6 0 44 -4t54 -4l224 -4h71l285 4q16 0 56.5 4t48.5 4q9 0 15 -10t5 -27 l-12 -61q-6 -36 -14 -94t-13.5 -102t-7.5 -52q-4 -31 -33 -31q-15 0 -22.5 9.5t-4.5 21.5q11 72 11 106q0 156 -117 156h-174l-92 -532q122 41 233 41q45 0 86.5 -8t81.5 -27t69.5 -47.5t47.5 -72.5t18 -99q0 -96 -33.5 -236.5t-33.5 -169.5q0 -47 43 -47q51 0 63 68 q3 16 14 27t25 11q12 0 21 -11.5t6 -24.5q-10 -58 -54.5 -94.5t-97.5 -36.5q-143 0 -143 161q0 47 23.5 161.5t23.5 197.5q0 86 -54.5 130t-138.5 44q-96 0 -213 -41l-100 -570q59 0 95 1l36 2q13 0 20.5 -10t4.5 -27q-3 -15 -14 -25t-23 -10q-4 0 -20 2.5t-60 5t-117 2.5 h-10q-73 0 -118 -2.5t-62 -5t-21 -2.5q-11 0 -19 10.5t-5 24.5z" />
<glyph unicode="&#x40c;" horiz-adv-x="1087" d="M-35 29q4 17 15.5 27t23.5 10l36 -2q36 -1 95 -1l209 1188q-60 0 -96 -1l-37 -1q-12 0 -19.5 10.5t-3.5 26.5q1 14 12.5 24.5t22.5 10.5q4 0 20 -2.5t60.5 -5t118.5 -2.5h8q74 0 119 2.5t61.5 5t20.5 2.5q13 0 21 -10.5t5 -24.5q-4 -17 -14.5 -27t-21.5 -10l-37 1 q-37 1 -97 1l-88 -508h70q57 0 100 32.5t70 84.5t49.5 114.5t46 125t53 114.5t77.5 84.5t112 32.5q71 0 105 -38.5t34 -92.5q0 -43 -25.5 -70.5t-60.5 -27.5q-33 0 -55.5 21t-22.5 53q0 55 52 77q-14 17 -39 17q-44 0 -80.5 -38.5t-60 -96t-50 -126.5t-49.5 -129t-59.5 -104 t-79.5 -51q64 -7 114 -34.5t77.5 -67t45.5 -87t18 -94t-5 -88.5q-11 -67 -29.5 -147t-20.5 -90q-7 -35 5 -55.5t36 -20.5q52 0 64 68q3 16 14 27t25 11q12 0 20.5 -11.5t5.5 -24.5q-10 -58 -54 -94.5t-97 -36.5q-105 0 -132 89.5t9 284.5q59 316 -172 316h-125l-104 -607 q59 0 95 1l36 2q11 0 19 -10.5t5 -26.5t-13.5 -25.5t-23.5 -9.5q-4 0 -19.5 2.5t-60 5t-118.5 2.5h-8q-73 0 -118 -2.5t-62 -5t-21 -2.5q-13 0 -20.5 9t-6.5 26zM591 1448q0 10 11 20q68 50 120.5 100.5t80.5 82.5t37 39q22 18 48 15t40 -22q13 -21 5 -47t-30 -41 q-10 -7 -49 -23t-101 -49.5t-130 -84.5q-12 -8 -22 -4t-10 14z" />
<glyph unicode="&#x40e;" horiz-adv-x="1087" d="M104 129q0 47 29 84t72 37q35 0 58.5 -21.5t23.5 -56.5q0 -53 -56 -90q20 -47 82 -47q138 0 260 307l-305 909q-56 0 -91 -1t-36 -1q-13 0 -20 10t-4 27q3 15 14 25t23 10q4 0 19.5 -2.5t59.5 -5t117 -2.5h10q73 0 118 2.5t62 5t21 2.5q11 0 19.5 -10.5t5.5 -24.5 q-3 -17 -13.5 -27t-23.5 -10q-1 0 -36.5 1t-90.5 1l240 -739l311 739q-60 0 -102 -1l-42 -1q-13 0 -20 10t-4 27q3 15 14 25t23 10q5 0 18.5 -2t51 -4.5t98.5 -3.5q61 1 99 3.5t52 4.5t19 2q12 0 20.5 -10.5t5.5 -24.5q-4 -17 -15 -27t-22 -10q-3 0 -38 1t-80 1l-174 -417 q-46 -110 -77 -184t-67.5 -157.5t-62 -136t-55.5 -110.5t-53 -92.5t-50 -70.5t-50.5 -55t-51.5 -35t-55.5 -22t-59.5 -6q-79 0 -135 45.5t-56 118.5zM485 1581q0 39 22 66.5t60 27.5q35 0 53.5 -18t18.5 -49q0 -40 -39 -76q29 -39 111 -39q70 0 123 40.5t79 104.5 q11 29 29 29q27 0 27 -27q0 -16 -9.5 -40t-32 -53t-53 -53.5t-78 -41t-102.5 -16.5q-89 0 -149 38t-60 107z" />
<glyph unicode="&#x40f;" horiz-adv-x="1245" d="M-35 29q4 17 15.5 27t23.5 10l36 -2q36 -1 95 -1l209 1188q-60 0 -96 -1l-37 -1q-12 0 -19.5 10.5t-3.5 26.5q1 14 12.5 24.5t22.5 10.5q4 0 20 -2.5t60.5 -5t118.5 -2.5h8q74 0 119 2.5t61.5 5t20.5 2.5q13 0 21 -10.5t5 -24.5q-4 -17 -14.5 -27t-21.5 -10l-37 1 q-37 1 -97 1l-208 -1177h469l208 1177q-59 0 -95 -1l-36 -1q-13 0 -20 10t-4 27q3 15 14 25t23 10q4 0 19.5 -2.5t59.5 -5t117 -2.5h10q73 0 118 2.5t62 5t21 2.5q11 0 19.5 -10.5t5.5 -24.5q-3 -17 -13.5 -27t-23.5 -10l-36 1q-36 1 -95 1l-209 -1188q45 0 73.5 0.5t41 1.5 t18.5 1q13 0 21 -10.5t4 -26.5q-3 -16 -13.5 -25.5t-21.5 -9.5q-5 0 -18.5 1t-50.5 2.5t-95 2.5h-320q-14 -110 -6.5 -207.5t6.5 -103.5q-6 -36 -35.5 -62t-64.5 -26t-57.5 26.5t-16.5 61.5q2 16 21 55.5t45.5 107.5t44.5 148h-276q-73 0 -118 -1.5t-62 -3t-21 -1.5 q-13 0 -20.5 9t-6.5 26z" />
<glyph unicode="&#x410;" horiz-adv-x="1058" d="M-213 29q3 16 14.5 26.5t22.5 10.5l36 -2q36 -1 93 -1l786 1262q18 27 47 27q14 0 22.5 -10.5t8.5 -28.5v-1250q44 0 72 0.5t40.5 1.5t18.5 1q13 0 21 -10.5t4 -26.5q-3 -16 -13.5 -25.5t-21.5 -9.5q-4 0 -20 2.5t-60.5 5t-118.5 2.5h-8q-74 0 -119.5 -2.5t-62.5 -5 t-21 -2.5q-12 0 -19.5 9.5t-4.5 25.5t14.5 26.5t22.5 10.5l36 -2q36 -1 95 -1v351h-418l-217 -351q56 0 91 1.5t36 1.5q13 0 20 -10t4 -27t-13 -26t-23 -9q-5 0 -18.5 2t-51 4.5t-98.5 3.5q-61 -1 -99.5 -3.5t-53 -4.5t-19.5 -2q-12 0 -20 9.5t-5 25.5zM301 487h371v596z " />
<glyph unicode="&#x411;" horiz-adv-x="970" d="M-35 29q4 17 15.5 27t23.5 10l36 -2q36 -1 95 -1l209 1188q-60 0 -96 -1l-37 -1q-12 0 -19.5 10.5t-3.5 26.5q1 14 12.5 24.5t22.5 10.5q4 0 20 -2.5t60.5 -5t118.5 -2.5q50 0 178 2t195 2q16 0 57 4t47 4q11 0 17.5 -10t3.5 -27l-13 -61q-24 -168 -30 -228 q-7 -30 -35 -30q-13 0 -21 9t-6 21q23 123 -2.5 182.5t-103.5 59.5h-224l-84 -473q17 0 57 1t70 1q195 0 282 -103t56 -280q-30 -176 -154.5 -280.5t-320.5 -104.5h-246q-54 -1 -88 -2.5t-47 -2.5t-18 -1q-13 0 -20.5 9t-6.5 26zM281 74h125q137 0 203.5 68.5t97.5 242.5 q31 172 -12 239.5t-181 67.5h-127z" />
<glyph unicode="&#x412;" horiz-adv-x="1032" d="M-35 29q4 17 15.5 27t23.5 10l36 -2q36 -1 95 -1l209 1188q-60 0 -96 -1l-37 -1q-12 0 -19.5 10.5t-3.5 26.5q1 14 12.5 24.5t22.5 10.5q4 0 20 -2.5t60.5 -5t118.5 -2.5q29 0 93 2t95 2q190 0 276 -88.5t60 -227.5q-19 -103 -96 -182.5t-168 -107.5q118 -25 183 -123 t42 -230q-30 -167 -148.5 -263.5t-312.5 -96.5q-51 0 -127 4t-126 4q-73 0 -118 -2.5t-62 -5t-21 -2.5q-13 0 -20.5 9t-6.5 26zM283 76h170q136 0 201.5 62t93.5 218q24 136 -30 214.5t-179 78.5h-156zM395 723h80q131 0 206 60t103 216q23 131 -22 185.5t-182 54.5h-93z " />
<glyph unicode="&#x413;" horiz-adv-x="890" d="M-35 29q4 17 15.5 27t23.5 10l36 -2q36 -1 95 -1l209 1188q-60 0 -96 -1l-37 -1q-12 0 -19.5 10.5t-3.5 26.5q1 14 12.5 24.5t22.5 10.5q4 0 20 -2.5t60.5 -5t118.5 -2.5q50 0 204.5 2t221.5 2q16 0 57 4t47 4q11 0 17.5 -10t3.5 -27l-12 -61q-27 -191 -33 -248 q-8 -31 -35 -31q-13 0 -21 9.5t-6 21.5q24 126 -1.5 194t-102.5 68h-275l-206 -1176q59 0 95 1l36 2q11 0 19 -10.5t5 -26.5t-13.5 -25.5t-23.5 -9.5q-4 0 -19.5 2.5t-60 5t-118.5 2.5h-8q-73 0 -118 -2.5t-62 -5t-21 -2.5q-13 0 -20.5 9t-6.5 26z" />
<glyph unicode="&#x414;" horiz-adv-x="1150" d="M-162 -324q1 3 14 68t28 138t22 110l10 59q1 14 12 24.5t21 10.5q8 0 28.5 -1.5t46.5 -3.5t37 -3q128 122 222.5 394.5t207.5 778.5q-60 0 -97 -1l-36 -1q-12 0 -19 10.5t-3 26.5q1 14 12.5 24.5t22.5 10.5q4 0 19.5 -2.5t60 -5t118.5 -2.5h369q73 0 118 2.5t62 5t21 2.5 q11 0 19 -10.5t5 -24.5q-3 -17 -13.5 -27t-23.5 -10l-36 1q-36 1 -95 1l-207 -1177l86 2q15 0 53.5 1t51.5 1q22 0 16 -37l-12 -55q-45 -239 -53 -314q-3 -12 -13.5 -19.5t-25.5 -6.5q-27 0 -23 30q15 85 11 157t-39.5 119.5t-94.5 47.5h-635q-73 0 -128.5 -95t-79.5 -229 q-2 -13 -11.5 -21.5t-23.5 -8.5q-29 0 -25 30zM162 74h477l203 1163h-279q-110 -486 -197 -755t-204 -408z" />
<glyph unicode="&#x415;" horiz-adv-x="1001" d="M-35 29q4 17 15.5 27t23.5 10l36 -2q36 -1 95 -1l209 1188q-60 0 -96 -1l-37 -1q-12 0 -19.5 10.5t-3.5 26.5q1 14 12.5 24.5t22.5 10.5q4 0 20 -2.5t60.5 -5t118.5 -2.5l446 4q16 0 57.5 4t47.5 4q11 0 17 -10t3 -27l-12 -61q-27 -191 -33 -248q-8 -31 -35 -31 q-13 0 -20.5 9.5t-5.5 21.5q24 125 -2 193.5t-103 68.5h-295l-92 -516h180q45 0 78.5 41t46.5 117q2 13 9.5 21.5t19.5 8.5t17 -9t2 -21q-19 -86 -39 -195q-19 -104 -29 -194q-9 -31 -29 -31q-24 0 -20 31q15 76 -4.5 116.5t-65.5 40.5h-178l-100 -573h340q76 0 126 68 t72 194q2 13 11.5 22t23.5 9q29 0 25 -31q-1 -6 -11.5 -51.5t-23 -102.5t-19.5 -94l-10 -63q-1 -14 -12 -24.5t-21 -10.5q-7 0 -46 4t-56 4l-489 4q-73 0 -118 -2.5t-62 -5t-21 -2.5q-13 0 -20.5 9t-6.5 26z" />
<glyph unicode="&#x416;" horiz-adv-x="1550" d="M-59 111q3 13 16 24.5t25 11.5q14 0 20.5 -11t3.5 -27q-12 -68 39 -68q24 0 44 20.5t26 55.5q2 16 6.5 56t11.5 85.5t17 95.5q10 55 36.5 112.5t70 114t112.5 96.5t151 48q-52 12 -75.5 73t-25.5 138t-3.5 153t-20.5 127.5t-65 51.5q-40 0 -62 -25q33 -24 33 -61 q0 -35 -21 -58.5t-55 -23.5q-30 0 -51.5 20.5t-21.5 59.5q0 59 47 104t127 45q61 0 96 -32.5t46 -84t13.5 -114l5 -125t12.5 -114t43.5 -84t92.5 -32.5h76l90 508q-60 0 -97 -1l-36 -1q-12 0 -19.5 10.5t-3.5 26.5q1 14 12.5 24.5t22.5 10.5q4 0 20 -2.5t60.5 -5t118.5 -2.5 h8q58 0 99 1.5t57 3.5t27.5 3.5t16.5 1.5q13 0 21.5 -10.5t5.5 -24.5q-4 -17 -15 -27t-22 -10l-37 1q-36 1 -96 1l-88 -508h66q57 0 100 32.5t70 84t49.5 114t46 125t53 114t77.5 84t112 32.5q71 0 105 -38.5t34 -92.5q0 -43 -25.5 -70.5t-60.5 -27.5q-33 0 -55.5 21 t-22.5 53q0 55 51 77q-14 17 -39 17q-38 0 -70 -28.5t-55 -74t-44 -101t-42 -112.5t-44 -105.5t-54.5 -82t-69.5 -39.5q53 -6 96 -26.5t71 -50t48.5 -67t28 -76.5t10 -78t-5.5 -73q-11 -67 -29 -148t-20 -89q-7 -35 5 -55.5t36 -20.5q51 0 63 68q3 16 14 27t25 11 q12 0 21 -11.5t6 -24.5q-10 -58 -54.5 -94.5t-97.5 -36.5q-105 0 -131.5 89.5t9.5 284.5q59 316 -172 316h-119l-105 -607q59 0 95 1l36 2q12 0 20 -10.5t5 -26.5t-13.5 -25.5t-23.5 -9.5q-4 0 -20 2.5t-60.5 5t-118.5 2.5h-8q-73 0 -118 -2.5t-61.5 -5t-20.5 -2.5 q-13 0 -20.5 9t-6.5 26q4 17 15.5 27t23.5 10l36 -2q36 -1 95 -1l106 607h-131q-64 0 -111 -23t-76.5 -69t-46.5 -98t-30 -126q-36 -200 -93.5 -287t-162.5 -87q-53 0 -84 36.5t-22 94.5z" />
<glyph unicode="&#x417;" horiz-adv-x="888" d="M16 197q0 54 29 86t72 32q34 0 55 -21t21 -56q0 -39 -23 -62t-57 -26q16 -40 67 -74.5t137 -34.5q131 0 215 111.5t84 289.5q0 116 -61 175t-145 59q-35 0 -61.5 -3t-33.5 -3q-15 0 -25 12.5t-7 30.5q3 20 17 29.5t30 9.5q8 0 33 -3.5t59 -3.5q72 0 130 53.5t87 130 t29 154.5q0 81 -41.5 131t-114.5 50q-95 0 -172.5 -74t-95.5 -164q-5 -33 -33 -33t-23 33l48 270q6 31 32 31q28 0 23 -33q-8 -45 10 -63q51 53 110 85t146 32q127 0 197.5 -68.5t70.5 -187.5q0 -122 -78 -232.5t-188 -144.5q93 -29 154 -107t61 -184q0 -131 -64.5 -237.5 t-168.5 -164t-224 -57.5q-133 0 -217 70t-84 162z" />
<glyph unicode="&#x418;" horiz-adv-x="1271" d="M-35 29q4 17 15.5 27t23.5 10l36 -2q36 -1 95 -1l209 1188q-60 0 -96 -1l-37 -1q-12 0 -19.5 10.5t-3.5 26.5q1 14 12.5 24.5t22.5 10.5q4 0 20 -2.5t60.5 -5t118.5 -2.5h8q74 0 119 2.5t61.5 5t20.5 2.5q13 0 21 -10.5t5 -24.5q-4 -17 -14.5 -27t-21.5 -10l-37 1 q-37 1 -97 1l-159 -917l637 803l18 114q-59 0 -95 -1l-36 -1q-13 0 -20.5 10t-4.5 27q3 15 14 25t23 10q4 0 20 -2.5t60 -5t117 -2.5h10q73 0 118 2.5t62 5t21 2.5q11 0 19 -10.5t5 -24.5q-3 -17 -13.5 -27t-22.5 -10l-36 1q-37 1 -96 1l-208 -1188q60 0 96 1l35 2 q13 0 20.5 -10.5t3.5 -26.5q-3 -16 -13.5 -25.5t-21.5 -9.5q-4 0 -19.5 2.5t-60 5t-118.5 2.5h-8q-74 0 -119.5 -2.5t-62.5 -5t-21 -2.5q-12 0 -20 9.5t-5 25.5t14.5 26.5t22.5 10.5l36 -2q36 -1 95 -1l164 920l-639 -803l-18 -117q59 0 95 1l36 2q11 0 19 -10.5t5 -26.5 t-13.5 -25.5t-23.5 -9.5q-4 0 -19.5 2.5t-60 5t-118.5 2.5h-8q-73 0 -118 -2.5t-62 -5t-21 -2.5q-13 0 -20.5 9t-6.5 26z" />
<glyph unicode="&#x419;" horiz-adv-x="1271" d="M-35 29q4 17 15.5 27t23.5 10l36 -2q36 -1 95 -1l209 1188q-60 0 -96 -1l-37 -1q-12 0 -19.5 10.5t-3.5 26.5q1 14 12.5 24.5t22.5 10.5q4 0 20 -2.5t60.5 -5t118.5 -2.5h8q74 0 119 2.5t61.5 5t20.5 2.5q13 0 21 -10.5t5 -24.5q-4 -17 -14.5 -27t-21.5 -10l-37 1 q-37 1 -97 1l-159 -917l637 803l18 114q-59 0 -95 -1l-36 -1q-13 0 -20.5 10t-4.5 27q3 15 14 25t23 10q4 0 20 -2.5t60 -5t117 -2.5h10q73 0 118 2.5t62 5t21 2.5q11 0 19 -10.5t5 -24.5q-3 -17 -13.5 -27t-22.5 -10l-36 1q-37 1 -96 1l-208 -1188q60 0 96 1l35 2 q13 0 20.5 -10.5t3.5 -26.5q-3 -16 -13.5 -25.5t-21.5 -9.5q-4 0 -19.5 2.5t-60 5t-118.5 2.5h-8q-74 0 -119.5 -2.5t-62.5 -5t-21 -2.5q-12 0 -20 9.5t-5 25.5t14.5 26.5t22.5 10.5l36 -2q36 -1 95 -1l164 920l-639 -803l-18 -117q59 0 95 1l36 2q11 0 19 -10.5t5 -26.5 t-13.5 -25.5t-23.5 -9.5q-4 0 -19.5 2.5t-60 5t-118.5 2.5h-8q-73 0 -118 -2.5t-62 -5t-21 -2.5q-13 0 -20.5 9t-6.5 26zM532 1581q0 39 22 66.5t60 27.5q35 0 53.5 -18t18.5 -49q0 -40 -39 -76q29 -39 111 -39q70 0 123.5 40.5t79.5 104.5q11 29 28 29q27 0 27 -27 q0 -16 -9.5 -40t-32 -53t-53 -53.5t-78 -41t-102.5 -16.5q-89 0 -149 38t-60 107z" />
<glyph unicode="&#x41a;" horiz-adv-x="1087" d="M-35 29q4 17 15.5 27t23.5 10l36 -2q36 -1 95 -1l209 1188q-60 0 -96 -1l-37 -1q-12 0 -19.5 10.5t-3.5 26.5q1 14 12.5 24.5t22.5 10.5q4 0 20 -2.5t60.5 -5t118.5 -2.5h8q74 0 119 2.5t61.5 5t20.5 2.5q13 0 21 -10.5t5 -24.5q-4 -17 -14.5 -27t-21.5 -10l-37 1 q-37 1 -97 1l-88 -508h70q57 0 100 32.5t70 84.5t49.5 114.5t46 125t53 114.5t77.5 84.5t112 32.5q71 0 105 -38.5t34 -92.5q0 -43 -25.5 -70.5t-60.5 -27.5q-33 0 -55.5 21t-22.5 53q0 55 52 77q-14 17 -39 17q-44 0 -80.5 -38.5t-60 -96t-50 -126.5t-49.5 -129t-59.5 -104 t-79.5 -51q64 -7 114 -34.5t77.5 -67t45.5 -87t18 -94t-5 -88.5q-11 -67 -29.5 -147t-20.5 -90q-7 -35 5 -55.5t36 -20.5q52 0 64 68q3 16 14 27t25 11q12 0 20.5 -11.5t5.5 -24.5q-10 -58 -54 -94.5t-97 -36.5q-105 0 -132 89.5t9 284.5q59 316 -172 316h-125l-104 -607 q59 0 95 1l36 2q11 0 19 -10.5t5 -26.5t-13.5 -25.5t-23.5 -9.5q-4 0 -19.5 2.5t-60 5t-118.5 2.5h-8q-73 0 -118 -2.5t-62 -5t-21 -2.5q-13 0 -20.5 9t-6.5 26z" />
<glyph unicode="&#x41b;" horiz-adv-x="1148" d="M-102 96q0 40 25.5 68.5t64.5 28.5q37 0 58.5 -23t21.5 -61t-27 -68q13 -10 37 -10q90 0 157.5 159.5t137.5 487.5l123 573q-60 0 -97 -1l-37 -1q-12 0 -19 10.5t-3 26.5q1 14 12.5 24.5t22.5 10.5q4 0 19.5 -2.5t60 -5t118.5 -2.5h375q73 0 118 2.5t62 5t21 2.5 q11 0 19.5 -10.5t5.5 -24.5q-3 -17 -13.5 -27t-23.5 -10l-36 1q-36 1 -95 1l-209 -1188q60 0 95 1l36 2q13 0 20.5 -10.5t3.5 -26.5q-3 -16 -13 -25.5t-21 -9.5q-4 0 -20 2.5t-60.5 5t-118.5 2.5h-8q-74 0 -119.5 -2.5t-62.5 -5t-21 -2.5q-12 0 -20 9.5t-5 25.5t14.5 26.5 t22.5 10.5l36 -2q36 -1 95 -1l205 1174h-287l-125 -563q-29 -131 -45.5 -200.5t-45 -168t-54 -149.5t-62 -104.5t-81 -75t-99.5 -21.5q-71 0 -115 37.5t-44 103.5z" />
<glyph unicode="&#x41c;" horiz-adv-x="1462" d="M-25 29q3 16 13.5 26.5t21.5 10.5l36 -2q36 -1 89 -1l209 1188q-53 0 -89 -1l-36 -1q-11 0 -17.5 10.5t-2.5 26.5q1 15 11 25t21 10q4 0 18 -2t49 -4.5t89 -3.5h70q19 0 25 -8.5t4.5 -22t0.5 -29.5l154 -1040l526 1040q1 3 5.5 14t7.5 16.5t8 13.5t11.5 11.5t14.5 4.5h56 q66 0 108.5 2.5t59 5t20.5 2.5q10 0 17 -10.5t6 -24.5q-4 -17 -14 -27t-21 -10l-36 1q-36 1 -89 1l-209 -1188q53 0 89 1l36 2q11 0 17 -10t3 -27q-1 -16 -11.5 -25.5t-20.5 -9.5q-5 0 -21.5 2.5t-57.5 5t-106 2.5h-22q-67 0 -109.5 -2.5t-59 -5t-20.5 -2.5q-11 0 -17 9 t-3 26q3 16 13.5 26.5t21.5 10.5q6 0 19 -1t40 -1.5t66 -0.5l174 998l-547 -1077q-12 -21 -37 -21q-20 0 -27 21l-157 1063l-172 -984q53 0 89 1l36 2q11 0 17 -10t3 -27q-3 -16 -13.5 -25.5t-21.5 -9.5q-4 0 -17 2t-48 4.5t-90 3.5q-55 -1 -91 -3.5t-51 -4.5t-20 -2 q-10 0 -16 9.5t-5 25.5z" />
<glyph unicode="&#x41d;" horiz-adv-x="1261" d="M-35 29q4 17 15.5 27t23.5 10l36 -2q36 -1 95 -1l209 1188q-60 0 -96 -1l-37 -1q-12 0 -19.5 10.5t-3.5 26.5q1 14 12.5 24.5t22.5 10.5q4 0 20 -2.5t60.5 -5t118.5 -2.5h8q74 0 119 2.5t61.5 5t20.5 2.5q13 0 21 -10.5t5 -24.5q-4 -17 -14.5 -27t-21.5 -10l-37 1 q-37 1 -97 1l-92 -528h486l92 528q-59 0 -95 -1l-36 -1q-13 0 -20.5 10t-4.5 27q3 15 14 25t23 10q4 0 20 -2.5t60 -5t117 -2.5h10q73 0 118 2.5t62 5t21 2.5q11 0 19 -10.5t5 -24.5q-3 -17 -13.5 -27t-23.5 -10l-36 1q-36 1 -95 1l-209 -1188q60 0 95 1l36 2q13 0 21 -10.5 t4 -26.5q-3 -16 -13.5 -25.5t-21.5 -9.5q-4 0 -20 2.5t-60.5 5t-118.5 2.5h-8q-58 0 -99.5 -1.5t-57.5 -3.5l-28 -3.5t-17 -1.5q-12 0 -20 9.5t-5 25.5t14.5 26.5t22.5 10.5l36 -2q36 -1 95 -1l102 586h-483l-102 -586q59 0 95 1l36 2q11 0 19 -10.5t5 -26.5t-13.5 -25.5 t-23.5 -9.5q-4 0 -19.5 2.5t-60 5t-118.5 2.5h-8q-73 0 -118 -2.5t-62 -5t-21 -2.5q-13 0 -20.5 9t-6.5 26z" />
<glyph unicode="&#x41e;" horiz-adv-x="1169" d="M73.5 374.5q-17.5 127.5 10.5 282.5q27 152 89.5 282t145.5 219t182.5 139.5t200.5 50.5t184 -50t134.5 -140.5t70 -218t-9.5 -282.5q-27 -152 -90 -282.5t-146.5 -219.5t-184 -139.5t-201.5 -50.5t-183.5 50t-133.5 141t-68.5 218.5zM220.5 366.5 q-0.5 -118.5 29.5 -188.5t85 -100.5t140 -30.5q112 0 192 55t142 191t102 364q30 172 30.5 290.5t-29.5 189t-84 101t-138 30.5q-114 0 -194.5 -55.5t-142 -191t-101.5 -364.5q-31 -172 -31.5 -290.5z" />
<glyph unicode="&#x41f;" horiz-adv-x="1251" d="M-35 29q4 17 15.5 27t23.5 10l36 -2q36 -1 95 -1l209 1188q-60 0 -96 -1l-37 -1q-12 0 -19.5 10.5t-3.5 26.5q1 14 12.5 24.5t22.5 10.5q4 0 20 -2.5t60.5 -5t118.5 -2.5h629q73 0 118 2.5t61.5 5t20.5 2.5q11 0 19.5 -10.5t5.5 -24.5q-3 -17 -13.5 -27t-23.5 -10l-36 1 q-36 1 -95 1l-209 -1188q60 0 95 1l36 2q13 0 21 -10.5t4 -26.5q-3 -16 -13.5 -25.5t-21.5 -9.5q-4 0 -20 2.5t-60.5 5t-118.5 2.5h-8q-74 0 -119.5 -2.5t-62.5 -5t-21 -2.5q-12 0 -19.5 9.5t-4.5 25.5t14.5 26.5t22.5 10.5l36 -2q36 -1 95 -1l204 1174h-473l-204 -1174 q59 0 95 1l36 2q11 0 19 -10.5t5 -26.5t-13.5 -25.5t-23.5 -9.5q-4 0 -19.5 2.5t-60 5t-118.5 2.5h-8q-73 0 -118 -2.5t-62 -5t-21 -2.5q-13 0 -20.5 9t-6.5 26z" />
<glyph unicode="&#x420;" horiz-adv-x="933" d="M-35 29q4 17 15.5 27t23.5 10l36 -2q36 -1 95 -1l209 1188q-60 0 -96 -1l-37 -1q-12 0 -19.5 10.5t-3.5 26.5q1 14 12.5 24.5t22.5 10.5q5 0 24.5 -2t64.5 -4.5t108 -3.5q176 4 205 4q195 0 282 -103t56 -280q-30 -176 -155 -280.5t-321 -104.5h-122l-84 -484 q53 0 88 1.5t37 1.5q9 0 15 -10t5 -27q-3 -16 -13.5 -25.5t-21.5 -9.5q-6 0 -24.5 2.5t-62 5t-111.5 2.5q-73 0 -118 -2.5t-62 -5t-21 -2.5q-13 0 -20.5 9t-6.5 26zM377 621h125q137 0 203.5 68.5t97.5 242.5q31 172 -12 239.5t-181 67.5h-123z" />
<glyph unicode="&#x421;" horiz-adv-x="1032" d="M73 374.5q-17 127.5 11 282.5q27 152 89.5 282t144.5 219t180 139.5t196 50.5t156.5 -33.5t105.5 -95.5q44 8 58 77q0 1 1 4.5t1.5 5l1.5 4.5t2.5 4.5t3 4t4 3.5t5 2.5t6.5 2t8 0.5q27 0 22 -31l-74 -415q-2 -11 -5 -17t-9.5 -11t-17.5 -5q-28 0 -23 33q29 166 -42 276.5 t-202 110.5q-81 0 -146.5 -31t-122.5 -100.5t-101 -189t-74 -290.5q-24 -137 -27.5 -241t12 -174t50 -113.5t82 -62.5t112.5 -19q132 0 242 110.5t139 276.5q5 33 33 33t23 -33l-74 -418q-6 -30 -33 -30q-28 0 -23 32q5 27 0 53t-18 35q-76 -71 -145.5 -106t-173.5 -35 q-98 0 -179 50t-131.5 141t-67.5 218.5z" />
<glyph unicode="&#x422;" horiz-adv-x="960" d="M76 977q1 8 11 52t23 102t19 94l10 61q3 16 13.5 26.5t21.5 10.5q6 0 44 -4t54 -4l285 -4h72l284 4q16 0 56.5 4t48.5 4q9 0 15 -10t5 -27l-12 -61q-6 -36 -14 -94t-13.5 -102t-7.5 -52q-4 -31 -33 -31q-15 0 -22 9.5t-4 21.5q46 262 -107 262h-174l-205 -1176q53 0 88 1 l35 2q11 0 17.5 -10t3.5 -27q-1 -16 -12 -25.5t-21 -9.5q-4 0 -19.5 2.5t-57 5t-107.5 2.5h-23q-66 0 -108.5 -2.5t-59 -5t-20.5 -2.5q-10 0 -16 9.5t-5 25.5q3 16 13.5 26.5t21.5 10.5l36 -2q36 -1 89 -1l207 1176h-174q-76 0 -126.5 -68t-72.5 -194q-8 -31 -37 -31 q-13 0 -19 9.5t-3 21.5z" />
<glyph unicode="&#x423;" horiz-adv-x="1087" d="M104 129q0 47 29 84t72 37q35 0 58.5 -21.5t23.5 -56.5q0 -53 -56 -90q20 -47 82 -47q138 0 260 307l-305 909q-56 0 -91 -1t-36 -1q-13 0 -20 10t-4 27q3 15 14 25t23 10q4 0 19.5 -2.5t59.5 -5t117 -2.5h10q73 0 118 2.5t62 5t21 2.5q11 0 19.5 -10.5t5.5 -24.5 q-3 -17 -13.5 -27t-23.5 -10q-1 0 -36.5 1t-90.5 1l240 -739l311 739q-60 0 -102 -1l-42 -1q-13 0 -20 10t-4 27q3 15 14 25t23 10q5 0 18.5 -2t51 -4.5t98.5 -3.5q61 1 99 3.5t52 4.5t19 2q12 0 20.5 -10.5t5.5 -24.5q-4 -17 -15 -27t-22 -10q-3 0 -38 1t-80 1l-174 -417 q-46 -110 -77 -184t-67.5 -157.5t-62 -136t-55.5 -110.5t-53 -92.5t-50 -70.5t-50.5 -55t-51.5 -35t-55.5 -22t-59.5 -6q-79 0 -135 45.5t-56 118.5z" />
<glyph unicode="&#x424;" horiz-adv-x="1316" d="M45 653q34 202 175.5 314t357.5 112h69l31 172q-60 0 -96 -1l-37 -1q-12 0 -19.5 10.5t-3.5 26.5q1 14 12.5 24.5t22.5 10.5q4 0 21 -2.5t62.5 -5t119.5 -2.5h8q74 0 119 2.5t61.5 5t20.5 2.5q13 0 21 -10.5t5 -24.5q-4 -17 -15 -27t-22 -10l-36 1q-37 1 -97 1l-30 -172 h73q200 0 308.5 -111t78.5 -292q-34 -202 -175 -314t-357 -112h-72l-30 -187q53 0 88 1.5t36 1.5q10 0 16 -10.5t5 -26.5q-3 -16 -13.5 -25.5t-21.5 -9.5q-6 0 -25 2.5t-63.5 5t-112.5 2.5q-73 0 -118 -2.5t-61.5 -5t-20.5 -2.5q-13 0 -20.5 9t-6.5 26q4 17 15.5 27t23.5 10 l36 -2q36 -1 95 -1l31 187h-72q-200 0 -308.5 111t-78.5 292zM205 651q-26 -156 38 -241.5t203 -85.5h70l119 680h-72q-149 0 -239 -93t-119 -260zM666 324h71q150 0 241 92.5t118 259.5q25 155 -39.5 241.5t-202.5 86.5h-72z" />
<glyph unicode="&#x425;" horiz-adv-x="968" d="M-156 29q4 17 15 27t22 10q3 0 37 -1.5t78 -1.5l418 572l-191 616q-56 0 -89 -1t-34 -1q-12 0 -19 10.5t-3 26.5q1 14 12.5 24.5t22.5 10.5q4 0 19.5 -2.5t60 -5t118.5 -2.5h8q74 0 119 2.5t61.5 5t20.5 2.5q12 0 20 -10t7 -25q-4 -17 -15.5 -27t-23.5 -10q-2 0 -35 1 t-86 1l148 -477l346 477q-59 0 -101 -1l-41 -1q-13 0 -20 10t-4 27q3 15 14 25t23 10q5 0 18.5 -2t51 -4.5t98.5 -3.5q47 1 82 2.5t49 3t24.5 3t16.5 1.5q11 0 19 -10.5t5 -24.5q-3 -16 -14.5 -26.5t-22.5 -10.5q-3 0 -36 1t-78 1l-406 -555l195 -633q56 0 89 1.5t34 1.5 q13 0 20.5 -10.5t3.5 -26.5q-3 -16 -13.5 -25.5t-21.5 -9.5q-4 0 -19.5 2.5t-60 5t-118.5 2.5h-9q-58 0 -99.5 -1.5t-57.5 -3.5l-28 -3.5t-17 -1.5q-12 0 -20 9.5t-5 25.5t14.5 26.5t22.5 10.5q2 0 36 -1.5t85 -1.5l-150 494l-360 -494q60 0 100 1l41 2q13 0 21 -10.5 t4 -26.5q-3 -16 -13.5 -25.5t-21.5 -9.5q-6 0 -16 1.5t-24 3t-48.5 3t-81.5 2.5q-61 -1 -99 -3.5t-52 -4.5t-19 -2q-13 0 -21.5 9.5t-5.5 25.5z" />
<glyph unicode="&#x426;" horiz-adv-x="1245" d="M-35 29q4 17 15.5 27t23.5 10l36 -2q36 -1 95 -1l209 1188q-60 0 -96 -1l-37 -1q-12 0 -19.5 10.5t-3.5 26.5q1 14 12.5 24.5t22.5 10.5q4 0 20 -2.5t60.5 -5t118.5 -2.5h8q74 0 119 2.5t61.5 5t20.5 2.5q13 0 21 -10.5t5 -24.5q-4 -17 -14.5 -27t-21.5 -10l-37 1 q-37 1 -97 1l-204 -1177h467l206 1177q-59 0 -95 -1l-36 -1q-13 0 -20 10t-4 27q3 15 14 25t23 10q4 0 19.5 -2.5t59.5 -5t117 -2.5h10q73 0 118 2.5t62 5t21 2.5q11 0 19.5 -10.5t5.5 -24.5q-3 -17 -13.5 -27t-23.5 -10l-37 1q-37 1 -96 1l-205 -1177l86 2q15 0 53 1t51 1 q23 0 17 -37l-12 -55q-48 -250 -54 -314q-3 -12 -13.5 -19.5t-25.5 -6.5q-26 0 -22 30q15 85 11 157t-39.5 119.5t-94.5 47.5h-659q-73 0 -118 -1.5t-62 -3t-21 -1.5q-13 0 -20.5 9t-6.5 26z" />
<glyph unicode="&#x427;" horiz-adv-x="1179" d="M127 1286q1 14 12.5 24.5t22.5 10.5q4 0 19.5 -2.5t60 -5t118.5 -2.5h9q58 0 99 1.5t57 3.5t27.5 3.5t16.5 1.5q13 0 21.5 -10.5t5.5 -24.5q-4 -17 -15 -27t-22 -10l-37 1q-36 1 -96 1l-68 -387q-19 -110 33 -162.5t158 -52.5q117 0 246 45l96 557q-59 0 -95 -1l-36 -1 q-13 0 -20.5 10t-4.5 27q3 15 14 25t23 10q4 0 20 -2.5t60 -5t117 -2.5h10q73 0 118 2.5t62 5t21 2.5q11 0 19 -10.5t5 -24.5q-3 -17 -13.5 -27t-23.5 -10l-36 1q-36 1 -95 1l-209 -1188q44 0 72 0.5t40.5 1.5t18.5 1q13 0 21 -10.5t4 -26.5q-3 -16 -13.5 -25.5t-21.5 -9.5 q-4 0 -19.5 2.5t-60 5t-118.5 2.5h-9q-58 0 -99.5 -1.5t-57.5 -3.5l-28 -3.5t-17 -1.5q-12 0 -20 9.5t-5 25.5t14.5 26.5t22.5 10.5l36 -2q36 -1 95 -1l96 553q-137 -49 -262 -49q-44 0 -82.5 5t-78 18t-67.5 34.5t-50.5 54.5t-26.5 79t4 106l68 387q-60 0 -97 -1l-36 -1 q-12 0 -19.5 10.5t-3.5 26.5z" />
<glyph unicode="&#x428;" horiz-adv-x="1687" d="M-35 29q4 17 15.5 27t23.5 10l36 -2q36 -1 95 -1l209 1188q-60 0 -96 -1l-37 -1q-12 0 -19.5 10.5t-3.5 26.5q1 14 12.5 24.5t22.5 10.5q4 0 20 -2.5t60.5 -5t118.5 -2.5h8q74 0 119 2.5t61.5 5t20.5 2.5q13 0 21 -10.5t5 -24.5q-4 -17 -14.5 -27t-21.5 -10l-37 1 q-37 1 -97 1l-204 -1177h383l206 1177q-60 0 -96 -1l-37 -1q-12 0 -19 10.5t-3 26.5q1 14 12.5 24.5t22.5 10.5q4 0 19.5 -2.5t60 -5t118.5 -2.5h8q74 0 119 2.5t61.5 5t20.5 2.5q13 0 21.5 -10.5t5.5 -24.5q-4 -17 -15 -27t-22 -10l-37 1q-36 1 -96 1l-205 -1177h383 l207 1177q-59 0 -95 -1l-36 -1q-13 0 -20.5 10t-4.5 27q3 15 14 25t23 10q4 0 20 -2.5t60 -5t117 -2.5h10q73 0 117.5 2.5t61 5t20.5 2.5q11 0 19 -10.5t5 -24.5q-3 -17 -13.5 -27t-23.5 -10l-36 1q-36 1 -95 1l-207 -1192q45 0 73.5 0.5t41 1t18.5 0.5q13 0 21 -10t4 -26 q-3 -16 -13.5 -25.5t-21.5 -9.5q-5 0 -18.5 2t-50.5 4.5t-95 3.5h-1103q-73 0 -118 -1.5t-62 -3t-21 -1.5q-13 0 -20.5 9t-6.5 26z" />
<glyph unicode="&#x429;" horiz-adv-x="1687" d="M-35 29q4 17 15.5 27t23.5 10l36 -2q36 -1 95 -1l209 1188q-60 0 -96 -1l-37 -1q-12 0 -19.5 10.5t-3.5 26.5q1 14 12.5 24.5t22.5 10.5q4 0 20 -2.5t60.5 -5t118.5 -2.5h8q74 0 119 2.5t61.5 5t20.5 2.5q13 0 21 -10.5t5 -24.5q-4 -17 -14.5 -27t-21.5 -10l-37 1 q-37 1 -97 1l-204 -1177h383l206 1177q-60 0 -96 -1l-37 -1q-12 0 -19 10.5t-3 26.5q1 14 12.5 24.5t22.5 10.5q4 0 19.5 -2.5t60 -5t118.5 -2.5h8q74 0 119 2.5t61.5 5t20.5 2.5q13 0 21.5 -10.5t5.5 -24.5q-4 -17 -15 -27t-22 -10l-37 1q-36 1 -96 1l-205 -1177h383 l207 1177q-59 0 -95 -1l-36 -1q-13 0 -20.5 10t-4.5 27q3 15 14 25t23 10q4 0 20 -2.5t60 -5t117 -2.5h10q73 0 117.5 2.5t61 5t20.5 2.5q11 0 19 -10.5t5 -24.5q-3 -17 -13.5 -27t-23.5 -10l-36 1q-36 1 -95 1l-205 -1177l86 2q15 0 53.5 1t51.5 1q22 0 16 -37l-12 -55 q-45 -239 -53 -314q-3 -12 -13.5 -19.5t-25.5 -6.5q-27 0 -23 30q15 85 11 157t-39.5 119.5t-94.5 47.5h-1103q-73 0 -118 -1.5t-62 -3t-21 -1.5q-13 0 -20.5 9t-6.5 26z" />
<glyph unicode="&#x42a;" horiz-adv-x="1075" d="M96 985q1 4 11 47t22.5 99.5t20.5 101.5l10 53q3 16 13.5 26.5t21.5 10.5q5 0 41 -2.5t85.5 -5t88.5 -2.5h153q74 0 119 2t61.5 4t20.5 2q13 0 21.5 -10.5t5.5 -24.5q-4 -17 -15 -27t-22 -10l-36 1q-37 1 -97 1l-84 -485q17 0 57 1t70 1q194 0 281 -103t56 -280 q-30 -176 -154.5 -280.5t-320.5 -104.5h-245q-54 0 -88.5 -1.5t-48.5 -3t-19 -1.5q-13 0 -20.5 9t-6.5 26q4 17 15.5 27t23.5 10l36 -2q36 -1 95 -1l207 1184h-106q-75 0 -133.5 -74.5t-79.5 -187.5q-2 -13 -11.5 -22t-23.5 -9t-21 9t-4 22zM416 74h125q137 0 203.5 68.5 t97.5 242.5q31 172 -12 239.5t-181 67.5h-127z" />
<glyph unicode="&#x42b;" horiz-adv-x="1456" d="M-35 29q4 17 15.5 27t23.5 10l36 -2q36 -1 95 -1l209 1188q-60 0 -96 -1l-37 -1q-12 0 -19.5 10.5t-3.5 26.5q1 14 12.5 24.5t22.5 10.5q4 0 20 -2.5t60.5 -5t118.5 -2.5h8q74 0 119 2.5t61.5 5t20.5 2.5q13 0 21 -10.5t5 -24.5q-4 -17 -14.5 -27t-21.5 -10l-37 1 q-37 1 -97 1l-84 -485q17 0 57 1t70 1q195 0 282 -103t56 -280q-30 -176 -154.5 -280.5t-320.5 -104.5h-246q-54 -1 -88.5 -2.5t-48 -2.5t-18.5 -1q-13 0 -20.5 9t-6.5 26zM281 74h125q137 0 203.5 68.5t97.5 242.5q31 172 -12 239.5t-181 67.5h-127zM788 29q4 17 15.5 27 t23.5 10l36 -2q36 -1 95 -1l209 1188q-60 0 -97 -1l-36 -1q-12 0 -19 10.5t-3 26.5q1 14 12.5 24.5t22.5 10.5q4 0 19.5 -2.5t60 -5t118.5 -2.5h8q74 0 119 2.5t61.5 5t20.5 2.5q13 0 21.5 -10.5t5.5 -24.5q-4 -17 -15 -27t-22 -10l-36 1q-37 1 -97 1l-207 -1188q59 0 95 1 l36 2q12 0 20 -10.5t5 -26.5t-13.5 -25.5t-23.5 -9.5q-4 0 -20 2.5t-60.5 5t-118.5 2.5h-8q-73 0 -118 -2.5t-62 -5t-21 -2.5q-13 0 -20.5 9t-6.5 26z" />
<glyph unicode="&#x42c;" horiz-adv-x="942" d="M-35 29q4 17 15.5 27t23.5 10l36 -2q36 -1 95 -1l209 1188q-60 0 -96 -1l-37 -1q-12 0 -19.5 10.5t-3.5 26.5q1 14 12.5 24.5t22.5 10.5q4 0 20 -2.5t60.5 -5t118.5 -2.5h8q74 0 119 2.5t61.5 5t20.5 2.5q13 0 21 -10.5t5 -24.5q-4 -17 -14.5 -27t-21.5 -10l-37 1 q-37 1 -97 1l-84 -485q17 0 57 1t70 1q195 0 282 -103t56 -280q-30 -176 -154.5 -280.5t-320.5 -104.5h-246q-54 -1 -88.5 -2.5t-48 -2.5t-18.5 -1q-13 0 -20.5 9t-6.5 26zM283 74h125q137 0 203.5 68.5t97.5 242.5q31 172 -12 239.5t-181 67.5h-127z" />
<glyph unicode="&#x42d;" horiz-adv-x="1028" d="M25 197q0 54 28.5 86t71.5 32q34 0 55 -21t21 -56q0 -39 -23 -62t-57 -26q16 -40 65.5 -74.5t135.5 -34.5q64 0 119 19.5t96.5 52.5t76.5 81.5t59.5 100t45 116t33.5 122t24 124.5q-71 -96 -145 -96q-45 0 -147 55.5t-138 55.5q-19 0 -35.5 -13.5t-25 -29.5t-18.5 -29.5 t-19 -13.5q-8 0 -13 6.5t-4 15.5q7 52 63 117.5t120 65.5q31 0 68.5 -16.5t67 -36t68 -36t70.5 -16.5q30 0 58 23t47 61q14 66 14 184q0 37 -6 75.5t-23 82.5t-43 77.5t-70 56t-100 22.5q-125 0 -221 -93.5t-115 -232.5q-5 -33 -32 -33q-28 0 -23 33l62 354q6 31 32 31 q28 0 23 -33q-10 -57 12 -71q37 36 67 58.5t87 44.5t121 22q172 0 275 -133t103 -371q0 -181 -53 -345.5t-140 -280.5t-203 -184.5t-238 -68.5q-132 0 -214.5 69.5t-82.5 162.5z" />
<glyph unicode="&#x42e;" horiz-adv-x="1712" d="M-35 29q4 17 15.5 27t23.5 10l36 -2q36 -1 95 -1l209 1188q-60 0 -96 -1l-37 -1q-12 0 -19.5 10.5t-3.5 26.5q1 14 12.5 24.5t22.5 10.5q4 0 20 -2.5t60.5 -5t118.5 -2.5h8q74 0 119 2.5t61.5 5t20.5 2.5q13 0 21 -10.5t5 -24.5q-4 -17 -14.5 -27t-21.5 -10l-37 1 q-37 1 -97 1l-92 -528h244q67 279 238 452t368 173q101 0 184 -50t134.5 -140.5t70 -218t-9.5 -282.5q-27 -152 -90.5 -282.5t-147 -219.5t-184 -139.5t-201.5 -50.5q-207 0 -317 191.5t-59 492.5h-242l-102 -586q59 0 95 1l36 2q11 0 19 -10.5t5 -26.5t-13.5 -25.5 t-23.5 -9.5q-4 0 -19.5 2.5t-60 5t-118.5 2.5h-8q-73 0 -118 -2.5t-62 -5t-21 -2.5q-13 0 -20.5 9t-6.5 26zM763.5 366.5q-0.5 -118.5 29.5 -188.5t85 -100.5t140 -30.5q112 0 192 55t142 191t102 364q30 172 30.5 290.5t-29.5 189t-84 101t-138 30.5q-114 0 -194.5 -55.5 t-142 -191t-101.5 -364.5q-31 -172 -31.5 -290.5z" />
<glyph unicode="&#x42f;" horiz-adv-x="1050" d="M-96 111q3 13 16 24.5t25 11.5q14 0 20.5 -11t3.5 -27q-12 -68 39 -68q31 0 49.5 30t28 79.5t19 110t29.5 125t51.5 121.5t93 102.5t147.5 64.5q-114 17 -183 100t-46 225q22 138 147.5 226t319.5 88q37 0 98 -1t90 -1q61 0 107 2.5t68.5 5t27.5 2.5q11 0 17.5 -10.5 t2.5 -24.5q-1 -16 -12 -26.5t-23 -10.5l-36 1q-37 1 -97 1l-207 -1188q59 0 95 1l36 2q13 0 20.5 -10t6.5 -27q-4 -16 -16 -25.5t-25 -9.5q-4 0 -19.5 2.5t-59.5 5t-117 2.5q-60 0 -104.5 -2.5t-67.5 -5t-31 -2.5q-11 0 -17.5 9.5t-3.5 25.5q4 17 14 27t19 10q2 0 37 -1.5 t88 -1.5l100 566h-125q-78 0 -131.5 -36t-79.5 -93t-44 -126t-34.5 -138.5t-40 -126.5t-71 -93t-119.5 -36q-53 0 -84 36.5t-22 94.5zM358 999q-23 -141 33.5 -219t186.5 -78h90l92 537h-109q-136 0 -203.5 -55.5t-89.5 -184.5z" />
<glyph unicode="&#x430;" horiz-adv-x="989" d="M37 401q16 94 59 177t97.5 138.5t116 87.5t116.5 32q62 0 108.5 -37.5t69.5 -106.5l21 109q0 8 14 8q7 0 20.5 -3t28.5 -3q14 0 30.5 3t22.5 3q13 0 13 -8l-117 -654q-10 -41 -0.5 -61.5t19 -25.5t22.5 -5q48 0 85.5 66t59.5 184q1 17 12.5 28t26.5 11t21.5 -10.5 t3.5 -28.5q-10 -55 -27.5 -106.5t-46 -102.5t-73 -81.5t-99.5 -30.5q-58 0 -96.5 34.5t-38.5 100.5q-45 -71 -112 -112.5t-132 -41.5q-133 0 -196 121t-29 315zM172.5 116.5q24.5 -81.5 108.5 -81.5q92 0 167 97t105 269q32 174 -6 270.5t-131 96.5q-68 0 -135 -90.5 t-101 -276.5q-32 -203 -7.5 -284.5z" />
<glyph unicode="&#x431;" horiz-adv-x="849" d="M27 326q0 221 72.5 452t172.5 342q47 52 112 80.5t121.5 34t129.5 15t119 26.5q17 6 24.5 14.5t8.5 15t-1 24.5t-2 28q0 39 33 39t33 -47q0 -85 -42.5 -147t-117.5 -85q-40 -12 -103 -19t-111.5 -10.5t-100.5 -21.5t-84 -51q-87 -91 -158 -373q143 193 318 193 q142 0 219.5 -122t44.5 -313t-154 -313.5t-264 -122.5q-125 0 -197.5 98t-72.5 263zM172.5 115q31.5 -82 136.5 -82q103 0 164 84t96 284q34 203 4 286t-133 83q-105 0 -167 -85t-97 -284q-35 -204 -3.5 -286z" />
<glyph unicode="&#x432;" horiz-adv-x="858" d="M27 262q0 120 42 228.5t110.5 183t156 118.5t176.5 44q103 0 157 -48.5t54 -119.5q0 -46 -18 -86t-47.5 -68.5t-57 -47t-57.5 -32.5q59 -10 106 -54t47 -114q0 -76 -32 -136t-84.5 -95t-112.5 -52.5t-123 -17.5q-142 0 -229.5 76t-87.5 221zM170 246q0 -103 49 -158 t135 -55q85 0 146 53.5t61 151.5q0 153 -170 153q-105 0 -207 -20q-14 -77 -14 -125zM197 432q40 4 59 6t59 7.5t62 11t56.5 15.5t54.5 21.5t44 29t37 38t22 48.5t9 61q0 45 -29.5 72.5t-83.5 27.5q-101 0 -182 -96.5t-108 -241.5z" />
<glyph unicode="&#x433;" horiz-adv-x="727" d="M29 164q3 49 19.5 87t47.5 66.5t61.5 49t75.5 46.5q9 5 13 7l90 53q57 34 83.5 75.5t29.5 100.5q3 49 -23 82t-84 33q-47 0 -87 -26t-83 -89q-11 -17 -19 -24t-22 -7q-10 0 -17.5 8t-7.5 17q0 58 78.5 125.5t188.5 67.5q108 0 165 -52t52 -139q-1 -28 -7.5 -51.5 t-21 -43.5t-26.5 -33.5t-37.5 -30t-39.5 -25t-46.5 -25t-46.5 -24.5l-80 -45q-109 -61 -119 -183q-5 -62 28.5 -102.5t102.5 -40.5q60 0 102 33.5t88 107.5q22 33 41 33q15 -2 23 -16.5t0 -32.5q-32 -59 -67 -99.5t-94.5 -71t-133.5 -30.5q-104 0 -168.5 52.5t-58.5 146.5z " />
<glyph unicode="&#x434;" horiz-adv-x="913" d="M37 401q33 191 154 313t264 122q53 0 104 -20t82 -54q18 111 18 231q0 59 -9.5 109t-31.5 98t-66 75.5t-106 27.5q-58 0 -96.5 -23.5t-50.5 -54.5q22 -2 36.5 -18.5t14.5 -39.5q0 -33 -21.5 -54t-54.5 -21q-28 0 -47.5 21.5t-19.5 55.5q0 76 68 132.5t180 56.5 q89 0 155.5 -33t105 -93t57 -135t18.5 -167q0 -48 -4.5 -108t-14 -140t-27.5 -159.5t-43.5 -161.5t-64 -152t-85 -125.5t-111.5 -87t-140 -31.5q-142 0 -219.5 122.5t-44.5 313.5zM176.5 115q31.5 -82 136.5 -82q76 0 129 50t100 191.5t83 391.5q-22 44 -70 74t-111 30 q-107 0 -168 -84t-96 -285q-35 -204 -3.5 -286z" />
<glyph unicode="&#x435;" horiz-adv-x="751" d="M37 401q17 98 62 181.5t104 138t125.5 85t130.5 30.5q96 0 150 -53t40 -132q-9 -52 -36 -96t-66.5 -75t-84.5 -54.5t-97.5 -38.5t-98 -24t-92.5 -13q-19 -151 19 -232t131 -81q158 0 239 170q17 35 41 35q12 0 19.5 -8.5t7.5 -22.5q0 -15 -10 -35q-37 -62 -78 -105 t-84 -65.5t-83 -31.5t-87 -9q-138 0 -211.5 123t-40.5 313zM184 414q78 7 146.5 31t125 76.5t70.5 125.5q9 54 -12 88.5t-65 34.5q-100 0 -166.5 -94t-98.5 -262z" />
<glyph unicode="&#x436;" horiz-adv-x="1359" d="M-18 68q4 31 31 53t59 22q30 0 51 -24t12 -58q56 32 97.5 101t62 151t30 155t9.5 138q0 148 -82 148q-54 0 -102 -70.5t-70 -185.5q-2 -17 -13 -29t-26 -12t-21.5 11.5t-3.5 29.5q9 53 30 106t53 103t79.5 81t102.5 31q22 0 42.5 -4t45 -18t42.5 -36.5t30 -63.5t12 -95 q0 -80 -15 -151h135l62 348q0 10 14 10q7 0 20.5 -3t28.5 -3q14 0 31 3t23 3q10 0 10 -10l-62 -348h148q52 163 155 265.5t199 102.5q44 0 65 -25t15 -59q-5 -31 -31.5 -53.5t-58.5 -22.5q-30 0 -51.5 24.5t-12.5 57.5q-56 -32 -97 -100.5t-61.5 -150.5t-30 -155t-9.5 -138 q0 -148 82 -148q54 0 102 70.5t70 185.5q2 17 13 29t26 12t21 -11.5t3 -29.5q-9 -53 -30 -106t-52.5 -103t-79 -81t-102.5 -31q-22 0 -42.5 4t-45 18t-42.5 36.5t-30 63.5t-12 95q0 88 20 186h-141l-67 -383q0 -10 -15 -10q-7 0 -21.5 3t-29.5 3q-14 0 -30.5 -3t-22.5 -3 q-10 0 -10 10l67 383h-137q-49 -177 -156 -290t-207 -113q-44 0 -64.5 25t-14.5 59z" />
<glyph unicode="&#x437;" horiz-adv-x="770" d="M18 168q0 50 27 76t59 26q30 0 49 -17t19 -44q0 -34 -22 -55t-54 -21q14 -42 60 -73t118 -31q87 0 139 63.5t52 157.5q0 79 -44.5 113t-113.5 34q-9 0 -31 -3t-32 -3q-11 0 -18.5 10.5t-4.5 28.5q3 16 13.5 26.5t21.5 10.5q8 0 27 -3t51 -3q71 0 111 48.5t40 123.5 q0 59 -33 95t-98 36q-42 0 -76.5 -13.5t-55.5 -32t-37 -37.5t-29.5 -32.5t-24.5 -13.5q-25 0 -25 29q0 14 17.5 41t48.5 57t86.5 52t120.5 22q64 0 113 -18t76 -48t40 -63.5t13 -69.5q0 -87 -55.5 -143t-133.5 -66q77 -8 124.5 -54.5t47.5 -123.5q0 -89 -49 -155.5t-121 -98 t-153 -31.5q-114 0 -188.5 58.5t-74.5 144.5z" />
<glyph unicode="&#x438;" horiz-adv-x="1003" d="M14 770q1 16 12 25.5t23 9.5l36 -1q36 -1 95 -1q18 0 56 4t45 4q11 0 18 -10.5t4 -26.5l-100 -571q-14 -85 2 -120.5t71 -35.5q56 0 118.5 55.5t112.5 147.5t68 192l64 357q3 10 12 10q8 0 22 -3t29 -3q14 0 31 3t21 3q12 0 12 -10l-115 -652q-17 -92 41 -92 q47 0 85.5 67t58.5 183q3 17 14.5 28t26.5 11q31 0 24 -39q-11 -56 -28.5 -106.5t-46.5 -102t-73.5 -82t-99.5 -30.5q-64 0 -103.5 43t-25.5 123l8 51q-44 -88 -126.5 -160t-161.5 -72q-74 0 -115.5 40t-48 107t7.5 156l82 467q-60 0 -96 -3l-37 -3q-12 0 -19.5 10.5 t-3.5 26.5z" />
<glyph unicode="&#x439;" horiz-adv-x="1003" d="M14 770q1 16 12 25.5t23 9.5l36 -1q36 -1 95 -1q18 0 56 4t45 4q11 0 18 -10.5t4 -26.5l-100 -571q-14 -85 2 -120.5t71 -35.5q56 0 118.5 55.5t112.5 147.5t68 192l64 357q3 10 12 10q8 0 22 -3t29 -3q14 0 31 3t21 3q12 0 12 -10l-115 -652q-17 -92 41 -92 q47 0 85.5 67t58.5 183q3 17 14.5 28t26.5 11q31 0 24 -39q-11 -56 -28.5 -106.5t-46.5 -102t-73.5 -82t-99.5 -30.5q-64 0 -103.5 43t-25.5 123l8 51q-44 -88 -126.5 -160t-161.5 -72q-74 0 -115.5 40t-48 107t7.5 156l82 467q-60 0 -96 -3l-37 -3q-12 0 -19.5 10.5 t-3.5 26.5zM268 1139q0 39 22.5 67.5t61.5 28.5q33 0 52.5 -19.5t19.5 -50.5q0 -43 -41 -78q28 -38 102 -38q61 0 106.5 40.5t72.5 106.5q12 31 30 31q27 0 27 -29q0 -21 -15.5 -54t-44 -68.5t-79.5 -61t-113 -25.5q-88 0 -144.5 39.5t-56.5 110.5z" />
<glyph unicode="&#x43a;" horiz-adv-x="905" d="M14 770q4 17 15.5 27t23.5 10l35 -2q36 -2 96 -2q18 0 54 4t43 4q12 0 19.5 -10t6.5 -25l-55 -317h47q54 0 92 37t62 90t49.5 106t70.5 90t109 37q60 0 95 -37.5t26 -87.5q-7 -39 -32.5 -61.5t-61.5 -22.5t-56.5 23.5t-13.5 58.5q8 34 37 56q-12 6 -33 6q-33 0 -64.5 -45 t-53.5 -100t-56 -104t-72 -56q28 -3 50 -9t45.5 -17.5t37.5 -28.5t26.5 -44t11.5 -62.5t-7 -84.5l-10 -56q-17 -92 41 -92q90 0 135 203q1 17 12.5 28t26.5 11t22 -11t3 -28q-67 -274 -238 -274q-64 0 -103 43t-26 123l10 67q26 180 -145 180h-49l-70 -393q0 -10 -14 -10 q-7 0 -21 3t-29 3q-14 0 -30.5 -3t-22.5 -3q-12 0 -12 10l131 735q-59 0 -95 -2l-36 -2q-13 0 -20.5 9t-6.5 26z" />
<glyph unicode="&#x43b;" horiz-adv-x="991" d="M-57 72q0 34 25 60t61 26q42 0 62.5 -31t2.5 -70q21 5 40 20t36.5 45.5t31.5 58.5t30 80.5t26 88t26 105.5t24 109t25 120q7 35 11 53q-21 0 -57.5 -2t-40.5 -2q-12 0 -19.5 10.5t-3.5 26.5q1 16 12 25.5t23 9.5q3 0 30.5 -1t67.5 -1h269q18 0 55.5 4t44.5 4 q11 0 18.5 -10.5t4.5 -26.5l-109 -627q-15 -92 41 -92q48 0 85.5 66t59.5 184q1 17 12.5 28t26.5 11t21.5 -10.5t3.5 -28.5q-10 -55 -27.5 -106.5t-46 -102.5t-73 -81.5t-99.5 -30.5q-66 0 -105.5 43t-25.5 123l102 589q-151 0 -204 -2q-10 -45 -24.5 -114.5t-24 -113 t-24 -105t-25.5 -100.5t-28 -88t-33.5 -79.5t-38.5 -62.5t-46 -49.5t-54.5 -29t-64.5 -11.5q-50 0 -77 26.5t-27 61.5z" />
<glyph unicode="&#x43c;" horiz-adv-x="1222" d="M-47 72q0 34 25 60t61 26q42 0 62.5 -31t2.5 -70q22 6 41.5 34t35.5 77t29 99.5t25 122t19.5 122.5t17.5 122.5t15 102.5q-21 0 -67 -2t-50 -2q-12 0 -19.5 10.5t-3.5 26.5q1 16 12 25.5t23 9.5l203 -2q41 0 47 -41l96 -582l320 604q14 25 39 25l69 2q11 0 18.5 -10.5 t4.5 -26.5l-109 -627q-15 -92 41 -92q49 0 86.5 66t59.5 184q1 17 12.5 28t26.5 11q31 0 24 -39q-10 -55 -27.5 -106.5t-46 -102.5t-73 -81.5t-99.5 -30.5q-66 0 -105.5 43t-25.5 123l84 473l-321 -607q-9 -19 -24.5 -23t-27.5 3.5t-14 19.5l-112 586q-5 -29 -13.5 -89.5 t-15 -102t-18.5 -101t-24 -101t-32 -87t-43 -73t-55 -46t-70 -18.5q-50 0 -77 26.5t-27 61.5z" />
<glyph unicode="&#x43d;" horiz-adv-x="1017" d="M14 770q1 16 12 25.5t23 9.5l36 -1q36 -1 95 -1q18 0 56 4t45 4q11 0 18 -10.5t4 -26.5l-57 -323h344l61 348q3 10 13 10q8 0 22 -3t29 -3q14 0 31.5 3t21.5 3q12 0 12 -10l-114 -652q-15 -92 41 -92q48 0 85.5 66t59.5 184q1 17 12.5 28t26.5 11q31 0 24 -39 q-8 -43 -19.5 -84t-32.5 -85.5t-47 -77t-64 -53.5t-82 -21q-66 0 -105.5 43t-25.5 123l41 237h-344l-68 -383q0 -10 -14 -10q-7 0 -21.5 3t-28.5 3q-15 0 -31.5 -3t-21.5 -3q-12 0 -12 10l131 735q-60 0 -96 -3l-37 -3q-12 0 -19.5 10.5t-3.5 26.5z" />
<glyph unicode="&#x43e;" d="M37 401q33 191 154 313t264 122q142 0 219.5 -122t44.5 -313t-154 -313.5t-264 -122.5q-142 0 -219.5 122.5t-44.5 313.5zM177.5 115q31.5 -82 135.5 -82q103 0 164 84t96 284q34 203 4 286t-133 83q-104 0 -166 -84.5t-98 -284.5q-34 -204 -2.5 -286z" />
<glyph unicode="&#x43f;" horiz-adv-x="1030" d="M14 770q1 16 12 25.5t23 9.5l36 -1q36 -1 95 -1q18 0 56 4t45 4q11 0 18 -10.5t4 -26.5l-31 -170q47 90 132.5 161t170.5 71q114 0 154.5 -82.5t15.5 -221.5l-67 -385q-17 -92 41 -92q48 0 85.5 66t59.5 184q1 17 12.5 28t26.5 11t21.5 -10.5t3.5 -28.5 q-10 -55 -27.5 -106.5t-46 -102.5t-73 -81.5t-99.5 -30.5q-66 0 -105.5 43t-25.5 123l78 444q15 84 -3.5 120t-76.5 36q-94 0 -192.5 -117.5t-125.5 -270.5l-63 -358q0 -10 -14 -10q-7 0 -21.5 3t-28.5 3q-15 0 -31.5 -3t-21.5 -3q-12 0 -12 10l131 735q-60 0 -96 -3l-37 -3 q-12 0 -19.5 10.5t-3.5 26.5z" />
<glyph unicode="&#x440;" horiz-adv-x="886" d="M-213 -508q1 16 13 26.5t24 10.5l36 -1q36 -1 95 -1l215 1212q-60 0 -96 -3l-37 -3q-12 0 -19.5 10.5t-3.5 26.5q1 16 12 25.5t23 9.5l36 -1q36 -1 95 -1q18 0 56 4t45 4q11 0 18 -10.5t4 -26.5l-14 -86q50 71 112.5 109.5t126.5 38.5q133 0 196.5 -120.5t29.5 -314.5 t-140 -315t-239 -121q-65 0 -114.5 40t-72.5 110l-104 -588q59 0 95 1l36 1q12 0 19 -10t6 -27q-3 -15 -15 -25t-24 -10q-4 0 -19.5 2.5t-58 5.5t-113.5 3h-4q-71 0 -114.5 -3t-60.5 -5.5t-21 -2.5q-11 0 -18.5 10.5t-4.5 24.5zM238 401q-30 -172 12 -269t135 -97 q82 0 136.5 84.5t88.5 281.5q33 203 9.5 285t-107.5 82q-92 0 -167.5 -97t-106.5 -270z" />
<glyph unicode="&#x441;" horiz-adv-x="735" d="M37 401q35 195 146 315t257 120q64 0 118 -28t83 -80.5t18 -115.5q-7 -43 -35 -69.5t-63 -26.5q-34 0 -54 24.5t-13 59.5q5 31 32.5 56.5t57.5 25.5q-7 43 -45 65.5t-88 22.5q-103 0 -168 -86t-101 -283q-32 -194 6 -279t136 -85q125 0 215 170q17 35 39 35q26 0 26 -29 q0 -21 -16 -45q-72 -116 -143 -159.5t-158 -43.5q-146 0 -214 120t-36 316z" />
<glyph unicode="&#x442;" horiz-adv-x="1462" d="M14 770q1 16 12 25.5t23 9.5l36 -1q36 -1 95 -1q18 0 56 4t45 4q11 0 18 -10.5t4 -26.5l-31 -170q45 90 127.5 161t161.5 71q96 0 136.5 -63.5t31.5 -174.5q46 94 128.5 166t162.5 72q74 0 116 -40t49 -107.5t-7 -156.5l-68 -385q-17 -92 41 -92q47 0 85 66.5t60 183.5 q1 17 12.5 28t26.5 11t21.5 -10.5t3.5 -28.5q-10 -55 -27.5 -106.5t-46.5 -102t-74 -81.5t-100 -31q-64 0 -103.5 43t-25.5 123l78 450q15 85 -1.5 120.5t-70.5 35.5q-86 0 -180 -120.5t-121 -273.5l-63 -358q0 -10 -15 -10q-7 0 -20.5 3t-28.5 3q-14 0 -30.5 -3t-22.5 -3 q-10 0 -10 10l104 596q15 85 -1.5 120.5t-70.5 35.5q-86 0 -179 -120.5t-120 -273.5l-63 -358q0 -10 -14 -10q-7 0 -21.5 3t-28.5 3q-15 0 -31.5 -3t-21.5 -3q-12 0 -12 10l131 735q-60 0 -96 -3l-37 -3q-12 0 -19.5 10.5t-3.5 26.5z" />
<glyph unicode="&#x443;" d="M-201 -455q6 32 33 55t59 23q29 0 50 -25t12 -57q42 7 112.5 95t114.5 184l74 143v692q0 93 -57 93q-49 0 -87.5 -66.5t-58.5 -183.5q-3 -18 -13.5 -29.5t-25.5 -11.5q-30 0 -26 41q11 56 28.5 106.5t46 102t73 82t99.5 30.5q67 0 109.5 -40t42.5 -128v-432l213 418 q89 178 207 178q44 0 65.5 -28t16.5 -64q-8 -31 -34 -53.5t-58 -22.5q-27 0 -47 21.5t-17 46.5q-37 -15 -78 -90l-422 -834q-79 -154 -170 -246t-180 -92q-43 0 -65.5 28.5t-16.5 63.5z" />
<glyph unicode="&#x444;" horiz-adv-x="1335" d="M58 274q1 62 10 127q13 80 46.5 156.5t82 139t117 101t143.5 38.5q48 0 94 -24.5t65 -57.5l29 166q18 102 41.5 181.5t51 130.5t55 85.5t58.5 51.5t57 23.5t55 6.5q68 0 105.5 -46.5t27.5 -101.5q-6 -36 -29 -58t-55 -22q-31 0 -48.5 21.5t-11.5 52.5q5 24 22.5 43.5 t43.5 26.5q-6 14 -24 25.5t-36 11.5q-37 0 -61.5 -15t-47 -64t-38.5 -138l-68 -381q97 82 193 82q75 0 128.5 -38.5t77.5 -100.5t31.5 -140t-8.5 -158q-18 -108 -69 -205t-135.5 -163t-182.5 -66q-48 0 -94.5 24.5t-65.5 57.5l-20 -115q-21 -122 -51.5 -211.5t-61 -140 t-68.5 -80t-68 -38.5t-66 -9q-68 0 -105.5 46.5t-27.5 101.5q6 36 28.5 58t54.5 22q31 0 48.5 -21.5t11.5 -52.5q-5 -24 -22.5 -43.5t-43.5 -26.5q6 -14 24 -25.5t36 -11.5q37 0 61.5 15t47 64t38.5 138l58 330q-97 -82 -193 -82q-61 0 -108.5 25t-74.5 67t-43 98.5 t-15 118.5zM199 228.5q1 -55.5 12.5 -95.5t42.5 -69t80 -29q84 0 172 88l96 559q-48 88 -143 88q-93 0 -155.5 -102t-90.5 -267q-7 -41 -11 -79t-3 -93.5zM633 123q48 -88 143 -88q92 0 155 102t91 266q7 41 11.5 79t3 94t-12.5 96t-42 69t-79 29q-84 0 -172 -88z" />
<glyph unicode="&#x445;" d="M-59 68q4 31 31 53t59 22q30 0 51 -24t12 -58q52 9 124.5 105t94.5 225q15 85 20.5 146.5t1 113t-25 77.5t-57.5 26q-54 0 -102 -70.5t-70 -185.5q-2 -17 -13 -29t-26 -12t-21.5 11.5t-3.5 29.5q9 53 30 106t53 103t79.5 81t102.5 31q22 0 42 -4t44 -18t41.5 -36.5 t29 -63.5t11.5 -95q64 108 141 162.5t145 54.5q44 0 65 -25t15 -59q-4 -32 -30.5 -54t-59.5 -22q-29 0 -49.5 24t-13.5 58q-52 -9 -124 -104.5t-96 -224.5q-15 -84 -20 -146.5t0 -113.5t26 -77t58 -26q55 0 102.5 71t67.5 185q3 17 13.5 28t25.5 11q29 0 26 -39 q-10 -53 -30.5 -106t-52.5 -103t-79 -81t-102 -31q-22 0 -42 4t-44.5 18t-42 36.5t-29.5 63.5t-12 95q-64 -108 -141.5 -162.5t-145.5 -54.5q-44 0 -64.5 25t-14.5 59z" />
<glyph unicode="&#x446;" horiz-adv-x="1003" d="M14 770q1 16 12 25.5t23 9.5l36 -1q36 -1 95 -1q18 0 56 4t45 4q11 0 18 -10.5t4 -26.5l-100 -571q-6 -40 -6 -68q0 -46 18.5 -67t60.5 -21q56 0 118.5 55.5t112.5 147.5t68 192l64 357q3 10 12 10q8 0 22 -3t29 -3q14 0 31 3t21 3q12 0 12 -10l-115 -652q-17 -92 54 -92 q48 0 88 51q41 55 56 71t28 16q10 0 19 -7.5t9 -21.5q0 -21 -33 -49l-41 -41q-36 -36 -36 -84q0 -54 6 -105.5t6 -81.5q0 -61 -25 -122q-21 -47 -67.5 -81t-96.5 -34q-46 0 -80 25t-34 67q0 35 31 35q14 0 21.5 -11.5t10 -24.5t16 -24.5t38.5 -11.5q26 0 39.5 19t13.5 49 q0 16 -5 63t-5 78q0 72 55 164q-29 -10 -66 -10q-64 0 -103.5 43t-25.5 123l8 51q-44 -88 -126.5 -160t-161.5 -72q-166 0 -166 197q0 41 10 106l82 467q-60 0 -96 -3l-37 -3q-12 0 -19.5 10.5t-3.5 26.5z" />
<glyph unicode="&#x447;" horiz-adv-x="716" d="M-51 659q0 68 59.5 114t124.5 46q44 0 88.5 -17.5t74.5 -38.5t62.5 -38.5t53.5 -17.5q29 0 43 20l43 59q23 33 49 33q9 0 18.5 -7.5t9.5 -16.5q0 -17 -12 -35q-148 -191 -213 -333.5t-65 -260.5q0 -64 27 -96.5t67 -32.5q56 0 101 67.5t65 182.5q3 17 14.5 28t26.5 11 q31 0 24 -39q-9 -45 -21 -84.5t-34.5 -85t-52 -77.5t-75 -53.5t-99.5 -21.5q-73 0 -127 43t-54 135q0 196 250 496q-40 -12 -86 -12t-88 15.5t-67 33.5t-51.5 33.5t-45.5 15.5q-21 0 -37 -17.5t-16 -39.5q0 -25 25 -39q11 -8 14.5 -20t-4.5 -25q-10 -13 -24 -15t-23 6 q-45 25 -45 84z" />
<glyph unicode="&#x448;" horiz-adv-x="1460" d="M14 770q1 16 12 25.5t23 9.5l36 -1q36 -1 95 -1q18 0 56 4t45 4q11 0 18 -10.5t4 -26.5l-100 -571q-14 -85 2 -120.5t71 -35.5q56 0 118.5 55.5t112.5 147.5t68 192l64 357q3 10 12 10q8 0 22 -3t29 -3q14 0 31 3t21 3q12 0 12 -10l-104 -596q-14 -85 1.5 -120.5 t69.5 -35.5q56 0 118.5 55.5t112.5 147.5t68 192l64 357q3 10 12 10q8 0 22 -3t29 -3q14 0 30.5 3t20.5 3q13 0 13 -10l-115 -652q-17 -92 41 -92q47 0 85 67t58 183q3 17 14.5 28t26.5 11t21.5 -10.5t3.5 -28.5q-11 -56 -28.5 -106.5t-46.5 -102t-73.5 -82t-99.5 -30.5 q-64 0 -103.5 43t-25.5 123l8 51q-44 -88 -127 -160t-162 -72q-94 0 -134 62t-34 170q-44 -88 -126.5 -160t-161.5 -72q-74 0 -115.5 40t-48 107t7.5 156l82 467q-60 0 -96 -3l-37 -3q-12 0 -19.5 10.5t-3.5 26.5z" />
<glyph unicode="&#x449;" horiz-adv-x="1460" d="M14 770q1 16 12 25.5t23 9.5l36 -1q36 -1 95 -1q18 0 56 4t45 4q11 0 18 -10.5t4 -26.5l-100 -571q-14 -85 2 -120.5t71 -35.5q56 0 118.5 55.5t112.5 147.5t68 192l64 357q3 10 12 10q8 0 22 -3t29 -3q14 0 31 3t21 3q12 0 12 -10l-104 -596q-14 -85 1.5 -120.5 t69.5 -35.5q56 0 118.5 55.5t112.5 147.5t68 192l64 357q3 10 12 10q8 0 22 -3t29 -3q14 0 30.5 3t20.5 3q13 0 13 -10l-115 -652q-17 -92 53 -92q48 0 88 51q41 55 56 71t28 16q11 0 20 -7.5t9 -21.5q0 -21 -33 -49l-41 -41q-37 -37 -37 -84q0 -54 6.5 -105.5t6.5 -81.5 q0 -61 -25 -122q-21 -47 -67.5 -81t-96.5 -34q-46 0 -80 25t-34 67q0 35 30 35q14 0 21.5 -11.5t10 -24.5t16 -24.5t38.5 -11.5q26 0 39.5 19t13.5 49q0 16 -5 63t-5 78q0 71 56 164q-29 -10 -66 -10q-64 0 -103.5 43t-25.5 123l8 51q-44 -88 -127 -160t-162 -72 q-94 0 -134 62t-34 170q-44 -88 -126.5 -160t-161.5 -72q-74 0 -115.5 40t-48 107t7.5 156l82 467q-60 0 -96 -3l-37 -3q-12 0 -19.5 10.5t-3.5 26.5z" />
<glyph unicode="&#x44a;" horiz-adv-x="849" d="M-102 659q0 68 59.5 114t124.5 46q44 0 84.5 -17.5t65.5 -38.5t53 -38.5t49 -17.5q17 0 36.5 17.5t35 38.5t35 38.5t36.5 17.5q12 0 20.5 -7t8.5 -19q0 -16 -14 -33q-115 -143 -179 -303q93 84 213 84q112 0 170 -60t58 -159q0 -148 -101 -252.5t-243 -104.5 q-145 0 -214 73.5t-69 186.5q0 198 197 422q-50 -20 -84 -20q-46 0 -84.5 15.5t-60 33.5t-45 33.5t-42.5 15.5q-21 0 -37 -17.5t-16 -39.5q0 -25 25 -39q11 -8 14.5 -20t-4.5 -25q-10 -13 -24.5 -14.5t-22.5 5.5q-45 29 -45 84zM262 227q0 -200 158 -200q88 0 141 80.5 t53 199.5q0 71 -33 118.5t-104 47.5q-103 0 -190 -90q-25 -83 -25 -156z" />
<glyph unicode="&#x44b;" horiz-adv-x="1220" d="M2 770q4 17 15.5 27t23.5 10l36 -2q36 -2 95 -2q18 0 53.5 4t42.5 4q13 0 21.5 -10.5t5.5 -24.5l-70 -315q107 80 228 80q100 0 151 -60.5t51 -167.5q0 -144 -98.5 -246t-241.5 -102q-77 0 -129 23.5t-77.5 59.5t-34 92t-4 109t17.5 122l72 368q-59 0 -95 -2l-36 -2 q-13 0 -20.5 9t-6.5 26zM197 283q-39 -256 116 -256q85 0 144 82t59 206q0 158 -123 158q-40 0 -88.5 -17.5t-89.5 -54.5zM741 150l103 649q3 10 12 10q8 0 22 -3t29 -3q14 0 32 3t22 3q12 0 12 -10l-105 -652q-15 -92 41 -92q49 0 86.5 66t59.5 184q1 17 12.5 28t26.5 11 q31 0 24 -39q-10 -55 -27.5 -106.5t-46 -102.5t-73 -81.5t-99.5 -30.5q-65 0 -104.5 43t-26.5 123z" />
<glyph unicode="&#x44c;" horiz-adv-x="804" d="M2 770q4 17 15.5 27t23.5 10l36 -2q36 -2 95 -2q18 0 53.5 4t42.5 4q13 0 21.5 -10.5t5.5 -24.5l-62 -315q110 80 234 80q106 0 164.5 -61t58.5 -167q0 -142 -104.5 -245t-249.5 -103q-77 0 -130 23.5t-80 60t-37 92t-7.5 109t14.5 121.5l64 368q-59 0 -95 -2l-36 -2 q-13 0 -20.5 9t-6.5 26zM207 283q-19 -124 13.5 -190t113.5 -66q86 0 151.5 82.5t65.5 205.5q0 74 -37.5 116t-105.5 42q-41 0 -92.5 -18t-92.5 -54z" />
<glyph unicode="&#x44d;" horiz-adv-x="790" d="M12 150q6 35 30.5 57t55.5 22q30 0 48 -20t12 -49q-3 -20 -18 -37.5t-36 -26.5q14 -30 47.5 -47.5t79.5 -17.5q110 0 177 85.5t98 262.5q-55 -62 -107 -62q-31 0 -90 41t-90 41q-19 0 -30.5 -10.5t-19 -21.5t-15.5 -11q-13 0 -13 15q0 35 43 79t86 44q38 0 98 -41t85 -41 q37 0 63 39q8 66 8 112q0 88 -39.5 146.5t-128.5 58.5q-117 0 -219 -166q-15 -22 -35 -20q-22 6 -22 28q0 21 23 58t61.5 75t98.5 65.5t124 27.5q142 0 210.5 -86.5t68.5 -227.5q0 -114 -38.5 -218.5t-100.5 -178t-142.5 -117t-163.5 -43.5q-99 0 -161.5 52t-47.5 133z" />
<glyph unicode="&#x44e;" horiz-adv-x="1212" d="M14 770q1 16 12 25.5t23 9.5l36 -1q36 -1 95 -1q18 0 56 4t45 4q11 0 18 -10.5t4 -26.5l-57 -323h160q42 170 158 277.5t249 107.5q142 0 219.5 -122t44.5 -313t-154 -313.5t-264 -122.5q-140 0 -217.5 118t-48.5 304h-157l-68 -383q0 -10 -14 -10q-7 0 -21.5 3t-28.5 3 q-15 0 -31.5 -3t-21.5 -3q-12 0 -12 10l131 735q-60 0 -96 -3l-37 -3q-12 0 -19.5 10.5t-3.5 26.5zM536.5 115q31.5 -82 135.5 -82q103 0 164 84t96 284q34 203 4 286t-133 83q-104 0 -166 -84.5t-98 -284.5q-34 -204 -2.5 -286z" />
<glyph unicode="&#x44f;" horiz-adv-x="933" d="M-57 84q0 24 8.5 37.5t21.5 13.5q23 0 23 -29q0 -61 41 -61q22 0 38 23t25.5 57.5t25 76t33 78.5t52 65.5t80.5 35.5q-33 3 -63.5 14.5t-58 32.5t-44 58t-16.5 85q0 68 28 119.5t76 80t104 42.5t119 14q37 0 134.5 -9.5t113.5 -8.5q12 0 12 -10l-114 -652q-15 -92 41 -92 q48 0 85.5 66t59.5 184q1 17 12.5 28t26.5 11q31 0 24 -39q-8 -43 -19.5 -84t-32.5 -85.5t-47 -77t-64 -53.5t-82 -21q-66 0 -105.5 43t-25.5 123l39 221h-76q-48 0 -81 -21.5t-51 -55.5t-31 -75t-27 -82.5t-33 -75.5t-54 -55.5t-86 -21.5q-63 0 -87.5 31.5t-24.5 68.5z M233 578q0 -89 52.5 -123.5t140.5 -34.5h78l57 338q-105 18 -133 18q-83 0 -139 -50t-56 -148z" />
<glyph unicode="&#x451;" horiz-adv-x="751" d="M37 401q17 98 62 181.5t104 138t125.5 85t130.5 30.5q96 0 150 -53t40 -132q-9 -52 -36 -96t-66.5 -75t-84.5 -54.5t-97.5 -38.5t-98 -24t-92.5 -13q-19 -151 19 -232t131 -81q158 0 239 170q17 35 41 35q12 0 19.5 -8.5t7.5 -22.5q0 -15 -10 -35q-37 -62 -78 -105 t-84 -65.5t-83 -31.5t-87 -9q-138 0 -211.5 123t-40.5 313zM184 414q78 7 146.5 31t125 76.5t70.5 125.5q9 54 -12 88.5t-65 34.5q-100 0 -166.5 -94t-98.5 -262zM274 1137q6 33 33.5 55t61.5 22q33 0 51 -22t12 -55q-6 -34 -32 -56t-60 -22t-52.5 22t-13.5 56zM575 1137 q6 34 32.5 55.5t60.5 21.5t52.5 -21.5t12.5 -55.5t-33 -56t-61 -22q-32 0 -50.5 22t-13.5 56z" />
<glyph unicode="&#x452;" horiz-adv-x="897" d="M6 4l178 1006h-6q-44 0 -86.5 -2t-44.5 -2q-12 0 -19 9t-3 25q1 16 11.5 25.5t22.5 9.5q53 0 131 -2h5l32 176q-59 0 -95 -2l-36 -2q-13 0 -20 9t-6 26q4 17 15.5 27t23.5 10l35 -2q36 -2 96 -2q18 0 53.5 4t42.5 4q12 0 19.5 -10t6.5 -25l-38 -213h94q88 2 160 2 q12 0 19.5 -9.5t4.5 -25.5t-14 -25t-23 -9q-1 0 -54 2t-105 2h-93l-71 -406q45 90 130.5 161t170.5 71q95 0 145.5 -63t50.5 -183q0 -131 -21 -281.5t-64.5 -302.5t-103.5 -275t-146 -200.5t-183 -77.5q-75 0 -118.5 48.5t-34.5 111.5q6 38 30 59t58 21q31 0 50 -22t13 -52 q-11 -54 -65 -70q6 -14 26.5 -25t46.5 -11q72 0 136 82.5t106.5 207t73.5 273t45 279.5t14 227q0 89 -20.5 128.5t-65.5 39.5q-93 0 -192 -119.5t-125 -268.5l-64 -358q-3 -10 -14 -10q-7 0 -20.5 3t-28.5 3q-14 0 -31 -3t-23 -3q-12 0 -12 10z" />
<glyph unicode="&#x453;" horiz-adv-x="727" d="M29 164q3 49 19.5 87t47.5 66.5t61.5 49t75.5 46.5q9 5 13 7l90 53q57 34 83.5 75.5t29.5 100.5q3 49 -23 82t-84 33q-47 0 -87 -26t-83 -89q-11 -17 -19 -24t-22 -7q-10 0 -17.5 8t-7.5 17q0 58 78.5 125.5t188.5 67.5q108 0 165 -52t52 -139q-1 -28 -7.5 -51.5 t-21 -43.5t-26.5 -33.5t-37.5 -30t-39.5 -25t-46.5 -25t-46.5 -24.5l-80 -45q-109 -61 -119 -183q-5 -62 28.5 -102.5t102.5 -40.5q60 0 102 33.5t88 107.5q22 33 41 33q15 -2 23 -16.5t0 -32.5q-32 -59 -67 -99.5t-94.5 -71t-133.5 -30.5q-104 0 -168.5 52.5t-58.5 146.5z M295 937.5q0 9.5 10 18.5q54 39 99.5 80t68.5 67t43 48t29 29q22 17 48 14t38 -23q14 -19 6.5 -45t-29.5 -41q-11 -8 -49.5 -24.5t-101.5 -50.5t-131 -84q-11 -8 -21 -3t-10 14.5z" />
<glyph unicode="&#x454;" horiz-adv-x="735" d="M37 401q35 195 146 315t257 120q98 0 159 -52t46 -133q-6 -35 -30.5 -57.5t-55.5 -22.5q-30 0 -47.5 20.5t-11.5 49.5q3 20 17.5 37.5t35.5 26.5q-14 30 -44 47.5t-69 17.5q-93 0 -155 -79.5t-99 -262.5q52 66 107 66q31 0 90 -41t90 -41q19 0 31 11t19.5 21.5t15.5 10.5 q12 0 12 -15q0 -35 -43 -79t-86 -44q-37 0 -98 41t-93 41q-29 0 -55 -39q-24 -172 15.5 -247.5t132.5 -75.5q125 0 215 170q17 35 39 35q26 0 26 -29q0 -21 -16 -45q-72 -116 -143 -159.5t-158 -43.5q-146 0 -214 120t-36 316z" />
<glyph unicode="&#x455;" horiz-adv-x="698" d="M-6 170q0 54 27.5 80t66.5 26q28 0 45 -19t17 -42q0 -30 -23.5 -53.5t-50.5 -26.5q23 -50 73 -78t113 -28q71 0 122.5 42.5t51.5 114.5q0 85 -162 162q-88 44 -132 103t-44 143q0 64 26.5 113.5t68.5 76.5t85 40.5t84 13.5q96 0 153.5 -47.5t57.5 -108.5 q0 -41 -23.5 -66.5t-55.5 -25.5q-29 0 -47.5 19t-12.5 44q3 41 53 64q-8 24 -44.5 41.5t-88.5 17.5q-68 0 -111.5 -39.5t-43.5 -103.5q0 -45 33 -80.5t106 -69.5q201 -94 201 -260q0 -119 -83 -189.5t-198 -70.5q-118 0 -191 66.5t-73 140.5z" />
<glyph unicode="&#x456;" horiz-adv-x="546" d="M14 770q1 16 12 25.5t23 9.5l36 -1q36 -1 95 -1q18 0 56 4t45 4q11 0 18 -10.5t4 -26.5l-110 -627q-15 -92 40 -92q49 0 87.5 66.5t58.5 183.5q3 17 13.5 28t25.5 11q29 0 26 -39q-11 -56 -28.5 -106.5t-46 -102t-73 -82t-99.5 -30.5q-64 0 -103.5 43t-25.5 123l102 589 q-60 0 -96 -3l-37 -3q-12 0 -19.5 10.5t-3.5 26.5zM223 1137q6 33 33 55t61 22t53 -22t13 -55q-6 -34 -33 -56t-61 -22t-52.5 22t-13.5 56z" />
<glyph unicode="&#x457;" horiz-adv-x="546" d="M14 770q1 16 12 25.5t23 9.5l36 -1q36 -1 95 -1q18 0 56 4t45 4q11 0 18 -10.5t4 -26.5l-110 -627q-15 -92 40 -92q49 0 87.5 66.5t58.5 183.5q3 17 13.5 28t25.5 11q29 0 26 -39q-11 -56 -28.5 -106.5t-46 -102t-73 -82t-99.5 -30.5q-64 0 -103.5 43t-25.5 123l102 589 q-60 0 -96 -3l-37 -3q-12 0 -19.5 10.5t-3.5 26.5zM84 1135q6 33 33 55t61 22q33 0 51.5 -22t12.5 -55q-6 -34 -32 -56t-60 -22t-52.5 22t-13.5 56zM354 1135q6 34 32 55.5t60 21.5t53 -22t13 -55q-6 -34 -33 -56t-61 -22q-32 0 -50.5 22t-13.5 56z" />
<glyph unicode="&#x458;" horiz-adv-x="413" d="M-256 -399q6 35 30 57.5t56 22.5q30 0 47 -21.5t12 -52.5q-6 -24 -24 -43.5t-43 -26.5q6 -37 59 -37q32 0 57.5 34t34.5 85l197 1120q-60 0 -96 -3l-37 -3q-12 0 -19.5 10.5t-3.5 26.5q1 16 12 25.5t23 9.5l36 -1q36 -1 95 -1q18 0 56 4t45 4q11 0 18 -10.5t4 -26.5 l-182 -1038q-22 -130 -84.5 -206.5t-151.5 -76.5q-78 0 -114.5 45.5t-26.5 102.5zM221 1137q6 33 32.5 55t59.5 22q34 0 53 -21.5t15 -55.5q-6 -34 -33 -56t-61 -22t-53 22t-13 56z" />
<glyph unicode="&#x459;" horiz-adv-x="1216" d="M-57 74q0 34 25 60t61 26q42 0 62.5 -31t2.5 -70q33 8 62.5 46t51 89t45 136t40 159t40.5 186q9 41 13 62q-21 0 -58.5 -2t-41.5 -2q-12 0 -19.5 10.5t-3.5 26.5q1 16 12 25.5t23 9.5q3 0 30.5 -1t67.5 -1h269q18 0 55.5 4t44.5 4q11 0 18.5 -10.5t4.5 -26.5l-56 -313 q55 41 104 60.5t113 19.5q95 0 144 -60.5t49 -158.5q0 -146 -94 -251.5t-236 -105.5q-74 0 -124.5 23t-75.5 60t-33.5 92.5t-4.5 109t17 121.5l63 368q-153 0 -206 -2q-11 -49 -26.5 -126.5t-25.5 -125t-25.5 -114t-29 -108t-32.5 -91t-40.5 -79t-48.5 -56.5t-60.5 -39 t-72.5 -12q-50 0 -77 26.5t-27 61.5zM662 283q-20 -130 9 -193t99 -63q83 0 138 85.5t55 211.5q0 149 -113 149q-88 0 -168 -72z" />
<glyph unicode="&#x45a;" horiz-adv-x="1177" d="M14 770q1 16 12 25.5t23 9.5l36 -1q36 -1 95 -1q18 0 56 4t45 4q11 0 18 -10.5t4 -26.5l-57 -323h282l62 348q3 10 12 10q8 0 22 -3t29 -3q14 0 32 3t22 3q12 0 12 -10l-62 -334q53 39 101.5 57.5t111.5 18.5q95 0 144 -60.5t49 -158.5q0 -146 -94 -251.5t-236 -105.5 q-84 0 -138 28t-74.5 77t-24 115t11.5 141l10 61h-282l-68 -383q0 -10 -14 -10q-7 0 -21.5 3t-28.5 3q-15 0 -31.5 -3t-21.5 -3q-12 0 -12 10l131 735q-60 0 -96 -3l-37 -3q-12 0 -19.5 10.5t-3.5 26.5zM625 283q-22 -129 7 -192.5t99 -63.5q83 0 138 85.5t55 211.5 q0 149 -113 149q-85 0 -166 -70z" />
<glyph unicode="&#x45b;" horiz-adv-x="999" d="M6 4l178 1006h-6q-44 0 -86.5 -2t-44.5 -2q-12 0 -19 9t-3 25q1 16 11.5 25.5t22.5 9.5q53 0 131 -2h5l32 176q-59 0 -95 -2l-36 -2q-13 0 -20 9t-6 26q4 17 15.5 27t23.5 10l35 -2q36 -2 96 -2q18 0 53.5 4t42.5 4q12 0 19.5 -10t6.5 -25l-38 -213h94q88 2 160 2 q12 0 19.5 -9.5t4.5 -25.5t-14 -25t-23 -9q-1 0 -54 2t-105 2h-93l-71 -406q45 90 130.5 161t170.5 71q114 0 154.5 -82.5t15.5 -221.5l-68 -385q-15 -92 41 -92q49 0 86.5 66.5t58.5 183.5q3 17 13.5 28t25.5 11q30 0 27 -39q-11 -56 -28.5 -106.5t-46.5 -102t-73.5 -82 t-99.5 -30.5q-66 0 -105.5 43t-25.5 123l78 444q15 84 -3.5 120t-76.5 36q-93 0 -192 -119.5t-125 -268.5l-64 -358q-3 -10 -14 -10q-7 0 -20.5 3t-28.5 3q-14 0 -31 -3t-23 -3q-12 0 -12 10z" />
<glyph unicode="&#x45c;" horiz-adv-x="905" d="M14 770q4 17 15.5 27t23.5 10l35 -2q36 -2 96 -2q18 0 54 4t43 4q12 0 19.5 -10t6.5 -25l-55 -317h47q54 0 92 37t62 90t49.5 106t70.5 90t109 37q60 0 95 -37.5t26 -87.5q-7 -39 -32.5 -61.5t-61.5 -22.5t-56.5 23.5t-13.5 58.5q8 34 37 56q-12 6 -33 6q-33 0 -64.5 -45 t-53.5 -100t-56 -104t-72 -56q28 -3 50 -9t45.5 -17.5t37.5 -28.5t26.5 -44t11.5 -62.5t-7 -84.5l-10 -56q-17 -92 41 -92q90 0 135 203q1 17 12.5 28t26.5 11t22 -11t3 -28q-67 -274 -238 -274q-64 0 -103 43t-26 123l10 67q26 180 -145 180h-49l-70 -393q0 -10 -14 -10 q-7 0 -21 3t-29 3q-14 0 -30.5 -3t-22.5 -3q-12 0 -12 10l131 735q-59 0 -95 -2l-36 -2q-13 0 -20.5 9t-6.5 26zM357 937.5q0 9.5 10 18.5q69 51 121.5 101t80.5 83t37 40q22 17 48 14t38 -23q14 -19 7 -45t-29 -41q-11 -8 -49.5 -24.5t-102 -50.5t-131.5 -84 q-11 -8 -20.5 -3t-9.5 14.5z" />
<glyph unicode="&#x45e;" d="M-201 -455q6 32 33 55t59 23q29 0 50 -25t12 -57q42 7 112.5 95t114.5 184l74 143v692q0 93 -57 93q-49 0 -87.5 -66.5t-58.5 -183.5q-3 -18 -13.5 -29.5t-25.5 -11.5q-30 0 -26 41q11 56 28.5 106.5t46 102t73 82t99.5 30.5q67 0 109.5 -40t42.5 -128v-432l213 418 q89 178 207 178q44 0 65.5 -28t16.5 -64q-8 -31 -34 -53.5t-58 -22.5q-27 0 -47 21.5t-17 46.5q-37 -15 -78 -90l-422 -834q-79 -154 -170 -246t-180 -92q-43 0 -65.5 28.5t-16.5 63.5zM328 1139q0 39 22.5 67.5t61.5 28.5q33 0 52 -19.5t19 -50.5q0 -43 -41 -78 q28 -38 103 -38q61 0 106 40.5t72 106.5q12 31 31 31q26 0 26 -29q0 -21 -15.5 -54t-44 -68.5t-79.5 -61t-113 -25.5q-88 0 -144 39.5t-56 110.5z" />
<glyph unicode="&#x45f;" horiz-adv-x="1003" d="M14 770q1 16 12 25.5t23 9.5l36 -1q36 -1 95 -1q18 0 56 4t45 4q11 0 18 -10.5t4 -26.5l-100 -571q-14 -85 2 -120.5t71 -35.5q56 0 118.5 55.5t112.5 147.5t68 192l64 357q3 10 12 10q8 0 22 -3t29 -3q14 0 31 3t21 3q12 0 12 -10l-115 -652q-17 -92 41 -92 q47 0 85.5 67t58.5 183q3 17 14.5 28t26.5 11q31 0 24 -39q-11 -56 -28.5 -106.5t-46.5 -102t-73.5 -82t-99.5 -30.5q-64 0 -103.5 43t-25.5 123l8 51q-44 -88 -126.5 -160t-161.5 -72q-74 0 -115.5 40t-48 107t7.5 156l82 467q-60 0 -96 -3l-37 -3q-12 0 -19.5 10.5 t-3.5 26.5zM262 -516q0 -11 8 -21t21 -10q45 0 107.5 71.5t62.5 151.5q0 44 -16.5 95.5t-16.5 83.5q0 19 12.5 34t27.5 23.5t27.5 18t12.5 18.5q0 11 -8 21t-21 10q-45 0 -107.5 -73t-62.5 -151q-1 -45 16 -96t17 -82q0 -19 -12.5 -34t-27.5 -23.5t-27.5 -18t-12.5 -18.5z " />
<glyph unicode="&#x490;" horiz-adv-x="860" d="M-35 29q4 17 15.5 27t23.5 10l36 -2q36 -1 95 -1l209 1188q-60 0 -96 -1l-37 -1q-12 0 -19.5 10.5t-3.5 26.5q1 14 12.5 24.5t22.5 10.5q4 0 20 -2.5t60.5 -5t118.5 -2.5h223q71 0 120.5 17t80 53t47.5 81t29 111q2 13 11 22t23 9q29 0 25 -31q-1 -6 -11 -51.5 t-22.5 -102.5t-19.5 -94l-10 -63q-1 -14 -12 -24.5t-21 -10.5q-59 0 -189.5 5.5t-208.5 6.5l-206 -1176q59 0 95 1l36 2q11 0 19 -10.5t5 -26.5t-13.5 -25.5t-23.5 -9.5q-4 0 -19.5 2.5t-60 5t-118.5 2.5h-8q-73 0 -118 -2.5t-62 -5t-21 -2.5q-13 0 -20.5 9t-6.5 26z" />
<glyph unicode="&#x491;" horiz-adv-x="727" d="M45 164q3 49 19.5 87t47.5 66.5t61.5 49t75.5 46.5q9 5 13 7l90 53q57 34 83.5 75.5t29.5 100.5q3 49 -23 82t-84 33q-47 0 -87 -26t-83 -89q-11 -17 -19 -24t-22 -7q-24 0 -24 29q0 11 19.5 81.5t21.5 127.5q5 97 20.5 142.5t55.5 45.5q22 0 34.5 -15t12.5 -40 q0 -26 -11.5 -57.5t-36.5 -86.5t-42 -102q89 93 196 93q106 0 162 -52t51 -139q-1 -28 -7.5 -51.5t-21 -43.5t-26.5 -33.5t-37.5 -30t-39.5 -25t-46.5 -25t-46.5 -24.5l-80 -45q-109 -61 -119 -183q-5 -62 28.5 -102.5t102.5 -40.5q60 0 102.5 33.5t88.5 107.5q22 33 41 33 q15 -2 22.5 -16t-0.5 -33q-32 -59 -67 -99.5t-94.5 -71t-133.5 -30.5q-104 0 -168.5 52.5t-58.5 146.5z" />
<glyph unicode="&#x2000;" horiz-adv-x="868" />
<glyph unicode="&#x2001;" horiz-adv-x="1737" />
<glyph unicode="&#x2002;" horiz-adv-x="868" />
<glyph unicode="&#x2003;" horiz-adv-x="1737" />
<glyph unicode="&#x2004;" horiz-adv-x="579" />
<glyph unicode="&#x2005;" horiz-adv-x="434" />
<glyph unicode="&#x2006;" horiz-adv-x="289" />
<glyph unicode="&#x2007;" horiz-adv-x="289" />
<glyph unicode="&#x2008;" horiz-adv-x="217" />
<glyph unicode="&#x2009;" horiz-adv-x="347" />
<glyph unicode="&#x200a;" horiz-adv-x="96" />
<glyph unicode="&#x2010;" horiz-adv-x="835" d="M139 510q3 21 16.5 34t28.5 13q7 0 25 -2t62 -4t116 -2h16q73 0 117 2t61.5 4t24.5 2q16 0 26 -13t7 -34q-4 -21 -18.5 -33t-30.5 -12q-7 0 -23.5 2t-60 4t-117.5 2h-14q-74 0 -118.5 -2t-62 -4t-24.5 -2q-16 0 -25.5 12t-5.5 33z" />
<glyph unicode="&#x2011;" horiz-adv-x="835" d="M139 510q3 21 16.5 34t28.5 13q7 0 25 -2t62 -4t116 -2h16q73 0 117 2t61.5 4t24.5 2q16 0 26 -13t7 -34q-4 -21 -18.5 -33t-30.5 -12q-7 0 -23.5 2t-60 4t-117.5 2h-14q-74 0 -118.5 -2t-62 -4t-24.5 -2q-16 0 -25.5 12t-5.5 33z" />
<glyph unicode="&#x2012;" horiz-adv-x="835" d="M139 510q3 21 16.5 34t28.5 13q7 0 25 -2t62 -4t116 -2h16q73 0 117 2t61.5 4t24.5 2q16 0 26 -13t7 -34q-4 -21 -18.5 -33t-30.5 -12q-7 0 -23.5 2t-60 4t-117.5 2h-14q-74 0 -118.5 -2t-62 -4t-24.5 -2q-16 0 -25.5 12t-5.5 33z" />
<glyph unicode="&#x2013;" horiz-adv-x="1075" d="M-2 473v76h1077v-76h-1077z" />
<glyph unicode="&#x2014;" horiz-adv-x="1366" d="M-2 473v76h1368v-76h-1368z" />
<glyph unicode="&#x2018;" horiz-adv-x="475" d="M219 1106q22 122 195 258q18 13 30 1q12 -16 -16 -40q-72 -62 -107.5 -119t-35.5 -96q10 25 33 40t49 15q29 0 50 -24.5t15 -59.5q-6 -40 -38 -67t-75 -27q-57 0 -83 37.5t-17 81.5z" />
<glyph unicode="&#x2019;" horiz-adv-x="475" d="M206 970q-13 16 15 40q73 62 108.5 119t35.5 96q-10 -26 -33 -41t-49 -15q-29 0 -50.5 24.5t-15.5 59.5q6 40 38.5 67.5t74.5 27.5q57 0 83 -37.5t17 -81.5q-22 -123 -194 -258q-18 -13 -30 -1z" />
<glyph unicode="&#x201a;" horiz-adv-x="475" d="M-1 -208q-13 16 15 40q72 62 108 119t36 96q-10 -25 -34 -40t-50 -15q-30 0 -50 24t-14 60q6 40 38 67t75 27q56 0 80.5 -37t17.5 -82q-19 -120 -194 -258q-17 -13 -28 -1z" />
<glyph unicode="&#x201c;" horiz-adv-x="821" d="M219 1106q22 122 195 258q18 13 30 1q12 -16 -16 -40q-72 -62 -107.5 -119t-35.5 -96q10 25 33 40t49 15q29 0 50 -24.5t15 -59.5q-6 -40 -38 -67t-75 -27q-57 0 -83 37.5t-17 81.5zM565 1106q22 122 195 258q18 13 30 1q12 -16 -16 -40q-72 -62 -107.5 -119t-35.5 -96 q10 25 33 40t49 15q29 0 50 -24.5t15 -59.5q-6 -40 -38 -67t-74 -27q-57 0 -83.5 38t-17.5 81z" />
<glyph unicode="&#x201d;" horiz-adv-x="821" d="M206 970q-13 16 15 40q73 62 108.5 119t35.5 96q-10 -26 -33 -41t-49 -15q-29 0 -50.5 24.5t-15.5 59.5q6 40 38.5 67.5t74.5 27.5q57 0 83 -37.5t17 -81.5q-22 -123 -194 -258q-18 -13 -30 -1zM552 970q-13 16 15 40q73 62 108.5 119t35.5 96q-10 -26 -33 -41t-49 -15 q-29 0 -50.5 24.5t-15.5 59.5q6 40 38.5 67.5t74.5 27.5q57 0 83 -37.5t17 -81.5q-22 -123 -194 -258q-18 -13 -30 -1z" />
<glyph unicode="&#x201e;" horiz-adv-x="821" d="M-1 -208q-13 16 15 40q72 62 108 119t36 96q-10 -25 -34 -40t-50 -15q-30 0 -50 24t-14 60q6 40 38 67t75 27q56 0 80.5 -37t17.5 -82q-19 -120 -194 -258q-17 -13 -28 -1zM345 -208q-13 16 15 40q72 62 108 119t36 96q-10 -25 -34 -40t-50 -15q-30 0 -50 24t-14 60 q6 40 38 67t75 27q56 0 80.5 -37t17.5 -82q-19 -120 -194 -258q-17 -13 -28 -1z" />
<glyph unicode="&#x2020;" horiz-adv-x="958" d="M100 895q6 36 39 63t70 27q17 0 50.5 -15t94.5 -31t142 -19l2 14q14 111 10 165.5t-11.5 96.5t-4.5 59q6 37 38.5 65t69.5 28t59.5 -28t16.5 -65q-2 -15 -18 -42.5t-34.5 -57.5t-39 -89.5t-31.5 -131.5l-2 -14q82 3 148.5 19t105 31t55.5 15q38 0 60 -26.5t16 -63.5 t-38.5 -64.5t-70.5 -27.5q-17 0 -50.5 14.5t-93.5 30t-140 18.5l-29 -153q-18 -109 -12.5 -160t15.5 -94.5t7 -65.5q-5 -32 -58 -193.5t-67 -230.5l-98 -471q-7 -31 -30 -35q-20 -3 -25 20q-1 6 0 15l65 471q10 69 17 230.5t12 193.5q3 20 17.5 48.5t31 58t37 86.5t33.5 127 l28 153q-83 -3 -150 -18.5t-105.5 -30t-55.5 -14.5q-37 0 -59.5 27.5t-16.5 64.5z" />
<glyph unicode="&#x2021;" horiz-adv-x="958" d="M-76 -92q8 37 40.5 64.5t70.5 27.5q17 0 50.5 -14.5t94.5 -30t142 -18.5q22 133 22 135q18 109 13.5 159.5t-13 94t-4.5 67.5q3 21 18 49.5t32 57.5t37 86t32 127l26 153q-82 -3 -148.5 -18.5t-105 -30t-55.5 -14.5q-37 0 -60.5 27.5t-17.5 64.5q7 37 40.5 64.5 t70.5 27.5q17 0 50.5 -15.5t94.5 -32t142 -19.5l2 14q17 109 12.5 163.5t-13 97.5t-5.5 60q6 38 38 65.5t70 27.5q37 0 59.5 -27.5t16.5 -65.5q-3 -17 -26.5 -55t-52.5 -106.5t-46 -159.5l-2 -14q83 3 150 19.5t105.5 32t55.5 15.5q37 0 60 -27.5t16 -64.5q-6 -37 -39 -64.5 t-70 -27.5q-17 0 -50.5 14.5t-94.5 30t-143 18.5l-25 -153q-17 -109 -11.5 -159.5t15.5 -94t6 -66.5q-4 -21 -19.5 -50.5t-33.5 -58.5t-38.5 -85.5t-33.5 -126.5l-24 -135q83 3 150 18.5t105.5 30t55.5 14.5q37 0 60 -27.5t16 -64.5q-6 -37 -39 -64.5t-70 -27.5 q-17 0 -50.5 15.5t-94 31.5t-141.5 18l-2 -12q-17 -109 -11.5 -164t15 -98t6.5 -60q-7 -38 -39.5 -66t-69.5 -28t-60 28t-16 66q3 17 25.5 55.5t50 107t43.5 159.5l4 12q-83 -2 -149.5 -18t-105.5 -31.5t-56 -15.5q-37 0 -60.5 27.5t-17.5 64.5z" />
<glyph unicode="&#x2022;" horiz-adv-x="716" d="M186 580q10 64 66 109.5t121 45.5q66 0 103.5 -45t25.5 -110q-12 -66 -66 -112t-119 -46q-66 0 -104 46t-27 112z" />
<glyph unicode="&#x2026;" horiz-adv-x="1726" d="M76 78q8 40 41 69t73 29q39 0 63 -29.5t17 -68.5q-6 -38 -40 -66t-74 -28q-39 0 -62.5 27.5t-17.5 66.5zM651 78q7 40 41 69t72 29q40 0 64.5 -29t17.5 -69q-8 -38 -41.5 -66t-73.5 -28t-63.5 28t-16.5 66zM1225 78q8 40 41 69t73 29t63.5 -29t16.5 -69q-6 -38 -39.5 -66 t-72.5 -28q-40 0 -64 28t-18 66z" />
<glyph unicode="&#x202f;" horiz-adv-x="347" />
<glyph unicode="&#x2030;" horiz-adv-x="2285" d="M219 952q32 172 126 283t202 111q107 0 162.5 -111.5t23.5 -282.5q-30 -172 -123.5 -281.5t-201.5 -109.5q-107 0 -163 110t-26 281zM326.5 755.5q3.5 -73.5 25.5 -104t66 -30.5q66 0 111.5 75t76.5 256q31 189 14 261.5t-83 72.5q-67 0 -112.5 -75.5t-78.5 -258.5 q-23 -123 -19.5 -196.5zM401 0q-4 18 5 31q5 9 23.5 35.5t47.5 71t58 91.5l493 822q41 69 76 131t53.5 96t22.5 41q23 35 61 18q18 -7 22.5 -23.5t-3.5 -29.5q-4 -7 -27.5 -40.5t-61.5 -92.5t-79 -129l-492 -821q-30 -49 -55 -93t-43 -78t-19 -36q-8 -15 -24.5 -21t-34.5 2 q-19 7 -23 25zM930 360q30 171 125 282.5t202 111.5q108 0 163.5 -111t25.5 -283q-30 -171 -124.5 -281t-201.5 -110q-108 0 -164 110t-26 281zM1045.5 100.5q17.5 -71.5 84.5 -71.5q66 0 111 75t76 256q31 188 13.5 260t-83.5 72t-111.5 -75.5t-76.5 -256.5 q-31 -188 -13.5 -259.5zM1579 360q30 171 125.5 282.5t202.5 111.5t162.5 -111.5t25.5 -282.5t-125 -281t-203 -110q-107 0 -162.5 110t-25.5 281zM1686.5 163.5q3.5 -73.5 25.5 -104t66 -30.5q66 0 110.5 75t77.5 256q31 188 13.5 260t-83.5 72q-67 0 -112 -75t-78 -257 q-23 -123 -19.5 -196.5z" />
<glyph unicode="&#x2039;" horiz-adv-x="743" d="M129 481q-34 31 10 58l471 327q30 20 40 0q9 -22 -17 -47l-344 -319l233 -318q12 -18 9.5 -29.5t-17.5 -11t-31 14.5z" />
<glyph unicode="&#x203a;" horiz-adv-x="743" d="M27 154q-13 17 13 44q2 3 5 5l344 317l-233 320q-11 15 -7.5 27t16.5 12t30 -13l352 -327q19 -17 17 -29t-27 -29l-469 -325q-29 -19 -41 -2z" />
<glyph unicode="&#x2044;" horiz-adv-x="370" d="M-250 0q-5 18 4 31q2 4 47 68.5t82 129.5l494 822q91 153 151 268q10 15 26.5 20.5t35.5 -2.5q18 -7 23 -23.5t-3 -29.5q-2 -3 -20.5 -29.5t-35.5 -52t-48.5 -75.5t-63.5 -105l-493 -821q-40 -65 -76.5 -133t-40.5 -74q-8 -15 -24 -21t-35 2q-18 7 -23 25z" />
<glyph unicode="&#x205f;" horiz-adv-x="434" />
<glyph unicode="&#x20ac;" horiz-adv-x="1110" d="M16 537q3 20 18 32.5t32 12.5q7 0 20.5 -1.5t37 -3.5t50.5 -4q2 15 6 42.5t6 41.5l19 93q-38 -1 -72.5 -4t-40.5 -3q-16 0 -26 13.5t-7 34.5q3 20 18 32.5t32 12.5q9 0 43.5 -3.5t72.5 -5.5q75 252 215.5 386.5t298.5 134.5t230 -121q33 37 39 78q6 34 34 34q34 0 27 -32 l-74 -426q-7 -33 -37 -33q-33 0 -24 33q17 84 13.5 154.5t-24.5 122.5t-68.5 81t-119.5 29q-49 0 -97 -23t-97.5 -72t-94.5 -137.5t-77 -208.5h94q78 0 135 2.5t84.5 4.5t34.5 2q16 0 25.5 -12t5.5 -33t-18 -34.5t-30 -13.5q-7 0 -33.5 1.5t-82.5 3.5t-135 2h-99 q-3 -12 -18 -93q-2 -16 -6.5 -45t-6.5 -39h50q78 0 135 2.5t84.5 4.5t34.5 2q16 0 25 -12t5 -33t-18 -34.5t-29 -13.5q-7 0 -33.5 1.5t-83 3.5t-135.5 2h-43q-10 -106 -1 -183t26.5 -128t48.5 -82t63.5 -43.5t71.5 -12.5q266 0 334 387q5 33 37 33q28 0 24 -33l-75 -426 q-3 -13 -4.5 -18t-10.5 -11t-24 -6q-27 0 -21 37q6 43 -14 80q-42 -52 -112 -88.5t-158 -36.5q-74 0 -136.5 31.5t-109 93.5t-69 166.5t-13.5 239.5q-42 -1 -78 -4t-41 -3q-16 0 -26 13.5t-7 34.5z" />
<glyph unicode="&#x2122;" horiz-adv-x="1712" d="M135 1112q21 83 29 131l8 43q3 14 12.5 22.5t20.5 8.5q5 0 40 -4t50 -4h356q16 0 52.5 4t41.5 4q10 0 16.5 -8.5t2.5 -22.5l-6 -43q-15 -75 -15 -131q-2 -10 -10.5 -17.5t-19.5 -7.5q-14 0 -20.5 7.5t-4.5 17.5q17 88 -4.5 119t-93.5 31h-66l-98 -551q36 0 58.5 0.5 t32.5 1t15 0.5q10 0 17 -8.5t4 -22.5q-3 -13 -11.5 -21t-17.5 -8q-3 0 -16 2.5t-48.5 4.5t-94.5 2h-9q-59 0 -95.5 -2t-50 -4.5t-17.5 -2.5q-10 0 -16 8t-3 21q1 14 10 22.5t19 8.5q1 0 29.5 -1t76.5 -1l97 551h-66q-73 0 -104 -30.5t-46 -119.5q-2 -9 -11 -17t-21 -8 q-13 0 -19 7.5t-4 17.5zM752 686q3 13 12 21t18 8q1 0 25.5 -1t66.5 -1l95 549q-40 0 -64.5 -1t-27.5 -1q-9 0 -15.5 8t-3.5 20q3 13 12 21t17 8q5 0 15.5 -2t36 -4t67.5 -2h4q5 0 22 1t27 1q16 0 21.5 -6t11.5 -29l120 -481l287 479q14 23 22 29t21 6h29q59 0 96 2t51.5 4 t18.5 2q8 0 14 -8t6 -21q-4 -13 -13.5 -20.5t-17.5 -7.5q-2 0 -32 1t-76 1l-96 -549q36 0 59 0.5t33.5 1t15.5 0.5q10 0 16 -8t3 -21t-11.5 -21t-19.5 -8q-2 0 -15 1.5t-49 3.5t-96 2q-42 0 -68.5 -2t-37.5 -3.5t-15 -1.5q-10 0 -16.5 8t-3.5 21t12 21t19 8q5 0 23 -1t40 -1 l78 438l-299 -494q-11 -22 -37 -22q-25 0 -29 24l-118 480l-74 -426q15 0 29.5 1t21.5 1q10 0 15.5 -8t2.5 -21q-1 -13 -9.5 -21t-18.5 -8q-4 0 -25 3.5t-51 3.5h-4q-34 0 -58 -1t-33.5 -2.5t-17.5 -2.5t-12 -1q-11 0 -17 8t-3 21z" />
<glyph unicode="&#x2202;" horiz-adv-x="950" d="M47 350q31 181 141.5 282t249.5 101q158 0 230 -123q3 297 -84 475.5t-228 202.5q-28 5 -35 23.5t8 33.5t42 11q80 -12 151 -56.5t122.5 -110t92.5 -149.5t60 -174.5t25.5 -184.5t-11.5 -181q-22 -123 -63 -219.5t-88.5 -154.5t-106 -95.5t-111 -51.5t-108.5 -14 q-156 0 -236.5 112t-50.5 273zM181 191q2 -71 43 -114.5t122 -43.5q236 0 301 368q20 108 -32.5 187.5t-172.5 79.5q-93 0 -157.5 -85t-91.5 -231q-14 -90 -12 -161z" />
<glyph unicode="&#x220f;" horiz-adv-x="1417" d="M-4 29q3 16 14.5 26.5t24.5 10.5l36 -2q36 -1 95 -1l209 1188q-60 0 -97 -3l-36 -3q-12 0 -20 10.5t-5 26.5t14 25.5t23 9.5l36 -1q36 -1 95 -1h870q60 0 97 1l37 1q12 0 19 -9.5t3 -25.5q-1 -16 -12 -26.5t-23 -10.5l-36 3q-36 3 -95 3l-209 -1188q59 0 95 1l36 2 q12 0 19 -10t6 -27q-3 -16 -14.5 -25.5t-24.5 -9.5q-4 0 -20 2.5t-60 5t-117 2.5h-8q-74 0 -119.5 -2.5t-62.5 -5t-21 -2.5q-11 0 -18 9.5t-4 25.5q1 16 12.5 26.5t24.5 10.5l36 -2q36 -1 95 -1l207 1176h-580l-207 -1176q59 0 95 1l36 2q11 0 18.5 -10.5t6.5 -26.5 q-3 -16 -14.5 -25.5t-24.5 -9.5q-4 0 -20 2.5t-60 5t-117 2.5h-10q-73 0 -118 -2.5t-62 -5t-21 -2.5q-11 0 -18 9.5t-6 25.5z" />
<glyph unicode="&#x2211;" horiz-adv-x="1224" d="M-58.5 -243.5q-2.5 16.5 21.5 42.5l608 760l-348 694q-13 26 -3.5 43t42.5 17q641 4 856 4q26 0 68 4t49 4q11 0 18 -10.5t4 -26.5l-10 -63q-20 -119 -33 -246q-8 -31 -38 -31q-17 0 -24.5 9t-4.5 22q46 262 -123 262h-692l370 -737l-563 -692h629q168 0 215 264 q2 12 12.5 21t26.5 9q29 0 29 -30q-1 -5 -12.5 -51t-24.5 -103t-19 -94l-10 -64q-4 -16 -15 -26t-22 -10q-7 0 -47.5 5t-64.5 5l-859 2q-33 0 -35.5 16.5z" />
<glyph unicode="&#x221a;" horiz-adv-x="1124" d="M254 549q-11 46 34 73q37 23 67 8q16 -8 20 -28l96 -420l674 1229q29 53 63 48q23 -3 26 -25q1 -11 -5 -23l-801 -1456q-8 -13 -17 -12.5t-14 12.5z" />
<glyph unicode="&#x221e;" horiz-adv-x="1312" d="M41 510q18 102 98 171t191 69q70 0 151.5 -56t143.5 -129q83 71 184.5 128t169.5 57q111 0 168.5 -69t42.5 -171q-19 -102 -101.5 -172t-193.5 -70q-68 0 -150.5 57.5t-138.5 129.5q-88 -74 -188.5 -130.5t-169.5 -56.5q-113 0 -169.5 70t-37.5 172zM133 510 q-12 -65 22.5 -111.5t100.5 -46.5q37 0 106 39.5t120 78.5l50 40q-6 6 -15.5 17t-37.5 38t-54 48t-58 38t-56 17q-66 0 -116.5 -46t-61.5 -112zM668 510q7 -6 18.5 -17t44 -38t62 -48t64 -38t58.5 -17q66 0 118.5 46.5t64.5 111.5q11 66 -24.5 112t-100.5 46 q-38 0 -114.5 -39.5t-133.5 -78.5z" />
<glyph unicode="&#x222b;" horiz-adv-x="538" d="M-283 -399q6 36 29 58t55 22q31 0 48.5 -21.5t11.5 -52.5q-5 -24 -22.5 -43.5t-43.5 -26.5q6 -14 24 -25.5t36 -11.5q37 0 61.5 15t47 64t38.5 138l215 1223q20 117 45.5 197.5t65.5 142t98 90.5t137 29q91 0 135.5 -45t34.5 -103q-6 -40 -32 -65t-60 -25q-33 0 -52 23.5 t-14 56.5q4 26 24 47.5t48 30.5q-6 12 -31.5 21.5t-58.5 9.5q-61 0 -107.5 -39t-60.5 -123l-221 -1256q-18 -102 -41.5 -181.5t-51 -130.5t-55 -85.5t-58.5 -51.5t-57 -23.5t-55 -6.5q-68 0 -105.5 46.5t-27.5 101.5z" />
<glyph unicode="&#x2248;" horiz-adv-x="937" d="M125 279l14 86q8 8 22 19t53 29.5t75 18.5q41 0 130 -33.5t130 -33.5q35 0 72 16.5t57 33.5l20 17l-16 -86q-8 -8 -21 -19t-51.5 -29.5t-74.5 -18.5q-41 0 -131 33.5t-132 33.5q-34 0 -70.5 -17t-56.5 -33zM172 551l16 86q8 8 21.5 19t52 30t74.5 19q41 0 130.5 -34 t131.5 -34q34 0 70.5 17t56.5 34l20 17l-14 -84q-8 -8 -21.5 -19.5t-52.5 -31t-75 -19.5q-41 0 -129.5 35t-130.5 35q-35 0 -72.5 -17.5t-57.5 -35.5z" />
<glyph unicode="&#x2260;" horiz-adv-x="937" d="M99 158.5q0 16.5 10 29.5q5 6 19.5 20.5t44.5 47.5t77 88q-47 -1 -76.5 -4.5t-34.5 -3.5q-16 0 -26.5 13t-6.5 34q3 20 18 32.5t30 12.5q8 0 23 -1.5t49 -3.5t87 -3q1 0 26.5 28.5t62.5 72t67 79.5h-63q-79 0 -128 -2t-68.5 -4t-27.5 -2q-14 0 -23.5 13t-6.5 34 q4 21 18.5 33t30.5 12q7 0 25.5 -2t66.5 -4t125 -2h100h14l9 8q44 51 74 88.5t40 50.5t23 31l12 18q11 13 27.5 15.5t34.5 -8.5q14 -11 15 -29.5t-9 -28.5q-6 -8 -17.5 -19t-42 -42.5t-73.5 -81.5q46 1 78 3.5t38 2.5q16 0 25 -12t6 -33q-4 -21 -18.5 -34t-30.5 -13 q-7 0 -21.5 2t-49.5 4t-93 2l-153 -180h67q78 0 127 2t68 4t26 2q16 0 25.5 -12t5.5 -33q-3 -21 -16 -34t-29 -13q-8 0 -26 2t-66 4t-127 2h-101h-16l-20 -20q-56 -65 -87 -105t-45 -60t-16 -22q-11 -13 -28 -15.5t-35 7.5q-14 13 -14 29.5z" />
<glyph unicode="&#x2264;" horiz-adv-x="937" d="M-6 37q4 22 19 34.5t30 12.5q7 0 25.5 -2t67 -4t126.5 -2h217q78 0 127 2t68.5 4t27.5 2q16 0 25 -12.5t6 -34.5q-4 -21 -18.5 -33t-30.5 -12q-7 0 -25 2t-65.5 4t-126.5 2h-219q-79 0 -127.5 -2t-67.5 -4t-26 -2q-16 0 -26 12t-7 33zM150 518q-41 30 10 60l561 313 q32 20 42.5 3.5t-20.5 -38.5l-446 -307l340 -307q10 -9 13.5 -19t0 -16.5t-10.5 -10.5t-18 -1.5t-22 10.5z" />
<glyph unicode="&#x2265;" horiz-adv-x="937" d="M-6 37q4 22 18.5 34.5t30.5 12.5q7 0 25.5 -2t67 -4t126.5 -2h217q78 0 127 2t68.5 4t27.5 2q15 0 24.5 -12.5t6.5 -34.5q-4 -20 -19 -32.5t-30 -12.5q-7 0 -25 2t-66 4t-126 2h-219q-79 0 -127.5 -2t-67.5 -4t-26 -2q-16 0 -26 12t-7 33zM139.5 200q-10.5 17 22.5 42 l448 307l-340 307q-14 14 -11 28t16.5 16.5t31.5 -9.5l453 -313q41 -29 -10 -60l-564 -313q-36 -22 -46.5 -5z" />
<glyph unicode="&#x25ca;" horiz-adv-x="1011" d="M117 666l514 677l272 -677l-516 -699zM215 668l201 -537l389 537l-205 514z" />
<glyph unicode="&#xe000;" horiz-adv-x="819" d="M0 0v819h819v-819h-819z" />
<glyph unicode="&#xfb01;" horiz-adv-x="1032" d="M-283 -399q6 36 29 58t55 22q31 0 48.5 -21.5t11.5 -52.5q-5 -24 -22.5 -43.5t-43.5 -26.5q6 -14 24 -25.5t36 -11.5q37 0 61.5 15t47 64t38.5 138l178 1022q-48 0 -94 -2t-47 -2q-12 0 -19.5 9.5t-3.5 25.5q1 16 12 25.5t23 9.5q60 0 142 -2l24 137q20 117 45.5 197.5 t65.5 142t98 90.5t137 29q91 0 135.5 -45t34.5 -103q-6 -40 -32 -65t-60 -25q-33 0 -52 23.5t-14 56.5q4 26 24 47.5t48 30.5q-6 12 -31.5 21.5t-58.5 9.5q-61 0 -107.5 -39t-60.5 -123l-67 -385h346q18 0 54.5 4t43.5 4q13 0 20.5 -10t4.5 -27l-111 -627q-17 -92 41 -92 q47 0 85 66.5t60 183.5q1 17 12.5 28t26.5 11t21.5 -10.5t3.5 -28.5q-10 -55 -27.5 -106.5t-46.5 -102t-74 -81.5t-100 -31q-64 0 -103.5 43t-25.5 123l102 589h-346l-141 -807q-18 -102 -41.5 -181.5t-51 -130.5t-55 -85.5t-58.5 -51.5t-57 -23.5t-55 -6.5 q-68 0 -105.5 46.5t-27.5 101.5z" />
<glyph unicode="&#xfb02;" horiz-adv-x="1050" d="M-283 -399q6 36 29 58t55 22q31 0 48.5 -21.5t11.5 -52.5q-5 -24 -22.5 -43.5t-43.5 -26.5q3 -17 21 -27t39 -10q37 0 61.5 15t47 64t38.5 138l178 1022q-48 0 -94 -2t-47 -2q-12 0 -19.5 9.5t-3.5 25.5q1 16 12 25.5t23 9.5q60 0 142 -2l45 248q32 185 109.5 266.5 t182.5 81.5q47 0 80.5 -23.5t46.5 -58.5q32 -4 119 -4q18 0 55.5 4t45.5 4q11 0 18 -10.5t4 -24.5l-201 -1139q-17 -92 41 -92q49 0 86.5 66t59.5 184q1 17 12.5 28t26.5 11q31 0 24 -39q-10 -55 -27.5 -106.5t-46 -102.5t-73 -81.5t-99.5 -30.5q-66 0 -105.5 43t-25.5 123 l193 1099q-62 0 -102 -4q-6 -33 -28.5 -53.5t-53.5 -20.5t-49 21.5t-13 52.5q6 24 24.5 43.5t43.5 26.5q-10 37 -60 37q-56 0 -90 -44.5t-57 -174.5l-57 -330q88 2 157 2q13 0 20.5 -9t6.5 -26q-9 -35 -39 -35q-1 0 -54 2t-104 2l-141 -807q-18 -102 -41.5 -181.5 t-51 -130.5t-55 -85.5t-58.5 -51.5t-57 -23.5t-55 -6.5q-68 0 -105.5 46.5t-27.5 101.5z" />
</font>
</defs>
</svg>
