<?xml version="1.0" standalone="no"?>
<!DOCTYPE svg PUBLIC "-//W3C//DTD SVG 1.1//EN" "http://www.w3.org/Graphics/SVG/1.1/DTD/svg11.dtd" >
<svg xmlns="http://www.w3.org/2000/svg">
<metadata></metadata>
<defs>
<font id="filosofia_cyrbold" horiz-adv-x="989" >
<font-face units-per-em="2048" ascent="1456" descent="-592" />
<missing-glyph horiz-adv-x="374" />
<glyph horiz-adv-x="2048" />
<glyph horiz-adv-x="2048" />
<glyph unicode="&#xd;" horiz-adv-x="2048" />
<glyph unicode=" "  horiz-adv-x="374" />
<glyph unicode="&#x09;" horiz-adv-x="374" />
<glyph unicode="&#xa0;" horiz-adv-x="374" />
<glyph unicode="!" horiz-adv-x="641" d="M168 1200q0 62 41.5 105t101.5 43t104 -43.5t44 -104.5q0 -36 -12.5 -74t-30.5 -89t-36.5 -125t-31 -212.5t-12.5 -320.5q0 -17 -13 -23.5t-25.5 0t-12.5 23.5q0 223 -18.5 382.5t-40 222.5t-40 119t-18.5 97zM182 109q0 54 38.5 91.5t92.5 37.5t90.5 -37.5t36.5 -91.5 t-36.5 -91.5t-90.5 -37.5t-92.5 37.5t-38.5 91.5z" />
<glyph unicode="&#x22;" horiz-adv-x="935" d="M154 1221q0 60 35.5 93.5t89.5 33.5t90.5 -33.5t36.5 -93.5q0 -22 -16 -62.5t-35.5 -83.5t-35.5 -116.5t-16 -153.5q0 -19 -12.5 -27t-25.5 0t-13 27q0 80 -15.5 153.5t-33.5 116.5t-33.5 83.5t-15.5 62.5zM528 1221q0 60 35.5 93.5t89.5 33.5q55 0 92 -33.5t37 -93.5 q0 -22 -16 -62.5t-35 -83.5t-35 -116.5t-16 -153.5q0 -19 -13 -27t-25.5 0t-12.5 27q0 80 -16 153.5t-34.5 116.5t-34.5 83.5t-16 62.5z" />
<glyph unicode="#" horiz-adv-x="890" d="M51 664q0 21 12 34t27 13q4 0 43 -4t100 -5l50 281q-41 -2 -70 -4t-41.5 -3t-21.5 -1q-15 0 -27 12.5t-12 32.5q0 22 12 34.5t27 12.5q8 0 22 -1.5t45.5 -3.5t79.5 -3l6 41q14 77 20.5 123.5t8 67.5t2.5 26q3 16 16.5 25t34.5 6q22 -3 32.5 -17t8.5 -31q-1 -5 -7 -24.5 t-16.5 -65.5t-25.5 -125l-4 -26h211h8l8 41q14 76 20 124.5t7.5 66t3.5 26.5q2 16 15.5 25t35.5 6q20 -3 30.5 -17t8.5 -31q-1 -5 -7 -24.5t-16.5 -65.5t-25.5 -125l-4 -26q58 1 95 4.5t42 3.5q16 0 27.5 -12.5t11.5 -34.5q0 -21 -11.5 -33t-27.5 -12q-1 0 -42 3t-110 3 l-47 -279q44 1 73.5 3t43 4t20.5 2q16 0 28.5 -13t12.5 -34t-12.5 -33.5t-28.5 -12.5q-7 0 -21 2t-46.5 4t-83.5 3q-12 -64 -19 -116t-10 -87t-4 -39q-3 -13 -17 -22.5t-34 -8.5q-22 4 -32.5 19t-8.5 30q1 5 9 35.5t19 79t23 109.5h-221q-13 -69 -20 -123t-10 -81.5 t-5 -37.5q-2 -13 -15.5 -22.5t-35.5 -8.5q-20 4 -30.5 19t-8.5 30q1 3 10 39t19.5 83.5t19.5 101.5q-54 -2 -88.5 -5.5t-42.5 -3.5q-15 0 -27 13t-12 33zM311 702h217q32 164 52 281h-209h-13z" />
<glyph unicode="$" horiz-adv-x="978" d="M84 356q0 59 32 90t87 31q37 0 66.5 -30.5t29.5 -61.5q0 -44 -24.5 -69.5t-61.5 -32.5q31 -53 92.5 -84t134.5 -37v407l-57 21q-139 50 -203.5 124t-64.5 187q0 85 49 155.5t121.5 110.5t154.5 52q0 75 -2 128.5t-4 80t-2 34.5q0 16 12 27.5t33 11.5q22 0 34.5 -11.5 t12.5 -27.5q0 -8 -2 -33.5t-4 -78t-2 -127.5q124 -5 214.5 -65t90.5 -150q0 -55 -31 -90t-81 -35q-41 0 -71 29.5t-30 66.5q0 38 24.5 66t65.5 28q-45 77 -182 82v-381l59 -20q144 -50 219.5 -125t75.5 -201q0 -136 -103 -227t-251 -109q0 -76 2 -129.5t4 -79t2 -33.5 q0 -15 -12.5 -26.5t-34.5 -11.5q-20 0 -32.5 11.5t-12.5 26.5q0 8 2 34t4 79t2 127q-149 6 -252.5 89t-103.5 177zM285 981q0 -69 41.5 -110t113.5 -68v346q-74 -13 -114.5 -59t-40.5 -109zM516 164q80 10 131 52t51 126q0 78 -48 123t-134 78v-379z" />
<glyph unicode="%" horiz-adv-x="1773" d="M111 952q0 172 97 283t238 111q139 0 236.5 -111t97.5 -283q0 -171 -97 -281t-237 -110q-141 0 -238 109.5t-97 281.5zM342 952q0 -182 25 -256.5t79 -74.5q52 0 77.5 75t25.5 256q0 182 -25.5 258t-77.5 76q-54 0 -79 -75t-25 -259zM569 31q1 4 34.5 68.5t60.5 129.5 l348 822q30 70 54 131t36.5 96t15.5 41q6 15 21.5 20.5t36.5 -2.5q19 -7 26 -22.5t2 -30.5q-3 -6 -20.5 -40.5t-45 -92.5t-57.5 -129l-348 -821q-20 -49 -37 -94.5t-27.5 -75t-13.5 -37.5q-7 -15 -21.5 -21t-35.5 2q-20 7 -27 24t-2 32zM995 360q0 172 97.5 283t236.5 111 t237.5 -111.5t98.5 -282.5t-98 -281t-238 -110t-237 110t-97 281zM1225 360q0 -181 25.5 -256t78.5 -75t79 75t26 256t-26 256.5t-79 75.5t-78.5 -75.5t-25.5 -256.5z" />
<glyph unicode="&#x26;" horiz-adv-x="1382" d="M125 365q0 210 258 354l-12 14q-121 162 -121 305q0 43 16 87t47.5 84t73.5 71t99.5 49.5t121.5 18.5q167 0 255.5 -69t88.5 -189q0 -106 -83 -196t-222 -134l-6 -2l352 -473q58 119 58 260v41q-60 0 -101 -1l-41 -1q-11 0 -20.5 10.5t-9.5 26.5q0 14 9.5 24t20.5 10 q5 0 21 -2t56 -4.5t101 -3.5q61 1 101 3.5t56 4.5t22 2q11 0 20.5 -10t9.5 -24q0 -16 -9.5 -26.5t-20.5 -10.5l-41 1q-41 1 -101 1v-41q0 -185 -82 -326l117 -156q46 0 80 1.5t37 1.5q11 0 21 -10.5t10 -26.5t-9.5 -25.5t-21.5 -9.5q-3 0 -51.5 5t-91.5 5q-63 0 -110 -5 t-56 -5q-23 0 -38.5 11t-43.5 42q-121 -82 -264 -82q-95 0 -181.5 24.5t-158 71.5t-114 125.5t-42.5 178.5zM375 383q0 -167 63 -252.5t201 -85.5q110 0 201 59l-396 531q-69 -86 -69 -252zM483 1102q0 -83 30.5 -148.5t90.5 -146.5q51 17 86 41.5t53.5 49.5t28.5 63.5 t12 67.5t2 77q0 186 -145 186q-80 0 -119 -50.5t-39 -139.5z" />
<glyph unicode="'" horiz-adv-x="559" d="M154 1221q0 60 35.5 93.5t89.5 33.5t90.5 -33.5t36.5 -93.5q0 -22 -16 -62.5t-35.5 -83.5t-35.5 -116.5t-16 -153.5q0 -19 -12.5 -27t-25.5 0t-13 27q0 80 -15.5 153.5t-33.5 116.5t-33.5 83.5t-15.5 62.5z" />
<glyph unicode="(" horiz-adv-x="733" d="M129 604q0 101 30 200t76.5 181t117 166.5t138.5 149t154 135.5q15 12 28 6.5t14 -20t-11 -29.5q-51 -56 -97.5 -125t-96 -168.5t-79.5 -229t-30 -266.5q0 -111 21.5 -219.5t53 -191t75 -160t79.5 -126.5t74 -91q20 -23 5 -42q-14 -18 -34 -1q-110 90 -193 173.5 t-161.5 189t-121 224.5t-42.5 244z" />
<glyph unicode=")" horiz-adv-x="733" d="M46.5 -214q-1.5 14 10.5 30q38 42 75 91t80 126.5t75 160t53.5 191t21.5 219.5t-21 219t-52.5 190t-75 159.5t-80 127t-76.5 93.5q-12 14 -10 29.5t13.5 19.5t27.5 -6q86 -71 154 -135.5t139 -149t118 -166.5t77 -181t30 -200t-30 -200t-77 -181t-118 -166t-139 -148.5 t-154 -135.5q-14 -11 -27 -6t-14.5 19z" />
<glyph unicode="*" horiz-adv-x="899" d="M91.5 822.5q11.5 40.5 49.5 64.5q17 11 53.5 11t94 9t121.5 41q-65 33 -122 42.5t-93 10t-54 11.5q-36 22 -48 61.5t9 75.5q22 37 63.5 49t76.5 -10q15 -9 30 -32t28.5 -47.5t47.5 -59.5t82 -66q-3 56 -16.5 103t-27.5 71t-25 47.5t-11 40.5q0 42 29 72.5t70 30.5 t72.5 -31t31.5 -72q0 -17 -12 -40.5t-26.5 -48t-29 -71.5t-18.5 -104q48 31 82.5 66t48.5 59.5t29 46.5t30 31q35 22 76 12t64 -47q22 -34 10 -77t-49 -66q-16 -10 -52 -9.5t-94 -8t-123 -40.5q65 -32 122.5 -41t93.5 -8.5t53 -9.5q37 -22 48 -64.5t-9 -79.5 q-24 -36 -64 -45t-76 15q-15 8 -30 29t-29 45t-48.5 59t-82.5 67q4 -58 18.5 -105.5t29 -72t26.5 -48t12 -40.5q0 -40 -31.5 -71t-72.5 -31t-70 31t-29 71q0 17 11 40.5t25 48t27.5 71.5t16.5 104q-48 -31 -82 -66.5t-48 -60t-29 -47t-29 -30.5q-35 -21 -76.5 -10.5 t-63.5 46.5q-22 37 -10.5 77.5z" />
<glyph unicode="+" horiz-adv-x="937" d="M104 510q0 21 12 34t27 13q7 0 26.5 -2t68.5 -4t127 -2h71v72q0 77 -2.5 125.5t-5 67.5t-2.5 26q0 16 13 27.5t34 11.5t33 -11.5t12 -27.5q0 -7 -2 -25.5t-4 -66.5t-2 -127v-72h72q78 0 126.5 2t67.5 4t27 2q16 0 27.5 -13t11.5 -34t-11.5 -33t-27.5 -12q-8 0 -26.5 2 t-66.5 4t-128 2h-72v-72q0 -79 2 -127.5t4 -67t2 -26.5q0 -15 -12.5 -27t-32.5 -12q-21 0 -34 12t-13 27q0 8 2.5 27t5 67.5t2.5 126.5v72h-71q-79 0 -128 -2t-68 -4t-26 -2q-15 0 -27 12.5t-12 32.5z" />
<glyph unicode="," horiz-adv-x="565" d="M141 106q0 51 37 87t92 36q77 0 121 -60t31 -134q-13 -72 -55.5 -139.5t-135.5 -151.5q-19 -17 -38 -3q-21 15 2 44l8 8q76 71 111 148t28 129q-6 -32 -32 -53t-58 -21q-44 0 -77.5 33t-33.5 77z" />
<glyph unicode="-" horiz-adv-x="960" d="M170 510q0 21 12.5 34t28.5 13q7 0 25.5 -2t67 -4t126.5 -2h100q78 0 126.5 2t68 4t27.5 2q16 0 27.5 -13t11.5 -34t-11.5 -33t-27.5 -12q-8 0 -26.5 2t-67 4t-128.5 2h-100q-78 0 -126.5 -2t-67 -4t-25.5 -2q-16 0 -28.5 12t-12.5 33z" />
<glyph unicode="." horiz-adv-x="565" d="M154 109q0 54 37.5 91.5t91.5 37.5t91.5 -37.5t37.5 -91.5t-37.5 -91.5t-91.5 -37.5t-91.5 37.5t-37.5 91.5z" />
<glyph unicode="/" horiz-adv-x="712" d="M39 31q1 4 34 68.5t60 129.5l348 822q30 69 54.5 130.5t37 96.5t15.5 41q6 15 21 20.5t36 -2.5q19 -7 26 -23t1 -30q-4 -10 -19.5 -41t-43.5 -91.5t-58 -129.5l-348 -821q-20 -49 -37 -94.5t-27.5 -75t-13.5 -37.5q-7 -15 -21.5 -21t-35.5 2q-20 7 -27 24t-2 32z" />
<glyph unicode="0" horiz-adv-x="1101" d="M117 401q0 180 127 307.5t307 127.5q181 0 308.5 -127.5t127.5 -307.5q0 -181 -127.5 -308.5t-308.5 -127.5q-180 0 -307 127.5t-127 308.5zM287 401q0 -110 77.5 -187t186.5 -77q110 0 187 77t77 187t-77 187.5t-187 77.5q-109 0 -186.5 -77.5t-77.5 -187.5z" />
<glyph unicode="1" horiz-adv-x="878" d="M145 29q0 17 9 27t22 10l36 -2q36 -1 95 -1v676q-59 0 -95 -3l-36 -3q-13 0 -22 10t-9 27q0 16 9 25.5t22 9.5l78 -1q79 -1 139 -1q18 0 79.5 4t68.5 4q11 0 20.5 -10.5t9.5 -26.5v-711q59 0 95 1l36 2q13 0 22 -10t9 -27q0 -16 -9 -25.5t-22 -9.5q-4 0 -20 2.5t-60.5 5 t-117.5 2.5h-129q-73 0 -117.5 -2.5t-61 -5t-20.5 -2.5q-13 0 -22 9.5t-9 25.5z" />
<glyph unicode="2" d="M76.5 23q-5.5 23 15.5 36l256 179q219 151 219 346q0 85 -43.5 135.5t-136.5 50.5q-58 0 -106.5 -24.5t-69.5 -61.5q34 -2 60 -33t26 -71q0 -46 -32.5 -78.5t-76.5 -32.5q-48 0 -79 36t-31 95q0 104 109 170t259 66q202 0 299 -62t97 -172q0 -40 -20 -79.5t-47.5 -70 t-81 -69t-95 -64t-113.5 -67.5l-36 -21l294 5q18 0 63 4t52 4q13 0 22 -9.5t9 -25.5q0 -8 -6 -35.5t-15 -68.5t-14 -68q-10 -46 -17.5 -118t-7.5 -97q0 -12 -8 -21.5t-24 -9.5t-24.5 9.5t-8.5 21.5q0 36 6 80.5t12 71.5l6 26h-679q-27 0 -32.5 23z" />
<glyph unicode="3" horiz-adv-x="995" d="M59 -291q0 59 32 95t79 36q46 0 78.5 -32t32.5 -78q0 -40 -26.5 -71.5t-66.5 -37.5q36 -50 88.5 -75t139.5 -25q115 0 154.5 72.5t39.5 252.5q0 326 -215 326q-57 0 -93 -2t-51.5 -4t-23.5 -2q-14 0 -25.5 12t-11.5 31t11.5 31t25.5 12q7 0 18.5 -1t25 -3t46.5 -3t78 -1 q94 0 129 65.5t35 196.5q0 154 -32 210t-132 56q-116 0 -153 -82q36 -5 63 -37t27 -71q0 -46 -32.5 -78.5t-78.5 -32.5q-47 0 -78.5 36t-31.5 95q0 99 93.5 167.5t215.5 68.5q119 0 208 -32t143 -104.5t54 -179.5q0 -99 -79 -186.5t-203 -122.5q132 -34 233 -133.5 t101 -231.5q0 -188 -127.5 -290.5t-333.5 -102.5q-144 0 -250.5 75.5t-106.5 180.5z" />
<glyph unicode="4" horiz-adv-x="1163" d="M46.5 15q-7.5 15 6.5 30l643 866q25 39 47 39q31 0 31 -55v-397v-422h219q0 59 -1 99l-1 40q0 13 10 22t27 9q16 0 25.5 -9t9.5 -22q0 -5 -2 -20.5t-4.5 -55.5t-3.5 -102q1 -61 3.5 -100.5t4.5 -55t2 -20.5q0 -13 -9.5 -22t-25.5 -9q-17 0 -27 9t-10 22l1 40q1 40 1 99 h-219v-449q59 0 95 1l36 2q11 0 21 -10.5t10 -26.5t-9.5 -25.5t-21.5 -9.5q-4 0 -21.5 2.5t-62.5 5t-116 2.5h-111q-56 0 -97 -1.5t-57 -3.5l-28 -3.5t-17 -1.5q-13 0 -21.5 9t-8.5 26t9 27t21 10q6 0 18.5 -1t40.5 -1.5t72 -0.5v449h-442q-30 0 -37.5 15zM168 76h358v483z " />
<glyph unicode="5" horiz-adv-x="940" d="M63 -291q0 59 31.5 95t79.5 36q44 0 76.5 -32t32.5 -76q0 -42 -29.5 -75t-71.5 -34q59 -102 203 -102q123 0 167 81t44 279q0 194 -50 277.5t-181 83.5q-57 0 -101.5 -15.5t-69 -31t-32.5 -15.5q-14 0 -25.5 12t-11.5 31q0 34 53 56v464q0 32 12 46t39 14h392 q89 0 115 29.5t26 113.5q0 11 9.5 21t23.5 10q16 0 24 -9.5t8 -21.5q0 -14 -17 -74.5t-24 -105.5q-19 -118 -32 -149q-23 -57 -87 -66q-16 -2 -36 -2l-379 4v-252q70 8 113 8q103 0 188.5 -27t141.5 -71t94.5 -101t55.5 -114.5t17 -114.5q0 -183 -129.5 -305.5 t-347.5 -122.5q-128 0 -225 75t-97 181z" />
<glyph unicode="6" horiz-adv-x="1136" d="M125 500q0 102 39.5 217t109.5 220t157.5 194.5t191 149.5t202.5 75q33 5 43 -18t-18 -41q-10 -5 -23 -9q-54 -14 -103 -43t-99 -82t-90.5 -125.5t-74.5 -179t-54 -237.5q37 50 101.5 81t143.5 31q157 0 263 -101t106 -282q0 -157 -125 -271t-295 -114q-67 0 -129.5 14 t-127 51.5t-111.5 95.5t-77 154.5t-30 219.5zM391 401q0 -200 45.5 -284t163.5 -84q91 0 122.5 76t31.5 243t-30.5 241.5t-107.5 74.5q-95 0 -160 -81.5t-65 -185.5z" />
<glyph unicode="7" horiz-adv-x="886" d="M61 344q0 2 13.5 90t13.5 156v190q0 16 9.5 25.5t21.5 9.5q6 0 46 -4t68 -4l553 -2l2 4q8 24 28 27t32.5 -13.5t3.5 -38.5l-422 -860q-50 -98 -68 -156t-18 -116q0 -83 62 -119q-17 68 20 113t88 45q46 0 78.5 -32.5t32.5 -78.5q0 -56 -48 -92.5t-108 -36.5 q-74 0 -131 54.5t-57 146.5q0 67 20 134t70 165l295 604h-512q-25 -121 -25 -211q0 -13 -9.5 -22t-25.5 -9t-24.5 9t-8.5 22z" />
<glyph unicode="8" horiz-adv-x="1126" d="M117 354q0 133 86.5 227.5t226.5 127.5q-122 29 -195 107.5t-73 195.5q0 151 116 243.5t285 92.5q171 0 286.5 -92.5t115.5 -243.5q0 -117 -73.5 -195.5t-195.5 -107.5q141 -33 227.5 -127t86.5 -228q0 -168 -130 -278.5t-317 -110.5t-316.5 110.5t-129.5 278.5zM383 354 q0 -172 42.5 -246.5t137.5 -74.5t137.5 74.5t42.5 246.5q0 170 -42.5 244t-137.5 74t-137.5 -74t-42.5 -244zM406 1012q0 -150 35.5 -209.5t121.5 -59.5t123 59.5t37 209.5t-37 210t-123 60t-121.5 -59.5t-35.5 -210.5z" />
<glyph unicode="9" horiz-adv-x="1136" d="M117 453q0 157 125.5 270t296.5 113q67 0 128.5 -14t126 -51t111.5 -95t77 -154t30 -219q0 -128 -62.5 -273.5t-160 -266.5t-226 -209t-252.5 -107q-32 -5 -43 17q-11 23 18 40l23 9q54 15 103.5 44.5t99 82.5t90 125.5t75 179t54.5 237.5q-37 -50 -102.5 -82t-141.5 -32 q-158 0 -264 101.5t-106 283.5zM383 451q0 -166 30.5 -241t106.5 -75q95 0 160 81t65 185q0 200 -45 284.5t-161 84.5q-64 0 -99 -39t-46 -104t-11 -176z" />
<glyph unicode=":" horiz-adv-x="565" d="M154 109q0 54 37.5 91.5t91.5 37.5t91.5 -37.5t37.5 -91.5t-37.5 -91.5t-91.5 -37.5t-91.5 37.5t-37.5 91.5zM154 649q0 54 37.5 90.5t91.5 36.5t91.5 -36.5t37.5 -90.5t-37.5 -92.5t-91.5 -38.5t-91.5 38.5t-37.5 92.5z" />
<glyph unicode=";" horiz-adv-x="565" d="M141 106q0 51 37 87t92 36q77 0 121 -60t31 -134q-13 -72 -55.5 -139.5t-135.5 -151.5q-19 -17 -38 -3q-21 15 2 44l8 8q76 71 111 148t28 129q-6 -32 -32 -53t-58 -21q-44 0 -77.5 33t-33.5 77zM141 649q0 54 38.5 90.5t92.5 36.5t90.5 -36.5t36.5 -90.5t-36.5 -92.5 t-90.5 -38.5t-92.5 38.5t-38.5 92.5z" />
<glyph unicode="&#x3c;" horiz-adv-x="962" d="M134 509.5q0 17.5 20 29.5l630 415q29 20 42 -0.5t-11 -42.5l-420 -401l420 -401q28 -26 14.5 -47t-45.5 1l-630 416q-20 13 -20 30.5z" />
<glyph unicode="=" horiz-adv-x="937" d="M160 383q0 20 12 32.5t27 12.5q7 0 26 -2t67.5 -4t125.5 -2h100q78 0 127 2t68 4t26 2q16 0 27.5 -12t11.5 -33t-11.5 -34t-27.5 -13q-7 0 -25.5 2t-67 4t-128.5 2h-100q-78 0 -126.5 -2t-67 -4t-25.5 -2q-15 0 -27 13t-12 34zM160 639q0 20 12 32.5t27 12.5q7 0 26 -2 t67.5 -4t125.5 -2h100q78 0 127 2t68 4t26 2q16 0 27.5 -12t11.5 -33t-11.5 -34t-27.5 -13q-7 0 -25.5 2t-67 4t-128.5 2h-100q-78 0 -126.5 -2t-67 -4t-25.5 -2q-15 0 -27 13t-12 34z" />
<glyph unicode="&#x3e;" horiz-adv-x="962" d="M130.5 62q-13.5 21 14.5 47l420 401l-420 401q-24 22 -11 42.5t42 0.5l631 -415q20 -12 20 -29.5t-20 -30.5l-631 -416q-32 -22 -45.5 -1z" />
<glyph unicode="?" horiz-adv-x="956" d="M139 1092q0 106 90.5 181t210.5 75q169 0 282.5 -84t113.5 -230q0 -67 -21.5 -124.5t-56 -97.5t-76 -75.5t-83 -65.5t-76 -59.5t-56 -66.5t-21.5 -78q0 -9 1.5 -41.5t1.5 -46.5q0 -17 -13 -24t-26 0t-13 24q0 16 -18.5 122.5t-18.5 119.5q0 59 15 107.5t39 80.5t53 59.5 t57.5 52t52.5 49.5t39 60t15 78q0 19 -5 40t-18.5 45.5t-34 43.5t-54.5 32t-77 13q-146 0 -190 -106q47 -2 86 -31.5t39 -83.5q0 -46 -32.5 -78.5t-78.5 -32.5q-55 0 -91 44t-36 98zM313 109q0 54 37.5 91.5t91.5 37.5t90.5 -37.5t36.5 -91.5t-36.5 -91.5t-90.5 -37.5 t-91.5 37.5t-37.5 91.5z" />
<glyph unicode="@" horiz-adv-x="1482" d="M76 352q0 150 59 286.5t158 236t236 158.5t286 59q166 0 300 -68.5t212 -195.5t78 -291q0 -100 -36 -197.5t-92.5 -167.5t-126.5 -113t-136 -43q-70 0 -118 33.5t-58 77.5q-32 -51 -86 -84t-103 -33q-86 0 -140.5 53t-67 139t4.5 195q30 162 136 274.5t237 112.5 q12 0 21.5 -1t17.5 -3.5t12.5 -3.5t11 -6t8 -6t7.5 -8l6 -6h187l-95 -529q-12 -68 4.5 -97.5t63.5 -29.5q40 0 87.5 36t88.5 94t69 141t29 167q0 111 -40.5 203t-108.5 151t-155.5 91.5t-184.5 32.5q-105 0 -196 -35t-158 -96.5t-115 -143.5t-72 -178t-24 -199 q0 -172 53.5 -300.5t165.5 -203.5t272 -75q121 0 237.5 36t207.5 99q14 9 25 2.5t10 -19t-11 -22.5q-111 -82 -240 -125t-249 -43q-186 0 -341.5 84t-246 232.5t-90.5 328.5zM631 185q3 -44 20.5 -66.5t50.5 -22.5q53 0 82.5 40.5t38.5 84.5l64 441q0 24 -16 39.5t-46 15.5 q-32 0 -57.5 -18t-42.5 -44.5t-32 -72t-24 -85.5t-20 -100q-12 -70 -16.5 -119t-1.5 -93z" />
<glyph unicode="A" horiz-adv-x="1212" d="M-84 29q0 16 10 26.5t21 10.5q1 0 33 -1.5t88 -1.5h14l498 1266q5 10 7.5 13.5t9.5 6.5t19 3q25 0 35 -23l486 -1266q56 0 94 1.5t39 1.5q12 0 21 -10t9 -27t-8.5 -26t-21.5 -9q-4 0 -22.5 2.5t-65.5 5t-121 2.5h-137q-74 0 -121 -2.5t-65.5 -5t-22.5 -2.5 q-12 0 -21.5 9.5t-9.5 25.5t10 26.5t21 10.5q1 0 40 -1.5t97 -1.5l-133 351h-418l-139 -351h14q59 0 93 1l34 2q11 0 21 -10.5t10 -26.5t-9.5 -25.5t-21.5 -9.5q-5 0 -19.5 2.5t-53 5t-101.5 2.5h-10q-64 0 -102 -2.5t-51.5 -5t-18.5 -2.5q-12 0 -21.5 9.5t-9.5 25.5z M330 487h360l-178 465z" />
<glyph unicode="B" horiz-adv-x="1245" d="M94 29q0 17 9 27t22 10l40 -2q40 -1 99 -1v1188q-59 0 -99 -1l-40 -1q-13 0 -22 10t-9 27q0 15 9.5 25t21.5 10q4 0 22.5 -2.5t65.5 -5t121 -2.5h102q40 0 110.5 2t104.5 2q214 0 327.5 -88t113.5 -228q0 -103 -70.5 -182.5t-165.5 -107.5q137 -25 229.5 -123t92.5 -230 q0 -167 -115.5 -263.5t-333.5 -96.5q-60 0 -155 4t-138 4h-102q-74 0 -121 -2.5t-65.5 -5t-22.5 -2.5q-13 0 -22 9.5t-9 25.5zM528 76h154q119 0 166 62t47 218q0 136 -58 214.5t-165 78.5h-144v-573zM528 723h60q111 0 166 60t55 216q0 131 -47 185.5t-162 54.5h-72v-516z " />
<glyph unicode="C" horiz-adv-x="1177" d="M88 657q0 151 50 282t132 219.5t187.5 139t216.5 50.5q109 0 179.5 -32t131.5 -91q21 4 39 30.5t18 49.5q0 32 29 32q15 0 23 -6t9 -11t1 -13v-426q0 -33 -31 -33t-31 33q0 166 -101.5 276.5t-248.5 110.5q-120 0 -186.5 -57.5t-95.5 -187.5t-29 -366t29 -366t95.5 -187 t186.5 -57q147 0 248.5 110.5t101.5 276.5q0 33 31 33t31 -33v-426q0 -8 -1 -13t-9 -11.5t-23 -6.5q-29 0 -29 33q0 23 -17 47t-40 31q-63 -61 -132 -92t-179 -31q-111 0 -216.5 50.5t-187.5 139.5t-132 220t-50 282z" />
<glyph unicode="D" horiz-adv-x="1433" d="M94 29q0 17 9 27t22 10l40 -2q40 -1 99 -1v1188q-59 0 -99 -1l-40 -1q-13 0 -22 10t-9 27q0 15 9.5 25t21.5 10q4 0 22.5 -2.5t65.5 -5t121 -2.5h102q88 0 205 3t154 3q111 0 211.5 -48t175.5 -133t119.5 -209.5t44.5 -269.5t-44.5 -269.5t-119.5 -209.5t-175.5 -133.5 t-211.5 -48.5q-35 0 -150 4t-209 4h-102q-74 0 -121 -2.5t-65.5 -5t-22.5 -2.5q-13 0 -22 9.5t-9 25.5zM528 80q92 -4 217 -4q103 0 169 53t102.5 183t36.5 345t-36.5 345.5t-102.5 183.5t-169 53l-217 -4v-1155z" />
<glyph unicode="E" horiz-adv-x="1161" d="M94 29q0 17 9 27t22 10l40 -2q40 -1 99 -1v1188q-59 0 -99 -1l-40 -1q-13 0 -22 10t-9 27q0 15 9.5 25t21.5 10q4 0 22.5 -2.5t65.5 -5t121 -2.5h51l543 4q17 0 61 4t51 4q13 0 22 -10t9 -27v-61q0 -50 5 -148t5 -100q0 -13 -8 -22t-22 -9q-16 0 -25.5 9t-9.5 22 q0 129 -47 195.5t-156 66.5h-285v-516h134q77 0 119 40.5t42 117.5q0 30 27 30t27 -30q0 -4 -0.5 -25t-1.5 -65.5t-1 -104.5t1 -104t1.5 -65t0.5 -25q0 -12 -7 -21.5t-20 -9.5t-20 9.5t-7 21.5q0 77 -42 117t-119 40h-134v-573h336q109 0 156 66.5t47 195.5q0 13 9.5 22 t25.5 9q14 0 22.5 -9t8.5 -22q0 -2 -5.5 -100t-5.5 -148v-63q0 -15 -9 -25t-21 -10q-7 0 -51.5 4t-61.5 4l-594 4h-51q-74 0 -121 -2.5t-65.5 -5t-22.5 -2.5q-13 0 -22 9.5t-9 25.5z" />
<glyph unicode="F" horiz-adv-x="1126" d="M94 29q0 17 9 27t22 10l40 -2q40 -1 99 -1v1188q-59 0 -99 -1l-40 -1q-13 0 -22 10t-9 27q0 15 9.5 25t21.5 10q4 0 22.5 -2.5t65.5 -5t121 -2.5h153l474 4q18 0 62.5 4t51.5 4q13 0 22 -10t9 -27v-61q0 -50 5 -148t5 -100q0 -13 -8.5 -22t-24.5 -9q-32 0 -32 31 q0 130 -47 196t-158 66h-318v-516h168q76 0 118 40.5t42 117.5q0 12 8 21t21 9q26 0 26 -30q0 -4 -1 -25t-2 -65.5t-1 -104.5t1 -104t2 -65t1 -25q0 -12 -7 -21.5t-19 -9.5q-13 0 -21 10t-8 21q0 77 -42 117t-118 40h-168v-586q44 0 74.5 0.5t46 1.5t21.5 1q11 0 20.5 -10.5 t9.5 -26.5t-9 -25.5t-21 -9.5q-4 0 -22.5 2.5t-65.5 5t-121 2.5h-127q-74 0 -121 -2.5t-65.5 -5t-22.5 -2.5q-13 0 -22 9.5t-9 25.5z" />
<glyph unicode="G" horiz-adv-x="1296" d="M88 657q0 151 48.5 282t129 219.5t185 139t215.5 50.5q189 0 335 -142q24 10 42 35t18 55q0 31 29 31q15 0 22.5 -6.5t8.5 -11.5t1 -13v-415q0 -33 -30 -33q-31 0 -31 33q0 108 -53.5 198t-140.5 139.5t-185 49.5q-118 0 -182.5 -57.5t-91.5 -187t-27 -366.5 q0 -143 9 -242t29.5 -172t56 -115t85.5 -61.5t121 -19.5q125 0 165 75t40 296v28q-59 0 -99.5 -0.5t-58 -1t-22.5 -0.5q-12 0 -21.5 9.5t-9.5 25.5t10 26.5t21 10.5q4 0 22 -2.5t65 -5t121 -2.5h168q74 0 121 2.5t65.5 5t22.5 2.5q11 0 21 -10.5t10 -26.5t-9.5 -25.5 t-21.5 -9.5l-40 1q-40 1 -99 1v-20q0 -225 -121.5 -343t-365.5 -118q-111 0 -215.5 50.5t-185 139.5t-129 220t-48.5 282z" />
<glyph unicode="H" horiz-adv-x="1501" d="M94 29q0 17 9 27t22 10l40 -2q40 -1 99 -1v1188q-59 0 -99 -1l-40 -1q-13 0 -22 10t-9 27q0 15 9.5 25t21.5 10q4 0 22.5 -2.5t65.5 -5t121 -2.5h127q74 0 121 2.5t65.5 5t22.5 2.5q11 0 20.5 -10.5t9.5 -24.5q0 -16 -9.5 -26.5t-20.5 -10.5q-6 0 -21.5 0.5t-46 1 t-74.5 0.5v-528h445v528q-59 0 -99 -1l-40 -1q-13 0 -22 10t-9 27q0 15 9.5 25t21.5 10q4 0 22 -2.5t64.5 -5t119.5 -2.5h129q74 0 121 2.5t65.5 5t22.5 2.5q11 0 21 -10.5t10 -24.5q0 -16 -10 -26.5t-21 -10.5l-40 1q-41 1 -101 1v-1188q60 0 101 1l40 2q11 0 21 -10.5 t10 -26.5t-9.5 -25.5t-21.5 -9.5q-4 0 -22.5 2.5t-65.5 5t-121 2.5h-129q-73 0 -119.5 -2.5t-64.5 -5t-22 -2.5q-13 0 -22 9.5t-9 25.5q0 17 9 27t22 10l40 -2q40 -1 99 -1v586h-445v-586q44 0 74.5 0.5t46 1.5t21.5 1q11 0 20.5 -10.5t9.5 -26.5t-9 -25.5t-21 -9.5 q-4 0 -22.5 2.5t-65.5 5t-121 2.5h-127q-74 0 -121 -2.5t-65.5 -5t-22.5 -2.5q-13 0 -22 9.5t-9 25.5z" />
<glyph unicode="I" horiz-adv-x="794" d="M94 29q0 17 9 27t22 10l40 -2q40 -1 99 -1v1188q-59 0 -99 -1l-40 -1q-13 0 -22 10t-9 27q0 15 9.5 25t21.5 10q4 0 22.5 -2.5t65.5 -5t121 -2.5h127q74 0 121 2.5t65.5 5t22.5 2.5q11 0 20.5 -10.5t9.5 -24.5q0 -16 -9.5 -26.5t-20.5 -10.5q-6 0 -21.5 0.5t-46 1 t-74.5 0.5v-1188q44 0 74.5 0.5t46 1.5t21.5 1q11 0 20.5 -10.5t9.5 -26.5t-9 -25.5t-21 -9.5q-4 0 -22.5 2.5t-65.5 5t-121 2.5h-127q-74 0 -121 -2.5t-65.5 -5t-22.5 -2.5q-13 0 -22 9.5t-9 25.5z" />
<glyph unicode="J" horiz-adv-x="751" d="M-68 -139q0 53 30 86t77 33q44 0 75 -32t31 -77q0 -35 -21.5 -64.5t-57.5 -39.5q26 -29 73 -29q125 0 125 174v1339q-59 0 -99 -1l-40 -1q-13 0 -22 10t-9 27q0 15 9.5 25t21.5 10q4 0 22.5 -2.5t65.5 -5t121 -2.5h127q74 0 121 2.5t65.5 5t22.5 2.5q11 0 20.5 -10.5 t9.5 -24.5q0 -16 -9.5 -26.5t-20.5 -10.5q-6 0 -21.5 0.5t-46 1t-74.5 0.5v-1130q0 -214 -96 -326t-262 -112q-108 0 -173 57.5t-65 120.5z" />
<glyph unicode="K" horiz-adv-x="1296" d="M94 29q0 17 9 27t22 10l40 -2q40 -1 99 -1v1188q-59 0 -99 -1l-40 -1q-13 0 -22 10t-9 27q0 15 9.5 25t21.5 10q4 0 22.5 -2.5t65.5 -5t121 -2.5h127q74 0 121 2.5t65.5 5t22.5 2.5q11 0 20.5 -10.5t9.5 -24.5q0 -16 -9.5 -26.5t-20.5 -10.5q-6 0 -21.5 0.5t-46 1 t-74.5 0.5v-1188q44 0 74.5 0.5t46 1.5t21.5 1q11 0 20.5 -10.5t9.5 -26.5t-9 -25.5t-21 -9.5q-4 0 -22.5 2.5t-65.5 5t-121 2.5h-127q-74 0 -121 -2.5t-65.5 -5t-22.5 -2.5q-13 0 -22 9.5t-9 25.5zM539 631v16l497 604h-6q-55 0 -86.5 -1t-32.5 -1q-11 0 -20.5 10.5 t-9.5 26.5q0 14 9.5 24.5t20.5 10.5q5 0 18.5 -2.5t51.5 -5t102 -2.5h11q63 0 101 2.5t52 5t19 2.5q12 0 21 -10t9 -25q0 -17 -9 -27t-21 -10l-33 1q-33 1 -92 1h-8l-383 -460l481 -728q47 0 75 1.5t29 1.5q11 0 21 -10.5t10 -26.5t-9.5 -25.5t-21.5 -9.5q-4 0 -22.5 2.5 t-65.5 5t-121 2.5h-108q-74 0 -121 -2.5t-65.5 -5t-22.5 -2.5q-12 0 -21.5 9.5t-9.5 25.5t10 26.5t21 10.5q2 0 29.5 -1.5t72.5 -1.5z" />
<glyph unicode="L" horiz-adv-x="1099" d="M94 29q0 17 9 27t22 10l40 -2q40 -1 99 -1v1188q-59 0 -99 -1l-40 -1q-13 0 -22 10t-9 27q0 15 9.5 25t21.5 10q4 0 22.5 -2.5t65.5 -5t121 -2.5h127q74 0 121 2.5t65.5 5t22.5 2.5q11 0 20.5 -10.5t9.5 -24.5q0 -16 -9.5 -26.5t-20.5 -10.5q-6 0 -21.5 0.5t-46 1 t-74.5 0.5v-1175h318q111 0 158 66t47 196q0 31 32 31q16 0 24.5 -9t8.5 -22q0 -2 -5 -100t-5 -148v-63q0 -15 -9.5 -25t-21.5 -10q-7 0 -51.5 4t-62.5 4l-576 4h-51q-74 0 -121 -2.5t-65.5 -5t-22.5 -2.5q-13 0 -22 9.5t-9 25.5z" />
<glyph unicode="M" horiz-adv-x="1712" d="M94 29q0 17 9 27t22 10l40 -2q40 -1 99 -1v1188q-59 0 -99 -1l-40 -1q-13 0 -22 10t-9 27q0 15 9.5 25t21.5 10q5 0 20.5 -2t55.5 -4.5t102 -3.5h180q21 0 27.5 -9.5t21.5 -50.5l326 -897l342 897q2 6 6 20t6.5 20t10.5 12.5t20 7.5h135q74 0 121 2.5t65.5 5t22.5 2.5 q12 0 21.5 -10t9.5 -25q0 -17 -9 -27t-22 -10l-40 1q-40 1 -99 1v-1188q59 0 99 1l40 2q13 0 22 -10t9 -27q0 -16 -9 -25.5t-22 -9.5q-4 0 -22.5 2.5t-65.5 5t-121 2.5h-110q-73 0 -119.5 -2.5t-65 -5t-22.5 -2.5q-13 0 -22 9.5t-9 25.5q0 17 9 27t22 10l40 -2q40 -1 99 -1 v977l-401 -1056q-9 -21 -35 -21q-28 0 -35 21l-389 1067v-988q59 0 99 1l40 2q13 0 22 -10t9 -27q0 -16 -9 -25.5t-22 -9.5q-5 0 -20.5 2t-55 4.5t-100.5 3.5q-62 -1 -102 -3.5t-55.5 -4.5t-20.5 -2q-13 0 -22 9.5t-9 25.5z" />
<glyph unicode="N" horiz-adv-x="1337" d="M59 29q0 16 10 26.5t21 10.5l40 -2q41 -1 101 -1v1188q-60 0 -101 -1l-40 -1q-11 0 -21 10.5t-10 26.5q0 14 10 24.5t21 10.5q5 0 21 -2t56 -4.5t101 -3.5q57 0 102.5 1t70.5 2t32 1q20 0 35.5 -14.5t46.5 -61.5l496 -750v762q-59 0 -99 -1l-41 -1q-11 0 -20.5 10.5 t-9.5 26.5q0 14 9.5 24.5t20.5 10.5q5 0 20.5 -2t56 -4.5t102.5 -3.5q61 1 100.5 3.5t55 4.5t20.5 2q12 0 21 -10t9 -25q0 -17 -9 -27t-21 -10l-40 1q-41 1 -100 1v-1220q0 -58 -28 -58q-22 0 -47 41l-746 1123v-1074q44 0 74.5 0.5t45.5 1.5t21 1q11 0 21 -10.5t10 -26.5 t-9.5 -25.5t-21.5 -9.5q-6 0 -21.5 2t-55.5 4.5t-101 3.5q-61 -1 -101 -3.5t-56 -4.5t-21 -2q-12 0 -21.5 9.5t-9.5 25.5z" />
<glyph unicode="O" horiz-adv-x="1398" d="M88 657q0 152 49 282t132 219t194.5 139.5t236.5 50.5q124 0 235.5 -50.5t194.5 -139.5t132 -219t49 -282t-49 -282.5t-132 -219.5t-194.5 -139.5t-235.5 -50.5t-236 50.5t-195 139.5t-132 219.5t-49 282.5zM381 657q0 -172 19.5 -290.5t60.5 -188.5t99 -100.5t140 -30.5 q109 0 177 55t104.5 191t36.5 364t-36.5 364t-104.5 191.5t-177 55.5q-110 0 -178 -55.5t-104.5 -191.5t-36.5 -364z" />
<glyph unicode="P" horiz-adv-x="1134" d="M94 29q0 17 9 27t22 10l40 -2q40 -1 99 -1v1188q-59 0 -99 -1l-40 -1q-13 0 -22 10t-9 27q0 15 9.5 25t21.5 10q4 0 22.5 -2.5t65.5 -5t121 -2.5h102q204 4 234 4q219 0 337.5 -103t118.5 -280q0 -176 -119 -280.5t-337 -104.5h-142v-484q44 0 74.5 0.5t46 1.5t21.5 1 q11 0 20.5 -10.5t9.5 -26.5t-9 -25.5t-21 -9.5q-4 0 -22.5 2.5t-65.5 5t-121 2.5h-127q-74 0 -121 -2.5t-65.5 -5t-22.5 -2.5q-13 0 -22 9.5t-9 25.5zM528 621h109q116 0 161.5 68.5t45.5 242.5q0 172 -45.5 239.5t-161.5 67.5h-109v-618z" />
<glyph unicode="Q" horiz-adv-x="1398" d="M88 657q0 152 49 282t132 219t194.5 139.5t236.5 50.5q124 0 235.5 -50.5t194.5 -139.5t132 -219t49 -282q0 -264 -138 -448.5t-350 -228.5v-105q0 -84 11.5 -139t35.5 -83t52 -38t71 -10q137 0 224 123q30 47 57 47q12 0 22.5 -11t10.5 -24q0 -27 -31 -62 q-138 -145 -307 -145q-182 0 -288 97.5t-106 293.5v56q-211 46 -349 230t-138 447zM381 657q0 -172 19.5 -290.5t60.5 -188.5t99 -100.5t140 -30.5q109 0 177.5 55t105.5 191t37 364t-37 364t-105.5 191.5t-177.5 55.5q-110 0 -178 -55.5t-104.5 -191.5t-36.5 -364z" />
<glyph unicode="R" horiz-adv-x="1263" d="M94 29q0 17 9 27t22 10l40 -2q40 -1 99 -1v1188q-59 0 -99 -1l-40 -1q-13 0 -22 10t-9 27q0 15 9.5 25t21.5 10q4 0 22.5 -2.5t65.5 -5t121 -2.5h102q40 0 110.5 2t104.5 2q214 0 327.5 -88t113.5 -228q0 -104 -73 -184.5t-177 -109.5q86 -20 150.5 -80t95 -131 t30.5 -140q0 -64 -5 -138.5t-5 -94.5q0 -80 51 -80q29 0 47.5 15.5t18.5 43.5q0 14 9 25.5t21 11.5q13 0 24 -11t11 -22q0 -55 -50 -89.5t-126 -34.5q-128 0 -199 92.5t-71 281.5q0 145 -55.5 220t-196.5 75h-64v-586q44 0 74.5 0.5t46 1.5t21.5 1q11 0 20.5 -10.5 t9.5 -26.5t-9 -25.5t-21 -9.5q-4 0 -22.5 2.5t-65.5 5t-121 2.5h-127q-74 0 -121 -2.5t-65.5 -5t-22.5 -2.5q-13 0 -22 9.5t-9 25.5zM528 723h60q111 0 166 60t55 216q0 131 -47 185.5t-162 54.5h-72v-516z" />
<glyph unicode="S" horiz-adv-x="1040" d="M96 938q0 105 38 187.5t99 129t130 70t139 23.5q82 0 153.5 -23.5t118.5 -58.5q19 0 35 15t16 36q0 31 31 31t31 -31v-334q0 -33 -31 -33t-31 33q0 47 -18.5 95t-55 91t-100 70t-143.5 27q-109 0 -182.5 -58.5t-73.5 -167.5q0 -77 52 -130.5t132 -69.5l203 -41 q87 -18 154.5 -60t106 -96.5t58 -112t19.5 -114.5q0 -113 -38 -201t-103.5 -141.5t-146 -81t-171.5 -27.5q-83 0 -163.5 30t-135.5 71q-21 0 -38 -19.5t-17 -48.5q0 -33 -29 -33q-15 0 -23 6.5t-9 11.5t-1 13v389q0 33 31 33t31 -33q0 -146 105.5 -238t258.5 -92 q111 0 195 59t84 169q0 89 -57.5 140t-157.5 79l-148 28q-93 18 -162 59t-108.5 97.5t-58.5 119t-19 132.5z" />
<glyph unicode="T" horiz-adv-x="1132" d="M16 977q0 2 5.5 100t5.5 148v61q0 16 9.5 26.5t20.5 10.5q8 0 52.5 -4t62.5 -4l303 -4h182l301 4q18 0 63 4t52 4q13 0 22 -10t9 -27v-61q0 -50 5 -148t5 -100q0 -13 -8.5 -22t-24.5 -9q-14 0 -23 9t-9 22q0 129 -47 195.5t-156 66.5h-148v-1176q59 0 100 1l40 2 q12 0 21 -10t9 -27t-8.5 -26t-21.5 -9q-4 0 -22.5 2.5t-65 5t-119.5 2.5h-129q-74 0 -121 -2.5t-65.5 -5t-22.5 -2.5q-12 0 -21.5 9.5t-9.5 25.5t10 26.5t21 10.5l41 -2q40 -1 100 -1v1176h-147q-109 0 -156 -66.5t-47 -195.5q0 -13 -9.5 -22t-25.5 -9t-24.5 9t-8.5 22z" />
<glyph unicode="U" horiz-adv-x="1366" d="M51 1286q0 14 10 24.5t21 10.5q4 0 22.5 -2.5t65.5 -5t121 -2.5h127q74 0 121 2.5t65.5 5t22.5 2.5q11 0 20.5 -10.5t9.5 -24.5q0 -16 -9.5 -26.5t-20.5 -10.5l-41 1q-40 1 -99 1v-909q0 -138 78 -216.5t226 -78.5q79 0 139.5 27.5t95.5 75.5t52.5 106t17.5 125v870 q-59 0 -100 -1l-40 -1q-12 0 -21 10t-9 27q0 15 9 25t21 10q5 0 20.5 -2t55.5 -4.5t101 -3.5q62 1 102 3.5t55.5 4.5t20.5 2q12 0 21 -10t9 -25q0 -17 -9 -27t-21 -10l-41 1q-40 1 -99 1v-870q0 -195 -119.5 -305.5t-355.5 -110.5q-218 0 -346.5 113t-128.5 303v870 q-59 0 -99 -1l-40 -1q-11 0 -21 10.5t-10 26.5z" />
<glyph unicode="V" horiz-adv-x="1212" d="M-84 1286q0 14 10 24.5t21 10.5q4 0 22.5 -2.5t65.5 -5t121 -2.5h137q74 0 121 2.5t65.5 5t22.5 2.5q12 0 21 -10t9 -25q0 -17 -9 -27t-21 -10l-40 1q-40 1 -97 1l340 -889l350 889h-15q-59 0 -92 -1l-33 -1q-12 0 -21 10t-9 27q0 15 9 25t21 10q5 0 19 -2.5t52 -5 t101 -2.5h11q64 0 102 2.5t51.5 5t18.5 2.5q12 0 21 -10t9 -25q0 -17 -9 -27t-21 -10q-1 0 -32.5 1t-86.5 1h-16l-498 -1267q-5 -12 -12 -16.5t-25 -4.5q-26 0 -33 21l-487 1267q-56 0 -94 -1t-39 -1q-11 0 -21 10.5t-10 26.5z" />
<glyph unicode="W" horiz-adv-x="1730" d="M-84 1286q0 14 10 24.5t21 10.5q4 0 22.5 -2.5t65.5 -5t121 -2.5h983q43 0 74.5 1.5t43.5 3.5t21.5 3.5t15.5 1.5q11 0 21 -10.5t10 -24.5q0 -16 -10 -26.5t-21 -10.5q-2 0 -31 1t-79 1h-8l-158 -401l196 -512l359 913h-4q-56 0 -87 -1t-32 -1q-11 0 -21 10.5t-10 26.5 q0 14 10 24.5t21 10.5q5 0 19 -2.5t48 -5t89 -2.5h10q64 0 102 2.5t51.5 5t18.5 2.5q12 0 21.5 -10t9.5 -25q0 -17 -9 -27t-22 -10q-1 0 -32.5 1t-86.5 1h-14l-500 -1267q-9 -21 -35 -21q-28 0 -35 21l-221 577l-227 -577q-5 -12 -12 -16.5t-25 -4.5q-26 0 -33 21l-487 1267 q-56 0 -94 -1t-39 -1q-11 0 -21 10.5t-10 26.5zM346 1251l350 -913l129 328l-225 585h-254zM864 1251l115 -299l117 299h-232z" />
<glyph unicode="X" horiz-adv-x="1128" d="M-47 29q0 17 9 27t22 10q1 0 32 -1.5t86 -1.5h7l350 531l-330 657q-54 0 -91 -1t-38 -1q-13 0 -22 10t-9 27q0 15 9.5 25t21.5 10q4 0 22.5 -2.5t65.5 -5t121 -2.5h135q73 0 119.5 2.5t65 5t22.5 2.5q12 0 21.5 -10t9.5 -25q0 -17 -9 -27t-22 -10l-37 1q-37 1 -90 1 l217 -438l285 438h-8q-60 0 -94 -1l-33 -1q-13 0 -22 10t-9 27q0 15 9.5 25t21.5 10q5 0 19 -2.5t52 -5t101 -2.5h10q64 0 102 2.5t51.5 5t18.5 2.5q12 0 21.5 -10t9.5 -25q0 -17 -9 -27t-22 -10q-1 0 -32.5 1t-86.5 1h-6l-340 -518l338 -670q54 0 91 1.5t38 1.5 q13 0 22 -10t9 -27q0 -16 -9 -25.5t-22 -9.5q-4 0 -22.5 2.5t-65.5 5t-121 2.5h-135q-74 0 -121 -2.5t-65.5 -5t-22.5 -2.5q-12 0 -21.5 9.5t-9.5 25.5t10 26.5t21 10.5l38 -2q37 -1 91 -1l-225 451l-295 -451h8q60 0 93 1l34 2q13 0 22 -10t9 -27q0 -16 -9 -25.5t-22 -9.5 q-5 0 -19 2.5t-52 5t-101 2.5h-10q-64 0 -102 -2.5t-51.5 -5t-18.5 -2.5q-13 0 -22 9.5t-9 25.5z" />
<glyph unicode="Y" horiz-adv-x="1060" d="M-90 1286q0 15 9.5 25t21.5 10q4 0 22.5 -2.5t65.5 -5t121 -2.5h139q74 0 121 2.5t65.5 5t22.5 2.5q11 0 20.5 -10.5t9.5 -24.5q0 -16 -9.5 -26.5t-20.5 -10.5q-1 0 -39 1t-92 1l270 -510l229 435q18 35 10.5 55t-30.5 20t-47 -1t-31 -1q-11 0 -21 10.5t-10 26.5 q0 14 10 24.5t21 10.5q5 0 19 -2.5t52 -5t101 -2.5h10q64 0 102 2.5t51.5 5t18.5 2.5q12 0 21.5 -10t9.5 -25q0 -17 -9 -27t-22 -10q-8 0 -26.5 1t-36.5 1q-64 0 -115 -92l-268 -504v-592q59 0 99 1l40 2q13 0 22 -10t9 -27q0 -16 -9 -25.5t-22 -9.5q-4 0 -22.5 2.5t-65 5 t-119.5 2.5h-129q-73 0 -119.5 -2.5t-65 -5t-22.5 -2.5q-13 0 -21.5 9t-8.5 26t9 27t21 10l40 -2q41 -1 100 -1v541l-344 647q-52 0 -89 -1t-38 -1q-13 0 -22 10t-9 27z" />
<glyph unicode="Z" horiz-adv-x="972" d="M39 0q-6 5 -6 18q0 20 16 58l574 1163h-308q-107 0 -154.5 -71.5t-47.5 -190.5q0 -13 -9.5 -22t-25.5 -9q-14 0 -22.5 9t-8.5 22q0 2 5 100t5 148v61q0 17 9 27t22 10q7 0 51.5 -4t61.5 -4h528q33 0 71 1t54.5 1.5t32 -1.5t24.5 -7q4 -2 6.5 -4.5t3.5 -5.5t1.5 -6t0 -7.5 t-1.5 -7.5t-3 -8.5t-3.5 -9.5t-4.5 -10.5t-5 -10.5l-573 -1163h336q202 0 202 262q0 13 9.5 22t25.5 9t24.5 -9t8.5 -22q0 -2 -5 -100t-5 -148v-63q0 -14 -10 -24.5t-21 -10.5q-8 0 -52.5 4t-62.5 4h-520q-42 0 -98.5 -5.5t-85 -5.5t-39.5 11z" />
<glyph unicode="[" horiz-adv-x="733" d="M197 -139q0 7 4 51t4 61v1262q0 17 -4 61.5t-4 51.5q0 12 9.5 21t24.5 9h123q95 0 159.5 3t91.5 5.5t30 2.5q13 0 22 -8.5t9 -22.5q0 -16 -9 -25.5t-22 -9.5h-211v-1438h211q13 0 22 -9.5t9 -25.5q0 -14 -9 -22t-22 -8q-3 0 -32 2.5t-93.5 5t-155.5 2.5h-123 q-15 0 -24.5 9.5t-9.5 21.5z" />
<glyph unicode="\" horiz-adv-x="712" d="M27 1284q-5 15 2 30.5t26 22.5q21 8 36.5 2.5t21.5 -20.5q3 -6 15.5 -41t36.5 -96t54 -131l348 -822q27 -65 60.5 -129.5t34.5 -68.5q5 -15 -2 -32t-27 -24q-21 -8 -36 -2t-22 21l-25 70q-25 70 -52 137l-348 821q-30 71 -57.5 129t-45 92.5t-20.5 40.5z" />
<glyph unicode="]" horiz-adv-x="733" d="M68 -150q0 16 9 25.5t21 9.5h213v1438h-213q-12 0 -21 9.5t-9 25.5q0 14 9.5 22.5t20.5 8.5q3 0 30 -2.5t92 -5.5t161 -3h121q17 0 27 -9t10 -21q0 -7 -5.5 -51.5t-5.5 -61.5v-1262q0 -17 5.5 -61t5.5 -51q0 -13 -10 -22t-27 -9h-121q-91 0 -156.5 -2.5t-94.5 -5 t-32 -2.5q-12 0 -21 8t-9 22z" />
<glyph unicode="^" horiz-adv-x="993" d="M102.5 732.5q-13.5 13.5 1.5 37.5l365 561q29 44 59 0l365 -561q18 -27 2.5 -39.5t-39.5 8.5l-358 289l-359 -289q-23 -20 -36.5 -6.5z" />
<glyph unicode="_" horiz-adv-x="733" d="M-2 0h737v-90h-737v90z" />
<glyph unicode="`" horiz-adv-x="1060" d="M114 1213q-4 37 19 65q24 28 61.5 32t65.5 -20q11 -10 43.5 -57t94 -118t147.5 -142q13 -12 9 -28.5t-17.5 -21.5t-28.5 5q-86 71 -167 119.5t-131.5 72t-62.5 33.5q-29 23 -33 60z" />
<glyph unicode="a" horiz-adv-x="905" d="M51 162q0 70 39 124.5t105.5 86t147.5 47.5t173 16v201q0 74 -27 105.5t-90 31.5q-41 0 -74 -13t-44 -32q24 -10 38.5 -36t14.5 -56q0 -47 -32 -79t-79 -32q-46 0 -76 32t-30 79q0 60 45.5 107t109 69.5t127.5 22.5q194 0 279.5 -92.5t85.5 -297.5v-335q0 -54 20 -54 q15 0 24.5 8t21.5 24.5t22 25.5q12 11 26 11q16 0 33 -17q7 -11 7 -24q0 -6 -2 -13q-6 -21 -19 -31q-82 -64 -188 -64q-65 0 -105.5 17.5t-56 40t-29.5 61.5q-134 -123 -266 -123q-87 0 -144 50t-57 139zM299 188q0 -46 24.5 -73t55.5 -27q60 0 137 74v215 q-108 0 -162.5 -48.5t-54.5 -140.5z" />
<glyph unicode="b" horiz-adv-x="1083" d="M14 33q0 16 9 25.5t22 9.5l36 -2q36 -3 95 -3v1188q-59 0 -95 -3l-36 -3q-13 0 -22 10t-9 27q0 16 9 25.5t22 9.5l36 -1q36 -1 95 -1q76 0 125.5 2t69 4t22.5 2q11 0 21 -10.5t10 -26.5v-618q24 70 96.5 119t145.5 49q152 0 248 -120.5t96 -314.5t-96.5 -315t-247.5 -121 q-73 0 -145.5 50t-96.5 120v-108q0 -14 -10 -24.5t-21 -10.5q-4 0 -30.5 2t-76.5 4t-110 2q-59 0 -95 -2l-36 -2q-13 0 -22 10t-9 27zM424 401q0 -166 66.5 -265t150.5 -99q65 0 83.5 75t18.5 289t-18.5 288.5t-83.5 74.5q-84 0 -150.5 -98.5t-66.5 -264.5z" />
<glyph unicode="c" horiz-adv-x="854" d="M74 401q0 195 109 315t286 120q81 0 153.5 -26t120.5 -79t48 -121q0 -60 -34 -97.5t-83 -37.5q-47 0 -81 33.5t-34 79.5q0 40 30 74t62 36q-15 33 -52.5 52.5t-88.5 19.5q-104 0 -137 -79t-33 -290q0 -207 35.5 -285.5t136.5 -78.5q155 0 215 170q14 33 33 33 q16 0 24.5 -9.5t8.5 -21.5q0 -6 -4.5 -21.5t-4.5 -17.5q-91 -205 -297 -205q-189 0 -301 120t-112 316z" />
<glyph unicode="d" horiz-adv-x="1083" d="M74 401q0 194 96 314.5t248 120.5q74 0 146 -49t98 -119v581q-44 0 -72.5 -1t-42 -2t-19.5 -1q-12 0 -21 9.5t-9 25.5t9.5 26.5t20.5 10.5q6 0 19.5 -1t42 -2t72.5 -1q70 0 119.5 2t71.5 4t26 2q12 0 21 -10t9 -25v-1223q44 0 72.5 1.5t41.5 2.5t19 1q12 0 21.5 -9.5 t9.5 -25.5t-10 -26.5t-21 -10.5l-36 2q-37 2 -97 2q-63 0 -112.5 -2t-75 -4t-29.5 -2q-12 0 -21 10t-9 25v108q-26 -70 -98 -120t-146 -50q-151 0 -247.5 121t-96.5 315zM340 401q0 -212 19.5 -288t84.5 -76q84 0 151 99t67 265t-67 264.5t-151 98.5q-65 0 -84.5 -75.5 t-19.5 -287.5z" />
<glyph unicode="e" horiz-adv-x="931" d="M74 401q0 105 37 190t99 137.5t137.5 80t156.5 27.5q158 0 258 -93t100 -229q0 -6 -1 -18.5t-1 -18.5h-518q-2 -23 -2 -76q0 -198 49 -282t152 -84q95 0 164.5 44.5t99.5 127.5q9 33 31 33q16 0 24 -9.5t8 -21.5q0 -19 -8 -39q-24 -57 -65 -98.5t-89 -63.5t-95 -32.5 t-95 -10.5q-87 0 -165 27.5t-140.5 80t-99.5 137.5t-37 191zM348 549h246q16 46 16 90q0 57 -26.5 94t-81.5 37q-131 0 -154 -221z" />
<glyph unicode="f" horiz-adv-x="681" d="M16 770q0 16 9.5 25.5t21.5 9.5q64 0 166 -2v166q0 211 109 331.5t278 120.5q123 0 196.5 -62.5t73.5 -144.5q0 -60 -32.5 -96.5t-83.5 -36.5q-49 0 -83 34.5t-34 84.5q0 36 22.5 67.5t55.5 45.5q-34 47 -109 47q-71 0 -108 -38t-37 -128v-391q102 2 182 2q13 0 22 -9.5 t9 -25.5t-9 -25.5t-22 -9.5l-61 2q-62 2 -121 2v-676q59 0 95 1l36 2q13 0 22 -10t9 -27q0 -16 -9 -25.5t-22 -9.5q-4 0 -20.5 2.5t-61 5t-117.5 2.5h-110q-74 0 -119 -2.5t-61.5 -5t-20.5 -2.5q-12 0 -21.5 9.5t-9.5 25.5t10 26.5t21 10.5l36 -2q36 -1 95 -1v676 q-59 0 -113 -2l-53 -2q-12 0 -21.5 9.5t-9.5 25.5z" />
<glyph unicode="g" horiz-adv-x="899" d="M37 -299q0 68 43 113.5t110 64.5q-61 19 -96 78t-35 119q0 92 53.5 149.5t129.5 67.5q-69 38 -111.5 103.5t-42.5 144.5q0 123 99 209t239 86q145 0 256 -97q13 90 61.5 136.5t108.5 46.5q69 0 113.5 -42t44.5 -96q0 -46 -28 -77t-69 -31q-40 0 -69 27.5t-29 66.5 q0 50 41 80q-10 3 -21 3q-31 0 -59 -27q-39 -37 -39 -115q0 -18 14.5 -78t14.5 -92q0 -123 -100 -209t-240 -86q-14 0 -51 4t-51 4q-63 0 -101.5 -19.5t-38.5 -60.5t31 -56.5t109 -15.5h243q147 0 225 -80.5t78 -207.5q0 -82 -38 -151t-100.5 -113t-140 -68.5t-159.5 -24.5 q-168 0 -281.5 64.5t-113.5 179.5zM182 -285q0 -90 69 -142t181 -52q149 0 242.5 67t93.5 158q0 64 -45 89.5t-166 25.5h-289q-43 -18 -64.5 -57.5t-21.5 -88.5zM326 541q0 -130 18.5 -184t81.5 -54q64 0 83 54t19 184q0 131 -19 185t-83 54q-63 0 -81.5 -54.5t-18.5 -184.5 z" />
<glyph unicode="h" horiz-adv-x="1132" d="M14 29q0 17 9 27t22 10l36 -2q36 -1 95 -1v1188q-59 0 -95 -3l-36 -3q-13 0 -22 10t-9 27q0 16 9 25.5t22 9.5l36 -1q36 -1 95 -1q71 0 121 2t71.5 4t24.5 2q11 0 21 -10.5t10 -26.5v-702q28 96 113.5 174t183.5 78q130 0 192 -82.5t62 -221.5v-469q59 0 95 1l36 2 q13 0 22 -10t9 -27q0 -16 -9 -25.5t-22 -9.5q-4 0 -20.5 2.5t-61 5t-117.5 2.5h-61q-73 0 -117.5 -2.5t-61 -5t-20.5 -2.5q-13 0 -22 9.5t-9 25.5q0 17 9 27t22 10q6 0 27.5 -1.5t52.5 -1.5v539q0 80 -16.5 108.5t-63.5 28.5q-27 0 -64 -27t-73 -72.5t-61 -117.5t-25 -151 v-308q31 0 52.5 1.5t27.5 1.5q11 0 21 -10.5t10 -26.5t-9.5 -25.5t-21.5 -9.5q-6 0 -21.5 2.5t-48 5t-80.5 2.5h-110q-71 0 -116 -2.5t-62 -5t-21 -2.5q-13 0 -22 9.5t-9 25.5z" />
<glyph unicode="i" horiz-adv-x="636" d="M51 29q0 16 10 26.5t21 10.5l36 -2q36 -1 95 -1v676q-59 0 -95 -3l-36 -3q-11 0 -21 10.5t-10 26.5t9.5 25.5t21.5 9.5l36 -1q36 -1 95 -1q76 0 125.5 2t69 4t22.5 2q13 0 22 -10t9 -27v-711q59 0 95 1l36 2q13 0 22 -10t9 -27q0 -16 -9 -25.5t-22 -9.5q-4 0 -20.5 2.5 t-61 5t-117.5 2.5h-110q-74 0 -119 -2.5t-61.5 -5t-20.5 -2.5q-12 0 -21.5 9.5t-9.5 25.5zM199 1137q0 59 40 100t97 41q58 0 99.5 -41t41.5 -100q0 -57 -41.5 -99.5t-99.5 -42.5q-57 0 -97 42.5t-40 99.5z" />
<glyph unicode="j" horiz-adv-x="598" d="M-137 -350q0 52 30.5 85.5t77.5 33.5q44 0 75.5 -32.5t31.5 -76.5q0 -34 -22 -63t-60 -41q29 -29 76 -29q125 0 125 176v1036q-59 0 -95 -3l-36 -3q-13 0 -22 10t-9 27q0 16 9 25.5t22 9.5l36 -1q36 -1 95 -1q69 0 118.5 2t72 4t26.5 2q11 0 20.5 -10.5t9.5 -26.5v-862 q0 -217 -89.5 -328.5t-252.5 -111.5q-109 0 -174 57t-65 121zM180 1137q0 59 40.5 100t98.5 41q57 0 99.5 -41.5t42.5 -99.5q0 -57 -42.5 -99.5t-99.5 -42.5q-58 0 -98.5 42t-40.5 100z" />
<glyph unicode="k" horiz-adv-x="1085" d="M14 29q0 17 9 27t22 10l36 -2q36 -1 95 -1v1188q-59 0 -95 -3l-36 -3q-13 0 -22 10t-9 27q0 16 9 25.5t22 9.5l36 -1q36 -1 95 -1q68 0 117.5 2t72.5 4t27 2q11 0 21 -10.5t10 -26.5v-1223q24 0 48.5 1.5t31.5 1.5q11 0 21 -10.5t10 -26.5t-9.5 -25.5t-21.5 -9.5 q-6 0 -21.5 2.5t-48 5t-80.5 2.5h-110q-73 0 -117.5 -2.5t-61 -5t-20.5 -2.5q-13 0 -22 9.5t-9 25.5zM434 428v12l367 299h-21q-45 0 -74 -2t-32 -2q-11 0 -21 10.5t-10 26.5t9.5 25.5t21.5 9.5q5 0 21 -3t54.5 -6t98.5 -3h12q61 0 99.5 3t54 6t20.5 3q13 0 22 -9.5t9 -25.5 q0 -17 -9 -27t-22 -10q-4 0 -34 2t-72 2h-31l-248 -202l367 -478q32 0 56 2t28 2q11 0 20.5 -10t9.5 -26q0 -14 -9.5 -24.5t-20.5 -10.5q-5 0 -21 3t-55 6t-98 3h-111q-59 0 -98 -3t-55 -6t-21 -3q-11 0 -21 10.5t-10 24.5q0 16 9.5 26t21.5 10q6 0 26 -2t48 -2z" />
<glyph unicode="l" horiz-adv-x="600" d="M14 29q0 17 9 27t22 10l36 -2q36 -1 95 -1v1188q-59 0 -95 -3l-36 -3q-13 0 -22 10t-9 27q0 16 9 25.5t22 9.5l36 -1q36 -1 95 -1q65 0 114.5 2t74 4t28.5 2q11 0 21 -10.5t10 -26.5v-1223q59 0 95 1l36 2q11 0 21 -10.5t10 -26.5t-9.5 -25.5t-21.5 -9.5q-4 0 -20.5 2.5 t-61.5 5t-119 2.5h-110q-73 0 -117.5 -2.5t-61 -5t-20.5 -2.5q-13 0 -22 9.5t-9 25.5z" />
<glyph unicode="m" horiz-adv-x="1660" d="M51 29q0 16 10 26.5t21 10.5l36 -2q36 -1 95 -1v228v448q-59 0 -95 -3l-36 -3q-11 0 -21 10.5t-10 26.5t9.5 25.5t21.5 9.5l36 -1q36 -1 95 -1q70 0 119.5 2t71.5 4t26 2q13 0 22 -10t9 -27v-190q21 65 55 119.5t90 93.5t121 39q115 0 178.5 -66.5t75.5 -185.5 q38 109 105 180.5t161 71.5q130 0 192 -82.5t62 -221.5v-206v-263q60 0 97 1l36 2q11 0 21 -10.5t10 -26.5t-9.5 -25.5t-21.5 -9.5q-4 0 -20 2.5t-61 5t-119 2.5h-111q-59 0 -95 -5l-36 -5q-13 0 -22 9.5t-9 25.5q0 17 9 27t22 10q9 0 27.5 -1.5t35.5 -1.5v228v360 q0 38 -17 66t-50 28q-40 0 -88.5 -55.5t-83.5 -144.5t-35 -174v-308q22 0 38.5 1.5t24.5 1.5q13 0 22 -10t9 -27q0 -16 -9 -25.5t-22 -9.5q-1 0 -38.5 5t-92.5 5h-110q-60 0 -95 -5l-36 -5q-13 0 -22 9.5t-9 25.5q0 17 9 27t22 10q9 0 26.5 -1.5t34.5 -1.5v228v360 q0 38 -17 66t-48 28q-40 0 -88.5 -55.5t-83.5 -144.5t-35 -174v-308q21 0 38 1.5t25 1.5q11 0 21 -10.5t10 -26.5t-9.5 -25.5t-21.5 -9.5l-36 5q-36 5 -95 5h-110q-74 0 -119 -2.5t-61.5 -5t-20.5 -2.5q-12 0 -21.5 9.5t-9.5 25.5z" />
<glyph unicode="n" horiz-adv-x="1171" d="M51 29q0 16 10 26.5t21 10.5l36 -2q36 -1 95 -1v676q-59 0 -95 -3l-36 -3q-11 0 -21 10.5t-10 26.5t9.5 25.5t21.5 9.5l36 -1q36 -1 95 -1q70 0 119.5 2t71.5 4t26 2q13 0 22 -10t9 -27v-190q28 96 113.5 174t183.5 78q130 0 192 -82.5t62 -221.5v-469q60 0 96 1l35 2 q13 0 22 -10t9 -27q0 -16 -9 -25.5t-22 -9.5q-4 0 -20 2.5t-60.5 5t-118.5 2.5h-59q-74 0 -119 -2.5t-61.5 -5t-20.5 -2.5q-12 0 -21.5 9.5t-9.5 25.5t10 26.5t21 10.5q6 0 29 -1.5t51 -1.5v539q0 80 -16.5 108.5t-63.5 28.5q-27 0 -64 -27t-73 -72.5t-61 -117.5t-25 -151 v-308q26 0 49.5 1.5t30.5 1.5q12 0 21 -10t9 -27t-8.5 -26t-21.5 -9q-1 0 -46.5 5t-101.5 5h-110q-56 0 -97 -1.5t-58 -3.5t-29 -3.5t-17 -1.5q-12 0 -21.5 9.5t-9.5 25.5z" />
<glyph unicode="o" d="M57 401q0 192 126 313.5t313 121.5t312.5 -121.5t125.5 -313.5t-125.5 -314t-312.5 -122t-313 122t-126 314zM324 401q0 -156 15 -232.5t50.5 -106t106.5 -29.5q70 0 105.5 29t51 106.5t15.5 232.5t-15.5 232.5t-51 107t-105.5 29.5q-71 0 -106.5 -29.5t-50.5 -106.5 t-15 -233z" />
<glyph unicode="p" horiz-adv-x="1083" d="M14 -483q0 17 9 27t22 10l36 -2q36 -1 95 -1v1188q-59 0 -95 -3l-36 -3q-13 0 -22 10t-9 27q0 16 9 25.5t22 9.5l36 -1q36 -1 95 -1q70 0 119.5 2t71.5 4t26 2q11 0 21 -10.5t10 -26.5v-106q24 70 96.5 119t145.5 49q152 0 248 -120.5t96 -314.5t-96.5 -315t-247.5 -121 q-73 0 -145.5 50t-96.5 120v-584q59 0 95 1l36 2q11 0 21 -10.5t10 -26.5t-9.5 -25.5t-21.5 -9.5q-4 0 -20.5 2.5t-61.5 5t-119 2.5h-110q-73 0 -117.5 -2.5t-61 -5t-20.5 -2.5q-13 0 -22 9.5t-9 25.5zM424 401q0 -166 66.5 -265t150.5 -99q65 0 83.5 75t18.5 289 t-18.5 288.5t-83.5 74.5q-84 0 -150.5 -98.5t-66.5 -264.5z" />
<glyph unicode="q" horiz-adv-x="1067" d="M74 401q0 194 96 314.5t248 120.5q74 0 146 -49t98 -119v106q0 17 9 27t21 10q4 0 26.5 -2t71.5 -4t117 -2q60 0 97 1l36 1q12 0 21.5 -9.5t9.5 -25.5t-10 -26.5t-21 -10.5l-36 3q-37 3 -97 3v-1188q60 0 97 1l36 2q11 0 21 -10.5t10 -26.5t-9.5 -25.5t-21.5 -9.5 q-4 0 -20 2.5t-61 5t-119 2.5h-111q-74 0 -119 -2.5t-61.5 -5t-20.5 -2.5q-12 0 -21 9.5t-9 25.5t9.5 26.5t20.5 10.5l37 -2q37 -1 97 -1v584q-26 -70 -98 -120t-146 -50q-151 0 -247.5 121t-96.5 315zM340 401q0 -212 19.5 -288t84.5 -76q84 0 151 99t67 265t-67 264.5 t-151 98.5q-65 0 -84.5 -75.5t-19.5 -287.5z" />
<glyph unicode="r" horiz-adv-x="843" d="M51 29q0 16 10 26.5t21 10.5l36 -2q36 -1 95 -1v676q-59 0 -95 -3l-36 -3q-11 0 -21 10.5t-10 26.5t9.5 25.5t21.5 9.5l36 -1q36 -1 95 -1q72 0 121 2t70.5 4t25.5 2q13 0 22 -10t9 -27v-145q16 93 84.5 150t142.5 57q78 0 130 -45t52 -109q0 -59 -33.5 -98t-86.5 -39 q-50 0 -84.5 34.5t-34.5 84.5q0 64 41 90q-10 1 -19 1q-73 0 -129 -91q-63 -103 -63 -318v-283q59 0 95 1l36 2q13 0 22 -10t9 -27q0 -16 -9 -25.5t-22 -9.5q-4 0 -20.5 2.5t-61 5t-117.5 2.5h-110q-74 0 -119 -2.5t-61.5 -5t-20.5 -2.5q-12 0 -21.5 9.5t-9.5 25.5z" />
<glyph unicode="s" horiz-adv-x="794" d="M47 195q0 55 30.5 81.5t72.5 26.5q40 0 68 -28t28 -68q0 -31 -17 -55t-45 -35q61 -80 215 -80q78 0 125 35.5t47 97.5q0 88 -184 137l-86 25q-215 60 -215 254q0 66 29 116.5t76.5 79t102 42.5t112.5 14q73 0 139.5 -21.5t111.5 -65.5t45 -102q0 -48 -30 -77t-68 -29 t-66 27t-28 65q0 27 14.5 50.5t38.5 35.5q-45 49 -151 49q-78 0 -119 -31t-41 -88q0 -44 35.5 -73.5t111.5 -49.5l101 -28q125 -32 182 -96.5t57 -172.5q0 -120 -99 -194t-247 -74q-145 0 -245.5 70.5t-100.5 161.5z" />
<glyph unicode="t" horiz-adv-x="655" d="M-16 774q0 14 9.5 23.5t22.5 9.5q64 0 102 3.5t73 14t54 32t33.5 55.5t24.5 87q25 114 36 142t36 28q22 0 29.5 -18.5t7.5 -58.5v-287q45 0 90.5 0.5t74.5 1t33 0.5q12 0 21.5 -9.5t9.5 -23.5q0 -16 -9 -25.5t-22 -9.5l-70 2q-69 2 -128 2v-614q0 -45 12 -63.5t37 -18.5 q33 0 55 35t27 80q8 49 45 49q16 0 26.5 -11t10.5 -30q0 -73 -63.5 -136t-176.5 -63q-98 0 -159.5 58t-61.5 170v544q-59 0 -104 -2l-44 -2q-13 0 -22.5 9.5t-9.5 25.5z" />
<glyph unicode="u" horiz-adv-x="1085" d="M-4 770q0 16 9.5 25.5t21.5 9.5q6 0 19 -0.5t41.5 -1t72.5 -0.5q72 0 120.5 2t69.5 4t25 2q13 0 22 -10t9 -27v-618q0 -39 17 -68t50 -29q40 0 88.5 55.5t83.5 145.5t35 176v303q-60 0 -96 -3l-35 -3q-13 0 -22 10t-9 27q0 16 9 25.5t22 9.5l35 -1q36 -1 96 -1 q77 0 126 2t68 4t23 2q11 0 21 -10.5t10 -26.5v-663q0 -54 20 -54q15 0 24.5 8t21.5 24.5t22 25.5q12 11 26 11q16 0 33 -17q7 -11 7 -24q0 -6 -2 -13q-6 -21 -19 -31q-82 -64 -189 -64q-192 0 -192 168v70q-42 -105 -108 -175.5t-158 -70.5q-130 0 -192 82t-62 221v467 q-60 0 -96 -3l-37 -3q-11 0 -21 10.5t-10 26.5z" />
<glyph unicode="v" horiz-adv-x="866" d="M-51 774q0 15 9.5 25t21.5 10q5 0 18 -2.5t49.5 -5t97.5 -2.5h117q59 0 95 2.5t50 5t19 2.5q12 0 21.5 -10t9.5 -25q0 -17 -9 -27t-22 -10q-5 0 -26 1t-58 1l184 -426l191 426q-29 0 -59.5 -1t-36.5 -1q-11 0 -21 10.5t-10 26.5q0 14 10 24.5t21 10.5q6 0 18.5 -2.5 t41 -5t73.5 -2.5q43 0 71 2.5t40.5 5t17.5 2.5q11 0 20.5 -10.5t9.5 -24.5q0 -16 -9.5 -26.5t-20.5 -10.5q-6 0 -33 1t-59 1l-332 -737q-7 -29 -33 -29q-23 0 -33 29l-321 737q-40 0 -64 -1t-28 -1q-13 0 -22 10t-9 27z" />
<glyph unicode="w" horiz-adv-x="1275" d="M-51 774q0 15 9.5 25t21.5 10q5 0 18 -2.5t49.5 -5t97.5 -2.5h99q59 0 95.5 2.5t51 5t19.5 2.5q12 0 21 -10t9 -25q0 -17 -9 -27t-21 -10q-4 0 -25.5 1t-60.5 1l178 -432l188 445q4 10 6 13.5t9 8t18 4.5q14 0 20 -5.5t13 -20.5l182 -445l182 432q-29 0 -59.5 -1 t-36.5 -1q-11 0 -21 10.5t-10 26.5q0 14 10 24.5t21 10.5q5 0 17 -2.5t40.5 -5t73.5 -2.5q60 0 95 5l36 5q11 0 21 -10.5t10 -24.5q0 -16 -10 -26.5t-21 -10.5q-6 0 -33.5 1t-58.5 1l-315 -737q-7 -29 -33 -29q-14 0 -20 6.5t-13 22.5l-182 442l-189 -442q-9 -23 -18 -27 q-6 -2 -14 -2q-16 0 -22 6t-13 23l-303 737q-40 0 -64 -1t-28 -1q-13 0 -22 10t-9 27z" />
<glyph unicode="x" horiz-adv-x="911" d="M-27 29q0 16 10 26.5t23 10.5q6 0 34.5 -1.5t57.5 -1.5l252 289l-241 387q-23 0 -54.5 -1t-38.5 -1q-11 0 -20.5 10.5t-9.5 26.5q0 14 9.5 24.5t20.5 10.5q5 0 20.5 -2.5t52 -5t93.5 -2.5h129q62 0 98.5 2.5t49.5 5t18 2.5q11 0 21 -10.5t10 -24.5q0 -16 -10 -26.5 t-21 -10.5q-6 0 -30.5 1t-55.5 1l131 -215l185 215q-28 0 -49 -1t-27 -1q-11 0 -21 10.5t-10 26.5q0 14 10 24.5t21 10.5q6 0 11 -1.5t11.5 -3t34 -3t72.5 -2.5q45 1 73 2.5t35 3t11.5 3t9.5 1.5q12 0 21.5 -10t9.5 -25q0 -17 -9 -27t-22 -10q-6 0 -33.5 1t-58.5 1 l-236 -272l252 -404q31 0 58.5 1.5t33.5 1.5q11 0 21 -10.5t10 -26.5t-9.5 -25.5t-21.5 -9.5q-5 0 -11 1.5t-16 3.5t-45.5 3.5t-93.5 1.5h-129q-57 0 -92.5 -1.5t-45 -3.5t-15.5 -3.5t-11 -1.5q-13 0 -21.5 9t-8.5 26t9 27t21 10q7 0 34 -1.5t50 -1.5l-143 232l-199 -232 q23 0 45 1.5t29 1.5q13 0 22 -10t9 -27q0 -16 -9 -25.5t-22 -9.5q-5 0 -9.5 1.5t-11 3t-34 3t-72.5 2.5q-45 -1 -73 -2.5t-35 -3t-11.5 -3t-9.5 -1.5q-13 0 -23 9.5t-10 25.5z" />
<glyph unicode="y" horiz-adv-x="823" d="M-129 -391q0 53 28.5 85t73.5 32q40 0 72.5 -29t32.5 -76q0 -66 -53 -92q18 -12 41 -12q41 0 74.5 25.5t80.5 101.5t111 219l61 139l-321 737q-40 0 -64 -1t-28 -1q-13 0 -22 10t-9 27q0 15 9.5 25t21.5 10q5 0 18 -2.5t49.5 -5t97.5 -2.5h117q59 0 95 2.5t50 5t19 2.5 q12 0 21.5 -10t9.5 -25q0 -17 -9 -27t-22 -10q-5 0 -26 1t-58 1l186 -430l189 430q-29 0 -59.5 -1t-36.5 -1q-11 0 -21 10.5t-10 26.5q0 14 10 24.5t21 10.5q6 0 18.5 -2.5t41 -5t73.5 -2.5q43 0 71 2.5t40.5 5t17.5 2.5q11 0 20.5 -10.5t9.5 -24.5q0 -16 -9.5 -26.5 t-20.5 -10.5q-6 0 -33 1t-59 1l-394 -893q-94 -215 -169.5 -304t-170.5 -89q-82 0 -134 46t-52 110z" />
<glyph unicode="z" horiz-adv-x="778" d="M33 20q0 14 12 35l387 688h-117q-113 0 -148.5 -36.5t-35.5 -147.5q0 -11 -9.5 -21t-23.5 -10q-16 0 -24 9.5t-8 21.5q0 2 4 57t4 105v55q0 17 9 27t21 10q7 0 52 -4t63 -4l481 -2q25 0 25 -21q0 -16 -12 -34l-387 -691h153q110 0 148.5 48.5t38.5 164.5q0 12 9 21.5 t25 9.5t24.5 -9.5t8.5 -21.5q0 -2 -5 -70t-5 -118v-55q0 -16 -10 -26.5t-21 -10.5q-8 0 -52 4t-62 4l-521 2q-24 0 -24 20z" />
<glyph unicode="{" horiz-adv-x="733" d="M67.5 593q-8.5 13 1 25.5t29.5 12.5q32 0 57 8t50 30.5t41.5 60t26.5 101t10 148.5q0 52 10.5 98t25.5 80t42.5 66t51.5 53.5t62.5 46t65.5 39t71 37.5t68 37q16 8 25 3t8 -18t-13 -22q-121 -87 -154.5 -162.5t-33.5 -253.5q0 -88 -9 -150t-23.5 -101t-43.5 -64 t-58.5 -37.5t-78.5 -24.5q49 -12 78.5 -24.5t58.5 -37.5t43.5 -64t23.5 -101t9 -150q0 -178 35 -256t153 -159q13 -9 13 -21.5t-10 -17t-23 1.5q-25 14 -69.5 37t-71.5 37.5t-65.5 39t-62.5 45.5t-51 53t-42 66t-25 79.5t-10 98.5q0 106 -14.5 177.5t-42 107t-57.5 49 t-71 13.5q-22 0 -30.5 13z" />
<glyph unicode="|" horiz-adv-x="552" d="M236 -170v1552h90v-1552h-90z" />
<glyph unicode="}" horiz-adv-x="733" d="M20.5 -207.5q0.5 12.5 14.5 21.5q117 81 151.5 159t34.5 256q0 110 12 179t42 108.5t65 57t96 32.5q-61 15 -96 32.5t-65 57t-42 108.5t-12 179q0 125 -13.5 190t-51 115.5t-121.5 110.5q-13 9 -14.5 22t8 18t26.5 -3q25 -14 67.5 -37t70 -37.5t66 -39t63 -46t52 -53.5 t43 -66t26 -80t10.5 -98q0 -85 10 -148.5t26.5 -101t41 -60t49.5 -30.5t57 -8q20 0 29 -12.5t0.5 -25.5t-29.5 -13q-41 0 -71 -13.5t-57 -49t-41.5 -107t-14.5 -177.5q0 -53 -10 -98.5t-25 -79.5t-42.5 -66t-51 -53t-62.5 -45.5t-66 -39t-71.5 -37.5t-69.5 -37 q-14 -6 -24.5 -1.5t-10 17z" />
<glyph unicode="~" horiz-adv-x="899" d="M90 358q0 83 19.5 156.5t65 124.5t108.5 51q37 0 86.5 -22.5t90.5 -50t88.5 -50t80.5 -22.5q45 0 85.5 38.5t49.5 88.5q2 15 12 21.5t19.5 0.5t9.5 -22q0 -338 -205 -338q-40 0 -107 38t-131.5 75.5t-97.5 37.5q-37 0 -78 -39t-53 -88q-3 -13 -13.5 -20t-20 -2t-9.5 22z " />
<glyph unicode="&#xa1;" horiz-adv-x="641" d="M168 -403q0 41 18.5 97t40 119t40 222.5t18.5 382.5q0 17 12.5 24.5t25.5 0t13 -24.5q0 -182 12.5 -320.5t31 -212.5t36.5 -125t30.5 -89t12.5 -74q0 -61 -44 -104.5t-104 -43.5t-101.5 43t-41.5 105zM182 688q0 54 38.5 91.5t92.5 37.5t90.5 -37.5t36.5 -91.5 t-36.5 -90.5t-90.5 -36.5t-92.5 36.5t-38.5 90.5z" />
<glyph unicode="&#xa2;" horiz-adv-x="962" d="M111 621q0 179 111.5 298.5t277.5 133.5v37q0 77 -2 142t-4 101.5t-2 44.5q0 16 12.5 27.5t34.5 11.5q21 0 33 -11.5t12 -27.5q0 -8 -2 -43.5t-4.5 -100.5t-2.5 -144v-37q116 -8 199.5 -69.5t83.5 -156.5q0 -60 -32.5 -97.5t-80.5 -37.5q-47 0 -80.5 33.5t-33.5 79.5 q0 41 27.5 73t64.5 40q-20 38 -53.5 54.5t-87.5 16.5h-7v-735h9q156 0 215 172q10 31 32 31q16 0 24.5 -9t8.5 -22q0 -21 -8 -37q-84 -195 -281 -205v-112q0 -79 2.5 -127.5t4.5 -67.5t2 -27q0 -15 -12.5 -26.5t-32.5 -11.5q-22 0 -34.5 11.5t-12.5 26.5q0 8 2 27.5t4 68 t2 126.5v116q-170 18 -279.5 137t-109.5 296zM344 621q0 -295 156 -353v707q-156 -57 -156 -354z" />
<glyph unicode="&#xa3;" horiz-adv-x="1099" d="M10 29q0 16 10 26.5t21 10.5q42 0 65 6t45.5 28t36.5 65t27 118l72 407q-48 0 -94.5 -2t-47.5 -2q-13 0 -20 9t-4 26q6 33 37 33h141l25 137q37 215 160 336t288 121q66 0 118 -20t81 -52t44 -66.5t15 -68.5q0 -59 -32.5 -96t-82.5 -37q-51 0 -84.5 34t-33.5 84 q0 37 24.5 70.5t63.5 46.5q-35 57 -121 57q-123 0 -150 -161l-67 -385q30 1 73 1h76t63 -0.5t32 -0.5q12 0 19.5 -8.5t4.5 -24.5t-13.5 -25.5t-23.5 -9.5l-96 2q-96 2 -147 2l-35 -194q-31 -184 -101 -282t-194 -151l575 115q83 18 117.5 73.5t34.5 188.5q0 13 9.5 22 t25.5 9q32 0 32 -31q0 -2 -5 -99.5t-5 -147.5v-166q0 -14 -10 -24.5t-21 -10.5q-7 0 -48.5 4t-65.5 4l-438 4h-156q-74 0 -121 -2.5t-65.5 -5t-22.5 -2.5q-12 0 -21.5 9.5t-9.5 25.5z" />
<glyph unicode="&#xa5;" horiz-adv-x="1079" d="M-76 1286q0 15 9.5 25t21.5 10q4 0 22.5 -2.5t65.5 -5t121 -2.5h129q74 0 121 2.5t65.5 5t22.5 2.5q11 0 20.5 -10.5t9.5 -24.5q0 -16 -9.5 -26.5t-20.5 -10.5q-1 0 -38.5 1t-92.5 1l270 -510l270 510h-12q-59 0 -93 -1l-34 -1q-11 0 -21 10.5t-10 26.5q0 14 10 24.5 t21 10.5q5 0 19 -2.5t52 -5t101 -2.5h10q64 0 102.5 2.5t52.5 5t19 2.5q11 0 21 -10.5t10 -24.5q0 -16 -10 -26.5t-21 -10.5q-1 0 -33 1t-87 1h-11l-317 -596v-28h2q78 0 126.5 2t67.5 4t27 2q16 0 27.5 -12t11.5 -33q0 -22 -11.5 -34.5t-27.5 -12.5q-8 0 -26.5 2t-67 4 t-127.5 2h-2v-145h2q78 0 126.5 2.5t67.5 5t27 2.5q16 0 27.5 -13t11.5 -34t-11.5 -33t-27.5 -12q-8 0 -26.5 2t-67 4t-127.5 2h-2v-269q60 0 100 1l41 2q11 0 21 -10.5t10 -26.5t-9.5 -25.5t-21.5 -9.5q-4 0 -22.5 2.5t-65.5 5t-121 2.5h-118q-73 0 -119.5 -2.5t-65 -5 t-22.5 -2.5q-13 0 -22 9.5t-9 25.5q0 17 9 27t22 10l40 -2q40 -1 99 -1v269q-78 0 -126 -2t-66.5 -4t-26.5 -2q-15 0 -27 12.5t-12 32.5q0 21 12 34t27 13q8 0 27 -2.5t67 -5t125 -2.5v145q-78 0 -126 -2t-66.5 -4t-26.5 -2q-15 0 -27 12.5t-12 34.5q0 20 12 32.5t27 12.5 q8 0 26.5 -2t63.5 -4t117 -2l-330 624q-54 0 -91 -1t-38 -1q-13 0 -22 10t-9 27z" />
<glyph unicode="&#xa7;" horiz-adv-x="935" d="M106 600q0 149 150 229q-64 60 -95.5 113.5t-31.5 120.5q0 66 32.5 123t84.5 94t114 57.5t123 20.5q119 0 209 -55.5t90 -141.5q0 -52 -29 -84.5t-75 -32.5q-37 0 -64.5 28t-27.5 63q0 32 18.5 55t46.5 31q-59 69 -164 69q-96 0 -152 -42.5t-56 -110.5q0 -26 9 -50 t19.5 -41.5t33.5 -39.5t36.5 -33.5t45 -35t42.5 -32.5l90 -71q63 -50 103.5 -87t84 -88t65 -105.5t21.5 -113.5q0 -147 -147 -231q62 -58 93.5 -112t31.5 -120q0 -87 -56 -156.5t-135.5 -103.5t-162.5 -34q-119 0 -209 55t-90 141q0 52 29 84.5t75 32.5q37 0 64.5 -27.5 t27.5 -62.5q0 -32 -18.5 -55t-46.5 -31q60 -70 164 -70q96 0 152 43t56 111q0 30 -9 56t-34 53.5t-38 39.5t-55 44t-50 38l-90 72q-64 51 -103.5 87t-84 87.5t-66 105.5t-21.5 113zM276 659q0 -36 12 -68t37.5 -61.5t46.5 -49t58 -50t53 -45.5l76 -68q42 -37 57 -49 q43 40 43 113q0 36 -12 68t-37 61.5t-46 49t-58 50.5t-53 45l-76 68q-35 31 -58 49q-43 -40 -43 -113z" />
<glyph unicode="&#xa8;" horiz-adv-x="636" d="M33 1026q0 42 30 72t72 30q41 0 72 -30.5t31 -71.5q0 -42 -31 -73t-72 -31q-43 0 -72.5 30.5t-29.5 73.5zM397 1026q0 41 31 71.5t74 30.5q41 0 71.5 -30.5t30.5 -71.5q0 -43 -30.5 -73.5t-71.5 -30.5q-43 0 -74 30.5t-31 73.5z" />
<glyph unicode="&#xa9;" horiz-adv-x="1564" d="M96 659q0 187 92 345t250.5 250t345.5 92q186 0 344 -92t250 -250.5t92 -344.5q0 -187 -92 -345.5t-250 -250.5t-344 -92q-187 0 -345.5 92t-250.5 250.5t-92 345.5zM176 659q0 -165 81 -305t221 -221.5t306 -81.5q164 0 303.5 81.5t220.5 221.5t81 305q0 164 -81 304 t-220.5 221.5t-303.5 81.5q-166 0 -306 -81.5t-221 -221t-81 -304.5zM391 659q0 190 114.5 312.5t278.5 122.5q78 0 128 -20.5t94 -57.5q16 8 16 33q0 38 33 38q35 0 35 -36v-256q0 -39 -33 -39q-35 0 -35 39q0 98 -65 165.5t-162 67.5q-46 0 -77 -13.5t-50 -38t-29 -73 t-13 -102.5t-3 -142q0 -89 3 -143t13 -102t29 -72t50 -37.5t77 -13.5q97 0 162 67.5t65 163.5q0 39 35 39q33 0 33 -39v-254q0 -18 -7 -27.5t-28 -9.5q-33 0 -33 39q0 21 -16 33q-45 -39 -94 -59.5t-128 -20.5q-165 0 -279 122t-114 314z" />
<glyph unicode="&#xaa;" horiz-adv-x="811" d="M68 770q0 80 57.5 136t144 80t191.5 24v172q0 114 -107 114q-59 0 -88 -26q47 -20 47 -84q0 -38 -27 -66t-65 -28q-39 0 -66.5 27.5t-27.5 66.5q0 70 71 116t156 46q147 0 230.5 -59.5t83.5 -182.5v-393q0 -31 5 -42.5t19 -11.5q18 0 28.5 21.5t14.5 24.5q22 17 47 -5 q8 -12 3.5 -28t-13.5 -25q-43 -41 -133 -41q-143 0 -172 103q-116 -107 -223 -107q-75 0 -125.5 44.5t-50.5 123.5zM281 791q0 -91 69 -91q43 0 111 58v203q-37 0 -65.5 -5t-48 -12t-32 -20.5t-19.5 -24.5t-10.5 -32t-4 -35t-0.5 -41z" />
<glyph unicode="&#xab;" horiz-adv-x="1202" d="M154 479q-44 31 0 60l548 415q27 20 38.5 5.5t-7.5 -39.5l-334 -410l334 -410q23 -32 10.5 -46t-41.5 9zM590 479q-47 33 0 60l444 313q28 20 39.5 8t-8.5 -43l-229 -307l229 -307q19 -30 7 -43t-38 6z" />
<glyph unicode="&#xac;" horiz-adv-x="1167" d="M170 512q0 20 12 32.5t27 12.5q7 0 26 -2t67.5 -4t125.5 -2h432q53 0 64.5 -12.5t11.5 -63.5v-12q0 -79 2 -127.5t4 -67.5t2 -26q0 -15 -12.5 -27t-34.5 -12q-20 0 -32.5 12t-12.5 27q0 7 2 26t4 68t2 127v12h-432q-78 0 -126.5 -2t-67 -4t-25.5 -2q-15 0 -27 12.5 t-12 34.5z" />
<glyph unicode="&#xad;" horiz-adv-x="960" d="M170 510q0 21 12.5 34t28.5 13q7 0 25.5 -2t67 -4t126.5 -2h100q78 0 126.5 2t68 4t27.5 2q16 0 27.5 -13t11.5 -34t-11.5 -33t-27.5 -12q-8 0 -26.5 2t-67 4t-128.5 2h-100q-78 0 -126.5 -2t-67 -4t-25.5 -2q-16 0 -28.5 12t-12.5 33z" />
<glyph unicode="&#xae;" horiz-adv-x="1089" d="M70 877q0 128 63.5 236.5t172.5 171.5t237 63q196 0 334.5 -138t138.5 -333q0 -129 -63 -238t-172 -172.5t-238 -63.5q-195 0 -334 139t-139 335zM131 877q0 -170 121 -291t291 -121t290.5 121t120.5 291q0 169 -120.5 289t-290.5 120t-291 -120t-121 -289zM293 641 q0 23 24 23h50v430h-50q-11 0 -17.5 7t-6.5 17q0 23 24 23q2 0 9.5 -0.5t27.5 -1t52 -0.5h45h92q97 0 147.5 -36t50.5 -93q0 -35 -23.5 -65t-60.5 -48q45 -19 71 -56.5t26 -76.5q0 -24 -2 -52.5t-2 -35.5q0 -21 12 -21q16 0 16 13q0 8 7.5 16t17.5 8t17 -7.5t7 -14.5 q0 -25 -25 -42.5t-61 -17.5q-59 0 -93 38.5t-34 115.5q0 50 -21 76t-75 26h-18v-202h51q8 0 15 -6.5t7 -16.5q0 -12 -6.5 -18.5t-15.5 -6.5q-2 0 -9.5 1t-28 2.5t-52.5 1.5h-55q-32 0 -52 -1.5t-27.5 -2.5t-9.5 -1q-24 0 -24 25zM500 913h16q41 0 62.5 21.5t21.5 75.5 q0 43 -18 61.5t-62 18.5h-20v-177z" />
<glyph unicode="&#xaf;" horiz-adv-x="677" d="M57 1337v62h475v-62h-475z" />
<glyph unicode="&#xb0;" horiz-adv-x="819" d="M100 1040q0 127 91 217.5t217 90.5q127 0 217 -90t90 -218q0 -126 -90 -216.5t-217 -90.5q-126 0 -217 90.5t-91 216.5zM193 1040q0 -89 64 -152t153 -63t153 63t64 152q0 90 -63.5 153.5t-153.5 63.5t-153.5 -63.5t-63.5 -153.5z" />
<glyph unicode="&#xb1;" horiz-adv-x="937" d="M109 37q0 22 11.5 34.5t26.5 12.5q7 0 26.5 -2t68 -4t125.5 -2h219q78 0 126.5 2t67 4t25.5 2q16 0 28.5 -12.5t12.5 -34.5q0 -21 -12.5 -33t-28.5 -12q-7 0 -25.5 2t-66.5 4t-127 2h-219q-78 0 -126.5 -2t-67.5 -4t-26 -2q-15 0 -26.5 12.5t-11.5 32.5zM109 510 q0 21 12 34t26 13q7 0 26.5 -2t68 -4t125.5 -2h71v72q0 77 -2 125.5t-4 67.5t-2 26q0 16 12.5 27.5t34.5 11.5q21 0 33 -11.5t12 -27.5q0 -7 -2 -25.5t-4 -66.5t-2 -127v-72h72q78 0 126.5 2t67 4t25.5 2q16 0 28.5 -13t12.5 -34t-12.5 -33t-28.5 -12q-7 0 -25.5 2t-66.5 4 t-127 2h-72v-72q0 -79 2 -127.5t4 -67t2 -26.5q0 -15 -12.5 -27t-32.5 -12q-22 0 -34.5 12t-12.5 27q0 8 2 27t4 67.5t2 126.5v72h-71q-78 0 -126.5 -2t-67.5 -4t-26 -2q-15 0 -26.5 12.5t-11.5 32.5z" />
<glyph unicode="&#xb4;" horiz-adv-x="593" d="M92.5 933.5q-18.5 20.5 1.5 39.5q86 71 148 142.5t93.5 118t43.5 56.5q28 25 66 21.5t61 -31.5t18.5 -64.5t-32.5 -60.5q-12 -10 -63 -33.5t-132 -72t-166 -119.5q-20 -17 -38.5 3.5z" />
<glyph unicode="&#xb6;" horiz-adv-x="948" d="M47 -395q0 53 29 84.5t74 31.5q42 0 75 -28.5t33 -77.5q0 -68 -59 -94q13 -10 39 -10q47 0 82 34t64.5 119.5t44.5 249.5t15 405v232q-146 17 -245 125t-99 256q0 157 113 270t270 113h295q10 0 37 1t47 1q12 0 21.5 -9.5t9.5 -25.5t-10 -26.5t-21 -10.5l-36 3 q-36 3 -95 3v-774q0 -361 -55 -589.5t-159.5 -331.5t-264.5 -103q-89 0 -147 44t-58 108zM375 -467q143 58 211.5 272.5t68.5 640.5v805h-137v-901q0 -355 -29.5 -546t-113.5 -271z" />
<glyph unicode="&#xb7;" horiz-adv-x="573" d="M158 532q0 54 37.5 92t91.5 38t91.5 -38t37.5 -92t-37.5 -91.5t-91.5 -37.5t-91.5 37.5t-37.5 91.5z" />
<glyph unicode="&#xb8;" horiz-adv-x="571" d="M132 -456q-8 20 22 33q7 3 14 5q85 23 143 73t58 114q0 61 -39 96t-113 35q-17 0 -30.5 15t-6.5 44l41 211h68v-197q92 -10 159.5 -59.5t67.5 -124.5q0 -200 -348 -258q-27 -6 -36 13z" />
<glyph unicode="&#xba;" horiz-adv-x="911" d="M78 973q0 165 110.5 270t268.5 105t267.5 -105t109.5 -270t-110 -271t-267 -106q-158 0 -268.5 106t-110.5 271zM309 973q0 -167 35.5 -241.5t112.5 -74.5t111 74t34 242t-34 240.5t-111 72.5t-112.5 -73t-35.5 -240z" />
<glyph unicode="&#xbb;" horiz-adv-x="1202" d="M128.5 860q11.5 12 39.5 -8l444 -313q44 -30 0 -60l-444 -313q-27 -19 -38 -6.5t7 43.5l230 307l-230 307q-20 31 -8.5 43zM458.5 54q-12.5 14 10.5 46l334 410l-334 410q-19 25 -7.5 39.5t38.5 -5.5l549 -415q42 -31 0 -60l-549 -416q-29 -23 -41.5 -9z" />
<glyph unicode="&#xbf;" horiz-adv-x="956" d="M133 -238q0 68 21.5 125.5t56 98t76 75.5t83.5 65t76.5 59.5t56 66.5t21.5 78q0 9 -2 41.5t-2 46.5q0 18 13 25.5t25.5 0t12.5 -25.5q0 -16 19.5 -122.5t19.5 -119.5q0 -59 -15 -107.5t-38.5 -80.5t-52.5 -59t-58 -51.5t-52.5 -50t-38.5 -60.5t-15 -78q0 -25 8.5 -52 t28 -56t59 -47.5t92.5 -18.5q143 0 191 106q-48 2 -87.5 32t-39.5 85q0 44 32 76t78 32q56 0 91.5 -43.5t35.5 -97.5q0 -105 -90 -180.5t-211 -75.5q-168 0 -281.5 84.5t-113.5 228.5zM399 688q0 54 37.5 91.5t91.5 37.5t91.5 -37.5t37.5 -91.5t-37.5 -90.5t-91.5 -36.5 t-91.5 36.5t-37.5 90.5z" />
<glyph unicode="&#xc0;" horiz-adv-x="1212" d="M-84 29q0 16 10 26.5t21 10.5q1 0 33 -1.5t88 -1.5h14l498 1266q5 10 7.5 13.5t9.5 6.5t19 3q25 0 35 -23l486 -1266q56 0 94 1.5t39 1.5q12 0 21 -10t9 -27t-8.5 -26t-21.5 -9q-4 0 -22.5 2.5t-65.5 5t-121 2.5h-137q-74 0 -121 -2.5t-65.5 -5t-22.5 -2.5 q-12 0 -21.5 9.5t-9.5 25.5t10 26.5t21 10.5q1 0 40 -1.5t97 -1.5l-133 351h-418l-139 -351h14q59 0 93 1l34 2q11 0 21 -10.5t10 -26.5t-9.5 -25.5t-21.5 -9.5q-5 0 -19.5 2.5t-53 5t-101.5 2.5h-10q-64 0 -102 -2.5t-51.5 -5t-18.5 -2.5q-12 0 -21.5 9.5t-9.5 25.5z M294.5 1727q-4.5 37 18.5 65q24 28 61.5 32t65.5 -20q11 -10 43.5 -57t94 -118t147.5 -142q20 -19 2 -40.5t-41 -4.5q-85 71 -165 119.5t-130.5 72t-62.5 33.5q-29 23 -33.5 60zM330 487h360l-178 465z" />
<glyph unicode="&#xc1;" horiz-adv-x="1212" d="M-84 29q0 16 10 26.5t21 10.5q1 0 33 -1.5t88 -1.5h14l498 1266q5 10 7.5 13.5t9.5 6.5t19 3q25 0 35 -23l486 -1266q56 0 94 1.5t39 1.5q12 0 21 -10t9 -27t-8.5 -26t-21.5 -9q-4 0 -22.5 2.5t-65.5 5t-121 2.5h-137q-74 0 -121 -2.5t-65.5 -5t-22.5 -2.5 q-12 0 -21.5 9.5t-9.5 25.5t10 26.5t21 10.5q1 0 40 -1.5t97 -1.5l-133 351h-418l-139 -351h14q59 0 93 1l34 2q11 0 21 -10.5t10 -26.5t-9.5 -25.5t-21.5 -9.5q-5 0 -19.5 2.5t-53 5t-101.5 2.5h-10q-64 0 -102 -2.5t-51.5 -5t-18.5 -2.5q-12 0 -21.5 9.5t-9.5 25.5z M330 487h360l-178 465zM467.5 1445.5q-18.5 20.5 1.5 39.5q86 71 148 142.5t93.5 118t43.5 56.5q29 24 66.5 21t60.5 -31t18.5 -65t-33.5 -60q-12 -10 -62.5 -33.5t-131 -72t-166.5 -119.5q-20 -17 -38.5 3.5z" />
<glyph unicode="&#xc2;" horiz-adv-x="1212" d="M-84 29q0 16 10 26.5t21 10.5q1 0 33 -1.5t88 -1.5h14l498 1266q5 10 7.5 13.5t9.5 6.5t19 3q25 0 35 -23l486 -1266q56 0 94 1.5t39 1.5q12 0 21 -10t9 -27t-8.5 -26t-21.5 -9q-4 0 -22.5 2.5t-65.5 5t-121 2.5h-137q-74 0 -121 -2.5t-65.5 -5t-22.5 -2.5 q-12 0 -21.5 9.5t-9.5 25.5t10 26.5t21 10.5q1 0 40 -1.5t97 -1.5l-133 351h-418l-139 -351h14q59 0 93 1l34 2q11 0 21 -10.5t10 -26.5t-9.5 -25.5t-21.5 -9.5q-5 0 -19.5 2.5t-53 5t-101.5 2.5h-10q-64 0 -102 -2.5t-51.5 -5t-18.5 -2.5q-12 0 -21.5 9.5t-9.5 25.5z M289 1470l270 293q25 26 43 26t43 -26l270 -293q11 -12 -4 -25.5t-30 -4.5l-279 176l-278 -176q-18 -12 -32.5 1.5t-2.5 28.5zM330 487h360l-178 465z" />
<glyph unicode="&#xc3;" horiz-adv-x="1212" d="M-84 29q0 16 10 26.5t21 10.5q1 0 33 -1.5t88 -1.5h14l498 1266q5 10 7.5 13.5t9.5 6.5t19 3q25 0 35 -23l486 -1266q56 0 94 1.5t39 1.5q12 0 21 -10t9 -27t-8.5 -26t-21.5 -9q-4 0 -22.5 2.5t-65.5 5t-121 2.5h-137q-74 0 -121 -2.5t-65.5 -5t-22.5 -2.5 q-12 0 -21.5 9.5t-9.5 25.5t10 26.5t21 10.5q1 0 40 -1.5t97 -1.5l-133 351h-418l-139 -351h14q59 0 93 1l34 2q11 0 21 -10.5t10 -26.5t-9.5 -25.5t-21.5 -9.5q-5 0 -19.5 2.5t-53 5t-101.5 2.5h-10q-64 0 -102 -2.5t-51.5 -5t-18.5 -2.5q-12 0 -21.5 9.5t-9.5 25.5z M297 1460q0 112 49.5 184t120.5 72q34 0 77.5 -22.5t79 -49t77.5 -49t73 -22.5q43 0 74 36t39 87q2 14 12 18.5t19.5 -1t9.5 -17.5q0 -122 -48.5 -191t-131.5 -69q-31 0 -75 22.5t-81 50t-78.5 50t-67.5 22.5q-34 0 -66 -36t-44 -85q-2 -16 -20.5 -17.5t-18.5 17.5zM330 487 h360l-178 465z" />
<glyph unicode="&#xc4;" horiz-adv-x="1212" d="M-84 29q0 16 10 26.5t21 10.5q1 0 33 -1.5t88 -1.5h14l498 1266q5 10 7.5 13.5t9.5 6.5t19 3q25 0 35 -23l486 -1266q56 0 94 1.5t39 1.5q12 0 21 -10t9 -27t-8.5 -26t-21.5 -9q-4 0 -22.5 2.5t-65.5 5t-121 2.5h-137q-74 0 -121 -2.5t-65.5 -5t-22.5 -2.5 q-12 0 -21.5 9.5t-9.5 25.5t10 26.5t21 10.5q1 0 40 -1.5t97 -1.5l-133 351h-418l-139 -351h14q59 0 93 1l34 2q11 0 21 -10.5t10 -26.5t-9.5 -25.5t-21.5 -9.5q-5 0 -19.5 2.5t-53 5t-101.5 2.5h-10q-64 0 -102 -2.5t-51.5 -5t-18.5 -2.5q-12 0 -21.5 9.5t-9.5 25.5z M317 1536q0 43 30 72.5t73 29.5q42 0 72 -30t30 -72q0 -43 -30.5 -73.5t-71.5 -30.5q-43 0 -73 30.5t-30 73.5zM330 487h360l-178 465zM682 1536q0 43 30 72.5t74 29.5q42 0 72.5 -30t30.5 -72t-30.5 -73t-72.5 -31q-44 0 -74 30.5t-30 73.5z" />
<glyph unicode="&#xc5;" horiz-adv-x="1212" d="M-84 29q0 16 10 26.5t21 10.5q1 0 33 -1.5t88 -1.5h14l498 1266q5 10 7.5 13.5t9.5 6.5t19 3q25 0 35 -23l486 -1266q56 0 94 1.5t39 1.5q12 0 21 -10t9 -27t-8.5 -26t-21.5 -9q-4 0 -22.5 2.5t-65.5 5t-121 2.5h-137q-74 0 -121 -2.5t-65.5 -5t-22.5 -2.5 q-12 0 -21.5 9.5t-9.5 25.5t10 26.5t21 10.5q1 0 40 -1.5t97 -1.5l-133 351h-418l-139 -351h14q59 0 93 1l34 2q11 0 21 -10.5t10 -26.5t-9.5 -25.5t-21.5 -9.5q-5 0 -19.5 2.5t-53 5t-101.5 2.5h-10q-64 0 -102 -2.5t-51.5 -5t-18.5 -2.5q-12 0 -21.5 9.5t-9.5 25.5z M330 487h360l-178 465zM406 1653q0 91 62 154t153 63t153 -63t62 -154t-62 -154t-153 -63t-153 63t-62 154zM500 1653q0 -49 36 -85t85 -36t84.5 35.5t35.5 85.5t-35.5 85.5t-84.5 35.5t-85 -36t-36 -85z" />
<glyph unicode="&#xc6;" horiz-adv-x="1572" d="M-84 29q0 16 10 26.5t21 10.5q1 0 33 -1.5t88 -1.5h14l483 1229q10 27 51 27q14 0 30.5 -2t25.5 -2h667q18 0 63 4t52 4q13 0 22 -10t9 -27v-61q0 -50 5 -148t5 -100q0 -13 -8.5 -22t-24.5 -9q-32 0 -32 31q0 130 -47 196t-158 66h-539l197 -516h192q76 0 118 40.5 t42 117.5q0 12 8 21t21 9q26 0 26 -30q0 -4 -1 -25t-2 -65.5t-1 -104.5t1 -104t2 -65t1 -25q0 -12 -7 -21.5t-19 -9.5q-13 0 -21 10t-8 21q0 77 -42 117t-118 40h-164l222 -573h143q111 0 158 66t47 196q0 31 32 31q16 0 24.5 -9t8.5 -22q0 -2 -5 -100t-5 -148v-63 q0 -15 -9.5 -25t-21.5 -10t-61.5 3t-149 6t-233.5 3h-137q-74 0 -121 -2.5t-65.5 -5t-22.5 -2.5q-12 0 -21.5 9.5t-9.5 25.5t10 26.5t21 10.5q1 0 40 -1.5t97 -1.5l-133 351h-418l-139 -351h14q59 0 93 1l34 2q11 0 21 -10.5t10 -26.5t-9.5 -25.5t-21.5 -9.5q-5 0 -19.5 2.5 t-53 5t-101.5 2.5h-10q-64 0 -102 -2.5t-51.5 -5t-18.5 -2.5q-12 0 -21.5 9.5t-9.5 25.5zM330 487h360l-178 465z" />
<glyph unicode="&#xc7;" horiz-adv-x="1177" d="M88 657q0 151 50 282t132 219.5t187.5 139t216.5 50.5q109 0 179.5 -32t131.5 -91q21 4 39 30.5t18 49.5q0 32 29 32q15 0 23 -6t9 -11t1 -13v-426q0 -33 -31 -33t-31 33q0 166 -101.5 276.5t-248.5 110.5q-120 0 -186.5 -57.5t-95.5 -187.5t-29 -366t29 -366t95.5 -187 t186.5 -57q147 0 248.5 110.5t101.5 276.5q0 33 31 33t31 -33v-426q0 -8 -1 -13t-9 -11.5t-23 -6.5q-29 0 -29 33q0 23 -17 47t-40 31q-63 -61 -132 -92t-179 -31h-2v-90q93 -12 160 -60.5t67 -125.5q0 -196 -348 -258q-27 -4 -35 15t21 32l14 4q88 25 145.5 74.5 t57.5 113.5q0 60 -39.5 94.5t-114.5 34.5q-17 0 -31 17t-6 45l31 112q-101 16 -192.5 73t-161 144t-111 208.5t-41.5 258.5z" />
<glyph unicode="&#xc8;" horiz-adv-x="1161" d="M94 29q0 17 9 27t22 10l40 -2q40 -1 99 -1v1188q-59 0 -99 -1l-40 -1q-13 0 -22 10t-9 27q0 15 9.5 25t21.5 10q4 0 22.5 -2.5t65.5 -5t121 -2.5h51l543 4q17 0 61 4t51 4q13 0 22 -10t9 -27v-61q0 -50 5 -148t5 -100q0 -13 -8 -22t-22 -9q-16 0 -25.5 9t-9.5 22 q0 129 -47 195.5t-156 66.5h-285v-516h134q77 0 119 40.5t42 117.5q0 30 27 30t27 -30q0 -4 -0.5 -25t-1.5 -65.5t-1 -104.5t1 -104t1.5 -65t0.5 -25q0 -12 -7 -21.5t-20 -9.5t-20 9.5t-7 21.5q0 77 -42 117t-119 40h-134v-573h336q109 0 156 66.5t47 195.5q0 13 9.5 22 t25.5 9q14 0 22.5 -9t8.5 -22q0 -2 -5.5 -100t-5.5 -148v-63q0 -15 -9 -25t-21 -10q-7 0 -51.5 4t-61.5 4l-594 4h-51q-74 0 -121 -2.5t-65.5 -5t-22.5 -2.5q-13 0 -22 9.5t-9 25.5zM393 1727q-4 37 19 65q24 28 61.5 32t65.5 -20q11 -10 43 -57t93.5 -118t147.5 -142 q20 -19 2 -40.5t-41 -4.5q-85 71 -165 119.5t-130.5 72t-62.5 33.5q-29 23 -33 60z" />
<glyph unicode="&#xc9;" horiz-adv-x="1161" d="M94 29q0 17 9 27t22 10l40 -2q40 -1 99 -1v1188q-59 0 -99 -1l-40 -1q-13 0 -22 10t-9 27q0 15 9.5 25t21.5 10q4 0 22.5 -2.5t65.5 -5t121 -2.5h51l543 4q17 0 61 4t51 4q13 0 22 -10t9 -27v-61q0 -50 5 -148t5 -100q0 -13 -8 -22t-22 -9q-16 0 -25.5 9t-9.5 22 q0 129 -47 195.5t-156 66.5h-285v-516h134q77 0 119 40.5t42 117.5q0 30 27 30t27 -30q0 -4 -0.5 -25t-1.5 -65.5t-1 -104.5t1 -104t1.5 -65t0.5 -25q0 -12 -7 -21.5t-20 -9.5t-20 9.5t-7 21.5q0 77 -42 117t-119 40h-134v-573h336q109 0 156 66.5t47 195.5q0 13 9.5 22 t25.5 9q14 0 22.5 -9t8.5 -22q0 -2 -5.5 -100t-5.5 -148v-63q0 -15 -9 -25t-21 -10q-7 0 -51.5 4t-61.5 4l-594 4h-51q-74 0 -121 -2.5t-65.5 -5t-22.5 -2.5q-13 0 -22 9.5t-9 25.5zM483.5 1458q-2.5 14 8.5 27q86 71 147.5 142.5t93 118t43.5 56.5q29 24 66.5 21t60.5 -31 t19 -65t-33 -60q-12 -10 -62.5 -33.5t-131.5 -72t-167 -119.5q-13 -11 -27.5 -4.5t-17 20.5z" />
<glyph unicode="&#xca;" horiz-adv-x="1161" d="M94 29q0 17 9 27t22 10l40 -2q40 -1 99 -1v1188q-59 0 -99 -1l-40 -1q-13 0 -22 10t-9 27q0 15 9.5 25t21.5 10q4 0 22.5 -2.5t65.5 -5t121 -2.5h51l543 4q17 0 61 4t51 4q13 0 22 -10t9 -27v-61q0 -50 5 -148t5 -100q0 -13 -8 -22t-22 -9q-16 0 -25.5 9t-9.5 22 q0 129 -47 195.5t-156 66.5h-285v-516h134q77 0 119 40.5t42 117.5q0 30 27 30t27 -30q0 -4 -0.5 -25t-1.5 -65.5t-1 -104.5t1 -104t1.5 -65t0.5 -25q0 -12 -7 -21.5t-20 -9.5t-20 9.5t-7 21.5q0 77 -42 117t-119 40h-134v-573h336q109 0 156 66.5t47 195.5q0 13 9.5 22 t25.5 9q14 0 22.5 -9t8.5 -22q0 -2 -5.5 -100t-5.5 -148v-63q0 -15 -9 -25t-21 -10q-7 0 -51.5 4t-61.5 4l-594 4h-51q-74 0 -121 -2.5t-65.5 -5t-22.5 -2.5q-13 0 -22 9.5t-9 25.5zM309 1470l271 293q25 26 43 26t43 -26l270 -293q7 -8 2 -17.5t-15.5 -13.5t-21.5 1 l-278 176l-279 -176q-18 -12 -32.5 1.5t-2.5 28.5z" />
<glyph unicode="&#xcb;" horiz-adv-x="1161" d="M94 29q0 17 9 27t22 10l40 -2q40 -1 99 -1v1188q-59 0 -99 -1l-40 -1q-13 0 -22 10t-9 27q0 15 9.5 25t21.5 10q4 0 22.5 -2.5t65.5 -5t121 -2.5h51l543 4q17 0 61 4t51 4q13 0 22 -10t9 -27v-61q0 -50 5 -148t5 -100q0 -13 -8 -22t-22 -9q-16 0 -25.5 9t-9.5 22 q0 129 -47 195.5t-156 66.5h-285v-516h134q77 0 119 40.5t42 117.5q0 30 27 30t27 -30q0 -4 -0.5 -25t-1.5 -65.5t-1 -104.5t1 -104t1.5 -65t0.5 -25q0 -12 -7 -21.5t-20 -9.5t-20 9.5t-7 21.5q0 77 -42 117t-119 40h-134v-573h336q109 0 156 66.5t47 195.5q0 13 9.5 22 t25.5 9q14 0 22.5 -9t8.5 -22q0 -2 -5.5 -100t-5.5 -148v-63q0 -15 -9 -25t-21 -10q-7 0 -51.5 4t-61.5 4l-594 4h-51q-74 0 -121 -2.5t-65.5 -5t-22.5 -2.5q-13 0 -22 9.5t-9 25.5zM385 1536q0 43 29.5 72.5t72.5 29.5q42 0 72.5 -30t30.5 -72t-31 -73t-72 -31 q-43 0 -72.5 30.5t-29.5 73.5zM750 1536q0 43 30 72.5t74 29.5q42 0 72 -30t30 -72q0 -43 -30.5 -73.5t-71.5 -30.5q-44 0 -74 30.5t-30 73.5z" />
<glyph unicode="&#xcc;" horiz-adv-x="794" d="M94 29q0 17 9 27t22 10l40 -2q40 -1 99 -1v1188q-59 0 -99 -1l-40 -1q-13 0 -22 10t-9 27q0 15 9.5 25t21.5 10q4 0 22.5 -2.5t65.5 -5t121 -2.5h127q74 0 121 2.5t65.5 5t22.5 2.5q11 0 20.5 -10.5t9.5 -24.5q0 -16 -9.5 -26.5t-20.5 -10.5q-6 0 -21.5 0.5t-46 1 t-74.5 0.5v-1188q44 0 74.5 0.5t46 1.5t21.5 1q11 0 20.5 -10.5t9.5 -26.5t-9 -25.5t-21 -9.5q-4 0 -22.5 2.5t-65.5 5t-121 2.5h-127q-74 0 -121 -2.5t-65.5 -5t-22.5 -2.5q-13 0 -22 9.5t-9 25.5zM157 1727q-4 37 19 65q24 28 61.5 32t65.5 -20q11 -10 43.5 -57t94 -118 t147.5 -142q20 -19 2 -40.5t-41 -4.5q-85 71 -165.5 119.5t-131 72t-62.5 33.5q-29 23 -33 60z" />
<glyph unicode="&#xcd;" horiz-adv-x="794" d="M94 29q0 17 9 27t22 10l40 -2q40 -1 99 -1v1188q-59 0 -99 -1l-40 -1q-13 0 -22 10t-9 27q0 15 9.5 25t21.5 10q4 0 22.5 -2.5t65.5 -5t121 -2.5h127q74 0 121 2.5t65.5 5t22.5 2.5q11 0 20.5 -10.5t9.5 -24.5q0 -16 -9.5 -26.5t-20.5 -10.5q-6 0 -21.5 0.5t-46 1 t-74.5 0.5v-1188q44 0 74.5 0.5t46 1.5t21.5 1q11 0 20.5 -10.5t9.5 -26.5t-9 -25.5t-21 -9.5q-4 0 -22.5 2.5t-65.5 5t-121 2.5h-127q-74 0 -121 -2.5t-65.5 -5t-22.5 -2.5q-13 0 -22 9.5t-9 25.5zM215.5 1445.5q-18.5 20.5 1.5 39.5q86 71 148 142.5t93.5 118t43.5 56.5 q29 24 66.5 21t60.5 -31t18.5 -65t-33.5 -60q-12 -10 -62.5 -33.5t-131 -72t-166.5 -119.5q-20 -17 -38.5 3.5z" />
<glyph unicode="&#xce;" horiz-adv-x="794" d="M84 1470l270 293q25 26 43 26t43 -26l271 -293q7 -8 2 -17.5t-15.5 -13.5t-21.5 1l-279 176l-278 -176q-18 -12 -32.5 1.5t-2.5 28.5zM94 29q0 17 9 27t22 10l40 -2q40 -1 99 -1v1188q-59 0 -99 -1l-40 -1q-13 0 -22 10t-9 27q0 15 9.5 25t21.5 10q4 0 22.5 -2.5t65.5 -5 t121 -2.5h127q74 0 121 2.5t65.5 5t22.5 2.5q11 0 20.5 -10.5t9.5 -24.5q0 -16 -9.5 -26.5t-20.5 -10.5q-6 0 -21.5 0.5t-46 1t-74.5 0.5v-1188q44 0 74.5 0.5t46 1.5t21.5 1q11 0 20.5 -10.5t9.5 -26.5t-9 -25.5t-21 -9.5q-4 0 -22.5 2.5t-65.5 5t-121 2.5h-127 q-74 0 -121 -2.5t-65.5 -5t-22.5 -2.5q-13 0 -22 9.5t-9 25.5z" />
<glyph unicode="&#xcf;" horiz-adv-x="794" d="M94 29q0 17 9 27t22 10l40 -2q40 -1 99 -1v1188q-59 0 -99 -1l-40 -1q-13 0 -22 10t-9 27q0 15 9.5 25t21.5 10q4 0 22.5 -2.5t65.5 -5t121 -2.5h127q74 0 121 2.5t65.5 5t22.5 2.5q11 0 20.5 -10.5t9.5 -24.5q0 -16 -9.5 -26.5t-20.5 -10.5q-6 0 -21.5 0.5t-46 1 t-74.5 0.5v-1188q44 0 74.5 0.5t46 1.5t21.5 1q11 0 20.5 -10.5t9.5 -26.5t-9 -25.5t-21 -9.5q-4 0 -22.5 2.5t-65.5 5t-121 2.5h-127q-74 0 -121 -2.5t-65.5 -5t-22.5 -2.5q-13 0 -22 9.5t-9 25.5zM117 1602q0 43 29.5 72.5t72.5 29.5q42 0 72.5 -30t30.5 -72 q0 -43 -31 -74t-72 -31q-42 0 -72 31t-30 74zM481 1602q0 43 30.5 72.5t74.5 29.5q42 0 72 -30t30 -72q0 -43 -30.5 -74t-71.5 -31q-44 0 -74.5 31t-30.5 74z" />
<glyph unicode="&#xd0;" horiz-adv-x="1441" d="M41 682q0 22 12 34.5t27 12.5q8 0 25 -1.5t58.5 -3.5t108.5 -3v530q-59 0 -99 -1l-40 -1q-11 0 -21 10.5t-10 26.5q0 14 10 24.5t21 10.5q4 0 22.5 -2.5t65.5 -5t121 -2.5h102q89 0 206 3t153 3q111 0 211.5 -48t175.5 -133t119.5 -209.5t44.5 -269.5t-44.5 -269.5 t-119.5 -209.5t-175.5 -133.5t-211.5 -48.5q-35 0 -150 4t-209 4h-102q-74 0 -121 -2.5t-65.5 -5t-22.5 -2.5q-12 0 -21.5 9.5t-9.5 25.5t10 26.5t21 10.5l40 -2q40 -1 99 -1v582q-67 -1 -109 -3t-58.5 -3.5t-24.5 -1.5q-15 0 -27 12.5t-12 32.5zM539 80q92 -4 215 -4 q103 0 169 53t102 183t36 345t-36 345t-102 183.5t-169 53.5l-215 -4v-514q63 1 103 3t56.5 3.5t24.5 1.5q16 0 28.5 -12.5t12.5 -34.5q0 -21 -12.5 -33t-28.5 -12q-8 0 -23.5 1.5t-56 3.5t-104.5 3v-565z" />
<glyph unicode="&#xd1;" horiz-adv-x="1337" d="M59 29q0 16 10 26.5t21 10.5l40 -2q41 -1 101 -1v1188q-60 0 -101 -1l-40 -1q-11 0 -21 10.5t-10 26.5q0 14 10 24.5t21 10.5q5 0 21 -2t56 -4.5t101 -3.5q57 0 102.5 1t70.5 2t32 1q20 0 35.5 -14.5t46.5 -61.5l496 -750v762q-59 0 -99 -1l-41 -1q-11 0 -20.5 10.5 t-9.5 26.5q0 14 9.5 24.5t20.5 10.5q5 0 20.5 -2t56 -4.5t102.5 -3.5q61 1 100.5 3.5t55 4.5t20.5 2q12 0 21 -10t9 -25q0 -17 -9 -27t-21 -10l-40 1q-41 1 -100 1v-1220q0 -58 -28 -58q-22 0 -47 41l-746 1123v-1074q44 0 74.5 0.5t45.5 1.5t21 1q11 0 21 -10.5t10 -26.5 t-9.5 -25.5t-21.5 -9.5q-6 0 -21.5 2t-55.5 4.5t-101 3.5q-61 -1 -101 -3.5t-56 -4.5t-21 -2q-12 0 -21.5 9.5t-9.5 25.5zM389 1460q0 112 49.5 184t120.5 72q34 0 77.5 -22.5t79 -49t77.5 -49t73 -22.5q43 0 74 36t39 87q2 14 12 18.5t19.5 -1t9.5 -17.5q0 -122 -48.5 -191 t-131.5 -69q-31 0 -75 22.5t-81 50t-78 50t-67 22.5q-34 0 -66.5 -36t-44.5 -85q-2 -16 -20.5 -17.5t-18.5 17.5z" />
<glyph unicode="&#xd2;" horiz-adv-x="1398" d="M88 657q0 152 49 282t132 219t194.5 139.5t236.5 50.5q124 0 235.5 -50.5t194.5 -139.5t132 -219t49 -282t-49 -282.5t-132 -219.5t-194.5 -139.5t-235.5 -50.5t-236 50.5t-195 139.5t-132 219.5t-49 282.5zM381 657q0 -172 19.5 -290.5t60.5 -188.5t99 -100.5t140 -30.5 q109 0 177 55t104.5 191t36.5 364t-36.5 364t-104.5 191.5t-177 55.5q-110 0 -178 -55.5t-104.5 -191.5t-36.5 -364zM438 1727q-4 37 19 65q24 28 61.5 32t65.5 -20q11 -10 43 -57t93.5 -118t147.5 -142q20 -19 2 -40.5t-41 -4.5q-85 71 -165 119.5t-130.5 72t-62.5 33.5 q-29 23 -33 60z" />
<glyph unicode="&#xd3;" horiz-adv-x="1398" d="M88 657q0 152 49 282t132 219t194.5 139.5t236.5 50.5q124 0 235.5 -50.5t194.5 -139.5t132 -219t49 -282t-49 -282.5t-132 -219.5t-194.5 -139.5t-235.5 -50.5t-236 50.5t-195 139.5t-132 219.5t-49 282.5zM381 657q0 -172 19.5 -290.5t60.5 -188.5t99 -100.5t140 -30.5 q109 0 177 55t104.5 191t36.5 364t-36.5 364t-104.5 191.5t-177 55.5q-110 0 -178 -55.5t-104.5 -191.5t-36.5 -364zM496.5 1445.5q-18.5 20.5 1.5 39.5q86 71 147.5 142.5t93 118t43.5 56.5q29 24 66.5 21t60.5 -31t19 -65t-33 -60q-12 -10 -62.5 -33.5t-131 -72 t-166.5 -119.5q-20 -17 -38.5 3.5z" />
<glyph unicode="&#xd4;" horiz-adv-x="1398" d="M88 657q0 152 49 282t132 219t194.5 139.5t236.5 50.5q124 0 235.5 -50.5t194.5 -139.5t132 -219t49 -282t-49 -282.5t-132 -219.5t-194.5 -139.5t-235.5 -50.5t-236 50.5t-195 139.5t-132 219.5t-49 282.5zM381 657q0 -172 19.5 -290.5t60.5 -188.5t99 -100.5t140 -30.5 q109 0 177 55t104.5 191t36.5 364t-36.5 364t-104.5 191.5t-177 55.5q-110 0 -178 -55.5t-104.5 -191.5t-36.5 -364zM387 1470l270 293q25 26 43 26t43 -26l271 -293q7 -8 2 -17.5t-15.5 -13.5t-21.5 1l-279 176l-278 -176q-18 -12 -32.5 1.5t-2.5 28.5z" />
<glyph unicode="&#xd5;" horiz-adv-x="1398" d="M88 657q0 152 49 282t132 219t194.5 139.5t236.5 50.5q124 0 235.5 -50.5t194.5 -139.5t132 -219t49 -282t-49 -282.5t-132 -219.5t-194.5 -139.5t-235.5 -50.5t-236 50.5t-195 139.5t-132 219.5t-49 282.5zM381 657q0 -172 19.5 -290.5t60.5 -188.5t99 -100.5t140 -30.5 q109 0 177 55t104.5 191t36.5 364t-36.5 364t-104.5 191.5t-177 55.5q-110 0 -178 -55.5t-104.5 -191.5t-36.5 -364zM395 1460q0 112 49.5 184t120.5 72q34 0 77.5 -22.5t79 -49t77.5 -49t73 -22.5q43 0 74 36t39 87q2 14 12 18.5t19.5 -1t9.5 -17.5q0 -122 -48.5 -191 t-131.5 -69q-31 0 -75 22.5t-81 50t-78 50t-67 22.5q-34 0 -66.5 -36t-44.5 -85q-2 -16 -20.5 -17.5t-18.5 17.5z" />
<glyph unicode="&#xd6;" horiz-adv-x="1398" d="M88 657q0 152 49 282t132 219t194.5 139.5t236.5 50.5q124 0 235.5 -50.5t194.5 -139.5t132 -219t49 -282t-49 -282.5t-132 -219.5t-194.5 -139.5t-235.5 -50.5t-236 50.5t-195 139.5t-132 219.5t-49 282.5zM381 657q0 -172 19.5 -290.5t60.5 -188.5t99 -100.5t140 -30.5 q109 0 177 55t104.5 191t36.5 364t-36.5 364t-104.5 191.5t-177 55.5q-110 0 -178 -55.5t-104.5 -191.5t-36.5 -364zM412 1536q0 43 29.5 72.5t72.5 29.5q42 0 72 -30t30 -72q0 -43 -30.5 -73.5t-71.5 -30.5q-43 0 -72.5 30.5t-29.5 73.5zM776 1536q0 43 30.5 72.5 t74.5 29.5q42 0 72 -30t30 -72q0 -43 -30.5 -73.5t-71.5 -30.5q-44 0 -74.5 30.5t-30.5 73.5z" />
<glyph unicode="&#xd8;" horiz-adv-x="1398" d="M88 657q0 152 49 282t132 219t194.5 139.5t236.5 50.5q165 0 299 -84q40 72 64 114q21 33 53 15q33 -17 14 -54q-3 -5 -26 -42.5t-45 -73.5q117 -92 184.5 -238.5t67.5 -327.5q0 -152 -49 -282.5t-132 -219.5t-194.5 -139.5t-235.5 -50.5q-168 0 -315 92 q-13 -24 -26 -49.5t-21 -40.5t-12 -22q-21 -34 -54 -15q-18 10 -20.5 28.5t6.5 29.5q1 2 70 112q-112 94 -176 237t-64 320zM381 657q0 -254 43 -393l498 862q7 11 10 19q-71 123 -232 123q-110 0 -178 -55.5t-104.5 -191.5t-36.5 -364zM459 184q74 -137 241 -137 q109 0 177 55t104.5 191t36.5 364q0 270 -49 410z" />
<glyph unicode="&#xd9;" horiz-adv-x="1366" d="M51 1286q0 14 10 24.5t21 10.5q4 0 22.5 -2.5t65.5 -5t121 -2.5h127q74 0 121 2.5t65.5 5t22.5 2.5q11 0 20.5 -10.5t9.5 -24.5q0 -16 -9.5 -26.5t-20.5 -10.5l-41 1q-40 1 -99 1v-909q0 -138 78 -216.5t226 -78.5q79 0 139.5 27.5t95.5 75.5t52.5 106t17.5 125v870 q-59 0 -100 -1l-40 -1q-12 0 -21 10t-9 27q0 15 9 25t21 10q5 0 20.5 -2t55.5 -4.5t101 -3.5q62 1 102 3.5t55.5 4.5t20.5 2q12 0 21 -10t9 -25q0 -17 -9 -27t-21 -10l-41 1q-40 1 -99 1v-870q0 -195 -119.5 -305.5t-355.5 -110.5q-218 0 -346.5 113t-128.5 303v870 q-59 0 -99 -1l-40 -1q-11 0 -21 10.5t-10 26.5zM417.5 1727q-4.5 37 18.5 65q24 28 61.5 32t65.5 -20q11 -10 43.5 -57t94 -118t147.5 -142q20 -19 2 -40.5t-41 -4.5q-85 71 -165 119.5t-130.5 72t-62.5 33.5q-29 23 -33.5 60z" />
<glyph unicode="&#xda;" horiz-adv-x="1366" d="M51 1286q0 14 10 24.5t21 10.5q4 0 22.5 -2.5t65.5 -5t121 -2.5h127q74 0 121 2.5t65.5 5t22.5 2.5q11 0 20.5 -10.5t9.5 -24.5q0 -16 -9.5 -26.5t-20.5 -10.5l-41 1q-40 1 -99 1v-909q0 -138 78 -216.5t226 -78.5q79 0 139.5 27.5t95.5 75.5t52.5 106t17.5 125v870 q-59 0 -100 -1l-40 -1q-12 0 -21 10t-9 27q0 15 9 25t21 10q5 0 20.5 -2t55.5 -4.5t101 -3.5q62 1 102 3.5t55.5 4.5t20.5 2q12 0 21 -10t9 -25q0 -17 -9 -27t-21 -10l-41 1q-40 1 -99 1v-870q0 -195 -119.5 -305.5t-355.5 -110.5q-218 0 -346.5 113t-128.5 303v870 q-59 0 -99 -1l-40 -1q-11 0 -21 10.5t-10 26.5zM596.5 1445.5q-18.5 20.5 1.5 39.5q86 71 148 142.5t93.5 118t43.5 56.5q29 24 66.5 21t60.5 -31t18.5 -65t-33.5 -60q-12 -10 -62.5 -33.5t-131 -72t-166.5 -119.5q-20 -17 -38.5 3.5z" />
<glyph unicode="&#xdb;" horiz-adv-x="1366" d="M51 1286q0 14 10 24.5t21 10.5q4 0 22.5 -2.5t65.5 -5t121 -2.5h127q74 0 121 2.5t65.5 5t22.5 2.5q11 0 20.5 -10.5t9.5 -24.5q0 -16 -9.5 -26.5t-20.5 -10.5l-41 1q-40 1 -99 1v-909q0 -138 78 -216.5t226 -78.5q79 0 139.5 27.5t95.5 75.5t52.5 106t17.5 125v870 q-59 0 -100 -1l-40 -1q-12 0 -21 10t-9 27q0 15 9 25t21 10q5 0 20.5 -2t55.5 -4.5t101 -3.5q62 1 102 3.5t55.5 4.5t20.5 2q12 0 21 -10t9 -25q0 -17 -9 -27t-21 -10l-41 1q-40 1 -99 1v-870q0 -195 -119.5 -305.5t-355.5 -110.5q-218 0 -346.5 113t-128.5 303v870 q-59 0 -99 -1l-40 -1q-11 0 -21 10.5t-10 26.5zM459 1470l270 293q25 26 43 26t43 -26l270 -293q11 -12 -4 -25.5t-30 -4.5l-279 176l-278 -176q-18 -12 -32.5 1.5t-2.5 28.5z" />
<glyph unicode="&#xdc;" horiz-adv-x="1366" d="M51 1286q0 14 10 24.5t21 10.5q4 0 22.5 -2.5t65.5 -5t121 -2.5h127q74 0 121 2.5t65.5 5t22.5 2.5q11 0 20.5 -10.5t9.5 -24.5q0 -16 -9.5 -26.5t-20.5 -10.5l-41 1q-40 1 -99 1v-909q0 -138 78 -216.5t226 -78.5q79 0 139.5 27.5t95.5 75.5t52.5 106t17.5 125v870 q-59 0 -100 -1l-40 -1q-12 0 -21 10t-9 27q0 15 9 25t21 10q5 0 20.5 -2t55.5 -4.5t101 -3.5q62 1 102 3.5t55.5 4.5t20.5 2q12 0 21 -10t9 -25q0 -17 -9 -27t-21 -10l-41 1q-40 1 -99 1v-870q0 -195 -119.5 -305.5t-355.5 -110.5q-218 0 -346.5 113t-128.5 303v870 q-59 0 -99 -1l-40 -1q-11 0 -21 10.5t-10 26.5zM483 1536q0 43 30 72.5t73 29.5q42 0 72 -30t30 -72q0 -43 -30.5 -73.5t-71.5 -30.5q-43 0 -73 30.5t-30 73.5zM848 1536q0 43 30 72.5t74 29.5q42 0 72.5 -30t30.5 -72t-30.5 -73t-72.5 -31q-44 0 -74 30.5t-30 73.5z" />
<glyph unicode="&#xdd;" horiz-adv-x="1060" d="M-90 1286q0 15 9.5 25t21.5 10q4 0 22.5 -2.5t65.5 -5t121 -2.5h139q74 0 121 2.5t65.5 5t22.5 2.5q11 0 20.5 -10.5t9.5 -24.5q0 -16 -9.5 -26.5t-20.5 -10.5q-1 0 -39 1t-92 1l270 -510l229 435q18 35 10.5 55t-30.5 20t-47 -1t-31 -1q-11 0 -21 10.5t-10 26.5 q0 14 10 24.5t21 10.5q5 0 19 -2.5t52 -5t101 -2.5h10q64 0 102 2.5t51.5 5t18.5 2.5q12 0 21.5 -10t9.5 -25q0 -17 -9 -27t-22 -10q-8 0 -26.5 1t-36.5 1q-64 0 -115 -92l-268 -504v-592q59 0 99 1l40 2q13 0 22 -10t9 -27q0 -16 -9 -25.5t-22 -9.5q-4 0 -22.5 2.5t-65 5 t-119.5 2.5h-129q-73 0 -119.5 -2.5t-65 -5t-22.5 -2.5q-13 0 -21.5 9t-8.5 26t9 27t21 10l40 -2q41 -1 100 -1v541l-344 647q-52 0 -89 -1t-38 -1q-13 0 -22 10t-9 27zM461.5 1445.5q-18.5 20.5 1.5 39.5q86 71 148 142.5t93.5 118t43.5 56.5q29 24 66 21t60 -31t19 -65 t-33 -60q-12 -10 -62.5 -33.5t-131 -72t-166.5 -119.5q-20 -17 -38.5 3.5z" />
<glyph unicode="&#xde;" horiz-adv-x="1185" d="M94 29q0 17 9 27t22 10l40 -2q40 -1 99 -1v1188q-59 0 -99 -1l-40 -1q-13 0 -22 10t-9 27q0 15 9.5 25t21.5 10q4 0 22.5 -2.5t65.5 -5t121 -2.5h127q74 0 121 2.5t65.5 5t22.5 2.5q11 0 20.5 -10.5t9.5 -24.5q0 -16 -9.5 -26.5t-20.5 -10.5q-6 0 -21.5 0.5t-46 1 t-74.5 0.5v-188q43 2 142 2q219 0 337.5 -103t118.5 -280q0 -175 -119 -280t-337 -105h-142v-234q44 0 74.5 0.5t46 1.5t21.5 1q11 0 20.5 -10.5t9.5 -26.5t-9 -25.5t-21 -9.5q-4 0 -22.5 2.5t-65.5 5t-121 2.5h-127q-74 0 -121 -2.5t-65.5 -5t-22.5 -2.5q-13 0 -22 9.5 t-9 25.5zM528 373h109q116 0 161.5 67.5t45.5 241.5q0 172 -45.5 239.5t-161.5 67.5h-109v-616z" />
<glyph unicode="&#xdf;" horiz-adv-x="1323" d="M39 33q0 16 9.5 25.5t21.5 9.5l36 -2q36 -3 95 -3v902q0 195 106 289t293 94q146 0 224.5 -72.5t78.5 -177.5q0 -41 -18.5 -80t-45 -69.5t-53 -60.5t-45 -63t-18.5 -65q0 -40 29 -73t75.5 -58t102.5 -50t112 -56t102.5 -69t75.5 -95t29 -128q0 -120 -99 -194t-247 -74 q-146 0 -247 69.5t-101 157.5q0 55 29.5 84t81.5 29q34 0 61 -28t27 -56q0 -40 -21 -63.5t-47 -28.5q60 -90 223 -90q77 0 124.5 35.5t47.5 97.5q0 36 -21 67t-56 53.5t-79 45.5t-90.5 43t-90.5 47.5t-79 57t-56 73t-21 94.5q0 53 19.5 98.5t47 81t55 73t47 91t19.5 117.5 q0 96 -36.5 137t-108.5 41q-41 0 -72 -14t-57 -48.5t-39.5 -100.5t-13.5 -162v-938q0 -15 -9.5 -25t-21.5 -10q-4 0 -28 2t-73.5 4t-115.5 2q-59 0 -95 -2l-36 -2q-11 0 -21 10.5t-10 26.5z" />
<glyph unicode="&#xe0;" horiz-adv-x="905" d="M51 162q0 70 39 124.5t105.5 86t147.5 47.5t173 16v201q0 74 -27 105.5t-90 31.5q-41 0 -74 -13t-44 -32q24 -10 38.5 -36t14.5 -56q0 -47 -32 -79t-79 -32q-46 0 -76 32t-30 79q0 60 45.5 107t109 69.5t127.5 22.5q194 0 279.5 -92.5t85.5 -297.5v-335q0 -54 20 -54 q15 0 24.5 8t21.5 24.5t22 25.5q28 25 59 -6q11 -16 5.5 -37t-19.5 -31q-82 -64 -188 -64q-65 0 -105.5 17.5t-56 40t-29.5 61.5q-134 -123 -266 -123q-87 0 -144 50t-57 139zM210.5 1213q-4.5 37 18.5 65q24 28 61.5 32t65.5 -20q11 -10 43.5 -57t94 -118t147.5 -142 q13 -12 9 -28.5t-17.5 -21.5t-28.5 5q-86 71 -166.5 119.5t-131 72t-62.5 33.5q-29 23 -33.5 60zM299 188q0 -46 24.5 -73t55.5 -27q60 0 137 74v215q-108 0 -162.5 -48.5t-54.5 -140.5z" />
<glyph unicode="&#xe1;" horiz-adv-x="905" d="M51 162q0 70 39 124.5t105.5 86t147.5 47.5t173 16v201q0 74 -27 105.5t-90 31.5q-41 0 -74 -13t-44 -32q24 -10 38.5 -36t14.5 -56q0 -47 -32 -79t-79 -32q-46 0 -76 32t-30 79q0 60 45.5 107t109 69.5t127.5 22.5q194 0 279.5 -92.5t85.5 -297.5v-335q0 -54 20 -54 q15 0 24.5 8t21.5 24.5t22 25.5q28 25 59 -6q11 -16 5.5 -37t-19.5 -31q-82 -64 -188 -64q-65 0 -105.5 17.5t-56 40t-29.5 61.5q-134 -123 -266 -123q-87 0 -144 50t-57 139zM231.5 946q-2.5 14 8.5 27q86 71 147.5 142.5t93 118t43.5 56.5q28 25 66 21.5t61 -31.5 t18.5 -64.5t-32.5 -60.5q-12 -10 -63 -33.5t-132 -72t-166 -119.5q-13 -11 -27.5 -4.5t-17 20.5zM299 188q0 -46 24.5 -73t55.5 -27q60 0 137 74v215q-108 0 -162.5 -48.5t-54.5 -140.5z" />
<glyph unicode="&#xe2;" horiz-adv-x="905" d="M51 162q0 70 39 124.5t105.5 86t147.5 47.5t173 16v201q0 74 -27 105.5t-90 31.5q-41 0 -74 -13t-44 -32q24 -10 38.5 -36t14.5 -56q0 -47 -32 -79t-79 -32q-46 0 -76 32t-30 79q0 60 45.5 107t109 69.5t127.5 22.5q194 0 279.5 -92.5t85.5 -297.5v-335q0 -54 20 -54 q15 0 24.5 8t21.5 24.5t22 25.5q28 25 59 -6q11 -16 5.5 -37t-19.5 -31q-82 -64 -188 -64q-65 0 -105.5 17.5t-56 40t-29.5 61.5q-134 -123 -266 -123q-87 0 -144 50t-57 139zM121 937q-3 9 4 19l272 295q25 25 43 25t43 -25l269 -295q8 -7 3 -17t-15 -14t-21 1l-279 178 l-280 -178q-12 -7 -24 -2.5t-15 13.5zM299 188q0 -46 24.5 -73t55.5 -27q60 0 137 74v215q-108 0 -162.5 -48.5t-54.5 -140.5z" />
<glyph unicode="&#xe3;" horiz-adv-x="905" d="M51 162q0 70 39 124.5t105.5 86t147.5 47.5t173 16v201q0 74 -27 105.5t-90 31.5q-41 0 -74 -13t-44 -32q24 -10 38.5 -36t14.5 -56q0 -47 -32 -79t-79 -32q-46 0 -76 32t-30 79q0 60 45.5 107t109 69.5t127.5 22.5q194 0 279.5 -92.5t85.5 -297.5v-335q0 -54 20 -54 q15 0 24.5 8t21.5 24.5t22 25.5q28 25 59 -6q11 -16 5.5 -37t-19.5 -31q-82 -64 -188 -64q-65 0 -105.5 17.5t-56 40t-29.5 61.5q-134 -123 -266 -123q-87 0 -144 50t-57 139zM129 942q0 112 49.5 184t120.5 72q35 0 78.5 -22.5t78.5 -49t77 -49t73 -22.5q43 0 74.5 36.5 t40.5 88.5q1 13 11 17.5t20 -0.5t10 -17q0 -122 -49 -191t-133 -69q-31 0 -75 22.5t-80.5 49t-77.5 49t-66 22.5q-36 0 -68 -35.5t-43 -85.5q-3 -14 -22 -16t-19 16zM299 188q0 -46 24.5 -73t55.5 -27q60 0 137 74v215q-108 0 -162.5 -48.5t-54.5 -140.5z" />
<glyph unicode="&#xe4;" horiz-adv-x="905" d="M51 162q0 70 39 124.5t105.5 86t147.5 47.5t173 16v201q0 74 -27 105.5t-90 31.5q-41 0 -74 -13t-44 -32q24 -10 38.5 -36t14.5 -56q0 -47 -32 -79t-79 -32q-46 0 -76 32t-30 79q0 60 45.5 107t109 69.5t127.5 22.5q194 0 279.5 -92.5t85.5 -297.5v-335q0 -54 20 -54 q15 0 24.5 8t21.5 24.5t22 25.5q28 25 59 -6q11 -16 5.5 -37t-19.5 -31q-82 -64 -188 -64q-65 0 -105.5 17.5t-56 40t-29.5 61.5q-134 -123 -266 -123q-87 0 -144 50t-57 139zM152 1026q0 42 30 72t72 30q41 0 71.5 -30.5t30.5 -71.5q0 -43 -30.5 -73.5t-71.5 -30.5 q-43 0 -72.5 30.5t-29.5 73.5zM299 188q0 -46 24.5 -73t55.5 -27q60 0 137 74v215q-108 0 -162.5 -48.5t-54.5 -140.5zM516 1026q0 41 31 71.5t74 30.5q41 0 71.5 -30.5t30.5 -71.5q0 -43 -30.5 -73.5t-71.5 -30.5q-43 0 -74 30.5t-31 73.5z" />
<glyph unicode="&#xe5;" horiz-adv-x="905" d="M51 162q0 70 39 124.5t105.5 86t147.5 47.5t173 16v201q0 74 -27 105.5t-90 31.5q-41 0 -74 -13t-44 -32q24 -10 38.5 -36t14.5 -56q0 -47 -32 -79t-79 -32q-46 0 -76 32t-30 79q0 60 45.5 107t109 69.5t127.5 22.5q194 0 279.5 -92.5t85.5 -297.5v-335q0 -54 20 -54 q15 0 24.5 8t21.5 24.5t22 25.5q28 25 59 -6q11 -16 5.5 -37t-19.5 -31q-82 -64 -188 -64q-65 0 -105.5 17.5t-56 40t-29.5 61.5q-134 -123 -266 -123q-87 0 -144 50t-57 139zM213 1139q0 91 63 153t154 62q90 0 152.5 -62.5t62.5 -152.5q0 -91 -63 -154t-152 -63 q-91 0 -154 63t-63 154zM299 188q0 -46 24.5 -73t55.5 -27q60 0 137 74v215q-108 0 -162.5 -48.5t-54.5 -140.5zM309 1139q0 -50 35 -85.5t86 -35.5q49 0 84 35.5t35 85.5t-35 85.5t-84 35.5q-51 0 -86 -35.5t-35 -85.5z" />
<glyph unicode="&#xe6;" horiz-adv-x="1355" d="M51 162q0 70 39 124.5t105.5 86t147.5 47.5t173 16v201q0 74 -27 105.5t-90 31.5q-53 0 -79 -10t-44 -33q27 -12 42.5 -38t15.5 -56q0 -47 -32 -79t-79 -32q-46 0 -76 32t-30 79q0 60 45.5 107t109 69.5t127.5 22.5q187 0 269 -82q116 82 272 82q150 0 248 -93.5 t98 -228.5q0 -6 -1 -18.5t-1 -18.5h-520v-74v-2q0 -110 13 -183t40.5 -112.5t62 -55t85.5 -15.5q95 0 164 45t98 127q14 33 33 33q16 0 24 -9.5t8 -21.5q0 -4 -1.5 -11.5t-3.5 -16t-3 -11.5q-25 -57 -66 -98.5t-89 -64t-95 -32.5t-96 -10q-130 0 -225 53t-142 125 q-84 -82 -158.5 -126t-160.5 -44q-87 0 -144 50t-57 139zM299 188q0 -46 24.5 -73t55.5 -27q71 0 166 102q-29 83 -29 187q-108 0 -162.5 -48.5t-54.5 -140.5zM772 549h246q16 46 16 90q0 57 -26.5 94t-81.5 37q-131 0 -154 -221z" />
<glyph unicode="&#xe7;" horiz-adv-x="854" d="M74 401q0 195 109 315t286 120q126 0 221.5 -62t95.5 -164q0 -60 -32 -97.5t-80 -37.5q-47 0 -81 33.5t-34 79.5q0 41 31.5 76t71.5 38q-34 37 -65 52.5t-87 15.5q-104 0 -137 -79t-33 -290q0 -207 35.5 -285.5t136.5 -78.5q155 0 215 170q14 33 33 33q16 0 24.5 -9.5 t8.5 -21.5q0 -6 -4.5 -21.5t-4.5 -17.5q-91 -205 -297 -205q-31 0 -43 2v-92q93 -12 160.5 -60.5t67.5 -125.5q0 -196 -348 -258q-29 -4 -36 15q-9 19 22 32l14 4q86 25 143 74.5t57 113.5q0 60 -39 94.5t-112 34.5q-17 0 -30.5 16.5t-8.5 45.5l33 119q-137 35 -215 147.5 t-78 273.5z" />
<glyph unicode="&#xe8;" horiz-adv-x="931" d="M74 401q0 105 37 190t99 137.5t137.5 80t156.5 27.5q158 0 258 -93t100 -229q0 -6 -1 -18.5t-1 -18.5h-518q-2 -23 -2 -76q0 -198 49 -282t152 -84q95 0 164.5 44.5t99.5 127.5q9 33 31 33q16 0 24 -9.5t8 -21.5q0 -19 -8 -39q-24 -57 -65 -98.5t-89 -63.5t-95 -32.5 t-95 -10.5q-87 0 -165 27.5t-140.5 80t-99.5 137.5t-37 191zM237 1213q-4 37 19 65q24 28 61.5 32t65.5 -20q11 -10 43.5 -57t94 -118t147.5 -142q13 -12 9 -28.5t-17.5 -21.5t-28.5 5q-86 71 -167 119.5t-131.5 72t-62.5 33.5q-29 23 -33 60zM348 549h246q16 46 16 90 q0 57 -26.5 94t-81.5 37q-131 0 -154 -221z" />
<glyph unicode="&#xe9;" horiz-adv-x="931" d="M74 401q0 105 37 190t99 137.5t137.5 80t156.5 27.5q158 0 258 -93t100 -229q0 -6 -1 -18.5t-1 -18.5h-518q-2 -23 -2 -76q0 -198 49 -282t152 -84q95 0 164.5 44.5t99.5 127.5q9 33 31 33q16 0 24 -9.5t8 -21.5q0 -19 -8 -39q-24 -57 -65 -98.5t-89 -63.5t-95 -32.5 t-95 -10.5q-87 0 -165 27.5t-140.5 80t-99.5 137.5t-37 191zM293.5 933.5q-18.5 20.5 1.5 39.5q86 71 148 142.5t93.5 118t43.5 56.5q28 25 66 21.5t61 -31.5t18 -64.5t-33 -60.5q-12 -10 -63 -33.5t-131.5 -72t-165.5 -119.5q-20 -17 -38.5 3.5zM348 549h246q16 46 16 90 q0 57 -26.5 94t-81.5 37q-131 0 -154 -221z" />
<glyph unicode="&#xea;" horiz-adv-x="931" d="M74 401q0 105 37 190t99 137.5t137.5 80t156.5 27.5q158 0 258 -93t100 -229q0 -6 -1 -18.5t-1 -18.5h-518q-2 -23 -2 -76q0 -198 49 -282t152 -84q95 0 164.5 44.5t99.5 127.5q9 33 31 33q16 0 24 -9.5t8 -21.5q0 -19 -8 -39q-24 -57 -65 -98.5t-89 -63.5t-95 -32.5 t-95 -10.5q-87 0 -165 27.5t-140.5 80t-99.5 137.5t-37 191zM174 937q-3 9 4 19l273 295q25 25 43 25t43 -25l268 -295q8 -7 3 -17t-15 -14t-21 1l-278 178l-281 -178q-12 -7 -24 -2.5t-15 13.5zM348 549h246q16 46 16 90q0 57 -26.5 94t-81.5 37q-131 0 -154 -221z" />
<glyph unicode="&#xeb;" horiz-adv-x="931" d="M74 401q0 105 37 190t99 137.5t137.5 80t156.5 27.5q158 0 258 -93t100 -229q0 -6 -1 -18.5t-1 -18.5h-518q-2 -23 -2 -76q0 -198 49 -282t152 -84q95 0 164.5 44.5t99.5 127.5q9 33 31 33q16 0 24 -9.5t8 -21.5q0 -19 -8 -39q-24 -57 -65 -98.5t-89 -63.5t-95 -32.5 t-95 -10.5q-87 0 -165 27.5t-140.5 80t-99.5 137.5t-37 191zM221 1026q0 42 30.5 72t72.5 30q41 0 71.5 -30.5t30.5 -71.5q0 -43 -30.5 -73.5t-71.5 -30.5q-43 0 -73 30.5t-30 73.5zM348 549h246q16 46 16 90q0 57 -26.5 94t-81.5 37q-131 0 -154 -221zM586 1026 q0 41 30.5 71.5t73.5 30.5q41 0 72 -30.5t31 -71.5q0 -42 -30.5 -73t-72.5 -31q-43 0 -73.5 30.5t-30.5 73.5z" />
<glyph unicode="&#xec;" horiz-adv-x="636" d="M24 1213q-4 37 19 65q24 28 61.5 32t65.5 -20q11 -10 43.5 -57t94 -118t147.5 -142q13 -12 9 -28.5t-17.5 -21.5t-28.5 5q-86 71 -167 119.5t-131.5 72t-62.5 33.5q-29 23 -33 60zM51 29q0 16 10 26.5t21 10.5l36 -2q36 -1 95 -1v676q-59 0 -95 -3l-36 -3q-11 0 -21 10.5 t-10 26.5t9.5 25.5t21.5 9.5l36 -1q36 -1 95 -1q76 0 125.5 2t69 4t22.5 2q13 0 22 -10t9 -27v-711q59 0 95 1l36 2q13 0 22 -10t9 -27q0 -16 -9 -25.5t-22 -9.5q-4 0 -20.5 2.5t-61 5t-117.5 2.5h-110q-74 0 -119 -2.5t-61.5 -5t-20.5 -2.5q-12 0 -21.5 9.5t-9.5 25.5z" />
<glyph unicode="&#xed;" horiz-adv-x="636" d="M51 29q0 16 10 26.5t21 10.5l36 -2q36 -1 95 -1v676q-59 0 -95 -3l-36 -3q-11 0 -21 10.5t-10 26.5t9.5 25.5t21.5 9.5l36 -1q36 -1 95 -1q76 0 125.5 2t69 4t22.5 2q13 0 22 -10t9 -27v-711q59 0 95 1l36 2q13 0 22 -10t9 -27q0 -16 -9 -25.5t-22 -9.5q-4 0 -20.5 2.5 t-61 5t-117.5 2.5h-110q-74 0 -119 -2.5t-61.5 -5t-20.5 -2.5q-12 0 -21.5 9.5t-9.5 25.5zM92.5 933.5q-18.5 20.5 1.5 39.5q86 71 148 142.5t93.5 118t43.5 56.5q28 25 66 21.5t61 -31.5t18.5 -64.5t-32.5 -60.5q-12 -10 -63 -33.5t-132 -72t-166 -119.5q-20 -17 -38.5 3.5 z" />
<glyph unicode="&#xee;" horiz-adv-x="636" d="M0 937q-3 9 4 19l272 295q25 25 43 25t43 -25l269 -295q8 -7 3 -17t-15 -14t-21 1l-279 178l-280 -178q-12 -7 -24 -2.5t-15 13.5zM51 29q0 16 10 26.5t21 10.5l36 -2q36 -1 95 -1v676q-59 0 -95 -3l-36 -3q-11 0 -21 10.5t-10 26.5t9.5 25.5t21.5 9.5l36 -1q36 -1 95 -1 q76 0 125.5 2t69 4t22.5 2q13 0 22 -10t9 -27v-711q59 0 95 1l36 2q13 0 22 -10t9 -27q0 -16 -9 -25.5t-22 -9.5q-4 0 -20.5 2.5t-61 5t-117.5 2.5h-110q-74 0 -119 -2.5t-61.5 -5t-20.5 -2.5q-12 0 -21.5 9.5t-9.5 25.5z" />
<glyph unicode="&#xef;" horiz-adv-x="636" d="M35 1026q0 42 30 72t72 30q41 0 72 -30.5t31 -71.5q0 -42 -31 -73t-72 -31q-43 0 -72.5 30.5t-29.5 73.5zM51 29q0 16 10 26.5t21 10.5l36 -2q36 -1 95 -1v676q-59 0 -95 -3l-36 -3q-11 0 -21 10.5t-10 26.5t9.5 25.5t21.5 9.5l36 -1q36 -1 95 -1q76 0 125.5 2t69 4 t22.5 2q13 0 22 -10t9 -27v-711q59 0 95 1l36 2q13 0 22 -10t9 -27q0 -16 -9 -25.5t-22 -9.5q-4 0 -20.5 2.5t-61 5t-117.5 2.5h-110q-74 0 -119 -2.5t-61.5 -5t-20.5 -2.5q-12 0 -21.5 9.5t-9.5 25.5zM399 1026q0 41 31 71.5t74 30.5q41 0 71.5 -30.5t30.5 -71.5 q0 -43 -30.5 -73.5t-71.5 -30.5q-43 0 -74 30.5t-31 73.5z" />
<glyph unicode="&#xf0;" d="M57 401q0 192 126 313.5t313 121.5q85 0 145 -33q-41 157 -121 276q-103 -76 -151 -118q-10 -10 -27.5 -8t-28.5 20q-21 33 9 55q6 4 20.5 12.5t49.5 30.5t89 59q-99 120 -223 158q-25 8 -31 27.5t8.5 33.5t40.5 7q176 -46 306 -154q52 36 84.5 62t44.5 37t20 16 q33 21 55 -14t-8 -56q-7 -5 -20 -12t-45 -26.5t-80 -51.5q147 -143 224 -336t77 -358q0 -121 -33.5 -216.5t-93 -156.5t-139 -93t-172.5 -32q-187 0 -313 122t-126 314zM324 401q0 -156 15 -232.5t50.5 -106t106.5 -29.5q70 0 105.5 29t51 106.5t15.5 232.5t-15.5 232.5 t-51 107t-105.5 29.5q-71 0 -106.5 -29.5t-50.5 -106.5t-15 -233z" />
<glyph unicode="&#xf1;" horiz-adv-x="1171" d="M51 29q0 16 10 26.5t21 10.5l36 -2q36 -1 95 -1v676q-59 0 -95 -3l-36 -3q-11 0 -21 10.5t-10 26.5t9.5 25.5t21.5 9.5l36 -1q36 -1 95 -1q70 0 119.5 2t71.5 4t26 2q13 0 22 -10t9 -27v-190q28 96 113.5 174t183.5 78q130 0 192 -82.5t62 -221.5v-469q60 0 96 1l35 2 q13 0 22 -10t9 -27q0 -16 -9 -25.5t-22 -9.5q-4 0 -20 2.5t-60.5 5t-118.5 2.5h-59q-74 0 -119 -2.5t-61.5 -5t-20.5 -2.5q-12 0 -21.5 9.5t-9.5 25.5t10 26.5t21 10.5q6 0 29 -1.5t51 -1.5v539q0 80 -16.5 108.5t-63.5 28.5q-27 0 -64 -27t-73 -72.5t-61 -117.5t-25 -151 v-308q26 0 49.5 1.5t30.5 1.5q12 0 21 -10t9 -27t-8.5 -26t-21.5 -9q-1 0 -46.5 5t-101.5 5h-110q-56 0 -97 -1.5t-58 -3.5t-29 -3.5t-17 -1.5q-12 0 -21.5 9.5t-9.5 25.5zM285 942q0 112 49.5 184t120.5 72q35 0 78.5 -22.5t78.5 -49t77 -49t73 -22.5q43 0 74.5 36.5 t40.5 88.5q1 13 11 17.5t20 -0.5t10 -17q0 -122 -49.5 -191t-133.5 -69q-31 0 -75 22.5t-80.5 49t-77.5 49t-66 22.5q-36 0 -67.5 -35.5t-42.5 -85.5q-3 -14 -22 -16t-19 16z" />
<glyph unicode="&#xf2;" d="M57 401q0 192 126 313.5t313 121.5t312.5 -121.5t125.5 -313.5t-125.5 -314t-312.5 -122t-313 122t-126 314zM208.5 1213q-4.5 37 18.5 65q24 28 61.5 32t65.5 -20q11 -10 43.5 -57t94 -118t147.5 -142q13 -12 9 -28.5t-17.5 -21.5t-28.5 5q-86 71 -166.5 119.5t-131 72 t-62.5 33.5q-29 23 -33.5 60zM324 401q0 -156 15 -232.5t50.5 -106t106.5 -29.5q70 0 105.5 29t51 106.5t15.5 232.5t-15.5 232.5t-51 107t-105.5 29.5q-71 0 -106.5 -29.5t-50.5 -106.5t-15 -233z" />
<glyph unicode="&#xf3;" d="M57 401q0 192 126 313.5t313 121.5t312.5 -121.5t125.5 -313.5t-125.5 -314t-312.5 -122t-313 122t-126 314zM315.5 933.5q-18.5 20.5 1.5 39.5q86 71 148 142.5t93.5 118t43.5 56.5q28 25 66 21.5t61 -31.5t18.5 -64.5t-32.5 -60.5q-12 -10 -63 -33.5t-132 -72 t-166 -119.5q-20 -17 -38.5 3.5zM324 401q0 -156 15 -232.5t50.5 -106t106.5 -29.5q70 0 105.5 29t51 106.5t15.5 232.5t-15.5 232.5t-51 107t-105.5 29.5q-71 0 -106.5 -29.5t-50.5 -106.5t-15 -233z" />
<glyph unicode="&#xf4;" d="M57 401q0 192 126 313.5t313 121.5t312.5 -121.5t125.5 -313.5t-125.5 -314t-312.5 -122t-313 122t-126 314zM158 937q-3 9 4 19l272 295q25 25 43 25t43 -25l268 -295q8 -7 3.5 -17t-14.5 -14t-21 1l-279 178l-280 -178q-12 -7 -24 -2.5t-15 13.5zM324 401 q0 -156 15 -232.5t50.5 -106t106.5 -29.5q70 0 105.5 29t51 106.5t15.5 232.5t-15.5 232.5t-51 107t-105.5 29.5q-71 0 -106.5 -29.5t-50.5 -106.5t-15 -233z" />
<glyph unicode="&#xf5;" d="M57 401q0 192 126 313.5t313 121.5t312.5 -121.5t125.5 -313.5t-125.5 -314t-312.5 -122t-313 122t-126 314zM172 942q0 112 49.5 184t120.5 72q35 0 78.5 -22.5t78.5 -49t77 -49t73 -22.5q43 0 74.5 36.5t40.5 88.5q1 13 11 17.5t20 -0.5t10 -17q0 -122 -49 -191 t-133 -69q-31 0 -75 22.5t-80.5 49t-77.5 49t-66 22.5q-36 0 -68 -35.5t-43 -85.5q-3 -14 -22 -16t-19 16zM324 401q0 -156 15 -232.5t50.5 -106t106.5 -29.5q70 0 105.5 29t51 106.5t15.5 232.5t-15.5 232.5t-51 107t-105.5 29.5q-71 0 -106.5 -29.5t-50.5 -106.5t-15 -233 z" />
<glyph unicode="&#xf6;" d="M57 401q0 192 126 313.5t313 121.5t312.5 -121.5t125.5 -313.5t-125.5 -314t-312.5 -122t-313 122t-126 314zM211 1026q0 42 30 72t72 30q41 0 72 -30.5t31 -71.5q0 -42 -31 -73t-72 -31q-43 0 -72.5 30.5t-29.5 73.5zM324 401q0 -156 15 -232.5t50.5 -106t106.5 -29.5 q70 0 105.5 29t51 106.5t15.5 232.5t-15.5 232.5t-51 107t-105.5 29.5q-71 0 -106.5 -29.5t-50.5 -106.5t-15 -233zM575 1026q0 41 31 71.5t74 30.5q41 0 71.5 -30.5t30.5 -71.5q0 -43 -30.5 -73.5t-71.5 -30.5q-43 0 -74 30.5t-31 73.5z" />
<glyph unicode="&#xf7;" horiz-adv-x="1007" d="M102 510q0 21 12 34t27 13q8 0 27 -2t67.5 -4t126.5 -2h287q77 0 125.5 2t67.5 4t26 2q16 0 27.5 -13t11.5 -34t-11.5 -33t-27.5 -12q-7 0 -25.5 2t-66.5 4t-127 2h-287q-79 0 -127.5 -2t-67 -4t-26.5 -2q-15 0 -27 12.5t-12 32.5zM391 213q0 48 34 84.5t81 36.5t83 -37 t36 -84t-36 -83t-83 -36t-81 35.5t-34 83.5zM391 809q0 48 34 83.5t81 35.5t83 -36t36 -83t-36 -83t-83 -36t-81 35.5t-34 83.5z" />
<glyph unicode="&#xf8;" d="M57 401q0 192 126 313.5t313 121.5q101 0 190 -39q11 24 23 43q20 32 51 14q31 -16 12 -53q-2 -4 -10 -17.5t-12 -21.5q87 -57 135.5 -150t48.5 -211q0 -192 -125.5 -314t-312.5 -122q-106 0 -187 37q-17 -36 -30 -57q-20 -33 -52 -15q-18 10 -19.5 28.5t7.5 29.5 q2 4 12.5 20t18.5 29q-88 57 -138.5 151.5t-50.5 212.5zM324 401q0 -139 12 -219l233 406q11 19 32.5 56t31.5 54q-20 40 -51.5 56t-85.5 16q-71 0 -106.5 -29.5t-50.5 -106.5t-15 -233zM360 98q18 -36 50.5 -50.5t85.5 -14.5q70 0 105.5 29t51 106.5t15.5 232.5 q0 128 -13 211q-5 -8 -15.5 -27.5t-16.5 -29.5l-240 -416q-22 -38 -23 -41z" />
<glyph unicode="&#xf9;" horiz-adv-x="1085" d="M-4 770q0 16 9.5 25.5t21.5 9.5q6 0 19 -0.5t41.5 -1t72.5 -0.5q72 0 120.5 2t69.5 4t25 2q13 0 22 -10t9 -27v-618q0 -39 17 -68t50 -29q40 0 88.5 55.5t83.5 145.5t35 176v303q-60 0 -96 -3l-35 -3q-13 0 -22 10t-9 27q0 16 9 25.5t22 9.5l35 -1q36 -1 96 -1 q77 0 126 2t68 4t23 2q11 0 21 -10.5t10 -26.5v-663q0 -54 20 -54q15 0 24.5 8t21.5 24.5t22 25.5q28 25 59 -6q11 -16 5.5 -37t-19.5 -31q-82 -64 -189 -64q-192 0 -192 168v70q-42 -105 -108 -175.5t-158 -70.5q-130 0 -192 82t-62 221v467q-60 0 -96 -3l-37 -3 q-11 0 -21 10.5t-10 26.5zM212.5 1213q-4.5 37 18.5 65q24 28 61.5 32t65.5 -20q11 -10 43.5 -57t94 -118t147.5 -142q13 -12 9 -28.5t-17.5 -21.5t-28.5 5q-86 71 -166.5 119.5t-131 72t-62.5 33.5q-29 23 -33.5 60z" />
<glyph unicode="&#xfa;" horiz-adv-x="1085" d="M-4 770q0 16 9.5 25.5t21.5 9.5q6 0 19 -0.5t41.5 -1t72.5 -0.5q72 0 120.5 2t69.5 4t25 2q13 0 22 -10t9 -27v-618q0 -39 17 -68t50 -29q40 0 88.5 55.5t83.5 145.5t35 176v303q-60 0 -96 -3l-35 -3q-13 0 -22 10t-9 27q0 16 9 25.5t22 9.5l35 -1q36 -1 96 -1 q77 0 126 2t68 4t23 2q11 0 21 -10.5t10 -26.5v-663q0 -54 20 -54q15 0 24.5 8t21.5 24.5t22 25.5q28 25 59 -6q11 -16 5.5 -37t-19.5 -31q-82 -64 -189 -64q-192 0 -192 168v70q-42 -105 -108 -175.5t-158 -70.5q-130 0 -192 82t-62 221v467q-60 0 -96 -3l-37 -3 q-11 0 -21 10.5t-10 26.5zM358.5 946q-2.5 14 8.5 27q86 71 147.5 142.5t93 118t43.5 56.5q28 25 66 21.5t61 -31.5t18.5 -64.5t-32.5 -60.5q-12 -10 -63 -33.5t-132 -72t-166 -119.5q-13 -11 -27.5 -4.5t-17 20.5z" />
<glyph unicode="&#xfb;" horiz-adv-x="1085" d="M-4 770q0 16 9.5 25.5t21.5 9.5q6 0 19 -0.5t41.5 -1t72.5 -0.5q72 0 120.5 2t69.5 4t25 2q13 0 22 -10t9 -27v-618q0 -39 17 -68t50 -29q40 0 88.5 55.5t83.5 145.5t35 176v303q-60 0 -96 -3l-35 -3q-13 0 -22 10t-9 27q0 16 9 25.5t22 9.5l35 -1q36 -1 96 -1 q77 0 126 2t68 4t23 2q11 0 21 -10.5t10 -26.5v-663q0 -54 20 -54q15 0 24.5 8t21.5 24.5t22 25.5q28 25 59 -6q11 -16 5.5 -37t-19.5 -31q-82 -64 -189 -64q-192 0 -192 168v70q-42 -105 -108 -175.5t-158 -70.5q-130 0 -192 82t-62 221v467q-60 0 -96 -3l-37 -3 q-11 0 -21 10.5t-10 26.5zM207 937q-3 9 4 19l272 295q25 25 43 25t43 -25l269 -295q8 -7 3 -17t-15 -14t-21 1l-279 178l-280 -178q-12 -7 -24 -2.5t-15 13.5z" />
<glyph unicode="&#xfc;" horiz-adv-x="1085" d="M-4 770q0 16 9.5 25.5t21.5 9.5q6 0 19 -0.5t41.5 -1t72.5 -0.5q72 0 120.5 2t69.5 4t25 2q13 0 22 -10t9 -27v-618q0 -39 17 -68t50 -29q40 0 88.5 55.5t83.5 145.5t35 176v303q-60 0 -96 -3l-35 -3q-13 0 -22 10t-9 27q0 16 9 25.5t22 9.5l35 -1q36 -1 96 -1 q77 0 126 2t68 4t23 2q11 0 21 -10.5t10 -26.5v-663q0 -54 20 -54q15 0 24.5 8t21.5 24.5t22 25.5q28 25 59 -6q11 -16 5.5 -37t-19.5 -31q-82 -64 -189 -64q-192 0 -192 168v70q-42 -105 -108 -175.5t-158 -70.5q-130 0 -192 82t-62 221v467q-60 0 -96 -3l-37 -3 q-11 0 -21 10.5t-10 26.5zM225 1026q0 42 30.5 72t72.5 30q41 0 71.5 -30.5t30.5 -71.5q0 -43 -30.5 -73.5t-71.5 -30.5q-43 0 -73 30.5t-30 73.5zM590 1026q0 41 30.5 71.5t73.5 30.5q41 0 72 -30.5t31 -71.5q0 -42 -30.5 -73t-72.5 -31q-43 0 -73.5 30.5t-30.5 73.5z" />
<glyph unicode="&#xfd;" horiz-adv-x="823" d="M-129 -391q0 53 28.5 85t73.5 32q40 0 72.5 -29t32.5 -76q0 -66 -53 -92q18 -12 41 -12q41 0 74.5 25.5t80.5 101.5t111 219l61 139l-321 737q-40 0 -64 -1t-28 -1q-13 0 -22 10t-9 27q0 15 9.5 25t21.5 10q5 0 18 -2.5t49.5 -5t97.5 -2.5h117q59 0 95 2.5t50 5t19 2.5 q12 0 21.5 -10t9.5 -25q0 -17 -9 -27t-22 -10q-5 0 -26 1t-58 1l186 -430l189 430q-29 0 -59.5 -1t-36.5 -1q-11 0 -21 10.5t-10 26.5q0 14 10 24.5t21 10.5q6 0 18.5 -2.5t41 -5t73.5 -2.5q43 0 71 2.5t40.5 5t17.5 2.5q11 0 20.5 -10.5t9.5 -24.5q0 -16 -9.5 -26.5 t-20.5 -10.5q-6 0 -33 1t-59 1l-394 -893q-94 -215 -169.5 -304t-170.5 -89q-82 0 -134 46t-52 110zM340.5 933.5q-18.5 20.5 1.5 39.5q86 71 148 142.5t93.5 118t43.5 56.5q28 25 66 21.5t61 -31.5t18 -64.5t-33 -60.5q-12 -10 -63 -33.5t-131.5 -72t-165.5 -119.5 q-20 -17 -38.5 3.5z" />
<glyph unicode="&#xfe;" horiz-adv-x="1134" d="M39 -483q0 16 10 26.5t21 10.5l36 -2q36 -1 95 -1v1700q-59 0 -95 -3l-36 -3q-11 0 -21 10.5t-10 26.5t9.5 25.5t21.5 9.5l36 -1q36 -1 95 -1t108.5 2t77 4t31.5 2q13 0 22 -10t9 -27v-618q29 73 99 120.5t144 47.5q152 0 248 -120.5t96 -314.5t-96.5 -315t-247.5 -121 q-74 0 -147 50t-96 120v-584q60 0 95 1l36 2q12 0 21 -10t9 -27t-8.5 -26t-21.5 -9q-4 0 -20 2.5t-60.5 5t-118.5 2.5h-111q-58 0 -99 -1.5t-57 -3.5t-27.5 -3.5t-16.5 -1.5q-12 0 -21.5 9.5t-9.5 25.5zM449 401q0 -166 66.5 -265t150.5 -99q65 0 84.5 76t19.5 288 t-19.5 287.5t-84.5 75.5q-84 0 -150.5 -98.5t-66.5 -264.5z" />
<glyph unicode="&#xff;" horiz-adv-x="823" d="M-129 -391q0 53 28.5 85t73.5 32q40 0 72.5 -29t32.5 -76q0 -66 -53 -92q18 -12 41 -12q41 0 74.5 25.5t80.5 101.5t111 219l61 139l-321 737q-40 0 -64 -1t-28 -1q-13 0 -22 10t-9 27q0 15 9.5 25t21.5 10q5 0 18 -2.5t49.5 -5t97.5 -2.5h117q59 0 95 2.5t50 5t19 2.5 q12 0 21.5 -10t9.5 -25q0 -17 -9 -27t-22 -10q-5 0 -26 1t-58 1l186 -430l189 430q-29 0 -59.5 -1t-36.5 -1q-11 0 -21 10.5t-10 26.5q0 14 10 24.5t21 10.5q6 0 18.5 -2.5t41 -5t73.5 -2.5q43 0 71 2.5t40.5 5t17.5 2.5q11 0 20.5 -10.5t9.5 -24.5q0 -16 -9.5 -26.5 t-20.5 -10.5q-6 0 -33 1t-59 1l-394 -893q-94 -215 -169.5 -304t-170.5 -89q-82 0 -134 46t-52 110zM195 1026q0 42 30 72t72 30q41 0 71.5 -30.5t30.5 -71.5q0 -43 -30.5 -73.5t-71.5 -30.5q-43 0 -72.5 30.5t-29.5 73.5zM559 1026q0 41 31 71.5t74 30.5q41 0 71.5 -30.5 t30.5 -71.5q0 -43 -30.5 -73.5t-71.5 -30.5q-43 0 -74 30.5t-31 73.5z" />
<glyph unicode="&#x131;" horiz-adv-x="636" d="M51 29q0 16 10 26.5t21 10.5l36 -2q36 -1 95 -1v676q-59 0 -95 -3l-36 -3q-11 0 -21 10.5t-10 26.5t9.5 25.5t21.5 9.5l36 -1q36 -1 95 -1q76 0 125.5 2t69 4t22.5 2q13 0 22 -10t9 -27v-711q59 0 95 1l36 2q13 0 22 -10t9 -27q0 -16 -9 -25.5t-22 -9.5q-4 0 -20.5 2.5 t-61 5t-117.5 2.5h-110q-74 0 -119 -2.5t-61.5 -5t-20.5 -2.5q-12 0 -21.5 9.5t-9.5 25.5z" />
<glyph unicode="&#x152;" horiz-adv-x="1802" d="M88 657q0 144 44.5 269t120.5 210t176.5 133t211.5 48q36 0 135.5 -3t188.5 -3q66 0 252 2t350 2q18 0 62.5 4t51.5 4q11 0 21 -10.5t10 -26.5v-61q0 -50 5 -148t5 -100q0 -31 -32 -31q-16 0 -25.5 9t-9.5 22q0 129 -47 195.5t-156 66.5h-283v-516h134q76 0 117.5 40.5 t41.5 117.5q0 30 29 30q27 0 27 -30q0 -4 -1 -25t-2.5 -65.5t-1.5 -104.5t1.5 -104t2.5 -65t1 -25q0 -12 -7 -21.5t-20 -9.5q-14 0 -21.5 9.5t-7.5 21.5q0 77 -41.5 117t-117.5 40h-134v-573h334q109 0 156 66.5t47 195.5q0 13 9.5 22t25.5 9t24.5 -9t8.5 -22 q0 -2 -5.5 -100t-5.5 -148v-63q0 -14 -9.5 -24.5t-20.5 -10.5q-7 0 -52 4t-63 4q-92 0 -352 2t-301 2q-95 0 -192.5 -4t-131.5 -4q-111 0 -211.5 48.5t-176.5 133.5t-120.5 210t-44.5 269zM381 657q0 -215 36 -345t102 -183t169 -53l217 4v1155q-102 4 -217 4 q-103 0 -169 -53.5t-102 -183.5t-36 -345z" />
<glyph unicode="&#x153;" horiz-adv-x="1525" d="M57 401q0 192 126 313.5t313 121.5q183 0 305 -113q125 113 311 113q149 0 246.5 -93.5t97.5 -228.5q0 -6 -1 -18.5t-1 -18.5h-518q-2 -23 -2 -76q0 -88 9 -152.5t25.5 -105.5t42 -65t55 -33.5t69.5 -9.5q95 0 164.5 44.5t99.5 127.5q9 33 31 33q16 0 24 -9.5t8 -21.5 q0 -19 -8 -39q-24 -57 -65 -98.5t-89 -63.5t-95 -32.5t-95 -10.5q-185 0 -313 113q-119 -113 -301 -113q-187 0 -313 122t-126 314zM324 401q0 -156 15 -232.5t50.5 -106t106.5 -29.5q70 0 105.5 29t51 106.5t15.5 232.5t-15.5 232.5t-51 107t-105.5 29.5 q-71 0 -106.5 -29.5t-50.5 -106.5t-15 -233zM942 549h246q16 46 16 90q0 57 -26.5 94t-81.5 37q-131 0 -154 -221z" />
<glyph unicode="&#x178;" horiz-adv-x="1060" d="M-90 1286q0 15 9.5 25t21.5 10q4 0 22.5 -2.5t65.5 -5t121 -2.5h139q74 0 121 2.5t65.5 5t22.5 2.5q11 0 20.5 -10.5t9.5 -24.5q0 -16 -9.5 -26.5t-20.5 -10.5q-1 0 -39 1t-92 1l270 -510l229 435q18 35 10.5 55t-30.5 20t-47 -1t-31 -1q-11 0 -21 10.5t-10 26.5 q0 14 10 24.5t21 10.5q5 0 19 -2.5t52 -5t101 -2.5h10q64 0 102 2.5t51.5 5t18.5 2.5q12 0 21.5 -10t9.5 -25q0 -17 -9 -27t-22 -10q-8 0 -26.5 1t-36.5 1q-64 0 -115 -92l-268 -504v-592q59 0 99 1l40 2q13 0 22 -10t9 -27q0 -16 -9 -25.5t-22 -9.5q-4 0 -22.5 2.5t-65 5 t-119.5 2.5h-129q-73 0 -119.5 -2.5t-65 -5t-22.5 -2.5q-13 0 -21.5 9t-8.5 26t9 27t21 10l40 -2q41 -1 100 -1v541l-344 647q-52 0 -89 -1t-38 -1q-13 0 -22 10t-9 27zM340 1536q0 43 29.5 72.5t72.5 29.5q42 0 72.5 -30t30.5 -72t-30.5 -73t-72.5 -31q-43 0 -72.5 30.5 t-29.5 73.5zM705 1536q0 43 30 72.5t74 29.5q42 0 72 -30t30 -72q0 -43 -30.5 -73.5t-71.5 -30.5q-44 0 -74 30.5t-30 73.5z" />
<glyph unicode="&#x192;" horiz-adv-x="733" d="M-94 -350q0 52 30.5 85.5t77.5 33.5q44 0 74.5 -32t30.5 -77q0 -34 -22 -63t-58 -41q26 -29 76 -29q125 0 125 176v1036q-44 0 -80.5 -1t-58 -2t-27.5 -1q-13 0 -22 9.5t-9 25.5t9 25.5t22 9.5q64 0 166 -2v166q0 211 108 331.5t279 120.5q121 0 195.5 -62.5t74.5 -144.5 q0 -59 -33.5 -96t-83.5 -37q-51 0 -84.5 34.5t-33.5 84.5q0 36 23 67.5t56 45.5q-34 47 -110 47q-71 0 -107.5 -38t-36.5 -128v-391q102 2 183 2q12 0 21 -9.5t9 -25.5t-9 -25.5t-21 -9.5l-62 2q-62 2 -121 2v-827q0 -217 -89.5 -328.5t-252.5 -111.5q-109 0 -174 57 t-65 121z" />
<glyph unicode="&#x2c6;" horiz-adv-x="897" d="M84 937q-3 9 4 19l272 295q25 25 43 25t43 -25l269 -295q8 -7 3 -17t-15 -14t-21 1l-279 178l-280 -178q-12 -7 -24 -2.5t-15 13.5z" />
<glyph unicode="&#x2c7;" horiz-adv-x="890" d="M57 1241q-13 15 0.5 28.5t30.5 2.5l281 -176l280 176q9 6 20.5 0.5t15 -14.5t-2.5 -17l-268 -293q-25 -26 -43 -26t-43 26z" />
<glyph unicode="&#x2d8;" horiz-adv-x="808" d="M133 1444h41q21 -55 71 -90t115 -35q64 0 116 35t71 90h41q0 -106 -65 -171t-163 -65q-97 0 -162 65.5t-65 170.5z" />
<glyph unicode="&#x2d9;" horiz-adv-x="813" d="M213 1341q0 43 30.5 73t73.5 30t73 -30t30 -73q0 -41 -30 -71.5t-73 -30.5t-73.5 30.5t-30.5 71.5z" />
<glyph unicode="&#x2da;" horiz-adv-x="585" d="M31 1139q0 91 63 153t154 62q90 0 152.5 -62.5t62.5 -152.5q0 -91 -63 -154t-152 -63q-91 0 -154 63t-63 154zM127 1139q0 -50 35 -85.5t86 -35.5q49 0 84 35.5t35 85.5t-35 85.5t-84 35.5q-51 0 -86 -35.5t-35 -85.5z" />
<glyph unicode="&#x2db;" horiz-adv-x="579" d="M123 -180q0 62 40.5 114.5t104 75.5t125.5 4l23 -6l-17 -33h-16q-51 0 -93 -32.5t-42 -75.5q0 -50 28 -84.5t80 -34.5q82 0 107 59l20 39l17 -49l2 -8q-9 -68 -65 -109.5t-132 -41.5q-78 0 -130 52.5t-52 129.5z" />
<glyph unicode="&#x2dc;" horiz-adv-x="786" d="M78 942q0 112 49.5 184t120.5 72q35 0 78.5 -22.5t78.5 -49t77 -49t73 -22.5q43 0 74.5 36.5t40.5 88.5q1 13 11 17.5t20 -0.5t10 -17q0 -122 -49.5 -191t-133.5 -69q-31 0 -75 22.5t-80.5 49t-77.5 49t-66 22.5q-36 0 -67.5 -35.5t-42.5 -85.5q-3 -14 -22 -16t-19 16z " />
<glyph unicode="&#x2dd;" horiz-adv-x="860" d="M92 1194l244 229q39 33 62.5 46.5t54.5 13.5q34 0 53.5 -23.5t19.5 -50.5q0 -47 -59 -82l-363 -151zM397 1194l244 229q38 33 62.5 46.5t54.5 13.5q35 0 55.5 -23.5t20.5 -50.5t-19.5 -48.5t-42.5 -33.5l-360 -151z" />
<glyph unicode="&#x3a9;" horiz-adv-x="1177" d="M119 889q0 119 58.5 223.5t168 170t244.5 65.5q101 0 189.5 -38.5t149 -102t95.5 -146.5t35 -172q0 -136 -79.5 -253t-209.5 -169v-391h57q85 0 118.5 65.5t33.5 196.5q0 13 9.5 22t25.5 9t24.5 -9t8.5 -22q0 -2 -5.5 -100t-5.5 -148v-63q0 -14 -9.5 -24.5t-20.5 -10.5 q-6 0 -47.5 4t-67.5 4l-131 4q-44 0 -56 10.5t-12 48.5v469q37 54 59.5 156.5t22.5 206.5q0 212 -37 298.5t-147 86.5q-112 0 -150.5 -87t-38.5 -298q0 -259 82 -363v-469q0 -38 -11.5 -48.5t-55.5 -10.5q-72 -4 -133 -4q-25 0 -66 -4t-47 -4q-12 0 -21.5 10t-9.5 25v63 q0 50 -5 148t-5 100q0 13 8.5 22t22.5 9q16 0 25.5 -9t9.5 -22q0 -131 33.5 -196.5t117.5 -65.5h60l2 389q-131 54 -210 170.5t-79 253.5z" />
<glyph unicode="&#x3c0;" horiz-adv-x="1161" d="M98.5 547q-0.5 67 19 121.5t61 91.5t93.5 37h648q131 0 98 129q-4 12 5 19t21 4.5t17 -13.5q24 -55 24.5 -121.5t-19.5 -122.5t-60.5 -93.5t-92.5 -37.5h-88v-411q0 -101 45 -101q27 0 84 53q12 12 25 3q21 -15 -11 -55l-3 -3q-31 -36 -79.5 -59t-94.5 -23 q-83 0 -124.5 45t-41.5 119v432h-172l-37 -432q-7 -85 -39.5 -124.5t-77.5 -39.5q-52 0 -111 82q-34 45 -12 60q15 7 25 -5q39 -51 56 -62q13 -9 26 -9q45 0 51 98l39 432h-111q-70 0 -90 -36.5t-6 -90.5q3 -15 -16 -20t-25 10q-26 56 -26.5 123z" />
<glyph unicode="&#x401;" horiz-adv-x="1161" d="M94 29q0 17 9 27t22 10l40 -2q40 -1 99 -1v1188q-59 0 -99 -1l-40 -1q-13 0 -22 10t-9 27q0 15 9.5 25t21.5 10q4 0 22.5 -2.5t65.5 -5t121 -2.5h51l543 4q17 0 61 4t51 4q13 0 22 -10t9 -27v-61q0 -50 5 -148t5 -100q0 -13 -8 -22t-22 -9q-16 0 -25.5 9t-9.5 22 q0 129 -47 195.5t-156 66.5h-285v-516h134q77 0 119 40.5t42 117.5q0 30 27 30t27 -30q0 -4 -0.5 -25t-1.5 -65.5t-1 -104.5t1 -104t1.5 -65t0.5 -25q0 -12 -7 -21.5t-20 -9.5t-20 9.5t-7 21.5q0 77 -42 117t-119 40h-134v-573h336q109 0 156 66.5t47 195.5q0 13 9.5 22 t25.5 9q14 0 22.5 -9t8.5 -22q0 -2 -5.5 -100t-5.5 -148v-63q0 -15 -9 -25t-21 -10q-7 0 -51.5 4t-61.5 4l-594 4h-51q-74 0 -121 -2.5t-65.5 -5t-22.5 -2.5q-13 0 -22 9.5t-9 25.5zM352 1536q0 43 30 72.5t73 29.5q42 0 72 -30t30 -72q0 -43 -30.5 -73.5t-71.5 -30.5 q-43 0 -73 30.5t-30 73.5zM737 1536q0 43 30.5 72.5t74.5 29.5q42 0 72 -30t30 -72q0 -43 -30.5 -73.5t-71.5 -30.5q-44 0 -74.5 30.5t-30.5 73.5z" />
<glyph unicode="&#x402;" horiz-adv-x="1341" d="M16 977q0 2 5.5 100t5.5 148v61q0 16 9.5 26.5t20.5 10.5q8 0 52.5 -4t62.5 -4l221 -4h182l302 4q18 0 62.5 4t51.5 4q13 0 22 -10t9 -27v-61q0 -50 5 -148t5 -100q0 -13 -8.5 -22t-24.5 -9q-14 0 -23 9t-9 22q0 129 -47 195.5t-156 66.5h-148v-545q128 29 240 29 q62 0 123.5 -12t123 -40.5t108 -71t75.5 -109t29 -148.5t-20 -146.5t-54.5 -107t-84 -71t-105.5 -40.5t-123 -12q-108 0 -173 57.5t-65 120.5q0 53 30 86t77 33q44 0 75 -32t31 -76q0 -35 -22 -65t-58 -40q26 -29 74 -29q75 0 114.5 74t39.5 248q0 156 -62 231.5t-172 75.5 q-87 0 -201 -26v-560q0 -40 -10.5 -49.5t-56.5 -9.5h-129q-74 0 -121 -2.5t-65.5 -5t-22.5 -2.5q-11 0 -21 10.5t-10 24.5q0 16 10 26.5t21 10.5l41 -2q40 -1 100 -1v1176h-65q-109 0 -156 -66.5t-47 -195.5q0 -13 -9.5 -22t-25.5 -9t-24.5 9t-8.5 22z" />
<glyph unicode="&#x403;" horiz-adv-x="1105" d="M94 29q0 17 9 27t22 10l40 -2q40 -1 99 -1v1188q-59 0 -99 -1l-40 -1q-13 0 -22 10t-9 27q0 15 9.5 25t21.5 10q4 0 22.5 -2.5t65.5 -5t121 -2.5h153l453 4q18 0 63 4t52 4q12 0 21 -10t9 -27v-61q0 -50 5.5 -148t5.5 -100q0 -13 -8.5 -22t-24.5 -9t-24.5 9t-8.5 22 q0 130 -47 196t-158 66h-297v-1176q44 0 74.5 0.5t46 1.5t21.5 1q11 0 20.5 -10.5t9.5 -26.5t-9 -25.5t-21 -9.5q-4 0 -22.5 2.5t-65.5 5t-121 2.5h-127q-74 0 -121 -2.5t-65.5 -5t-22.5 -2.5q-13 0 -22 9.5t-9 25.5zM469.5 1445.5q-18.5 20.5 1.5 39.5q86 71 148 142.5 t93.5 118t43.5 56.5q29 24 66.5 21t60.5 -31t18.5 -65t-33.5 -60q-12 -10 -62.5 -33.5t-131 -72t-166.5 -119.5q-20 -17 -38.5 3.5z" />
<glyph unicode="&#x404;" horiz-adv-x="1191" d="M88 657q0 151 50 282t132 219.5t187.5 139t216.5 50.5q109 0 179.5 -32t131.5 -91q21 4 39 30.5t18 49.5q0 32 29 32q15 0 23 -6t9 -11t1 -13v-406q0 -33 -31 -33t-31 33q0 164 -100.5 265.5t-249.5 101.5q-119 0 -185 -55.5t-95.5 -181.5t-30.5 -353q29 38 49 61.5 t58 48.5t75 25q55 0 191 -59.5t180 -59.5q20 0 34.5 14.5t21 32.5t15.5 32.5t19 14.5q9 0 16 -7t7 -19q0 -28 -12 -64.5t-34 -71.5t-57 -59t-76 -24q-64 0 -196 57t-183 57q-30 0 -59.5 -19.5t-48.5 -55.5q4 -204 35.5 -319t96.5 -165.5t179 -50.5q147 0 248.5 110.5 t101.5 276.5q0 33 31 33t31 -33v-426q0 -8 -1 -13t-9 -11.5t-23 -6.5q-29 0 -29 33q0 23 -17 47t-40 31q-63 -61 -132 -92t-179 -31q-111 0 -216.5 50.5t-187.5 139.5t-132 220t-50 282z" />
<glyph unicode="&#x405;" horiz-adv-x="1040" d="M96 938q0 105 38 187.5t99 129t130 70t139 23.5q82 0 153.5 -23.5t118.5 -58.5q19 0 35 15t16 36q0 31 31 31t31 -31v-334q0 -33 -31 -33t-31 33q0 47 -18.5 95t-55 91t-100 70t-143.5 27q-109 0 -182.5 -58.5t-73.5 -167.5q0 -77 52 -130.5t132 -69.5l203 -41 q87 -18 154.5 -60t106 -96.5t58 -112t19.5 -114.5q0 -113 -38 -201t-103.5 -141.5t-146 -81t-171.5 -27.5q-83 0 -163.5 30t-135.5 71q-21 0 -38 -19.5t-17 -48.5q0 -33 -29 -33q-15 0 -23 6.5t-9 11.5t-1 13v389q0 33 31 33t31 -33q0 -146 105.5 -238t258.5 -92 q111 0 195 59t84 169q0 89 -57.5 140t-157.5 79l-148 28q-93 18 -162 59t-108.5 97.5t-58.5 119t-19 132.5z" />
<glyph unicode="&#x406;" horiz-adv-x="794" d="M94 29q0 17 9 27t22 10l40 -2q40 -1 99 -1v1188q-59 0 -99 -1l-40 -1q-13 0 -22 10t-9 27q0 15 9.5 25t21.5 10q4 0 22.5 -2.5t65.5 -5t121 -2.5h127q74 0 121 2.5t65.5 5t22.5 2.5q11 0 20.5 -10.5t9.5 -24.5q0 -16 -9.5 -26.5t-20.5 -10.5q-6 0 -21.5 0.5t-46 1 t-74.5 0.5v-1188q44 0 74.5 0.5t46 1.5t21.5 1q11 0 20.5 -10.5t9.5 -26.5t-9 -25.5t-21 -9.5q-4 0 -22.5 2.5t-65.5 5t-121 2.5h-127q-74 0 -121 -2.5t-65.5 -5t-22.5 -2.5q-13 0 -22 9.5t-9 25.5z" />
<glyph unicode="&#x407;" horiz-adv-x="794" d="M94 29q0 17 9 27t22 10l40 -2q40 -1 99 -1v1188q-59 0 -99 -1l-40 -1q-13 0 -22 10t-9 27q0 15 9.5 25t21.5 10q4 0 22.5 -2.5t65.5 -5t121 -2.5h127q74 0 121 2.5t65.5 5t22.5 2.5q11 0 20.5 -10.5t9.5 -24.5q0 -16 -9.5 -26.5t-20.5 -10.5q-6 0 -21.5 0.5t-46 1 t-74.5 0.5v-1188q44 0 74.5 0.5t46 1.5t21.5 1q11 0 20.5 -10.5t9.5 -26.5t-9 -25.5t-21 -9.5q-4 0 -22.5 2.5t-65.5 5t-121 2.5h-127q-74 0 -121 -2.5t-65.5 -5t-22.5 -2.5q-13 0 -22 9.5t-9 25.5zM102 1536q0 43 30 72.5t73 29.5q42 0 72 -30t30 -72q0 -43 -30.5 -73.5 t-71.5 -30.5q-43 0 -73 30.5t-30 73.5zM467 1536q0 43 30 72.5t74 29.5q42 0 72.5 -30t30.5 -72t-31 -73t-72 -31q-44 0 -74 30.5t-30 73.5z" />
<glyph unicode="&#x408;" horiz-adv-x="751" d="M-68 -139q0 53 30 86t77 33q44 0 75 -32t31 -77q0 -35 -21.5 -64.5t-57.5 -39.5q26 -29 73 -29q125 0 125 174v1339q-59 0 -99 -1l-40 -1q-13 0 -22 10t-9 27q0 15 9.5 25t21.5 10q4 0 22.5 -2.5t65.5 -5t121 -2.5h127q74 0 121 2.5t65.5 5t22.5 2.5q11 0 20.5 -10.5 t9.5 -24.5q0 -16 -9.5 -26.5t-20.5 -10.5q-6 0 -21.5 0.5t-46 1t-74.5 0.5v-1130q0 -214 -96 -326t-262 -112q-108 0 -173 57.5t-65 120.5z" />
<glyph unicode="&#x409;" horiz-adv-x="1640" d="M-12 106q0 57 32.5 91t81.5 34q44 0 71.5 -29.5t27.5 -72.5q0 -29 -12.5 -51.5t-30.5 -32.5q12 -8 26 -8q33 0 60.5 16.5t48 50.5t36.5 74t27 100t19 115t13.5 132t8.5 138.5t6 145.5l17 442q-59 0 -99 -1l-40 -1q-11 0 -21 10.5t-10 26.5q0 14 10 24.5t21 10.5 q4 0 22 -2.5t65 -5t121 -2.5h476q74 0 121 2.5t65.5 5t22.5 2.5q11 0 20.5 -10.5t9.5 -24.5q0 -16 -9.5 -26.5t-20.5 -10.5l-40 1q-40 1 -100 1v-485q43 2 142 2q219 0 337.5 -103t118.5 -280q0 -176 -119 -280.5t-337 -104.5l-336 4q-74 0 -121 -2.5t-65.5 -5t-22.5 -2.5 q-13 0 -22 9.5t-9 25.5q0 17 9 27t22 10l40 -2q40 -1 99 -1v1174h-264l-17 -449q-15 -309 -30 -418q-39 -287 -156 -373q-57 -42 -137 -42q-77 0 -127.5 42t-50.5 109zM1034 74h109q116 0 161.5 68.5t45.5 242.5q0 172 -45.5 239.5t-161.5 67.5h-109v-618z" />
<glyph unicode="&#x40a;" horiz-adv-x="1843" d="M94 29q0 17 9 27t22 10l40 -2q40 -1 99 -1v1188q-59 0 -99 -1l-40 -1q-13 0 -22 10t-9 27q0 15 9.5 25t21.5 10q4 0 22.5 -2.5t65.5 -5t121 -2.5h127q74 0 121 2.5t65.5 5t22.5 2.5q11 0 20.5 -10.5t9.5 -24.5q0 -16 -9.5 -26.5t-20.5 -10.5q-6 0 -21.5 0.5t-46 1 t-74.5 0.5v-508h445v508q-59 0 -99 -1l-40 -1q-13 0 -22 10t-9 27q0 15 9.5 25t21.5 10q4 0 22 -2.5t64.5 -5t119.5 -2.5h129q74 0 121 2.5t65.5 5t22.5 2.5q11 0 21 -10.5t10 -24.5q0 -16 -10 -26.5t-21 -10.5l-40 1q-41 1 -101 1v-508q43 2 141 2q219 0 338 -99t119 -271 q0 -171 -119.5 -273t-337.5 -102q-112 0 -338 4q-73 0 -119.5 -2.5t-64.5 -5t-22 -2.5q-13 0 -22 9.5t-9 25.5q0 17 9 27t22 10l40 -2q40 -1 99 -1v607h-445v-607q44 0 74.5 0.5t46 1.5t21.5 1q11 0 20.5 -10.5t9.5 -26.5t-9 -25.5t-21 -9.5q-4 0 -22.5 2.5t-65.5 5 t-121 2.5h-127q-74 0 -121 -2.5t-65.5 -5t-22.5 -2.5q-13 0 -22 9.5t-9 25.5zM1237 74h109q116 0 161 65.5t45 235.5q0 167 -45 231t-161 64h-109v-596z" />
<glyph unicode="&#x40b;" horiz-adv-x="1462" d="M16 977q0 2 5.5 100t5.5 148v61q0 16 9.5 26.5t20.5 10.5q8 0 52.5 -4t62.5 -4l221 -4h182l302 4q18 0 62.5 4t51.5 4q13 0 22 -10t9 -27v-61q0 -50 5 -148t5 -100q0 -13 -8.5 -22t-24.5 -9q-14 0 -23 9t-9 22q0 129 -47 195.5t-156 66.5h-148v-545q128 29 240 29 q430 0 430 -277v-383q59 0 99 1l40 2q13 0 22 -10t9 -27q0 -15 -9.5 -25t-21.5 -10q-4 0 -22 2.5t-65 5t-121 2.5h-127q-74 0 -121 -2.5t-65.5 -5t-22.5 -2.5q-11 0 -21 10.5t-10 24.5q0 16 10 26.5t21 10.5l41 -2q40 -1 100 -1v383q0 203 -207 203q-85 0 -199 -26v-560 q59 0 100 1l40 2q12 0 21 -10t9 -27q0 -15 -9 -25t-21 -10q-4 0 -22.5 2.5t-65 5t-119.5 2.5h-129q-74 0 -121 -2.5t-65.5 -5t-22.5 -2.5q-11 0 -21 10.5t-10 24.5q0 16 10 26.5t21 10.5l41 -2q40 -1 100 -1v1176h-65q-109 0 -156 -66.5t-47 -195.5q0 -13 -9.5 -22t-25.5 -9 t-24.5 9t-8.5 22z" />
<glyph unicode="&#x40c;" horiz-adv-x="1320" d="M94 29q0 16 10 26.5t21 10.5l40 -2q40 -1 99 -1v1188q-59 0 -99 -1l-40 -1q-11 0 -21 10.5t-10 26.5q0 14 10 24.5t21 10.5q4 0 22.5 -2.5t65.5 -5t121 -2.5h125q74 0 121 2.5t65.5 5t22.5 2.5q11 0 20.5 -10.5t9.5 -24.5q0 -16 -9.5 -26.5t-20.5 -10.5l-40 1 q-41 1 -100 1v-508h107q72 0 116.5 32.5t63 84.5t28.5 114.5t19.5 125t28 114.5t63 84.5t115.5 32.5q73 0 114.5 -35.5t41.5 -97.5q0 -54 -31 -88.5t-82 -34.5q-47 0 -76.5 30t-29.5 77q0 37 12 61q-31 -8 -49 -47t-23.5 -92.5t-15 -116.5t-23 -117.5t-49.5 -97t-92 -53.5 q150 -2 251 -106t101 -271q0 -57 -5 -131t-5 -94q0 -76 51 -76q29 0 47.5 15.5t18.5 43.5q0 14 9.5 25.5t22.5 11.5q12 0 22.5 -11.5t10.5 -23.5q0 -54 -50 -88t-126 -34q-128 0 -199 92.5t-71 281.5q0 142 -41 229t-125 87h-150v-607q59 0 100 1l40 2q11 0 20.5 -10.5 t9.5 -26.5t-9 -25.5t-21 -9.5q-4 0 -22.5 2.5t-65.5 5t-121 2.5h-125q-74 0 -121 -2.5t-65.5 -5t-22.5 -2.5q-12 0 -21.5 9.5t-9.5 25.5zM614.5 1445.5q-18.5 20.5 1.5 39.5q86 71 148 142.5t93.5 118t43.5 56.5q29 24 66.5 21t60.5 -31t19 -65t-33 -60q-12 -10 -62.5 -33.5 t-131.5 -72t-167 -119.5q-20 -17 -38.5 3.5z" />
<glyph unicode="&#x40e;" horiz-adv-x="1009" d="M-86 1286q0 15 9.5 25t21.5 10q4 0 22.5 -2.5t65.5 -5t121 -2.5h127q74 0 121 2.5t65 5t22 2.5q11 0 21 -10.5t10 -24.5q0 -16 -10 -26.5t-21 -10.5q-1 0 -38 1t-91 1l324 -665l242 665h-11q-60 0 -93 -1l-34 -1q-12 0 -21 10t-9 27q0 15 9 25t21 10q5 0 19.5 -2.5 t52.5 -5t101 -2.5h10q64 0 102 2.5t51.5 5t18.5 2.5q12 0 21.5 -10t9.5 -25q0 -17 -9 -27t-22 -10q-1 0 -32.5 1t-86.5 1h-10l-307 -848q-65 -177 -117 -270t-107 -130.5t-133 -37.5q-92 0 -156.5 47.5t-64.5 132.5q0 55 30.5 86t78.5 31q47 0 75.5 -27.5t28.5 -72.5 q0 -26 -12.5 -47.5t-34.5 -30.5q19 -37 74 -37q27 0 47 7.5t44.5 30t50.5 69.5t56 122l-493 975q-54 0 -91 -1t-38 -1q-13 0 -22 10t-9 27zM285 1632q0 54 28 86.5t72 32.5t75.5 -30.5t31.5 -75.5q0 -31 -21.5 -58.5t-50.5 -40.5q13 -17 61.5 -32.5t108.5 -16.5 q59 1 107 16.5t61 32.5q-29 13 -50.5 40.5t-21.5 58.5q0 45 31.5 75.5t75.5 30.5t72 -32.5t28 -86.5q0 -75 -82.5 -137.5t-220.5 -62.5q-139 0 -222 62.5t-83 137.5z" />
<glyph unicode="&#x40f;" horiz-adv-x="1480" d="M94 25q0 17 9 26.5t22 9.5l40 -1q40 -1 99 -1v1188q-59 0 -99 -1l-40 -1q-13 0 -22 10t-9 27q0 16 9 25.5t22 9.5q4 0 22.5 -2.5t65.5 -5t121 -2.5h127q74 0 121 2.5t65.5 5t22.5 2.5q12 0 21 -9.5t9 -25.5t-9.5 -26.5t-20.5 -10.5q-6 0 -21.5 0.5t-46 1t-74.5 0.5v-1173 h424v1173q-59 0 -99 -1l-40 -1q-13 0 -22 10t-9 27q0 16 9 25.5t22 9.5q4 0 22.5 -2.5t65 -5t119.5 -2.5h129q74 0 121 2.5t65.5 5t22.5 2.5q12 0 21.5 -9.5t9.5 -25.5t-10 -26.5t-21 -10.5l-40 1q-41 1 -101 1v-1188q60 0 101 1l40 1q12 0 21.5 -10t9.5 -26 q0 -14 -10 -24.5t-21 -10.5q-4 0 -22.5 2.5t-65.5 5t-121 2.5h-377q0 -66 23 -129t46 -109.5t23 -74.5q0 -60 -35.5 -93.5t-89.5 -33.5t-90.5 33.5t-36.5 93.5q0 28 24 74.5t48.5 109.5t24.5 129h-375q-74 0 -121 -2.5t-65.5 -5t-22.5 -2.5q-12 0 -21.5 10t-9.5 25z" />
<glyph unicode="&#x410;" horiz-adv-x="1212" d="M-84 29q0 16 10 26.5t21 10.5q1 0 33 -1.5t88 -1.5h14l498 1266q5 10 7.5 13.5t9.5 6.5t19 3q25 0 35 -23l486 -1266q56 0 94 1.5t39 1.5q12 0 21 -10t9 -27t-8.5 -26t-21.5 -9q-4 0 -22.5 2.5t-65.5 5t-121 2.5h-137q-74 0 -121 -2.5t-65.5 -5t-22.5 -2.5 q-12 0 -21.5 9.5t-9.5 25.5t10 26.5t21 10.5q1 0 40 -1.5t97 -1.5l-133 351h-418l-139 -351h14q59 0 93 1l34 2q11 0 21 -10.5t10 -26.5t-9.5 -25.5t-21.5 -9.5q-5 0 -19.5 2.5t-53 5t-101.5 2.5h-10q-64 0 -102 -2.5t-51.5 -5t-18.5 -2.5q-12 0 -21.5 9.5t-9.5 25.5z M330 487h360l-178 465z" />
<glyph unicode="&#x411;" horiz-adv-x="1214" d="M94 29q0 17 9 27t22 10l40 -2q40 -1 99 -1v1184q-59 0 -99 -1l-40 -1q-13 0 -22 10t-9 27q0 15 9.5 25t21.5 10q4 0 22.5 -2.5t65.5 -5t121 -2.5h153l422 4q18 0 63 4t52 4q13 0 22 -10t9 -27v-61q0 -50 5 -148t5 -100q0 -13 -8.5 -22t-24.5 -9t-24.5 9t-8.5 22 q0 130 -46.5 196t-157.5 66h-267v-469q43 2 142 2q221 0 349 -104t128 -279q0 -174 -128.5 -279.5t-348.5 -105.5l-336 4q-74 0 -121 -2.5t-65.5 -5t-22.5 -2.5q-13 0 -22 9.5t-9 25.5zM528 74h109q119 0 173 70t54 241q0 168 -54 237.5t-173 69.5h-109v-618z" />
<glyph unicode="&#x412;" horiz-adv-x="1245" d="M94 29q0 17 9 27t22 10l40 -2q40 -1 99 -1v1188q-59 0 -99 -1l-40 -1q-13 0 -22 10t-9 27q0 15 9.5 25t21.5 10q4 0 22.5 -2.5t65.5 -5t121 -2.5h102q40 0 110.5 2t104.5 2q214 0 327.5 -88t113.5 -228q0 -103 -70.5 -182.5t-165.5 -107.5q137 -25 229.5 -123t92.5 -230 q0 -167 -115.5 -263.5t-333.5 -96.5q-60 0 -155 4t-138 4h-102q-74 0 -121 -2.5t-65.5 -5t-22.5 -2.5q-13 0 -22 9.5t-9 25.5zM528 76h154q119 0 166 62t47 218q0 136 -58 214.5t-165 78.5h-144v-573zM528 723h60q111 0 166 60t55 216q0 131 -47 185.5t-162 54.5h-72v-516z " />
<glyph unicode="&#x413;" horiz-adv-x="1105" d="M94 29q0 17 9 27t22 10l40 -2q40 -1 99 -1v1188q-59 0 -99 -1l-40 -1q-13 0 -22 10t-9 27q0 15 9.5 25t21.5 10q4 0 22.5 -2.5t65.5 -5t121 -2.5h153l453 4q18 0 63 4t52 4q12 0 21 -10t9 -27v-61q0 -50 5.5 -148t5.5 -100q0 -13 -8.5 -22t-24.5 -9t-24.5 9t-8.5 22 q0 130 -47 196t-158 66h-297v-1176q44 0 74.5 0.5t46 1.5t21.5 1q11 0 20.5 -10.5t9.5 -26.5t-9 -25.5t-21 -9.5q-4 0 -22.5 2.5t-65.5 5t-121 2.5h-127q-74 0 -121 -2.5t-65.5 -5t-22.5 -2.5q-13 0 -22 9.5t-9 25.5z" />
<glyph unicode="&#x414;" horiz-adv-x="1304" d="M43 -324q0 2 5 131t5 179v57q0 16 10 26.5t21 10.5q7 0 50 -2t61 -2q35 41 61.5 87t57 135.5t52.5 209t42 309.5t32 434q-59 0 -99 -1l-40 -1q-11 0 -21 10.5t-10 26.5q0 14 10 24.5t21 10.5q4 0 22 -2.5t64.5 -5t120.5 -2.5h463q74 0 121 2.5t65.5 5t22.5 2.5 q11 0 20.5 -10.5t9.5 -24.5q0 -16 -9.5 -26.5t-20.5 -10.5l-40 1q-40 1 -100 1v-1177q54 0 116 3l63 3q11 0 20.5 -10.5t9.5 -26.5v-57q0 -50 5.5 -179t5.5 -131q0 -30 -33 -30q-17 0 -26 8.5t-9 21.5q0 85 -16.5 156t-55 119.5t-94.5 48.5h-747q-82 0 -125 -91t-43 -233 q0 -13 -9 -21.5t-26 -8.5q-33 0 -33 30zM301 74h477v1163h-258q-26 -507 -80.5 -770.5t-138.5 -392.5z" />
<glyph unicode="&#x415;" horiz-adv-x="1161" d="M94 29q0 17 9 27t22 10l40 -2q40 -1 99 -1v1188q-59 0 -99 -1l-40 -1q-13 0 -22 10t-9 27q0 15 9.5 25t21.5 10q4 0 22.5 -2.5t65.5 -5t121 -2.5h51l543 4q17 0 61 4t51 4q13 0 22 -10t9 -27v-61q0 -50 5 -148t5 -100q0 -13 -8 -22t-22 -9q-16 0 -25.5 9t-9.5 22 q0 129 -47 195.5t-156 66.5h-285v-516h134q77 0 119 40.5t42 117.5q0 30 27 30t27 -30q0 -4 -0.5 -25t-1.5 -65.5t-1 -104.5t1 -104t1.5 -65t0.5 -25q0 -12 -7 -21.5t-20 -9.5t-20 9.5t-7 21.5q0 77 -42 117t-119 40h-134v-573h336q109 0 156 66.5t47 195.5q0 13 9.5 22 t25.5 9q14 0 22.5 -9t8.5 -22q0 -2 -5.5 -100t-5.5 -148v-63q0 -15 -9 -25t-21 -10q-7 0 -51.5 4t-61.5 4l-594 4h-51q-74 0 -121 -2.5t-65.5 -5t-22.5 -2.5q-13 0 -22 9.5t-9 25.5z" />
<glyph unicode="&#x416;" horiz-adv-x="1808" d="M31 102q0 12 10 23.5t22 11.5q13 0 23 -11.5t10 -25.5q0 -28 18.5 -43.5t47.5 -15.5q51 0 51 76q0 20 -5 94t-5 131q0 145 98 245.5t246 114.5q-66 15 -102.5 74t-47.5 133.5t-18.5 148.5t-28.5 129t-63 64q20 -20 20 -71q0 -47 -29.5 -77t-76.5 -30q-51 0 -82 34.5 t-31 88.5q0 62 41.5 97.5t114.5 35.5t118 -33t63 -85.5t27 -116.5t17 -128t24 -116.5t58 -85.5t111 -33h110v520q-59 0 -99 -1l-40 -1q-11 0 -21 10.5t-10 26.5q0 14 10 24.5t21 10.5q4 0 22.5 -2.5t65.5 -5t121 -2.5h125q74 0 121 2.5t65.5 5t22.5 2.5q11 0 20.5 -10.5 t9.5 -24.5q0 -16 -9.5 -26.5t-20.5 -10.5l-40 1q-41 1 -100 1v-520h111q69 0 111 33t58 85.5t24 116.5t17 128t27 116.5t63 85.5t118 33t114 -35.5t41 -97.5q0 -54 -30.5 -88.5t-81.5 -34.5q-47 0 -77 30t-30 77q0 50 21 71q-42 -9 -63 -64t-28.5 -129t-18.5 -148.5 t-47.5 -133.5t-102.5 -74q148 -14 246 -114.5t98 -245.5q0 -57 -5.5 -131t-5.5 -94q0 -76 52 -76q29 0 47 15.5t18 43.5q0 14 10 25.5t23 11.5q12 0 22.5 -11.5t10.5 -23.5q0 -54 -50 -88t-126 -34q-128 0 -199.5 92.5t-71.5 281.5q0 140 -41 221.5t-125 81.5h-129v-594 q59 0 100 1l40 2q11 0 20.5 -10.5t9.5 -26.5t-9 -25.5t-21 -9.5q-4 0 -22.5 2.5t-65.5 5t-121 2.5h-125q-74 0 -121 -2.5t-65.5 -5t-22.5 -2.5q-12 0 -21.5 9.5t-9.5 25.5t10 26.5t21 10.5l40 -2q40 -1 99 -1v594h-129q-84 0 -125 -81.5t-41 -221.5q0 -189 -71 -281.5 t-199 -92.5q-76 0 -126 34t-50 88z" />
<glyph unicode="&#x417;" d="M49 221q0 58 31 91.5t80 33.5q44 0 73 -30.5t29 -77.5q0 -76 -78 -103q28 -39 94.5 -63.5t131.5 -24.5q120 0 179.5 76t59.5 235q0 163 -63 239.5t-170 76.5q-52 0 -85 -4t-38 -4q-14 0 -25.5 12t-11.5 31t11.5 31t25.5 12q4 0 36.5 -4.5t86.5 -4.5q96 0 142 73.5 t46 199.5q0 127 -49.5 188.5t-138.5 61.5q-61 0 -111 -24t-80.5 -62.5t-46.5 -83.5t-16 -90q0 -33 -31 -33t-31 33v299q0 8 1 13t9 11t23 6q29 0 29 -32q0 -17 11.5 -36t23.5 -28q99 109 270 109q179 0 291 -83t112 -233q0 -122 -69.5 -205t-194.5 -112q129 -27 219 -122 t90 -235q0 -124 -69.5 -215t-180.5 -134.5t-247 -43.5q-155 0 -262 74.5t-107 181.5z" />
<glyph unicode="&#x418;" horiz-adv-x="1521" d="M94 29q0 17 9 27t22 10l40 -2q40 -1 99 -1v1188q-59 0 -99 -1l-40 -1q-13 0 -22 10t-9 27q0 15 9.5 25t21.5 10q4 0 22.5 -2.5t65.5 -5t121 -2.5h127q74 0 121 2.5t65.5 5t22.5 2.5q11 0 20.5 -10.5t9.5 -24.5q0 -16 -9.5 -26.5t-20.5 -10.5q-6 0 -21.5 0.5t-46 1 t-74.5 0.5v-860l465 660v200q-59 0 -99 -1l-40 -1q-13 0 -22 10t-9 27q0 15 9.5 25t21.5 10q4 0 22.5 -2.5t65 -5t119.5 -2.5h129q74 0 121 2.5t65.5 5t22.5 2.5q11 0 21 -10.5t10 -24.5q0 -16 -10 -26.5t-21 -10.5l-41 1q-41 1 -101 1v-1188q44 0 74.5 0.5t46 1.5t21.5 1 q11 0 21 -10.5t10 -26.5t-9.5 -25.5t-21.5 -9.5q-4 0 -22.5 2.5t-65.5 5t-121 2.5h-129q-73 0 -119.5 -2.5t-65 -5t-22.5 -2.5q-13 0 -22 9.5t-9 25.5q0 17 9 27t22 10l40 -2q40 -1 99 -1v861l-465 -660v-201q44 0 74.5 0.5t46 1.5t21.5 1q11 0 20.5 -10.5t9.5 -26.5 t-9 -25.5t-21 -9.5q-4 0 -22.5 2.5t-65.5 5t-121 2.5h-127q-74 0 -121 -2.5t-65.5 -5t-22.5 -2.5q-13 0 -22 9.5t-9 25.5z" />
<glyph unicode="&#x419;" horiz-adv-x="1521" d="M94 29q0 17 9 27t22 10l40 -2q40 -1 99 -1v1188q-59 0 -99 -1l-40 -1q-13 0 -22 10t-9 27q0 15 9.5 25t21.5 10q4 0 22.5 -2.5t65.5 -5t121 -2.5h127q74 0 121 2.5t65.5 5t22.5 2.5q11 0 20.5 -10.5t9.5 -24.5q0 -16 -9.5 -26.5t-20.5 -10.5q-6 0 -21.5 0.5t-46 1 t-74.5 0.5v-860l465 660v200q-59 0 -99 -1l-40 -1q-13 0 -22 10t-9 27q0 15 9.5 25t21.5 10q4 0 22.5 -2.5t65 -5t119.5 -2.5h129q74 0 121 2.5t65.5 5t22.5 2.5q11 0 21 -10.5t10 -24.5q0 -16 -10 -26.5t-21 -10.5l-41 1q-41 1 -101 1v-1188q44 0 74.5 0.5t46 1.5t21.5 1 q11 0 21 -10.5t10 -26.5t-9.5 -25.5t-21.5 -9.5q-4 0 -22.5 2.5t-65.5 5t-121 2.5h-129q-73 0 -119.5 -2.5t-65 -5t-22.5 -2.5q-13 0 -22 9.5t-9 25.5q0 17 9 27t22 10l40 -2q40 -1 99 -1v861l-465 -660v-201q44 0 74.5 0.5t46 1.5t21.5 1q11 0 20.5 -10.5t9.5 -26.5 t-9 -25.5t-21 -9.5q-4 0 -22.5 2.5t-65.5 5t-121 2.5h-127q-74 0 -121 -2.5t-65.5 -5t-22.5 -2.5q-13 0 -22 9.5t-9 25.5zM457 1636q0 54 28 86.5t72 32.5t75.5 -30.5t31.5 -75.5q0 -31 -21.5 -58.5t-50.5 -40.5q14 -18 58.5 -33t111.5 -16q66 1 110 16t58 33 q-29 13 -50.5 40.5t-21.5 58.5q0 45 31.5 75.5t75.5 30.5t72 -32.5t28 -86.5q0 -75 -82.5 -137.5t-220.5 -62.5q-139 0 -222 62.5t-83 137.5z" />
<glyph unicode="&#x41a;" horiz-adv-x="1320" d="M94 29q0 16 10 26.5t21 10.5l40 -2q40 -1 99 -1v1188q-59 0 -99 -1l-40 -1q-11 0 -21 10.5t-10 26.5q0 14 10 24.5t21 10.5q4 0 22.5 -2.5t65.5 -5t121 -2.5h125q74 0 121 2.5t65.5 5t22.5 2.5q11 0 20.5 -10.5t9.5 -24.5q0 -16 -9.5 -26.5t-20.5 -10.5l-40 1 q-41 1 -100 1v-508h107q72 0 116.5 32.5t63 84.5t28.5 114.5t19.5 125t28 114.5t63 84.5t115.5 32.5q73 0 114.5 -35.5t41.5 -97.5q0 -54 -31 -88.5t-82 -34.5q-47 0 -76.5 30t-29.5 77q0 37 12 61q-31 -8 -49 -47t-23.5 -92.5t-15 -116.5t-23 -117.5t-49.5 -97t-92 -53.5 q150 -2 251 -106t101 -271q0 -57 -5 -131t-5 -94q0 -76 51 -76q29 0 47.5 15.5t18.5 43.5q0 14 9.5 25.5t22.5 11.5q12 0 22.5 -11.5t10.5 -23.5q0 -54 -50 -88t-126 -34q-128 0 -199 92.5t-71 281.5q0 142 -41 229t-125 87h-150v-607q59 0 100 1l40 2q11 0 20.5 -10.5 t9.5 -26.5t-9 -25.5t-21 -9.5q-4 0 -22.5 2.5t-65.5 5t-121 2.5h-125q-74 0 -121 -2.5t-65.5 -5t-22.5 -2.5q-12 0 -21.5 9.5t-9.5 25.5z" />
<glyph unicode="&#x41b;" horiz-adv-x="1316" d="M-12 117q0 57 32.5 91t81.5 34q44 0 71.5 -29.5t27.5 -73.5q0 -29 -12.5 -51.5t-30.5 -32.5q12 -8 26 -8q33 0 60.5 16t48 49t36.5 72.5t27 98.5t19 113.5t13.5 130.5t8.5 137t6 145l17 442q-59 0 -99 -1l-40 -1q-11 0 -21 10.5t-10 26.5q0 14 10 24.5t21 10.5 q4 0 22 -2.5t65 -5t121 -2.5h496q74 0 121 2.5t65.5 5t22.5 2.5q11 0 21 -10.5t10 -24.5q0 -16 -10 -26.5t-21 -10.5l-40 1q-39 1 -99 1v-1188q60 0 99 1l40 2q11 0 21 -10.5t10 -26.5t-9.5 -25.5t-21.5 -9.5q-4 0 -22.5 2.5t-65.5 5t-121 2.5h-123q-74 0 -121 -2.5 t-65.5 -5t-22.5 -2.5q-13 0 -21.5 9t-8.5 26t9 27t21 10l41 -2q40 -1 99 -1v1174h-293l-17 -449q-15 -303 -26 -394q-33 -279 -136 -372q-62 -57 -155 -57q-77 0 -127.5 42.5t-50.5 109.5z" />
<glyph unicode="&#x41c;" horiz-adv-x="1712" d="M94 29q0 17 9 27t22 10l40 -2q40 -1 99 -1v1188q-59 0 -99 -1l-40 -1q-13 0 -22 10t-9 27q0 15 9.5 25t21.5 10q5 0 20.5 -2t55.5 -4.5t102 -3.5h180q21 0 27.5 -9.5t21.5 -50.5l326 -897l342 897q2 6 6 20t6.5 20t10.5 12.5t20 7.5h135q74 0 121 2.5t65.5 5t22.5 2.5 q12 0 21.5 -10t9.5 -25q0 -17 -9 -27t-22 -10l-40 1q-40 1 -99 1v-1188q59 0 99 1l40 2q13 0 22 -10t9 -27q0 -16 -9 -25.5t-22 -9.5q-4 0 -22.5 2.5t-65.5 5t-121 2.5h-110q-73 0 -119.5 -2.5t-65 -5t-22.5 -2.5q-13 0 -22 9.5t-9 25.5q0 17 9 27t22 10l40 -2q40 -1 99 -1 v977l-401 -1056q-9 -21 -35 -21q-28 0 -35 21l-389 1067v-988q59 0 99 1l40 2q13 0 22 -10t9 -27q0 -16 -9 -25.5t-22 -9.5q-5 0 -20.5 2t-55 4.5t-100.5 3.5q-62 -1 -102 -3.5t-55.5 -4.5t-20.5 -2q-13 0 -22 9.5t-9 25.5z" />
<glyph unicode="&#x41d;" horiz-adv-x="1501" d="M94 29q0 17 9 27t22 10l40 -2q40 -1 99 -1v1188q-59 0 -99 -1l-40 -1q-13 0 -22 10t-9 27q0 15 9.5 25t21.5 10q4 0 22.5 -2.5t65.5 -5t121 -2.5h127q74 0 121 2.5t65.5 5t22.5 2.5q11 0 20.5 -10.5t9.5 -24.5q0 -16 -9.5 -26.5t-20.5 -10.5q-6 0 -21.5 0.5t-46 1 t-74.5 0.5v-528h445v528q-59 0 -99 -1l-40 -1q-13 0 -22 10t-9 27q0 15 9.5 25t21.5 10q4 0 22 -2.5t64.5 -5t119.5 -2.5h129q74 0 121 2.5t65.5 5t22.5 2.5q11 0 21 -10.5t10 -24.5q0 -16 -10 -26.5t-21 -10.5l-40 1q-41 1 -101 1v-1188q60 0 101 1l40 2q11 0 21 -10.5 t10 -26.5t-9.5 -25.5t-21.5 -9.5q-4 0 -22.5 2.5t-65.5 5t-121 2.5h-129q-73 0 -119.5 -2.5t-64.5 -5t-22 -2.5q-13 0 -22 9.5t-9 25.5q0 17 9 27t22 10l40 -2q40 -1 99 -1v586h-445v-586q44 0 74.5 0.5t46 1.5t21.5 1q11 0 20.5 -10.5t9.5 -26.5t-9 -25.5t-21 -9.5 q-4 0 -22.5 2.5t-65.5 5t-121 2.5h-127q-74 0 -121 -2.5t-65.5 -5t-22.5 -2.5q-13 0 -22 9.5t-9 25.5z" />
<glyph unicode="&#x41e;" horiz-adv-x="1398" d="M88 657q0 152 49 282t132 219t194.5 139.5t236.5 50.5q124 0 235.5 -50.5t194.5 -139.5t132 -219t49 -282t-49 -282.5t-132 -219.5t-194.5 -139.5t-235.5 -50.5t-236 50.5t-195 139.5t-132 219.5t-49 282.5zM381 657q0 -172 19.5 -290.5t60.5 -188.5t99 -100.5t140 -30.5 q109 0 177 55t104.5 191t36.5 364t-36.5 364t-104.5 191.5t-177 55.5q-110 0 -178 -55.5t-104.5 -191.5t-36.5 -364z" />
<glyph unicode="&#x41f;" horiz-adv-x="1490" d="M94 29q0 17 9 27t22 10l40 -2q40 -1 99 -1v1188q-59 0 -99 -1l-40 -1q-13 0 -22 10t-9 27q0 15 9.5 25t21.5 10q4 0 22.5 -2.5t65.5 -5t121 -2.5h825q74 0 121 2.5t65.5 5t22.5 2.5q11 0 21 -10.5t10 -24.5q0 -16 -10 -26.5t-21 -10.5l-40 1q-41 1 -101 1v-1188 q60 0 101 1l40 2q11 0 21 -10.5t10 -26.5t-9.5 -25.5t-21.5 -9.5q-4 0 -22.5 2.5t-65.5 5t-121 2.5h-129q-73 0 -119.5 -2.5t-65 -5t-22.5 -2.5q-13 0 -21.5 9t-8.5 26t9 27t21 10l41 -2q40 -1 99 -1v1174h-435v-1174q44 0 74.5 0.5t46 1.5t21.5 1q11 0 20.5 -10.5 t9.5 -26.5t-9 -25.5t-21 -9.5q-4 0 -22.5 2.5t-65.5 5t-121 2.5h-127q-74 0 -121 -2.5t-65.5 -5t-22.5 -2.5q-13 0 -22 9.5t-9 25.5z" />
<glyph unicode="&#x420;" horiz-adv-x="1134" d="M94 29q0 17 9 27t22 10l40 -2q40 -1 99 -1v1188q-59 0 -99 -1l-40 -1q-13 0 -22 10t-9 27q0 15 9.5 25t21.5 10q4 0 22.5 -2.5t65.5 -5t121 -2.5h102q204 4 234 4q219 0 337.5 -103t118.5 -280q0 -176 -119 -280.5t-337 -104.5h-142v-484q44 0 74.5 0.5t46 1.5t21.5 1 q11 0 20.5 -10.5t9.5 -26.5t-9 -25.5t-21 -9.5q-4 0 -22.5 2.5t-65.5 5t-121 2.5h-127q-74 0 -121 -2.5t-65.5 -5t-22.5 -2.5q-13 0 -22 9.5t-9 25.5zM528 621h109q116 0 161.5 68.5t45.5 242.5q0 172 -45.5 239.5t-161.5 67.5h-109v-618z" />
<glyph unicode="&#x421;" horiz-adv-x="1177" d="M88 657q0 151 50 282t132 219.5t187.5 139t216.5 50.5q109 0 179.5 -32t131.5 -91q21 4 39 30.5t18 49.5q0 32 29 32q15 0 23 -6t9 -11t1 -13v-426q0 -33 -31 -33t-31 33q0 166 -101.5 276.5t-248.5 110.5q-120 0 -186.5 -57.5t-95.5 -187.5t-29 -366t29 -366t95.5 -187 t186.5 -57q147 0 248.5 110.5t101.5 276.5q0 33 31 33t31 -33v-426q0 -8 -1 -13t-9 -11.5t-23 -6.5q-29 0 -29 33q0 23 -17 47t-40 31q-63 -61 -132 -92t-179 -31q-111 0 -216.5 50.5t-187.5 139.5t-132 220t-50 282z" />
<glyph unicode="&#x422;" horiz-adv-x="1132" d="M16 977q0 2 5.5 100t5.5 148v61q0 16 9.5 26.5t20.5 10.5q8 0 52.5 -4t62.5 -4l303 -4h182l301 4q18 0 63 4t52 4q13 0 22 -10t9 -27v-61q0 -50 5 -148t5 -100q0 -13 -8.5 -22t-24.5 -9q-14 0 -23 9t-9 22q0 129 -47 195.5t-156 66.5h-148v-1176q59 0 100 1l40 2 q12 0 21 -10t9 -27t-8.5 -26t-21.5 -9q-4 0 -22.5 2.5t-65 5t-119.5 2.5h-129q-74 0 -121 -2.5t-65.5 -5t-22.5 -2.5q-12 0 -21.5 9.5t-9.5 25.5t10 26.5t21 10.5l41 -2q40 -1 100 -1v1176h-147q-109 0 -156 -66.5t-47 -195.5q0 -13 -9.5 -22t-25.5 -9t-24.5 9t-8.5 22z" />
<glyph unicode="&#x423;" horiz-adv-x="1009" d="M-86 1286q0 15 9.5 25t21.5 10q4 0 22.5 -2.5t65.5 -5t121 -2.5h127q74 0 121 2.5t65 5t22 2.5q11 0 21 -10.5t10 -24.5q0 -16 -10 -26.5t-21 -10.5q-1 0 -38 1t-91 1l324 -665l242 665h-11q-60 0 -93 -1l-34 -1q-12 0 -21 10t-9 27q0 15 9 25t21 10q5 0 19.5 -2.5 t52.5 -5t101 -2.5h10q64 0 102 2.5t51.5 5t18.5 2.5q12 0 21.5 -10t9.5 -25q0 -17 -9 -27t-22 -10q-1 0 -32.5 1t-86.5 1h-10l-307 -848q-65 -177 -117 -270t-107 -130.5t-133 -37.5q-92 0 -156.5 47.5t-64.5 132.5q0 55 30.5 86t78.5 31q47 0 75.5 -27.5t28.5 -72.5 q0 -26 -12.5 -47.5t-34.5 -30.5q19 -37 74 -37q27 0 47 7.5t44.5 30t50.5 69.5t56 122l-493 975q-54 0 -91 -1t-38 -1q-13 0 -22 10t-9 27z" />
<glyph unicode="&#x424;" horiz-adv-x="1579" d="M59 666q0 178 130 295.5t348 117.5h120v172q-59 0 -99 -1l-40 -1q-13 0 -22 10t-9 27q0 15 9.5 25t21.5 10q4 0 22.5 -2.5t65.5 -5t121 -2.5h127q74 0 121 2.5t65.5 5t22.5 2.5q11 0 21 -10.5t10 -24.5q0 -16 -10 -26.5t-21 -10.5l-41 1q-40 1 -100 1v-172h120 q218 0 348 -117.5t130 -295.5q0 -176 -130.5 -295t-347.5 -119h-120v-189q60 0 100 1l41 2q11 0 21 -10.5t10 -26.5t-9.5 -25.5t-21.5 -9.5q-4 0 -22.5 2.5t-65.5 5t-121 2.5h-127q-74 0 -121 -2.5t-65.5 -5t-22.5 -2.5q-13 0 -22 9.5t-9 25.5q0 17 9 27t22 10l40 -2 q40 -1 99 -1v189h-120q-217 0 -347.5 119t-130.5 295zM342 666q0 -174 55.5 -257t171.5 -83h88v680h-88q-115 0 -171 -84t-56 -256zM922 326h88q116 0 171.5 83t55.5 257q0 172 -56 256t-171 84h-88v-680z" />
<glyph unicode="&#x425;" horiz-adv-x="1128" d="M-47 29q0 17 9 27t22 10q1 0 32 -1.5t86 -1.5h7l350 531l-330 657q-54 0 -91 -1t-38 -1q-13 0 -22 10t-9 27q0 15 9.5 25t21.5 10q4 0 22.5 -2.5t65.5 -5t121 -2.5h135q73 0 119.5 2.5t65 5t22.5 2.5q12 0 21.5 -10t9.5 -25q0 -17 -9 -27t-22 -10l-37 1q-37 1 -90 1 l217 -438l285 438h-8q-60 0 -94 -1l-33 -1q-13 0 -22 10t-9 27q0 15 9.5 25t21.5 10q5 0 19 -2.5t52 -5t101 -2.5h10q64 0 102 2.5t51.5 5t18.5 2.5q12 0 21.5 -10t9.5 -25q0 -17 -9 -27t-22 -10q-1 0 -32.5 1t-86.5 1h-6l-340 -518l338 -670q54 0 91 1.5t38 1.5 q13 0 22 -10t9 -27q0 -16 -9 -25.5t-22 -9.5q-4 0 -22.5 2.5t-65.5 5t-121 2.5h-135q-74 0 -121 -2.5t-65.5 -5t-22.5 -2.5q-12 0 -21.5 9.5t-9.5 25.5t10 26.5t21 10.5l38 -2q37 -1 91 -1l-225 451l-295 -451h8q60 0 93 1l34 2q13 0 22 -10t9 -27q0 -16 -9 -25.5t-22 -9.5 q-5 0 -19 2.5t-52 5t-101 2.5h-10q-64 0 -102 -2.5t-51.5 -5t-18.5 -2.5q-13 0 -22 9.5t-9 25.5z" />
<glyph unicode="&#x426;" horiz-adv-x="1480" d="M94 25q0 17 9 26.5t22 9.5l40 -1q40 -1 99 -1v1188q-59 0 -99 -1l-40 -1q-13 0 -22 10t-9 27q0 16 9 25.5t22 9.5q4 0 22.5 -2.5t65.5 -5t121 -2.5h127q74 0 121 2.5t65.5 5t22.5 2.5q12 0 21 -9.5t9 -25.5t-9.5 -26.5t-20.5 -10.5q-6 0 -21.5 0.5t-46 1t-74.5 0.5v-1173 h424v1173q-41 0 -69.5 -0.5t-39 -0.5t-18.5 -0.5t-12 -0.5q-13 0 -22 10t-9 27q0 16 9 25.5t22 9.5q4 0 22.5 -2.5t65 -5t119.5 -2.5h129q74 0 121 2.5t65.5 5t22.5 2.5q12 0 21.5 -9.5t9.5 -25.5t-10 -26.5t-21 -10.5l-40 1q-41 1 -101 1v-1173q54 0 116 3l62 3 q11 0 20.5 -10.5t9.5 -26.5v-57q0 -50 5.5 -179t5.5 -131q0 -30 -33 -30q-17 0 -26 8.5t-9 21.5q0 85 -16.5 156t-55 119.5t-94.5 48.5h-868q-74 0 -121 -2.5t-65.5 -5t-22.5 -2.5q-12 0 -21.5 10t-9.5 25z" />
<glyph unicode="&#x427;" horiz-adv-x="1404" d="M37 1286q0 15 9.5 25t21.5 10q4 0 22 -2.5t65 -5t121 -2.5h127q74 0 121 2.5t65.5 5t22.5 2.5q11 0 21 -10.5t10 -24.5q0 -16 -10 -26.5t-21 -10.5l-40 1q-41 1 -101 1v-379q0 -223 203 -223q100 0 203 45v557q-59 0 -99 -1l-41 -1q-12 0 -21 10t-9 27q0 15 9 25t21 10 q4 0 22.5 -2.5t65 -5t119.5 -2.5h129q74 0 121 2.5t65.5 5t22.5 2.5q11 0 21 -10.5t10 -24.5q0 -16 -10 -26.5t-21 -10.5l-40 1q-41 1 -101 1v-1188q60 0 101 1l40 2q11 0 21 -10.5t10 -26.5t-9.5 -25.5t-21.5 -9.5q-4 0 -22.5 2.5t-65.5 5t-121 2.5h-129q-73 0 -119.5 -2.5 t-65 -5t-22.5 -2.5q-13 0 -21.5 9t-8.5 26t9 27t21 10l41 -2q40 -1 99 -1v553q-61 -23 -142.5 -36t-138.5 -13q-73 0 -136 13t-123 44t-95 92.5t-35 147.5v387q-59 0 -99 -1l-40 -1q-13 0 -22 10t-9 27z" />
<glyph unicode="&#x428;" horiz-adv-x="2004" d="M94 25q0 17 9 26.5t22 9.5l40 -1q40 -1 99 -1v1188q-59 0 -99 -1l-40 -1q-13 0 -22 10t-9 27q0 16 9 25.5t22 9.5q4 0 22.5 -2.5t65.5 -5t121 -2.5h127q65 0 107 2.5t59 5t22 2.5q12 0 21.5 -9.5t9.5 -25.5t-10 -26.5t-21 -10.5q-3 0 -38 1t-83 1v-1173h342v1173 q-43 0 -68.5 -0.5t-35.5 -1t-14 -0.5q-13 0 -22 10t-9 27q0 16 9 25.5t22 9.5q5 0 22 -2.5t58.5 -5t105.5 -2.5h129q65 0 107 2.5t59 5t22 2.5q12 0 21.5 -9.5t9.5 -25.5t-10 -26.5t-21 -10.5q-3 0 -38 1t-82 1v-1173h342v1173q-34 0 -57.5 -0.5t-33 -0.5t-17 -0.5 t-11.5 -0.5q-13 0 -22 10t-9 27q0 16 9 25.5t22 9.5q5 0 22 -2.5t58.5 -5t105.5 -2.5h129q74 0 121 2.5t65.5 5t22.5 2.5q12 0 21.5 -9.5t9.5 -25.5t-10 -26.5t-21 -10.5l-40 1q-41 1 -101 1v-1188q60 0 101 1l40 1q12 0 21.5 -10t9.5 -26q0 -14 -10 -24.5t-21 -10.5 q-4 0 -22.5 2.5t-65.5 5t-121 2.5h-1339q-74 0 -121 -2.5t-65.5 -5t-22.5 -2.5q-12 0 -21.5 10t-9.5 25z" />
<glyph unicode="&#x429;" horiz-adv-x="2004" d="M94 25q0 17 9 26.5t22 9.5l40 -1q40 -1 99 -1v1188q-59 0 -99 -1l-40 -1q-13 0 -22 10t-9 27q0 16 9 25.5t22 9.5q4 0 22.5 -2.5t65.5 -5t121 -2.5h127q65 0 107 2.5t59 5t22 2.5q12 0 21.5 -9.5t9.5 -25.5t-10 -26.5t-21 -10.5q-3 0 -38 1t-83 1v-1173h342v1173 q-43 0 -68.5 -0.5t-35.5 -1t-14 -0.5q-13 0 -22 10t-9 27q0 16 9 25.5t22 9.5q5 0 22 -2.5t58.5 -5t105.5 -2.5h129q65 0 107 2.5t59 5t22 2.5q12 0 21.5 -9.5t9.5 -25.5t-10 -26.5t-21 -10.5q-3 0 -38 1t-82 1v-1173h342v1173q-34 0 -57.5 -0.5t-33 -0.5t-17 -0.5 t-11.5 -0.5q-13 0 -22 10t-9 27q0 16 9 25.5t22 9.5q5 0 22 -2.5t58.5 -5t105.5 -2.5h129q74 0 121 2.5t65.5 5t22.5 2.5q12 0 21.5 -9.5t9.5 -25.5t-10 -26.5t-21 -10.5l-40 1q-41 1 -101 1v-1173q40 0 80 1.5t66 3t32 1.5q11 0 21 -10.5t10 -26.5v-57q0 -50 5 -179t5 -131 q0 -30 -33 -30q-17 0 -26 8.5t-9 21.5q0 85 -16.5 156t-55 119.5t-94.5 48.5h-1392q-74 0 -121 -2.5t-65.5 -5t-22.5 -2.5q-12 0 -21.5 10t-9.5 25z" />
<glyph unicode="&#x42a;" horiz-adv-x="1239" d="M12 977q0 2 5.5 100t5.5 148v61q0 16 9.5 26.5t20.5 10.5q8 0 52.5 -4t62.5 -4l242 -4h155q74 0 121 2.5t65.5 5t22.5 2.5q11 0 21 -10.5t10 -24.5q0 -16 -10 -26.5t-21 -10.5l-40 1q-41 1 -101 1v-485q43 2 141 2q219 0 338 -103t119 -280q0 -176 -119.5 -280.5 t-337.5 -104.5l-336 4q-74 0 -121 -2.5t-65.5 -5t-22.5 -2.5q-13 0 -21.5 9t-8.5 26t9 27t21 10l41 -2q40 -1 99 -1v1176h-86q-109 0 -156 -66.5t-47 -195.5q0 -13 -9.5 -22t-25.5 -9t-24.5 9t-8.5 22zM633 74h108q116 0 161.5 68.5t45.5 242.5q0 172 -45.5 239.5 t-161.5 67.5h-108v-618z" />
<glyph unicode="&#x42b;" horiz-adv-x="1771" d="M94 29q0 17 9 27t22 10l40 -2q40 -1 99 -1v1188q-59 0 -99 -1l-40 -1q-13 0 -22 10t-9 27q0 15 9.5 25t21.5 10q4 0 22.5 -2.5t65.5 -5t121 -2.5h127q74 0 121 2.5t65.5 5t22.5 2.5q11 0 20.5 -10.5t9.5 -24.5q0 -16 -9.5 -26.5t-20.5 -10.5q-6 0 -21.5 0.5t-46 1 t-74.5 0.5v-485q43 2 142 2q219 0 337.5 -103t118.5 -280q0 -176 -119 -280.5t-337 -104.5l-336 4q-74 0 -121 -2.5t-65.5 -5t-22.5 -2.5q-13 0 -22 9.5t-9 25.5zM528 74h109q116 0 161.5 68.5t45.5 242.5q0 172 -45.5 239.5t-161.5 67.5h-109v-618zM1073 29q0 17 9 27 t22 10l40 -2q40 -1 99 -1v1188q-59 0 -99 -1l-40 -1q-13 0 -22 10t-9 27q0 15 9.5 25t21.5 10q4 0 22.5 -2.5t65.5 -5t121 -2.5h127q74 0 121 2.5t65.5 5t22.5 2.5q11 0 20.5 -10.5t9.5 -24.5q0 -16 -9.5 -26.5t-20.5 -10.5l-41 1q-41 1 -101 1v-1188q44 0 74.5 0.5t46 1.5 t21.5 1q11 0 20.5 -10.5t9.5 -26.5t-9 -25.5t-21 -9.5q-4 0 -22.5 2.5t-65.5 5t-121 2.5h-127q-74 0 -121 -2.5t-65.5 -5t-22.5 -2.5q-13 0 -22 9.5t-9 25.5z" />
<glyph unicode="&#x42c;" horiz-adv-x="1134" d="M94 29q0 17 9 27t22 10l40 -2q40 -1 99 -1v1188q-59 0 -99 -1l-40 -1q-13 0 -22 10t-9 27q0 15 9.5 25t21.5 10q4 0 22.5 -2.5t65.5 -5t121 -2.5h127q74 0 121 2.5t65.5 5t22.5 2.5q11 0 20.5 -10.5t9.5 -24.5q0 -16 -9.5 -26.5t-20.5 -10.5q-6 0 -21.5 0.5t-46 1 t-74.5 0.5v-485q43 2 142 2q219 0 337.5 -103t118.5 -280q0 -176 -119 -280.5t-337 -104.5l-336 4q-74 0 -121 -2.5t-65.5 -5t-22.5 -2.5q-13 0 -22 9.5t-9 25.5zM528 74h109q116 0 161.5 68.5t45.5 242.5q0 172 -45.5 239.5t-161.5 67.5h-109v-618z" />
<glyph unicode="&#x42d;" horiz-adv-x="1191" d="M76 223q0 59 30.5 92t79.5 33q44 0 73.5 -30.5t29.5 -77.5q0 -79 -78 -103q31 -40 105.5 -65t146.5 -25q125 0 199 56t111.5 190t37.5 364v21q-28 -37 -49.5 -61.5t-59.5 -49t-75 -24.5q-45 0 -113.5 29.5t-134 59.5t-103.5 30q-20 0 -34.5 -15t-21 -32.5t-15.5 -32.5 t-19 -15q-9 0 -15.5 7.5t-6.5 19.5q0 40 19.5 89t62.5 89.5t96 40.5q52 0 119 -28.5t131 -57.5t108 -29q29 0 59.5 19.5t49.5 56.5q-4 81 -10 138.5t-19 118t-35 100.5t-54 73t-80 48.5t-111 15.5q-148 0 -249 -98t-101 -248q0 -33 -31 -33t-31 33v385q0 8 1 13t9 11t23 6 q29 0 29 -32q0 -23 18 -49.5t39 -30.5q61 59 131.5 91t179.5 32q111 0 216.5 -50.5t187.5 -139t132 -219.5t50 -282q0 -203 -84 -362t-230 -245t-327 -85q-163 2 -275 76.5t-112 181.5z" />
<glyph unicode="&#x42e;" horiz-adv-x="2066" d="M94 29q0 17 9 27t22 10l40 -2q40 -1 99 -1v1188q-59 0 -99 -1l-40 -1q-13 0 -22 10t-9 27q0 15 9.5 25t21.5 10q4 0 22.5 -2.5t65.5 -5t121 -2.5h127q74 0 121 2.5t65.5 5t22.5 2.5q11 0 20.5 -10.5t9.5 -24.5q0 -16 -9.5 -26.5t-20.5 -10.5q-6 0 -21.5 0.5t-46 1 t-74.5 0.5v-528h230q10 139 62.5 256.5t134 198t188.5 125.5t225 45q124 0 235.5 -50.5t194.5 -139.5t131.5 -219t48.5 -282t-48.5 -282.5t-131.5 -219.5t-194.5 -139.5t-235.5 -50.5t-235 50t-194 138t-132.5 217t-50.5 279h-228v-586q44 0 74.5 0.5t46 1.5t21.5 1 q11 0 20.5 -10.5t9.5 -26.5t-9 -25.5t-21 -9.5q-4 0 -22.5 2.5t-65.5 5t-121 2.5h-127q-74 0 -121 -2.5t-65.5 -5t-22.5 -2.5q-13 0 -22 9.5t-9 25.5zM1049 657q0 -172 19.5 -290.5t60.5 -188.5t99 -100.5t140 -30.5q109 0 177 55t104.5 191t36.5 364t-36.5 364 t-104.5 191.5t-177 55.5q-110 0 -178 -55.5t-104.5 -191.5t-36.5 -364z" />
<glyph unicode="&#x42f;" horiz-adv-x="1288" d="M31 104q0 11 11 22t24 11q12 0 21 -11.5t9 -25.5q0 -28 18.5 -43.5t47.5 -15.5q51 0 51 80q0 20 -5 94.5t-5 138.5q0 71 23 135.5t80.5 119.5t142.5 75q-53 7 -100 26t-89 53t-67 89.5t-25 126.5q0 152 125.5 244t345.5 92q34 0 104.5 -2t110.5 -2h102q74 0 121 2.5 t65.5 5t22.5 2.5q12 0 21.5 -10t9.5 -25q0 -17 -9 -27t-22 -10l-40 1q-40 1 -99 1v-1188q59 0 99 1l40 2q13 0 22 -10t9 -27q0 -16 -9 -25.5t-22 -9.5q-4 0 -22.5 2.5t-65.5 5t-121 2.5h-127q-74 0 -121 -2.5t-65 -5t-22 -2.5q-12 0 -21.5 9.5t-9.5 25.5t10 26.5t21 10.5 l41 -2q40 -1 100 -1v566h-64q-59 0 -99.5 -12.5t-64.5 -32.5t-36.5 -57t-16.5 -75.5t-4 -97.5q0 -189 -71 -281.5t-199 -92.5q-76 0 -126 34.5t-50 89.5zM451 999q0 -154 69.5 -225.5t181.5 -71.5h60v537h-72q-119 0 -179 -56.5t-60 -183.5z" />
<glyph unicode="&#x430;" horiz-adv-x="905" d="M51 162q0 70 39 124.5t105.5 86t147.5 47.5t173 16v201q0 74 -27 105.5t-90 31.5q-41 0 -74 -13t-44 -32q24 -10 38.5 -36t14.5 -56q0 -47 -32 -79t-79 -32q-46 0 -76 32t-30 79q0 60 45.5 107t109 69.5t127.5 22.5q194 0 279.5 -92.5t85.5 -297.5v-335q0 -54 20 -54 q15 0 24.5 8t21.5 24.5t22 25.5q28 25 59 -6q11 -16 5.5 -37t-19.5 -31q-82 -64 -188 -64q-65 0 -105.5 17.5t-56 40t-29.5 61.5q-134 -123 -266 -123q-87 0 -144 50t-57 139zM299 188q0 -46 24.5 -73t55.5 -27q60 0 137 74v215q-108 0 -162.5 -48.5t-54.5 -140.5z" />
<glyph unicode="&#x431;" d="M57 494q0 205 43 367t119 241q41 43 104.5 70t129.5 38t128 16.5t115.5 13t77.5 20.5q31 16 31 45q0 7 -4 22t-4 25q0 16 11.5 25t27.5 9q19 0 31 -19.5t12 -53.5q0 -42 -4.5 -76.5t-17.5 -73t-41.5 -69t-70.5 -47.5q-43 -18 -128.5 -28.5t-159.5 -15t-146.5 -25.5 t-101.5 -60q-28 -37 -45 -122t-19 -165q49 93 145.5 149t205.5 56q116 0 215.5 -53.5t161 -154.5t61.5 -227q0 -192 -125.5 -314t-312.5 -122q-77 0 -140.5 15t-120 52.5t-95 97t-61 151.5t-22.5 213zM324 401q0 -156 15 -232.5t50.5 -106t106.5 -29.5q70 0 105.5 29 t51 106.5t15.5 232.5t-15.5 232.5t-51 107t-105.5 29.5q-71 0 -106.5 -29.5t-50.5 -106.5t-15 -233z" />
<glyph unicode="&#x432;" horiz-adv-x="1011" d="M51 29q0 17 9 27t22 10l36 -2q36 -1 95 -1v676q-59 0 -95 -1l-36 -1q-13 0 -22 9.5t-9 25.5q0 17 9 27t22 10q5 0 35 -2.5t87 -5t126 -2.5q17 0 103 2t126 2q166 0 256 -51t90 -148q0 -82 -47 -121t-127 -53q105 -14 166 -65t61 -140q0 -110 -88.5 -168.5t-253.5 -58.5 q-43 0 -146.5 3t-135.5 3q-71 0 -128.5 -2.5t-88.5 -5t-35 -2.5q-13 0 -22 9.5t-9 25.5zM459 57h80q90 0 130 41.5t40 128.5q0 75 -40.5 117.5t-121.5 42.5h-88v-330zM459 446h45q80 0 115.5 33.5t35.5 118.5q0 75 -36 109t-123 34h-37v-295z" />
<glyph unicode="&#x433;" horiz-adv-x="888" d="M51 29q0 16 10 26.5t21 10.5l36 -2q36 -1 95 -1v676q-59 0 -95 -3l-36 -3q-11 0 -21 10.5t-10 26.5t9.5 25.5t21.5 9.5l36 -1q36 -1 95 -1h461q18 0 62.5 4t51.5 4q13 0 22 -10t9 -27v-55q0 -50 4 -105t4 -57q0 -12 -8 -21.5t-24 -9.5q-14 0 -23.5 10t-9.5 21 q0 111 -35.5 147.5t-148.5 36.5h-117v-678q59 0 95 1l36 2q13 0 22 -10t9 -27q0 -16 -9 -25.5t-22 -9.5q-4 0 -20.5 2.5t-61 5t-117.5 2.5h-110q-74 0 -119 -2.5t-61.5 -5t-20.5 -2.5q-12 0 -21.5 9.5t-9.5 25.5z" />
<glyph unicode="&#x434;" horiz-adv-x="1019" d="M20 -225q0 2 3.5 75t3.5 123v64q0 17 9 27t21 10q7 0 42 -3t55 -3q101 171 112 493l6 178q-46 0 -76.5 -1t-33.5 -1q-13 0 -22 9.5t-9 25.5q0 17 9 27t22 10q5 0 22 -2.5t58.5 -5t105.5 -2.5h391q74 0 118.5 2.5t60.5 5t20 2.5q13 0 22 -10t9 -27q0 -16 -9 -25.5 t-22 -9.5l-36 1q-35 1 -95 1v-671h29q17 0 61 3t51 3q13 0 22 -10t9 -27v-55q0 -50 3 -127.5t3 -79.5q0 -12 -8.5 -21.5t-24.5 -9.5q-30 0 -30 31q0 225 -195 225h-453q-96 0 -143 -59.5t-47 -165.5q0 -12 -7.5 -21.5t-23.5 -9.5t-24.5 9.5t-8.5 21.5zM236 68h323v663h-217 l-6 -168q-11 -298 -100 -495z" />
<glyph unicode="&#x435;" horiz-adv-x="931" d="M74 401q0 105 37 190t99 137.5t137.5 80t156.5 27.5q158 0 258 -93t100 -229q0 -6 -1 -18.5t-1 -18.5h-518q-2 -23 -2 -76q0 -198 49 -282t152 -84q95 0 164.5 44.5t99.5 127.5q9 33 31 33q16 0 24 -9.5t8 -21.5q0 -19 -8 -39q-24 -57 -65 -98.5t-89 -63.5t-95 -32.5 t-95 -10.5q-87 0 -165 27.5t-140.5 80t-99.5 137.5t-37 191zM348 549h246q16 46 16 90q0 57 -26.5 94t-81.5 37q-131 0 -154 -221z" />
<glyph unicode="&#x436;" horiz-adv-x="1421" d="M20 68q0 15 10 25.5t25 10.5q14 0 23.5 -9.5t9.5 -24.5q0 -16 8.5 -26.5t22.5 -10.5q33 0 33 47q0 19 -3.5 52.5t-3.5 62.5q0 94 63.5 159t174.5 74q-38 11 -59 44.5t-27.5 75t-11 83t-17 75t-37.5 44.5q19 -19 19 -64q0 -37 -26 -61.5t-68 -24.5q-44 0 -70.5 27 t-26.5 75q0 53 36.5 86t94.5 33q52 0 84.5 -20.5t46 -53.5t20.5 -72.5t13.5 -79t18 -72.5t40.5 -53.5t76 -20.5h99v290q-32 0 -61 -1t-35 -1q-13 0 -22 9.5t-9 25.5q0 17 9 27t22 10q5 0 19 -2.5t49.5 -5t94.5 -2.5h111q59 0 95 2.5t50 5t19 2.5q13 0 22 -10t9 -27 q0 -16 -9 -25.5t-22 -9.5q-6 0 -35 1t-61 1v-290h98q47 0 76 20.5t40.5 53.5t18 72.5t13.5 79t20.5 72.5t46 53.5t84.5 20.5q58 0 94.5 -33t36.5 -86q0 -49 -26 -75.5t-70 -26.5q-42 0 -68.5 24.5t-26.5 61.5q0 45 19 64q-25 -11 -37.5 -44.5t-17 -75t-11 -83t-27.5 -75 t-59 -44.5q111 -9 174.5 -74t63.5 -159q0 -29 -3 -62.5t-3 -52.5q0 -47 33 -47q14 0 22 10.5t8 26.5q0 15 9.5 24.5t23.5 9.5q15 0 25 -10.5t10 -25.5q0 -44 -39.5 -67.5t-104.5 -23.5q-41 0 -76 12t-66 38t-48.5 74.5t-17.5 115.5q0 164 -146 164h-69v-318q39 0 65.5 1.5 t30.5 1.5q13 0 22 -10t9 -27q0 -16 -9 -25.5t-22 -9.5q-6 0 -22.5 2.5t-52.5 5t-89 2.5h-111q-53 0 -89 -2.5t-52 -5t-22 -2.5q-13 0 -22 9.5t-9 25.5q0 17 9 27t22 10q4 0 30.5 -1.5t65.5 -1.5v318h-70q-145 0 -145 -164q0 -67 -18 -115.5t-49 -74.5t-66 -38t-76 -12 q-65 0 -104.5 23.5t-39.5 67.5z" />
<glyph unicode="&#x437;" horiz-adv-x="827" d="M74 152q0 48 26.5 75t63.5 27q39 0 65.5 -25.5t26.5 -62.5q0 -28 -13.5 -51.5t-35.5 -32.5q44 -55 153 -55q177 0 177 190q0 84 -46 126t-104 42q-32 0 -60 -3t-34 -3q-13 0 -24 12t-11 27q0 17 10.5 29t24.5 12q5 0 37.5 -3t66.5 -3q43 0 75 44.5t32 116.5 q0 68 -35.5 108t-101.5 40q-86 0 -143.5 -62.5t-57.5 -158.5q0 -11 -8.5 -20t-22.5 -9t-21.5 8.5t-7.5 20.5v254q0 30 31 30q13 0 21 -11.5t8 -20.5q0 -33 20 -48q37 40 101.5 64.5t146.5 24.5q136 0 221.5 -55.5t85.5 -164.5q0 -141 -157 -192q24 -1 55 -13.5t62 -36 t52 -64.5t21 -91q0 -57 -23 -102t-60 -73t-88 -46t-103 -25.5t-109 -7.5q-148 0 -232.5 56t-84.5 133z" />
<glyph unicode="&#x438;" horiz-adv-x="1245" d="M51 29q0 16 10 26.5t21 10.5l36 -2q36 -1 95 -1v676q-59 0 -95 -1l-36 -1q-11 0 -21 10.5t-10 26.5t9.5 25.5t21.5 9.5q4 0 21 -2.5t62.5 -5t117.5 -2.5h110q56 0 101.5 5t46.5 5q13 0 21.5 -9t8.5 -26t-9 -27t-21 -10q-7 0 -30.5 1t-49.5 1v-485l323 403v82 q-28 0 -50.5 -1t-28.5 -1q-11 0 -21 10.5t-10 26.5t9.5 25.5t21.5 9.5q4 0 20 -2.5t61 -5t119 -2.5h60q58 0 98.5 1.5t56.5 3.5t27 3.5t16 1.5q13 0 22 -9.5t9 -25.5q0 -17 -9 -27t-22 -10q-6 0 -18.5 0.5t-40.5 1t-72 0.5v-676q60 0 96 1l35 2q13 0 22 -10t9 -27 q0 -16 -9 -25.5t-22 -9.5q-4 0 -19.5 2.5t-60 5t-118.5 2.5h-60q-58 0 -99 -1.5t-57 -3.5t-27.5 -3.5t-16.5 -1.5q-12 0 -21.5 9.5t-9.5 25.5t10 26.5t21 10.5q6 0 28.5 -1.5t50.5 -1.5v486l-323 -404v-82q26 0 49.5 1.5t30.5 1.5q12 0 21 -10t9 -27t-8.5 -26t-21.5 -9 q-1 0 -46.5 5t-101.5 5h-110q-56 0 -97 -1.5t-58 -3.5t-29 -3.5t-17 -1.5q-12 0 -21.5 9.5t-9.5 25.5z" />
<glyph unicode="&#x439;" horiz-adv-x="1245" d="M51 29q0 16 10 26.5t21 10.5l36 -2q36 -1 95 -1v676q-59 0 -95 -1l-36 -1q-11 0 -21 10.5t-10 26.5t9.5 25.5t21.5 9.5q4 0 21 -2.5t62.5 -5t117.5 -2.5h110q56 0 101.5 5t46.5 5q13 0 21.5 -9t8.5 -26t-9 -27t-21 -10q-7 0 -30.5 1t-49.5 1v-485l323 403v82 q-28 0 -50.5 -1t-28.5 -1q-11 0 -21 10.5t-10 26.5t9.5 25.5t21.5 9.5q4 0 20 -2.5t61 -5t119 -2.5h60q58 0 98.5 1.5t56.5 3.5t27 3.5t16 1.5q13 0 22 -9.5t9 -25.5q0 -17 -9 -27t-22 -10q-6 0 -18.5 0.5t-40.5 1t-72 0.5v-676q60 0 96 1l35 2q13 0 22 -10t9 -27 q0 -16 -9 -25.5t-22 -9.5q-4 0 -19.5 2.5t-60 5t-118.5 2.5h-60q-58 0 -99 -1.5t-57 -3.5t-27.5 -3.5t-16.5 -1.5q-12 0 -21.5 9.5t-9.5 25.5t10 26.5t21 10.5q6 0 28.5 -1.5t50.5 -1.5v486l-323 -404v-82q26 0 49.5 1.5t30.5 1.5q12 0 21 -10t9 -27t-8.5 -26t-21.5 -9 q-1 0 -46.5 5t-101.5 5h-110q-56 0 -97 -1.5t-58 -3.5t-29 -3.5t-17 -1.5q-12 0 -21.5 9.5t-9.5 25.5zM332 1151q0 52 28.5 83.5t71.5 31.5t73 -30t30 -73q0 -32 -19 -59t-47 -39q15 -19 56.5 -35t99.5 -16q57 0 97.5 16t55.5 35q-28 12 -46.5 39t-18.5 59q0 43 29.5 73 t72.5 30t71.5 -31.5t28.5 -83.5q0 -75 -77.5 -136t-212.5 -61q-136 0 -214.5 61t-78.5 136z" />
<glyph unicode="&#x43a;" horiz-adv-x="1067" d="M51 29q0 17 9 27t22 10l36 -2q36 -1 95 -1v676q-59 0 -95 -1l-36 -1q-13 0 -22 9.5t-9 25.5q0 17 9 27t22 10q4 0 20.5 -2.5t61 -5t117.5 -2.5h110q59 0 95 2.5t50 5t19 2.5q13 0 22 -10t9 -27q0 -16 -9 -25.5t-22 -9.5q-6 0 -35 1t-61 1v-280h110q47 0 75.5 20t39.5 52 t16.5 70.5t12.5 77t21 70.5t48.5 52t89.5 20q59 0 93 -29t34 -85q0 -49 -26 -78t-70 -29q-42 0 -68 24.5t-26 61.5q0 46 18 64q-28 -11 -41.5 -43.5t-17 -72.5t-9 -80t-25.5 -72.5t-58 -43.5q110 -6 169.5 -71.5t67.5 -171.5q7 -109 16 -133q10 -29 32 -29q14 0 22 10.5 t8 26.5q0 15 9.5 24.5t23.5 9.5q15 0 25 -10.5t10 -25.5q0 -44 -39.5 -67.5t-104.5 -23.5q-44 0 -76.5 9t-64.5 33t-54.5 73.5t-33.5 124.5q-14 93 -48.5 133.5t-105.5 40.5h-73v-328q39 0 65.5 1.5t30.5 1.5q13 0 22 -10t9 -27q0 -16 -9 -25.5t-22 -9.5q-6 0 -22.5 2.5 t-52.5 5t-89 2.5h-110q-73 0 -117.5 -2.5t-61 -5t-20.5 -2.5q-13 0 -22 9.5t-9 25.5z" />
<glyph unicode="&#x43b;" horiz-adv-x="1077" d="M0 131q0 53 30 86t79 33q43 0 70.5 -27.5t27.5 -70.5q0 -57 -43 -86q12 -15 37 -15q32 0 55 25t37 64t23 103t12.5 125.5t5.5 147.5l6 223q-46 0 -77 -1t-34 -1q-13 0 -21.5 9t-8.5 26t9 27t21 10q5 0 20.5 -2.5t55 -5t103.5 -2.5h389q58 0 98.5 1.5t56.5 3.5t27 3.5 t16 1.5q13 0 22 -9.5t9 -25.5q0 -17 -9 -27t-22 -10l-35 1q-36 1 -96 1v-676q60 0 96 1l35 2q13 0 22 -10t9 -27q0 -16 -9 -25.5t-22 -9.5q-4 0 -19.5 2.5t-60 5t-118.5 2.5h-60q-58 0 -99 -1.5t-57 -3.5t-27.5 -3.5t-16.5 -1.5q-12 0 -21.5 9.5t-9.5 25.5t10 26.5t21 10.5 q6 0 28.5 -1.5t50.5 -1.5v668h-206l-7 -211q-7 -229 -24 -318q-35 -183 -151 -216q-29 -9 -64 -9q-66 0 -115 42t-49 112z" />
<glyph unicode="&#x43c;" horiz-adv-x="1292" d="M51 29q0 16 10 26.5t21 10.5q2 0 33.5 -1.5t81.5 -1.5v676q-50 0 -81.5 -1t-33.5 -1q-12 0 -21.5 9.5t-9.5 25.5t10 26.5t21 10.5q6 0 19 -2.5t45.5 -5t84.5 -2.5h107q7 0 28 1t33 1q19 0 29.5 -8.5t20.5 -34.5l180 -465l190 461q12 28 20.5 36.5t22.5 8.5h150 q58 0 98.5 1.5t56.5 3.5t27 3.5t16 1.5q13 0 22 -9.5t9 -25.5q0 -17 -9 -27t-22 -10l-36 1q-35 1 -95 1v-676q60 0 95 1l36 2q13 0 22 -10t9 -27q0 -16 -9 -25.5t-22 -9.5q-4 0 -19.5 2.5t-60 5t-118.5 2.5h-60q-58 0 -99 -1.5t-57 -3.5t-27.5 -3.5t-16.5 -1.5 q-12 0 -21.5 9.5t-9.5 25.5t10 26.5t21 10.5q6 0 28.5 -1.5t50.5 -1.5v539l-243 -592q-13 -26 -43 -26q-31 0 -39 28l-238 576v-525q17 0 36 1.5t28 1.5q12 0 21 -10t9 -27t-8.5 -26t-21.5 -9q-5 0 -32 5t-64 5h-5q-52 0 -84.5 -2.5t-45.5 -5t-19 -2.5q-12 0 -21.5 9.5 t-9.5 25.5z" />
<glyph unicode="&#x43d;" horiz-adv-x="1224" d="M51 29q0 16 10 26.5t21 10.5l36 -2q36 -1 95 -1v676q-59 0 -95 -1l-36 -1q-11 0 -21 10.5t-10 26.5t9.5 25.5t21.5 9.5q4 0 21 -2.5t62.5 -5t117.5 -2.5h110q56 0 101.5 5t46.5 5q13 0 21.5 -9t8.5 -26t-9 -27t-21 -10q-7 0 -30.5 1t-49.5 1v-286h303v286q-28 0 -51 -1 t-29 -1q-11 0 -21 10.5t-10 26.5t9.5 25.5t21.5 9.5q4 0 20.5 -2.5t61.5 -5t119 -2.5h59q74 0 118.5 2.5t60.5 5t20 2.5q13 0 22 -9.5t9 -25.5q0 -17 -9 -27t-22 -10l-35 1q-36 1 -96 1v-676q60 0 96 1l35 2q13 0 22 -10t9 -27q0 -16 -9 -25.5t-22 -9.5q-4 0 -20 2.5 t-60.5 5t-118.5 2.5h-59q-74 0 -119 -2.5t-61.5 -5t-20.5 -2.5q-12 0 -21.5 9.5t-9.5 25.5t10 26.5t21 10.5q6 0 29 -1.5t51 -1.5v322h-303v-322q26 0 49.5 1.5t30.5 1.5q12 0 21 -10t9 -27t-8.5 -26t-21.5 -9q-1 0 -46.5 5t-101.5 5h-110q-56 0 -97 -1.5t-58 -3.5t-29 -3.5 t-17 -1.5q-12 0 -21.5 9.5t-9.5 25.5z" />
<glyph unicode="&#x43e;" d="M57 401q0 192 126 313.5t313 121.5t312.5 -121.5t125.5 -313.5t-125.5 -314t-312.5 -122t-313 122t-126 314zM324 401q0 -156 15 -232.5t50.5 -106t106.5 -29.5q70 0 105.5 29t51 106.5t15.5 232.5t-15.5 232.5t-51 107t-105.5 29.5q-71 0 -106.5 -29.5t-50.5 -106.5 t-15 -233z" />
<glyph unicode="&#x43f;" horiz-adv-x="1214" d="M51 29q0 16 10 26.5t21 10.5l36 -2q36 -1 95 -1v676q-59 0 -95 -1l-36 -1q-11 0 -21 10.5t-10 26.5t9.5 25.5t21.5 9.5q4 0 21 -2.5t62.5 -5t117.5 -2.5h651q74 0 118.5 2.5t60.5 5t20 2.5q13 0 21.5 -9t8.5 -26t-9 -27t-21 -10l-36 1q-36 1 -96 1v-676q60 0 96 1l36 2 q12 0 21 -10t9 -27t-8.5 -26t-21.5 -9q-4 0 -20 2.5t-60.5 5t-118.5 2.5h-60q-58 0 -99 -1.5t-57 -3.5t-27.5 -3.5t-16.5 -1.5q-12 0 -21.5 9.5t-9.5 25.5t10 26.5t21 10.5q6 0 29 -1.5t51 -1.5v668h-293v-668q26 0 49.5 1.5t30.5 1.5q12 0 21 -10t9 -27t-8.5 -26t-21.5 -9 q-1 0 -46.5 5t-101.5 5h-110q-56 0 -97 -1.5t-58 -3.5t-29 -3.5t-17 -1.5q-12 0 -21.5 9.5t-9.5 25.5z" />
<glyph unicode="&#x440;" horiz-adv-x="1083" d="M14 -483q0 17 9 27t22 10l36 -2q36 -1 95 -1v1188q-59 0 -95 -3l-36 -3q-13 0 -22 10t-9 27q0 16 9 25.5t22 9.5l36 -1q36 -1 95 -1q70 0 119.5 2t71.5 4t26 2q11 0 21 -10.5t10 -26.5v-106q24 70 96.5 119t145.5 49q152 0 248 -120.5t96 -314.5t-96.5 -315t-247.5 -121 q-73 0 -145.5 50t-96.5 120v-584q59 0 95 1l36 2q11 0 21 -10.5t10 -26.5t-9.5 -25.5t-21.5 -9.5q-4 0 -20.5 2.5t-61.5 5t-119 2.5h-110q-73 0 -117.5 -2.5t-61 -5t-20.5 -2.5q-13 0 -22 9.5t-9 25.5zM424 401q0 -166 66.5 -265t150.5 -99q65 0 83.5 75t18.5 289 t-18.5 288.5t-83.5 74.5q-84 0 -150.5 -98.5t-66.5 -264.5z" />
<glyph unicode="&#x441;" horiz-adv-x="854" d="M74 401q0 195 109 315t286 120q81 0 153.5 -26t120.5 -79t48 -121q0 -60 -34 -97.5t-83 -37.5q-47 0 -81 33.5t-34 79.5q0 40 30 74t62 36q-15 33 -52.5 52.5t-88.5 19.5q-104 0 -137 -79t-33 -290q0 -207 35.5 -285.5t136.5 -78.5q155 0 215 170q14 33 33 33 q16 0 24.5 -9.5t8.5 -21.5q0 -6 -4.5 -21.5t-4.5 -17.5q-91 -205 -297 -205q-189 0 -301 120t-112 316z" />
<glyph unicode="&#x442;" horiz-adv-x="890" d="M37 557q0 2 4 57t4 105v55q0 17 9 27t22 10q7 0 51.5 -4t62.5 -4h510q18 0 63 4t52 4q13 0 22 -10t9 -27v-55q0 -50 4 -105t4 -57q0 -12 -8.5 -21.5t-24.5 -9.5q-14 0 -23.5 10t-9.5 21q0 111 -35.5 147.5t-148.5 36.5h-35v-678q59 0 95 1l36 2q13 0 22 -10t9 -27 q0 -16 -9 -25.5t-22 -9.5q-4 0 -20 2.5t-60.5 5t-117.5 2.5h-111q-74 0 -119 -2.5t-61.5 -5t-20.5 -2.5q-12 0 -21 9.5t-9 25.5t9.5 26.5t20.5 10.5l36 -2q37 -1 96 -1v678h-35q-113 0 -149 -36.5t-36 -147.5q0 -11 -9 -21t-23 -10q-16 0 -24.5 9.5t-8.5 21.5z" />
<glyph unicode="&#x443;" horiz-adv-x="823" d="M-129 -391q0 53 28.5 85t73.5 32q40 0 72.5 -29t32.5 -76q0 -66 -53 -92q18 -12 41 -12q41 0 74.5 25.5t80.5 101.5t111 219l61 139l-321 737q-40 0 -64 -1t-28 -1q-13 0 -22 10t-9 27q0 15 9.5 25t21.5 10q5 0 18 -2.5t49.5 -5t97.5 -2.5h117q59 0 95 2.5t50 5t19 2.5 q12 0 21.5 -10t9.5 -25q0 -17 -9 -27t-22 -10q-5 0 -26 1t-58 1l186 -430l189 430q-29 0 -59.5 -1t-36.5 -1q-11 0 -21 10.5t-10 26.5q0 14 10 24.5t21 10.5q6 0 18.5 -2.5t41 -5t73.5 -2.5q43 0 71 2.5t40.5 5t17.5 2.5q11 0 20.5 -10.5t9.5 -24.5q0 -16 -9.5 -26.5 t-20.5 -10.5q-6 0 -33 1t-59 1l-394 -893q-94 -215 -169.5 -304t-170.5 -89q-82 0 -134 46t-52 110z" />
<glyph unicode="&#x444;" horiz-adv-x="1449" d="M80 399q0 195 96.5 316t243.5 121q119 0 184 -74v489q-59 0 -95 -3l-36 -3q-13 0 -22 10t-9 27q0 16 9 25.5t22 9.5l36 -1q36 -1 95 -1q70 0 119.5 2t71.5 4t26 2q11 0 21 -10.5t10 -26.5v-526q70 76 184 76q147 0 243.5 -121t96.5 -316t-96.5 -314.5t-243.5 -119.5 q-114 0 -184 76v-490q59 0 95 1l36 2q11 0 21 -10.5t10 -26.5t-9.5 -25.5t-21.5 -9.5q-4 0 -20.5 2.5t-61.5 5t-119 2.5h-110q-73 0 -117.5 -2.5t-61 -5t-20.5 -2.5q-13 0 -22 9.5t-9 25.5q0 17 9 27t22 10l36 -2q36 -1 95 -1v486q-66 -72 -184 -72q-147 0 -243.5 119.5 t-96.5 314.5zM346 401q0 -199 28 -278.5t99 -79.5q39 0 74.5 24.5t56.5 63.5v539q-21 39 -56.5 63.5t-74.5 24.5q-71 0 -99 -79t-28 -278zM852 131q21 -39 56.5 -63.5t74.5 -24.5q71 0 99 79.5t28 278.5t-28 278t-99 79q-39 0 -74.5 -24.5t-56.5 -63.5v-539z" />
<glyph unicode="&#x445;" horiz-adv-x="911" d="M-27 29q0 16 10 26.5t23 10.5q6 0 34.5 -1.5t57.5 -1.5l252 289l-241 387q-23 0 -54.5 -1t-38.5 -1q-11 0 -20.5 10.5t-9.5 26.5q0 14 9.5 24.5t20.5 10.5q5 0 20.5 -2.5t52 -5t93.5 -2.5h129q62 0 98.5 2.5t49.5 5t18 2.5q11 0 21 -10.5t10 -24.5q0 -16 -10 -26.5 t-21 -10.5q-6 0 -30.5 1t-55.5 1l131 -215l185 215q-28 0 -49 -1t-27 -1q-11 0 -21 10.5t-10 26.5q0 14 10 24.5t21 10.5q6 0 11 -1.5t11.5 -3t34 -3t72.5 -2.5q45 1 73 2.5t35 3t11.5 3t9.5 1.5q12 0 21.5 -10t9.5 -25q0 -17 -9 -27t-22 -10q-6 0 -33.5 1t-58.5 1 l-236 -272l252 -404q31 0 58.5 1.5t33.5 1.5q11 0 21 -10.5t10 -26.5t-9.5 -25.5t-21.5 -9.5q-5 0 -11 1.5t-16 3.5t-45.5 3.5t-93.5 1.5h-129q-57 0 -92.5 -1.5t-45 -3.5t-15.5 -3.5t-11 -1.5q-13 0 -21.5 9t-8.5 26t9 27t21 10q7 0 34 -1.5t50 -1.5l-143 232l-199 -232 q23 0 45 1.5t29 1.5q13 0 22 -10t9 -27q0 -16 -9 -25.5t-22 -9.5q-5 0 -9.5 1.5t-11 3t-34 3t-72.5 2.5q-45 -1 -73 -2.5t-35 -3t-11.5 -3t-9.5 -1.5q-13 0 -23 9.5t-10 25.5z" />
<glyph unicode="&#x446;" horiz-adv-x="1204" d="M51 25q0 16 9.5 26t21.5 10l36 -1q36 -1 95 -1v680q-59 0 -95 -1l-36 -1q-11 0 -21 10.5t-10 26.5t9.5 25.5t21.5 9.5q4 0 21 -2.5t62.5 -5t117.5 -2.5h110q56 0 101.5 5t46.5 5q13 0 21.5 -9t8.5 -26t-9 -27t-21 -10q-7 0 -30.5 1t-49.5 1v-671h282v671q-28 0 -50.5 -1 t-28.5 -1q-11 0 -21 10.5t-10 26.5t9.5 25.5t21.5 9.5q4 0 20 -2.5t61 -5t119 -2.5h60q58 0 98.5 1.5t56.5 3.5t27 3.5t16 1.5q13 0 22 -9.5t9 -25.5q0 -17 -9 -27t-22 -10l-36 1q-35 1 -95 1v-671h29q17 0 61.5 3t51.5 3q12 0 21 -10t9 -27v-55q0 -50 3 -127.5t3 -79.5 q0 -12 -8 -21.5t-24 -9.5t-23.5 9.5t-7.5 21.5q0 225 -195 225h-628q-56 0 -97 -1.5t-58 -3.5t-29 -3.5t-17 -1.5q-12 0 -21.5 9.5t-9.5 25.5z" />
<glyph unicode="&#x447;" horiz-adv-x="1169" d="M37 774q0 16 9.5 25.5t21.5 9.5q4 0 21 -2.5t62 -5t117 -2.5h111q56 0 101 5t46 5q13 0 22 -9.5t9 -25.5q0 -17 -9 -27t-22 -10q-7 0 -30.5 1t-49.5 1v-196q0 -84 33.5 -117t106.5 -33q11 0 20.5 0.5t20 2t16 2.5t17 4.5t15 4.5t17.5 5.5t17 5.5v321q-28 0 -51 -1t-29 -1 q-11 0 -21 10.5t-10 26.5t9.5 25.5t21.5 9.5q4 0 20 -2.5t61 -5t119 -2.5h60q58 0 98.5 1.5t56.5 3.5t27 3.5t16 1.5q13 0 22 -9.5t9 -25.5q0 -17 -9 -27t-22 -10l-35 1q-36 1 -96 1v-676q60 0 96 1l35 2q13 0 22 -10t9 -27q0 -16 -9 -25.5t-22 -9.5q-4 0 -19.5 2.5t-60 5 t-118.5 2.5h-60q-58 0 -99 -1.5t-57 -3.5t-27.5 -3.5t-16.5 -1.5q-12 0 -21.5 9.5t-9.5 25.5t10 26.5t21 10.5q6 0 29 -1.5t51 -1.5v287q-84 -24 -189 -24q-321 0 -321 217v196q-59 0 -95 -1l-36 -1q-11 0 -21 10.5t-10 26.5z" />
<glyph unicode="&#x448;" horiz-adv-x="1718" d="M51 25q0 16 9.5 26t21.5 10l36 -1q36 -1 95 -1v680q-59 0 -95 -1l-36 -1q-11 0 -21 10.5t-10 26.5t9.5 25.5t21.5 9.5q4 0 21 -2.5t62.5 -5t117.5 -2.5h110q56 0 101.5 5t46.5 5q13 0 21.5 -9t8.5 -26t-9 -27t-21 -10q-7 0 -30.5 1t-49.5 1v-671h274v671q-28 0 -51 -1 t-29 -1q-11 0 -20.5 10.5t-9.5 26.5t9 25.5t21 9.5q1 0 46 -5t102 -5h112q56 0 101.5 5t46.5 5q13 0 22 -9.5t9 -25.5q0 -17 -9 -27t-22 -10q-7 0 -30.5 1t-49.5 1v-671h274v671q-28 0 -50.5 -1t-28.5 -1q-11 0 -21 10.5t-10 26.5t9.5 25.5t21.5 9.5q4 0 20 -2.5t61 -5 t119 -2.5h60q58 0 98.5 1.5t56.5 3.5t27 3.5t16 1.5q13 0 22 -9.5t9 -25.5q0 -17 -9 -27t-22 -10l-36 1q-35 1 -95 1v-680q44 0 72 0.5t40.5 1t18.5 0.5q13 0 22 -9.5t9 -26.5q0 -16 -9 -25.5t-22 -9.5q-4 0 -19.5 2.5t-60 5t-118.5 2.5h-1155q-56 0 -97 -1.5t-58 -3.5 t-29 -3.5t-17 -1.5q-12 0 -21.5 9.5t-9.5 25.5z" />
<glyph unicode="&#x449;" horiz-adv-x="1718" d="M51 25q0 16 9.5 26t21.5 10l36 -1q36 -1 95 -1v680q-59 0 -95 -1l-36 -1q-11 0 -21 10.5t-10 26.5t9.5 25.5t21.5 9.5q4 0 21 -2.5t62.5 -5t117.5 -2.5h110q56 0 101.5 5t46.5 5q13 0 21.5 -9t8.5 -26t-9 -27t-21 -10q-7 0 -30.5 1t-49.5 1v-671h274v671q-28 0 -51 -1 t-29 -1q-11 0 -20.5 10.5t-9.5 26.5t9 25.5t21 9.5q1 0 46 -5t102 -5h112q56 0 101.5 5t46.5 5q13 0 22 -9.5t9 -25.5q0 -17 -9 -27t-22 -10q-7 0 -30.5 1t-49.5 1v-671h274v671q-28 0 -50.5 -1t-28.5 -1q-11 0 -21 10.5t-10 26.5t9.5 25.5t21.5 9.5q4 0 20 -2.5t61 -5 t119 -2.5h60q58 0 98.5 1.5t56.5 3.5t27 3.5t16 1.5q13 0 22 -9.5t9 -25.5q0 -17 -9 -27t-22 -10l-36 1q-35 1 -95 1v-671h29q17 0 61.5 3t51.5 3q12 0 21 -10t9 -27v-55q0 -50 3 -127.5t3 -79.5q0 -12 -8 -21.5t-24 -9.5t-23.5 9.5t-7.5 21.5q0 225 -195 225h-1142 q-56 0 -97 -1.5t-58 -3.5t-29 -3.5t-17 -1.5q-12 0 -21.5 9.5t-9.5 25.5z" />
<glyph unicode="&#x44a;" horiz-adv-x="1044" d="M41 553q0 2 4 57t4 105v55q0 17 9 27t22 10q7 0 52 -4t63 -4h297q57 0 97.5 1.5t56.5 3.5t27.5 3.5t16.5 1.5q13 0 22 -10t9 -27q0 -16 -9 -25.5t-22 -9.5l-36 1q-36 1 -95 1v-254h78q196 0 296.5 -54.5t100.5 -186.5q0 -131 -101.5 -187.5t-295.5 -56.5h-156 q-73 0 -143.5 -1.5t-113 -3t-46.5 -1.5q-13 0 -22 9.5t-9 25.5q0 17 9 27t22 10l36 -2q36 -1 95 -1v674h-18q-113 0 -149 -36.5t-36 -147.5q0 -11 -9 -21t-23 -10q-16 0 -24.5 9.5t-8.5 21.5zM559 57h78q83 0 116 47.5t33 139.5q0 89 -33 135.5t-116 46.5h-78v-369z" />
<glyph unicode="&#x44b;" horiz-adv-x="1519" d="M51 29q0 17 9 27t22 10l36 -2q36 -1 95 -1v676q-59 0 -95 -1l-36 -1q-13 0 -22 9.5t-9 25.5q0 17 9 27t22 10q4 0 20.5 -2.5t61 -5t117.5 -2.5h114q73 0 117.5 2.5t61 5t20.5 2.5q13 0 22 -10t9 -27q0 -16 -9 -25.5t-22 -9.5l-36 1q-36 1 -95 1v-254h78 q196 0 296.5 -54.5t100.5 -186.5q0 -131 -101.5 -187.5t-295.5 -56.5h-156q-73 0 -143.5 -1.5t-113 -3t-46.5 -1.5q-13 0 -22 9.5t-9 25.5zM463 57h78q83 0 116 47.5t33 139.5q0 89 -33 135.5t-116 46.5h-78v-369zM948 29q0 16 10 26.5t21 10.5q6 0 29 -1.5t51 -1.5v676 q-28 0 -51 -1t-29 -1q-11 0 -21 10.5t-10 26.5t9.5 25.5t21.5 9.5q4 0 20.5 -2.5t61.5 -5t119 -2.5h59q74 0 118.5 2.5t60.5 5t20 2.5q13 0 21.5 -9t8.5 -26t-9 -27t-21 -10l-36 1q-35 1 -95 1v-676q60 0 95 1l36 2q12 0 21 -10t9 -27t-8.5 -26t-21.5 -9q-4 0 -20 2.5 t-60.5 5t-118.5 2.5h-59q-74 0 -119 -2.5t-61.5 -5t-20.5 -2.5q-12 0 -21.5 9.5t-9.5 25.5z" />
<glyph unicode="&#x44c;" horiz-adv-x="948" d="M51 29q0 17 9 27t22 10l36 -2q36 -1 95 -1v676q-59 0 -95 -1l-36 -1q-13 0 -22 9.5t-9 25.5q0 17 9 27t22 10q4 0 20.5 -2.5t61 -5t117.5 -2.5h114q73 0 117.5 2.5t61 5t20.5 2.5q13 0 22 -10t9 -27q0 -16 -9 -25.5t-22 -9.5l-36 1q-36 1 -95 1v-254h78 q196 0 296.5 -54.5t100.5 -186.5q0 -131 -101.5 -187.5t-295.5 -56.5h-156q-73 0 -143.5 -1.5t-113 -3t-46.5 -1.5q-13 0 -22 9.5t-9 25.5zM463 57h78q83 0 116 47.5t33 139.5q0 89 -33 135.5t-116 46.5h-78v-369z" />
<glyph unicode="&#x44d;" horiz-adv-x="897" d="M90 141q0 48 27 75.5t63 27.5q39 0 65.5 -25.5t26.5 -62.5q0 -49 -45 -76q18 -23 58.5 -38t93.5 -15q106 0 151 86.5t45 265.5q-42 -82 -110 -82q-34 0 -71.5 22t-72.5 44t-63 22q-24 0 -41 -25.5t-29 -25.5q-24 0 -24 24q0 41 41.5 97.5t95.5 56.5q41 0 107.5 -45 t101.5 -45q42 0 65 35q-5 157 -55 232t-153 75q-83 0 -144 -57.5t-61 -149.5q0 -11 -1 -17.5t-8.5 -14t-21.5 -7.5q-13 0 -20 7.5t-8 14t-1 17.5v234q0 19 6.5 27.5t24.5 8.5q14 0 21.5 -12t7.5 -27q0 -9 6 -21.5t14 -18.5q39 37 101 62.5t139 25.5q191 0 305.5 -118.5 t114.5 -318.5q0 -208 -119.5 -321t-329.5 -113q-130 0 -216.5 51.5t-86.5 124.5z" />
<glyph unicode="&#x44e;" horiz-adv-x="1536" d="M51 29q0 16 10 26.5t21 10.5l36 -2q36 -1 95 -1v676q-59 0 -95 -1l-36 -1q-11 0 -21 10.5t-10 26.5t9.5 25.5t21.5 9.5q4 0 21 -2.5t62.5 -5t117.5 -2.5h110q56 0 101.5 5t46.5 5q13 0 21.5 -9t8.5 -26t-9 -27t-21 -10q-7 0 -30.5 1t-49.5 1v-286h145q17 171 139.5 277 t296.5 106q187 0 313 -121.5t126 -313.5t-126 -314t-313 -122q-184 0 -308 116.5t-130 303.5h-143v-322q26 0 49.5 1.5t30.5 1.5q12 0 21 -10t9 -27t-8.5 -26t-21.5 -9q-1 0 -46.5 5t-101.5 5h-110q-56 0 -97 -1.5t-58 -3.5t-29 -3.5t-17 -1.5q-12 0 -21.5 9.5t-9.5 25.5z M870 401q0 -156 15 -232.5t50.5 -106t106.5 -29.5q70 0 105.5 29t51 106.5t15.5 232.5t-15.5 232.5t-51 107t-105.5 29.5q-71 0 -106.5 -29.5t-50.5 -106.5t-15 -233z" />
<glyph unicode="&#x44f;" horiz-adv-x="1048" d="M20 68q0 15 10 25.5t25 10.5q14 0 23.5 -9.5t9.5 -24.5q0 -16 8.5 -26.5t22.5 -10.5q33 0 33 47q0 19 -3.5 46t-3.5 56q0 72 49 133t134 82q-193 26 -193 189q0 108 95 162.5t264 54.5q27 0 115.5 -2t107.5 -2q69 0 126.5 2.5t88 5t35.5 2.5q12 0 21 -10t9 -27t-8.5 -26 t-21.5 -9l-36 1q-36 1 -95 1v-676q59 0 95 1l36 2q12 0 21 -10t9 -27t-8.5 -26t-21.5 -9q-4 0 -20.5 2.5t-61 5t-117.5 2.5h-113q-55 0 -91 -2.5t-51.5 -5t-20.5 -2.5q-13 0 -22 9.5t-9 25.5q0 17 9 27t22 10q5 0 34 -1.5t62 -1.5v299h-53q-89 0 -125.5 -38t-36.5 -119 q0 -228 -209 -228q-65 0 -104.5 23.5t-39.5 67.5zM369 584q0 -162 200 -162h19v319h-31q-188 0 -188 -157z" />
<glyph unicode="&#x451;" horiz-adv-x="931" d="M74 401q0 105 37 190t99 137.5t137.5 80t156.5 27.5q158 0 258 -93t100 -229q0 -6 -1 -18.5t-1 -18.5h-518q-2 -23 -2 -76q0 -198 49 -282t152 -84q95 0 164.5 44.5t99.5 127.5q9 33 31 33q16 0 24 -9.5t8 -21.5q0 -19 -8 -39q-24 -57 -65 -98.5t-89 -63.5t-95 -32.5 t-95 -10.5q-87 0 -165 27.5t-140.5 80t-99.5 137.5t-37 191zM211 1026q0 41 30.5 71.5t71.5 30.5q43 0 73 -30t30 -72q0 -43 -30 -73.5t-73 -30.5q-41 0 -71.5 30.5t-30.5 73.5zM348 549h246q16 46 16 90q0 57 -26.5 94t-81.5 37q-131 0 -154 -221zM578 1026q0 42 30 72 t74 30q41 0 71.5 -30.5t30.5 -71.5q0 -43 -30.5 -73.5t-71.5 -30.5q-44 0 -74 30.5t-30 73.5z" />
<glyph unicode="&#x452;" horiz-adv-x="1050" d="M14 29q0 17 9 27t22 10l36 -2q36 -1 95 -1v947q-31 -1 -61.5 -2t-46.5 -1.5t-23 -0.5q-12 0 -21.5 9t-9.5 25t9.5 25.5t21.5 9.5q53 0 131 -2v178q-59 0 -95 -3l-36 -3q-13 0 -22 10t-9 27q0 16 9 25.5t22 9.5l36 -1q36 -1 95 -1q71 0 121 2t71.5 4t24.5 2q11 0 21 -10.5 t10 -26.5v-213h6q102 2 182 2q13 0 22 -9.5t9 -25.5t-9 -25t-22 -9l-62 2q-61 2 -120 2h-6v-426q28 96 113.5 174t183.5 78q65 0 113.5 -27t85.5 -86.5t56 -162.5t19 -247q0 -97 -18 -209.5t-54 -224.5t-84 -203t-115 -147.5t-140 -56.5q-93 0 -142 51t-49 127 q0 52 32.5 85.5t80.5 33.5q44 0 73 -31.5t29 -77.5q0 -78 -82 -104q20 -29 62 -29q26 0 45.5 12.5t42.5 59t37.5 128t24.5 231t10 355.5q0 224 -21 325t-80 101q-28 0 -65.5 -27t-73 -72.5t-60 -117.5t-24.5 -151v-308q31 0 52.5 1.5t27.5 1.5q11 0 21 -10.5t10 -26.5 t-9.5 -25.5t-21.5 -9.5q-6 0 -21.5 2.5t-48 5t-80.5 2.5h-110q-71 0 -116 -2.5t-62 -5t-21 -2.5q-13 0 -22 9.5t-9 25.5z" />
<glyph unicode="&#x453;" horiz-adv-x="888" d="M51 29q0 16 10 26.5t21 10.5l36 -2q36 -1 95 -1v676q-59 0 -95 -3l-36 -3q-11 0 -21 10.5t-10 26.5t9.5 25.5t21.5 9.5l36 -1q36 -1 95 -1h461q18 0 62.5 4t51.5 4q13 0 22 -10t9 -27v-55q0 -50 4 -105t4 -57q0 -12 -8 -21.5t-24 -9.5q-14 0 -23.5 10t-9.5 21 q0 111 -35.5 147.5t-148.5 36.5h-117v-678q59 0 95 1l36 2q13 0 22 -10t9 -27q0 -16 -9 -25.5t-22 -9.5q-4 0 -20.5 2.5t-61 5t-117.5 2.5h-110q-74 0 -119 -2.5t-61.5 -5t-20.5 -2.5q-12 0 -21.5 9.5t-9.5 25.5zM287.5 933.5q-18.5 20.5 1.5 39.5q86 71 147.5 142.5t93 118 t43.5 56.5q28 25 66 21.5t61 -31.5t18.5 -64.5t-32.5 -60.5q-12 -10 -63 -33.5t-131.5 -72t-165.5 -119.5q-20 -17 -38.5 3.5z" />
<glyph unicode="&#x454;" horiz-adv-x="854" d="M74 401q0 197 114.5 316t311.5 119q141 0 224 -56.5t83 -128.5q0 -51 -27 -74.5t-65 -23.5q-37 0 -62.5 25.5t-25.5 60.5q0 23 12 44t29 30q-16 22 -53 39.5t-85 17.5q-113 0 -151.5 -72.5t-38.5 -277.5q42 82 111 82q41 0 107 -44t99 -44q18 0 30 13t20.5 25.5 t19.5 12.5q25 0 25 -25q0 -40 -42 -96.5t-96 -56.5q-41 0 -107 45t-101 45q-43 0 -66 -35q1 -166 50.5 -235.5t144.5 -69.5q82 0 141.5 41t81.5 98q14 33 33 33q16 0 24 -9.5t8 -21.5q0 -19 -22 -59q-94 -154 -301 -154q-200 0 -313 119t-113 317z" />
<glyph unicode="&#x455;" horiz-adv-x="794" d="M47 195q0 55 30.5 81.5t72.5 26.5q40 0 68 -28t28 -68q0 -31 -17 -55t-45 -35q61 -80 215 -80q78 0 125 35.5t47 97.5q0 88 -184 137l-86 25q-215 60 -215 254q0 66 29 116.5t76.5 79t102 42.5t112.5 14q73 0 139.5 -21.5t111.5 -65.5t45 -102q0 -48 -30 -77t-68 -29 t-66 27t-28 65q0 27 14.5 50.5t38.5 35.5q-45 49 -151 49q-78 0 -119 -31t-41 -88q0 -44 35.5 -73.5t111.5 -49.5l101 -28q125 -32 182 -96.5t57 -172.5q0 -120 -99 -194t-247 -74q-145 0 -245.5 70.5t-100.5 161.5z" />
<glyph unicode="&#x456;" horiz-adv-x="636" d="M51 29q0 16 10 26.5t21 10.5l36 -2q36 -1 95 -1v676q-59 0 -95 -3l-36 -3q-11 0 -21 10.5t-10 26.5t9.5 25.5t21.5 9.5l36 -1q36 -1 95 -1q76 0 125.5 2t69 4t22.5 2q13 0 22 -10t9 -27v-711q59 0 95 1l36 2q13 0 22 -10t9 -27q0 -16 -9 -25.5t-22 -9.5q-4 0 -20.5 2.5 t-61 5t-117.5 2.5h-110q-74 0 -119 -2.5t-61.5 -5t-20.5 -2.5q-12 0 -21.5 9.5t-9.5 25.5zM199 1137q0 59 40 100t97 41q58 0 99.5 -41t41.5 -100q0 -57 -41.5 -99.5t-99.5 -42.5q-57 0 -97 42.5t-40 99.5z" />
<glyph unicode="&#x457;" horiz-adv-x="636" d="M51 29q0 16 10 26.5t21 10.5l36 -2q36 -1 95 -1v676q-59 0 -95 -3l-36 -3q-11 0 -21 10.5t-10 26.5t9.5 25.5t21.5 9.5l36 -1q36 -1 95 -1q76 0 125.5 2t69 4t22.5 2q13 0 22 -10t9 -27v-711q59 0 95 1l36 2q13 0 22 -10t9 -27q0 -16 -9 -25.5t-22 -9.5q-4 0 -20.5 2.5 t-61 5t-117.5 2.5h-110q-74 0 -119 -2.5t-61.5 -5t-20.5 -2.5q-12 0 -21.5 9.5t-9.5 25.5zM59 1100q0 42 27.5 72t69.5 30q41 0 68.5 -30t27.5 -72q0 -43 -27.5 -74t-68.5 -31q-42 0 -69.5 30.5t-27.5 74.5zM383 1100q0 42 28 72t70 30q41 0 69 -30t28 -72q0 -43 -28 -74 t-69 -31q-42 0 -70 31t-28 74z" />
<glyph unicode="&#x458;" horiz-adv-x="598" d="M-137 -350q0 52 30.5 85.5t77.5 33.5q44 0 75.5 -32.5t31.5 -76.5q0 -34 -22 -63t-60 -41q29 -29 76 -29q125 0 125 176v1036q-59 0 -95 -3l-36 -3q-13 0 -22 10t-9 27q0 16 9 25.5t22 9.5l36 -1q36 -1 95 -1q69 0 118.5 2t72 4t26.5 2q11 0 20.5 -10.5t9.5 -26.5v-862 q0 -217 -89.5 -328.5t-252.5 -111.5q-109 0 -174 57t-65 121zM180 1137q0 59 40.5 100t98.5 41q57 0 99.5 -41.5t42.5 -99.5q0 -57 -42.5 -99.5t-99.5 -42.5q-58 0 -98.5 42t-40.5 100z" />
<glyph unicode="&#x459;" horiz-adv-x="1329" d="M-2 131q0 53 29.5 86t78.5 33q43 0 71 -27.5t28 -70.5q0 -57 -43 -86q12 -15 37 -15q32 0 55 25t37 64t23 103t12.5 125.5t5.5 147.5l6 223q-46 0 -77 -1t-34 -1q-13 0 -21.5 9t-8.5 26t9 27t21 10q5 0 21 -2.5t56 -5t104 -2.5h368q74 0 118.5 2.5t60.5 5t20 2.5 q13 0 22 -9.5t9 -25.5q0 -17 -9 -27t-22 -10l-35 1q-36 1 -96 1v-250h78q196 0 296.5 -54.5t100.5 -186.5q0 -131 -101.5 -187.5t-295.5 -56.5h-156q-78 0 -131.5 -1.5t-72.5 -3.5t-31 -3.5t-17 -1.5q-13 0 -22 9.5t-9 25.5q0 17 9 27t22 10q5 0 26 -1.5t54 -1.5v668h-186 l-7 -211q-7 -229 -24 -318q-35 -183 -151 -216q-29 -9 -64 -9q-66 0 -115 42t-49 112zM844 61h78q83 0 116 47.5t33 139.5q0 89 -33 135.5t-116 46.5h-78v-369z" />
<glyph unicode="&#x45a;" horiz-adv-x="1497" d="M51 29q0 16 10 26.5t21 10.5l36 -2q36 -1 95 -1v676q-59 0 -95 -1l-36 -1q-11 0 -21 10.5t-10 26.5t9.5 25.5t21.5 9.5q4 0 21 -2.5t62.5 -5t117.5 -2.5h110q56 0 101.5 5t46.5 5q13 0 21.5 -9t8.5 -26t-9 -27t-21 -10q-7 0 -30.5 1t-49.5 1v-264h303v264q-28 0 -51 -1 t-29 -1q-11 0 -21 10.5t-10 26.5t9.5 25.5t21.5 9.5q4 0 20.5 -2.5t61.5 -5t119 -2.5h59q73 0 117.5 2.5t61 5t20.5 2.5q13 0 22 -10t9 -27q0 -16 -9 -25.5t-22 -9.5l-36 1q-36 1 -95 1v-272h78q96 0 166.5 -11.5t123.5 -37.5t80 -71t27 -109q0 -124 -101.5 -179t-295.5 -55 h-166h-39q-74 0 -119 -2.5t-61.5 -5t-20.5 -2.5q-12 0 -21.5 9.5t-9.5 25.5t10 26.5t21 10.5q6 0 29 -1.5t51 -1.5v345h-303v-345q26 0 49.5 1.5t30.5 1.5q12 0 21 -10t9 -27t-8.5 -26t-21.5 -9q-1 0 -46.5 5t-101.5 5h-110q-56 0 -97 -1.5t-58 -3.5t-29 -3.5t-17 -1.5 q-12 0 -21.5 9.5t-9.5 25.5zM1012 61h78q82 0 115.5 46.5t33.5 130.5q0 81 -33.5 125.5t-115.5 44.5h-78v-347z" />
<glyph unicode="&#x45b;" horiz-adv-x="1132" d="M14 29q0 17 9 27t22 10l36 -2q36 -1 95 -1v947q-31 -1 -61.5 -2t-46.5 -1.5t-23 -0.5q-12 0 -21.5 9t-9.5 25t9.5 25.5t21.5 9.5q53 0 131 -2v178q-59 0 -95 -3l-36 -3q-13 0 -22 10t-9 27q0 16 9 25.5t22 9.5l36 -1q36 -1 95 -1q71 0 121 2t71.5 4t24.5 2q11 0 21 -10.5 t10 -26.5v-213h6q102 2 182 2q13 0 22 -9.5t9 -25.5t-9 -25t-22 -9l-62 2q-61 2 -120 2h-6v-426q28 96 113.5 174t183.5 78q130 0 192 -82.5t62 -221.5v-469q59 0 95 1l36 2q13 0 22 -10t9 -27q0 -16 -9 -25.5t-22 -9.5q-4 0 -20.5 2.5t-61 5t-117.5 2.5h-61 q-73 0 -117.5 -2.5t-61 -5t-20.5 -2.5q-13 0 -22 9.5t-9 25.5q0 17 9 27t22 10q6 0 27.5 -1.5t52.5 -1.5v539q0 80 -16.5 108.5t-63.5 28.5q-27 0 -64 -27t-73 -72.5t-61 -117.5t-25 -151v-308q31 0 52.5 1.5t27.5 1.5q11 0 21 -10.5t10 -26.5t-9.5 -25.5t-21.5 -9.5 q-6 0 -21.5 2.5t-48 5t-80.5 2.5h-110q-71 0 -116 -2.5t-62 -5t-21 -2.5q-13 0 -22 9.5t-9 25.5z" />
<glyph unicode="&#x45c;" horiz-adv-x="1067" d="M51 29q0 17 9 27t22 10l36 -2q36 -1 95 -1v676q-59 0 -95 -1l-36 -1q-13 0 -22 9.5t-9 25.5q0 17 9 27t22 10q4 0 20.5 -2.5t61 -5t117.5 -2.5h110q59 0 95 2.5t50 5t19 2.5q13 0 22 -10t9 -27q0 -16 -9 -25.5t-22 -9.5q-6 0 -35 1t-61 1v-280h110q47 0 75.5 20t39.5 52 t16.5 70.5t12.5 77t21 70.5t48.5 52t89.5 20q59 0 93 -29t34 -85q0 -49 -26 -78t-70 -29q-42 0 -68 24.5t-26 61.5q0 46 18 64q-28 -11 -41.5 -43.5t-17 -72.5t-9 -80t-25.5 -72.5t-58 -43.5q110 -6 169.5 -71.5t67.5 -171.5q7 -109 16 -133q10 -29 32 -29q14 0 22 10.5 t8 26.5q0 15 9.5 24.5t23.5 9.5q15 0 25 -10.5t10 -25.5q0 -44 -39.5 -67.5t-104.5 -23.5q-44 0 -76.5 9t-64.5 33t-54.5 73.5t-33.5 124.5q-14 93 -48.5 133.5t-105.5 40.5h-73v-328q39 0 65.5 1.5t30.5 1.5q13 0 22 -10t9 -27q0 -16 -9 -25.5t-22 -9.5q-6 0 -22.5 2.5 t-52.5 5t-89 2.5h-110q-73 0 -117.5 -2.5t-61 -5t-20.5 -2.5q-13 0 -22 9.5t-9 25.5zM457.5 933.5q-18.5 20.5 1.5 39.5q86 71 147.5 142.5t93 118t43.5 56.5q28 25 66 21.5t61 -31.5t18.5 -64.5t-32.5 -60.5q-12 -10 -63 -33.5t-131.5 -72t-165.5 -119.5q-20 -17 -38.5 3.5 z" />
<glyph unicode="&#x45e;" horiz-adv-x="823" d="M-129 -391q0 53 28.5 85t73.5 32q40 0 72.5 -29t32.5 -76q0 -66 -53 -92q18 -12 41 -12q41 0 74.5 25.5t80.5 101.5t111 219l61 139l-321 737q-40 0 -64 -1t-28 -1q-13 0 -22 10t-9 27q0 15 9.5 25t21.5 10q5 0 18 -2.5t49.5 -5t97.5 -2.5h117q59 0 95 2.5t50 5t19 2.5 q12 0 21.5 -10t9.5 -25q0 -17 -9 -27t-22 -10q-5 0 -26 1t-58 1l186 -430l189 430q-29 0 -59.5 -1t-36.5 -1q-11 0 -21 10.5t-10 26.5q0 14 10 24.5t21 10.5q6 0 18.5 -2.5t41 -5t73.5 -2.5q43 0 71 2.5t40.5 5t17.5 2.5q11 0 20.5 -10.5t9.5 -24.5q0 -16 -9.5 -26.5 t-20.5 -10.5q-6 0 -33 1t-59 1l-394 -893q-94 -215 -169.5 -304t-170.5 -89q-82 0 -134 46t-52 110zM170 1151q0 52 28.5 83.5t71.5 31.5t73 -30t30 -73q0 -31 -19.5 -58.5t-48.5 -39.5q14 -17 56.5 -32.5t101.5 -16.5q58 1 99.5 16.5t55.5 32.5q-29 12 -48 39.5t-19 58.5 q0 43 29.5 73t72.5 30q44 0 72.5 -31.5t28.5 -83.5q0 -75 -78 -136t-213 -61q-136 0 -214.5 61t-78.5 136z" />
<glyph unicode="&#x45f;" horiz-adv-x="1204" d="M51 25q0 16 9.5 26t21.5 10l36 -1q36 -1 95 -1v676q-59 0 -95 -1l-36 -1q-11 0 -21 10.5t-10 26.5t9.5 25.5t21.5 9.5q4 0 21 -2.5t62.5 -5t117.5 -2.5h110q56 0 101.5 5t46.5 5q13 0 21.5 -9t8.5 -26t-9 -27t-21 -10q-7 0 -30.5 1t-49.5 1v-667h282v667q-28 0 -50.5 -1 t-28.5 -1q-11 0 -21 10.5t-10 26.5t9.5 25.5t21.5 9.5q4 0 20 -2.5t61 -5t119 -2.5h60q58 0 98.5 1.5t56.5 3.5t27 3.5t16 1.5q13 0 22 -9.5t9 -25.5q0 -17 -9 -27t-22 -10l-36 1q-35 1 -95 1v-676q44 0 72 0.5t40.5 1t18.5 0.5q13 0 22 -9.5t9 -26.5q0 -16 -9 -25.5 t-22 -9.5q-4 0 -19.5 2.5t-60 5t-118.5 2.5h-297q0 -56 19.5 -108.5t39 -91.5t19.5 -62q0 -50 -30 -78.5t-75 -28.5t-75.5 28.5t-30.5 78.5q0 23 20 62t40.5 91.5t20.5 108.5h-292q-56 0 -97 -1.5t-58 -3.5t-29 -3.5t-17 -1.5q-12 0 -21.5 9.5t-9.5 25.5z" />
<glyph unicode="&#x490;" horiz-adv-x="1064" d="M94 29q0 17 9 27t22 10l40 -2q40 -1 99 -1v1188q-59 0 -99 -1l-40 -1q-13 0 -22 10t-9 27q0 15 9.5 25t21.5 10q4 0 22.5 -2.5t65.5 -5t121 -2.5h477q178 0 178 262q0 13 8.5 22t24.5 9t24.5 -9t8.5 -22q0 -2 -5.5 -100t-5.5 -148v-61q0 -17 -9 -27t-21 -10q-7 0 -30 1 t-59 2.5t-67 2.5l-330 6v-1176q44 0 74.5 0.5t46 1.5t21.5 1q11 0 20.5 -10.5t9.5 -26.5t-9 -25.5t-21 -9.5q-4 0 -22.5 2.5t-65.5 5t-121 2.5h-127q-74 0 -121 -2.5t-65.5 -5t-22.5 -2.5q-13 0 -22 9.5t-9 25.5z" />
<glyph unicode="&#x491;" horiz-adv-x="886" d="M51 29q0 16 10 26.5t21 10.5l36 -2q36 -1 95 -1v676q-59 0 -95 -3l-36 -3q-11 0 -21 10.5t-10 26.5t9.5 25.5t21.5 9.5l36 -1q36 -1 95 -1h362q113 0 149 36.5t36 147.5q0 11 9.5 21t23.5 10q16 0 24 -9.5t8 -21.5q0 -2 -4 -57t-4 -105v-55q0 -17 -9 -27t-22 -10 q-7 0 -51.5 4t-62.5 4h-211v-678q59 0 95 1l36 2q13 0 22 -10t9 -27q0 -16 -9 -25.5t-22 -9.5q-4 0 -20.5 2.5t-61 5t-117.5 2.5h-110q-74 0 -119 -2.5t-61.5 -5t-20.5 -2.5q-12 0 -21.5 9.5t-9.5 25.5z" />
<glyph unicode="&#x2000;" horiz-adv-x="935" />
<glyph unicode="&#x2001;" horiz-adv-x="1870" />
<glyph unicode="&#x2002;" horiz-adv-x="935" />
<glyph unicode="&#x2003;" horiz-adv-x="1870" />
<glyph unicode="&#x2004;" horiz-adv-x="623" />
<glyph unicode="&#x2005;" horiz-adv-x="467" />
<glyph unicode="&#x2006;" horiz-adv-x="311" />
<glyph unicode="&#x2007;" horiz-adv-x="311" />
<glyph unicode="&#x2008;" horiz-adv-x="233" />
<glyph unicode="&#x2009;" horiz-adv-x="374" />
<glyph unicode="&#x200a;" horiz-adv-x="103" />
<glyph unicode="&#x2010;" horiz-adv-x="960" d="M170 510q0 21 12.5 34t28.5 13q7 0 25.5 -2t67 -4t126.5 -2h100q78 0 126.5 2t68 4t27.5 2q16 0 27.5 -13t11.5 -34t-11.5 -33t-27.5 -12q-8 0 -26.5 2t-67 4t-128.5 2h-100q-78 0 -126.5 -2t-67 -4t-25.5 -2q-16 0 -28.5 12t-12.5 33z" />
<glyph unicode="&#x2011;" horiz-adv-x="960" d="M170 510q0 21 12.5 34t28.5 13q7 0 25.5 -2t67 -4t126.5 -2h100q78 0 126.5 2t68 4t27.5 2q16 0 27.5 -13t11.5 -34t-11.5 -33t-27.5 -12q-8 0 -26.5 2t-67 4t-128.5 2h-100q-78 0 -126.5 -2t-67 -4t-25.5 -2q-16 0 -28.5 12t-12.5 33z" />
<glyph unicode="&#x2012;" horiz-adv-x="960" d="M170 510q0 21 12.5 34t28.5 13q7 0 25.5 -2t67 -4t126.5 -2h100q78 0 126.5 2t68 4t27.5 2q16 0 27.5 -13t11.5 -34t-11.5 -33t-27.5 -12q-8 0 -26.5 2t-67 4t-128.5 2h-100q-78 0 -126.5 -2t-67 -4t-25.5 -2q-16 0 -28.5 12t-12.5 33z" />
<glyph unicode="&#x2013;" horiz-adv-x="1075" d="M-2 473v76h1077v-76h-1077z" />
<glyph unicode="&#x2014;" horiz-adv-x="1366" d="M-2 473v76h1368v-76h-1368z" />
<glyph unicode="&#x2018;" horiz-adv-x="548" d="M137 1081q13 72 55.5 139.5t135.5 151.5q19 17 38 3q21 -15 -2 -44l-8 -8q-76 -71 -111 -148t-28 -128q6 32 31.5 52.5t58.5 20.5q44 0 77.5 -33t33.5 -77q0 -51 -37 -87t-92 -36q-77 0 -121 60t-31 134z" />
<glyph unicode="&#x2019;" horiz-adv-x="548" d="M131 1225q0 51 37 87t92 36q77 0 121 -60.5t31 -134.5q-13 -72 -55.5 -139.5t-135.5 -151.5q-19 -17 -38 -3q-21 15 2 44l8 8q76 71 111 148t28 129q-6 -32 -32 -53t-58 -21q-44 0 -77.5 33.5t-33.5 77.5z" />
<glyph unicode="&#x201a;" horiz-adv-x="548" d="M131 106q0 51 37 87t92 36q77 0 121 -60t31 -134q-13 -72 -55.5 -139.5t-135.5 -151.5q-19 -17 -38 -3q-21 15 2 44l8 8q76 71 111 148t28 129q-6 -32 -32 -53t-58 -21q-44 0 -77.5 33t-33.5 77z" />
<glyph unicode="&#x201c;" horiz-adv-x="921" d="M137 1081q13 72 55.5 139.5t135.5 151.5q19 17 38 3q21 -15 -2 -44l-8 -8q-76 -71 -111 -148t-28 -128q6 32 31.5 52.5t58.5 20.5q44 0 77.5 -33t33.5 -77q0 -51 -37 -87t-92 -36q-77 0 -121 60t-31 134zM526 1081q13 72 55.5 139.5t135.5 151.5q19 17 38 3 q21 -15 -2 -44l-8 -8q-76 -71 -111 -148t-28 -128q6 32 31.5 52.5t58.5 20.5q44 0 77.5 -33t33.5 -77q0 -51 -37 -87t-92 -36q-77 0 -121 60t-31 134z" />
<glyph unicode="&#x201d;" horiz-adv-x="921" d="M115 1225q0 51 37 87t92 36q77 0 120.5 -60.5t30.5 -134.5q-13 -73 -55 -140t-135 -151q-19 -17 -38 -3q-21 15 0 43l9 9q76 71 111 148t28 129q-6 -32 -32 -53t-58 -21q-44 0 -77 33.5t-33 77.5zM504 1225q0 51 37 87t92 36q77 0 120.5 -60.5t30.5 -134.5 q-13 -73 -55 -140t-135 -151q-19 -17 -38 -3q-21 15 0 43l9 9q76 71 111.5 148.5t28.5 128.5q-6 -32 -32 -53t-59 -21q-44 0 -77 33.5t-33 77.5z" />
<glyph unicode="&#x201e;" horiz-adv-x="921" d="M115 106q0 51 37 87t92 36q77 0 120.5 -60t30.5 -134q-13 -73 -55 -140t-135 -151q-19 -17 -38 -3q-21 15 0 43l9 9q76 71 111 148t28 129q-6 -32 -32 -53t-58 -21q-44 0 -77 33t-33 77zM504 106q0 51 37 87t92 36q77 0 120.5 -60t30.5 -134q-13 -73 -55 -140t-135 -151 q-19 -17 -38 -3q-21 15 0 43l9 9q76 71 111.5 148.5t28.5 128.5q-6 -32 -32 -53t-59 -21q-44 0 -77 33t-33 77z" />
<glyph unicode="&#x2020;" horiz-adv-x="958" d="M27 848q0 47 36 82t84 35q20 0 47 -13t53.5 -29.5t81 -30.5t122.5 -15v14q0 75 -13.5 134t-29.5 88t-29.5 57.5t-13.5 48.5q0 47 34.5 82.5t81.5 35.5t82 -35.5t35 -82.5q0 -20 -14 -48.5t-31 -57.5t-31 -88t-14 -134v-14q68 1 123 15t82 30.5t53.5 29.5t46.5 13 q47 0 83 -35t36 -82t-35.5 -81t-83.5 -34q-20 0 -46.5 12.5t-53.5 28t-82 29t-123 14.5v-84q0 -74 11 -134t25 -91t25 -62t11 -53q0 -27 -26 -144.5t-26 -197.5l-20 -547q0 -23 -14 -32.5t-28.5 0t-14.5 32.5l-21 547q0 80 -22.5 197.5t-22.5 144.5q0 26 16.5 67t33 110 t16.5 163v84q-68 -1 -122.5 -14.5t-81 -29t-53.5 -28t-47 -12.5q-48 0 -84 34t-36 81z" />
<glyph unicode="&#x2021;" horiz-adv-x="958" d="M31 -63q0 47 36.5 81.5t82.5 34.5q20 0 46.5 -12.5t52.5 -28t80 -29.5t122 -16v84q0 95 -16.5 164.5t-33 110.5t-16.5 67t16.5 67t33 110t16.5 163v84q-68 -1 -122 -14.5t-80 -29t-52.5 -28t-46.5 -12.5q-46 0 -82.5 34t-36.5 81t36.5 82t82.5 35q20 0 46.5 -13 t52.5 -29.5t80 -30.5t122 -15v14q0 75 -13.5 133.5t-29.5 87t-29.5 56t-13.5 46.5q0 48 34.5 84.5t81.5 36.5t82 -36.5t35 -84.5q0 -19 -14 -46.5t-31 -56t-31 -87t-14 -133.5v-14q68 1 122.5 15t80.5 30.5t52 29.5t46 13q47 0 83 -35t36 -82t-35.5 -81t-83.5 -34 q-20 0 -46 12.5t-52 28t-80.5 29t-122.5 14.5v-84q0 -74 11 -134t25 -91t25 -62t11 -53t-11 -53.5t-25 -62t-25 -91t-11 -135.5v-84q68 2 122.5 16t80.5 29.5t52 28t46 12.5q48 0 83.5 -34.5t35.5 -81.5t-36 -82t-83 -35q-20 0 -46 13.5t-52 29.5t-80.5 30.5t-122.5 16.5 v-16q0 -74 14 -132.5t31 -86.5t31 -56.5t14 -48.5q0 -47 -35 -83t-82 -36t-81.5 35.5t-34.5 83.5q0 20 13.5 48.5t29.5 56.5t29.5 86.5t13.5 132.5v16q-68 -2 -122 -16.5t-80 -30.5t-52.5 -29.5t-46.5 -13.5q-46 0 -82.5 35t-36.5 82z" />
<glyph unicode="&#x2022;" horiz-adv-x="745" d="M184 600q0 78 55.5 133t133.5 55t133 -55t55 -133t-55 -133t-133 -55t-133.5 55t-55.5 133z" />
<glyph unicode="&#x2026;" horiz-adv-x="2304" d="M246 109q0 54 37.5 91.5t91.5 37.5t91.5 -37.5t37.5 -91.5t-37.5 -91.5t-91.5 -37.5t-91.5 37.5t-37.5 91.5zM1014 109q0 54 37.5 91.5t91.5 37.5t91.5 -37.5t37.5 -91.5t-37.5 -91.5t-91.5 -37.5t-91.5 37.5t-37.5 91.5zM1782 109q0 54 37.5 91.5t91.5 37.5t91.5 -37.5 t37.5 -91.5t-37.5 -91.5t-91.5 -37.5t-91.5 37.5t-37.5 91.5z" />
<glyph unicode="&#x202f;" horiz-adv-x="374" />
<glyph unicode="&#x2030;" horiz-adv-x="2557" d="M111 952q0 172 97 283t238 111q139 0 236.5 -111t97.5 -283q0 -171 -97 -281t-237 -110q-141 0 -238 109.5t-97 281.5zM342 952q0 -182 25 -256.5t79 -74.5q52 0 77.5 75t25.5 256q0 182 -25.5 258t-77.5 76q-54 0 -79 -75t-25 -259zM569 31q1 4 34.5 68.5t60.5 129.5 l348 822q30 70 54 131t36.5 96t15.5 41q6 15 21.5 20.5t36.5 -2.5q19 -7 26 -22.5t2 -30.5q-3 -6 -20.5 -40.5t-45 -92.5t-57.5 -129l-348 -821q-20 -49 -37 -94.5t-27.5 -75t-13.5 -37.5q-7 -15 -21.5 -21t-35.5 2q-20 7 -27 24t-2 32zM995 360q0 172 97.5 283t236.5 111 t237.5 -111.5t98.5 -282.5t-98 -281t-238 -110t-237 110t-97 281zM1225 360q0 -181 25.5 -256t78.5 -75t79 75t26 256t-26 256.5t-79 75.5t-78.5 -75.5t-25.5 -256.5zM1780 360q0 172 97.5 283t238.5 111q139 0 236 -111t97 -283q0 -171 -97 -281t-236 -110 q-141 0 -238.5 109.5t-97.5 281.5zM2011 360q0 -182 25.5 -256.5t79.5 -74.5q52 0 77 75t25 256t-25 256.5t-77 75.5q-54 0 -79.5 -75t-25.5 -257z" />
<glyph unicode="&#x2039;" horiz-adv-x="860" d="M154 479q-42 29 0 60l548 415q27 20 38.5 6.5t-7.5 -40.5l-317 -410l317 -410q20 -29 8.5 -43t-39.5 6z" />
<glyph unicode="&#x203a;" horiz-adv-x="860" d="M118.5 57q-11.5 14 8.5 43l317 410l-317 410q-20 26 -8.5 40t39.5 -6l549 -415q42 -31 0 -60l-549 -416q-28 -20 -39.5 -6z" />
<glyph unicode="&#x2044;" horiz-adv-x="370" d="M-131 31l35 70t59 128l348 822q29 69 53 131t36.5 96t15.5 41q19 34 59 18q18 -7 25 -22.5t2 -30.5q-2 -5 -20 -40t-45 -93t-56 -129l-348 -821q-21 -49 -38.5 -94t-28.5 -76t-13 -37q-7 -15 -21.5 -21t-35.5 2q-19 7 -26 24t-1 32z" />
<glyph unicode="&#x205f;" horiz-adv-x="467" />
<glyph unicode="&#x20ac;" horiz-adv-x="1177" d="M66 532q0 21 12 34.5t26 13.5q5 0 33 -3t66 -4q-2 27 -2 84q0 33 4 91q-41 -1 -68.5 -4t-32.5 -3q-15 0 -26.5 12.5t-11.5 32.5q0 21 12 34.5t26 13.5q6 0 35.5 -3t73.5 -4q21 127 72.5 228.5t121.5 164t150 95.5t162 33q90 0 159 -37.5t107 -85.5q25 45 25 80 q0 34 28 34q15 0 23 -6.5t9 -12t1 -13.5v-426q0 -33 -31 -33q-30 0 -30 33q0 178 -66 282.5t-207 104.5q-125 0 -188 -106t-78 -337h84q78 0 126.5 2.5t67.5 4.5t27 2q16 0 27.5 -13.5t11.5 -34.5t-11.5 -33t-27.5 -12q-8 0 -26.5 2.5t-67 4.5t-127.5 2h-86q-2 -29 -2 -93 q0 -59 2 -86h86q78 0 126.5 2.5t67.5 4.5t27 2q16 0 27.5 -13.5t11.5 -34.5t-11.5 -33t-27.5 -12q-8 0 -26.5 2.5t-67 4.5t-127.5 2h-84q14 -237 76.5 -343t189.5 -106q71 0 124.5 28.5t85.5 81.5t47.5 122t15.5 155q0 33 30 33q31 0 31 -33v-426q0 -35 -33 -35 q-28 0 -28 37q0 46 -27 78q-40 -49 -112 -86t-152 -37q-83 0 -163 33.5t-150 97t-121.5 166.5t-71.5 232q-44 -1 -74.5 -4t-34.5 -3q-15 0 -26.5 12.5t-11.5 32.5z" />
<glyph unicode="&#x2122;" horiz-adv-x="1953" d="M47 1087q0 1 3 50t3 96v49q0 14 9 23.5t20 9.5q6 0 46 -4t56 -4h432q16 0 56.5 4t46.5 4q11 0 18.5 -9t7.5 -24v-49q0 -47 4.5 -96t4.5 -50q0 -26 -29 -26q-14 0 -22.5 7.5t-8.5 18.5q0 98 -28 132t-107 34h-59v-612q40 0 65 0.5t36 1t17 0.5q10 0 18.5 -9.5t8.5 -23.5 t-8.5 -22t-18.5 -8q-4 0 -18 2.5t-54.5 5t-107.5 2.5h-76q-67 0 -107.5 -2.5t-54.5 -5t-18 -2.5q-10 0 -18 8t-8 22t8 23.5t18 9.5l32 -1q33 -1 87 -1v612h-59q-79 0 -107.5 -34.5t-28.5 -131.5q0 -26 -30 -26q-29 0 -29 26zM831 614q0 14 8.5 23.5t18.5 9.5q2 0 30.5 -1 t72.5 -1v608q-44 0 -72.5 -1t-30.5 -1q-10 0 -18.5 9.5t-8.5 23.5t8.5 23.5t18.5 9.5q5 0 17 -2.5t40.5 -5t75.5 -2.5h39q6 0 25 1t28 1q17 0 24 -7t21 -32l224 -463l194 459q11 26 19 33.5t20 7.5h105q67 0 108 2.5t55.5 5t18.5 2.5q11 0 20 -9.5t9 -23.5t-9 -23.5 t-20 -9.5l-33 1q-33 1 -86 1v-608q53 0 86 1l33 1q11 0 20 -9.5t9 -23.5t-9 -23t-20 -9q-2 0 -23 2t-79 4t-150 2q-47 0 -75.5 -2t-40.5 -4t-17 -2q-11 0 -19 9t-8 23q0 15 8 24t19 9q6 0 26.5 -1t45.5 -1v485l-234 -548q-11 -23 -39 -23q-22 0 -35 25l-225 463v-402 q15 0 31 1t24 1q11 0 20 -9.5t9 -23.5t-9 -23t-20 -9q-4 0 -28.5 4t-57.5 4h-4q-47 0 -75.5 -2t-40.5 -4t-17 -2q-10 0 -18.5 9t-8.5 23z" />
<glyph unicode="&#x2202;" horiz-adv-x="1136" d="M117 350q0 181 105.5 282t264.5 101q77 0 142 -31.5t102 -80.5q-41 288 -162 467.5t-260 199.5q-33 5 -40 32q-7 24 14 34q12 5 28 2q125 -21 254 -109.5t226 -209t159 -265t62 -272.5q0 -123 -30 -219.5t-77 -154.5t-111.5 -95.5t-126.5 -51.5t-128 -14q-112 0 -209 52 t-155 141t-58 192zM383 352q0 -111 11 -176t46 -104t99 -39q116 0 161 83.5t45 284.5q0 104 -65 185.5t-160 81.5q-76 0 -106.5 -75t-30.5 -241z" />
<glyph unicode="&#x220f;" horiz-adv-x="1501" d="M111 29q0 16 9.5 26.5t20.5 10.5l36 -2q36 -1 95 -1v1188q-59 0 -95 -3l-36 -3q-11 0 -20.5 10.5t-9.5 26.5t9 25.5t21 9.5l36 -1q36 -1 95 -1h957q59 0 95 1l36 1q13 0 22 -9.5t9 -25.5q0 -17 -9 -27t-22 -10l-36 3q-36 3 -95 3v-1188q59 0 95 1l36 2q13 0 22 -10t9 -27 q0 -16 -9 -25.5t-22 -9.5q-4 0 -20.5 2.5t-61 5t-117.5 2.5h-110q-74 0 -119 -2.5t-61.5 -5t-20.5 -2.5q-12 0 -21.5 9.5t-9.5 25.5t10 26.5t21 10.5l36 -2q36 -1 95 -1v1176h-461v-1176q60 0 96 1l35 2q13 0 22 -10t9 -27q0 -16 -9 -25.5t-22 -9.5q-4 0 -19.5 2.5t-60 5 t-118.5 2.5h-111q-74 0 -119 -2.5t-61.5 -5t-20.5 -2.5q-12 0 -21 9.5t-9 25.5z" />
<glyph unicode="&#x2211;" horiz-adv-x="1224" d="M110.5 1296q6.5 17 39.5 17q641 4 856 4q26 0 67 4t47 4q11 0 21 -10.5t10 -26.5v-63q0 -49 5 -146.5t5 -99.5q0 -13 -8.5 -22t-24.5 -9t-25 9t-9 22q0 129 -47 195.5t-156 66.5h-660l502 -737l-327 -692h481q109 0 156 67t47 197q0 11 9 20.5t23 9.5q16 0 24.5 -9 t8.5 -21q0 -2 -5 -100t-5 -148v-64q0 -17 -9 -26.5t-22 -9.5q-6 0 -47.5 5t-67.5 5l-856 2q-53 0 -24 59l407 860l-403 594q-19 26 -12.5 43z" />
<glyph unicode="&#x221a;" horiz-adv-x="954" d="M106 549q-15 36 8 62.5t57.5 24t47.5 -33.5l168 -420l459 1229q19 52 53 49q23 -3 30 -25q3 -13 -1 -24l-543 -1456q-5 -13 -15 -12.5t-16 12.5z" />
<glyph unicode="&#x221e;" horiz-adv-x="1312" d="M68 510q0 102 68.5 171t180.5 69q69 0 160.5 -56.5t165.5 -128.5q71 71 163 128t161 57q112 0 181 -69t69 -171t-69.5 -172t-180.5 -70q-69 0 -161 57.5t-163 129.5q-73 -73 -165 -130t-161 -57q-111 0 -180 70t-69 172zM160 510q0 -65 43 -111.5t110 -46.5 q36 0 97.5 39.5t105.5 78.5l43 40q-7 6 -18.5 17t-44 38t-62 48t-64 38t-57.5 17q-68 0 -110.5 -46t-42.5 -112zM694 510q22 -18 56 -44t109.5 -70t113.5 -44q65 0 108 47t43 111q0 66 -43 112t-108 46q-38 0 -108 -39.5t-121 -78.5z" />
<glyph unicode="&#x222b;" horiz-adv-x="681" d="M-145 -350q0 52 30.5 85.5t77.5 33.5q44 0 74.5 -32t30.5 -77q0 -34 -22 -63t-58 -41q26 -29 75 -29q125 0 125 176v1266q0 211 108 331.5t279 120.5q121 0 196 -62.5t75 -144.5q0 -59 -33.5 -96t-83.5 -37q-51 0 -85 34.5t-34 84.5q0 36 23.5 67.5t56.5 45.5 q-34 47 -110 47q-71 0 -107.5 -38t-36.5 -128v-1282q0 -217 -89.5 -328.5t-252.5 -111.5q-109 0 -174 57t-65 121z" />
<glyph unicode="&#x2248;" horiz-adv-x="937" d="M139 266v103q8 9 22 22.5t57 36.5t85 23q50 0 164 -41t164 -41q41 0 82 20.5t61 40.5l21 21v-103q-3 -3 -8 -8.5t-22 -20t-35 -25t-45 -19.5t-54 -9q-49 0 -163 41t-165 41q-41 0 -82 -20.5t-61 -41.5zM139 561v103q8 9 22 22.5t57 36t85 22.5q50 0 164 -40.5t164 -40.5 q26 0 52 8.5t45.5 20t35 23.5t23.5 20l8 9v-102q-3 -3 -8 -8.5t-22 -20t-35 -25t-45 -19.5t-54 -9q-49 0 -163 41t-165 41q-41 0 -82 -20.5t-61 -40.5z" />
<glyph unicode="&#x2260;" horiz-adv-x="1030" d="M154 383q0 20 12 32.5t27 12.5q8 0 27 -2t65.5 -4t122.5 -2l120 180h-114q-79 0 -127.5 -2t-67 -4t-26.5 -2q-15 0 -27 13t-12 34q0 20 12 32.5t27 12.5q8 0 27 -2t67.5 -4t126.5 -2h166l6 8q43 65 68 105.5t34.5 58.5t13.5 24q8 13 24.5 15.5t35.5 -8.5q16 -11 20 -29.5 t-4 -28.5q-5 -8 -14.5 -19t-33 -42.5t-58.5 -83.5q55 1 90.5 3t51 3.5t22.5 1.5q16 0 28.5 -12t12.5 -33t-12.5 -34t-28.5 -13q-7 0 -25 2t-65.5 4t-124.5 2l-123 -180h118q78 0 126.5 2t67.5 4t26 2q16 0 28.5 -12t12.5 -33t-12.5 -34t-28.5 -13q-7 0 -25.5 2t-67 4 t-127.5 2h-170l-12 -20q-44 -65 -69.5 -106t-34 -57.5t-13.5 -23.5q-9 -13 -25.5 -15.5t-35.5 7.5q-35 25 -14 59q5 8 15 20.5t36 47t63 88.5q-75 0 -119 -4l-44 -4q-15 0 -27 13t-12 34z" />
<glyph unicode="&#x2264;" horiz-adv-x="937" d="M109 37q0 22 11.5 34.5t26.5 12.5q7 0 26.5 -2t68 -4t125.5 -2h219q78 0 126.5 2t67 4t25.5 2q16 0 28.5 -12.5t12.5 -34.5q0 -21 -12.5 -33t-28.5 -12q-7 0 -25.5 2t-66.5 4t-127 2h-219q-78 0 -126.5 -2t-67.5 -4t-26 -2q-15 0 -26.5 12.5t-11.5 32.5zM156 518 q-44 31 0 60l526 313q30 20 42.5 4.5t-11.5 -39.5l-369 -307l369 -307q28 -28 15.5 -43.5t-46.5 6.5z" />
<glyph unicode="&#x2265;" horiz-adv-x="937" d="M109 37q0 22 11 34.5t27 12.5q7 0 26.5 -2t68 -4t125.5 -2h219q78 0 126.5 2t67 4t25.5 2q16 0 28.5 -12.5t12.5 -34.5q0 -21 -12.5 -33t-28.5 -12q-7 0 -25.5 2t-67 4t-126.5 2h-219q-79 0 -127.5 -2t-67 -4t-25.5 -2q-16 0 -27 12t-11 33zM224 198.5q-12 15.5 16 43.5 l370 307l-370 307q-24 24 -11.5 39.5t41.5 -4.5l527 -313q46 -28 0 -60l-527 -313q-34 -22 -46 -6.5z" />
<glyph unicode="&#x25ca;" horiz-adv-x="1011" d="M119 666l393 677l393 -677l-393 -699zM217 668l295 -537l293 537l-293 514z" />
<glyph unicode="&#xe000;" horiz-adv-x="808" d="M0 0v809h809v-809h-809z" />
<glyph unicode="&#xfb01;" horiz-adv-x="1302" d="M16 770q0 16 9.5 25.5t21.5 9.5q64 0 166 -2v166q0 211 109 331.5t278 120.5q123 0 196.5 -62.5t73.5 -144.5q0 -60 -32.5 -96.5t-83.5 -36.5q-49 0 -83 34.5t-34 84.5q0 36 22.5 67.5t55.5 45.5q-34 47 -109 47q-71 0 -108 -38t-37 -128v-391h418q76 0 125.5 2t69 4 t22.5 2q12 0 21 -10t9 -27v-711q59 0 95 1l36 2q13 0 22 -10t9 -27q0 -16 -9 -25.5t-22 -9.5q-4 0 -20 2.5t-60.5 5t-117.5 2.5h-111q-58 0 -99 -1.5t-57 -3.5t-27.5 -3.5t-16.5 -1.5q-12 0 -21.5 9.5t-9.5 25.5t10 26.5t21 10.5l36 -2q36 -1 95 -1v676h-418v-676q59 0 95 1 l36 2q13 0 22 -10t9 -27q0 -16 -9 -25.5t-22 -9.5q-4 0 -20.5 2.5t-61 5t-117.5 2.5h-110q-74 0 -119 -2.5t-61.5 -5t-20.5 -2.5q-12 0 -21.5 9.5t-9.5 25.5t10 26.5t21 10.5l36 -2q36 -1 95 -1v676q-59 0 -113 -2l-53 -2q-12 0 -21.5 9.5t-9.5 25.5z" />
<glyph unicode="&#xfb02;" horiz-adv-x="1298" d="M16 770q0 16 9.5 25.5t21.5 9.5q64 0 166 -2v160q0 216 89.5 327t252.5 111q133 0 199 -84q1 0 37.5 -1t85.5 -1q65 0 114 2t73 4t28 2q12 0 21 -10t9 -27v-1223q60 0 96 1l37 2q11 0 21 -10.5t10 -26.5t-9.5 -25.5t-21.5 -9.5q-4 0 -20 2.5t-61 5t-119 2.5h-111 q-74 0 -119 -2.5t-61.5 -5t-20.5 -2.5q-12 0 -21 9.5t-9 25.5t9.5 26.5t20.5 10.5q6 0 19.5 -1t42 -1.5t72.5 -0.5v1188q-23 0 -51.5 -1t-34.5 -1q4 -16 4 -24q0 -54 -30.5 -87.5t-78.5 -33.5q-44 0 -75 32t-31 78q0 34 22.5 63.5t59.5 39.5q-31 31 -76 31q-66 0 -95.5 -49 t-29.5 -128v-368q102 2 182 2q13 0 22 -9.5t9 -25.5t-9 -25.5t-22 -9.5l-61 2q-62 2 -121 2v-676q59 0 95 1l36 2q13 0 22 -10t9 -27q0 -16 -9 -25.5t-22 -9.5q-4 0 -20.5 2.5t-61 5t-117.5 2.5h-110q-74 0 -119 -2.5t-61.5 -5t-20.5 -2.5q-12 0 -21.5 9.5t-9.5 25.5 t10 26.5t21 10.5l36 -2q36 -1 95 -1v676q-59 0 -113 -2l-53 -2q-12 0 -21.5 9.5t-9.5 25.5z" />
</font>
</defs>
</svg>
